<svg xmlns="http://www.w3.org/2000/svg" viewBox="0 0 306.29 181.4"><defs><style>.cls-1{fill:#fff;stroke:#000;stroke-miterlimit:10;}</style></defs><title>Asset 3</title><g id="Layer_2" data-name="Layer 2"><g id="Layer_1-2" data-name="Layer 1"><path class="cls-1" d="M290.74,124.58a15.91,15.91,0,0,1,2.8,13.22c-1.45,7.39-.41,14.87-1.65,22.28-1.05,6.24-3,9.4-9.26,10.49-18.06,3.17-36.16,6.13-54.16,9.73-9.2,1.84-18.42-.93-27.54-2.64-12.83-2.4-25.67-4.74-38.54-6.92-3.83-.65-7.3-2.06-9.18-5.31-4.14-7.19-11.29-8.73-18.3-10.62-16.79-4.53-33.64-8.87-50.41-13.48-7.44-2.05-14.55-4.82-18.75-12.1-1.14-2-3.1-2.78-5.53-2.69-4.16.16-8.32.1-12.48,0-7.52-.13-13.51-3.06-17.08-9.91-1.1-2.12-2.76-2.07-4.59-2.09-5.8-.06-11.59.22-17.37-.92-4.12-.81-6.57-2.81-7-7.07l.76-.27a3.06,3.06,0,0,1,1.36.81c2.41,3.21,5.63,4.43,9.6,4.16,2.48-.17,5,.11,7.48-.06,5.86-.39,10.52.77,13.84,6.53,2.5,4.32,7.49,6,12.46,6.37,4,.34,8.07.65,12-.13,4.35-.87,7,.72,9.21,4.14,1.44,2.28,3.1,4.34,5.77,5.28,10,4.82,20.89,6.61,31.4,9.68,12.44,3.63,25,7,37.53,10.23a20.56,20.56,0,0,1,11,7.42,15.86,15.86,0,0,0,4.09,4.66c5,3.22,10.82,3.07,16.31,4.11,12.24,2.34,24.57,4.23,36.78,6.75,9.43,1.94,18.53.32,27.67-1.4,5.88-1.11,11.74-2.32,17.6-3.53,8.16-.11,16-2.42,24-3.38a19.77,19.77,0,0,0,6.19-3.18c1.81-1,1.79-2.75,2-4.44A12.61,12.61,0,0,1,289,159c.51-1.64.46-3.37.9-5,.81-3.36.27-6.77.42-10.15a23.14,23.14,0,0,1,.35-4.63,11.31,11.31,0,0,0,.26-7c-.33-.9-.69-1.79-1-2.7a7.17,7.17,0,0,1-.34-2.2A3.26,3.26,0,0,1,290.74,124.58Z"/><path class="cls-1" d="M153.71,161.65c-5.13-6.52-12.92-7.55-20.16-9.58Q107.33,144.7,81,137.69c-2.62-.7-4.85-2.07-7.26-3.12a20.28,20.28,0,0,1-6.68-7.28c-1.41-2.49-3.33-3.59-6.15-3.09-4.3.77-8.64.41-13,.32-6.74-.14-12.29-2.66-15.48-9-1.29-2.57-3.36-3.49-6.09-3.47-4.66,0-9.32.09-14,0-6.4-.14-9.95-3.5-10-9.9,0-7.08-1.25-14.37,2.82-20.94.74-1.19.45-2.6.15-3.91-1-4.27-.74-8.61-.65-12.93.14-6.55,2.17-9.19,8.41-11.25a6.94,6.94,0,0,0,3-1.65c.3-.4.6-.8.88-1.22a23.84,23.84,0,0,1,7-7c3.57-2.32,5.47-6.16,7.61-9.72l1.13-1.89c1.57-3.6,3.56-6.8,7.67-8,5.61-.88,11.38-.07,16.93-1.57,1-.84,2.34-.76,3.31-1.56l2-2c1.16-1.8,1.87-4,4-4.93h0c1.1-1.85,2.06-3.81,4-5l1-1c1.87-.91,3.6-2.07,5.56-2.82.84-.13,1.68-.14,2.52-.26,7.79-.23,15.59-.91,23.36.4A1.51,1.51,0,0,1,104,6.33a2.86,2.86,0,0,1-1.33,1.15c-7.38,1.15-14.83,0-22.21.68A18.27,18.27,0,0,0,71.7,13.8a16.62,16.62,0,0,0-3.37,4,11.78,11.78,0,0,1-1.26,1.56c-2.16,2.06-4,4.41-6.53,6.11A10.2,10.2,0,0,1,57,26.72c-4.33.52-8.71-.22-13,.51-.84.4-1.7.77-2.57,1.11A6.22,6.22,0,0,0,37.31,32c-1.85,3.06-3.79,6.06-5.91,8.94-1.89,2-3.81,3.91-5.8,5.78a11.35,11.35,0,0,1-1.09.85,7.88,7.88,0,0,0-3,3.18c-1.67,3.2-4,5.52-7.69,6.35a6.46,6.46,0,0,0-4.39,3.69c-.35,5.76-1.15,11.53.85,17.17,1.09,3.07-.48,5.44-2.2,7.74a9.45,9.45,0,0,0-1.51,3.45,52.41,52.41,0,0,0-.11,14.48c.41,1.92,1.07,3.65,3.25,4.21,4.94.75,9.9.35,14.84.31s8.71,1.48,11,6a9.5,9.5,0,0,0,4.06,4.21,16.45,16.45,0,0,0,5.55,2.32c4.77,1,9.56.51,14.35.28a8.36,8.36,0,0,1,1.47-.38,8.6,8.6,0,0,1,8,3.25,19.5,19.5,0,0,1,1.47,2.44c1.78,3,4,5.48,7.49,6.52,13.18,4.69,26.88,7.56,40.28,11.45,7.82,2.27,15.7,4.34,23.57,6.44,5.19,1.38,9.44,4,12.36,8.63A2.33,2.33,0,0,1,153.71,161.65Z"/><path class="cls-1" d="M103.76,5.6h-25C79,3.2,81,3.75,82.44,3.65c2.41-.17,4.83,0,7.25-.06,5.86-.24,11.74.51,17.58-.47,1,0,2-.48,3-.45C127.16,3.15,144,1,161,1.6a6,6,0,0,1,3.79.95l2.95.07c.67.69,1.64.39,2.41.75a10.82,10.82,0,0,0,5.3-.24c4.41-.35,8.33,3,12.87,1.67a48.84,48.84,0,0,1,7.93-.11,8.05,8.05,0,0,1,3.53,1.87c.32,0,.63,0,.94.07,2.74,1.55,5.72,2.64,8.38,4.35,2.22,1.87,5.08,3,6.7,5.57.31,0,.61,0,.92.08a17.28,17.28,0,0,0,5.54,2c7.24,1.12,13.32,4.52,18.73,9.31,1.12,1.25,1.46,2.91,2.33,4.3a5.52,5.52,0,0,0,2.55,3.09c3.14.62,6.31.1,9.46.32a5.89,5.89,0,0,1,1.51.25c2.14,1,4.53,1.39,6.68,2.43,5.57,3.55,11.32,5.87,18.25,5.47,4.71-.27,9.52,1.1,14.2,2.15,3.94.88,6.11,3.5,6.82,7.64A70.7,70.7,0,0,1,303.66,71c-.53,6.63,1.75,13.17.17,19.84-.88,3.73-2.43,6.48-6.18,7.68-2.79.08-5.57.4-8.35.56-.45.11-.91.22-1.37.35a5,5,0,0,0-4.19,3,12.78,12.78,0,0,1-.52,1.2,9,9,0,0,0,.43,7c1.23,3.57,3.59,6.71,3.92,10.6a3.15,3.15,0,0,1-.54,1.31c-2.57.54-2.7-2.08-4.07-3.11a5.49,5.49,0,0,1-1.2-2.44,13.06,13.06,0,0,0-1.6-5,10.06,10.06,0,0,1-.55-1.31c-1.44-3.16-.6-6.31,0-9.47.82-3.21,3.13-4.78,6.12-5.63,3.06-.63,6.19-.09,9.29-.85,2.74-.67,4.42-2,4.83-4.77,1.05-4.14.13-8.19-.27-12.31-.61-6.27-.08-12.6-.24-18.9s-1.57-7.93-7.47-9.13c-4.21-.85-8.41-1.92-12.76-1.64a23.44,23.44,0,0,1-12.87-3.1,54.12,54.12,0,0,0-7.15-3.46c-3.08-1.56-6.42-1.6-9.72-1.41-5.13.29-8.62-1.76-10.39-6.63-2.26-4.37-6.21-7.64-10.52-8.39-9.89-1.73-17.29-7.87-25.51-12.56a43.57,43.57,0,0,0-9.54-4.07c-10.67,1.36-21-1.84-31.44-2.67-4.15-.33-8.15-.75-12.31,0a50.08,50.08,0,0,1-11.93.24c-9.31-.54-18.52,1.24-27.8,1C107.77,6.93,105.54,7.25,103.76,5.6Z"/><path class="cls-1" d="M286.78,121.53l-4-10.94a13.88,13.88,0,0,1,0-8h0a8.34,8.34,0,0,1,5-4h0c2.9-1.3,6.11.31,9-1,4.74-2.2,7.54-6.44,6.65-12-1.15-7.14-.24-14.25-.71-21.36a107.21,107.21,0,0,0-1.11-11.34,7.26,7.26,0,0,0-6.8-6.3c-6.4-.69-12.65-2.33-19.2-2.18-5,.12-8.84-3.31-12.87-5.86-.56-.73-1.82-.36-2.19-1.39.07-.22.14-.43.2-.65.17,0,.38-.06.49,0,9.51,6.42,20.68,5.71,31.3,7.52,11.09,1.89,11,4.79,12.05,14.53.94,8.71-.45,17.57,1.07,26.33.57,3.28-.49,6.64-1.59,9.72-2.16,6.1-8.14,5-12.74,5.75-7,1.19-9,3.87-6.33,10.39,1.89,4.59,4.39,8.93,5.75,13.74v3C287,127.13,287.71,123.8,286.78,121.53Z"/><path class="cls-1" d="M164.77,2.55l-58,1.06c-5.62,1.33-11.41-.42-17,1-3.64.55-7.49-1.12-11,1h-2a2.48,2.48,0,0,1-3.08,0c3.13-2.59,6.91-2.88,10.73-3,16.22-.36,32.48-.19,48.66-1.23C142.2.79,151.28.79,160.37.62,162,.59,164.21-.16,164.77,2.55Z"/><path class="cls-1" d="M256.71,36.6h-1c-3.58-1.4-7.44.33-11-1a3,3,0,0,1-2-3c-.69-1.33-.83-2.93-2-4-5.91-4.33-12-8.2-19.56-9.12a5.44,5.44,0,0,1-4.43-2.87c9.39.7,17.74,3.88,24.78,10.25.61.56,1.51,1.16,1.63,1.84,1,6.11,5.33,6.3,10.13,5.9a10,10,0,0,1,7.5,2v0A3.92,3.92,0,0,1,256.71,36.6Z"/><path class="cls-1" d="M1.73,86.58c3-7.82,1.8-16,2-24,.15-6.2,2-9.06,7.7-10.61,2.83-.76,4.59-1.77,5.7-4.67,1-2.7,3.59-4.25,6.6-4.7-1.06,3.37-5.18,4.47-6,8h0a7.89,7.89,0,0,1-5.19,3.47c-5,1.29-7,3.27-7.22,8.58-.22,4.74-.78,9.58.71,14.28.44,1.4.81,3,0,4.35-2,3.51-3.34,7.14-2.95,11.28.09.93-.68,1.41-1.67.88C1.29,91.14.82,88.83,1.73,86.58Z"/><path class="cls-1" d="M39.76,24.66c-3,1.69-4.5,4.82-7,7,.9-6.16,4.77-9.67,11.57-10,5.45-.27,10.95.2,16.33-1.08l-2,2c-2.09,1.12-4.46,0-6.58.83-2.92.41-5.87-.08-8.79.35C42.24,24.37,40.77,23.59,39.76,24.66Z"/><path class="cls-1" d="M17.75,50.6c0-4.15,4-5.33,6-8,3.17-2.54,4.26-6.93,7.94-9-.09,4.24-3.11,6.72-5.77,9.35S20,47.57,17.75,50.6Z"/><path class="cls-1" d="M169.71,3.6a2,2,0,0,1-2-1c6.77-.34,13.48-.13,20,2l.39.51-.38.51c-4.62,1.27-8.61-1.6-13-2A6.08,6.08,0,0,1,169.71,3.6Z"/><path class="cls-1" d="M1.73,86.58c0,2.34,0,4.68,0,7,1.53,1.82.79,4,1,6-.23,2.33.63,4.82-1,7h0A41.47,41.47,0,0,1,1.73,86.58Z"/><path class="cls-1" d="M208.71,11.6c-2.63-1.71-6.11-2.08-8-5a15.49,15.49,0,0,1,10.06,5A1.44,1.44,0,0,1,208.71,11.6Z"/><path class="cls-1" d="M199.77,6.55l-3-1c-2.88-1.36-6.1.3-9-1v0C192,3.44,196.46,1.57,199.77,6.55Z"/><path class="cls-1" d="M208.71,11.6l2.06,0a6.11,6.11,0,0,1,5,5C213.43,14.89,211.07,13.25,208.71,11.6Z"/><path class="cls-1" d="M70.72,8.58c-.85,2-1.81,4-4,5C66.59,10.77,67.83,9,70.72,8.58Z"/><path class="cls-1" d="M66.77,13.62c-1.39,1.61-1.89,4-4,4.93C62.68,15.77,63.81,14,66.77,13.62Z"/><path class="cls-1" d="M73.69,5.57l3.08,0a5.84,5.84,0,0,1-5.06,1.95Z"/><path class="cls-1" d="M1.74,99.58v-6A64.45,64.45,0,0,0,4.79,67.16a21.26,21.26,0,0,1,.36-7.44c.82-3.24,2.65-5.5,5.92-6,2.65-.38,4.56-1.88,6.68-3.15-.11,2.56-2.14,3.58-4,3.74-5.58.47-6.83,4.42-7.92,8.79-1.66,6.67,3.33,13.5,0,19.85S4,96,3.79,102.54c-.22,6.06,2.54,8.74,8.76,9,4.82.19,9.65.15,14.47,0a5.8,5.8,0,0,1,6,3.53c3.11,6.14,8.35,8.68,15.07,8.54a16.55,16.55,0,0,0,3,0c10.42-2.18,17.74,2,22.71,11-3.5-.67-5-3.54-6.73-6.14s-3.62-3.65-7.36-3.25c-8,.87-16.32,1.74-23.37-3.86-1-.82-2.44-1.62-2.83-2.73-2.14-6.07-6.92-6.32-12.16-6-3.48.19-7,.14-10.46,0-4-.16-7-1.83-8.12-6C1.44,104.39,3.07,101.77,1.74,99.58Z"/><path class="cls-1" d="M256.74,172.6c-12.32,2.25-24.43,6.33-37.09,5.88-10.9-.38-21.49-3.44-32.23-5.18-8.46-1.38-16.87-3.1-25.3-4.65-2.17-.4-4.23-.91-5.39-3.06,1.15-1,2.41-.51,3.65-.29a18.26,18.26,0,0,1,2.28.61c10.31,2.41,20.74,4.14,31.2,5.71,8.26,1.7,16.56,3.23,24.9,4.41,8,1.13,15.66-2,23.49-3.23,4.69-.71,9.26-2.54,14.14-1.67A1,1,0,0,1,256.74,172.6Z"/><path class="cls-1" d="M286.78,121.53l4,6c0,.67,0,1.34,0,2,2,4.37.2,8.89.48,13.32a7.49,7.49,0,0,1-.17,1.77c-.65,4.95-.07,10-1.32,14.9l0,1c-.67,1.66-.6,3.61-2,5-1.93,1.13-3.52,2.92-6,3-1.12.78-2.38.36-3.59.41a1.11,1.11,0,0,1-.78-1c1.66-3.41,6.49-1.79,8.18-5.14.19-.4.38-.79.56-1.19.74-2.2.2-4.53.68-6.75a11.14,11.14,0,0,1,.34-1.41c.63-4.5-.08-9,.44-13.53a9.55,9.55,0,0,1,.3-1.41,14.26,14.26,0,0,0-.65-10c-.18-.43-.32-.86-.46-1.31-.24-1.54-1.39-3.06-.08-4.62C286.74,122.26,286.76,121.89,286.78,121.53Z"/><path class="cls-1" d="M277.72,168.58l4,0a117.69,117.69,0,0,1-25,4c0-.33,0-.66,0-1C263.54,169.25,270.4,167.32,277.72,168.58Z"/><path class="cls-1" d="M159.84,166.51l-3.11-.91c-1.55-.9-2.87-2-3-3.94l0-2C157.17,160.67,159.63,162.6,159.84,166.51Z"/><path class="cls-1" d="M289.73,159.58c.57-5-1.17-10.12,1-15a21.66,21.66,0,0,1,0,10C290.48,156.27,291.39,158.19,289.73,159.58Z"/><path class="cls-1" d="M290.74,143.6q0-7,0-14a2.11,2.11,0,0,1,1,2,11.17,11.17,0,0,1,0,7c0,1.66,0,3.32,0,5Q291.25,144.27,290.74,143.6Z"/><path class="cls-1" d="M290.74,143.6l1,0c-.5,3.66,1.13,7.5-1,11v-10C290.74,144.26,290.74,143.93,290.74,143.6Z"/><path class="cls-1" d="M291.74,138.59v-7A5.82,5.82,0,0,1,291.74,138.59Z"/><path class="cls-1" d="M1.74,99.58c1.87,2.12.61,4.68,1,7h-1C1.74,104.25,1.74,101.91,1.74,99.58Z"/><path class="cls-1" d="M287.73,165.59c.43-1.76.68-3.58,2-5C289.73,162.53,290.06,164.58,287.73,165.59Z"/><path class="cls-1" d="M194.75,7.58a47.1,47.1,0,0,1,18.58,10.19c3.61,3.21,8.13,3.54,12.38,4.8,5.82,1.73,11,4.34,14,10a1.86,1.86,0,0,1,.12,2.18,1.88,1.88,0,0,1-1.5-.16c-5.86-4.1-11.29-8.92-19-9.58-4-.35-7.08-2.64-10.24-5.34-6.53-5.56-13.59-10.83-23.21-7.34a6.51,6.51,0,0,1-5.32-.22c-3.25-3.38-7.21-2.16-11.06-1.69a6.12,6.12,0,0,1-2.37-.21C160.44,6.45,153.36,8,146.31,9c-3.52.05-7.05,0-10.57.05-5.67.14-11.37-.57-17,.89-3.91.17-7.83.06-11.74.11-5.14.18-10.33-.61-15.41.76a11.2,11.2,0,0,1-3.46.12c-8-1.48-13.71,1.71-17.51,8.71-3,2.79-4.56,6.9-8.42,8.85-2.84.6-5.76.68-8.58,1.41-2.9.15-5.79.09-8.69.06a13.91,13.91,0,0,1-3-.34,3.79,3.79,0,0,1-1.3-.69,1,1,0,0,1,.07-1.3l2-1c4.94-1.37,10.09.47,15-1l3-1a20.26,20.26,0,0,0,6-6c.32-.33.64-.67,1-1,1-1.33,2.15-2.57,3-4,1.76-3.2,4.63-4.92,8-6,6.22-1,12.48-.14,18.72-.47,1.78-.09,3.63.5,5.32-.51h1c5.72-1.22,11.53-.31,17.3-.63,13.86-.77,27.81-2.17,41.62-.6,6.6.75,13.44-.37,20,2.52C186.25,9.48,190.66,7.45,194.75,7.58Z"/><path class="cls-1" d="M159.84,166.51l-6.1-6.89c-5.54-6.5-13.47-8-21.13-10q-25-6.74-49.89-13.55a52.16,52.16,0,0,1-6-2.45,33.47,33.47,0,0,1-7-7,2.1,2.1,0,0,1-1-2,2.73,2.73,0,0,1-.59-1.88,7.93,7.93,0,0,1,.28-1.37c.74-1.09.2-4,3-2.23,1,8.09,6,11.75,13.54,13.72,21.55,5.65,43,11.84,64.48,17.54a14.23,14.23,0,0,1,4.53,2,8.89,8.89,0,0,1,2.56,3.69c2,4.57,5,7.85,10.58,7.33a11.07,11.07,0,0,1,2.27.42c6.9,1.45,14.15,1.41,20.57,4.87-.92,2.84-3.34,1.51-5.16,1.85-7.74-.95-15.36-2.65-23-4C161.1,166.56,160.47,166.53,159.84,166.51Z"/><path class="cls-1" d="M194.75,7.58a32.38,32.38,0,0,1-16.57-.39c-5.8-1.56-12.13-1.56-18.22-1.52-18.75.12-37.5.59-56.25.92,0-.32,0-.65,0-1,14.6.13,29.24-.4,43.73-1.47,10.3-.76,20.13,1.21,30.05,2C183.19,6.59,189.07,6.54,194.75,7.58Z"/><path class="cls-1" d="M8.71,59.57a92.18,92.18,0,0,0,16-13,3.87,3.87,0,0,1-.06,3.06c-3.24,12-2.37,9.61-13,10.55a4.89,4.89,0,0,1-1.57.12l-.76-.22Z"/><path class="cls-1" d="M6.67,85.56c2.36-2.82,2.89-5.4,1.74-9.43a27,27,0,0,1,.3-16.56l.07.06c2.64,4.29.61,9.11,1.54,13.59.35.92.63,1.87,1,2.79.18.42.33.85.47,1.28.68,1.94,1.82,3.84.7,6,3.14.27,6.25-.07,9.35,0,2.3.08,4.59-.11,6.89-.19a1.81,1.81,0,0,1,1.36.82,2.25,2.25,0,0,1-.19,1.65c-2.8,2.37-6.17,1.06-9.28,1.45-4.16-.18-8.33.36-12.48-.38A3.22,3.22,0,0,1,6.67,85.56Z"/><path class="cls-1" d="M44.72,121.6a6,6,0,0,1-5-2c-.82-1-2.92-1.3-1.81-3.34,2.79-.9,4.42,1.82,6.82,2.14,4.57.13,9.13-.38,13.7-.19,2.07.12,4.13-.22,6.2-.21,2,.93,5.08.89,4.13,4.52l0,0c-2.74.31-5-3-8-1h0A55.77,55.77,0,0,1,44.72,121.6Z"/><path class="cls-1" d="M23.76,48.76c.32-.73.65-1.45,1-2.18h0a20.58,20.58,0,0,0,6-6l6-9c1.27-1.1,1.64-3.42,4-3l.1.11a1.7,1.7,0,0,1,.28,1.86A180.67,180.67,0,0,1,29.45,47.78C28,49.53,26,50.37,23.76,48.76Z"/><path class="cls-1" d="M6.67,85.56l1.13,0c2.41,3.65,1,7.74,1.29,11.62.19,2.47,0,5,0,7.44,0,.82.06,1.65.13,2.47,0,.27-.07.54-.1.81l-.43.69c-2.5-.22-3.09-1.87-3-4a56,56,0,0,1,0-16C5.76,87.47,5.54,86.31,6.67,85.56Z"/><path class="cls-1" d="M37.74,116.47c.66,1,1.31,2.11,2,3.17-2.77-.46-4.24-2.47-5.27-4.76-1.81-4-4.92-5.22-9.14-5.35-5.52-.16-11.15,1.2-16.57-.89l0-.1c8.23-3.58,23-1.48,27.89,4C37.62,113.66,38.3,114.89,37.74,116.47Z"/><path class="cls-1" d="M102.73,6.58c-4.06,2.13-8.41.67-12.61,1-3.79.25-7.62,0-11.43,0,5.09-2.13,10.41-.52,15.6-1C97.09,6.38,99.92,6.58,102.73,6.58Z"/><path class="cls-1" d="M51.73,22.6h7c-6.11,2.62-12.59,1.79-19,2.07.65-1.27,1.86-1,3-1.08C45.62,22.3,48.84,23.94,51.73,22.6Z"/><path class="cls-1" d="M44.72,121.6h16A27.5,27.5,0,0,1,44.72,121.6Z"/><path class="cls-1" d="M5.72,88.57v16.05A28,28,0,0,1,5.72,88.57Z"/><path class="cls-1" d="M57.73,25.58c-4.88,2.2-10,.45-15,1C47.6,24.43,52.74,26.14,57.73,25.58Z"/><path class="cls-1" d="M69.7,126.61a28.77,28.77,0,0,1,7,7A10.79,10.79,0,0,1,69.7,126.61Z"/><path class="cls-1" d="M66.72,18.57a7.76,7.76,0,0,1-6,6A25.4,25.4,0,0,1,66.72,18.57Z"/><path class="cls-1" d="M30.7,40.55a7.75,7.75,0,0,1-6,6A25.36,25.36,0,0,1,30.7,40.55Z"/><path class="cls-1" d="M60.74,121.61c3-2.5,5.4,0,8,1,0,.67,0,1.35,0,2C66.35,122.83,63.94,121.16,60.74,121.61Z"/><path class="cls-1" d="M40.74,28.59l-4.05,3a4.34,4.34,0,0,1,4-4C40.73,27.91,40.73,28.25,40.74,28.59Z"/><path class="cls-1" d="M70.72,13.57c-.08,2-1.36,3.17-3,4C67.87,15.6,69.14,14.47,70.72,13.57Z"/><path class="cls-1" d="M282.76,116.6c.33.67.65,1.34,1,2,1.14,3.08,2.77,6,4,9v0c1.05,3.62,2.29,7.22,1,11v0c-1.5,5.27.36,10.75-1,16v0c-1.43,2.53.29,5.47-1,8h0c-.61.66-1.08,1.66-2.28,1a3.17,3.17,0,0,1-.48-1.36,6.55,6.55,0,0,1,.14-1.47,33.31,33.31,0,0,0,.23-6.77,47.78,47.78,0,0,1,.33-8.11c.86-2.35.64-4.81.66-7.24,1.25-7.25-2.69-13.09-5.3-19.26-1.29-3-2.55-6.11-4-9.08a8.23,8.23,0,0,1-.14-7.14c4.13-10.17,9.31-12.75,21-10.22,1.32,1.16,1,1.52-.6,2.2-3.45,1.48-7.18.26-10.6,1.48-2.15,1.17-4.69,2-5,5a9,9,0,0,0,0,10h0C281.57,113.19,281.81,115,282.76,116.6Z"/><path class="cls-1" d="M265.74,43.55c8.52,4.62,18.22,2.54,27.24,4.68,4.83,1.14,7.26,3.58,7.53,7.8.68,10.76.84,21.56,1.14,32.35a6.43,6.43,0,0,1-.86,2.23,1.14,1.14,0,0,1-1.58-.41c-1.27-2.33-.81-4.88-.84-7.34-.09-7.47.26-15-1-22.37-.31-2.3.89-4.87-1.25-6.83-6.68-2.34-13.61-2.67-20.59-2.75-2.13,0-4.83.85-5.95-2.18,3.62-1.52,7.3-.25,11.21-.55-3.63-.34-7.12.25-10.49-.57C268,47.06,265.59,46.75,265.74,43.55Z"/><path class="cls-1" d="M239.71,34.63c0-.69,0-1.39,0-2.08,1.86,5.05,5.51,6.71,10.72,6.13,3.21-.36,6.54-.33,9.32,1.9a4.39,4.39,0,0,1-2.8,2.05c-6,.15-12.11,1.49-18-.83-.27-2.67,1.36-1.83,2.84-1.65C240.38,38.65,237.63,37.48,239.71,34.63Z"/><path class="cls-1" d="M257.74,41.47l2.05-.9a11.62,11.62,0,0,1,5.95,3c4.2,5.29,10.34,3.66,15.82,5H269.74C264.9,47.63,260.66,45.67,257.74,41.47Z"/><path class="cls-1" d="M299.74,90.59l1,0c.05,2.94-1.45,4.34-4.28,5.11-3.58,1-7.17.82-10.78.91,3.4-2.08,7.58-.38,11-2.27a.47.47,0,0,0,.14-.41c0-.15-.16-.27-.25-.41-.38-1.32.75-1.68,1.45-2.32A3.06,3.06,0,0,1,299.74,90.59Z"/><path class="cls-1" d="M89.73,4.59c5.57-2.17,11.36-.46,17-1C101.19,5.73,95.4,4.06,89.73,4.59Z"/><path class="cls-1" d="M280.74,111.59c-2.9-3.33-2.88-6.66,0-10A18.27,18.27,0,0,0,280.74,111.59Z"/><path class="cls-1" d="M287.76,127.58c-2.15-2.63-3.8-5.49-4-9l3,4Z"/><path class="cls-1" d="M244.71,35.6c3.66.5,7.51-1.14,11,1C252.07,36.1,248.23,37.71,244.71,35.6Z"/><path class="cls-1" d="M296.75,97.63c-2.84,1.91-6,.57-9,1C290.57,96.63,293.75,98,296.75,97.63Z"/><path class="cls-1" d="M187.74,4.6c3,.42,6.18-1,9,1h-9C187.74,5.27,187.74,4.93,187.74,4.6Z"/><path class="cls-1" d="M287.74,98.59l-5,4C283.15,99.69,284.93,98.5,287.74,98.59Z"/><path class="cls-1" d="M282.74,102.59c0,2.67,0,5.33,0,8A7.42,7.42,0,0,1,282.74,102.59Z"/><path class="cls-1" d="M256.71,36.6h4l2,2A10.11,10.11,0,0,1,256.71,36.6Z"/><path class="cls-1" d="M282.76,116.6a5.74,5.74,0,0,1-2-5A6,6,0,0,1,282.76,116.6Z"/><path class="cls-1" d="M240.69,28.61c1.88.72,2.13,2.27,2,4A6,6,0,0,1,240.69,28.61Z"/><path class="cls-1" d="M169.71,3.6h5A3.52,3.52,0,0,1,169.71,3.6Z"/><path class="cls-1" d="M51.73,22.6c-2.82,2-6,.56-9,1C45.55,21.62,48.74,23,51.73,22.6Z"/><path class="cls-1" d="M277.72,168.58c-7,.91-13.85,2.92-21,3-7.45,1.34-15.1,2-22.3,4.19-10,3-19.63,1.22-29.31-.68-3.81-.75-7.84-.73-11.44-2.51a3.46,3.46,0,0,1,2.22-1.22c7.51-.05,14.65,2.48,22.07,3.23a27.26,27.26,0,0,0,8.83-.16c6.63-1.47,13.36-2.41,20-3.8,1.72-.42,3.52-.23,5.22-.75a11,11,0,0,1,1.38-.3,25.74,25.74,0,0,0,4.7-.61,10,10,0,0,1,1.3-.34,27.79,27.79,0,0,0,5.28-.84,9.18,9.18,0,0,1,1.36-.3,20.12,20.12,0,0,0,4.92-.84,7.89,7.89,0,0,1,1.51-.29c1.85-.05,3.76-.36,5.24,1.19C277.73,167.91,277.73,168.24,277.72,168.58Z"/><path class="cls-1" d="M195.78,172.56l-2.07.05c-10.82-1.14-21.58-2.6-32-6,7.84-.37,15.19,2.95,23,3,1.83,1,3.78.1,5.62.39S195.06,169.43,195.78,172.56Z"/><path class="cls-1" d="M277.73,167.58h-6c-.22-1.6,1-1.94,2.08-2.09,3.67-.5,7.19-1.82,10.92-1.91l2-1C285.54,167.5,280.85,166.12,277.73,167.58Z"/><path class="cls-1" d="M287.75,154.61c.52-5.33-1.16-10.8,1-16C288.3,143.93,289.74,149.38,287.75,154.61Z"/><path class="cls-1" d="M288.75,138.61c.59-3.77-1-7.33-1-11C290,131.08,290.6,134.73,288.75,138.61Z"/><path class="cls-1" d="M286.75,162.61c.42-2.66-1-5.56,1-8C287.39,157.26,288.71,160.15,286.75,162.61Z"/><path class="cls-1" d="M257.74,41.47l12,7.12c2.84,2,6.06.82,9.08.93,6.42.24,12.74.9,18.83,3.07,1.06,1.43.37,3.06.52,4.6-.63,1.44-.13,3.2-1.26,4.5a1.36,1.36,0,0,1-1.44-.1,4.81,4.81,0,0,1-1-3.73c.31-3-1.2-4.21-4-4.37-3.59-.56-7.15-1.2-10.77-1.49-1.45,0-2.91.08-4.34-.08-3.43-.39-4.74,1.12-4.26,4.43-.44,5.59.89,11.27-.84,16.79-.81,1-1.48.55-2.13-.19-1.67-4.84-1-9.87-.66-14.74.4-5.9-1.15-9.93-7-11.84-1.07-.35-1.95-1.24-3.12-1.48-2.68-1.18-5.51-.82-8.3-.9-11.19-.33-22.41.7-33.58-.57a1.91,1.91,0,0,1-1.05-1.21c2.28-3.19,5.67-1.52,8.58-2,2.19-.32,5.72.89,6.15-1.61.56-3.18,1.76-7.18-1.75-9.93-4.91-2.24-10.49-2-15.4-4.25a5.92,5.92,0,0,1-1.76-1.38c-3.77-5.72-10.27-7.41-15.8-10.45-2.23-1.22-4.81.29-7.18.92-2.76.13-6.21,3-7.74-1.88a.88.88,0,0,1,1.36-.15c1,0,2.11.33,3,0,12.16-4.63,20.54,1.78,28.59,9.52,3,2.91,7.34,2.69,11.14,3.5,6.42,1.36,11,5.26,15.09,10,0,.22,0,.45,0,.67-.1,1.57.32,3.13.1,4.7l-.09.67C245,42.69,251.4,41.08,257.74,41.47Z"/><path class="cls-1" d="M23.76,48.76c2.87.06,4.79-1,6.36-3.68,3.33-5.61,7.12-10.94,10.72-16.38h2.93a.92.92,0,0,1,.27.74c0,.27-.08.4-.13.4-.51.69-1.12,1.31-1.61,2-2.29,3.42-4.57,6.83-6.81,10.28a23.36,23.36,0,0,0-2.38,4c1.82.69,3.66.07,5.43.17,2,.08,4.13-.3,6,.89a1.34,1.34,0,0,1,.4,1.45c-1.17,1.29-2.86,1.35-4.35,1.89-3.62.72-7.3.27-11,.44-1.5.07-3.59-.13-4,1.36C24,57.91,20.69,63.4,23.71,69.53c1.55,3.14,3.53,6,5.24,9.07.88,1.56,2.13,3.1.82,5l-1,0c-3.17-.65-3.55-6-7.89-4.67-2.92-.13-5.87.37-8.76-.43a6.35,6.35,0,0,1-1.33-1c0-.31,0-.61-.08-.92-.37-1,.25-1.25,1-1.46,1.79,0,3.57.35,5.35.2,1.38-.12,3.24.66,4-1s-.79-2.65-1.6-3.83c-.27-.4-.6-.77-.88-1.17a5.4,5.4,0,0,1-.6-1.26,3,3,0,0,1-.16-1c.42-6.45.42-6.45-6.08-6.14-.75-.21-1.29-.57-1-1.48.25-.2.55-.62.76-.58C19.51,60.36,22.87,56.07,23.76,48.76Z"/><path class="cls-1" d="M180.91,11.53c-.33,0-.66.05-1,.05-1.63.1-3.14-.9-5.23-.48,4.54,2.63,9,4.6,13.43,6.77,5.1,3.43,11.47,5.69,12.24,13.15-.1,3.37,2.62,1.94,4.2,2.45,1,.22,2.06.41,2.38,1.64-3.11,3-6.53,2.1-10,.81-1.49-2.68.56-6.53-2.84-8.59-3.2-4.28-8.06-6.09-12.54-8.5-3.88-2.08-8.29-3.29-11.45-6.63a5,5,0,0,1-.55-2.81C173.55,9.06,178.05,5.93,180.91,11.53Z"/><path class="cls-1" d="M146.71,7.63c7.13-.81,14.41-3.18,21,1.85a.86.86,0,0,1-.24,1.36c-4-.51-8-1.26-12.05-.85-2.79-.28-5.69.52-8.36-.88A1.08,1.08,0,0,1,146.71,7.63Z"/><path class="cls-1" d="M118.7,8.64c5.61-1.79,11.38-.85,17.08-1a1.2,1.2,0,0,1-.23,1.46,6.22,6.22,0,0,1-2.91,1.51c-4.53.34-9.08,1.05-13.54-.53A1.11,1.11,0,0,1,118.7,8.64Z"/><path class="cls-1" d="M69.57,19.46C73.44,9.34,81.64,8.53,90.73,9.61A1,1,0,0,1,90.58,11c-8.21-.32-14.68,3.32-20.33,8.87Z"/><path class="cls-1" d="M90.71,10.48c0-.29,0-.58,0-.87,5.28-1.68,10.69-.89,16.06-.87a1.14,1.14,0,0,1-.24,1.39,7.57,7.57,0,0,1-4.32,1.68c-1.09.1-2.18.15-3.28.19C96.19,11.61,93.11,12.86,90.71,10.48Z"/><path class="cls-1" d="M53.71,28.63c2.9-1.09,5.93-1.07,9-1.06.92-.37,2.11.31,2.87-.75,1.34-.3,2.57-.25,3.47,1a1.7,1.7,0,0,1-.57,1.5c-4.64,2.54-9.46,2-14.32.83A1.1,1.1,0,0,1,53.71,28.63Z"/><path class="cls-1" d="M64.83,27.44c-.65,1.2-1.42.3-2.16.12,2.33-2.67,3.94-6,6.9-8.1l.37.27a2.27,2.27,0,0,1,.32,1.37A12.19,12.19,0,0,1,64.83,27.44Z"/><path class="cls-1" d="M239.71,34.63c-.35,2.54,1.39,3.89,3.57,5.68l-4.57.29h0a8.6,8.6,0,0,1,0-6h0C239,34.59,239.38,34.61,239.71,34.63Z"/><path class="cls-1" d="M106.74,9.58q0-.42.06-.84l11.91-.1c0,.27,0,.54,0,.81C114.73,12,110.75,11.86,106.74,9.58Z"/><path class="cls-1" d="M135.72,8.61q0-.46.06-.93l10.93-.06c0,.29,0,.57,0,.85C143.07,10.76,139.41,10.59,135.72,8.61Z"/><path class="cls-1" d="M53.71,28.63c0,.27,0,.55,0,.82a8.31,8.31,0,0,1-9.92.06,7.48,7.48,0,0,1,0-.82Z"/><path class="cls-1" d="M167.79,10.52c0-.35,0-.69,0-1l1.83-.09a2.36,2.36,0,0,1,1.16,2.18C169.25,12.63,168.39,11.94,167.79,10.52Z"/><path class="cls-1" d="M64.8,118.68a11.34,11.34,0,0,1-6.09.8A1.13,1.13,0,0,1,59,118a2.09,2.09,0,0,1,.82-.54c8.8-1.38,10.74-7,9.67-14.92a19.3,19.3,0,0,1,.65-9.34c0-1.39,2.9-2.56.3-4.15-7.59.33-15.07-1-22.62-1.11-3.42-.3-7.13.82-10-2a1.43,1.43,0,0,1,0-1.65c2.42-1.62,5.05-1,7.66-.78,9.88.72,19.73,2.1,29.67,1.57,3.24-.17,5.79-2.33,8.67-3.55C87.89,79.82,91.51,77,96,76.14a2.31,2.31,0,0,1,1.93,1.27c-.17,2.76-2.54,3.19-4.42,4A137.32,137.32,0,0,0,78,89.15a15.71,15.71,0,0,0-5,12.87c.48,7.06-.35,14.16.4,21.22a15.44,15.44,0,0,0,6.66,6.46c19.11,5.76,38.45,10.64,57.66,16,2.24.62,4.52,1.1,6.73,1.86a38.2,38.2,0,0,0,8.83,2,3.62,3.62,0,0,1,1.36.71c.81,1.4.22,2.47-.8,3.43-9.63-4.13-20-5.93-29.95-8.83-14.15-4.11-28.44-7.72-42.66-11.61-6.62-1.81-10.37-7.1-10.63-14.66C68.68,117.3,66.76,119.32,64.8,118.68Z"/><path class="cls-1" d="M284.74,163.59c-2.77,2.77-6.6,2.07-9.94,2.95-1.06.28-2.28,0-3.06,1l-.49,0h-.49c-1.52,1.14-3.53-.24-5,1l-.49,0h-.49c-1.86,1.23-4.18-.33-6,1h0c-1.51,1.14-3.52-.24-5,1l-.49,0h-.49c-1.51,1.15-3.54-.26-5,1-15.39,4.42-30.89,6-46.57,1.59a20.55,20.55,0,0,0-5.38-.63c-3.38-2.16-7.65-1-11.07-3,1.68-.24,3.55.58,5-.87,4.48-1.92,8.66.69,13,.86,6,1.33,12.07,2.2,18.1,3.29,4.31.77,8.49-1.16,12.7-1.93,5.38-1,10.76-2,16.08-3.3,3-.32,5.88-1.28,8.89-1.49,5.57-1.1,11.26-1.51,16.81-2.78,3.19.25,6.16-1.95,9.42-.84C284.73,162.89,284.73,163.24,284.74,163.59Z"/><path class="cls-1" d="M153.89,153.7c-.32-1.22.33-2.14.93-3.08,2-3.24,3-6.86,4-10.48.5-1.74.25-4.11,2.75-4.77a4,4,0,0,1,1.9,2.36c.95,4.79-2.17,8.74-2.73,13.22-.52,5.2,1,7,7.67,8.81,1.48.55,3.08.61,4.58,1.09a2.44,2.44,0,0,1,1,.88,1.45,1.45,0,0,1-.37,1.21c-1.27.87-2.89.77-4.23,1.48l-.6.22-2.16-.07c-5.28-.5-8.49-3.9-11.19-8C154.94,155.6,154.41,154.65,153.89,153.7Z"/><path class="cls-1" d="M202.67,170.62l-12.94-1.89c-7-1.19-14-2.15-20.91-4.1h0a2.5,2.5,0,0,1,2.86-1.37c11.13,1.46,22.33,2.49,33.06,6.1C204.88,171.2,204,171.26,202.67,170.62Z"/><path class="cls-1" d="M155.47,156.55c3.07,3.59,7,6,11.19,8C160.49,165.31,157.56,161.51,155.47,156.55Z"/><path class="cls-1" d="M64.8,118.68c2,.08,3.83-4.5,5.84-.09-1.47.93-.3,3.1-1.89,4C68.66,120,65.78,120.32,64.8,118.68Z"/><path class="cls-1" d="M10.65,59.54c.31.33.63.66.94,1,2.59,5,2.29,10.05.06,15.09l-1,1a2.33,2.33,0,0,1-1-2.09,53,53,0,0,1,0-14.93Z"/><path class="cls-1" d="M9.68,59.59q0,7.47,0,14.93c-2.09-4.86-.44-9.94-.91-14.9Z"/><path class="cls-1" d="M45.65,84.63l-8,.15a2.57,2.57,0,0,1-1.84.45,10.44,10.44,0,0,0-5-.15,1.38,1.38,0,0,1-1.1-.52c0-.31,0-.62,0-.94-1.57-5.32-5.44-9.4-7.73-14.34-1.33-2.87.37-16.46,2.51-18.47a5.78,5.78,0,0,1,4.19-1.21c4,0,8,0,11.92-.06,1.84-.84,3.88-.38,5.8-.95,1.13-.34,2.95-.2,3.06,1.5.09,1.43-1.53,1.57-2.61,1.68-4.12.42-8.25.14-12.38.21-2.68.05-5.29.24-7.32,2.3a13.25,13.25,0,0,0-2.54,6.06c-.61,2.17-1.16,4.34.18,6.46,2.71,4.15,4.1,9.06,7.4,12.88,1.35,1.84,3.46,1.7,5.38,2a11.29,11.29,0,0,1,1.42.34c4.37.72,8.87-.59,13.19.89a1.2,1.2,0,0,1,.65,1.37C50.51,85.63,48.08,85.2,45.65,84.63Z"/><path class="cls-1" d="M10.74,77.53l1.06.14c2.71.82,5.57.32,8.3,1,1.39.34,2.68.86,2.74,2.38A2.76,2.76,0,0,1,20,83.93c-3.09.12-6.24.68-9.3-.34C13.22,81.57,11,79.55,10.74,77.53Z"/><path class="cls-1" d="M7.74,106.59q0-10.49.07-21l13,.08a1.1,1.1,0,0,1-.41,1.4,7.86,7.86,0,0,1-3.8.85c-5,.09-5,.09-5.95,7.59-.95,2.75-.42,5.63-.69,8.44a5.57,5.57,0,0,1-.38,1.56C9.2,106.25,8.73,106.87,7.74,106.59Z"/><path class="cls-1" d="M10.73,83.59c2.82,0,5.65,0,8.47-.1A2.71,2.71,0,0,0,22,81.13c0-1.44-1.67-1.16-2.64-1.65-2.41-1.24-5.34,0-7.58-1.81h10c1.75.7,3.81,1.12,3.68,3.68-.12,2.32-2.21,2.41-3.69,3.18-3.65,0-7.29-.08-10.94-.14-.09,0-.24-.22-.25-.34A1.43,1.43,0,0,1,10.73,83.59Z"/><path class="cls-1" d="M20.86,86.43a3.06,3.06,0,0,1,0-.74c3-.54,6.17,1.13,8.9-1.12l1.06-.17a8.66,8.66,0,0,1,4.89,0l2,.35c.06.32.13.64.2,1a1.22,1.22,0,0,1-.61,1.49,5.94,5.94,0,0,1-1.68.61C30.64,87.65,25.51,89.52,20.86,86.43Z"/><path class="cls-1" d="M21.78,84.54c3.58-2.29,3.7-4.57,0-6.87,4.88-1,4.74,3.81,6.94,5.92C26.63,85.58,24.09,84.23,21.78,84.54Z"/><path class="cls-1" d="M36.66,86.71l1-.17c1.6,1.37,1.37,3.26,1.47,5.06,0,4.32,0,8.64,0,13-1,5.7.33,10.34,5.79,13.19.2.94-.31,1.44-1.1,1.76l-6.07-3-1.11-3C35.42,109,32,108.12,27.94,108c-6.39-.12-12.79.54-19.16-.36l-1-1.09c.37-.4.73-.8,1.1-1.19a3.06,3.06,0,0,1,1.68-.33c6.46.24,12.92-.13,19.37,0,3.76.1,5.26-1.52,5.4-5.3C35.46,95.43,34.08,90.84,36.66,86.71Z"/><path class="cls-1" d="M43.81,119.5l.93-.91a15.83,15.83,0,0,1,14,0q0,.45,0,.9Z"/><path class="cls-1" d="M8.77,107.68c7.39,0,14.8.25,22.16-.21,4.93-.31,6.64,1.33,5.69,6-5.94-6.92-14-4.6-21.44-4.91-2.14-.09-4.28,0-6.43-.06C8.75,108.25,8.75,108,8.77,107.68Z"/><path class="cls-1" d="M298.86,91.51l-2.22,2c-1.66,0-3.32,0-5,0-10.22.2-13,2.36-15.47,12a3.89,3.89,0,0,0,.41,2.8c2.41,5.44,4.46,11.07,7.28,16.29a23.5,23.5,0,0,1,2.8,13.83c-.73.66-.08,2.2-1.52,2.41a1.76,1.76,0,0,1-1.18-1c-1.27-3.79.16-8-1.63-11.68-2.06-5.76-4.89-11.19-7.23-16.84-3.85-9.29,2.85-19.93,12.76-20.16a13.68,13.68,0,0,0,4.41-.48c1.15-.4,2.47-.34,3.45-1.21,1.1-2,.32-4.13.8-6.13.31-1.31.09-3.43,2.63-2.44C299.1,84.51,299.59,88,298.86,91.51Z"/><path class="cls-1" d="M284.84,140.61h.89a6.2,6.2,0,0,1,.09,5c-.05,3-.11,5.92-.16,8.88-.73.69,0,2.38-1.66,2.43a2.48,2.48,0,0,1-1.15-1.2A22.56,22.56,0,0,1,284.84,140.61Z"/><path class="cls-1" d="M283.9,156.59h.8a6.1,6.1,0,0,1,.14,4.95l-.12,1a19.78,19.78,0,0,1-9,2,1.28,1.28,0,0,1-.07-1.36C278.51,161.08,282.88,160.94,283.9,156.59Z"/><path class="cls-1" d="M284.84,161.54c0-1.65-.1-3.3-.14-4.95l1-2.16C285.43,156.81,286.56,159.34,284.84,161.54Z"/><path class="cls-1" d="M285.82,145.55l-.09-5c.32-.7.63-1.41.95-2.11C286.41,140.84,287.58,143.37,285.82,145.55Z"/><path class="cls-1" d="M298.86,91.51c-.06-3.61-.13-7.22-.19-10.83-2.66-3.67-.33-8.13-1.92-12-.84-3,0-5.83.59-8.71a.9.9,0,0,1,1.41-.42c1.32,10.3,1,20.66,1,31C299.44,90.9,299.15,91.21,298.86,91.51Z"/><path class="cls-1" d="M298.73,59.59h-.88a1.3,1.3,0,0,1-.21-1.93l0-5.07C299.71,54.66,298.33,57.26,298.73,59.59Z"/><path class="cls-1" d="M258.74,169.61c1.76-1.83,4-.7,6-1C263,170.33,260.75,169.31,258.74,169.61Z"/><path class="cls-1" d="M247.73,171.61c1.41-1.68,3.33-.79,5-1C251.33,172.19,249.43,171.39,247.73,171.61Z"/><path class="cls-1" d="M265.73,168.59c1.42-1.65,3.33-.77,5-1C269.33,169.19,267.44,168.39,265.73,168.59Z"/><path class="cls-1" d="M253.73,170.59c1.41-1.65,3.32-.78,5-1C257.32,171.19,255.43,170.38,253.73,170.59Z"/><path class="cls-1" d="M258.65,43.75c8.71,2.69,11.53,8.64,10.18,17.39-.58,3.73-.1,7.62-.1,11.44-1,2.23-3.06,2.37-5.08,2.37q-36.69.1-73.38,0a6.81,6.81,0,0,1-2.91-.6,1.9,1.9,0,0,1-1.06-1.45c1.11-3.62,4.21-2.64,6.65-2.65,20.15-.09,40.31,0,60.46,0,11.57,0,12-.54,12-12.11,0-4.69-1.56-8-5.85-10.06a6.75,6.75,0,0,1-2.73-2.12C255.9,43.89,257.85,44.31,258.65,43.75Z"/><path class="cls-1" d="M258.65,43.75l-1.93.85a2.69,2.69,0,0,1-1.74.49c-11.95-.23-23.9-.05-35.85-.1a13.18,13.18,0,0,0-4.41.66c-9.52.55-19,1.74-28.57,1.34a60.27,60.27,0,0,0-14.25.9,5.83,5.83,0,0,1-2.56-.57,1.6,1.6,0,0,1-.9-1.34c.59-1.45,2.08-1.77,3.2-2.57a8.37,8.37,0,0,1,2.4-1c7.46-.55,14.92-.12,22.38-.27,5.24-.13,10.5.41,15.73-.35a3.3,3.3,0,0,1,2.53.56c12.24.06,24.48.17,36.73.14A19.13,19.13,0,0,1,258.65,43.75Z"/><path class="cls-1" d="M199.67,31.54c-1.32-6.79-7.2-9.32-12-12.86-1.41-2.05,0-4.12,0-6.17,3.82-2.25,7.37-1.89,11,.61,2.72,1.86,5.85,3.11,8.69,4.82,1.71,1,3.21,2.4,3.36,4.65-1.82.65-3-.85-4.45-1.36-3.08-1.57-6.1-3.26-9.29-4.6-.9-.38-2.05-.81-2.75.11-1,1.33.28,2.09,1.13,2.76a22.86,22.86,0,0,1,8,11.57,3.23,3.23,0,0,1-.29,1.4,1.95,1.95,0,0,1-3.41-.93Z"/><path class="cls-1" d="M186.73,73.6l75.71,0c2.14,0,4.34.3,6.29-1l.95,1a1.57,1.57,0,0,1-.75,1.64c-2.19,1.11-4.56.76-6.87.77-22.14,0-44.27,0-66.41,0-2.3,0-4.68-.38-6.87.73-5.6,3.79-11.74,2.11-17.74,1.71a2,2,0,0,1-1.71-2.11c1.13-2.37,3.2-1,4.82-1.1C178.39,75,182.77,75.94,186.73,73.6Z"/><path class="cls-1" d="M227.88,27.5c3.83.81,2.82,3.89,2.91,6.37.28,7.67.25,7.65-7.69,7.67-2.8,0-5.61.12-8.41.18-3.11-1-2.05-3.31-1.73-5.39,1.82-2.3,3.14-.12,4.57.57,3.43,1.65,6.78,2.53,9.94-.53a3.39,3.39,0,0,0,.33-4.31c-.78-1.34-2.36-2.23-2.32-4C226.09,27,226.93,27,227.88,27.5Z"/><path class="cls-1" d="M225.74,28.59a6.51,6.51,0,0,1,3,3,5.91,5.91,0,0,1,0,5,8.79,8.79,0,0,1-11.69,1.6c-1.22-.79-2.37-1.68-3.55-2.53a3.56,3.56,0,0,1-3.67.74,1.81,1.81,0,0,1-1.31-1.71A4.89,4.89,0,0,1,211.77,33c3.52-.54,5.43,2.74,8.38,3.54.8.19,1.59.7,2.41.45,1.5-.47,3.48-.37,3.66-2.65.16-2-1.11-3-2.79-3.59-2.49-.95-5.13-1.35-7.68-2.08-3.39-1-6.64-2.18-8.76-5.26a2.78,2.78,0,0,1-.24-2.78c1.73-.12,2.59,1.46,4,2l1,.87c2.76,2,6.17,2,9.28,2.92C222.73,26.87,224.69,26.72,225.74,28.59Z"/><path class="cls-1" d="M187.63,12.5c2.48,2.05-.86,4.12,0,6.17l-16.13-7.6c3.53-1.72,6.1-2.41,8.39.5C182,15.63,185.13,11.67,187.63,12.5Z"/><path class="cls-1" d="M295.76,61.57l.93.09a73,73,0,0,1,1,15.49,31.12,31.12,0,0,0-1,7.26c0,1.3.34,3.14-2,3-1.94-2.25-1.16-5-1.29-7.55-.23-4.74.34-9.5-.37-14.22a38.44,38.44,0,0,1-1.5-7,20.34,20.34,0,0,1-.11-3.66,1.48,1.48,0,0,1,1-.9C297,55,294.07,59.34,295.76,61.57Z"/><path class="cls-1" d="M269.74,74.61l-.06-1q.07-9,.14-18c1.29-1.13,1.49-4.07,4.34-2.59a3.47,3.47,0,0,1,.26,1.56c-1.69,4.64-1.25,9.47-1.37,14.25-.06,2.27.27,4.78-2.48,6Z"/><path class="cls-1" d="M273.75,53.64c0-.35,0-.7,0-1,1.16-3.16,4.22-.42,5.92-1.9,3.76.33,7.55.44,11.11,1.89-.3,1,1.83.76,1,2l0,.06a4.16,4.16,0,0,1-3,1.19C283.75,54.84,278.68,54.7,273.75,53.64Z"/><path class="cls-1" d="M232.69,36.12c.8-1.21-1.34-4,1.69-4,2.69,0,2.61,2.59,2.4,4.58-.17,1.62,1.08,4.34-1.58,4.48C231.76,41.33,233.14,38.17,232.69,36.12Z"/><path class="cls-1" d="M225.74,28.59c-3.49-1-7-2.06-10.47-2.88-1.52-.36-2.93-.56-3.51-2.25,5.34,1.47,11,1.89,16.13,4C227,27.6,226.19,27.71,225.74,28.59Z"/><path class="cls-1" d="M279.66,50.68c-1.55,2-4.41-.17-5.92,1.9-1.75.41-1.8,3.05-3.91,3-.88-4.2,1-5.58,5-5A41.09,41.09,0,0,0,279.66,50.68Z"/><path class="cls-1" d="M296.68,77.66q0-8,0-16c.23-1.35-.42-2.92.95-4l.21,1.93c0,3,0,6,0,9,.36,3.42,1.19,6.85-.43,10.19C296.62,78.72,296.38,78.37,296.68,77.66Z"/><path class="cls-1" d="M291.74,54.57c-1.11-.89-1.54-1.76-1-2,4-.61,5.65,1.1,5,5.14a26.27,26.27,0,0,0,0,3.87C293.3,59.88,296.08,55.18,291.74,54.57Z"/><path class="cls-1" d="M209.75,35.61l3.76,0c.67,2-.58,4.31,1.18,6.07a5,5,0,0,1,0,.67l-1.88.31c-.85.42-1.2-.08-1.45-.77a5.85,5.85,0,0,0-1.81-5.13A1.08,1.08,0,0,1,209.75,35.61Z"/><path class="cls-1" d="M238.71,34.57c0,2,0,4,0,6A4.66,4.66,0,0,1,238.71,34.57Z"/><path class="cls-1" d="M186.73,73.6c-.75,2-1.9,3.33-4.32,3-4.14-.51-8.44,1-12.48-1a1.22,1.22,0,0,1-1.64-.3c-1.94-4-.82-8.19-1.08-12.3-.18-2.82.17-5.66-.43-8.45-1.18-1.94-3.14-1.59-4.91-1.6-18.23,0-36.45.06-54.68-.08-4,0-5.18,1.53-5.11,5.3.09,5.12.46,10.27-.3,15.38a4.38,4.38,0,0,1-5,3.09c-3.87,1.9-8,3.45-11.57,5.76-7.7,4.92-15.9,4.85-24.4,3.35-5-.89-10.23.76-15.17-1.19,2.35-.48,5,.91,7.1-1.07,4.86-2.6,10.08-1.49,15.06-.94a21.19,21.19,0,0,0,9.71-.92c5.51-2,10.53-4.88,15.7-7.53a6.52,6.52,0,0,0,3.65-4.53c.95-5.25.61-10.58.22-15.87C96.92,51.43,94.94,51.05,93,51a139.08,139.08,0,0,0-14.44.05c-14,1.17-28.11,1.62-42.18,1.77-3.74,0-7,2-10.66,1.73,1-4.14,4.55-3.79,7.52-3.93,5.09-.23,10.2-.06,15.32-1.11H40.65c1.12-1.32,2.7-.79,4.1-1,2.37-1.95,5.22-1.13,7.89-1.35,5,0,10.07.24,15-.95,3-.06,6,0,8.92-.05,4.7,0,9.43.39,14-.89,3,.08,6-.73,8.8,1,1.61,3.16,4.61,2.77,7.37,2.77,18.93,0,37.85.1,56.77.19,1.06-.22,3.28,2.11,2.9-1.43-.1-.88,1.08-1.55,2.25-1.21h2c.87,6.69.16,13.41.32,20.12.07,2.83.56,5.21,3.34,6.53a6.47,6.47,0,0,0,6.14.39c2-.42,3.8-2.62,6.18-1Z"/><path class="cls-1" d="M43.75,29.51l9.92-.06c5,.06,10.12.7,15.07-.89a5.39,5.39,0,0,1,4.17-1.32c10.83.61,21.56-1.38,32.37-1.06,5.14-.07,10.32.47,15.39-.89,3.36-.16,6.72-.06,10.07-.11,8.79.76,17.48-1.94,26.28-.74,3.53,1.23,7.22.55,10.83.87,4.75.42,6.2,2.06,6.3,6.9,0,2.59,3.61.51,3.79,2.88-.63,1.46-2,1.61-3.29,1.79a22.78,22.78,0,0,1-5.83-.32c-3.28-1.26-6.94.13-10.17-1.41-1.76-.17-3.54,0-4.33-.06.31,0,1.61,0,2.91,0a4.67,4.67,0,0,1,1.39.19c.76,1,.16,1.77-.56,2.47a3.08,3.08,0,0,1-1.39.35c-1.88-.3-3.8-.34-5.69-.62a9.65,9.65,0,0,1-1.41-.34c-4.57-.07-9.08-1-13.65-1.14,1.64.21,3.33-.27,4.93.51.15,1-.45,1.5-1.22,1.9a13.94,13.94,0,0,1-6.91.12c-2.91-1.37-6.61.6-9.18-2.19.87-2.43,3.15-2.22,5-2.44,9.9-1.19,19.87-1.23,29.81-1.85,2.76-.17,5.58.1,8.76-1.37-2.08-1.86-4-1.46-5.85-1.27-12.57,1.28-25.21.93-37.81,1.43-15.57.61-31.15.94-46.7,2-4.31.29-8.64.08-13,.15-4.82-.15-9.65.25-14.47-.29C47,31.59,44,32.62,41.84,30.59,42.48,30.24,43.12,29.87,43.75,29.51Z"/><path class="cls-1" d="M41.85,30.6c2.29.35,4.81-.9,6.88,1-3,1.92-6.95,2.57-8.29,6.56-.24.46-.49.9-.75,1.35-1.08,3.38.47,4.75,3.67,4.69,13.78-.29,27.56-.73,41.31-1.72a44.4,44.4,0,0,1,6-.21c7.67.48,15.26-.91,22.89-1,2.89,0,4.78-2.22,7.33-2.9,1.07,0,1.34.7,1.44,1.57-.19,2.16-2.11,2.69-3.59,3.62,1.27-.75,2.38-1,3.3.48a1.46,1.46,0,0,1-.83,1.31c-2.16,1-4.46.58-6.7.7-4.93-.05-9.86,0-14.78.26-2.95-.36-5.91-.07-8.86-.16-4.67.82-9.45.19-14.12,1H67.82c-5,.66-10.07.27-15.06,1-2.66-.19-5.37.43-8-.41l-7.11-.18c-2.77-1.09-3.11-3.4-3-6Z"/><path class="cls-1" d="M11.65,75.63l-.06-15.09a3.48,3.48,0,0,1,2.67-.89c6.25-.36,6.23-.37,4.79,5.57a22.23,22.23,0,0,0-.3,3.38c-1.39,1.36-3.21-3.75-4.35.26a1.89,1.89,0,0,0,1.28,2.37c2,.42,1.81-2,3-2.68,2.67,1.63,5,4.43,4.28,7-.66,2.27-4.37.68-6.71.89C14.76,76.6,13,77,11.65,75.63Z"/><path class="cls-1" d="M34.67,41.53l3,5.95-6.77.42C31.55,45.22,33.28,43.47,34.67,41.53Z"/><path class="cls-1" d="M44.75,47.66l8-.08c.34.22.44.42.31.62s-.24.28-.36.28l-7.93.05C44.74,48.25,44.74,48,44.75,47.66Z"/><path class="cls-1" d="M167.79,10.52l3,1.05c4.91,3.64,10.65,5.71,16,8.5a22.07,22.07,0,0,1,8,6.3c2.7,5.37.88,8.41-5.08,8.53a16.08,16.08,0,0,1-5.75-1c-3.67-1-6.2-3.83-9-6.12-2.47-2-4.93-3.24-8.12-2.89a11.49,11.49,0,0,1-10.56-4.34c-1.6-1.88-3.35-3.78-6.25-3.52-12.92-.05-25.84,0-38.75,0-2.12,0-4.33.32-6.28-1a1.22,1.22,0,0,1-.21-1.69C107,12.7,109.56,13.05,112,13c11-.12,21.93,0,32.87.16,2.29-.16,5,1.18,6-2.7.44-1.77,3.18-1,4.73-1.79C159.84,8.29,164,8.21,167.79,10.52Z"/><path class="cls-1" d="M174.7,35.64c1.1-.12,2.29.06,3.13-.94,1.17-1.47,2.77-1.25,4.36-1.1,1.28.36,2.64.14,3.93.44,3.52.7,7.2-1.06,10.65.69a12.3,12.3,0,0,0,9.93,0,1.32,1.32,0,0,1,2,0l1.08,1a7.37,7.37,0,0,0,0,.94,5.16,5.16,0,0,1-4.09,1.53c-9.16.17-18.32.22-27.48,0a6.33,6.33,0,0,1-2.87-.78A1.25,1.25,0,0,1,174.7,35.64Z"/><path class="cls-1" d="M196.77,34.73l-12-.25c-1-.23-1.54-.77-1.22-1.87a41.25,41.25,0,0,0,4.73,1c6.08.53,7.56-1.16,6.45-7.19C197.9,28.57,198.86,31.29,196.77,34.73Z"/><path class="cls-1" d="M208.67,34.64l-2,0-3-.18c-.52-.77-2.53,0-2-1.91h1c2.88-1.16,5.65-.32,8.44.42l.56.57C211,34.77,209.78,34.53,208.67,34.64Z"/><path class="cls-1" d="M201.72,32.6l1.95,1.91c-4.89.16-4.89.16-4-3C200.35,31.89,201,32.24,201.72,32.6Z"/><path class="cls-1" d="M155.63,8.7c-1.6,1.55-6,1.05-4,5.48.12.27-3.21.16-4.93.35-2.56-1-5.22-.24-7.83-.44-1.17-.09-2.5,0-2.5-1.63a2.3,2.3,0,0,1,2.23-2.26c1.74-.25,3.52,0,5.27-.25.65-.25,0-1.23.16-.59,0,.16,0,.28-.18.29-3.43.06-6.89,2-10.29-.14l2.16-.9,11-.13Z"/><path class="cls-1" d="M133.57,9.51h11.06c0,.3,0,.59,0,.89-1.93.11-3.86.16-5.78.37a1.67,1.67,0,0,0-1.6,1.6c0,1.09,1,1.07,1.8,1.21,2.53.42,5.28-.92,7.63.95l-41.95.08c-1.36-1-2.58-2-2-4l4-1.05,12-.13Z"/><path class="cls-1" d="M70,20.76c0-.34,0-.68,0-1,.27-.19.64-.33.78-.59,4.41-8.09,11.65-9.63,20-8.66l9.11.19c3.75.82,4.11,3.76,4.29,6.82-.69,2.64-2.59,4.6-3.84,6.93-1,1.94-2.74,2.59-4.94,2.69-8.1.35-16.18,1.12-24.29,1C68.54,26,70.58,23.16,70,20.76Z"/><path class="cls-1" d="M103.64,16.53c-1.14-2-1.28-4.73-3.82-5.85l2.93,0c.59,1.37,2.13,2.25,2,4l-.06.85a1.31,1.31,0,0,1-.49.95Z"/><path class="cls-1" d="M69.72,27.45c8.43-.28,16.86-.62,25.29-.82,2.19-.05,3.21-1.26,4.17-2.94,1.39-2.44,3-4.78,4.45-7.16l.15.11c.91-.42,1.22.19,1.48.88.32,3-2.85,4.5-3.22,7.19.93,1.26,2.71.58,3.7,1.64a.87.87,0,0,1,0,1.15c-12.33.13-24.61,1.72-37,1.07,0-.29,0-.58,0-.87A.67.67,0,0,1,69.72,27.45Z"/><path class="cls-1" d="M69.72,27.45c-.33.07-.65.15-1,.24l-3.93-.25,5.12-6.68C69.86,23,74.11,25.37,69.72,27.45Z"/><path class="cls-1" d="M144.63,148.66c-22-5.69-44.1-11.25-65.78-18.22,1.13-2.75,3.78-3.3,6.16-4.25,7.5,2.29,14.86,5,22.59,6.52,3.17.95,6.2,2.38,9.56,2.67,9.92,3,20.14,5,29.91,8.55C148.85,146.83,148.66,148.73,144.63,148.66Z"/><path class="cls-1" d="M77.84,87.7l20-10c2.6-2.33,5.71-3.83,8.77-5.43,4.19-1.9,8.37-3.51,12.33.47a8.78,8.78,0,0,1-1.5,6.44c-9.2,1.45-16.87,6.69-25.25,10.17-2.43,1-4.56,2.79-7.35,2.91C82.61,90.54,79.22,90.68,77.84,87.7Z"/><path class="cls-1" d="M77.84,87.7c2.26,1.3,5.55.78,6.81,3.85a1.77,1.77,0,0,1,.24,1.5,17,17,0,0,0-3,13.51c1,5-.41,10.22-.57,15.34-2.19,5.23-3.56,5.66-8.65,2.75-1.94-2.51-.82-5.4-.9-8.09-.18-5.76,0-11.52-.07-17.29C71.67,94.29,74,90.6,77.84,87.7Z"/><path class="cls-1" d="M58.74,118.58h-14c-5.85-2.42-8.32-6.63-6.9-12.93,2.55.26,2,2.75,3,4.12.66,2.69,2.44,4.7,5,5,5.59.69,11.25,1.12,16.82-.46,3.16-.89,4.73-2.91,4.7-6.18-.06-5.65.37-11.32-.37-17a3.27,3.27,0,0,1,.44-1.53c3.2-1.64,3.61.82,4.28,2.9-2,4.83-1.33,10-.79,14.79.7,6.2-2,8.82-7.34,10.12C62,117.86,60.35,118.21,58.74,118.58Z"/><path class="cls-1" d="M161.69,135.53c-1.21,3.83-2.45,7.65-3.61,11.5-.53,1.76-.89,3.56-3.27,3.59l-1.25-.12c-.17-1.39,1-2.15,1.52-3.21,3.46-11.08,6.19-22.36,9.52-33.47.88-2.93,1-6.27,3.61-8.47a2.09,2.09,0,0,1,1.87,1.25c.08,6.12-3,11.52-4.06,17.37C164.84,127.91,164.23,132.08,161.69,135.53Z"/><path class="cls-1" d="M67.73,89.59c0,.33,0,.67,0,1a2.74,2.74,0,0,1-2.32.63c-7.33-1.39-14.84-.7-22.18-2-1.08-1-.72-1.68.52-2s2.66.21,3.88-.5c8.41.65,16.88.37,25.24,1.73C71.6,90.77,69.2,88.11,67.73,89.59Z"/><path class="cls-1" d="M72.7,124.66c.19-.48.28-1.77.92-1,3,3.73,5,1.63,7-1,1.92.25,3.09,1.58,4.24,2.94a.78.78,0,0,1-.41,1c-.81,2.79-3.61,2.66-5.54,3.8A21.63,21.63,0,0,1,72.7,124.66Z"/><path class="cls-1" d="M155.73,148.59l-2.17,1.91a16.15,16.15,0,0,1-8.94-1.84c2.61-.49,2.71-2.14,1.92-4.19.08-1.32,1-1.53,2.06-1.52a2,2,0,0,1,1.54,1.35c.07,1.86.75,3,2.9,3C154,147.29,155.77,146.3,155.73,148.59Z"/><path class="cls-1" d="M47.64,86.7c-1.21,1.75-3.75,0-4.92,1.88-.49,1.61-1.78,2.5-3,3.43a1.59,1.59,0,0,1-1.83-.45c-.06-1.67-.12-3.34-.19-5a4.43,4.43,0,0,0,.19-.8Z"/><path class="cls-1" d="M106.66,73.47l-8.83,4.18-1-.94,3.9-2.16c.46-.42.67-1,1.09-1.47a6.57,6.57,0,0,1,2.87-1.23,3.62,3.62,0,0,1,1.27.13C106.51,72.3,107,72.68,106.66,73.47Z"/><path class="cls-1" d="M67.73,89.59c1.28-2.3,3.53-.33,5.14-1.16,1.85,2-.8,2.75-1.18,4.13C70.36,91.59,70,89.38,67.73,89.59Z"/><path class="cls-1" d="M202.67,170.62l2.05-.88c2.42-1.18,4.91-.6,7.25,0a34.46,34.46,0,0,0,19.54-.1c5.27-.79,10.45-2.17,15.75-2.81a3.62,3.62,0,0,1,2.35.38,1,1,0,0,1,.14,1.41,120.52,120.52,0,0,1-27.4,5.49C216,174.58,209.09,172.69,202.67,170.62Z"/><path class="cls-1" d="M249.75,168.67q0-.46,0-.93c-.05-2-2.14-2.77-2.85-4.38-1-1.75-2.73-2.92-3.63-4.73a2.16,2.16,0,0,1,.33-1.95,1.73,1.73,0,0,1,1.28-.35c2.32,1.17,3.85,3.19,5.47,5.11,1.52,3,4.22,4.07,7.35,4.4.65.33,1.18.75,1,1.6Z"/><path class="cls-1" d="M258.69,167.43l-1-.86c.12-2.36,2.05-1.92,3.48-2.26a13.11,13.11,0,0,0,3.77-.62,14.12,14.12,0,0,1,2.32-.42c2.82.21,5.79-2.26,8.48.45,0,.26,0,.51,0,.77Z"/><path class="cls-1" d="M168.72,160.61c-6.73-.47-10.15-3.9-9-9,1.36-.42-.68-3.93,2.47-2.72.44,7.11,5.22,8.7,11.26,9.66,11.39,1.8,22.79,3.66,34.08,6.05,5.63,1.09,11.13,3.13,17,2.14a7.67,7.67,0,0,1,1.65-.26c1.53.29,3.66-.31,3.53,2.41-3.79,2.91-8.13,2.32-12.37,1.72-3.58-.51-7.08-1.56-10.72-1.75-4.62-1-9.3-1.68-14-2.53l-.7-.16a6.37,6.37,0,0,1-1.24-.65c-1.66-1-3.6-.62-5.35-1.16-1.9-.57-3.91-.37-5.81-.89-1.91-.72-4.21-.18-5.82-1.83h0C172.24,160.37,170.23,161.75,168.72,160.61Z"/><path class="cls-1" d="M231.75,170.6A24.69,24.69,0,0,1,216.36,172c-3.85-.89-7.76-1.5-11.64-2.23-10.74-1.78-21.49-3.51-32.2-5.41-1.39-.25-2.55-.43-3.75.31.58-3.33,3.26-1.57,5-2.08a1,1,0,0,1,1.19-.23c1.5.49,3.13,0,4.63.58l1.31.36c1.54.56,3.21.09,4.75.66l1.36.38c1.55.55,3.42-.12,4.77,1.23h0c4.76.82,9.55,1.52,14.27,2.56,3.92.46,7.8,1.18,11.68,1.86a27.92,27.92,0,0,0,12.23-.87A1.88,1.88,0,0,1,231.75,170.6Z"/><path class="cls-1" d="M161.75,148.6l-2.05,3c-.25-4.93,3.35-9,3.05-14-.83-4.08,1.8-7.44,2.31-11.24,1.32-4.25,2.32-8.59,3.68-12.82.36-1.11.5-2.37,2.19-2a5.71,5.71,0,0,1,1.14,3.9c-1.8,10.46-5.16,20.51-8.07,30.69A3.41,3.41,0,0,1,161.75,148.6Z"/><path class="cls-1" d="M165.74,126.6q-1.5,5.51-3,11a2.27,2.27,0,0,1-1.06-2.08c.1-4.21,2.42-7.83,3.18-11.86C167.18,124.05,166.1,125.43,165.74,126.6Z"/><path class="cls-1" d="M174.73,162.58l-1,0c0-.33,0-.65,0-1,2,.28,4.24-.75,6,1l-.61.45C177.67,162.94,176.13,163.51,174.73,162.58Z"/><path class="cls-1" d="M168.72,160.61c1.7.2,3.6-.66,5,1C172,161.39,170.14,162.2,168.72,160.61Z"/><path class="cls-1" d="M25.73,54.58a14.08,14.08,0,0,1,7.75-3c19.36-.68,38.72-1.42,58.08-2,6.35-.19,7.2.77,7.16,7.15-.1,17.06,2.09,15.3-14.48,23.65-6.6,3.33-13.2,4.69-20.56,3.31-3.53-.66-7.29-.14-10.94-.15h0c-4.93-1.4-10.08.4-15-1h0c-1.91-.95-4.39-.16-6-2-4.27-3.35-4.71-9-8-13a10.45,10.45,0,0,1,0-7C23.67,58.34,23.89,56.19,25.73,54.58Z"/><path class="cls-1" d="M37.74,82.57c5,.52,10.13-1.09,15,1C47.76,83,42.61,84.81,37.74,82.57Z"/><path class="cls-1" d="M23.76,60.58v7A5.68,5.68,0,0,1,23.76,60.58Z"/><path class="cls-1" d="M31.73,80.6c2,.66,4.26.57,6,2C35.58,82.42,33.05,83.35,31.73,80.6Z"/><path class="cls-1" d="M35.69,84.44l-4.89,0A3.74,3.74,0,0,1,35.69,84.44Z"/><path class="cls-1" d="M36.66,86.71q0,7.74.08,15.48c0,1.87.06,4.22-2.37,4.2-8.24-.06-16.52,1.21-24.7-.71.14-.92,3.63,0,1-2.78s-.23-6.63-.44-10c-.29-4.58,3.3-5.06,6.34-6.16l4.28-.3Z"/><path class="cls-1" d="M16.58,86.73c-4.87,2.48-6.71,6.26-6,11.8.39,3.07,1,5.36,5.32,6.77l-6.23.38a6.23,6.23,0,0,1-.83-.28l0-.75c1.1-2.94-.4-6.13.86-9.06,0-.65,0-1.29,0-1.94C9.8,86.41,8.12,86.45,16.58,86.73Z"/><path class="cls-1" d="M9.73,95.58c-.21,3,.82,6.17-.86,9.06C9.05,101.61,7.94,98.46,9.73,95.58Z"/><path class="cls-1" d="M37.85,91.55l1.87,0a24.87,24.87,0,0,1,0,18c-1.58-.86-.37-3-1.87-3.94Q37.84,98.6,37.85,91.55Z"/><path class="cls-1" d="M292.82,91.67c-2.39,1.69-5.16,1-7.69.85-3.62-.19-5.1,1.57-6.72,4.49-3.55,6.44-4,12.44-.06,18.91,2.21,3.63,3.57,7.79,5.31,11.71,1.61,8.88-.37,17.71-.55,26.56-.06,2.93-.07,6.7-4.75,6.73-.64-.39-1-1.06-.62-1.66,4.59-7.45,2.12-15.95,3.43-23.89.8-4.81-2.45-9.19-4.41-13.57a43.9,43.9,0,0,0-2.94-5.76c-4.87-7.6-2.56-14.64,1.35-21.6a10.17,10.17,0,0,1,6.62-4.94,22.1,22.1,0,0,1,7.48.1C290.61,90,292,90.41,292.82,91.67Z"/><path class="cls-1" d="M277.72,160.57c5-1.17,4.77-5.34,5-9.06.44-7.95.66-15.91,1-23.87,1.81,4.19.9,8.63,1.18,13-.22,5.33-1.63,10.6-.94,16,1.31,7-4.8,5.47-8.15,7.13-3.08-.8-5.91,1.28-9,.8-.37-2.33,1.39-2.79,3-3,2.42-.3,4.74-1.26,7.22-1.08Z"/><path class="cls-1" d="M296.8,78.55c1.9-3.18.42-6.7,1-10,1.82,3.94.53,8.09.84,12.14-2.56,3.28.74,7.63-2,10.88C295.22,87.21,296.31,82.88,296.8,78.55Z"/><path class="cls-1" d="M296.8,78.55q0,6.51-.1,13l-3.88.1c-1.08-.18-2.32.11-3.06-1.06a2.83,2.83,0,0,1,1-.84,8.39,8.39,0,0,0,3.37-1.91l.6-.27c2.58-2.93-.48-7,1.94-9.94Z"/><path class="cls-1" d="M174.74,74.6c-3.6-.87-5.26-3.18-5-6.84.54-7-1.24-14.19,1-21.16,14.62-1.7,29.35-.79,44-2,12-1,24.09-.2,36.14-.44,1.62,0,3.31-.42,4.86.45l1,0c1.7,1,3.41,2,5.08,3a9.72,9.72,0,0,1,5,8.6c.34,14.94,0,15.34-15,15.34-19.79,0-39.58,0-59.37,0-1.91,0-4-.74-5.68,1l-6,2A8.25,8.25,0,0,1,174.74,74.6Z"/><path class="cls-1" d="M171.74,44.56c-.71,1.19-1.9,1-3,1-3.12,1.08-5.57,3.48-8.74,4.49-4.83,0-9.64,0-14.45,0-1.41,0-3.26.42-3.34-1.87s1.67-2.08,3.16-2.07c3.61,0,7.22-.17,10.82.08-5.45-.58-10.94.56-16.38-.41a1.19,1.19,0,0,1,.28-1.66c4-1.77,8.14-.76,12.21-.9,4.78-.17,9.57-.08,14.36,0C168.44,43.23,170.32,43.06,171.74,44.56Z"/><path class="cls-1" d="M196.58,43.47,173,43.73c-3.52,0-7.21,1.74-10.46-1,3.59-2.94,8-1.38,12-2a49.23,49.23,0,0,1,19.75.37C195.33,41.58,196.76,41.77,196.58,43.47Z"/><path class="cls-1" d="M162.74,42.68c3.27,1.93,6.89.32,10.28,1l-1.28.83-31.84.16c-1.31.36-2.54.62-1.87-1.5C146.25,42.2,154.42,39.23,162.74,42.68Z"/><path class="cls-1" d="M255.73,44.58h-41c.4-.27.8-.79,1.2-.79q19.31-.06,38.6,0C254.94,43.79,255.34,44.31,255.73,44.58Z"/><path class="cls-1" d="M196.58,43.47l-1.9-.93c0-.71.28-1.45.93-1.58,5.44-1.12,10.9-2.23,16.16.74l1,1C207.46,44.53,202,43.28,196.58,43.47Z"/><path class="cls-1" d="M161.73,49.59c0-5.38,4.46-3,7-4v1c-2.51.13-.54,4.86-4.06,3.95C163.88,49.63,162.51,50.53,161.73,49.59Z"/><path class="cls-1" d="M219.73,37.6c-3.17-.33-4.6-4.12-8-4h0c-2.93-1-6.28,0-9-2-2.38-4.54-4.6-9.17-9.33-11.93-1.3-.76-2.24-2.17-1.14-3.8a2.94,2.94,0,0,1,4-.83c3.56,1.73,7.32,3.08,10.46,5.59l.93,2a1.88,1.88,0,0,1-1.92.5,6.14,6.14,0,0,1-1.28-.58c-1.56-.91-3-2.05-5.41-2.35,1.17,2.07,2.74,3.53,3.48,5.44,1.25,3.2,3.74,4.51,7,4.71a15.82,15.82,0,0,1,7,2.37A9,9,0,0,1,218.22,34C219.05,35.06,220.44,35.9,219.73,37.6Z"/><path class="cls-1" d="M202.76,31.55c3,.79,6.19.47,9,2a23.24,23.24,0,0,1-9-1C202.75,32.24,202.76,31.9,202.76,31.55Z"/><path class="cls-1" d="M168.67,75.54l1.26.12c0,.33-.09.84.08,1,2.87,2,14.92,1.29,17.73-1a2.53,2.53,0,0,1,.66,1.52c-.29,2.48-2.18,3.42-4.18,3.52-5.92.31-11.79.9-17.65-1.47-6.63-2.68-13.77-.88-20.69-1.09a1.45,1.45,0,0,0-1.54,1c-.35,1.23.54,1.77,1.38,2.31C151,84.78,157,84.88,163,85.18c4.42.22,9-.63,12.92,2.37-.38,2.53-2.46,2.08-4.12,2.38-6.39.09-12.79.2-19.12-1a24,24,0,0,1-14.36-6.87c-1-3.61-.77-6.75,3.19-8.5,7.73-1,15.49-.08,23.23-.53C166.77,72.71,167.63,74.28,168.67,75.54Z"/><path class="cls-1" d="M187.79,76.73c0-.37,0-.75,0-1.12,1.25-1.65,3-1,4.63-1q38.69,0,77.37,0l0,0a1.26,1.26,0,0,1-.41,1.68c-2.17,1.48-4.62,1.71-7.15,1.72-23.45,0-46.89,0-70.34,0C190.31,78,188.77,78.26,187.79,76.73Z"/><path class="cls-1" d="M228.74,36.59v-5A3.39,3.39,0,0,1,228.74,36.59Z"/><path class="cls-1" d="M219.73,37.6c-.67-1-1.34-2-2-3,1.62-1.72,3.83.87,5.7-.89-2.27-2.82-4.48-1.74-6.71-.12-3-.83-5.81-2.19-9.08-2.32A5.65,5.65,0,0,1,202,27.13c-.87-3.29-4.22-5-5.48-8.74,4,.25,7,1.31,9.21,4.21-4.32,3.26-.51,4.07,1.81,5.94.52-2.73-2.84-3.68-1.81-5.94l2,0c2.73,3.5,6.69,4.51,10.74,5.37,1.44.3,2.87.72,4.3,1.1,3.15.83,6,2.43,4.76,6.09S223,39,219.73,37.6Z"/><path class="cls-1" d="M281.73,90.58a17.71,17.71,0,0,0-7.59,22.8c1.71,3.58,3.34,7.21,5.3,10.65,5.57,9.78,1.78,20.09,1.87,30.17,0,2.61-2.14,4.38-3.59,6.37h0c-5.61,1.11-11.13,2.63-16.74,3.69-7.36,1.38-12.07-2.29-11.49-9.58.86-10.85.89-21.79,3.09-32.51,3.49-10.21,4.8-20.54,1.86-31.15-.76-2.74-1.82-5-5.19-5-4.8-.4-9.53.35-14.28.89a4.75,4.75,0,0,1-3.23-1.08c-.3-2.69,2-2.82,3.53-3.12A77.44,77.44,0,0,1,247,81.17c4.06-.16,7.44.94,9.87,4.34a6,6,0,0,1,.84,1.48c2.47,7.24,2.82,14.69,2.23,22.23a10.28,10.28,0,0,1-.32,1.56c-.88,3.21-.58,6.66-1.95,9.77-.45,1.22-.76,2.47-1.11,3.72-2.37,10.23-1.54,20.81-3.31,31.1a3.59,3.59,0,0,0,.81,2.8,11.39,11.39,0,0,0,1.62,1.48c4.4,1.53,8.61.27,12.83-.87a11.67,11.67,0,0,1,2.2-.4c1.7-.15,3.48.06,4.9-1.22a6.38,6.38,0,0,0,2.75-4.52c1.46-12,1.78-23.8-5.29-34.54-5.55-8.44-3.62-16.73.89-24.91a11.06,11.06,0,0,1,8.61-6c8.88-1.34,10.21-3,8.46-11.72-1.21-6,.51-12.33-1.87-18.22,1.53-3.85,2.47-.62,3.6.31.34,2.33.67,4.66,1,7,1.07,6.93.37,13.9.38,20.84,0,3.33-2.7,4.23-5.53,4.61C286.31,90.35,284,89.52,281.73,90.58Z"/><path class="cls-1" d="M281.73,90.58c.68-.9,1.67-.92,2.67-1,8.73-.6,9.37-1.31,9.35-10.12,0-5,0-9.92,0-14.89,2.19,5.07.5,10.39,1,15.57.22,2.46,0,4.95,0,7.43h0c-.78,1.74-2.42,2.32-4,3-.32,0-.65,0-1,0C287.08,90.6,284.4,90.59,281.73,90.58Z"/><path class="cls-1" d="M292.73,57.59c-1.12,0-1.49-2.16-3-1.06a.91.91,0,0,1-1.25,0,1.56,1.56,0,0,1,.25-2l3,0C292.06,55.61,292.4,56.6,292.73,57.59Z"/><path class="cls-1" d="M288.73,54.59l.06,1.86c-2,1.65-4.09.21-6.13.09-6.65-1.21-7.5-.49-7.59,6.3-.06,4.12.47,8.31-1.35,12.24a4.38,4.38,0,0,1-1.55,1.78,2.53,2.53,0,0,1-2.29,0,.92.92,0,0,1-.17-1.36,7.85,7.85,0,0,0,0-1c2.59-1.14,2-3.49,2.05-5.55.19-5.2-.81-10.54,2-15.4C278.86,52.12,283.76,54,288.73,54.59Z"/><path class="cls-1" d="M211.77,41.7c-5.71.09-11.46-.8-17.09.84-3.78-1.7-7.75-1-11.65-.84-6.77.25-13.53.65-20.29,1l-24.92,1c-4.48,2.14-9.08,1.49-13.68.53a3.13,3.13,0,0,1-1.3-3.27,3.53,3.53,0,0,1,.72-1.63c2.92-1.73,6.2-1,9.33-1.34,2.27.18,4.55.06,6.82.08,3.6-1.18,7.34-.9,11-1,2,.29,4-.46,6,.5h1c2.64-2,5.9-.91,8.77-1.77A5.85,5.85,0,0,1,169,36c1.89.39,3.88-.36,5.72.51l35,0C213.18,37.18,213.47,39.05,211.77,41.7Z"/><path class="cls-1" d="M161.73,49.59c1.07,0,2.23-.21,2.94.95q-30.24,0-60.46.05c-1.63,0-3.27.26-4.79-.88-1.85-1.38-.51-2.13.37-3l.69-.51c4.79-1.15,9.75-.08,14.56-1.06a40.71,40.71,0,0,0,8.89-.51c5.21.34,10.51-.84,15.64.9h17.89l0,1.09c-3.94,0-7.88,0-11.82,0-1.13,0-2.65-.1-2.6,1.52s1.56,1.43,2.7,1.44C151.09,49.6,156.41,49.59,161.73,49.59Z"/><path class="cls-1" d="M101.73,73.61l-1,1c0-6.32.16-12.64,0-19-.06-3,.84-4.08,4-4.06,20,.11,39.92.06,59.89,0,1.75,0,3.36.08,4.12,2a3.34,3.34,0,0,1-2.65.73c-20.5-.39-41-.67-61.47.16-2.27,1.8-1.06,4.32-1.34,6.52C102.7,65.19,104.4,69.65,101.73,73.61Z"/><path class="cls-1" d="M166.81,53.56h1.88q0,11,0,22c-1.52.21-1.86-1.36-2.89-1.91a3,3,0,0,1-1.87-1.7,57.58,57.58,0,0,1-.24-16.11,4.15,4.15,0,0,1,.79-1.48A3.87,3.87,0,0,1,166.81,53.56Z"/><path class="cls-1" d="M52.69,48.48c0-.3,0-.6.05-.9,4.93-1.6,10-.87,15-.93.31.2.42.4.31.6s-.21.3-.32.3C62.79,48.78,57.74,48.69,52.69,48.48Z"/><path class="cls-1" d="M76.73,46.59c4.61-1.55,9.35-1,14.06-.88.29.18.39.36.29.54s-.2.26-.3.26c-4.6,1.66-9.37.93-14.08,1-.3-.21-.39-.42-.28-.61S76.63,46.59,76.73,46.59Z"/><path class="cls-1" d="M90.77,46.52a7.09,7.09,0,0,1,0-.8l9-.13c.33.22.44.44.32.64s-.24.3-.35.3l.09.14Z"/><path class="cls-1" d="M76.73,46.59c0,.3,0,.6,0,.9l-8.94.06a6.76,6.76,0,0,1,0-.9Z"/><path class="cls-1" d="M174.74,74.6h6A4.56,4.56,0,0,1,174.74,74.6Z"/><path class="cls-1" d="M63.74,31.59c21.73-.34,43.44-1.45,65.14-2.37,11.22-.48,22.58.76,33.72-1.59a2.77,2.77,0,0,1,.5,0c2.81,0,6.81-.31,7,2.93s-4.2,2.66-6.48,2.84c-9.08.7-18.21.9-27.32,1.2a45.63,45.63,0,0,0-12.56,2,2.72,2.72,0,0,1-1.3,1c-1.18,0-2.87,1.28-3.16-1.17.68-2.2.28-3.51-2.44-3.37-8.47.42-17-.81-25.42.81a26.58,26.58,0,0,1-6.49.18C73.38,33.38,62,35.49,50.47,35a5.69,5.69,0,0,0-2.46.32c-2.47,1.07-5.57,2.36-5,5.31.48,2.57,3.73,1.59,5.7,1.45C64.61,41,80.57,40.66,96.51,40.05c4.79-.18,9.59-1,14.42-.81,1.8.07,3.73-.18,5,1.58-.22,1-.94,1.22-1.84,1.27-13.72.74-27.45,1.63-41.17,1.85-9.62.15-19.17,1.47-28.8,1.19-6.24-.18-7.24-1.77-4.38-7.5h0C42.37,33.45,46,31.78,51,32,55.22,32.23,59.53,32.66,63.74,31.59Z"/><path class="cls-1" d="M183.6,32.61l1.22,1.87c-.84,1.23-1.59,1-2.29-.14a19.57,19.57,0,0,1-7.37-4.48c-2-3.06-4.9-4-8.53-3.85-2.93.15-5.92.5-8.84-.34l-27.09.82A1.15,1.15,0,0,1,131,25c3.07-2.14,6.61-1.69,10-1.79,4.78-.14,9.57.25,14.3-.22.34-3.15-3.27-3.74-4-6.18a1.22,1.22,0,0,1,.32-1.23c.63.15,1.55.09,1.86.49,4.48,5.74,9.91,8.69,17.57,7.78,2.83-.34,4.68,3.4,7.21,5C180.2,30,181.87,31.33,183.6,32.61Z"/><path class="cls-1" d="M157.79,25.66a85.46,85.46,0,0,0,8.92-.16c4.19-.49,7.39.84,9.78,4.25-.06,2.46-.1,4.92-3.76,3.83,1.1-5.12-.21-6.69-5.43-7C164.13,26.33,160.81,27.52,157.79,25.66Z"/><path class="cls-1" d="M63.74,31.59c-2.88,2-6.16,1.05-9.17.88-5.77-.33-10.88.52-14.82,5.13,1.3-4.54,4.65-6,9-6Z"/><path class="cls-1" d="M105.7,27.49c0-.3,0-.59,0-.89A4.27,4.27,0,0,1,108,24.82a7,7,0,0,1,1.49-.39c3.67,0,7.4-.86,11,.71a1,1,0,0,1,.28,1.41C115.82,28.22,110.74,27.45,105.7,27.49Z"/><path class="cls-1" d="M172.73,33.58c2.77.21,2.6-2.47,3.77-3.83,2,1.55,4.45,2.5,6,4.58l-4.71.36C176.21,34,174,35.76,172.73,33.58Z"/><path class="cls-1" d="M150.71,37.64c-3.58,1.53-7.32.87-11,.83-.3-.19-.4-.38-.3-.56s.21-.27.31-.27l1.13-1c3.27-1,6.56-.66,9.86-.19l0,.24c.33.22.44.43.32.64S150.83,37.64,150.71,37.64Z"/><path class="cls-1" d="M150.7,36.46l-9.86.19h-5.79C140.27,35.93,145.5,34.68,150.7,36.46Z"/><path class="cls-1" d="M167,36.69c-2.93,1.67-6.13.6-9.19.88l1.05-1.93c.9-.84,2-.5,3-.38C163.44,36,165.59,34.94,167,36.69Z"/><path class="cls-1" d="M122.72,36.58c.32,0,.64,0,1,0,3,.49,6.18-1,9,1l-.57.5c-2.63,1.14-5.53.07-8.18,1a1.71,1.71,0,0,1-1.43-.35A1.75,1.75,0,0,1,122.72,36.58Z"/><path class="cls-1" d="M161.77,35.66l-3,0-1.06-.07c-.34-.21-.46-.43-.34-.64s.23-.32.34-.32c3.63.46,7.42-1,10.93.88l-.61.51C166,36,163.83,36.49,161.77,35.66Z"/><path class="cls-1" d="M120.76,26.55c0-.29,0-.58,0-.87a8.66,8.66,0,0,1,10-.09c0,.3,0,.6,0,.89Z"/><path class="cls-1" d="M139.71,37.63c0,.28,0,.56,0,.84l-7,.18c-.34-.24-.44-.46-.31-.67s.25-.3.37-.3l-.08-.16Z"/><path class="cls-1" d="M157.75,34.61q0,.48,0,1h-4.86c0-.32,0-.64,0-1Z"/><path class="cls-1" d="M150.71,37.64c0-.32,0-.63,0-1,2,.17,4.22-1,6,.88Z"/><path class="cls-1" d="M174.71,36.52l-6,.11c-.33-.23-.43-.46-.31-.66s.24-.3.36-.3l-.09-.17,6,.15A6.28,6.28,0,0,1,174.71,36.52Z"/><path class="cls-1" d="M122.72,36.58c0,.67,0,1.34,0,2a.56.56,0,0,1-.93,0c-5.62,6-13.38,4.48-20.11,4.71-13.07.45-26.12,1.45-39.22,1.53-6.56,0-13.19.74-19.81.75-1.79,0-4,.37-4.63-1.89s-1-4.68,1.71-6.1c-1.69,6.41-1.28,7.15,5.17,6.95C63,44,81.12,43.64,99.16,42.3c5.48-.41,11.26.59,16.59-1.71.64-1.9,1.61-3.36,4-3.05Z"/><path class="cls-1" d="M99.7,46.53c0-.31,0-.63,0-.94,4.94-1.58,10-.91,15-.9.3.22.39.44.28.64s-.22.29-.33.29C109.79,47.1,104.72,46.48,99.7,46.53Z"/><path class="cls-1" d="M114.73,45.61c0-.31,0-.62,0-.93l6.9-.12c1.32-1-1.18-3.8,1.92-3.88l.18,2.82a1.31,1.31,0,0,1-.08,2Z"/><path class="cls-1" d="M123.6,40.68c-1.44.9-.16,3.14-1.92,3.88a5,5,0,0,0,.09-1,2.19,2.19,0,0,1-.08-3l.12-2c.31,0,.62,0,.93,0l1,.1c.36.22.49.44.38.68s-.22.36-.34.36A2.64,2.64,0,0,1,123.6,40.68Z"/><path class="cls-1" d="M121.69,40.63c0,1,0,2,.08,3h-3.91Z"/><path class="cls-1" d="M18.74,68.56c-.17,2,.57,4.84-2.68,4.78-2.38,0-2.84-2.45-3.23-4.37a3.15,3.15,0,0,1,1.95-3.65c2.87-1.06,2.21,2.69,4,3.28C18.77,68.6,18.74,68.56,18.74,68.56Z"/><path class="cls-1" d="M160.3,10.65a37.66,37.66,0,0,1,6.12,1.87c7.57,3.79,15,7.78,22.55,11.68,2.63,1.37,4.67,3.66,3.36,6.36-1.56,3.2-4.51,1.74-6.91.36a30.3,30.3,0,0,1-6.84-5,13.58,13.58,0,0,0-10.7-4.42,11,11,0,0,1-10.7-6C155.08,11.86,157.78,11.45,160.3,10.65Z"/><path class="cls-1" d="M151.73,15.59c0,.3,0,.61,0,.91A4.47,4.47,0,0,1,148.32,18c-12.78.08-25.56,0-38.34,0-1.74-.15-3.54.41-5.24-.37l-1-1,.89-1.17Z"/><path class="cls-1" d="M83.67,24.61c-1.66,0-3.32,0-5,0S74.85,25,74,22.73c-.74-1.94.29-3.58,1.35-5.06C76.53,16,78,14.35,80,14.1a145,145,0,0,1,16.24-1.29c3.16,0,4.22,2.36,3.15,5.28C97.83,22.35,94.3,24,90.13,24.5a58,58,0,0,1-6.46,0Z"/><path class="cls-1" d="M104.75,17.63a4.88,4.88,0,0,1,3.9-.94c-2.34,5-2.34,5-.92,8.91h0a13.22,13.22,0,0,1-7.9,0Z"/><path class="cls-1" d="M99.83,25.56l7.9,0-2,1C103.8,26.07,101.52,27.49,99.83,25.56Z"/><path class="cls-1" d="M148.64,143.5l-2.09,1c-10.09-2.1-19.93-5.11-29.82-8a.93.93,0,0,1,.26-1.32c2-1.09,3.89-.28,5.79.27,6.23,1.82,12.51,3.48,18.78,5.15,4.59,1.22,6.06.38,7.32-4.16q3.75-13.47,7.7-26.88c1.17-4,.17-7-3.22-9-11.45-6.81-23.45-12.6-35.29-18.68-2.95-1.51-5.83-.57-8.6.85-6.23,3.17-12.49,6.28-19,9-1.53.63-2.94,1.59-4.69,1.56a1.79,1.79,0,0,1-1.27-.77c0-.29.07-.58.1-.87,6.82-3.26,13.71-6.38,20.43-9.83,4-2.07,8-3.66,12.65-3.26,4.93-.08,8.66,3,12.59,5.2,8.82,4.9,18.16,8.8,26.69,14.25a11.73,11.73,0,0,1,3,3.49,8.15,8.15,0,0,1,1.07,6.67c-3,11.06-6.05,22.12-9.43,33.08A4.35,4.35,0,0,1,148.64,143.5Z"/><path class="cls-1" d="M84.39,126.64a2.51,2.51,0,0,0,.1-.77,1.54,1.54,0,0,1,1.22-.84c6.57,2.08,13.23,3.86,19.87,5.73a5.49,5.49,0,0,1,3.36,1.9c-.08.91-.34,1.56-1.45,1.05C99.5,132.32,91.64,130.47,84.39,126.64Z"/><path class="cls-1" d="M107.5,133.71l1.24-.89c3.22-.7,6.2-.69,8,2.74,0,.31,0,.62,0,.93C113.35,136.56,110.5,134.9,107.5,133.71Z"/><path class="cls-1" d="M156.69,98.63l-39-20.16a4,4,0,0,1,1.15-5c1.08-.5,2.1,0,3.14.21A26.33,26.33,0,0,1,125,75c.62.27,1.22.57,1.83.86,6.94,3,12.75,8,19.69,11,1.65.71,3.17,1.73,5,1.88a4.41,4.41,0,0,1,1.79,1,18.83,18.83,0,0,0,5.11,3c1.41.81,3.07,1.35,3.56,3.18A4.75,4.75,0,0,1,156.69,98.63Z"/><path class="cls-1" d="M121.83,74.43a3.27,3.27,0,0,1-3-.91c-4.06-3.29-8.13-1.83-12.21,0l-.94-.88c-.11-2.3,1.76-2.49,3.26-3.08a29,29,0,0,1,8.83,0c2,.65,3.9,1.33,5.1,3.21C123.1,73.68,122.63,74.16,121.83,74.43Z"/><path class="cls-1" d="M73.7,117.08c3.18-6.16-1.28-12.9,1-19.34a23.13,23.13,0,0,1,.7-2.37c.7-1.47,1.54-3.73,3.26-3.15,2.14.72.7,2.76.23,4.22-2.25,7-.64,14.21-1.19,21.3-.12,1.51.94,4.18-1.13,4.23S74.09,119.31,73.7,117.08Z"/><path class="cls-1" d="M84.49,125.87a9.78,9.78,0,0,1-3.92-3.23c0-5.93.7-12-.18-17.76a13.23,13.23,0,0,1,4.16-12.45l.32.31c1.33,3.67-2,6.44-1.79,10.05.46,7.57-.71,15.26,1.76,22.68Z"/><path class="cls-1" d="M39.71,109.6q0-9,0-18c.05-2,1.74-2.26,3-3,8.4-.14,16.79-.08,25,2,2.07,6.68,1.24,13.53.6,20.24-.42,4.44-4.94,5.18-8.48,5.6a59.74,59.74,0,0,1-13,0C43,116.08,40,114.14,39.71,109.6Z"/><path class="cls-1" d="M150.68,141.53c2.89-10.68,5.64-21.4,8.74-32,.85-2.91,1.05-5.42-.61-8,.5-3.72,3.18-4.33,6.26-4.38,2.85,2.06,5.49,4.21,3.61,8.33-4.73,13.42-7.77,27.33-11.93,40.91a17.07,17.07,0,0,1-1,2.18c-1.39-1-2.78.4-4.2,0-2.23-.65-3.76-1.5-1.8-4,2.41,1,4.34.63,5-2.15,2.76-11.82,6.66-23.33,9.35-35.17.24-1.07.55-2.26-.45-3.46-2,11.92-5.6,23.25-9.25,34.55-.55,1.69-.86,4-3.51,4-.07,0-.18-.23-.2-.36A1.56,1.56,0,0,1,150.68,141.53Z"/><path class="cls-1" d="M165.74,126.6c-.05-1,.2-2.18-.86-2.93l4.77-17.12q-.51-.87.45-1.17c1.63.53,1.68,1.92,1.81,3.28a3.6,3.6,0,0,1-1.17,2.91Q168.22,119.07,165.74,126.6Z"/><path class="cls-1" d="M169.9,105.67c-.08.29-.17.58-.26.87l-1-1.05c.11-3.35-2-5.59-3.91-7.94a3.14,3.14,0,0,1-3.1-1.84l-3.91-2.21a.84.84,0,0,1,.13-1.24c4-.36,6.9,1.75,9.56,4.35a29.36,29.36,0,0,1,3.19,5.37C171.13,103.36,171.47,104.71,169.9,105.67Z"/><path class="cls-1" d="M150.68,141.53c3.38-2.24,3.9-6.19,4.54-9.47,1.17-6,3.5-11.69,4.85-17.65.8-3.56,1.91-7,1.7-10.71-.07-1.25-.26-3,1.78-2.83,1.63.09,2.07,1.42,2.16,2.85a17.79,17.79,0,0,1-.76,5.87c-3,11-5.83,22-8.76,33-.56,2.1-1.15,4.38-3.73,4.76-1.86.27-2.58-1.13-2.72-2.81l-1.09-1.08Z"/><path class="cls-1" d="M108.7,70.53l-3,2a3.4,3.4,0,0,1-.9-.09c-2.65-6-2.18-12.1-.24-18.19,1.51-1,3.22-.69,4.86-.69q25,0,49.94,0c1.77,0,3.71-.48,5.19,1.07q.06,8.93.11,17.86l-.55.49c-1.46.32-3.13,0-2.43-1.7,1.46-3.61-.89-5.79-2.39-8.37-.95-2.12-2.87-2-4.68-2Q134.81,61,115,61c-2,0-4.07-.1-5,2.28C107.29,65.27,107.37,67.79,108.7,70.53Z"/><path class="cls-1" d="M104.86,54.69l0,17.8-3.09,1.11c0-5.46,0-10.91,0-16.37,0-1.58-.57-3.36,1-4.62a5.3,5.3,0,0,0,1.32.77A1.76,1.76,0,0,1,104.86,54.69Z"/><path class="cls-1" d="M231.75,170.6l-1-1c3.11-3.32,8.08-1.71,11.45-4.33,1.75-4.15-1.57-4.07-3.83-4.2-5.63-.33-11.29-.07-16.94-.14-1.65,0-3.36.13-4.85-.8-1-.61-1.41-1.39-.2-2.26,9.16-.88,18.32-1.75,27.41.53,1.58,1.15,3.08,2.36,3.72,4.31.24,1.64-.34,3.33.34,4.93A81.63,81.63,0,0,1,231.75,170.6Z"/><path class="cls-1" d="M247.85,167.67c-2.78-1.46-.93-3.24-.34-4.93.42,1.81,4.68,1.89,2.25,5Z"/><path class="cls-1" d="M243.79,158.43l-28,.23c-1.07.18-1.41-.45-1.5-1.36a1.29,1.29,0,0,1,1-1.13c8.75-1,17.5-1.46,26.26-.08a3.71,3.71,0,0,1,1.59.08l.65.47Z"/><path class="cls-1" d="M261.72,165.46c-1.36.31-3-.21-4,1.11-4.05.63-6.76-1-8.11-4.86l.65-.38c3.5,1.91,7.11,3.36,11.23,2.87a.89.89,0,0,1,.43.79C261.86,165.31,261.8,165.46,261.72,165.46Z"/><path class="cls-1" d="M249.58,161.72c-1.81-1.44-3.62-2.89-4.58-5.09a2.76,2.76,0,0,1,2.7-2.59,2.16,2.16,0,0,1,1.43.67c.53,2.26,1.38,4.5.59,6.88Z"/><path class="cls-1" d="M247.84,154.63l-2.83,2-1.22,0-.14-.15c.28-2.84,2.07-5.15,2.77-7.84a1.56,1.56,0,0,1,1.35-.27,5.57,5.57,0,0,1,1.6,3.21A2.84,2.84,0,0,1,247.84,154.63Z"/><path class="cls-1" d="M249.73,161.59c-.56-2.3-1.3-4.58-1-7,.48-8.72.83-17.45,1.66-26.15.25-2.66-.29-5.81,3.36-6.85-1,10-1.88,20-3,29.95-1,9.38,2.25,12.66,11.31,11.19,5.19-.84,10.42-1.45,15.64-2.16a13.21,13.21,0,0,1-6.85,2c-1.69.11-3.29.15-4.11,2l-2,.09c-1,.65-2-.25-3,0C257.42,164.83,253.17,164.84,249.73,161.59Z"/><path class="cls-1" d="M261.73,164.59c1-1.59,2-.25,3,0-.79,1.09-1.93.92-3,.86C261.73,165.17,261.73,164.88,261.73,164.59Z"/><path class="cls-1" d="M161.75,148.6a310.54,310.54,0,0,0,9-33c1.08-5.19,2.1-10.33,1.05-15.74-.8-4.14,1.51-6.85,5.49-6.27,6.49.94,13,.35,19.45.62,2.72.11,5.52.32,7.05,2.92,1.71,2.91-.63,5-2,7.21-1.68,2.66-3.34,5.38-5.86,7.4a2.77,2.77,0,0,1-1.6.29,1.63,1.63,0,0,1-1.16-1,2.93,2.93,0,0,1,.56-2.84c1.29-1.23,2.68-2.4,3.17-4.24a35,35,0,0,1,1.85-3.48c-2.41-1.93-18.86-3.67-21.31-2.28a2.12,2.12,0,0,0-1.17,2.51c1.06,3.34-.13,6.6-.15,9.89-2.1,12-6.38,23.39-9.56,35.09-2.13,7.85-1.81,8.8,6.23,10.37,11.07,2.16,22.21,3.91,33.38,5.8.73-2.76-1.44-4.4-1.4-6.55a4.47,4.47,0,0,1,.4-2.34,1.35,1.35,0,0,1,1.34-.71,2.83,2.83,0,0,1,1.19,1.06c2.19,6.81,6.89,9.65,13.95,8.93a28.59,28.59,0,0,1,5.92.07c1.45.16,3.24.19,3.48,2.07s-1.58,2.2-3,2.56c-.77.2-1.65-.05-2.31.59h-1c-3.43,1.69-6.64-.58-10-.77a24.38,24.38,0,0,1-7.06-1.23c-13.49-2.35-27-4.68-40.46-7.07C161.42,157.5,161.39,153.13,161.75,148.6Z"/><path class="cls-1" d="M225.73,167.59c1.09-1.55,3.6-.89,4.62-3.25-3.62-1.49-7.37-.61-11-.7-7.73-.21-11.31-3.22-12.63-11,2-.3,2.48,1.39,3.06,2.61a10.43,10.43,0,0,0,7,5.75c4.62.59,9.25.16,13.88.29a20.61,20.61,0,0,1,4.44.3c1.36.33,2.61,1,2.74,2.48.11,1.27-.91,2.08-2,2.6-1.48.73-3.06,1.24-4.55,2a1.16,1.16,0,0,1-1.51-.08C228.67,167.15,227.12,167.74,225.73,167.59Z"/><path class="cls-1" d="M229.79,168.5a6.76,6.76,0,0,0,.9,0c2.13-2,5.14-1.56,7.53-2.82a8.85,8.85,0,0,1,4.39-.35.85.85,0,0,1,.35.81q-.08.45-.21.45c-3.73,2.08-8,2.11-12,3-8.44,2.18-16.7.29-25-1.05q-.52-.31-.36-.66c.11-.22.23-.34.34-.34,3.38-.46,6.66.45,9.81,1.27C220.42,170.12,225.07,169.47,229.79,168.5Z"/><path class="cls-1" d="M207.72,165.6c5.79-.37,11.26,2.1,17,2C218.76,169.58,213.3,167.05,207.72,165.6Z"/><path class="cls-1" d="M205.74,167.58c0,.33,0,.66,0,1-4.68-1-9.5-1.25-14-3C196.58,165.07,201.14,166.47,205.74,167.58Z"/><path class="cls-1" d="M186.73,164.59c-.32,0-.65,0-1,0l-.4-.5.38-.51c2,.34,4.24-.78,6,1A5.83,5.83,0,0,1,186.73,164.59Z"/><path class="cls-1" d="M180.73,163.59c-.32,0-.64,0-1,0-.34-.19-.47-.4-.37-.62s.2-.34.31-.34l.05-.05c2,.34,4.23-.74,6,1l0,.05A5.89,5.89,0,0,1,180.73,163.59Z"/><path class="cls-1" d="M186.73,164.59h5c0,.31.05.63.06.94C190.07,165.38,188.16,166.25,186.73,164.59Z"/><path class="cls-1" d="M179.71,162.61c0,.32,0,.64,0,1-1.7-.21-3.62.68-5-1Z"/><path class="cls-1" d="M180.73,163.59l5,0c0,.32,0,.64.05,1C184.06,164.36,182.15,165.25,180.73,163.59Z"/><path class="cls-1" d="M215.72,161.61c-5.59-.42-6.18-5.82-9-9h0c-4.58-6.61-6.66-14.4-10-21.58-1.4-3-3-5.93-3.71-9.21-.72-3.58-1.53-7.25,1.75-10.18,2.34-3.19,4.77-6.31,7-9.58,2.66-3.92,1.68-6-3.16-6.33a127.46,127.46,0,0,0-15.39,0c-3.21.2-6.67-2.67-9.51.21s.61,5.9.12,9c-.59,3.75-1,7.48-3.06,10.79l0-4.08c0-1,0-2,0-3a3.85,3.85,0,0,0,.83-1.62c.14-1.66.37-3.32-.61-4.84a17.53,17.53,0,0,1-1-1.82,7.32,7.32,0,0,1-.32-1.46,5.73,5.73,0,0,1,3.93-6.16,7.38,7.38,0,0,1,1.62-.32,17.26,17.26,0,0,1,5,.35c6.27,1.09,12.59.18,18.88.56a8.64,8.64,0,0,1,2.57.47c3,1.24,4.59,3.38,4.09,6.76-1.17,4.51-4.55,7.67-7,11.38-2.32,3.46-2.88,6.73-1.08,10.72,4.93,10.91,9.17,22.12,14.45,32.88,1.67,3.41,3.91,4.92,7.83,4.72,5.81-.3,11.65-.12,17.47-.05,1.43,0,3.42,0,1.18,2.14C231,161.63,223.32,162.71,215.72,161.61Z"/><path class="cls-1" d="M59.71,81.61l-4,0c-3.92-1.41-8.1.34-12-1l-4,0c-1.5-1.22-3.51.17-5-1C27.8,76,23,62.91,27.2,56.57a6.31,6.31,0,0,1,5.31-3c8.06-.51,16.11-1.36,24.21-1,4.87-1.06,9.81-.16,14.71-.48,1.77-.12,3.62.49,5.31-.49l4,0a42,42,0,0,1,14,0l2,2a54.1,54.1,0,0,1,0,16c-6.94,7.78-16.09,11.16-26,13C67.15,81.21,63.3,82.92,59.71,81.61Z"/><path class="cls-1" d="M76.73,51.6c-6.58,2.24-13.36.4-20,1C63.29,50.41,70.07,52.16,76.73,51.6Z"/><path class="cls-1" d="M96.73,69.58v-16A27.09,27.09,0,0,1,96.73,69.58Z"/><path class="cls-1" d="M94.73,51.59h-14A21.39,21.39,0,0,1,94.73,51.59Z"/><path class="cls-1" d="M43.71,80.61c4,.48,8.16-1.09,12,1C51.74,81.12,47.58,82.6,43.71,80.61Z"/><path class="cls-1" d="M59.71,81.61c3.66.49,7.51-1.13,11,1C67.07,82.11,63.23,83.65,59.71,81.61Z"/><path class="cls-1" d="M34.71,79.6c1.69.22,3.61-.67,5,1C38,80.38,36.14,81.21,34.71,79.6Z"/><path class="cls-1" d="M23,90.59c1.5,0,3,0,4.49,0,3.47,0,5.12,1.6,5.31,5.11s-.63,6.41-4.71,6.76a80.85,80.85,0,0,1-9.47.09c-3.77-.12-5.78-2.19-5.84-6s1.85-5.88,5.73-6C20,90.56,21.51,90.58,23,90.59Z"/><path class="cls-1" d="M290.73,90.56l4-3C294.58,90.18,292.9,90.7,290.73,90.56Z"/><path class="cls-1" d="M223.84,69.55H198.37c-5.81,0-11.45,0-17.06,2.52s-9.3-.35-9.49-6.66c-.13-4.16,0-8.32-.09-12.48-.08-2.87,1.05-4.12,4-4.5a63.06,63.06,0,0,1,8.9-.82c21.95.29,43.86-1.78,65.82-1.11a17.89,17.89,0,0,1,8.12,1.94c5.55,2.93,8.64,12.58,5.56,18-1.36,2.4-3.54,3.15-6.32,3.12C246.48,69.48,235.16,69.55,223.84,69.55Z"/><path class="cls-1" d="M123.7,45.46c0-.65,0-1.31.08-2l14,.21,2.09,1c-.1.27-.21.53-.33.79Z"/><path class="cls-1" d="M216.7,33.61c-.17-2.38,1-3.19,3.28-3,2.05.14,4.21.46,4.85,2.59s-.79,3.33-3,2.89a30.19,30.19,0,0,1-4.13-1.44C217.38,34.28,217,33.94,216.7,33.61Z"/><path class="cls-1" d="M269.71,75.56l0,1c-.71,1.75-2.23,2.12-3.87,2.31-22.23.21-44.47,0-66.7.11a31,31,0,0,0-6.94.33c-2.66,1.1-5.06,2.84-7.95,3.42-6.84.54-13.54.56-20-2.59-4.32-2.11-9.15-1.12-13.78-1.08-.63,0-1.4.1-1.61.89-.26,1,.47,1.56,1.21,1.89a12.15,12.15,0,0,0,4.77,1.29c15.6.19,31.1,2.72,46.73,2.07,6.41,1.69,13.09.42,19.56,1.82,3.56.77,6.83-2.29,10.54-1.47l3,0c-1,4-4.56,4.56-7.7,5.11a32.94,32.94,0,0,1-11.42,0A34.6,34.6,0,0,0,207.2,90c-9.16.58-18.21-1.33-27.35-1.08a5.1,5.1,0,0,1-4.13-1.35c-7.9-.67-15.8-1.29-23.7-2-3.24-.3-5.89-2.16-8.54-3.84-1.13-.72-2-1.85-1.46-3.38s1.9-1.83,3.27-1.72c8.32.66,16.72-1.51,25,2.38,4.31,2,9.82.83,14.77.27a2.82,2.82,0,0,0,2.71-2.53q37.78-.09,75.58-.22A43.21,43.21,0,0,0,269.71,75.56Z"/><path class="cls-1" d="M175.74,87.59c15.54.67,31.08,1.28,46.62,2a17.25,17.25,0,0,0,12.4-4,68.49,68.49,0,0,1,15-1c.22,2-1.32,2.39-2.62,3-3.08.54-6.1,1.52-9.28,1.41-.66,0-1.53-.13-1.93.26-6.41,6.27-14.3,3-21.63,3.45a14.7,14.7,0,0,0-5.42-.71c-10.83.64-21.57-1.33-32.39-1.09-1.84,0-4.18.47-4.84-2.29C173,88.43,174.66,89.06,175.74,87.59Z"/><path class="cls-1" d="M171.64,88.64c1.05,1.11,2.43.82,3.73.87,11.53.37,23.07.76,34.6,1.1a8.92,8.92,0,0,1,4.76,1,1,1,0,0,1-.31,1.45,4.87,4.87,0,0,1-1.56.65,26,26,0,0,1-8.49-.22,17,17,0,0,0-6.87-.5c-8.41.57-16.74-1.09-25.13-.7-5.7-.5-11.33-1.83-17.11-1.23a3.41,3.41,0,0,1-2.33-.49l-1.21-1.07a1.15,1.15,0,0,1,0-1.81A152.43,152.43,0,0,0,171.64,88.64Z"/><path class="cls-1" d="M125.75,76.52l-1-.78a1.88,1.88,0,0,1,.16-2.54c6-2,12.34-1.31,18.5-1.82,6.46-.53,13.17-1.2,19.46,1.66a1.7,1.7,0,0,0,1.79-.54l.07,0,1.1,1.09c-4.78,2-9.79.57-14.68.91-3.47.24-7,.11-10.46.15-4.29,2.31-9,.88-13.42,1.32A4,4,0,0,0,125.75,76.52Z"/><path class="cls-1" d="M125.83,75.27c4.89-1.49,9.88-.4,14.81-.57-2,1.92-1.9,4.39-1.85,6.86C133.74,81,129.91,77.86,125.83,75.27Z"/><path class="cls-1" d="M125.83,75.27l13,6.28c4,2.64,8.08,5.25,12.93,6.17v1.81c-9.26-3.14-17.36-8.6-26-13C125.77,76.11,125.8,75.69,125.83,75.27Z"/><path class="cls-1" d="M205.73,22.6c.83,1,1.73,2,2.48,3s3,1.9,1.68,3.45c-1,1.18-3.22.92-4.63.07A6.81,6.81,0,0,1,202,23.35c.11-3.16,2.5-.13,3.71-.75Z"/><path class="cls-1" d="M282.73,55.59l6.06.86a3.29,3.29,0,0,0,.94.08,13.36,13.36,0,0,1,2,8.58c-.56,5.18,1,10.23,1,15.39,0,4.12-1,6.59-5.9,7.42-13.08,2.18-19,13.5-14.09,26.1,1.75,4.49,3.71,8.91,5.88,13.21,2.46,4.87,2.53,10,1.81,15.12a39.77,39.77,0,0,0-.66,8.41c.24,3.53-.84,6.19-4,7.84-1.5,1.18-3.51-.22-5,1l-2,0c-4.63,1-9.23,2.35-14,1l-1-1a6.3,6.3,0,0,1-1.29-5.61c1.43-5.14,1.22-10.48,1.65-15.7.4-4.93.84-9.84,1.64-14.71,0-1.09-.15-2.27,1-3,2.29-3,.9-6.75,2-10h0c1.18-8.15.86-16.18-2-24h0c-.85-2.4-5.05-3.44-3.71-6.32,1.43-3.08,5-1.49,7.7-1.62,3.79-.18,7.63.23,11-2.08l1-1c2.47-4.09,1.42-8.62,1.5-13C274.36,55.33,275.37,54.41,282.73,55.59Z"/><path class="cls-1" d="M271.72,76.58c-1.76,2.73-4.63,2.81-7.4,3-2.14.13-4.29,0-6.43,0-1.44,0-3.28-.57-4.15.86-1.07,1.75,1.08,2.4,1.87,3.47a4.49,4.49,0,0,1,1.12,2.66c-8-7.54-16.56-3.21-25-1-4.51,2.23-9,3.45-14.26,2.31-5.1-1.1-10.55.07-15.73-1.3-5.85-1.3-11.85.13-17.72-1a19.78,19.78,0,0,1-3-.35c-.79-.27-1.63-.57-1.67-1.56-.05-1.34.93-1.53,2-1.6s2.33.29,3.35-.53l6-3c1.73-.92,3.59-.46,5.38-.46,21.75,0,43.5,0,65.26-.05,1.79,0,3.66.48,5.37-.48l3-1Z"/><path class="cls-1" d="M247.73,86.46l2-1.9c3.63-.23,5,2.29,5.79,5.1.91,3.34,2,6.83,1.92,10.21-.3,7.35,0,14.92-3.7,21.72-3.43,6.17-2,13.08-2.89,19.63-.58,4.49-.37,9.07-2.12,13.37q-.45,0-.9,0l.81-3.11c-.6-1.53-.47-3.17-.74-4.76a24.84,24.84,0,0,0,.46-6.38,34.66,34.66,0,0,1,.36-6.52,18.11,18.11,0,0,0,.64-6.39c.16-3.21-.58-6.61,2-9.3,1.61-1.91.83-4.39,1.48-6.52.5-5.35,2-10.68.2-16a10.19,10.19,0,0,1-.78-2A6.68,6.68,0,0,0,247.73,86.46Z"/><path class="cls-1" d="M255.72,123.58c-.77,10.26-1.12,20.56-2.8,30.73-.32,2,.74,3.5.8,5.29-1.1-.55-2.09-1.43-1.88-2.65C253.68,145.89,252.34,134.46,255.72,123.58Z"/><path class="cls-1" d="M256.73,86.59c3.92,7.73,3.84,15.79,2,24A87.22,87.22,0,0,0,256.73,86.59Z"/><path class="cls-1" d="M254.73,160.6c4.74.61,9.32-1,14-1C264.2,161.7,259.57,162.69,254.73,160.6Z"/><path class="cls-1" d="M258.73,110.59c-.34,3.4,1.14,7.16-2,10C257.82,117.33,257.09,113.72,258.73,110.59Z"/><path class="cls-1" d="M270.73,159.58c1.41-1.63,3.32-.77,5-1C274.33,160.24,272.42,159.38,270.73,159.58Z"/><path class="cls-1" d="M282.73,55.59c-7.71,0-7.81.35-8.07,8.22-.13,4,1.58,8.33-2,11.76,1.24-4.65,1-9.41,1-14.16C273.75,54.87,276.31,53.24,282.73,55.59Z"/><path class="cls-1" d="M123.78,39.72c0-.35,0-.69,0-1,2.85-1.83,6-.9,9-1,0,.32-.05.65-.06,1C129.87,40.1,126.75,39.31,123.78,39.72Z"/><path class="cls-1" d="M168.78,35.66c0,.32,0,.64-.05,1L167,36.7c-1.71-.42-3.71.58-5.18-1Z"/><path class="cls-1" d="M103.76,53.61l-1-1q29.69,0,59.36,0c1.59,0,3.37-.57,4.68.94l-1,1c-1.55-.91-3.25-.47-4.88-.47-17.27,0-34.54,0-51.82,0C107.36,54.05,105.5,54.49,103.76,53.61Z"/><path class="cls-1" d="M103.76,53.61q28.71,0,57.41,0c1.59,0,3.37-.59,4.67,1l-1.26.12H104.85Z"/><path class="cls-1" d="M119.7,37.55l-4,3.05c-20.11,0-40.13,2.29-60.25,2.12-3.42,0-6.86,1.1-10.38.87-1.67-.11-3.45.09-4.14-2-.63-1.87.44-3.12,1.6-4.41a10.2,10.2,0,0,1,8.36-3.65c12.8.35,25.59-.8,38.36-1.27,10-.37,19.93-.44,29.89-.67,1.37,0,3.39-.83,4,1,.5,1.55-1.69,1.74-2.44,2.74A9.57,9.57,0,0,0,119.7,37.55Z"/><path class="cls-1" d="M107.74,25.59c-4.33-3.85-4.23-4.79.92-8.91H148.8c4.34,2.93,4.43,3.36,1.26,6,5.12-.5,5.12-.5,8.57.84-2.84,2.09-6.06.7-9.1.92-6.26.46-12.6-.42-18.8,1.11l-10,.09Q114.26,25.64,107.74,25.59Z"/><path class="cls-1" d="M158.63,23.56h-9.9c5.44-3.09,1-4.7.07-6.86l2.94-.19A30.14,30.14,0,0,1,158.63,23.56Z"/><path class="cls-1" d="M166.62,19.59c-2.41-.83-5.73-.72-6.6-4.1-.51-2,1.41-2.09,2.66-1.82,2.91.63,6.18,1.34,7.23,4.45C170.41,19.55,168.11,19.46,166.62,19.59Z"/><path class="cls-1" d="M179.91,23c3-.71,4.9,1.31,7.06,2.21,1.51.63,3.46,1.57,2.28,3.57-.9,1.52-2.69.71-4,0C182.93,27.52,180.9,26,179.91,23Z"/><path class="cls-1" d="M85.87,21.62c-1.68,0-3,.09-4.33,0S78.23,22.25,78,20c-.19-1.7,1.25-2.7,2.59-3.3,4.57-2.07,9.44-1.24,14.14-.82,2.34.21,1.92,2.07.57,3.66C92.53,22.83,88.8,21.13,85.87,21.62Z"/><path class="cls-1" d="M84.84,125.46a10,10,0,0,1-3.16-8.83,53.28,53.28,0,0,0,0-8.38c-.29-5.46-.08-10.79,3.16-15.52,8.13-3.8,16.32-7.46,24.35-11.46,3.76-1.88,7.09-2.11,10.85-.07,11.11,6,22.35,11.79,33.49,17.76,4.79,2.57,5.8,5.5,4.3,10.68q-4,13.86-7.89,27.76c-1.44,5.16-3,6-8.23,4.67-8.33-2.19-16.45-5.16-25-6.52l-8-2.74C100.75,130.44,92.36,129.37,84.84,125.46Z"/><path class="cls-1" d="M161.66,95.72a5.55,5.55,0,0,1,3.1,1.84c-1.89,1.47-4.87,1.32-5.95,4l-2.12-2.92Q159.17,97.17,161.66,95.72Z"/><path class="cls-1" d="M152.94,90.6l1.84,0c1.81-.91,2.75-.21,3.06,1.65,0,.43-.07.86-.1,1.29C156.05,92.69,154.07,92.34,152.94,90.6Z"/><path class="cls-1" d="M124.76,73.55c0,.73,0,1.46-.05,2.19l-2.88-1.31,1-1A1.44,1.44,0,0,1,124.76,73.55Z"/><path class="cls-1" d="M124.76,73.55l-1.94-.08-4.21-2.73c-.86-4.82-.52-5.22,6.38-7.34,11.9-.22,23.8-.6,35.7.15,2.6,1.93,4.15,4,2.21,7.45-1.16,2,.87,1.29,1.73,1.49a2.22,2.22,0,0,1-2.6,1c-10.26-1.86-20.52-.43-30.77,0C129.1,73.62,126.93,73.55,124.76,73.55Z"/><path class="cls-1" d="M123.66,64.73c-2.8,1.07-5.3,2.39-5,6l-9.91-.21c-1.41-1.39-3.63-2.31-2.81-5,.55-1.79,1.79-1.44,3.07-1C113.88,62.56,118.79,62.26,123.66,64.73Z"/><path class="cls-1" d="M52.64,90.58c14.15.13,14.15.13,14.14,14,0,7.24-2.46,9.84-9.71,10-16.07.33-15.63-.39-15.43-14.64C41.79,89.26,41.15,90.56,52.64,90.58Z"/><path class="cls-1" d="M171.73,107.59l-1,1c0-1,.2-2.15-.83-2.9v-3.15c.37-.59.05-1.48.82-1.9l1,1A8.11,8.11,0,0,1,171.73,107.59Z"/><path class="cls-1" d="M157.84,92.23a4.61,4.61,0,0,0-3.06-1.65c5.81-2.2,11.41-.7,17,1-.28,1.34-1.59,1.85-2.28,2.86-1,.9-.47,3.06-2.55,3C164.43,94.78,161,93.74,157.84,92.23Z"/><path class="cls-1" d="M166.94,97.42c1.38-.92.21-3,1.79-3.85,1.49,1.14.75,2.88,1.16,4.31a4.86,4.86,0,0,0,.83,1.73v1l-.82,1.9Q168.43,100,166.94,97.42Z"/><path class="cls-1" d="M123.66,64.73,109,64.53c-.75-3.41.49-4.9,4.11-4.87,14.45.1,28.9.07,43.35,0,2.78,0,4.6.67,4.28,3.89-1.75,1.27-3.76,1-5.74,1Z"/><path class="cls-1" d="M201.73,94.58l-1.94,0a.91.91,0,0,1,.13-1.37,5.68,5.68,0,0,1,4.55-.21c3.36.59,4.31,3.08,4.74,6,.07,3-2.32,4.9-3.52,7.34a9.42,9.42,0,0,1-.77,1.1,36.18,36.18,0,0,0-4.2,5.86,10.22,10.22,0,0,1-.77,1.09c-.95,1.17-2.13,2.25-1.45,4,.17.43.3.87.45,1.31,4.27,10.26,8.68,20.45,13.11,30.63,1.06,2.44,1.81,4.94,2.63,7.45l1.1.91c7,2,14.09.43,21.13.9,2,.13,4.1-.23,5.76,1.07,2.39,1.87,3.72,4,.06,6,0-.34,0-.68,0-1-1.13-1-1.68-2.38-2.73-3.4-.09-.19-.17-.38-.25-.58-5.27-2.14-10.85-1.27-16.14-.82-7.87.67-12.34-2.14-15.12-9.49-3.76-9.92-8.19-19.6-12.53-29.29-1.72-3.84-.82-7,1.3-10.27,2.46-3.73,5.62-7,7.5-11.13C206.18,97.37,205,95.47,201.73,94.58Z"/><path class="cls-1" d="M213.6,92.84l1.11-.16c5.58.15,11.13-1,16.73-.46.82,3.18-2.22,2.2-3.43,3.2a24.82,24.82,0,0,1-4.94.53c-4.15.32-7.6,1.71-10.09,5.42s-4.9,7.11-7.54,10.53c-2.76,3.59-3.48,7.27-1.58,11.6,3.67,8.37,7.22,16.79,10.85,25.17,1.74,4,4.56,5.74,8.95,5.67,5-.08,10-.47,14.94.35,1.44.52,3.1.58,4.16,1.92-1.76,1.69-3.64.57-5.56.38a60.56,60.56,0,0,0-16.25.12c-2.21.38-4.21.66-6.18-.56-4.56-6.86-6.74-14.83-10.22-22.2-2.43-5.17-4.54-10.52-6.82-15.77l0,0c-1.34-2.48,1.44-3.31,2-5l0,0c1.82-2.24,3.27-4.74,5-7l0,0a36.51,36.51,0,0,0,6-10.15A8.5,8.5,0,0,1,213.6,92.84Z"/><path class="cls-1" d="M197.72,118.57c5.52,8.72,8.31,18.7,12.81,27.9,1.6,3.27,2.83,6.71,4.23,10.07,0,.4,0,.8-.07,1.2-4.91-7.09-7.22-15.42-10.7-23.17C201.67,129.37,198.62,124.37,197.72,118.57Z"/><path class="cls-1" d="M242.75,156.61c-1.36-.19-2.93.42-4-1,3.57-1.7,4.46-5.87,7.47-8.08,0,0,.28.13.39.23a.75.75,0,0,1,.15.86c.57,3.27-.84,5.74-3.14,7.86Z"/><path class="cls-1" d="M246.79,148.62c-1.93-.26-1.61,1.44-2,2.4-1.13,2.72-2.79,4.64-6,4.58-5.32,0-10.64-.11-16,0-4.11.1-7.07-1.44-8.71-5.28-4-9.29-7.87-18.62-12-27.85-1.61-3.63-.86-6.82,1.18-9.81,3.26-4.79,6.45-9.65,10.15-14.09s9.13-4.1,14.31-4c4.33-.41,5,2.84,6,5.88a14.24,14.24,0,0,1,.27,2.44c.2,5.48,2,9.91,7.72,11.82a12.39,12.39,0,0,1,3.78,2.29c4.29,2.42,3.15,6.91,4.08,10.62a15.07,15.07,0,0,1,.12,1.64c0,4.5-1.17,8.9-1,13.41a13.22,13.22,0,0,1-1,5.89Q247.26,148.61,246.79,148.62Z"/><path class="cls-1" d="M247.72,148.57c.05-2,.09-4,.14-6a.81.81,0,0,1,1.26.27c.06,1.25.4,2.52-.31,3.71-.05,1.65-.11,3.29-.16,4.94C247.52,150.79,247.82,149.62,247.72,148.57Z"/><path class="cls-1" d="M199.71,101.58l-2,3c-.91,1.41-2.1,2.61-3,4a2,2,0,0,0-1,2c-2.57,5.36-1.75,10.44.67,15.7,3.52,7.66,6.67,15.48,10.21,23.13.8,1.73.1,3.63,1.15,5.2.23,2.23,1.55,4,2.55,5.9.44.84,1.65,1.67.72,2.54a3.76,3.76,0,0,1-2.81.44q-19.24-3.39-38.47-6.92c-4.66-.86-4.5-4.29-3.53-7.71,3.12-11,6.36-21.94,9.6-32.88a14,14,0,0,0,.95-5.34c1.07-3.28,2.07-6.45.66-10-.9-2.28.34-3.4,3.06-3.56,6.63-.4,13.11,1.19,19.7,1.15C200.63,98.16,200.7,99.75,199.71,101.58Z"/><path class="cls-1" d="M205.73,154.59c-4.65-10.42-9.49-20.77-13.86-31.31-1.78-4.31-2.69-9.06,1.83-12.73,0,.35,0,.69,0,1-2.9,8.28,1.87,15,4.76,22,2.32,5.62,4.56,11.3,7.29,16.76a1.82,1.82,0,0,1-.05,2.27C205.73,153.25,205.73,153.92,205.73,154.59Z"/><path class="cls-1" d="M205.73,152.59c-4.12-9.89-8.13-19.84-12.43-29.66a12,12,0,0,1,.43-11.33h1c-3.33,8.18,1.69,14.69,4.31,21.68,2.43,6.48,6.16,12.44,7.67,19.29Z"/><path class="cls-1" d="M199.71,101.58c.07-1.67-.28-3-2.37-3-6,.25-11.82-1.48-17.84-1.09-3.06.2-4.39.91-3.26,4.17a9.38,9.38,0,0,1-1.5,8.91c-.06-3.41,1.43-6.69.13-10.26-.92-2.54.64-3.66,3.5-3.84,6.85-.43,13.54,1,20.33,1.2C201.77,97.79,202.68,99.42,199.71,101.58Z"/><path class="cls-1" d="M194.72,108.59c.11-2,1.43-3.11,3-4C197.66,106.61,196.35,107.71,194.72,108.59Z"/><path class="cls-1" d="M215.72,161.61l24,0h0c3.07,2.35,1.89,3.84-1,5l-8,1.94c.37-2.46,2.7-2,4.2-2.8.86-.44,2.23-.46,2.11-1.67-.15-1.47-1.59-1.43-2.73-1.44-5,0-9.92,0-14.87,0C218.09,162.57,216.71,162.82,215.72,161.61Z"/><path class="cls-1" d="M238.73,166.58c1.86-1.36,2.54-3,1-5,2.6.12,3.1,1.82,3,4A6.43,6.43,0,0,1,238.73,166.58Z"/><path class="cls-1" d="M204.74,93.59l-5,0c-2.25.91-4.57.35-6.87.36-6-.33-12-1-18.07-.47l-1,.09c-3.65-.18-3,3-4,5-1.67-1.41-.75-3.33-1-5l3-2c.3-.13.6-.39.9-.38,10.7.23,21.43-.14,32.08,1.32.35.24.46.48.34.72S204.86,93.59,204.74,93.59Z"/><path class="cls-1" d="M192.73,93.59l7,0q0,.48.09,1c-6.67-.57-13.46,1.28-20.05-1A36.4,36.4,0,0,1,192.73,93.59Z"/><path class="cls-1" d="M192.73,93.59h-13l-5-.09A34.87,34.87,0,0,1,192.73,93.59Z"/><path class="cls-1" d="M169.73,98.59c.05-2.69-.38-5.77,4-5-2.62,1.2-3.26,3.39-3,6Z"/><path class="cls-1" d="M201.73,94.58c4.51.25,4.86,2.58,3,6C205.29,97.81,203.79,96.06,201.73,94.58Z"/><path class="cls-1" d="M171.73,107.59v-6A4.52,4.52,0,0,1,171.73,107.59Z"/><path class="cls-1" d="M69.34,80.63c-11.29-.74-21.54-1.32-31.77-2.14-4.16-.33-9.19-7.38-9.83-13.17-.82-7.36.79-9.19,8.28-9.78,15-1.2,30.12-1.92,45.22-2,3.13,0,6.25-.61,9.37-.91a4.37,4.37,0,0,1,4.62,2.3c3,5.6-.23,16.16-6,18.86C82.58,76.92,76.44,81.85,69.34,80.63Z"/><path class="cls-1" d="M22.76,93.6h3.47c1.86,0,3.3.65,3.4,2.75.12,2.35-1.3,3.2-3.44,3.21-2,0-4,0-6,0-2.24,0-4.12-1-4.25-3.27-.17-2.9,2.31-2.64,4.28-2.7C21.11,93.57,21.94,93.59,22.76,93.6Z"/><path class="cls-1" d="M223.11,66.58H195.63c-4.8,0-9.44-.06-14,2.36-4.44,2.34-6.83.41-6.83-4.66,0-15-1.53-13.75,13.63-13.68,20.45.1,40.87-1.61,61.33-1.08,7.5.19,13.15,1.77,12.15,11.91-.38,3.81-1.36,5.29-5.29,5.22C245.43,66.46,234.26,66.58,223.11,66.58Z"/><path class="cls-1" d="M184.74,81.58c-1,1.71-3.21.36-5.07,2.47,4.37.56,8.2,1,12,1.54,3.34.44,6.86-1,10,1-16,.69-31.81-1.85-47.75-2a2.07,2.07,0,0,1-.5,0c-3-.84-7.32-1.3-7-4.94.26-2.86,4.41-1.8,6.95-2a29.09,29.09,0,0,1,15,2.65C173.59,82.8,179.3,81.23,184.74,81.58Z"/><path class="cls-1" d="M266.74,77.6c-1.66,1.68-3.78.94-5.69.94q-35.16.09-70.32,0c1.48-1.62,3.43-1,5.18-1Q231.33,77.55,266.74,77.6Z"/><path class="cls-1" d="M231.76,92.75c-4-.49-7.89.14-11.82.67-1.7.23-3.66.64-5.23-.74l0-1c3.62,0,7.24.08,10.85,0,3-.12,5.78.52,8.46-3,2.13-2.77,7.49-.66,11.23-2a9.38,9.38,0,0,1,2.45-.18c5.33.22,6.18,1.43,4.88,7-2.4-1.1-3.44-4.92-7.09-3.49-2.38.07-4.78-.31-7.11.44-3.46.61-1.86,4-3.22,5.81a1.89,1.89,0,0,1-1.17.63C232.31,96,232.39,94.18,231.76,92.75Z"/><path class="cls-1" d="M204.74,93.59c0-.36,0-.72,0-1.07l8.86.33c.19,1.57-1.07,2.32-1.87,3.32a5.32,5.32,0,0,1-3.1,3.37C207.27,97.59,207.71,94.47,204.74,93.59Z"/><path class="cls-1" d="M254.59,154.62c3-11.54.89-23.58,4.7-35.28,3.48-10.66,3.93-22.22-.57-33.16-1.71-4.16,0-5.5,3.88-5.57,1.83,0,3.67.09,5.5,0,4.43-.32,7-2.77,7.62-7.15.58-4.1,1.41-8.19,1-12.37-.24-2.61,1-3.42,3.5-3.51,7.56-.27,9.42,1.45,9.54,9,.07,4.63-.4,9.27.82,13.89.76,2.88-.12,4.86-3.94,5.3-14.17,1.64-21.87,16-15.84,29.06,1.74,3.77,3.27,7.65,5.2,11.33,4.69,8.93.87,18.28,1.45,27.4.12,1.83-1.93,2.83-4,3.17-4.89.81-9.72,2-14.63,2.64C255.61,159.75,254.44,157.7,254.59,154.62Z"/><path class="cls-1" d="M235.36,81.43c-5.44,3.33-10.56,5.65-17.23,4.63-7.49-1.15-15.17-1-22.77-1.47-2.07-.12-5.5.51-5.54-1.65,0-2.63,3.26-3.3,5.83-3.31,10.47,0,20.95-.08,31.42,0C229.75,79.67,232.7,78.78,235.36,81.43Z"/><path class="cls-1" d="M245.74,88.6c4.12-1,6.2.93,6.88,4.84l1.07,1c-.35,2.64,1.81,5.14.45,7.84a1.21,1.21,0,0,1-1.23.55c-1.52-.53-2.21-1.8-2.83-3.14-.27-2.58-2.28-2.94-4.27-3.33a1.7,1.7,0,0,1-1.17-1.53C246.55,93.05,246.76,90.93,245.74,88.6Z"/><path class="cls-1" d="M253.58,102.51c1.12-2.67-1.71-5.39.11-8.05,3.15,5.74,1,11.52.15,17.3a3.77,3.77,0,0,1-1.8-2.28,5.86,5.86,0,0,1-.08-2.94C252.39,105.15,252.45,103.61,253.58,102.51Z"/><path class="cls-1" d="M248.89,128.61l-.21-1.1a19.5,19.5,0,0,1-.08-8.5,4.45,4.45,0,0,1,1.6-1.68,2.91,2.91,0,0,1,1.48-.32c.74.23,1.43.51,1,1.52-3.27,2.39-1.53,5.92-2,9a8.24,8.24,0,0,1-.84,1.4A.75.75,0,0,1,248.89,128.61Z"/><path class="cls-1" d="M248.89,128.61l.84,0a6.13,6.13,0,0,1,.07,5l-.15,6.89c-.53.61-.23,1.58-.92,2.13h-.88Q248.38,135.6,248.89,128.61Z"/><path class="cls-1" d="M252.7,118.54l-1-1c-1.5-2.94-.79-5.55,1.18-8l1,2.16C253.33,114,254.72,116.56,252.7,118.54Z"/><path class="cls-1" d="M249.8,133.57c0-1.66-.05-3.32-.07-5l.94-1.1C250.48,129.53,251.5,131.75,249.8,133.57Z"/><path class="cls-1" d="M248.74,142.59l.92-2.13c-.17,2,.84,4.27-.85,6.11C248.78,145.24,248.76,143.92,248.74,142.59Z"/><path class="cls-1" d="M104,33.59c4.43,0,7.59,0,10.75,0,1.12,0,2.52-.17,2.69,1.48.15,1.38-.86,2.12-2,2.56a8.75,8.75,0,0,1-3.31.89c-9-.37-17.92.73-26.82,1.31-11.57.75-23.21-.09-34.74,1.59-2.27.33-6.36,1.58-6.53-2.22-.16-3.56,3.69-3.64,6.53-3.58,13.13.3,26.18-1.43,39.32-1.2C95,34.52,100.15,33.26,104,33.59Z"/><path class="cls-1" d="M121.09,17.63c8-.53,15.8,1.66,23.77,1,1.23-.1,3.07-.28,3.08,1.53,0,1.53-1.8,1.88-3,2.15-4,.91-8.17.29-12.32.94-6.82,1.06-13.81,1-20.74,1.3-2.14.09-4.74,0-5-2.87-.24-3.07,2.45-3.76,4.74-4C114.77,17.41,117.94,17.63,121.09,17.63Z"/><path class="cls-1" d="M84.83,108.11C83,99.88,87.38,94.65,95.64,91.53a92,92,0,0,0,11.61-5.74c5.33-2.92,10.39-2.53,15.6.36,8.57,4.74,17.25,9.28,25.87,13.93,5.86,3.16,6.81,5.22,5.15,11.65q-2.67,10.35-5.58,20.63c-1.63,5.75-3.72,6.95-9.47,5.41Q117.22,132,95.66,126C86.93,123.63,83.92,121,84.83,108.11Z"/><path class="cls-1" d="M141.75,70.59c-5.16,0-10.31,0-15.47,0-1.34,0-3-.1-3-1.81s1.76-2,3-2q15.47-.15,30.93,0c1.23,0,3,.4,3,2,0,2.06-2,1.87-3.43,1.88C151.74,70.62,146.74,70.6,141.75,70.59Z"/><path class="cls-1" d="M54.25,93.6c1.66,0,3.32,0,5,0,4.66.17,5.83,1.67,4.94,6.2-.16.81-.29,1.62-.4,2.44-.42,3,1.48,7.12-2.17,8.53-4.79,1.85-10.09,1-15.16.4a2.14,2.14,0,0,1-1.59-2.28c-.06-4.31-.05-8.61-.06-12.92,0-2,1.37-2.39,3-2.39Z"/><path class="cls-1" d="M157.79,62.45H111.66v-.53h46C157.66,62.09,157.72,62.27,157.79,62.45Z"/><path class="cls-1" d="M208.63,99.53c1-1.12,2.07-2.24,3.1-3.37a20.86,20.86,0,0,1-7,10.44C205.05,103.71,207.67,102.08,208.63,99.53Z"/><path class="cls-1" d="M204.74,106.58a12,12,0,0,1-5,7A11.91,11.91,0,0,1,204.74,106.58Z"/><path class="cls-1" d="M199.74,113.58l-2,5C195.54,115.79,198.07,114.85,199.74,113.58Z"/><path class="cls-1" d="M231.76,92.75c1.88.64,1.89,2.27,2,3.84a3,3,0,0,1,.35,3.77.94.94,0,0,1-1.4.19c-.91-2.62-1.86-5.2-5-6C228.66,93,230.79,94.13,231.76,92.75Z"/><path class="cls-1" d="M229.34,153.57h-1c-10.83,0-10.83,0-15.06-10-2.85-6.71-5.7-13.43-8.61-20.12a9.81,9.81,0,0,1,1-10.34c2.89-4,5.62-8.21,8.53-12.24,2.55-3.54,8.52-5.51,12.51-4.07a5.68,5.68,0,0,1,4.06,5.66c0,7.56,3.19,13,10.44,15.87,3.47,1.4,4.76,4.37,4.35,8.12-.64,5.91-1.36,11.83-1.73,17.76-.5,8-1.8,9.32-10,9.32C232.33,153.58,230.83,153.57,229.34,153.57Z"/><path class="cls-1" d="M232.76,100.54l1,.06c2.24,0,2.22,1.92,2.09,3.16-.55,5.17,2.32,7.84,6.52,9.77a4.56,4.56,0,0,1,2.76,2.64,1.85,1.85,0,0,1-.42,1.43,14.54,14.54,0,0,0-2.21-1.08C234.45,114.12,232.26,108.16,232.76,100.54Z"/><path class="cls-1" d="M244.73,117.59v-1c2.45-1.25,3.91-.23,4.8,2.09-1.51,2.83-.49,5.9-.86,8.84C246.88,124.4,248.92,119.76,244.73,117.59Z"/><path class="cls-1" d="M157,79.58c.72,0,1.06,0,1.38,0,2.53.27,5.41-.92,7.35,1.73.22.31.26,1.15.06,1.3-2.52,1.87-5.38.73-8.11.79a1.83,1.83,0,0,1-.94-.3c-2-1.26-6.55.63-6.25-2.2S155.07,80.37,157,79.58Z"/><path class="cls-1" d="M249.53,118.68l-4.8-2.09a12,12,0,0,0-2.37-1.67c-5.31-2.09-8.63-5.4-7.66-11.62a2.72,2.72,0,0,0-.91-2.7c0-1.34,0-2.67,0-4l.78,0,.75.21a3.34,3.34,0,0,1,1.33,1.84c.51,1.92.23,4,.92,5.86.1,3.68,2.07,5.72,5.32,7.38,2.82,1.44,6.83,1.56,7.85,5.61C250.34,117.91,249.94,118.29,249.53,118.68Z"/><path class="cls-1" d="M234.58,96.63c1.49-2.17-2.41-6.63,3-7.12.94-.49,1.79-.63,2.27.6-3.11,3.22-.28,5.24,1.51,7.48a2,2,0,0,1-1.2,2.31c-2.58.18-3.59-2.13-5.28-3.35Z"/><path class="cls-1" d="M239.72,90.58a2.47,2.47,0,0,0-2.12-1.07c2.57-1.58,5.41-.69,8.13-.91,3.79,3.39,3.73,3.8-1,6l-.41-.54c-.55-2.15-2.6-2.22-4.16-3Q240,90.84,239.72,90.58Z"/><path class="cls-1" d="M239.7,99.54l1.18-1.79c.72-2.85,3.19-1.6,4.91-2.1,3-.45,5.69-.43,4.83,3.92-1.14.82-1.45-3-2.88-.51a17,17,0,0,0-2.47.1,4,4,0,0,0-3.36,3.22c-.33,1.84,1.05,2.61,2.41,3.31,1,.53,2.14.93,2.71,2.07a1.43,1.43,0,0,1-.57,1.33c-3.84,1.6-6.26-.33-8.08-3.4C237,103.33,236.71,101,239.7,99.54Z"/><path class="cls-1" d="M245.8,95.64l-4.91,2.1c-1.1-1.62-4.25-1.14-4.11-4.09a2.86,2.86,0,0,1,2.95-3.08l0,0c.11,3.28,2.94,3.14,5,4l0,0C245.1,95,245.45,95.3,245.8,95.64Z"/><path class="cls-1" d="M247.84,98.54c2-2.67,1.82.78,2.78,1l2.21,3c-.09.2-.19.4-.28.61-1.56,1.34-2.86.62-4.11-.52C248.08,101.31,246.46,100.14,247.84,98.54Z"/><path class="cls-1" d="M253.58,102.51c.13,1.45.45,2.94-.71,4.17a1.83,1.83,0,0,1-1.45-1.12c-.22-1.19.81-1.9,1.12-2.9l.3-.1A2.07,2.07,0,0,0,253.58,102.51Z"/><path class="cls-1" d="M251.88,105.68l1,1v2.91q-.59,4-1.18,8l-1,0c-2.62-2.41-5.95-3.62-9.12-4.91-3.75-1.53-5.61-3.78-5-7.86-1-2,.21-4.19-.8-6.14-.31-.69-.62-1.38-.94-2.07,2,.37,3.35,1.75,4.79,3-2.59,5.46-.09,8.72,7,9.16C249,108.59,249.8,106.06,251.88,105.68Z"/><path class="cls-1" d="M136.08,21.16c-7.73,1.68-15.66,1.6-23.5,2.37-1.75.17-4.2,0-4.27-2.25,0-1.76,2.29-2.56,3.82-2.52,8,.22,16,.72,23.93,1.12C136.07,20.3,136.08,20.73,136.08,21.16Z"/><path class="cls-1" d="M87.72,108.09C85.64,100.52,90.16,95.86,97.8,93A33.55,33.55,0,0,0,105,89.61c10-6.72,18-.51,26.3,3.77,5.17,2.66,10.12,5.81,15.45,8.07,4.92,2.09,5.89,5.64,4.82,10-1.65,6.76-3.78,13.39-5.64,20.1-1,3.7-3.39,4.56-6.87,3.62-13.75-3.73-27.53-7.32-41.25-11.15C87.69,121.24,87.72,121.11,87.72,108.09Z"/><path class="cls-1" d="M229.81,150.57c-10.39,0-10.3,0-14.23-9.94-2.33-5.86-4.83-11.66-7.58-17.33-1.66-3.41-1.53-6.29.75-9.26,2.82-3.68,5.51-7.46,8.25-11.2,2.25-3.07,5.75-2.73,8.63-2.32,2.51.36,1.94,3.38,2.13,5.51.57,6.18,3,11.26,9.16,13.62,3.87,1.47,4.84,4.15,4.93,8.16.14,6.18-1.49,12.19-1.21,18.36.13,2.76-1.59,4.28-4.36,4.38C234.14,150.63,232,150.57,229.81,150.57Z"/><path class="cls-1" d="M235.84,98.62c1.6,1.87.67,4.08.8,6.14C235.33,102.85,235.82,100.7,235.84,98.62Z"/><path class="cls-1" d="M244.73,94.58c-1.78,0-3.58,2-5.32,0-1.2-1.4-.26-2.69.33-4C241.86,91.35,246.8,88.57,244.73,94.58Z"/><path class="cls-1" d="M247.84,98.54c-.46,1.6,2.13,2.39,1.1,4.14a3.11,3.11,0,0,1,1.14,4.34c-.79,1.57-2,1.42-3.35.69-.78-.24-1.56-.5-2.36-.7-2.63-.66-5.05-2.21-4-5C241.48,99,243.7,96.13,247.84,98.54Z"/><path class="cls-1" d="M246.73,107.7c4.31-.11,2.83-2.75,2.2-5,1.2-.05,2.4.93,3.6,0l-.66,3c-1.43,1.5-1.57,5.23-5.17,3Q246.73,108.2,246.73,107.7Z"/><path class="cls-1" d="M114.52,87.47a26.42,26.42,0,0,1,4.42,1.37q13.91,7.29,27.72,14.74c3.09,1.66,4.52,3.77,3.21,7.68-2.14,6.43-3.57,13.1-5.42,19.63-.69,2.45-1.8,3.83-5.06,2.88-15.26-4.45-30.63-8.55-45.94-12.82a7,7,0,0,1-3.07-1.49c-4-4-1.55-19.81,3.42-22.39S103.89,92,109,89.5C110.78,88.65,112.71,88.12,114.52,87.47Z"/></g></g></svg>