<svg xmlns="http://www.w3.org/2000/svg" viewBox="0 0 502.48 137.05"><defs><style>.cls-1{fill:#fff;stroke:#000;stroke-miterlimit:10;}</style></defs><title>Asset 7</title><g id="Layer_2" data-name="Layer 2"><g id="Layer_1-2" data-name="Layer 1"><path class="cls-1" d="M494.61,75c1,1.34,2,2.67,3,4,.62.8.57,1.86,1.09,2.71C502.58,88.07,502,93.85,496.6,99c-3.72,3.56-7.55,7-11.13,10.71a25.79,25.79,0,0,1-8.87,6.3,37.9,37.9,0,0,0-7.1,3.3c-6.26,3.93-13,3.65-19.91,2.7-1.46-.22-2.95-.34-4.38-.67-3.31-.77-5,.61-5.62,3.83-1.33,6.47-4.16,8.82-10.51,8.84-13,0-25.92,0-38.88,0a11.42,11.42,0,0,1-7.43-2.25c-3-2.3-6.64-4-9.28-6.61-9.06-9.07-20.4-5.59-31-6.1-2.09-.1-2.67,1.58-3.12,3.27-.74,2.8-2,5.27-4.75,6.65-4.72,3.07-10,3.76-15.48,4.7-21.19,3.63-42.46,1-63.68,1.71-11.44.37-22.77-1.6-34.14-2.75-25.13-2.54-49.76-8.15-74.64-12.25-19.1-3.15-38.35-5.23-57.5-8-16.22-2.34-32.48-4.35-48.71-6.61-10.2-1.42-20.31-2.76-29.87-6.8a5.49,5.49,0,0,1-4-2c-2.76-2-5.35-4.11-4.93-8,.27-2.51.81-4.94,4.15-5a2.87,2.87,0,0,1,.37,1.65c-1.54,5.16-1,6.9,3.7,9.26a70.16,70.16,0,0,0,22.9,6.6c17,2.14,33.89,4.5,50.84,6.76,17.77,2.36,35.53,4.82,53.3,7.17,16.64,2.21,33,6,49.57,8.53,16.89,2.59,33.76,5.12,50.78,6.92,19.79,2.09,39.54,1.17,59.3,1.72,9.9.27,19.49-1.89,29.16-3.32,4.21-.62,8.18-2.73,9.71-7.58,1.3-4.14,4.42-6,8.74-6.12,5.64-.16,11.3.31,16.94-.65,2.5-.43,4.86.77,7,2.23,4.53,3.1,9,6.26,13.41,9.55a18.42,18.42,0,0,0,11.56,3.87c11.49-.06,23,0,34.47,0,6.1,0,7.38-1.17,8.78-7.21,1-4.17,3.06-5.86,7.48-5.62a56.49,56.49,0,0,1,9.37,1.29,17.83,17.83,0,0,0,12.1-1.46c12-4.66,22.05-11.69,29.83-22.12,2.75-3.69,3.46-6.85,1.45-10.86-1.1-2.2-2.5-4.3-2.9-6.82A3.08,3.08,0,0,1,494.61,75Z"/><path class="cls-1" d="M494.61,75v3c-3.29-.28-3.05-3.88-5.07-5.36a116.23,116.23,0,0,1-10-20.13c-1.89-6.47-4.09-12.76-9.48-17.3-.4-.19-.79-.41-1.19-.61-3-1.4-6.35-1.81-9.55-2.67a7.33,7.33,0,0,1-1.29-.46,10.36,10.36,0,0,0-5.4-1.22,22.72,22.72,0,0,1-7.76-2c-4.35-2.7-9.43-2.11-14.11-2.54-5.93-.54-11.9-1.2-17.88-1.36-8.3-.23-16.59,0-24.92-.72-11.9-1.09-23.86.37-35.74,1.68a8.84,8.84,0,0,1-1.57.62,29.72,29.72,0,0,1-3.4.71c-8,1.7-11.11-.53-12-8.56-.38-3.41-1.14-6.6-5-7.74A28.11,28.11,0,0,1,324,7.88C302.6,3.61,281,6,259.44,5.51c-5.11-.12-10.29-.69-15.37.56-8.73,2.33-17.79,2-26.67,3.19-18,2.36-35.77,5.55-53.54,9-18.11,3.52-36.38,5.89-54.66,8.21-10.37,1.32-20.68,3.19-31.12,4a7.91,7.91,0,0,1-4.13-.9c-1.14-1.8.35-2.11,1.48-2.49,1.36-.46,2.85-.28,4.24-.63A9.37,9.37,0,0,1,81.16,26c4.47-.11,8.85-1.1,13.3-1.51a13.8,13.8,0,0,1,1.4-.38c2.1-.41,4.29-.07,6.36-.8a10.28,10.28,0,0,1,1.43-.35c4.52-.17,8.94-1.06,13.41-1.66A11.66,11.66,0,0,1,118.6,21a140.78,140.78,0,0,0,14.45-1.93c14.61-2.12,29.12-4.75,43.61-7.52,14-2.67,28-5.19,42-7.17,7.85-1.1,15.81-1.49,23.71-2.28,19.59-2,39.25-1,58.88-1,9.29,0,18.44,2.05,27.48,4.06,6.7,1.49,9.72,5.72,9.78,12.51,0,3.81,1.44,5.33,5.31,5.43,3.32.08,6.09-1.81,9.18-2,19.71-1,39.42-2.1,59.16-.3,5.6.51,11.27.94,16.87,1,8.94.14,17.43,2.23,25.83,4.72,4.12,1.22,8.18,2.64,12.39,3.59a13.5,13.5,0,0,1,9.79,7.73c4.77,10.07,9.82,20,14.52,30.12C492.57,70.39,494.26,72.42,494.61,75Z"/><path class="cls-1" d="M491.59,68.05c-4.67-4.95-6.39-11.54-9.55-17.33-2.14-3.93-3.88-8.09-5.66-12.2a12.23,12.23,0,0,0-9-7.29c-10.49-2.3-20.42-6.71-31.21-7.89-4.94-.54-9.9-.58-14.85-1.08a325.86,325.86,0,0,0-51.8-.9c-7.29.43-14.8-.21-22.16,2.32-7.12,2.45-9.35.13-9.8-7.6-.32-5.45-5.81-9.9-12.36-11.1C302.17.75,278.85,1.47,255.67,2.3c-20.77.75-41.46,3.6-62,7.07-18.74,3.16-37.27,7.54-56.17,9.72-1.64.19-3.24.62-4.86.94-2.16,1-4.42.33-6.64.4a.92.92,0,0,1-.36-1.4h1c1.5-1.18,3.52.23,5-1h2c2.2-1.3,4.81.36,7-1h1c1.5-1.18,3.52.24,5-1l38-7c1.85-1.25,4.16.3,6-1h1c1.5-1.18,3.52.24,5-1h1c1.5-1.18,3.52.24,5-1h1c1.5-1.18,3.52.24,5-1h1c1.5-1.18,3.51.23,5-1h2c2.54-1.33,5.47.39,8-1h2c2.89-1.31,6.12.37,9-1h2c2.89-1.31,6.12.37,9-1h1c1.22-.78,2.58-.47,3.88-.47q27.61,0,55.24,0c1.3,0,2.67-.31,3.88.47a8.28,8.28,0,0,0,5,1c2.54,1.38,5.46-.33,8,1,2.78,2,6.45.47,9.37,2.6,3.64,2.65,6.71,5.25,6.68,10.3,0,5.91,2.14,8.08,7.54,5.79,7.86-3.32,15.89-2.11,23.8-2.52,11.78-.61,23.62-.47,35.42-.09,21.72.69,43.15,3.36,63.72,10.91a11.23,11.23,0,0,1,6.7,5.55C481.45,44.79,486,54,490.7,63.22A9.25,9.25,0,0,1,491.59,68.05Z"/><path class="cls-1" d="M10.6,99c5.53.43,10.3,3.54,15.83,4.21,11.64,1.4,23.24,3.18,34.85,4.79,16.36,2.27,32.71,4.7,49.1,6.72s32.45,4.16,48.55,7.2c18.83,3.56,37.74,6.78,56.66,9.82,7.5,1.2,15.13,1.56,22.71,2.25,21.42,1.93,42.9.88,64.35.91,10.93,0,21.74-1.56,32-5.9-2.49,3.34-6.3,4.36-10,4.9-25.94,3.81-52.1,2.54-78.11,1.77-21.4-.64-42.64-4.38-63.8-8.27-21.58-4-43.15-8.14-65-10.57-21.32-2.36-42.51-5.88-63.77-8.74-13.08-1.76-26.38-2.23-39-6.85C13.38,100.71,11.69,100.47,10.6,99Z"/><path class="cls-1" d="M125.6,19v1c-2.06,3.09-5.58.33-8,2h0c-5,.82-10,1.13-15,2h0c-2.2,1.3-4.81-.34-7,1h0c-5,.82-10,1.13-15,2h0C73,28,65.68,30.3,58.05,30.87c-10.89,1.29-21.78,2.6-32.57,4.55A47.33,47.33,0,0,0,8.21,41.65C3.27,44.81,3,47.14,6.7,51.6c.86,1,2,1.92.91,3.43-8-2.65-9.46-8.54-3.38-14.06,6.28-5.7,14.35-7.55,22.31-8.83,18.39-2.95,36.83-5.73,55.33-7.85C96.46,22.62,110.91,19.78,125.6,19Z"/><path class="cls-1" d="M7.61,55A3.11,3.11,0,0,0,6.43,53C1,48.12,1.2,44.56,7.51,40.55A48.24,48.24,0,0,1,27.12,33.8C37.26,32.42,47.3,30.11,57.61,30c.08.26.15.53.23.79A2.72,2.72,0,0,1,56.69,32c-9.36,2.36-19,2.75-28.5,4.35a64.28,64.28,0,0,0-18,5.75c-2.13,1.06-4.83,2.32-4.37,5.42.43,2.93,3,3.6,5.48,4.36,4.08,1.27,8.25.72,12.39.85,2.33.07,4.68-.19,7,.35,1.74.42,3.84.71,4.25,2.89.36,1.88-1.1,3-2.46,4-1.07.78-2.2,1.51-3.24,2.33-3.74,3-3.9,5.73-.68,9.24,2,2.15,4.64,3.18,7.09,4.57,1.89,1.08,4.09,2.23,3.41,4.87s-3.35,2.38-5.42,2.35c-8.66-.1-17.26.2-25.72,2.3A2.45,2.45,0,0,1,5.61,85V84C10,79.31,16,81,21.39,80.08c3.06-.52,6.29.42,9.68-.9-.87-2-2.66-2.85-4.08-4.05-5.29-4.48-5.89-9.25-1.32-14.53C28,58,27,57.12,24.3,56.52a21.39,21.39,0,0,1-3.92-.22c-3.58-.59-7.29,0-10.78-1.28C8.94,55,8.27,55,7.61,55Z"/><path class="cls-1" d="M24.6,56c1.16,0,2.33,0,3.49,0,.8,0,1.92-.07,2,1a3.39,3.39,0,0,1-1.11,2c-7.76,7.8-7.21,11.93,2.43,17.84,1.13.69,2.82,1.32,2.47,2.75C33.4,81.52,31.43,81,30,81c-6.11.34-12.26-.62-18.37.86a32.57,32.57,0,0,0-6,2.15c-4.53,3.92-4.35,6.21,1,13A7.41,7.41,0,0,1,.7,89.42c0-3.9,2.52-6.57,6-7.82,5.81-2.09,12-2.4,18.08-2.58,1.09,0,2.57.54,3.16-.76.67-1.5-1-1.78-1.79-2.48-5.26-4.46-6-9.19-1.93-14.74,1.07-1.47,1.28-2.56.39-4-.35-.22-.47-.45-.35-.67S24.49,56,24.6,56Z"/><path class="cls-1" d="M449.6,122c8.06.6,15.82-.21,22.77-4.87a6.43,6.43,0,0,1,4.24-1.13C468.42,121.69,459.79,125.38,449.6,122Z"/><path class="cls-1" d="M496.6,99c0-2.28,2.16-3.2,3-5a10.1,10.1,0,0,0-.2-9.48c-.9-1.75-2-3.44-1.8-5.55C503.73,87.8,503.44,93.59,496.6,99Z"/><path class="cls-1" d="M24.6,56v1c-4-.51-8.15,1.08-12-1a14,14,0,0,1,8,0Z"/><path class="cls-1" d="M20.61,56h-8c-1.1,0-2.27.17-3-1C13.25,55.54,17.1,53.93,20.61,56Z"/><path class="cls-1" d="M140.6,17c-2.11,1.92-4.68.61-7,1C135.71,16.13,138.28,17.42,140.6,17Z"/><path class="cls-1" d="M190.6,8c-1.75,1.81-4,.68-6,1C186.36,7.23,188.6,8.36,190.6,8Z"/><path class="cls-1" d="M146.6,16c-1.4,1.67-3.32.76-5,1C143,15.38,144.92,16.28,146.6,16Z"/><path class="cls-1" d="M131.6,18c-1.4,1.66-3.32.76-5,1C128,17.38,129.92,18.28,131.6,18Z"/><path class="cls-1" d="M5.61,85.05C14.88,82,24.47,82,34.08,82c1.48,0,3.72.93,4.22-1.37.45-2.11-1.74-2.55-3.13-3.3-2.77-1.49-5.71-2.61-7.89-5.08-3.81-4.32-3.37-7.72,1.28-11.26,2-1.51,6.16-2.28,5.24-5C32.93,53.4,29,54.11,26.16,54c-5.28-.15-10.6.52-15.83-1-3.12-.89-5.83-2.41-6.28-5.64-.41-2.94,2.11-4.58,4.49-6,7.44-4.32,15.68-6,24-7.22s16.68-2.15,25-3.21c1.56-1.46,3.7-.7,5.44-1.45,3.52-.18,7-1.88,10.56-.55h4c-.31,2.71-2.57,2.08-4.18,2.34-14.55,2.38-29.24,3.78-43.8,6a61.06,61.06,0,0,0-19.3,6.32C7.88,45,6,46.63,8.79,49.41l1.29.7c1.57.88,3.35.6,5,.9a8.38,8.38,0,0,1,1.56.35c6.07.69,12.16,0,18.23.39,2,.13,4.09.48,5,2.58s-.7,3.35-1.91,4.69A20.72,20.72,0,0,1,32,62.6c-3.52,1.17-5.49,3-3.08,6.88.29.35.56.72.82,1.09,2,2.94,5.33,3.66,8.22,5.15,2.49,1.51,6.31,2.66,5.49,6.11s-4.83,3.4-7.94,3.52c-7.26.27-14.54-.26-21.79.3a3.09,3.09,0,0,1-.46.14c-2.2.48-5,.51-5.69,3-.79,2.86,2.43,3.37,3.9,4.91,8.89,4.09,18.4,5.68,28,6.81,13.68,1.61,27.32,3.51,41,5.36,16.11,2.18,32.2,4.58,48.33,6.55,17.32,2.12,34.38,5.73,51.56,8.61,18.49,3.11,37,5.9,55.64,7.9,23.28,2.49,46.51,1.45,69.76,1.34a80.07,80.07,0,0,0,21-3.37c3.45-1,5.89-2.88,7-6.41,1.59-5,5.26-6.86,10.32-6.92,5.64-.06,11.3.49,16.92-.69,2.57-.54,4.86.61,7,2.13,6.06,4.35,12.33,8.4,18.42,12.72a30.18,30.18,0,0,0,3.13,1.4c13.37.93,26.75.38,40.12.27a9.73,9.73,0,0,0,5-4.1c1-1.53.53-3.33.95-5a4.57,4.57,0,0,1,3.21-3.38,32.67,32.67,0,0,1,7.46-.27c2.57.47,5.15.94,7.75,1.29,2.09.63,4.19,1,6.32.12a11.55,11.55,0,0,1,4.28-1.08,2.73,2.73,0,0,1,2,1c-6.13,5.21-13,2.5-19.54,1.55-7.43-1.09-7.8-1.1-9.61,6.24C436.5,129.61,434,132,430,132c-13.33.09-26.66.13-40,0-5.93-.07-9.7-4.76-14.31-7.56-3-1.8-5.57-4.18-8.44-6.15a9.33,9.33,0,0,0-7.93-1.71c-5.06,1.2-10.28.36-15.43.46-3.59.08-6.26,1.42-7.1,5-1.38,5.9-6.15,7.89-11,8.86-24.34,4.91-49.07,3.9-73.56,2.76a409.4,409.4,0,0,1-60-7.34c-21.89-4.32-44-7.76-66-11.07-18.64-2.79-37.42-4.56-56.07-7.31-15.86-2.34-31.9-3.5-47.59-7a48.65,48.65,0,0,1-14-5C3.06,92.77,2.43,90.06,5.61,85.05Z"/><path class="cls-1" d="M466.61,118h-2c0-2.64,2.31-3.12,4-3.72,10-3.66,17.05-11.15,24.08-18.62,2.23-2.38,4.76-4.86,3-8.7-1.39-3.2-3.12-6.23-4.55-9.4-.8-1.76-2.08-3.55-.45-5.53,1.34,2,2.68,4,4,6,7.79,15,5.65,12.56-3.81,24.25C484.46,110.1,475.92,114.7,466.61,118Z"/><path class="cls-1" d="M9.6,51c-2.27-.28-3.72-1.53-3.91-3.81s1.57-3.48,3.4-4.43C17.74,38.33,27,36.23,36.63,35c13.68-1.8,27.48-2.82,41-5.93,9.33-1.17,18.66-2.31,28-3.51C117,24.06,128.52,22.72,139.93,21c9.78-1.5,19.47-3.65,29.24-5.25C188.7,12.55,208,8,227.89,7,233.15,6.69,238.36,5.7,243.6,5a4.51,4.51,0,0,1,2.88-.48c20.55,0,41.1-.19,61.64.11,5.83.09,11.56,2.13,17.47,2.39,1.4,1.33,3.24,1.56,5,2a11,11,0,0,1,5.52,9.76c.19,6.38,2.54,8.38,8.9,7.72a33.92,33.92,0,0,0,5.59-1.5c5.82-2.78,12-1,18-1.47a1.52,1.52,0,0,1,1.39.84,2.75,2.75,0,0,1,0,1.68c-1.19,2-3.13,2.17-5.16,2.14-1.6,0-3.08-.77-4.68-.8-2.33-.06-4.68-.32-6.83.93-7.69,3.76-15.82,1.66-23.78,1.72-.79,0-1.84-.51-1.85-1.34,0-2,1.88-2.49,3.1-3.49,4.21-9.48.26-13.9-9.69-14.84-3-.08-6.05.28-8.86-1.19-2.12-1.18-4.43-.69-6.68-.78H250.88c-.59,0-1.19,0-1.78,0a15.72,15.72,0,0,0-5.9.63,537.31,537.31,0,0,0-68,9.65C144.3,25,113,28.13,81.79,32.6c-18.39,2.64-36.9,4.46-55.2,7.76a75.17,75.17,0,0,0-13.29,4.2c-1.85.71-4.46,1.54-2.57,4.59C11,50.19,10.45,50.7,9.6,51Z"/><path class="cls-1" d="M490.58,72.06c.47,5.61,4.94,9.61,6,15,.75,1.14.57,1.94-.84,2.29-4.82-3.79-6.29-9.64-8.65-14.81C481.94,63.16,476,52.18,470.62,41A6.21,6.21,0,0,0,465.38,37c-7.64-.94-14.43-4.65-21.7-6.82-.71-1.31.2-1.75,1.17-2.15l.74,0,8,1c1.58.89,3.4,1.16,5,2h0c3.59,1.28,7.4,1.76,11,3h0c6.21,4.44,7.62,11.82,11,18A119,119,0,0,0,490.58,72.06Z"/><path class="cls-1" d="M369.6,24c-6.34.14-12.73-.54-19,1A5.89,5.89,0,0,1,355,23c20.73-1.59,41.45-.11,62.17.12a182.05,182.05,0,0,1,22.2,2c2.13.28,5.23-.4,6.23,2.83v0c-5.14,1.72-10.12-.6-15.13-1-11.08-.79-22.13-1.87-33.26-1.68-7.15.12-14.3,0-21.45,0C373.62,25.42,371.39,25.67,369.6,24Z"/><path class="cls-1" d="M350.6,25c-2.94,2.42-6.46,2.19-9.87,1.91-2.94-.24-5.15-2.19-5-5.12a16.21,16.21,0,0,0-5.14-12.78c4.59,1,5.57,4.69,6,8.51.83,8.17,2.57,9.51,10.64,7.76A27.35,27.35,0,0,1,350.6,25Z"/><path class="cls-1" d="M480.6,52c-4.21-5.67-5.76-13-11-18a5.27,5.27,0,0,1,4.52,3.34C476.41,42.21,479.93,46.51,480.6,52Z"/><path class="cls-1" d="M73.6,29l-11,1a5.87,5.87,0,0,1-5,0h0a99.1,99.1,0,0,1,23-3C78.73,29.3,75.48,26.78,73.6,29Z"/><path class="cls-1" d="M80.6,27c4.86-1.75,9.9-2.06,15-2C90.75,26.79,85.7,27.1,80.6,27Z"/><path class="cls-1" d="M102.6,24c4.86-1.75,9.9-2.06,15-2C112.75,23.79,107.7,24.1,102.6,24Z"/><path class="cls-1" d="M117.6,22c2.3-2.13,5.66,0,8-2h7C127.75,21.79,122.7,22.1,117.6,22Z"/><path class="cls-1" d="M469.6,34c-3.86-.3-7.64-.87-11-3C462.46,31.33,466.25,31.9,469.6,34Z"/><path class="cls-1" d="M95.6,25c2.11-1.91,4.67-.62,7-1C100.5,26,97.93,24.66,95.6,25Z"/><path class="cls-1" d="M458.6,31a5.86,5.86,0,0,1-5-2A5.75,5.75,0,0,1,458.6,31Z"/><path class="cls-1" d="M57.61,30.05h5c-1.41,1.65-3.32.76-5,1C57.6,30.71,57.61,30.38,57.61,30.05Z"/><path class="cls-1" d="M386.59,129.05c-5.72-2.63-10.46-6.77-15.58-10.28-4.2-2.89-7.77-5.47-13.55-4-4.53,1.17-9.6.26-14.43.27-3.22,0-6.49.86-7.2,4.17-1.93,9-9.18,9.57-16,10.78-20.46,3.62-41.14,2.15-61.7,1.86C238,131.58,217.89,129,198,125.7c-23.16-3.83-46.11-8.83-69.43-11.76-21-2.64-41.87-6-62.85-8.77-14.42-1.88-29-3-43.17-6.21-4.45-1-9.11-1.93-12.89-4.9a3.54,3.54,0,0,1,3-1.57c24.77,7.61,50.65,8.38,76,12.31,24.59,3.8,49.41,6,73.84,10.86,2.36.08,4.55,1,6.87,1.32,19.15,3,38.15,6.76,57.45,9,21.35,2.46,42.69,2.88,64.1,2.68a12.23,12.23,0,0,0,4.42-.56,15,15,0,0,1,5.41-.37c8.15,1,15.81-2.73,23.94-2.33,2.51.12,5-1.5,6.85-3.55a5.39,5.39,0,0,0,.63-1.86c1-8.31,1-8.23,9.61-8.36,5.58-.09,11.19.58,16.74-.5,1.58-.4,3.21-.4,4.81-.65,4.18.16,6.74,3.35,9.74,5.51,5.44,3.92,11.72,6.79,15.9,12.34C388.47,129.63,387.67,129.78,386.59,129.05Z"/><path class="cls-1" d="M495.65,89a2.11,2.11,0,0,0,1-2c2.82,4.29-.7,6.82-2.94,9.33-7.3,8.18-15.15,15.73-25.77,19.59a17.27,17.27,0,0,0-3.3,2.09l-4,1a8.18,8.18,0,0,1-6,0,21,21,0,0,1-8-1,13.15,13.15,0,0,0-8,0,3,3,0,0,0-2,3c-1.22,1.49.18,3.5-1,5a10.37,10.37,0,0,1-4,4c-5.45,1-10.95.25-16.42.44-1.08-.32-1.14-1.14-1-2.06,3.23-3.12,7.26-1.49,10.92-1.64,7-.29,7-.1,7.18-7.18.14-6.68,1.27-7.74,7.7-6.73,4.6.72,9.28,1.07,13.79,2.08s8-.21,11.94-1.84c11.62-4.79,20.56-12.7,28-22.54A4.23,4.23,0,0,1,495.65,89Z"/><path class="cls-1" d="M11.6,93.07a2.1,2.1,0,0,1-2,1c-1.31-1.7-4.68-2.29-3.69-5.17S9.38,84.62,12.58,85c7.52-1.07,15.09-.24,22.63-.45a17.77,17.77,0,0,0,6.27-1c3.29-1.32,3.48-2.38.77-4.69-1.67-1.42-3.71-2.06-5.67-2.88-3.15-.92-6.3-1.86-8-5.07a4.3,4.3,0,0,1,1.31-.68c6.32,1.88,12.5,4.1,18,7.93,1.42,3.42,2.4,6.75-1.93,9-9.18.59-18.36.12-27.52.27a21.48,21.48,0,0,0-4.78.53C8.66,88.86,8.66,88.84,11.6,93.07Z"/><path class="cls-1" d="M36.6,76c3.78.62,8.79,1.45,8.47,5.68-.27,3.68-5.42,3.19-8.72,3.26-7.92.16-15.84,0-23.75,0,4.91-2.18,10.07-.51,15.1-1,3.94-.37,8,.59,11.84-.56,1.2-.35,3.07-.22,3.33-1.72s-1.45-2.43-2.58-3.32S37.83,76.84,36.6,76Z"/><path class="cls-1" d="M414.6,130h17c-.82,1.07-2,1-3.16,1H391.76c-1.16,0-2.34.07-3.16-1a5,5,0,0,1,3.49-1.36c5.63-.12,11.26-.05,16.89,0C411,128.65,413,128.54,414.6,130Z"/><path class="cls-1" d="M36.59,59C37,57.32,40,56.6,38.92,54.61c-1-1.83-3.42-1.45-5.39-1.61-6-.48-12.06,1.24-17.93-1,2.07-2,4.7-1.34,7.12-1.37,4.83-.07,9.66-.12,14.48,0a8.34,8.34,0,0,1,1.72.28c2.11.85,4.21,1.74,4.28,4.53a4.06,4.06,0,0,1-1.13,2.08C40.43,58.8,38.91,60.46,36.59,59Z"/><path class="cls-1" d="M38.61,52h-24c-1.49-1.23-3.5.17-5-1h0l1-1A2.67,2.67,0,0,1,12.76,49c8.41,1.47,17-.3,25.38,1.49A1.16,1.16,0,0,1,38.61,52Z"/><path class="cls-1" d="M36.59,59l5-2a1.53,1.53,0,0,1,1.25,1.62c-3,2.93-6.38,4.71-10.72,3.91L31.6,62C32.89,60.41,34.93,60.05,36.59,59Z"/><path class="cls-1" d="M28.61,70.05c-3-.63-2.12-3-1.8-4.75.45-2.41,2.34-3.42,4.79-3.26h0a1.23,1.23,0,0,1,.3,1.21A17.61,17.61,0,0,0,28.61,70.05Z"/><path class="cls-1" d="M28.61,70.05c-1.66-3.47.27-5.42,3-7a1.93,1.93,0,0,1,.56,1.13C31.81,66,30.87,67.72,31,69.68c-.19.73-.87.9-1.39,1.25l-1,0Z"/><path class="cls-1" d="M438.59,118a7.56,7.56,0,0,1,8,0C443.94,118,441.26,118,438.59,118Z"/><path class="cls-1" d="M391.6,130h-3a2.15,2.15,0,0,1-2-1,2.13,2.13,0,0,0,2-1,2.29,2.29,0,0,1,3-.3A1.7,1.7,0,0,1,391.6,130Z"/><path class="cls-1" d="M454.6,119h6A4.54,4.54,0,0,1,454.6,119Z"/><path class="cls-1" d="M9.6,51c1.69.24,3.6-.67,5,1C12.92,51.81,11,52.69,9.6,51Z"/><path class="cls-1" d="M435.61,126c.23-1.69-.65-3.6,1-5C436.37,122.72,437.27,124.63,435.61,126Z"/><path class="cls-1" d="M38.61,51.06c-9.34-.15-18.7.38-28-1-4.82-2.71-4.91-2.87-.15-5.48,8.57-4.69,18.06-6.24,27.58-7.5q20.63-2.74,41.25-5.4c11.78-1.54,23.57-3,35.35-4.63,14.72-2,29.46-3.85,44.09-6.52,19.53-3.56,39.06-7.2,58.67-10.3C226,8.83,234.86,8.7,243.6,8c1.52-1.12,3.51.23,5-1l1,0c.69,1.11,3.08-.49,3,1.87-4.31,2.74-9.35,1.87-14,2.23-16.53,1.29-32.87,3.8-49.18,6.6-2,.34-3.94.54-5.87,1-2.84.69-5.82.62-8.88,1.52,3.67,1.21,6.93,2.84,10.49,3.67a107.06,107.06,0,0,0,40,3,70.19,70.19,0,0,1,14.42-.12,2,2,0,0,1,0,2.5c-2.68,1.6-5.82,1.69-8.68,1.81-9.75.4-19.53,2.12-29.29,0a18,18,0,0,0-5.6-.84,25.62,25.62,0,0,1-3.15-.2,8.85,8.85,0,0,1-1.53-.32c-3-.8-6-1.74-9.08-2.49-12-6-24.35-4.08-36.92-1.9C119,30,92.43,32.75,66,36.46c-14,2-28,3.35-41.86,5.94a76.33,76.33,0,0,0-11.76,4.33c4.47,1.71,8.32.82,12.09.93,3,.14,6-.18,9,.37,4.11,1.54,8.59-.26,12.68,1.41a1.42,1.42,0,0,1,.7,1.48A3,3,0,0,1,45.49,52,9.27,9.27,0,0,1,38.61,51.06Z"/><path class="cls-1" d="M332.6,26c-1.29.9-3.07,1-4.43,3.17,8.79-1,17.3,1.78,25.39-2.17,2.21-1.23,4.8.3,7-.94l4,.95a1,1,0,0,1-.27,1.46c-3.1,1.62-6.5.52-9.71,1.06-4.07,2-6.95,5.52-10.4,8.31-1.69,1.37-1.29,3.21-.83,5.05,3.49,14,7.1,28,10.44,42,.52,2.18,1.4,3.68,3.9,3.66s3.56-1.57,4-3.68a36.07,36.07,0,0,1,5.94-13.57c3-4.19,7.26-4.74,11.37-1.52a2.2,2.2,0,0,1-.33,1.46c-.13.1-.26.2-.4.29-2.44,1.59-5.93-.1-8,3.07-3.38,5.14-4.94,10.92-5.86,16.74-.52,3.32,2.8,5.65,5.72,6.78,10.15,3.92,20.16,8.82,31.64,5.75,2.05-.55,4.29-.16,6.45-.18,7,0,7.88-.9,8.11-8.11,3.08-.89,4-.34,4,2.69,0,1.86-1.21,4,1.52,5,2,1,4.86,1.49,3.81,4.92-1,2.1-2.46,3.9-3.27,6.08a10.12,10.12,0,0,1-2.16,3.62,28.4,28.4,0,0,1-6,4.26c-9.15,5.54-17.78,1.56-26.43-1.49a6,6,0,0,1-3.27-3.53c-.72-1.83-1.69-3.57-2.38-5.4-1.62-4.33-4.38-7.09-9-8.12a21.82,21.82,0,0,1-9.84-5.4c-2.62-1-1.71-5.73-5.64-5.41-2.93-.24-5.61-.91-6.93-4-4.31-15.5-8-31.15-11.91-46.75-.55-2.19-.46-4.3,1.29-6,1.24-1.5,3.53-2.09,3.74-4.42-8.08,0-16.09-1.11-24.11,1.23a15.72,15.72,0,0,1-13.16-2.39,1.76,1.76,0,0,1-.08-1.55c3.12-1.72,6.23.1,9.34,0,3.7,1,6.58-1.42,9.79-2.43,2-.63,3.73-2.09,6-2C332.32,24.73,332.94,25.05,332.6,26Z"/><path class="cls-1" d="M369.6,24c25.39.17,50.87-1.24,76,4a2.13,2.13,0,0,1-2,1c-1.52,1.45-3.32,1.27-5.15.92a284.31,284.31,0,0,0-30.16-2.51c-7.79-.17-15.58.32-23.36-.28-3-1.07-6.15-.64-9.25-.74-2.11-.07-4.3.23-6.06-1.38C369.61,24.71,369.6,24.38,369.6,24Z"/><path class="cls-1" d="M252.62,8.05c-1.08-.05-2.25.18-3-1h56.9c.37,1.51-.58,2.22-1.71,2.82a56.48,56.48,0,0,1-15.42.16c-8.26-1.32-16.59-.3-24.87-.6-2.82-.1-5.65,0-8.48-.06A4.7,4.7,0,0,1,252.62,8.05Z"/><path class="cls-1" d="M332.6,26l-1-1c-1.33-1.26-1.28-2.92-1.37-4.56-.31-5.62-2.33-7.58-8.05-8.06-2.88-.24-5.93.72-8.58-1.21-.4-2,1.1-1.54,2.14-1.66,1.93-.23,3.94.48,5.81-.48C333.91,11.26,335.3,14.36,332.6,26Z"/><path class="cls-1" d="M364.61,28c0-.31,0-.62,0-.94a8.24,8.24,0,0,0,5-1c1-.4,1.22.23,1.33,1-1.16,2.76-3.26,4.87-5,7.24-2.35,3.23-2.6,6.25.53,9.11,2.8.59,5.65,0,8.43.4,1.54.21,3.89-.3,3.56,2.62-4.54,1.9-9.21,1-13.85.69-4.2-3.21-5.27-7.24-3.43-12.8C362,32,364.73,30.77,364.61,28Z"/><path class="cls-1" d="M321.56,9.08c-2.26,2.31-5.71-.38-8,1.9.51,2.77.9,5.53-.8,8.09-2.65.1-2.07-2.06-2.48-3.53a25.49,25.49,0,0,1,0-3.27,9.27,9.27,0,0,1,.48-3.18c.38-.74.85-1.36,1.83-1.07C315.42,9.79,318.57,8.77,321.56,9.08Z"/><path class="cls-1" d="M370.57,27l-1-1c0-.32,0-.64,0-1,5,.53,10.13-1.14,15,.95-3.89,2.74-8.36.73-12.49,1.56A2.27,2.27,0,0,1,370.57,27Z"/><path class="cls-1" d="M312.6,8l-1.05,1.07a4.73,4.73,0,0,1-5.4.51l-.57-.6,1-1.92C308.58,7.33,310.81,6.25,312.6,8Z"/><path class="cls-1" d="M360.57,26.09c-2.13,1.84-4.68.58-7,.94C355.68,25.16,358.23,26.39,360.57,26.09Z"/><path class="cls-1" d="M438.6,29h5c7.64,1.8,14.55,6.1,22.46,6.78,3.27.28,4.52,2,5.75,4.5Q483.64,64.72,495.65,89c-4.19,8.38-11.07,14.36-18.48,19.58-4.29,3-9.45,4.81-14.17,7.24a10.79,10.79,0,0,1-7.21.81c-6.17-1.06-12.41-1.69-18.58-2.77-2.68-.47-3.48.27-3.67,2.92-.81,11.21-.88,11.2-12,11.21l-7,0a57.05,57.05,0,0,1-23,0h-3c-6.95-4.8-13.89-9.62-20.85-14.39-1.36-.93-2.81-1.72-4.22-2.57-2.25.28-3.47-1.53-5.11-2.52-3.49-4.41-3.46-5.8.19-8.73,1.24,1.07,1.11,2.64,1.46,4,3.05,4.5,8.13,6.48,12.17,9.74,2.54,2,5.47,3.59,8,5.64,3.25,2.21,6.33,4.69,10.08,6.09,9.59.63,19.18.1,28.76.26,1.95,0,3.9-.12,5.85,0,1.93-.19,4.11.72,5.67-1.22,1.13-2.71.41-5.55.61-8.32.18-2.42.44-4.69,3.43-5.2a175.92,175.92,0,0,1,17.69,2.51,23.65,23.65,0,0,0,13.52-1.88,56.49,56.49,0,0,0,23.84-18.68C483.57,91.67,477.79,93,473,92a4.9,4.9,0,0,1,3.6,1.61c.65,1.1.1,1.87-.7,2.58-2.37.72-4.32-.59-6.4-1.29-1.47-.78-3.5-.66-4.26-2.62-.18-1.43,0-2.71,1.6-3.25,6.45-1,12.95-.13,19.41-.42,1.76-.06,3.53.35,5.63-.11,0-2.38-2.08-3.87-2.56-6-5.94-13.6-12.69-26.81-19.38-40-1-3.26-3.63-4-6.66-4.68s-3.32.58-3.06,2.89a7.23,7.23,0,0,1-2,2.86,96.84,96.84,0,0,0-9.77,8.67,10.19,10.19,0,0,1-1.11.85c-3.08,1.75-4.52,4.53-5.21,7.9-.31,1.51-.1,3.37-1.91,4.25-1.12-.28-1.47-1.21-1.84-2.13-.5-1.27-1-2.54-2.78-2.13-1.3.3-1.76,1.42-2.06,2.55-.89,3.4-.36,6.9-.61,10.34-.14,2,.57,4.45-2.28,5.32a6.12,6.12,0,0,1-1.94-3.35,18.39,18.39,0,0,1,.13-7.85,18.06,18.06,0,0,0,.2-5.91c-.15-1-.44-2.11-1.67-2.1S426,61.19,426,62.17a77.44,77.44,0,0,1-.09,7.92c-.19,1.61.27,3.87-2.49,4-2.05-2.68-.54-6-1.75-8.89-.28-2.78-1.06-5.56-.14-8.37,1.89-1.5,4.14-1,6.28-1.14,8,1.78,13.93-1.94,19.22-7.38a46.54,46.54,0,0,1,5.48-5c1.59-1.17,3.55-2.23,2.88-4.67a6.72,6.72,0,0,0-4.67-4.7c-3.75-1.31-7.84-1.3-11.47-3a2.38,2.38,0,0,1-.89-1.14C438.43,29.5,438.52,29.27,438.6,29Z"/><path class="cls-1" d="M11.6,93.07C10,91.9,6.87,91.73,7.43,89.13c.53-2.44,3.32-2,5.42-2.18a26.8,26.8,0,0,0,3.78-.87c.54.42,1.31.64,1.32,1.52a1.82,1.82,0,0,1-.83,1.09c-1.6.74-3.42.53-5.55,1.13,4.48,2.39,9,3.27,13.28,4.62,11.73,2.36,23.64,3.45,35.46,5.07,13.63,1.86,27.3,3.57,40.94,5.41,16.27,2.19,32.6,4,48.77,6.82,4.53.8,9.23,1,13.47,3.16.68,1.07,0,1.61-.83,2.09-19.31-3.73-38.85-5.91-58.3-8.73-16.35-2.37-32.82-3.87-49.15-6.33C40.54,99.72,25.46,99.36,11.6,93.07Z"/><path class="cls-1" d="M295.64,129.06c-1.51,1.55-3.46.92-5.21.93-11.82.06-23.7.72-35.46-.13-18.45-1.33-36.94-2.73-55.18-6.22-9.09-1.74-18.25-3.07-27.38-4.62-1.29-.22-2.54-.66-3.81-1a2.56,2.56,0,0,1-.58-2.25c.95-2.32,3.14-2.88,5.19-3.39,5.63-1.42,11-3.52,16.57-5.26,2.36-.63,4.88-.24,7.21-1.11a37.23,37.23,0,0,1,7.68-.38c1.62.35,3.67,0,4.13,2.35-3.11,2.27-6.88,1.83-10.38,2.39-4.38.7-8.82,1-13,2.5-4.21,1.26-8.28,3.15-12.8,3.26,4.24.82,8.58,1.47,12.93,2.12,11.86,1.34,23.45,4.32,35.35,5.42,15,1.39,30,2.91,45,3.34,7.71,1.39,15.48.27,23.21.66C291.34,127.76,293.77,127.15,295.64,129.06Z"/><path class="cls-1" d="M359.54,112c-5.92,2.11-12,.75-18.06,1-7.43.25-7.44.06-7.89,7.4-.06,1-.09,2-1,2.64a2.46,2.46,0,0,1-1.74-1.42,11.5,11.5,0,0,1-.4-1.42c-.7-2.89,1.24-6.81-2.21-8.57-4.59-2.33-9.23-5.31-14.89-3.61a8.27,8.27,0,0,1-4.85-.24c-.75-.48-1.41-1-.8-2,4.58-2.25,9.42-3.8,14.17-1.14,11.16,6.26,23.09,7.08,35.42,5.71a4.07,4.07,0,0,1,1.94.31A.9.9,0,0,1,359.54,112Z"/><path class="cls-1" d="M331.67,122.05l.93,1a18.83,18.83,0,0,1-11.74,4.15c-8.41.37-16.68,2.9-25.22,1.89-8.44,0-16.89,0-25.33-.05-1.59,0-3.35.54-4.68-.93,1.86-1.94,4.31-1.5,6.59-1.51,10,0,20,0,30,0,6.89,0,6.89-.1,8.57-6.73a1.91,1.91,0,0,1,1.22-1,1.27,1.27,0,0,1,.45.16c2.05,1.83,1.11,6.47,5.92,5.83,3.06-.41,6.21,0,9.08-1.61A6.47,6.47,0,0,1,331.67,122.05Z"/><path class="cls-1" d="M359.54,112c0-.32,0-.63,0-1a2,2,0,0,1,.11-2.91l3.86,2.94C362.45,112.53,360.91,111.89,359.54,112Z"/><path class="cls-1" d="M168.61,116c0,.69,0,1.38,0,2.07l-5.94-1,1-1A3.5,3.5,0,0,1,168.61,116Z"/><path class="cls-1" d="M391.61,128.06h23v2h-23C391.61,129.38,391.61,128.72,391.61,128.06Z"/><path class="cls-1" d="M47.65,86c-.66-2.31,1.14-4.63,0-6.93,3.19-1.56,5.78,1.32,8.78,1.17,12.15,1.18,24.3,2.42,36.46,3.45,1.78.15,3.71-.16,5,1.64-1.11,2.61-3.5,2.06-5.51,2.1-6.23.12-12.46,0-18.69.06-6.8,0-13.59,0-20.39,0C51.26,87.41,49.17,87.7,47.65,86Z"/><path class="cls-1" d="M47.65,86l25.9.12c-.87,3.32-3.69,2.27-5.74,2.29-13.93.14-27.87.06-41.8.08-2.83-.26-5.86.68-8.38-1.4l-1-1Z"/><path class="cls-1" d="M55.53,81.09c-3,.53-5.2-1.68-7.92-2L29.63,71l1-.92A2.13,2.13,0,0,1,33,69.6c8.59,3.62,17.3,6.94,25.85,10.66C58.14,82.16,56.82,81.55,55.53,81.09Z"/><path class="cls-1" d="M38.61,51.06h7c2.84,1.17,2.94,3.37,2.18,5.88-1.43,1.7-3,2.64-5.16,1.13l-1-1,1-1c1.43-3.15-1.5-3-3-4h-1C38.61,51.71,38.61,51.38,38.61,51.06Z"/><path class="cls-1" d="M39.6,52c2.52.19,5.23.24,3,4C42.81,53.8,40.58,53.39,39.6,52Z"/><path class="cls-1" d="M42.64,58.08a6.56,6.56,0,0,0,5-2c2.23-2.25,5.06-3.05,8.1-3.33,1.6.14,3.38-.05,4.05,2-6.33,2.94-13,5.05-19.47,7.59-2.91.52-5.27,3.71-8.68,1.81,0-.38,0-.77-.07-1.15s0-.64,0-1C35.74,62,39.28,60.28,42.64,58.08Z"/><path class="cls-1" d="M31.66,64.16c3-.08,5.3-2,7.94-3.06a2.61,2.61,0,0,1,.61,2.26c-3.6,5-3.26,5.29,2.48,8.19,10.82,5.46,22.53,6.21,34.21,7,4.63.33,9.18,1.16,13.8,1.5,3.39,1.13,7,.15,10.39.93,1.76.71,3.81.49,5.4,1.73.75,2-.93,2.33-2.13,3a5.38,5.38,0,0,1-1.74.12C90,83.17,77,83.05,64.26,81.51c-1.94-.23-4-.14-5.69-1.43-6.1.19-11-3.41-16.42-5.31-3.9-1.37-7.66-3.15-11.48-4.75C28.74,67.68,30.15,65.91,31.66,64.16Z"/><path class="cls-1" d="M183.56,26.1,191.63,29c1.63,5-1.76,7.11-5.35,9.1-13.16,2.19-26.44,3.52-39.63,5.44-7.68,3.24-16,2.76-24,3.82-12.07,1.6-24.27.33-36.33,1.23-14.63,1.09-29.21.62-43.83.53-5,0-9.86-1.27-14.85-1.17-2,0-3.7-.92-4-3-.4-2.36,1.65-3.22,3.35-3.63a143.62,143.62,0,0,1,16.21-2.63c29.29-3.66,58.53-7.79,87.8-11.57,8.4-1.09,16.79-2.3,25.07-4a34.35,34.35,0,0,1,20.47,1.59C178.68,25.62,180.9,27.32,183.56,26.1Z"/><path class="cls-1" d="M311.55,12c0,1,0,2,0,3-1,1.39-.2,3-.57,4.47-1.31,4.16-5,4.79-8.48,5.7-9.25.5-18.5.11-27.74.24-.56,0-1.14,0-1.7,0a15.1,15.1,0,0,0-5.67.57,28.88,28.88,0,0,1-5.72.4,15.84,15.84,0,0,0-5.72.74c-3.63.08-7.12,1.27-10.76,1.26-2,0-4,.13-5.61-1.33-11,1.52-22,2.73-33.12,1.65C198.8,28,190.92,28,183.59,25c-1.89-2.09-1.87-4.45-1-6.94,8.86-2.53,18-3.41,27.07-4.9A398.09,398.09,0,0,1,250.44,9a7.25,7.25,0,0,0,2.19-.93h3c7.88,1.11,15.8.17,23.7.51,3.44.15,6.92-.55,10.32.45l16,0,0,.09C307.76,9.75,310.2,9.8,311.55,12Z"/><path class="cls-1" d="M183.56,26.1c-1.25,1.44-2.75,1.06-4.1.36-10.54-5.48-21.33-2.87-32.15-1.2-13.22,2-26.46,3.92-39.71,5.77q-25,3.49-50.07,6.85c-8.35,1.12-16.73,2-25.08,3.22-3,.42-7.78.51-7.84,3.62-.07,3.42,4.47,2.13,7.12,2.37a309.07,309.07,0,0,0,51.72.11c7.12-.54,14.32-.09,21.48-.14C116.7,47,128.37,45.53,140,44c2.25-.29,4.42-1.28,6.63-1.94a1.48,1.48,0,0,1,.27,1.43,4,4,0,0,1-2.76,2.56,55.57,55.57,0,0,0-5.57,1.15c-10.38.64-20.67,2.56-31.11,2.26-6.77.31-13.58-.79-20.3.75a442.72,442.72,0,0,1-53.53-1.12l-10.06-.06c-4.58-1.63-5.17-3.47-1-7.88C40.07,38.8,57.6,36.46,75.12,34c18.5-2.56,36.95-5.42,55.48-7.7,11-1.35,21.9-3.34,32.82-5.19a13.63,13.63,0,0,1,6.36.79C174.37,23.31,178.74,25.46,183.56,26.1Z"/><path class="cls-1" d="M316.61,30.07c-3.41.35-6.7-.56-10-1-1.95,1.73-4.36,1.34-6.63,1.34-14.23,0-28.46,0-42.69,0-11.55.55-23,2.28-34.49,3.46-8.21.84-16.37,2.26-24.64,2.48-5.76.51-4.54-4.24-5.51-7.35l3,0c1.53,1.11,3.5-.18,5,.92,13,1.52,26,0,38.93-1.06,6.48-2.32,13.37-1.89,20-2.74a140.51,140.51,0,0,1,16.8-1.47,10.89,10.89,0,0,1,4.44,0c9.9.72,19.79,0,29.69,0C313.33,25.69,316.11,26.58,316.61,30.07Z"/><path class="cls-1" d="M55.56,54c-2.9-.31-5,2.29-7.89,2.09a9.15,9.15,0,0,0-2.05-5c.32,0,.64-.05,1-.05,2.43-1.62,5.17-.88,7.78-.93C60.18,50,66,50,71.82,50.08c1.73,0,3.75-.59,5,1.43C71.63,54.6,66,54.23,60.34,53.93,58.72,53.84,57.15,53.15,55.56,54Z"/><path class="cls-1" d="M33.64,49.08l54-.07c1.61-.82,3.28-.48,4.94-.23a1.86,1.86,0,0,1,.16,2.38c-2,.74-4.13.07-6.19.28-13.26-1.74-26.63-.26-39.9-1.39C42.31,49.48,37.83,51.19,33.64,49.08Z"/><path class="cls-1" d="M22.55,41.14c-1.13,2.82-3.21,5.77,1,7.88-4.52-.22-9.2.87-13.93-1.75C13.38,43.44,18.64,43.64,22.55,41.14Z"/><path class="cls-1" d="M182.56,18c1.67,2.12,0,4.73,1,6.94l-13.13-4.9A36.76,36.76,0,0,1,182.56,18Z"/><path class="cls-1" d="M276.65,25.08c-3.94,2.15-8.36.93-12.54,1.66-8.06,1.4-16.34,1.55-24.52,2.22,0-.63,0-1.26,0-1.89,5.72.57,11.29-1.24,17-1.06,1.52-1.11,3.52.24,5-1l6,0c1.52-1.11,3.52.24,5-1l1,0C274.44,25,275.87,24.07,276.65,25.08Z"/><path class="cls-1" d="M46.62,50.05h41C85,53.11,80.77,53.84,76.53,52c-3.06-1.87-6.42-.78-9.63-.87-6.77-.2-13.54-.08-20.32-.09C46.6,50.69,46.61,50.37,46.62,50.05Z"/><path class="cls-1" d="M192.61,29.06c1.28,1.42,3.94,2.08,1.9,5.08-.71,1,1.36.61,2.13.92-2.32,3.89-5.79,2.22-9,1.86a14.67,14.67,0,0,0,4-7.91C192,29,192.29,29,192.61,29.06Z"/><path class="cls-1" d="M200.65,30c-1.7-.19-3.59.67-5-.92C197.33,29.25,199.2,28.47,200.65,30Z"/><path class="cls-1" d="M359.67,108.17c0,1-.07,1.94-.11,2.91-8,1.94-16.13,1.08-24.14.69-3.49-.17-7.07-2.56-10.23-4.56-5.77-3.65-11.64-2.08-17.57-1.13-1.42,2-3.54,2.32-5.75,2.32-13.8,0-27.63.66-41.38-.19-12.21-.76-24.39-2.41-36.55-4-13-1.68-26-2.85-39-4.77-1.48-.22-3-.14-4.21-1.22-1-1.35.64-1.33,1-2-3.73,1.42-7.08.12-10.35-1.51-1-.51-2.11-1.28-1.86-2.62A2.86,2.86,0,0,1,172.07,90c2.08-.42,4.2-1.34,6.31-.75,2.33.66,4.16-.29,6.09-1.22a135.64,135.64,0,0,1,20.85-.13,85.35,85.35,0,0,0,22.24.1,29.65,29.65,0,0,1,5.57-.38q16.74,0,33.48,0c15.9-.11,31.79,0,47.68,0,5,.81,9.22-1.29,13.34-3.7,3.38-1.22,4.76-3.53,4.66-7.2-.24-8.56.15-17.13-.29-25.69a1.66,1.66,0,0,1,1.12-1.24c3.37.73,3.88,3.44,3.89,6.15,0,7.66.11,15.32-.08,23-.07,3-1.11,5.7-3.6,7.37-5,3.36-10.28,6.26-16.59,6.12-30.29-.65-60.55,1.57-90.84,1-11.62-.2-23.24,0-34.88.46,9.49,2.42,19.16,3.58,28.82,4.64,14.85,1.62,29.66,3.86,44.54,4.73,14.4.85,29,1.71,43.31-1.1a33.69,33.69,0,0,1,22.21,2.89,36.35,36.35,0,0,0,14.39,3.61c8.68.45,10.58-3.22,8-12.79C351.82,94.17,350,93,350,91a2.19,2.19,0,0,1,1.62-2c1.73,2.36,4.52,2.26,7,3,1.84,2.68,2.11,5.37,0,8C356.26,103.13,356.27,105.88,359.67,108.17Z"/><path class="cls-1" d="M351.62,89l-1,1c-2.53-.11-2.65-2.3-3-3.91-2.38-9.84-5.2-19.58-7.22-29.51a13.57,13.57,0,0,0-1.85-7.36,12.44,12.44,0,0,1-1.21-6.09c-.28-2.6.72-5.33-.81-7.8-2.69-1.73-5.7-2-8.77-2a11,11,0,0,0-4.95.69c-1.91.74-3.84,1.36-5.93.86a27,27,0,0,0-5.29-.77,9.37,9.37,0,0,1-1.58-.3c-2.74-.78-5.53-.29-8.3-.39H260.58c-3.1.11-6.22-.42-9.29.4a10.71,10.71,0,0,1-1.59.34c-2.57.36-5.22-.16-7.76.67a9.65,9.65,0,0,1-1.51.32c-2.5.34-5.08-.15-7.54.68a9.65,9.65,0,0,1-1.49.32c-2.24.28-4.55,0-6.74.74a14.83,14.83,0,0,1-3,.41c-2,0-4.1-.09-6.08.65a9.57,9.57,0,0,1-1.58.3c-5.81-.37-11.35,2.12-17.18,1.65-1.34-.51-2.91-.72-3.35-2.45,6.39-2.48,13.22-2.17,19.86-3,14.6-1.87,29.24-3.38,43.89-4.9q22.24,0,44.47,0c1.64,0,3.33-.38,4.92.42,5.36,1.25,10.36,2.45,16.26.8,7.54-2.11,15.69-.76,23.58-.54,1.12,0,.9,1.08.17,1.77-2.71,0-6.27-1-5,4-2.16,1.66-2.14,3.65-1.5,6.18C344.05,57.8,347.8,73.41,351.62,89Z"/><path class="cls-1" d="M416.61,95c2.73,5.37.18,9.9-5.52,10.07-4.12.12-8.21.06-12.36.58-12.56,1.57-23.66-2.78-33.81-9.86-2.36-1.65-2.75-3.86-1.52-6.56,1.7-3.73,2.07-7.87,3.7-11.73C369.45,72,373,70.05,378.62,71a3.12,3.12,0,0,1,3.3.4c8.17,5.07,17.31,8.52,24.74,14.83,3.07,2.89,6.69,5.12,9.65,8.15C416.4,94.6,416.51,94.82,416.61,95Z"/><path class="cls-1" d="M362.55,34c-2.65,4.27-.4,8.12,1.06,12a.77.77,0,0,1-.27,1.25c-4.65-1.18-4.41-5.18-5-8.7-.37-2.18.94-5.19-1.64-6.29s-4.42,1.64-6.45,2.95c-4.06,2.61-5,6.47-4,10.88,2.62,11.32,5.27,22.63,8.45,33.81.49,1.72.65,4,3,4s2.76-2.18,3.35-3.83a36.21,36.21,0,0,1,4.86-9.23c1.19-1.64,2.56-3.53,4.57-3.62,6.92-.3,8.35-4.66,8.27-10.38.74-1.69.2-4,2.33-5,3.33,2.73,1.34,6.55,2,9.82.17,1.8.86,3.51.82,5.35-.08,4.31-1.23,5-5.29,3-5.95-2.1-7.69-1.36-10.72,3.23a33.79,33.79,0,0,0-5.14,13.34c-.59,3.64-2.92,3.31-5.47,3.46-2.95.18-4-1.26-4.67-3.93q-5.2-21.73-10.71-43.39c-.65-2.53-.72-4.35,1.51-6.08,3.52-2.74,6.86-5.71,10.28-8.58a4.68,4.68,0,0,0,3.39.42C361.25,28.05,363,29.89,362.55,34Z"/><path class="cls-1" d="M425.62,127h-6c-4.07-3.34-2.92-6.67,0-10l1.92-3c1.19-1.9,3.21-3.37,3.12-6,1.71-3.44-2.29-2.5-3.08-4-2.93-7.6-2.39-9.29,4.46-14.09a71.65,71.65,0,0,1,16.56.16c.6,3,4.93,5.42,1.37,9-1.6,1.84-3.3,3.66-2,6.42.67,5.53.64,5.56-6.35,6.4-2.92-.22-3,1.66-3.12,3.86-.23,3.41,1,7-.9,10.22-1.75-1.55-.36-3.42-.49-5.13s0-3.41-.21-5.1c-.31-.64-.91.4-.36,0,.28-.18.42-.11.45.21C431.59,123.64,431.28,124.27,425.62,127Z"/><path class="cls-1" d="M379.6,120.05c-7.11-4.84-14.39-9.44-21-15,1-3-.35-7.51,4.9-7.89,2.28,1.32,4,3.77,6.67,4.17,8.73,1.3,12.75,7.27,15.3,14.84C384.37,118.65,382.61,120.29,379.6,120.05Z"/><path class="cls-1" d="M419.55,113c-3.23,7.35-10.24,9.64-16.78,9.25-12.36-.74-15.87-4.31-19.68-15.18h31.54Q420.27,107.39,419.55,113Z"/><path class="cls-1" d="M379.6,120.05l5.93-3.94a3.66,3.66,0,0,0,2.46,3.45c8,1.83,15.66,7.09,24.23,2.14a10.06,10.06,0,0,1,2.36-.68c2.37.63,2.2,2.92,2,4.33-.26,2-2.44,1.16-3.76,1.13-8.09-.17-16.2.59-24.28-.4Z"/><path class="cls-1" d="M316.61,30.07l-5-4.05c-1.24-2.56-.5-4.84,1-7,.45-2.66-.92-5.55,1-8,4,.33,8-.67,11.89.58s7.4,3.19,6.19,8.5a23,23,0,0,0-.05,5C326.7,27,322.38,30.68,316.61,30.07Z"/><path class="cls-1" d="M378.6,70.05c3.42,1.5,4.44,0,4-3.23-.23-1.61-.6-3.2-.91-4.8.69-.62.18-2,1.39-2.29a1.57,1.57,0,0,1,1.17.72,2.44,2.44,0,0,1,.45,1.39c-1.66,8.6,3.25,12.61,10.45,15a10.4,10.4,0,0,1,1.24.74c4.64,4,10.62,4.81,16.1,6.83a1.81,1.81,0,0,1,.47,1.29,2.1,2.1,0,0,1-.95,1,10.67,10.67,0,0,1-4.7.35l-.67,0-28-16Z"/><path class="cls-1" d="M424.58,91.07c0,.59.24,1.62.05,1.71-5,2.17-4.85,5.55-2.25,9.45.82,1.24.52,1.69-.81,1.83-3.26.18-4-1.4-2.77-4.15,1.08-2.48,1.15-4.43-2.19-4.89h0c-1.27-1-3.35-1.81-2.82-3.64.62-2.13,3-1.64,4.71-1.66C420.6,89.71,422.87,89.25,424.58,91.07Z"/><path class="cls-1" d="M388.56,126.08h27.17c-.41-1.82-.77-3.44-1.14-5.07l5-4c-2,3.33-1.76,6.66,0,10-8.79,0-17.57,0-26.36,0C391.64,127,389.88,127.54,388.56,126.08Z"/><path class="cls-1" d="M306.57,30H256.65c-.36-.19-.48-.39-.37-.6s.23-.31.35-.31h49.94A6.76,6.76,0,0,1,306.57,30Z"/><path class="cls-1" d="M363.55,97.1c-3.4,1.54-3.69,5-4.9,7.9,0-1.64,0-3.29-.07-4.93V92c1.12-1,2.48-1.69,2.59.51C361.27,94.58,362.51,95.71,363.55,97.1Z"/><path class="cls-1" d="M419.55,113c-1-2.52-2-5-4.93-5.93a7.22,7.22,0,0,0,2.23-.92c2.11-2,4.41-.88,5.82.36,1.71,1.5-1,2.63-1.45,4.08A9.51,9.51,0,0,1,419.55,113Z"/><path class="cls-1" d="M362.55,34c-.57-5.57-5.59-4.42-8.88-5.88L364.61,28c1.38.24,2.35.75,1.17,2.25C364.77,31.52,363.63,32.73,362.55,34Z"/><path class="cls-1" d="M341.61,36,339,31.3c2.85-.18,5.27-1.07,7.59.72C344.93,33.37,343.27,34.7,341.61,36Z"/><path class="cls-1" d="M424.65,108.09c1.3,3.21-1,4.5-3.12,6C421.8,111.64,423.44,110,424.65,108.09Z"/><path class="cls-1" d="M408.56,26.08c10.05.62,20.17.48,30,3h0c-1.53,1.41-3.44,1.35-5.33,1.39-11.28.13-22.51-1.63-33.81-1.05a6.13,6.13,0,0,1-3.37-.71,1.44,1.44,0,0,1-.73-1.53C399.67,25.58,404.25,27.47,408.56,26.08Z"/><path class="cls-1" d="M408.56,26.08c-4.19,2.12-8.68.39-13,1-4.74,2.61-9.88,1-14.83,1.43-3-.44-6.39.92-9.11-1.5,4.2-2.08,8.69-.36,13-1Z"/><path class="cls-1" d="M289.62,9c-9.78,0-19.57,0-29.35,0-1.59,0-3.36.53-4.67-1,9.78,0,19.56,0,29.34,0C286.53,8.08,288.3,7.55,289.62,9Z"/><path class="cls-1" d="M380.57,27.09l15,0c0,.32,0,.65,0,1a1.56,1.56,0,0,1-1.76.29c.1.92.71.19.93.18,13.47-.51,26.87.89,40.29,1.58,5.49.28,10.79,1.83,15.95,3.58,4.09,1.39,5.12,6.13,2.21,9.31-4.05,4.41-8.76,8.12-13.37,11.91a3.5,3.5,0,0,1-2.23,1c-11.24-.43-23.45,3.89-32.64-6.76a7.29,7.29,0,0,0-5.08-2.88c-5.89.27-11.79,0-17.67.24-.52.12-1,.2-1.57.27a2.64,2.64,0,0,1-2.16-.8c-2.62-2-5.63-.53-8.42-1-1.85-.28-3.92.68-5.51-1,1.61-1.61,3.5-.44,5.23-.46,9.07-.09,18.13,0,27.2-.08-8.64.07-17.28,0-25.93,0-6.27,0-8.51-4.18-5.29-9.63,2.22-3.78,5.16-6.38,9.89-6.33C377.31,27.57,379,28,380.57,27.09Z"/><path class="cls-1" d="M380.57,27.09c-2.21,1.82-5.05,1-7.56,1.77a10.46,10.46,0,0,0-7.11,7c-1.51,4.36.59,7.15,5.23,7.19,9.09.09,18.18,0,27.28,1H364.58c-2.88-6.94-1.73-10.22,6-17h1.07Z"/><path class="cls-1" d="M378.52,46l2,0c1.79,1.95,1.71,3.95.12,6-.28,1.69.64,3.63-1,5-.13-.1-.35-.18-.37-.3-1.4-7.38-6.8-8.56-13.05-8.51A3.17,3.17,0,0,1,363.61,47c0-.34,0-.68,0-1Z"/><path class="cls-1" d="M312.59,19c.33,2.43-.36,4.71-1,7-8.77,0-17.55,0-26.32,0-1.6,0-3.35.5-4.69-.92,5.72-1.12,11.5-.22,17.25-.52,2.3-.12,4.64.39,6.87-.52,3.09-.31,5.38-1.58,5.89-5,.17-1.39-.42-3,1-4C311.76,16.4,311.12,18,312.59,19Z"/><path class="cls-1" d="M311.55,12l-5.92-2.94h5.92Z"/><path class="cls-1" d="M435.66,112c3.32-1.14,7.68-1.55,4.95-7,1.19-.65,2.25-.06,3.32.36a28.87,28.87,0,0,0,32.7-8.24,2.06,2.06,0,0,0,0-3l-7.92-2.23c0-.27.07-.54.1-.8,7,0,14,0,21,0,.78,0,1.79-.23,2.19.7.51,1.17-.58,1.75-1.19,2.46a70.64,70.64,0,0,1-26.51,19.55c-6.55,2.76-12.65.33-18.93,0A83.92,83.92,0,0,1,435.66,112Z"/><path class="cls-1" d="M383.58,60.08l-1-.07c-.94-1.47-.35-3.09-.45-4.63.66-3.55.61-7.54,5.37-8.5a13.81,13.81,0,0,0,4-1.15,4,4,0,0,1,1.95,0,6.66,6.66,0,0,0,3.55,1.2c3.42.2,5.79,2.23,8.11,4.47,1.64,1.58,2.86,3.79,5.49,4,3,.26,5.93,1,8.93.15,2.95.85,6.45-1.77,9,1.45l-7.07,0c-1.27,2.84-3.57,1.52-6.1,1.38,3.36.45,5.77,1.23,6.28,4.72,1,6.52,2.5,13-1.09,19.29a4.43,4.43,0,0,1-2,1.5c-8.5,1.28-16-1.48-23-5.88h0C387,75.12,382.85,69.23,383.58,60.08Z"/><path class="cls-1" d="M470.65,42c7.59,12.88,13.44,26.62,19.9,40.05-.25,2.9.29,6.1-2.93,7.91l-22,.12c-1.33,1.29-3,1.23-4.68,1.28a11.72,11.72,0,0,1-4.59-.59c-1.41-3,.73-5.23,2.47-6.79,1-.86.19-1.81,1-2.26A33.7,33.7,0,0,1,471.87,80c1.52.46,2.32,1.36,1.49,2.95-1.57,3,.44,3.37,2.59,3.71.66.1-.16.06.5,0,3.4-.16,7.64,1.5,9.87-1.62s-.81-6.24-2.19-9.11c-4.59-9.58-9.44-19-14.26-28.51-1.24-2.43-2.16-6-5.51-5.62s-4.46,3.5-4.64,6.76c-.06,1.09-.19,2.4-1.73,2.65-2.16-1.58-1.72-3.78-1.41-5.94a8.11,8.11,0,0,1,1-2.29l2-2C463.3,36.49,466.37,36.77,470.65,42Z"/><path class="cls-1" d="M428.59,57c-3.21-2-6.73-.56-10.09-.93-3.93,1.29-7.42.22-10.69-2a25.47,25.47,0,0,1-7.6-7.73,1.57,1.57,0,0,1,.4-1.34c3.28.73,5.58,2.94,7.73,5.28A15,15,0,0,0,419.47,55a119,119,0,0,1,12.89.76c6.25.89,10.36-4,14.44-7.68,3.11-2.83,8.24-5.2,6.59-10.75-1.5-5-6.76-4.36-10.53-5.14C436.74,31,430.4,30.79,424.17,30c-11.08-1.36-22.22-.87-34.3-1,2.41-1.38,4.15-.78,5.76-1,12.68-.64,25.29.93,37.95,1,1.53,1.17,3.52-.17,5.05.93,4.18.93,8.35,2,12.56,2.75,3.7.7,5.3,3.68,6.1,6.53.7,2.47-2.26,3.67-4.11,5a48.28,48.28,0,0,0-8.45,7.61C440.15,57.32,434.61,57.38,428.59,57Z"/><path class="cls-1" d="M418.61,83c.33-.33.66-.67,1-1,1-.57,1.8-1.54,3-1.68,2.75.15,5.65,1.24,8-1.24,1.91-3.91.48-8.1,1-12.12a28,28,0,0,1,1.25-6.75c.85-2.14,3.19-1.28,4.86-1.15,2.51.2,1.62,2.38,1.83,3.88-1.1,2.24,1.09,4.5,0,6.74-.64,2.2-1.27,4.22-3.5,5.66-3.27,2.12-2.77,4.69.95,6.34,1.16.51,2.69.51,2.76,2.31a6.34,6.34,0,0,1-3.28,1.86c-2,.55-4.15.37-6.12,1.11a16.23,16.23,0,0,1-5.56.17c-2.24-.8-4.74-.52-6.91-1.64C416.72,84.3,417.75,83.7,418.61,83Z"/><path class="cls-1" d="M455.59,90l5.07.14c.67.7,1.41,1.36,1.25,2.47-4.28,3.87-10,5.06-14.78,8-3.79,2.25-3.79,2.31.18,4.72,8.74,2.3,16.45.19,23.32-5.45,1.72-1.25,3.66-2.22,5-4l1-1.82c2.38.46,4.32,1.18,1.48,3.65-6.55,5.72-13.54,10.19-22.58,11.47-6,.85-10.16-2-14.88-4.21-1.85-2.81.59-4.17,2-5.87,4.39-3.12,9.34-5.19,13.66-7.23-4,.34-8.36,1.51-12.65-.84H414.48c-.14,2.08,1.86,2.51,2.13,4a25.36,25.36,0,0,1-10-8h0c14.36,3.07,28.9.84,43.34,1.48C452,88.59,454,88.38,455.59,90Z"/><path class="cls-1" d="M438.55,70c.4-2.34-.74-4.91,1-7.05.31.68.62,1.37.92,2.05,2,1.39.26,3.83,1.74,5.87,2.25-4.3,2.21-8.81,3-13.1.38-2.16.56-4.29,2.41-5.78l0,0c2.58-1.44,5.05-3.22,8.27-2.72,1.42.59,1.5,2.47,2.94,3.05a6.37,6.37,0,0,1,.87,1.14c3.65,6.8,7.55,13.47,11.43,20.15a14.19,14.19,0,0,1,2.31,5.4,2.5,2.5,0,0,1-.82,2c-4.34.55-8.79.44-13,2a5.58,5.58,0,0,1-4.05,1.06c-1.09-.32-2.22-.61-2.1-2.13,3.42-2.34,7.51-1.86,11.29-2.65,4.47-1.22,4.47-1.22,1.8-5.8-3.05-5.76-6.39-11.35-9.74-16.93-1.14-1.27-1.54-3.34-4.14-2.76-3.15.7-2.78,3.32-3.47,5.42-.1,3.52-1.13,6.9-1.35,10.39a6.7,6.7,0,0,1-1.05,3.3,6.1,6.1,0,0,1-7.05,2.5C436.81,74.66,438.25,72,438.55,70Z"/><path class="cls-1" d="M423.64,74.13c1.95-4.29.57-8.81.83-13.21.09-1.51-.56-3.07,1.92-2.85,1.89.16,4.35-.57,4.19,2.66-.25,5.12-.6,10.23-.91,15.34.6,1.81,1.07,3.87-.95,4.82a4.53,4.53,0,0,1-5.13-.85C422,78.28,422.18,76.09,423.64,74.13Z"/><path class="cls-1" d="M471.63,100.15c-5.66,6.56-17.93,9.46-25.05,5.92a5.75,5.75,0,0,1,0-6.06c4.5-3.62,10.33-4.74,15.05-8a2.63,2.63,0,0,1,3.92,0c.95,1.5,3.15.36,4.06,1.94C471.85,95.56,473.7,97.2,471.63,100.15Z"/><path class="cls-1" d="M447.62,52c-1,5.67-2.06,11.32-2.9,17-.32,2.17-.69,4.29-3.35,3.8-2.85-.52-1.37-2.69-1.09-4.35a32.75,32.75,0,0,0,.23-3.44C440.89,59.61,441.17,54.13,447.62,52Z"/><path class="cls-1" d="M422.64,81l-3,1c2.87-5.29,2.21-11,1.8-16.63-.32-4.31-2.91-7-7.89-6.68,2.73-1.14,5.66,0,8-1.68,1.69,2.49.93,5.32,1.12,8A58,58,0,0,1,422.64,81Z"/><path class="cls-1" d="M456.59,50.1l-9,1.94c2.6-3.83,6.18-6.57,10-9v2C456.37,46.55,457.8,48.59,456.59,50.1Z"/><path class="cls-1" d="M470.65,42c-3.43-3.16-7-4.47-11.06-1-.45-1.54-.9-3.07-1.35-4.63C466,35.91,468.85,37.19,470.65,42Z"/><path class="cls-1" d="M422.64,81q0-8,0-16c2,2.84.48,6.06,1,9.07a11.44,11.44,0,0,1,0,1.94c-.5,2.93.89,4.26,3.68,4.27,3.27,0,1.86-2.68,2.35-4.27,1.14.76.88,2,1,3.06C429.19,84.92,425.53,81.35,422.64,81Z"/><path class="cls-1" d="M487.62,90l2.93-7.91c.48,2.73,3.17,4.51,3.34,7.48C491.78,90.49,489.67,89.86,487.62,90Z"/><path class="cls-1" d="M425.62,127c3.89-3,6.45-6.55,6-11.8v10.88C429.85,127.82,427.63,126.74,425.62,127Z"/><path class="cls-1" d="M471.63,100.15c.37-2.38-.63-4.31-2-6.11l6,1.87C475.89,98.83,473.58,99.32,471.63,100.15Z"/><path class="cls-1" d="M465.54,92.1l-3.92,0a1.88,1.88,0,0,1-1-1.93l4.93,0C465.78,90.78,466.68,91.46,465.54,92.1Z"/><path class="cls-1" d="M438.63,30c-1.71-.16-3.61.66-5.05-.93l5,0C438.61,29.37,438.61,29.68,438.63,30Z"/><path class="cls-1" d="M168.61,116l-5,.08c-8.69-2.58-17.67-3.68-26.59-5-13.71-2-27.46-3.65-41.19-5.46-11.6-1.53-23.26-2.77-34.8-4.67-12.47-2.06-25.25-2.13-37.45-5.88-1.24-1.21-3.25-2-2.57-4.32.77-2.67,3.18-2.58,5.22-3.16.58,0,1.14,0,1.72,0,19.51,0,39,.19,58.49-.51,9.09.24,18.16-.86,27.25-.34a10.84,10.84,0,0,1,1.79.24c4,1.3,8.08.5,12.12.7,3.42.11,6.86-.2,10.27.3A43.55,43.55,0,0,0,143.42,89c3.36,1.61,5.42,5.7,9.89,5.21,12.63,1.16,25.05,3.84,37.61,5.38,2.26,3.23,3.4,6.28-1.31,8.44-4.84,2.49-10.08,3.79-15.27,5.28C172.35,113.9,170.1,114.17,168.61,116Z"/><path class="cls-1" d="M25.59,88.05c-3.89,1.42-4.89,3.66-2,7-5-1-10-2.14-14.24-5.47C12,87.84,14.79,88,17.55,88A14.46,14.46,0,0,1,25.59,88.05Z"/><path class="cls-1" d="M25.59,88.05l-8,0c0-.31.06-.63.08-.94h8c.34.21.45.42.35.64s-.21.33-.32.33Z"/><path class="cls-1" d="M311.59,119c0,9,0,9-9.26,9q-18.36,0-36.71,0a380.29,380.29,0,0,1-74.85-7.87c-2.06-.43-4.4.65-6.18-1.16-2.23-2.34-2.28-4.67,0-7,7.62-3.51,15.88-3.24,24-4a5.87,5.87,0,0,1,4.93-1.93c8.23.74,16.54.55,24.73,1.71,8.84,1.26,17.76,1.55,26.62,2.69,11.68,1.49,23.46,1.33,35.22,1.14a11.38,11.38,0,0,0,3.42-.6C311.18,110.33,313,112.13,311.59,119Z"/><path class="cls-1" d="M303.62,112.06c-.57.3-1.13.87-1.71.87-13.41.17-26.8.33-40.15-1.59-8.32-1.2-16.76-1.59-25.15-2.28-7.56-.63-15.13-1.24-22.7-1.7a28.93,28.93,0,0,0-5.35.64c-1.07-1.43-2.66-.8-4-1,.65-2.69,2.94-2.32,4.81-2.39,13.14-.54,26.14,1.22,39.16,2.59,2.65.28,5.3.24,7.93.53,9.66,1.5,19.42,1.58,29.15,2.21,3.92,1.21,7.95.5,11.92.71C299.62,110.77,301.9,110.24,303.62,112.06Z"/><path class="cls-1" d="M256.6,109c-14.83-.48-29.48-3.59-44.38-3-2.57.1-5.31-.82-7.69,1l-7.91.06c-1,.6-2.06.62-2.13-.66-.11-1.9.07-4,2.09-5,1.17-.61,2.53-.28,3.81-.35,18.63,1.93,37.26,3.82,55.81,6.47A1,1,0,0,1,256.6,109Z"/><path class="cls-1" d="M184.61,112.05a12.26,12.26,0,0,0,0,7c-4.5.14-8.78-1-13.68-2.32C175.48,114,180.17,113.34,184.61,112.05Z"/><path class="cls-1" d="M199.64,102c-3.4.39-4.54,2.31-3,5-2.12,1.83-4.68.6-7,1,.42-2.13,5.19-3.72.81-6.46l1.2-.57C194.52,99.61,197.24,99.5,199.64,102Z"/><path class="cls-1" d="M199.64,102c-2.48-1.88-5.35-.59-8-1-6.28-1.91-12.89-1.73-19.28-3-6.55-1.26-13.32-1.07-19.77-3a3.83,3.83,0,0,1,2.63-1.84,92.13,92.13,0,0,1,10.62.86c4.94.91,9.84,2,14.76,3,6.32,1.93,12.92,2,19.39,2.92,13.22,1.83,26.5,3.24,39.75,4.92,21.12,2.68,42.34,2.23,63.54,2.1a21.75,21.75,0,0,0,4.35-.91l1,1c-.23,2-1.89,2.31-3.31,2.31-16.26,0-32.55,1-48.75-1.28q-25.26-3-50.51-5.91A63,63,0,0,0,199.64,102Z"/><path class="cls-1" d="M331.67,122.05c-4.67,4.33-10.44,4.42-16.22,3.94-5.07-.42-1.93-4.62-2.89-6.95s-1.08-4.58-1.54-6.88c-.23-2.25,1.54-3.52,2.55-5.15,3.48-1.22,16.33,2,17.53,4.8C332.48,115,331.37,118.63,331.67,122.05Z"/><path class="cls-1" d="M313.58,107c.63,2-1.08,2.84-2,4.07a154.48,154.48,0,0,1-25.9,0A182.16,182.16,0,0,1,256.61,109v-.93c15.45,0,30.91,0,46.36-.07,1.92,0,4,.65,5.7-1Z"/><path class="cls-1" d="M285.66,111.09l25.9,0c.11,2.68,1.52,5.2,1,8h-1c-.49-4.8-2-8.48-8-7C297.65,111.44,291.55,113.24,285.66,111.09Z"/><path class="cls-1" d="M25.61,88l0-1c14.26,0,28.52,0,42.78,0,1.74,0,3.69.67,5.17-.92,6.43,0,12.87,0,19.31-.07,1.58,0,3.34.58,4.66-.91,2.36-1.61,4.5.43,6.77.41,1.59-.37,3.19-.81,4.73,1.45-7.71,1.44-15.14-.35-22.36,1Z"/><path class="cls-1" d="M103.61,86c-2-.32-4-1.39-6.1-.92C83.85,85,70.39,82.46,56.77,81.84c-.42,0-.82-.49-1.24-.75,1.09-.11,2.3.16,3-1q21.37,2,42.76,4.08a8.72,8.72,0,0,1,2.29.92c.32.21.42.43.32.64S103.72,86,103.61,86Z"/><path class="cls-1" d="M39.61,63.05c0-.65,0-1.3,0-1.95,6.84-1.42,12.62-6.33,20-6.1,6-2.28,12.3-1.82,18.49-2.46,5.84-.6,11.75-.75,17.43-2.46a73.12,73.12,0,0,1,15.07-1c12.73-.87,25.47-1.75,38.06-4,3.94-.69,7.62-.42,10.84,2.26a2.55,2.55,0,0,1,.68,1.64,2,2,0,0,1-.84,1.52c-5.23.65-10.32-1-15.7-.27-13,1.76-26,2.69-39.08,3.91-11.39,1.06-22.77,2.3-34.17,3.17-8.51.65-16.81,1.8-24.66,5.32C43.76,63.48,41.76,64.74,39.61,63.05Z"/><path class="cls-1" d="M95.63,51.08c-3.42,2.16-7.38,1-11,1.57C76.34,54,67.92,54.29,59.57,55c-1.06-1.44-2.64-.79-4-1,6.9-1.61,13.93-1.85,21-2A27,27,0,0,0,87.6,50a8.72,8.72,0,0,1,5,1A2.09,2.09,0,0,1,95.63,51.08Z"/><path class="cls-1" d="M39.61,63.05c2.66.3,4.89-1.2,7-2.26,6.08-3,12.61-4,19.15-4.64C81.85,54.58,98,53.48,114.07,52c11.64-1.09,23.25-2.54,34.87-3.81,3.73-.41,7,1.82,10.67,1.87,4.82-.64,9.69-.85,14.53-1,2.07-.08,4.37.66,5.17,3.07.71,2.13-.41,3.83-1.79,5.34a52.21,52.21,0,0,0-5.67,7.42c-1.79,3.14-.38,5.56,1.71,7.89s4.92,4.31,6.4,7.33c.91,2.67.37,4.94-2.69,5.1-5.4.29-10.87,1.09-16.23-.57.59-2.6.59-2.61,3.49-2.87,3.41-.3,6.92.47,10.35-.61-.33-2.49-2.24-3.5-3.55-4.91-5.8-6.27-6-10.32-.91-17.21,1-1.29,3-2.35,2.25-4.15-.85-2.15-3.18-1.37-4.9-1.38a58.32,58.32,0,0,1-14.31-1.64c-6.23-1.57-12.58.41-18.83,1C121.9,53.91,109.16,55,96.45,56.41c-13,1.45-26.16,2.06-39.13,4-5,.75-9.45,3.16-14.1,4.94-1,.4-2.4.92-2.3,2.3.07,1,1.21,1.56,2.12,1.94,6.88,2.92,13.67,5.79,21.42,6.17C75.9,76.35,87.27,78,98.7,78.86c1.15.08,3.34-.08,2.52,2.43-3.54.2-7.09.68-10.61-.26-11.48-1-23-1.59-34.42-3.27-6.3-.93-12.26-4-17.94-7C34.44,68.71,34.88,66.88,39.61,63.05Z"/><path class="cls-1" d="M160.6,84c4.77,0,9.56-.26,14.31.08,4.42.31,5.14-1.43,3.69-5.07,2.59-.18,3.67,1.35,3.64,3.62s-1.65,3.13-3.6,3.51a30.62,30.62,0,0,1-6,.25c-6.31,0-12.53.17-18.81,1.55s-12.54-.56-18.81-1c-5.61-.39-11.25-.72-16.83-1.55a17.93,17.93,0,0,1-3.51-.35c-2.56-1.24-5.78.16-8.1-2-1.68-.25-3.6.64-5-1l.68-.58c3.14-1.41,6.48-.55,9.71-.83q14.82,1.06,29.57,2.7a58,58,0,0,0,14.36-.09C157.61,83,159.21,82.75,160.6,84Z"/><path class="cls-1" d="M103.61,86c0-.32,0-.64,0-1l1-.08c.86-.61,1.93-.48,2.86-.83a18.07,18.07,0,0,1,4.47,0,4.39,4.39,0,0,1,1.9,1.13c.64.77,1.24,1.55.77,2.64l-28,0c4.7-2.06,9.63-.51,14.44-.93,2.1-.18,4.24,0,6.66,0C106.42,85.35,104.88,86.36,103.61,86Z"/><path class="cls-1" d="M90.6,81h11l.38.5-.37.5h0C98,81.53,94.1,83.15,90.6,81Z"/><path class="cls-1" d="M107.62,85l-3,0,2-2c2.66.42,5.54-1,8,1C112.44,85.51,109.8,83.61,107.62,85Z"/><path class="cls-1" d="M36.12,44.34c4.27-3.28,9.33-3.44,14.06-4.1,21.12-3,42.34-5.25,63.44-8.33,16.35-2.39,32.76-4.39,49-7.45,7.46-1.4,14.55,2.65,21.27,5.89,2.63,1.27,1.07,2.85-.76,3.29A120.35,120.35,0,0,1,171,35.93c-6.56.85-13.16,1.41-19.73,2.17a9.09,9.09,0,0,0-3.78,1.07C140.68,43.54,132.84,43,125.35,44c-11.41,1.54-23,.25-34.35,1.24-14.48,1.26-28.93.27-43.38.83C43.63,46.23,40,44.84,36.12,44.34Z"/><path class="cls-1" d="M256.63,29.08a5.41,5.41,0,0,0,0,.9c-8.17,1-16.35,2-24.51,3.07-12.84,1.76-25.88,2-38.56,5-6,2.88-12.54,2.19-18.8,3.32-1.61.29-3.3.07-4.89.64-7.17.89-14.3,2.06-21.52,2.6A2,2,0,0,1,146.56,43c0-.32.06-.64.08-1,11.53-1.58,23.06-3.18,34.6-4.71,2.12-.28,4.27-.28,6.41-.42,2.73-1.88,6.3.25,9-1.86,11.38-.43,22.61-2.35,33.92-3.49C239.25,30.7,247.94,29.91,256.63,29.08Z"/><path class="cls-1" d="M216.6,14h1c2.89-1.3,6.12.37,9-1h0c3.58-1.34,7.43.4,11-1h1c3.23-1.37,6.78.43,10-1h0c2.91-1,5.91-.44,8.85-.45,14.09-.07,28.18,0,42.27,0,1.63,0,3.32-.42,4.88.46h0c1.59.66,3.19,1.3,4,3v4c-1.52,2.76-3.83,3.53-7,3.57-9,.09-18-.72-27,.44h-1c-3.58,1.34-7.43-.4-11,1h0c-3.57,1.34-7.43-.4-11,1h0c-3.57,1.34-7.43-.4-11,1h0c-3.57,1.34-7.43-.4-11,1h0a154.09,154.09,0,0,1-27,0h0c-2.54-1.38-5.46.32-8-1h-1c-.89-.89-2.24-.24-3.19-1-1.15-.88-2.66-1.58-2.22-3.4.34-1.43,1.56-1.76,2.89-2.19,2.47-.8,5.09-.61,7.53-1.46h0c1.85-1.24,4.16.3,6-1h0c1.85-1.24,4.16.3,6-1h0C212.45,13.8,214.76,15.34,216.6,14Z"/><path class="cls-1" d="M304.61,11h-56c1-1.24,2.37-1,3.67-1q24.33,0,48.67,0C302.24,10.05,303.63,9.8,304.61,11Z"/><path class="cls-1" d="M274.6,22c2-1.85,4.43-.9,6.64-.95,6.12-.14,12.26-.24,18.37,0,3.53.15,6.47-.62,9-3.08-.48,3.39-2.79,4-5.74,4C293.44,22,284,22,274.6,22Z"/><path class="cls-1" d="M305.59,24.06c-4.06,2.09-8.4.67-12.61.93s-8.27.07-12.41.08h-3.92c-1.09-.1-2.29.17-3-1l30-.06A1.35,1.35,0,0,1,305.59,24.06Z"/><path class="cls-1" d="M198.6,17c-1.62,1.75-4,.75-5.95,1.76-1.2.64-3.29.09-3.59,1.9S190.41,23.41,192,24a9.93,9.93,0,0,1,1.6,1,11.48,11.48,0,0,1-3-.19c-1.68-.56-3.88-1-3.85-3.25s1.87-3.13,4-3.65A25.92,25.92,0,0,1,198.6,17Z"/><path class="cls-1" d="M202.6,26h27c-6.71,2.16-13.61.58-20.41.93C207,27.08,204.57,27.88,202.6,26Z"/><path class="cls-1" d="M305.59,24.06l-1.95,0c2.69-1.13,5.48-2.1,6.95-4.94C311.26,23.08,309.5,24.64,305.59,24.06Z"/><path class="cls-1" d="M262.6,23c3.5-2.13,7.35-.49,11-1C270.1,24.15,266.26,22.53,262.6,23Z"/><path class="cls-1" d="M251.6,24c3.5-2.13,7.35-.49,11-1C259.1,25.16,255.25,23.53,251.6,24Z"/><path class="cls-1" d="M237.6,12c-3.5,2.13-7.35.49-11,1C230.11,10.92,234,12.55,237.6,12Z"/><path class="cls-1" d="M240.6,25c3.5-2.13,7.35-.49,11-1C248.1,26.16,244.25,24.53,240.6,25Z"/><path class="cls-1" d="M229.6,26c3.5-2.13,7.35-.49,11-1C237.1,27.16,233.25,25.53,229.6,26Z"/><path class="cls-1" d="M248.6,11c-3.16,2-6.68.56-10,1C241.77,10,245.28,11.48,248.6,11Z"/><path class="cls-1" d="M226.6,13c-2.82,2-6,.57-9,1C220.42,12.06,223.61,13.47,226.6,13Z"/><path class="cls-1" d="M194.6,25.05c2.66.42,5.54-1,8,1C200,25.62,197.06,27,194.6,25.05Z"/><path class="cls-1" d="M216.6,14c-1.76,1.8-4,.68-6,1C212.36,13.24,214.6,14.35,216.6,14Z"/><path class="cls-1" d="M210.6,15c-1.75,1.81-4,.69-6,1C206.36,14.24,208.6,15.35,210.6,15Z"/><path class="cls-1" d="M204.6,16c-1.75,1.81-4,.69-6,1C200.36,15.24,202.6,16.35,204.6,16Z"/><path class="cls-1" d="M308.6,14l-4-3C306.76,11,308.46,11.46,308.6,14Z"/><path class="cls-1" d="M261.61,25.05c-1.42,1.64-3.32.76-5,1C258,24.41,259.91,25.26,261.61,25.05Z"/><path class="cls-1" d="M272.61,24.05c-1.42,1.64-3.32.76-5,1C269,23.41,270.91,24.26,272.61,24.05Z"/><path class="cls-1" d="M146.56,43l1.06,1c4.55,0,9.59-2.26,13.09,2.75.17.92-.1,1.46-1.16,1.27-7-3.92-14.29-.89-21.4-.61-9.22.37-18.4,1.64-27.6,2.52-.88-.89-2.17-.15-3.11-.8a.86.86,0,0,1,.19-1.15c10.74.48,21.28-2.08,32-2.06,1.52-1.09,3.5.26,5-1Z"/><path class="cls-1" d="M107.63,48.06c0,.32,0,.63,0,.95-5,.49-10,2.09-15,.08l-5-.07C94.19,46.81,101,48.63,107.63,48.06Z"/><path class="cls-1" d="M144.61,45c-1.42,1.62-3.31.76-5,1C141,44.4,142.93,45.27,144.61,45Z"/><path class="cls-1" d="M92.63,49.08l15-.08c1.06.12,2.26-.17,3,1L95.64,51.08l-3-.07C92.63,50.37,92.63,49.73,92.63,49.08Z"/><path class="cls-1" d="M259.62,32.05h43c2.54,1.37,5.47-.34,8,1q.5,0,1,0c1.5,1.22,3.51-.18,5,1,2.12.36,4-.65,6-1,1.5-1.17,3.52.23,5-1a23.3,23.3,0,0,1,10,2c1.32,2.89-.35,6.12,1,9,0,2.06-.2,4.14,1,6,.83,2.29,1.11,4.73,2,7,2.71,11.41,4.76,23,9,34,2.07,4,4.62,7.71,4.2,12.85-.38,4.65-2.42,6.71-6.61,7.09-5.71.52-11.62.28-16.52-2.62-9.79-5.79-19.75-4.3-30.22-3-12.69,1.6-25.59,1.1-38.36.21-11-.77-22-2.33-33-3.57-13.3-1.5-26.66-2.64-39.79-5.34-1.31-.27-3.05-.28-3.92-2,1.32-2,3.38-1.67,5.28-1.69,4.83,0,9.66-.09,14.49,0,37.12.74,74.21-1.41,111.32-1,6,.06,10.8-3.1,15.56-6.08,2.21-1.39,2.66-4,2.63-6.69-.07-7.5-.09-15,0-22.49,0-2.58-.61-4.58-3-5.75-1,.24-1.33-.35-1.47-1.17a1.75,1.75,0,0,1,.69-1.22c2.47-.32,4.65-.22,4-4.25-1.47-8.65-2.77-9.6-13.35-7.37a8.91,8.91,0,0,1-1.62.31c-17.28-1.11-34.57-.65-51.85-1-16.38-.28-32.43,2.47-48.59,4.57a99.51,99.51,0,0,0,14.23.67c23.64,0,47.27.11,70.91-.05,5.36,0,10.57,1.07,15.89,1.22A4.94,4.94,0,0,1,325.67,44c.44,1.29-.54,1.5-1.38,1.83a5.6,5.6,0,0,1-1.78,0c-2.6-.73-5.26-.41-7.91-.44-15.9-.16-31.79.35-47.68-.26a20,20,0,0,0-6.88-.74c-15.1,0-30.2-.09-45.3,0a108.24,108.24,0,0,1-13.84-1.16c-1.27-.15-2.92-.15-3.12-1.8-.22-1.85,1.54-1.81,2.75-2.16,4.61-1.32,9.42-1.44,14.1-2.34h1c1.85-1.25,4.17.3,6-1h3c2.2-1.29,4.81.35,7-1h1c2.54-1.33,5.47.38,8-1h1c2.54-1.33,5.47.38,8-1h1C253.5,31.74,256.72,33.4,259.62,32.05Z"/><path class="cls-1" d="M322.61,45h1c2.85,1,5.93,1.45,8,4l1,1v1c-2.51,1.48-4.5-.2-6.45-1.24a20.92,20.92,0,0,0-10.5-2.42c-13.43.16-26.87,0-40.31.07q-16.21,0-32.41,0c-8.91.19-17.84-.52-26.74.41a7.54,7.54,0,0,1-2.76,0c-2.56-.74-5.2-.36-7.81-.53-1.88-.13-4,.38-5.2-1.84,1.26-2.22,3.33-1.65,5.31-1.64,18.16.14,36.31.35,54.47-.1,2.15-.28,4.3-.66,6.41.22h49C317.79,45.39,320.41,43.74,322.61,45Z"/><path class="cls-1" d="M275.56,46.09c14.41,0,28.81,0,43.22-.09,5.33,0,8.91,4.2,13.81,5,2,4.26.74,8.78,1,13.17s-.2,8.59.11,12.85c.33,4.63-1.55,7.2-6,8-1.24.19-1.31-.51-1.1-1.43,3.23-2.68,4-6.19,3.73-10.21s0-7.94-.05-11.92c0-7.86-3.19-11.33-11.1-12a20.52,20.52,0,0,0-7.4.49,9.45,9.45,0,0,1-1.67.31c-2.87.08-5.81.71-8.44-1-.2-.69-.15-1.28.65-1.56-.45-.18-.8.18-1.2.24-7.55,1-15.13.43-22.7.29C277.12,48.22,275.6,47.94,275.56,46.09Z"/><path class="cls-1" d="M227.63,89.06a51.88,51.88,0,0,1-22,0,1.36,1.36,0,0,0-.52-1.31c-6.77-1.52-13.64-2.6-19.88-5.83a46.45,46.45,0,0,1-12.38-9.69c-1.51-1.73-3.25-3.39-2.55-6.06C173.81,61.61,176.37,56,182.43,54c3.27-1.48,6.53-3,10.24-2.93,1,.24,2,.56,2.14,1.83-3.7,2.57-8.3,3.14-12.12,5.49a21.1,21.1,0,0,0-3.78,2.35c-5.46,5.13-5.44,7.47.14,12.44C184,77.56,190,80,196.3,81.66c4.65,1.23,9.34,2.31,14,3.58,3.88,1.07,7.93-.13,11.8.9C223.92,87.14,226.09,87.52,227.63,89.06Z"/><path class="cls-1" d="M315.55,89H266.6c.77-3.06,3.86-2,5.67-3.17,9.27-2.33,18.71-.84,28.06-1.31,2.73.52,5.89-.64,8.87,2.27-4.89,1.34-9.15.45-13.34.86,5-.41,10,.64,14.9-.9a11.9,11.9,0,0,1,2.6.12C314.44,87.2,315.71,87.37,315.55,89Z"/><path class="cls-1" d="M180.59,97.05c-5.08,0-10.18.06-15-2-1.24-.85-3.43-.75-3.42-2.89,0-2.58,2.09-3.38,4.09-4.13,4.07-.68,8.17-.24,12.26-.37,1.79.11,3.68-.14,5,1.44-.56,2.84-2.76,2.16-4.32,1.61-3.32-1.16-5.91,1-9,1.18,3.24,3.34,7.23,3.86,11.31,4.17.33,0,.65.11,1,.17C182.31,97.46,181.28,96.85,180.59,97.05Z"/><path class="cls-1" d="M271.6,87c-1.19,1.88-3.78.14-5,1.94l-34,.06a1.69,1.69,0,0,1,.29-2.5c4.88-1.86,10-.36,15-1.05,5.92-.09,11.83-.07,17.75,0C267.7,85.5,269.91,85.32,271.6,87Z"/><path class="cls-1" d="M183.58,89.09,178.65,89c.33-2.65,2.52-2.16,4.16-2.29,3.26-.25,6.54,0,9.81-.19,4.73-.07,9.45-.06,14,1.56l-1,1Z"/><path class="cls-1" d="M315.55,89a2,2,0,0,0-1.94-1c-.14-.72.1-1.46.77-1.55,4.12-.61,8-2.53,12.24-2.43l1,1C324.09,87.87,320.2,89.61,315.55,89Z"/><path class="cls-1" d="M232.61,87.06c0,.66,0,1.32,0,2l-5,0c-1.92-.06-4,.33-5-2A8.93,8.93,0,0,1,232.61,87.06Z"/><path class="cls-1" d="M260.59,44.05c-1.47,1.62-3.41,1-5.15,1-16.56.05-33.12,0-49.68.05-1.75,0-3.68-.63-5.17.95-1.88,1.94-4.33,1.28-6.59,1.42-3.46.21-7-.42-10.39.67-4.71.4-9.43.77-14.11-.2-2.4-2-.35-2.49,1.08-2.69,1.77-.25,3.56.5,4.88.45-2.8-.33-2.77-.33-3.06-4,0-.42-.67.07-1,.08a2.18,2.18,0,0,1-1.77-.67c7.88-2,15.94-2.44,24-3,1.1.06,2.3-.17,3,1-.66,1.75-2.19,2-3.75,2.25a18.3,18.3,0,0,0-6.68,1.14c3.67.67,6.92.1,10.17.2,14.28,1.56,28.6.64,42.89,1C246.35,43.74,253.49,42.92,260.59,44.05Z"/><path class="cls-1" d="M260.59,44.05h-66a2.54,2.54,0,0,0-1.81-.52c-1.11,0-2.44.18-2.56-1.48s1.67-1.21,2.36-2a6.8,6.8,0,0,0,4-1c6-.36,11.87-2.58,18-2-5.14,2.22-11,1.43-16.21,4.62,4.05.46,8.1,1.28,12.16,1.31,17,.15,33.92.05,50.87.1,1.75,0,3.7-.64,5.18,1Z"/><path class="cls-1" d="M338.6,43.05c-2-2.82-.55-6-1-9C339.61,36.86,338.16,40.06,338.6,43.05Z"/><path class="cls-1" d="M259.62,32.05c-2.82,2-6,.56-9,1C253.42,31,256.62,32.47,259.62,32.05Z"/><path class="cls-1" d="M341.6,56.05a10.17,10.17,0,0,1-2-7A10,10,0,0,1,341.6,56.05Z"/><path class="cls-1" d="M310.61,33c-2.66-.43-5.54,1-8-1C305.25,32.47,308.14,31,310.61,33Z"/><path class="cls-1" d="M249.61,33c-2.47,2-5.35.57-8,1C244.07,32,247,33.47,249.61,33Z"/><path class="cls-1" d="M240.61,34c-2.47,2-5.35.57-8,1C235.07,33,238,34.47,240.61,34Z"/><path class="cls-1" d="M231.61,35c-2.12,1.89-4.68.62-7,1C226.72,34.13,229.28,35.42,231.61,35Z"/><path class="cls-1" d="M221.62,36.05c-1.76,1.78-4,.68-6,1C217.36,35.23,219.61,36.36,221.62,36.05Z"/><path class="cls-1" d="M327.62,32.05c-1.41,1.63-3.32.76-5,1C324,31.38,325.93,32.28,327.62,32.05Z"/><path class="cls-1" d="M316.6,34c-1.69-.22-3.6.65-5-1C313.28,33.28,315.2,32.38,316.6,34Z"/><path class="cls-1" d="M396.47,103c-7.2,1.09-15.29-1.14-23.15-4.66-3.78-1.69-7.89-3.87-7.44-8.37.57-5.68,1.76-11.73,7-15.38,1.92-1.34,4.58-1,6.74,0C391,80.1,402.16,86,411.22,95.13c1.44,1.45,3,2.88,2.11,5.16s-3,2.84-5.35,2.78C404.66,103,401.32,103,396.47,103Z"/><path class="cls-1" d="M363.61,47c1.5,0,3,0,4.49,0,8.8.1,10.09,1.22,11.51,10,0,8.5-.08,8.27-8.62,11.19-4.62,1.58-6,6.35-8.05,10.31-1.41,2.78-.87,7.46-5.39,7.3s-3.89-4.89-4.68-7.77q-4.41-16-8.07-32.29c-1.45-6.39,4.57-14.63,10.94-15.59,2.89-.43,3.82,1.14,3.9,3.78.08,2.8-.41,5.62.57,8.42C360.89,44.35,361.6,46.11,363.61,47Z"/><path class="cls-1" d="M382.65,55l0,5a2.12,2.12,0,0,1-1,2c-.51-3.32.89-6.84-1-10l-.12-6,.12,0a1,1,0,0,1,1.44.17C383.83,49.05,383.27,52,382.65,55Z"/><path class="cls-1" d="M424,124.05c-4.23,0-5-1.29-3.18-5.46,1.1-2.53,3.28-4.14,4.74-6.35,2.14-3.23,2.85-6.42-.52-9.27-2.33-2-3.13-4.46-2-7.11,1-2.44,3.76-2.45,6-2.74a19.22,19.22,0,0,1,5.46.1c6.66,1.06,5.2.94,4.42,7.34-.73,6-2.21,9.4-7.69,11.67-2.42,1-1.52,4.15-1.5,6.4C429.67,122.37,428,124.18,424,124.05Z"/><path class="cls-1" d="M443.62,91.08h14.87c-5.07,3.2-9.87,6.83-15.88,8.06,1.12-2.22,4.09-4.64-.72-6.2C441.53,92.83,441.72,92.49,443.62,91.08Z"/><path class="cls-1" d="M367.23,103.09c4.5,1.79,10.12,2,12.65,7.53.57,1.24,1.21,2.57.18,3.72s-2.44.62-3.68,0a37.27,37.27,0,0,1-11.13-8.24c-.66-.69-1.71-1.43-1-2.5S366.05,103.1,367.23,103.09Z"/><path class="cls-1" d="M405,120.19a38.47,38.47,0,0,1-12.75-2.9,4.77,4.77,0,0,1-3.33-5c.31-2.52,2.44-3.26,4.85-3.24,6.15,0,12.29,0,18.44,0,1.86,0,3.79-.05,4.32,2.35a4.35,4.35,0,0,1-2.11,5.14C411.05,118.34,407.87,120.71,405,120.19Z"/><path class="cls-1" d="M319.88,28c-5.26.09-6.13-2.67-6.23-5.88-.18-5.81,3-10.16,7.18-10s9.47,4,9.64,7.22C330.67,23.29,324.22,28.06,319.88,28Z"/><path class="cls-1" d="M455.67,83.07h4c-1.19,2.4-.88,5.68-4,6.94-11.79,0-23.58-.11-35.37.09-4.85.08-9.47-.16-13.57-3.06,1.39-1.74,3.28-.79,5-.92,2.4.24,4.78-.73,7.18-.06a20.89,20.89,0,0,1,5.74.5c1.92,0,3.83,0,5.75,0,2.27-.9,4.85,0,7.06-1.19,2.34-.17,4.44-1.43,6.79-1.54a15.61,15.61,0,0,0,4.4-.59,11.25,11.25,0,0,1,2.94-.34C452.89,82.73,454.21,84.23,455.67,83.07Z"/><path class="cls-1" d="M418.61,83l-1,1.93c-1.66,1.48-3.34,1.22-5,0-6.25-.91-12.41-2.05-17-7C402.88,81.46,410.31,84.25,418.61,83Z"/><path class="cls-1" d="M383.58,60.08c0-.16,0-.37.1-.48a4.17,4.17,0,0,1,.61-.48c-1.37,9.38,3.83,14.84,11.29,18.95-3.43-.73-6.26-2.81-9.35-4.28a4.69,4.69,0,0,1-2.66-4.85C383.69,66,383.59,63,383.58,60.08Z"/><path class="cls-1" d="M412.6,85l5,0c2.36.15,4.79-.24,7,1,.33.21.44.43.33.64s-.22.32-.33.32l-5.94,0c-1.87-1.25-4.22.34-6.06-1Z"/><path class="cls-1" d="M412.6,86c2,.41,4.27-.66,6.06,1-2.35-.29-4.89.9-7.05-.91Q412.12,86,412.6,86Z"/><path class="cls-1" d="M382.61,30c19.77,1.61,39.73.54,59.35,4.06,3.38.61,8.09,0,9.33,4.22,1.13,3.85-3.07,5.56-5.33,7.71-5,4.77-10,9.75-18.25,7.15-2.57-.81-5.61-.14-8.44-.16-3.46,0-6.5-1-8.88-3.67-5.37-6.08-11.82-9.2-20.24-8.41-5.93.56-12,.11-17.94.1-1.67,0-3.55.17-4.28-1.75s-.2-3.78,1.33-5.45C373,29.77,377.83,30.14,382.61,30Z"/><path class="cls-1" d="M381.65,46.07l-1,0c4.7-2.23,9.69-.52,14.52-1,1.8-.18,3.63,0,5.45,0,0,.35.06.71.08,1.06-1.11,1.2-2.57.85-3.94.93a4.48,4.48,0,0,1-3.14-.91h-2a6.3,6.3,0,0,1-3.27.91C386.06,46.88,383.64,48,381.65,46.07Z"/><path class="cls-1" d="M418.58,70.46c.95,12.43-3.32,11.49-11.66,9.46C401,78.48,396,75,391.05,71.81c-4.14-2.67-6.31-15-4-19.42,1.64-3.12,8.89-3.61,12.66-.58,5,4,9.58,8.42,16.24,10.13C420.65,63.14,417.84,67.93,418.58,70.46Z"/><path class="cls-1" d="M396.61,46.12l4.08,0c2.08,2.5,4,5.11,6.81,6.92.87.87,2.64,1.08,2.14,2.94-3,.37-3.74-2.49-5.42-3.91-2.28-1.94-4.27-4.17-7.61-4A1.24,1.24,0,0,1,396.61,46.12Z"/><path class="cls-1" d="M381.65,46.07l7,0a1.26,1.26,0,0,1,0,1.92c-5.2-.42-4,4.59-6,7Q382.16,50.54,381.65,46.07Z"/><path class="cls-1" d="M409.64,56,407.5,53c3.44,1.82,6.78,4,11,3.06C415.52,57.8,412.57,57.28,409.64,56Z"/><path class="cls-1" d="M396.61,46.12V48c-1.41,0-2.87.08-3-1.92Z"/><path class="cls-1" d="M388.6,48V46.12h3A3,3,0,0,1,388.6,48Z"/><path class="cls-1" d="M472.59,81c0-.67,0-1.34.05-2,.61-.83.19-1.63-.2-2.31-4.54-7.93-8.52-16.18-13.86-23.65h0a1.37,1.37,0,0,1,0-2c0-1.49-.05-3,0-4.48.13-3.27,2.41-5.21,5-6.23,2.88-1.15,4.72,1.32,5.83,3.49,6.1,12,12.2,23.92,17.93,36.06,2.66,5.63.86,8-5.34,8.15-1,0-2,0-3,0C470.64,88,470.18,87.51,472.59,81Z"/><path class="cls-1" d="M458.61,51c0,.67,0,1.34,0,2a3.09,3.09,0,0,1-2-2.95c.27-1.7-.66-3.64,1-5.07C457.93,47,456.79,49.29,458.61,51Z"/><path class="cls-1" d="M465.63,80.06a40.86,40.86,0,0,1-12,2,4.6,4.6,0,0,1-2.44,1.42,15.9,15.9,0,0,0-4.29.51,15.35,15.35,0,0,0-2.93.5c-1.45-.26-3.06.88-4.37-.51-2.8-1.58-7.62-.87-7-6.3.16-1.35.23-3.15,1.63-3.21,3.11-.12,3.15-2.74,4.32-4.45.78,1.44-1.64,4.58,2,4.4,2.71-.13,5.85-.32,6-4.35a39.06,39.06,0,0,1,2-12.07c3.25-4.67,4.33-4.9,9-2a145.72,145.72,0,0,1,10,17C467.79,75.64,467.46,78.06,465.63,80.06Z"/><path class="cls-1" d="M437.58,86c-2.15,1.57-4.62.91-7,1-.35-.21-.47-.43-.35-.65s.23-.33.35-.33c1.77-1.65,4-.71,6-1C437.63,84.58,437.77,85.1,437.58,86Z"/><path class="cls-1" d="M437.58,86l-1-1c.74-1.11,1.92-.92,3-1h5a.59.59,0,0,1,.25.66q-.12.33-.24.33C442.21,85,440,86.53,437.58,86Z"/><path class="cls-1" d="M430.59,86c0,.33,0,.65,0,1h-6V86Z"/><path class="cls-1" d="M446.58,100v6.06c-2.19-.25-4.23-1.62-4.26-3.47S444.84,100.45,446.58,100Z"/><path class="cls-1" d="M458.59,53c1.19.58,2.44,1,3.13,2.32,4,7.42,8.11,14.83,12.15,22.25.83,1.52.71,2.27-1.23,1.4C468.29,70.17,462.18,62.29,458.59,53Z"/><path class="cls-1" d="M457.6,56.05c-3.5-1.62-6.39-.41-9,2-.45-3.23,1.05-4.79,4.15-5.62C456.22,51.46,456.48,54.18,457.6,56.05Z"/><path class="cls-1" d="M465.63,80.06c-.21-2.57,1.25-4.67,1.94-7,.38.54.78,1.06,1.12,1.63.82,1.38,2.41,2.75,1.49,4.41S467.18,79.77,465.63,80.06Z"/><path class="cls-1" d="M451.6,83a2.07,2.07,0,0,1,2-1,2.21,2.21,0,0,0,2.05,1c-1.12,1.33-2.65.86-4.06.92-.35-.21-.47-.43-.36-.64S451.48,83,451.6,83Z"/><path class="cls-1" d="M456.6,97c3.26-2.76,6.72-4.28,10.73-1.55,2.29,1.56,3.17,3.49.68,5.61-4.65,4-10.25,5-16.12,4.77a3.49,3.49,0,0,1-3.07-2.86c-.4-1.54.68-2.49,1.74-3.28A7.22,7.22,0,0,1,454.61,98c.8,1.66-1,2.55-1.22,4.3a11,11,0,0,0,6.88-.09c1-.39,2.05-.82,3.06-1.24,1.16-.53,2.94-1.21,2.26-2.54-1.06-2.09-3.32-1.14-5.16-.9a8.74,8.74,0,0,1-1.33.28A2.61,2.61,0,0,1,456.6,97Z"/><path class="cls-1" d="M460.6,103a2.66,2.66,0,0,1-2.61,1c-2.19-.25-5.2,1.16-6.38-1s2.44-3,3-5l2-1h3c.43,2.35-2.35,2.31-2.93,4.09C457.5,102.57,459.75,101.5,460.6,103Z"/><path class="cls-1" d="M60.74,88.91c22.45.72,44.89,1.24,67.35,1.33,6,0,12.27.48,17.87,4.7,5.87,4.42,13.74,2.84,20.69,4,5.7,1,11.49,1.39,17.19,2.38,1.74.3,4.4.37,4.57,3.06.15,2.34-2.11,2.82-3.7,3.51-10.33,4.46-20.71,7-32.23,4.06-13.12-3.39-26.77-4-40.19-6-16.52-2.33-33-4.76-49.61-6.75-10-1.2-20-2.51-29.94-4.36-2.41-.45-6.58-.39-6.35-3.25s4.17-1.29,6.47-1.64C42.12,88.65,51.44,89.11,60.74,88.91Z"/><path class="cls-1" d="M154.59,94.12a2.16,2.16,0,0,1-2,.93c-4.59,1.18-6.43-2.52-9-5-1.5-1.2-3.49.15-5-1l-11-.06a1,1,0,0,1,.16-1.46,7.16,7.16,0,0,1,3.95-1.44c5.3,1.57,10.87.55,16.26,1.77,3,.68,6.17,0,9.31-.9,5.95-1.73,12.09-1.36,18.16-.23.37,2.81-1.87,1.68-2.91,1.69-3.94,0-7.85,0-11.63,1.34-3.46,1-6.72,3.16-10.69,2C151.46,93.08,153.6,92.59,154.59,94.12Z"/><path class="cls-1" d="M130.57,87.11c-.75,1.11-1.93.86-3,1a32.77,32.77,0,0,1-11.93,0l-1-.11-1-1.93C119.42,83.78,125,85.76,130.57,87.11Z"/><path class="cls-1" d="M115.63,88.09h11.94l.09,1C123.65,88.57,119.5,90.07,115.63,88.09Z"/><path class="cls-1" d="M138.62,89.08c1.69.18,3.58-.63,5,1C141.94,89.81,140,90.69,138.62,89.08Z"/><path class="cls-1" d="M276.55,125c-26.78.57-53.25-2.34-79.57-7-1.14-.2-2.25-.54-3.36-.85-1.29-.35-2.83-.65-2.56-2.43.21-1.35,1.51-1.53,2.71-1.71,11-1.59,21.94-2.87,33.13-1.26,8.83,1.27,17.83,1.33,26.71,2.31a382.68,382.68,0,0,0,48.23,2c3,0,5.67,1.31,5.48,4.46-.2,3.35-3.34,4.39-6.29,4.44C292.87,125.1,284.7,125,276.55,125Z"/><path class="cls-1" d="M154.59,94.12c-.83,0-1.67,0-2.48-.12-2.08-.31-5.16-.42-4.76-3,.31-2,3.09-.83,4.71-.27,2.95,1,4.95-1.56,7.55-1.78a8.69,8.69,0,0,1,6,.11c-3.34,2-3.21,4,0,6A46.3,46.3,0,0,1,154.59,94.12Z"/><path class="cls-1" d="M321,123.05c-4.22-.07-6.51-3.07-6.36-8.28.08-3,1.31-5.32,4.52-5.54,4.17-.28,10.43,4.91,10.18,8.1S325.13,123.12,321,123.05Z"/><path class="cls-1" d="M182.6,55c-5.93,1.58-7.67,7.71-12,11.05-.29-.23-.39-.46-.3-.7s.18-.36.28-.36c1.11-3.39,3.55-5.86,5.9-8.38,1.14-1.22,2.56-2.38,1.9-4.26s-2.65-1.79-4.16-2.18c-1.78-.46-3.56,0-5.36.52-3.12.82-6.23.24-9.28-.69v-1c3.68-2.68,7.89-.5,11.77-1.29,3.47-.44,7-.09,10.43-.2.47,0,.95,0,1.43,0C184.21,50.17,183.57,52.62,182.6,55Z"/><path class="cls-1" d="M171.63,48.06c-3.87,2-8,.48-12,1,0-.32,0-.64,0-1l1-1a2.66,2.66,0,0,1,2.28-.77A50.13,50.13,0,0,1,171.63,48.06Z"/><path class="cls-1" d="M160.6,84c-14.66,2.64-29.06-.59-43.55-1.9-1.8-.16-3.63-.07-5.44-.1-3.23-1.42-6.77.38-10-1h0c-4.86-1.87-10-1.22-15.07-1.89C76.39,77.79,66.11,77.35,56,75.91c-5.39-.77-10.37-3.44-15.25-5.9-3.06-1.55-2.75-3.71.19-5,6.94-3.15,14-6.27,21.69-6.89,17-1.36,33.91-3.12,50.85-4.86,11-1.13,22.06-2.09,33.1-3,8.41-.73,16.61,2.87,25.19,2,2.88-.28,3.38,2.21,2.29,4.63a10.1,10.1,0,0,1-1.61,1.89c-6.16,7.22-6,10.52.7,17.4,1.64,1.7,5.07,3.12,4,5.71s-4.48.81-6.83,1.19C167.08,83.55,163.66,82.06,160.6,84Z"/><path class="cls-1" d="M170.6,65c0,.35,0,.7,0,1,.76,5.38,5.45,7.61,8.84,10.81,1.77,1.67,4.09,2.76,6.17,4.12.51,3.59-.95,5.79-4.56,6.48-1.83-.27-3.79,1.18-5.51-.43-7,.54-13.87-.51-21,1.63-6.32,1.9-13.36-.65-20.08-1.21-1.31-.11-2.61-.25-3.92-.38l-17-1.07-1-1c1.5-1.22,3.54.22,5-1,10,.94,20,1.89,30,2.79,1.81.16,3.81.59,5.42,0,7.75-2.66,15.73-1.61,23.63-1.84,1.77,0,3.94.47,4.67-1.81S180.17,80,178.62,79a33.08,33.08,0,0,1-7.45-7.25C169.66,69.88,168.49,67.46,170.6,65Z"/><path class="cls-1" d="M101.6,81c3.32.44,6.84-1,10,1h-10C101.61,81.7,101.6,81.37,101.6,81Z"/><path class="cls-1" d="M117.6,84c-1.41,1.67-3.35.73-5,1l-4.94,0c2.11-1.88,4.67-.59,7-1Z"/><path class="cls-1" d="M66.36,41.63C73.88,39.31,81,39.2,88,38.1c10.77-1.71,21.6-3.1,32.42-4.46,14.6-1.83,29.18-3.72,43.64-6.5,3.1-.6,6.15,1.08,9.18,1.92,1,.28,2,.69,1.95,1.9s-1.28,1.59-2.17,1.73c-3.59.58-7.23.68-10.85,1.22-7.33,1.1-14.66,1.25-21.47,5.25C137.5,41,132.94,40.9,129,40.92c-9.57,0-19,2-28.65,1.26C91,41.45,81.5,43.76,72,43,70.44,42.9,68.73,43.58,66.36,41.63Z"/><path class="cls-1" d="M162.68,47.11h-2.09c-3.79-3.28-8.63-2.07-13-3,7.18-2,14.56-2.63,22-3h3.48c-1.63,6,4,2.83,5.55,4.6-3.28,1.31-7-.83-10,1.34A7.92,7.92,0,0,1,162.68,47.11Z"/><path class="cls-1" d="M273.05,13.05c11.11,0,19.11,0,27.11,0,2.29,0,5.23-.14,5.26,3.1,0,3.52-3.05,2.95-5.26,2.84-18.82-.92-37.48,1.43-56.1,3.26-12.42,1.22-24.82,1.63-37.24,2-3.07.09-6.19-.88-9.26-1.48a1.86,1.86,0,0,1-1.22-1.28c0-.94.91-1.29,1.75-1.46,4.86-1,9.68-2.39,14.59-2.89C233.78,15,254.84,11.91,273.05,13.05Z"/><path class="cls-1" d="M208,95.22c1.14-1.73,2.6-1.14,3.81-1.16,33.59-.37,67.19-.77,100.78-1a37.86,37.86,0,0,0,17.21-4.06c5.25-2.61,7.64-6.62,7.78-12.22.1-4.16-.09-8.33.09-12.49.07-1.63-1.13-4.39,1.19-4.67,2.1-.25,2.09,2.72,2.54,4.32,2.19,7.82,4.4,15.65,6.05,23.59,1,4.81,5.44,7.83,5.66,13.06.18,4.41-1.34,7.09-5.62,7.39-5.56.38-11-.06-16-2.66-7.5-3.9-15.12-5.35-23.55-3.44-10.15,2.3-20.54.75-30.82,1.08-18.8.6-37.27-2.54-55.83-4.8C216.73,97.68,212.19,97.64,208,95.22Z"/><path class="cls-1" d="M325.6,45c-5-3.51-10.88-2.75-16.27-2.82-28.32-.37-56.65-.2-85-.14a29.29,29.29,0,0,1-9.77-1.72c3.8-2.78,7.91-2.55,11.57-3.11,27.06-4.1,54.34-3.49,81.58-3,4.91.09,9.9.75,14.87.81-1.11,3.68-4.28,3.49-6.9,3.05-19.87-3.34-39.87-1.21-59.81-1.44C249.5,36.58,243,38,236.64,39.26c24.17.61,48.35.31,72.52.37,7,0,14,.32,20.37,3.76,1.22.66,2.71,2,4.06.62,1.09-1.12.62-2.86.46-4.32-.21-1.93-1.44-2.87-3.31-3.15-2.73-.41-5.73.68-8.14-1.49,3.4-2.07,7.11-.92,10.65-.78,2.18.08,3.3,2,3.34,4.28a29,29,0,0,0,.19,4.48c1,6.1.68,6.48-5.18,5A7.94,7.94,0,0,1,325.6,45Z"/><path class="cls-1" d="M325.6,45l6,3c0,.33,0,.67,0,1a19.56,19.56,0,0,1-8-4Z"/><path class="cls-1" d="M322.61,45c-2.33-.38-4.9.92-7-1C317.93,44.41,320.5,43.14,322.61,45Z"/><path class="cls-1" d="M275.56,46.09c2.74,1.86,5.82.81,8.73.87,7.39.17,14.78.06,22.8.06-2,1.74-4.29.23-5.54,2-3.53,2.79-7.72,1.75-11.48,1.4-14.2-1.32-28.41-.41-42.6-.81-1.81-.3-3.82,0-5.11-1.8a1.68,1.68,0,0,1,.26-1.72Z"/><path class="cls-1" d="M182.6,55c.1-2.34-1.21-4.88,1-6.92,3.71-2.09,7.75-.63,11.62-1.07,3.81-.16,7.64.37,11.44-.36,2.3,0,4.63-.55,6.89.32h2.12c2.26-.84,4.56-.48,6.86-.22a1.2,1.2,0,0,1-.06,1.59c-2.69,1.69-5.69.79-8.55,1-3.19-.31-6.27.54-9.28,1.29A50.63,50.63,0,0,1,192.57,52C189,52.28,185.86,53.81,182.6,55Z"/><path class="cls-1" d="M195.54,48l-11.95.12,0-.16c-.37-.2-.49-.4-.38-.62s.23-.33.35-.33c5.57-2,11.35-.45,17-1,4.29.61,8.77-1.17,12.94,1l-6.94.11C203,48.28,199.15,46.73,195.54,48Z"/><path class="cls-1" d="M222.58,47.08,215.65,47c3.37-2.07,7.07-.76,10.6-.92,5.44-.24,10.9,0,16.36,0,0,.33,0,.65,0,1-2.42,2.12-5.37,1.13-8.11,1.41C230.52,48,226.32,49.53,222.58,47.08Z"/><path class="cls-1" d="M246.63,48.06c18.32-.13,36.63,0,54.93.93l9,.06c3.88,4.14,6.21,8.79,4.92,14.67s.18,11.92-1.36,17.82c-.86,3.28-1.86,5.07-5.69,4.24a14.21,14.21,0,0,0-7.83.24c-9.66.3-19.37-.69-29,1l-24-.05c-10.37-1-20.77-.16-31.16-.49-2.28-.07-4.62.52-6.85-.45-8.23-1.78-16.57-3.24-24.17-7.14a37.31,37.31,0,0,1-5.92-3.64C171,68.71,172,61.74,182,57.29c4.06-1.81,7.84-4.42,12.57-4.28,5.91-2.78,12.27-3.46,18.66-4,3.27-.26,6.6.52,9.82-.62a115.64,115.64,0,0,1,19.25-.12C243.77,48.4,245.22,48.88,246.63,48.06Z"/><path class="cls-1" d="M326.61,84.05c-3.78,3.13-8.74,2.44-13,4h-2c1.37-4.75,3.1-9.42,3-14.48.05-4-.32-8,.53-11.86,1.06-4.89-3.07-8.22-3.6-12.61,6-2.34,14.88-.63,19,3.59,1.07,1.09,1.05,2.37,1.05,3.7,0,7.32-.23,14.64.09,21.94C331.88,82.3,328.9,82.69,326.61,84.05Z"/><path class="cls-1" d="M311.54,49.08c5.7,7.6,3.81,16.42,4,24.9-3-.84-1.15-3.21-1.34-4.79-.25-2-.57-4.17.35-6.17,1.17-5.38-2.87-9.26-4-14A8.19,8.19,0,0,1,311.54,49.08Z"/><path class="cls-1" d="M181.63,87c2.63-1.14,2.59-4.06,4-6,6.71,3.09,14.11,3.87,21,6.24.1,0,.19.27.17.41s-.15.28-.23.43l-14-.09C189.06,86.69,185.2,88.39,181.63,87Z"/><path class="cls-1" d="M222.62,49.05c-1.31,1.47-3.09,1.05-4.66.94-8-.57-15.68,1.35-23.38,3a2.14,2.14,0,0,0-2-1c6.94-1.8,13.89-3.52,21.09-3.91C216.55,49.33,219.74,47.74,222.62,49.05Z"/><path class="cls-1" d="M209.58,86.05c11.11,0,22.21,0,33.32,0,1.59,0,3.36-.54,4.69.93l-15,.07-10,0C218.28,86.45,213.78,88.22,209.58,86.05Z"/><path class="cls-1" d="M314.57,63c.57,3.63-1.09,7.47,1,11-.51,4.91-1.21,9.77-3.95,14H293.72c0-.28,0-.55,0-.83h13.6c0-.39.05-.79.07-1.18h-6.8c2.7-2,5.77-.74,8.66-.9,2.21-.13,3-.8,3.45-3.11a80,80,0,0,0,.94-13.81C313.66,66.45,313,64.52,314.57,63Z"/><path class="cls-1" d="M181.63,87c3.66.5,7.49-1,11,1-4.65.57-9.45-1-14,1l-13.05,0-6-.11c3.17-1.88,6.64-.47,9.94-.92,2-.27,4.24.78,6-1Z"/><path class="cls-1" d="M192.6,40c-4.32,3.83,1.86,2.4,2,4-3.12,0-6.24,0-9.36,0-.78,0-1.8.14-2-.89-.29-1.26.69-1.75,1.67-1.94C187.43,40.68,189.92,39.65,192.6,40Z"/><path class="cls-1" d="M183.59,47l0,1-12,.11c-3-.49-6.14,1-9-1l5.91-.14Z"/><path class="cls-1" d="M396.5,101c-7.12.85-14.75-1.54-22.4-4.56-4.62-1.82-6.13-4.73-5.42-9.17a24.56,24.56,0,0,1,1.91-6.12c2.51-5.67,4.51-6.36,10-3.63,9.65,4.77,19.25,9.64,27.13,17.18C409,95.93,411,97,410.31,99.17c-.84,2.55-3.23,1.8-5.12,1.86C402.7,101.1,400.21,101,396.5,101Z"/><path class="cls-1" d="M377.58,60c.14,2.46-.78,4.55-3.26,4.89-6.87.93-10.21,5.58-12.77,11.26a25.76,25.76,0,0,1-1.34,2.68c-.73,1.21-1,3.17-3,2.81-1.57-.29-1.64-2-2-3.2q-3.36-13-6.63-26c-.53-2.09-1-4.19-1.51-6.28-1.09-4.49,1.71-10.09,6-11.71,2.24-.84,4-.26,4.37,2.41.16,1.14,0,2.33.1,3.49.48,6.44,3.85,9.85,10.23,9.67C376.74,49.72,376,50.64,377.58,60Z"/><path class="cls-1" d="M437.46,99.08c-.95,1.84-.8,3.85-.9,5.84a4,4,0,0,1-3.68,4c-2.24.34-3.85-.35-4.42-2.87a10.59,10.59,0,0,0-3.21-5c-.66-.67-1.58-1.77-1.42-2.46,1.22-5.37,5.67-3.24,9-3.6C435.62,94.77,437.92,95.39,437.46,99.08Z"/><path class="cls-1" d="M428.58,118.09a5.51,5.51,0,0,1-4.22,4.73,2,2,0,0,1-2.57-2.26c.27-2.37,1.37-4.6,3.89-5.27C427.51,114.8,428.35,116.15,428.58,118.09Z"/><path class="cls-1" d="M403,110.11c2.66,0,5.32-.06,8,0a3.58,3.58,0,0,1,3.11,2.2c.76,1.61-.68,2.42-1.58,3.28-4.49,4.31-16.88,3.85-20.61-.92-2.47-3.17.37-4.19,2.64-4.51a59.65,59.65,0,0,1,8.46-.09Z"/><path class="cls-1" d="M315.64,20.16c.47-2.59,1.18-5.9,5.57-6.07,3.15-.12,7.31,3.24,7.25,5.68-.06,2.93-4.9,6.23-9.14,6.25C316.3,26,315.45,24.88,315.64,20.16Z"/><path class="cls-1" d="M444.6,85c0-.33,0-.66,0-1a2.11,2.11,0,0,1,2-.94c.52.67,1.56.24,2.05,1C447.55,85.39,446,84.92,444.6,85Z"/><path class="cls-1" d="M448.67,84.07a2.21,2.21,0,0,1-2.05-1l5-.06c0,.32,0,.64,0,1Z"/><path class="cls-1" d="M393,34.06c16.91.14,33.79.68,50.47,3.81,1.4.26,3.32,0,3.66,1.91s-1.35,2.47-2.59,3.28c-.28.18-.66.28-.84.52-7.17,9.64-17,6.45-26.42,5.59-3.28-.3-5.59-2.12-7.5-4.47-4.27-5.22-9.73-7-16.35-6.72-6.15.3-12.33.09-18.49,0-1.24,0-3,.4-3.08-1.56s1.54-2.38,3.15-2.38C381,34,387,34.06,393,34.06Z"/><path class="cls-1" d="M480,86c-3.36.2-6.51,0-4.58-5.38.82-2.27-.15-4.56-1.34-6.66q-5.76-10.19-11.45-20.41c-.81-1.45-1.73-2.85-2.39-4.36-1.35-3.09.42-5.3,2.75-6.67,2.59-1.52,4.46.25,5.58,2.52C474.45,57,480.34,69,486,81,487.75,84.78,486.17,86.06,480,86Z"/><path class="cls-1" d="M440.09,81.09a25.53,25.53,0,0,1-3.18-.18c-1-.19-2-.72-1.87-2a2,2,0,0,1,2-1.8c1.15-.13,2.33-.08,3.49-.11,4.5-.11,7.3-2.65,8-7.12a81.39,81.39,0,0,1,1.89-9.72c1.08-3.7,4-4.45,6.1-1.46a83.32,83.32,0,0,1,7.59,12.84c1.76,3.74-.08,6.79-4.06,7.32C453.4,79.81,446.64,80.39,440.09,81.09Z"/><path class="cls-1" d="M460.6,103c-2.15-.46-5.69,1.26-6.24-1-.74-3,3.8-2.88,5.24-5a2.58,2.58,0,0,1,1.89-.47c1.55.22,3.62-.83,4.5,1.13,1,2.2-.92,3.25-2.38,4.34Z"/><path class="cls-1" d="M463.6,102c.44-1.45,2.83-2.49,1.49-4.18s-3.64-.52-5.49-.82a2.73,2.73,0,0,1,2.62-1c1.87.11,4.4-.69,5,1.83S465.94,101.62,463.6,102Z"/><path class="cls-1" d="M43.7,92.47a190,190,0,0,1,39.67-.78c7.11.65,14.31.25,21.47.35,10.63.14,21.28-.49,31.88,1,1.52.21,3.13.29,4.22,1.29,6.73,6.13,15.47,5.16,23.47,6.7,4.53.87,9.18,1.13,13.75,1.83,1.51.23,3.88-.14,4,2.11s-2.38,2.35-3.95,3.12c-8.46,4.14-17.1,3.8-26.1,1.77-13.24-3-26.81-4-40.24-5.77-10-1.34-20-2.51-30-4.07C70.75,98.25,59.5,97.5,48.49,95.12,46.85,94.76,45.17,94.82,43.7,92.47Z"/><path class="cls-1" d="M302.85,121c-31.83-.15-63.74,1.66-95.47-4.65,2.35-2.33,7.86-2.9,13.87-2.24,10.52,1.15,21.12,1.65,31.6,3,16.21,2.1,32.47,1.93,48.74,2a4.06,4.06,0,0,1,1.31.5C302.9,120.08,302.87,120.54,302.85,121Z"/><path class="cls-1" d="M321.69,121.05c-3.88.1-4.8-2.46-5-5.48-.19-2.51,1.24-3.77,3.66-3.47,3.08.39,6.14,1.4,6.13,5.16C326.45,120,324.24,121.08,321.69,121.05Z"/><path class="cls-1" d="M54.6,73.05c-2.48-.15-4.35-2.4-7-2-3.27-4.29-3.27-4.3,1.91-6.93,5.81-3.5,12.47-3.3,18.82-3.94,16.92-1.71,33.87-3.24,50.8-4.9,10.19-1,20.39-2.41,30.64-2.6,6.28-.11,12.24,2.83,18.63,2.71,1.57,0,2.08,1.5,1.2,3-.76,1.29-1.74,2.43-2.47,3.74-2.86,4.84-1.89,9.15,1.74,13.16,1.07,1.18,2.79,2.32,2,4.22C170,81.65,167.75,81.12,166,81c-7.3-.5-14.38,2.07-21.75,1.12-12.61-1.63-25.31-2.5-38-3.68-10-.94-20-2.39-30.14-2.58-.53-.16-1.07-.32-1.61-.45-3.2-.76-6.48-.1-9.7-.46a6.91,6.91,0,0,1-1.54-.49C60.5,73.41,57.29,74.85,54.6,73.05Z"/><path class="cls-1" d="M166.6,62c-.51-2.37,3.76-3.39,2.06-5.43-.9-1.07-3.87-.15-5.71-.74-12.26-3.9-24.45-1.32-36.71,0-12,1.29-24.06,2.11-36.09,3.18-11,1-22.08,1.91-33.09,3.18-2.89.33-5.65,1.84-8.46,2.81a3,3,0,0,1-2.52.45L45.6,65c7-4.66,15.22-5.09,23.22-5.95Q89,56.9,109.19,55.13C122,54,134.86,53.18,147.68,52c7.4-.7,14.24,3,21.65,2.19,2.75-.3,2.67,2,1.59,3.83-1.27,2.11-2.86,4-4.31,6A1.36,1.36,0,0,1,166.6,62Z"/><path class="cls-1" d="M166.6,62v2c-.62,5,.67,9.16,4.78,12.34,1.26,1,2.79,2.22,1.8,4.17s-2.81,1.34-4.44,1.49c-21.2,2-42.18-.39-63.18-2.91-8.84-1.06-17.77-1.46-26.66-2.07a10.19,10.19,0,0,1-4.3-1c-.25-.22-.34-.45-.25-.67s.17-.33.26-.33c14.52.38,28.89,2.48,43.33,3.8,16.51,1.5,33.05,3.61,49.67,1.21.94-.14,2.33.22,2.45-1,.07-.77-.81-1.7-1.41-2.44C165.09,72.13,162.14,67.61,166.6,62Z"/><path class="cls-1" d="M74.61,75v1c-6.41.06-12.81,0-19-2a13.92,13.92,0,0,1,8,0h1c3.21,1.42,6.75-.37,10,1Z"/><path class="cls-1" d="M45.6,70.05c-1.91,0-4-.17-3.78-2.76C42,65.09,43.89,65,45.61,65h0A8.43,8.43,0,0,0,45.6,70.05Z"/><path class="cls-1" d="M45.6,70.05c-1.61-1.67-1.65-3.34,0-5h3c-3.51,1.47-1.62,3.84-1,6A2.06,2.06,0,0,1,45.6,70.05Z"/><path class="cls-1" d="M63.61,74h-8l-1-1C57.59,73.47,60.79,72.05,63.61,74Z"/><path class="cls-1" d="M237.49,96.32a17.53,17.53,0,0,1,2.27-.26c25.26.13,50.5-1.81,75.76-1,7.61.25,13.69-3.23,19.63-7.19,3.09-2.06,4.4-5.31,4.45-9,0-2.31,0-4.61,0-7.71,3.29,2.94,3,6.47,3.88,9.44,1.59,5.54,2.6,11.13,6.07,16.12,3.61,5.2,1,8.94-5.13,9.41-5.12.39-9.69-1.29-13.83-3.41-8-4.07-15.86-4.52-24.48-2.82-12.47,2.47-25.19,1-37.79,1-10.35,0-20.59-1.89-30.82-3.33C237.49,97.17,237.49,96.74,237.49,96.32Z"/><path class="cls-1" d="M322.61,35h5c7.46,0,9,1.84,8,9.36-.29,2.3-1.27,3.22-3.21,2-10.54-6.78-22.36-5.25-33.91-5.3-19.16-.08-38.32,0-57.49,0A22.27,22.27,0,0,1,231.19,39a119.8,119.8,0,0,1,26.7-3.83c15.15-.41,30.32-.2,45.48,0a47.36,47.36,0,0,1,10.8,1.39A9.48,9.48,0,0,0,322.61,35Z"/><path class="cls-1" d="M222.62,49.05c-3-.47-6.14,1-9-.95l8.91-.11c3.92-1.26,8.08.44,12-.94h8c1.06,1.44,2.65.82,4,1-5.08,2.09-10.39.53-15.58.94C228.25,49.23,225.43,49.05,222.62,49.05Z"/><path class="cls-1" d="M234.57,47.05c-3.87,2-8,.59-12,.94,0-.31,0-.61,0-.92Z"/><path class="cls-1" d="M195.54,48c3.55-2,7.37-.56,11.05-.88C203,49.06,199.22,47.6,195.54,48Z"/><path class="cls-1" d="M254.32,83.05c-15.08,0-26.41,0-37.73,0-9.83,0-18.93-3-27.92-6.49a20.18,20.18,0,0,1-7.26-5.15C177.24,67,177.69,64,183,60.84c7.2-4.2,15.25-5.7,23.28-6.68A358.4,358.4,0,0,1,250,52.05l48,0c9.85,0,12.61,2.83,12.61,12.83,0,3.33.18,6.68-.08,10-.42,5.27-2.43,6.81-7.62,7.19C285.47,83.38,268,82.93,254.32,83.05Z"/><path class="cls-1" d="M328.52,68.49c-.7,3.24,1.85,8-2.45,11.69-1.85,1.57-3.74,2.33-5.91,1.69-2.47-.73-1.48-3.05-1.52-4.71-.15-6.25.75-12.48.07-18.76-.23-2.18-1.31-6,2.34-6,3.48,0,6.89,2,7.4,6.13C328.82,61.48,328.52,64.52,328.52,68.49Z"/><path class="cls-1" d="M396,99c-7.49,1-14.75-2.64-22.26-5.12-2.37-.78-3.28-2.61-3.13-5.06a23.87,23.87,0,0,1,2.56-8.52,3.51,3.51,0,0,1,5.43-1.64c8.61,5.24,18.09,9.08,25.78,15.81,1.07.93,3,1.73,2.4,3.38s-2.57,1.1-4,1.14C400.78,99.08,398.78,99,396,99Z"/><path class="cls-1" d="M430.16,96c2.48.06,5.54.33,4.82,3.72-.48,2.27,1.14,5.62-2.3,6.9-.91.34-6.92-6.48-6.9-7.84C425.85,95.88,428.08,96.12,430.16,96Z"/><path class="cls-1" d="M402.66,112.05c2.16,0,4.33,0,6.49,0,1,0,2.09.14,2.22,1.45a2.2,2.2,0,0,1-1.57,2.29c-4.94,2.09-9.74,1.51-14.4-.9-.73-.38-1.5-.92-1.27-1.89s1.24-.94,2-1C398.33,112,400.49,112.05,402.66,112.05Z"/><path class="cls-1" d="M320.84,24c-2.69-.16-3.36-1.7-3.2-3.78.22-2.79,1.83-4.18,4.59-4.16,2.29,0,4.27,1.23,4.12,3.42C326.14,22.67,323.22,23.39,320.84,24Z"/><path class="cls-1" d="M464.45,44.33a4,4,0,0,1,3,2.51C472.92,58,478.3,69.15,483.73,80.3c.79,1.63.82,3.11-1.13,3.48-1.76.33-4.67,1.3-4.82-1.63-.57-11.31-8.83-19-13.1-28.48-.74-1.65-1.87-3.14-2.59-4.8C461,46.43,462.58,45.23,464.45,44.33Z"/><path class="cls-1" d="M452.8,78c-3.89.43-4.77-1-3.49-4.66a63,63,0,0,0,2.24-9.66c.28-1.53.33-3.09,2.21-3.44,1.62-.3,2.32.91,3,2.1,1.76,3,3.85,5.86,5.28,9,1.22,2.69,1.09,5.42-2.95,5.67C457,77.16,455,78.47,452.8,78Z"/><path class="cls-1" d="M173.12,105c-5,5.24-10.7,3.93-16.09,2.86-20.6-4.06-41.47-6.21-62.26-8.9-6.83-.88-13.61-2.13-21.1-3.33,3.22-2.57,6.41-1.89,9.08-1.48,11.27,1.72,22.58.41,33.85.87,6.45.26,12.91-.43,19.38.83,2.7.53,5,.91,7,2.94,2.31,2.27,5.49,2.86,8.69,3.26C158.86,103,166,104,173.12,105Z"/><path class="cls-1" d="M325.31,117a3.47,3.47,0,0,1-3.68,2.67c-1.82,0-2.8-1.58-2.95-3.38s1-2.21,2.53-2.2A4.07,4.07,0,0,1,325.31,117Z"/><path class="cls-1" d="M74.6,75c-3.32-.45-6.84,1-10-1C67.93,74.49,71.44,73,74.6,75Z"/><path class="cls-1" d="M342.49,104c-6.31.62-11.35-3.08-16.87-5.09-2.43-.88-2.33-2.64,0-3.88,2.92-1.55,5.91-3,8.87-4.47,2.26-1.13,4.32-2.49,5.11-5.08.3-1,.67-2,1.83-2s1.6,1.18,1.81,2.07c1.11,4.67,2.53,9,5.76,12.9,2.3,2.76.32,5.46-3.54,5.57C344.48,104.06,343.49,104,342.49,104Z"/><path class="cls-1" d="M249.5,38.88A23.38,23.38,0,0,1,260.58,36c13.33,0,26.67,0,40,0a29.27,29.27,0,0,1,6.87,1,34.53,34.53,0,0,0,18.14-.64c5.84-1.74,8.1,0,8,4.46,0,3.2-1.62,4-4.09,2.61-6.25-3.61-13-3.45-19.87-3.39-10.67.08-21.34.17-32,0C268.28,39.82,258.89,39.27,249.5,38.88Z"/><path class="cls-1" d="M260.35,56c15.86,0,28.5.07,41.15,0,3.14,0,4.74.77,5.45,4.19a34.19,34.19,0,0,1,.4,11.87c-.91,6.43-1.85,7-8.46,7-26.58,0-53.16,2.07-79.73.85-11.87-.54-23.75-2.41-33.94-9.52-3.74-2.6-3.43-5.12.68-7.28,7.64-4,16.09-5.06,24.39-5.92C228,55.34,245.79,56.13,260.35,56Z"/><path class="cls-1" d="M321.61,67.29c0-2.82,0-5.63,0-8.45,0-1.15-.05-2.51,1.61-2.54a2.1,2.1,0,0,1,2.23,2.2c.07,5.79.09,11.59-.06,17.38,0,1.33-1.21,2.76-2.56,2.62-1.86-.19-1.16-2.06-1.21-3.26C321.54,72.6,321.6,69.94,321.61,67.29Z"/><path class="cls-1" d="M460.49,72.6c-1,3-3.62,2.94-5.71,3.28-2.27.37-3.8-1.46-2.94-3.36,1.19-2.64-.71-7.74,3.28-7.67C458.36,64.92,458.53,70,460.49,72.6Z"/><path class="cls-1" d="M323,38.87c2.79-.71,4.48-1.15,6.18-1.56A2.39,2.39,0,0,1,332.37,39c.35,1.08.64,2.42-.25,3.31-1.1,1.1-2.13-.14-3.11-.54C327.34,41,325.75,40.17,323,38.87Z"/></g></g></svg>