<svg xmlns="http://www.w3.org/2000/svg" viewBox="0 0 544.37 154.91"><defs><style>.cls-1{fill:#fff;stroke:#000;stroke-miterlimit:10;}</style></defs><title>Asset 6</title><g id="Layer_2" data-name="Layer 2"><g id="Layer_1-2" data-name="Layer 1"><path class="cls-1" d="M529.58,50.39c6.32,9.76,12.25,19.64,13.94,31.5,2,14.22-5.15,23.5-15.14,32.38-6.91,6.14-14,7.8-22.65,7.2-13.56-.94-27.16-1.39-40.73-2.1a11,11,0,0,1-9.06-5.41q-3.6-5.67-6.83-11.58c-2.09-3.83-4.93-5.84-9.49-6.08a129,129,0,0,1-15.22-2.14,8.34,8.34,0,0,0-9.54,9.73c1.77,11.1.95,22.24-.52,33.23C413,146.83,403,154.39,393,154.4H361.49c-13.16,0-22.89-9.75-22.89-22.9,0-9-.07-18,0-27,0-3.88-1.43-6.2-5.33-7.19a45.12,45.12,0,0,1-7.88-3,9.43,9.43,0,0,0-6.82-.64c-11.45,3.57-23.16,1.07-34.72,1.69-3.26.17-5.62-2.06-7.14-4.77-1.44-2.55-3.45-3.25-6.2-3.18-5.33.13-10.66.06-16,0a9.48,9.48,0,0,0-4.83,1c-10.86,6-21.71,6.19-32.52-.13-1.69-1-3.54-.8-5.36-.81q-53.24,0-106.47,0c-3,0-5.71.29-7.77,2.58-1.52,1.68-3.67,1.82-5.5,2-6.6.68-13.25,1-19.82-.57a3.57,3.57,0,0,1-2.66-2,2.6,2.6,0,0,1,2.15-.66c1.54.32,3.1.5,4.63.88,5.19.46,10.38,1.11,15.49-.56,7.05-5,15-5.2,23.33-5.14,31.47.22,62.94.11,94.41.06A26.93,26.93,0,0,1,221,86.78a29,29,0,0,0,24.95,0c3.39-1.6,6.66-2.92,10.46-2.72a45.35,45.35,0,0,0,6.49,0c7.4-.64,14.27,0,18.82,7A10.87,10.87,0,0,0,287.07,92c10.58-.52,21.14.66,31.79-1.68,7.43-1.63,14.51,2.62,21,6.41,2.19,1.28,2.13,4,2.14,6.36,0,9.16,0,18.33,0,27.49.08,11.69,7.75,19.41,19.23,19.42q16.25,0,32.49,0a18,18,0,0,0,17.49-17.22c.16-9.33.22-18.66,0-28-.13-4.9,2.08-8.65,4.67-12.34,1.9-2.7,4.91-2.68,7.74-2.28,6.58.93,13.12,2.16,19.69,3.15,4.27.64,7,3.74,8.94,7.37,1.83,3.37,3.7,6.71,5.7,10s4.82,5.27,8.57,5.22c15.48-.17,30.83,2.24,46.31,2.17a13.14,13.14,0,0,0,9.79-4c4.28-4.18,9.09-7.8,13.14-12.24,1.36-1.49,3.19-2.95,3.18-4.95-.07-9.18,2.12-18.46-2.79-27.37-2.93-5.32-6.21-10.66-7.5-16.79A3.15,3.15,0,0,1,529.58,50.39Z"/><path class="cls-1" d="M529.58,50.39c0,.67,0,1.34,0,2-3.05.26-3.77-2.38-4.93-4.22-2.83-4.51-5.84-8.92-8.42-13.58-2.49-4.49-6.16-6.15-11.13-5.93-4.16.19-8.33,0-12.49,0a9.2,9.2,0,0,1-7.84-3.6,22,22,0,0,0-8.71-6.51C465.93,14,456.58,7.86,445.34,5.7c-12.17-2.35-24.09-1.75-36.06.82a18.47,18.47,0,0,1-3.49.27c-14.72,1.54-29.63,2.64-43.26,8.88-12.85,5.89-26.21,5.35-39.68,5a6.41,6.41,0,0,1-3.35-.91c-10.75-7-22.69-3.11-34.12-3.71a6.2,6.2,0,0,0-5.72,3.49c-1.78,3.4-4.72,4.34-8.34,4.28-6-.1-12,0-18,0a13.23,13.23,0,0,1-5.86-1c-9.43-4.56-18.85-4.42-28.26.05a13.38,13.38,0,0,1-5.86,1c-36.48,0-72.95-.07-109.43.12-4.28,0-7.45-2.75-11.44-3-4.66-.12-9.32-.05-14-.06a11.3,11.3,0,0,0-5.35.93c-10.72,5.58-22.18,2.4-33.34,2.7a6,6,0,0,1-5-2.93c-2.09-3.29-5.06-3.81-8.61-3.68-5.15.19-10.32,0-15.47.07C6,18,4.56,19.36,4,24.09a27.08,27.08,0,0,0-.07,3q0,27.21,0,54.41c0,7.48,2,9.59,9.46,9.44,6.12-.12,12.3.9,18.35-.77C37.92,82.31,46.63,84,54.84,84c4.58,0,9.24-.7,13.68,1.12a6,6,0,0,1,2.12,1.31c.74.83,1.38,1.7.9,2.91h-2a9.48,9.48,0,0,0-6.45-2c-6.83.16-13.66.14-20.49,0-2.75,0-4.78.63-6.19,3.2-1.6,2.91-4.32,3.9-7.57,3.86-6.5-.07-13,0-19.49,0C3.77,94.3.72,91.88.66,86.28Q.33,54,.66,21.81c0-4.1,2.4-6.81,7.09-7.55A73.41,73.41,0,0,1,31,14.34c2.43.39,4.45,1.07,5.74,3.37,1.63,2.92,4.19,3.88,7.54,3.72,5-.24,10-.21,15,0,4.28.16,8.31-.26,11.77-3a5.12,5.12,0,0,1,3.76-1c8.76.68,18-2.21,26.15,3.51,1.17.82,3.23.46,4.88.46q52.72,0,105.45,0c3.1,0,5.91-.35,8.38-2.45a8.18,8.18,0,0,1,5.64-1.61c4.83.08,9.67.15,14.49,0,3.11-.11,6,.28,8.35,2.41a7.55,7.55,0,0,0,5.56,1.66c4.33-.08,8.67-.17,13,0,4.85.2,9.3.26,11.32-5.57.65-1.89,3.06-2.44,5.15-2.44,10,0,20,0,30,0a6.3,6.3,0,0,1,2.85.75c11.16,6.1,23.33,4.46,34.43,1.93,14.77-3.37,28.84-9.79,44.18-11.23C406.46,3.76,418.08,0,430,.55c11.71.51,23.33,1.94,33.74,8.71a84.91,84.91,0,0,0,18.8,9.12,18.3,18.3,0,0,1,5,5,3.46,3.46,0,0,0,2,2c5.7,1.11,11.45.2,17.17.53,1.94.11,3.95-.49,5.82.47,7.27,5.67,10,14.52,15.3,21.62C528.46,48.79,529,49.6,529.58,50.39Z"/><path class="cls-1" d="M512.58,26.39c-6.12,0-12.23,0-18.35,0-1.59,0-3.35.54-4.65-1,6.12,0,12.23,0,18.35,0C509.52,25.43,511.29,24.87,512.58,26.39Z"/><path class="cls-1" d="M487.58,23.39a15.51,15.51,0,0,1-5-5A5.88,5.88,0,0,1,487.58,23.39Z"/><path class="cls-1" d="M406.58,5.39c4.58-.67,9.15-1.39,13.74-2A70.73,70.73,0,0,1,464,11.19c8.1,4.36,17.58,6.62,23.3,14.82,1,1.38,2.91,1.42,4.63,1.39,3.33,0,6.73.41,10-.09,8.82-1.36,13.9,2.91,17.83,10.23,2.8,5.2,5.5,10.59,9.8,14.86,2.38,5.29,4.23,10.91,7.27,15.79,3.6,5.77,3.34,11.87,3.91,18.16.81,8.92-1.6,15.85-8.83,21.29-3.83,2.88-7.17,6.41-10.76,9.61a8.79,8.79,0,0,1-5.94,2.16c-16.62.37-33.1-2.33-49.71-2.18-4.28,0-7.2-2.84-9.31-6.58-11.38-20.14-6.51-14-27.76-18.27-.65-.13-1.33-.09-2-.21-8.77-1.69-13.78,2.36-13.85,11.39-.07,9.66,0,19.31,0,29,0,9.94-8.95,18.87-18.77,18.87h-34a19.57,19.57,0,0,1-19.23-19.3c-.08-9.82-.11-19.65,0-29.47.05-3.48-1-5.59-4.56-6.63-4.13-1.21-8.13-2.88-12.17-4.41-3-1.15-5.8.22-8.71.69a108.3,108.3,0,0,1-33.62.1c-.18-1.16.63-1.59,1.47-2,7.61-.89,15.25-.19,22.88-.42a26.14,26.14,0,0,0,5.45-.31c1.06-.41,2.14-.78,3.22-1.15a8.49,8.49,0,0,1,1.66-.37c8.33-.68,15.59,2.78,22.79,6.16,3.65,1.71,4.85,5.24,4.87,9.18,0,8,.62,16-.14,23.93-.91,9.37,3.13,15.56,10.35,20.47a16.7,16.7,0,0,1,1.57.65c13.94.92,27.89.31,41.83.31a7,7,0,0,0,2-.93,16.74,16.74,0,0,0,2.62-2.28,40.52,40.52,0,0,0,6.28-8c.18-.44.38-.87.56-1.3.46-1.45.52-3,1-4.43.43-10.81,0-21.61.23-32.4a9,9,0,0,1,2.2-5.39c.63-.87,1.26-1.75,1.91-2.61,1.87-2.41,4.3-3.83,7.37-3.25,7.35,1.38,14.81,2.06,22.14,3.6A12.29,12.29,0,0,1,452.44,98c2.35,4,4.57,8.12,7,12.09a7.2,7.2,0,0,0,6,3.85c12.44.61,25,.76,37.26,2.34,10.74,1.38,18.81-1.11,25.35-9.57,1.38-1.79,3.64-2.85,5.32-4.48,3.29-3.19,4.49-6.92,5-11.51,1.37-12.64-4.28-23-10-33.35-4.24-7.71-9.14-15.07-13.82-22.55a7.74,7.74,0,0,0-3.47-3.48C506,30,500.7,30.77,495.49,30.8c-4.46,0-8.44-.71-11.79-3.78a4.73,4.73,0,0,1-1.33-.44,9.37,9.37,0,0,1-1.82-3c-2.64-2.95-6.55-3.72-9.75-5.69A88,88,0,0,0,431.69,5.28a8.14,8.14,0,0,0-5.79.14c-6.43.81-12.7,2.93-19.29,2.22A1.61,1.61,0,0,1,406.58,5.39Z"/><path class="cls-1" d="M282.58,91.39l-1,1c-1.05,0-2.18-.31-2.53-1.31-1.94-5.64-6.4-6-11.33-5.73-4.32.2-8.66.11-13,0a12.28,12.28,0,0,0-6.2,1.52c-10.23,5.46-20.45,5.56-30.57-.3a11,11,0,0,0-5.76-1.21c-35.79,0-71.58.12-107.37-.1-5.37,0-8.41,4.58-13.26,5.1a54.3,54.3,0,0,1-16,0c-1.38-.15-3,.46-4-1l-1-2a2.56,2.56,0,0,1,2.11-.68c1.5.29,3,.51,4.52.88,4.71.6,9.4.9,14.08-.25,1.37-.47,2.65-1.14,4-1.6a16,16,0,0,1,9.41-2.79c37.32.08,74.64-.08,112,.09a6.16,6.16,0,0,1,5.4,3.19c3.69,2.29,7.76,1,11.64,1.07,4.8.1,10,1.45,13.8-3.21a120.87,120.87,0,0,1,30.17.13c.94.13,1.63,1.1,2.21,1.87-.43.48.31-.28.27.37,0,.5.41.55.33.32-.46-1.42-.07-3.23-2.69-3.29-9.91-.2-19.82,0-29.72-.13-2.43,0-2.19,2.1-3.33,3.07-7.22,1.78-14.47,1-21.73.43-1.51-1.09-1.56-2.51-.9-4.07a1.41,1.41,0,0,1,1.48-.66c5.07,3.11,10.65,1.77,16.05,1.63,2.48-.06,2.38-2.3,2.56-4.14.27-2.76-.64-5.69,1.19-8.23a1.28,1.28,0,0,1,1.54.11C247.66,79,247.66,79,256.31,79c5.81,0,11.62-.19,17.42.06,4.21.18,6.75-1,6.72-5.62a3.4,3.4,0,0,1,.76-1.82,1.32,1.32,0,0,1,1.55-.34c2.34,3.83,1,8.06,1.18,12.1.13,3.35.83,4.35,4.64,4,8.52-.68,17.13-1.21,25.65.5a1,1,0,0,1,.4,1.46,2.1,2.1,0,0,1-2,1c-8,1.1-16.13.17-24.18.51C286.47,91,284.45,90.38,282.58,91.39Z"/><path class="cls-1" d="M75.58,90.39h16A26.79,26.79,0,0,1,75.58,90.39Z"/><path class="cls-1" d="M72.57,87.4h-2l-1-1c-3-1.9-6.3-1.52-9.57-1.53-5.11,0-10.24.23-15.34-.07-4.5-.26-8.11.59-10.21,5a4.64,4.64,0,0,1-1.87,1.59c-8,2-16.18,1.14-24.22.58-3.81-.26-5.75-3.66-5.75-7.64,0-19.95-.08-39.91,0-59.86,0-6.15,2.15-8,8.18-8.08,5.82-.05,11.64.12,17.46-.07,3-.1,5.35.73,6.75,3.26,1.82,3.29,4.64,3.88,8,3.82,5.32-.09,10.65-.15,16,0,4.73.15,9.27-.13,13.35-2.91a8.86,8.86,0,0,1,5.27-1.15c5,.06,10,0,15,0a1,1,0,0,1-.29,1.47c-3.94,1.71-8.09.61-12.14.87-2.28.15-4.63-.15-6.48,1.66a7.33,7.33,0,0,1-1.37,1.05,20.62,20.62,0,0,1-10.49,2.35c-5.28-.08-10.57-.23-15.84,0-5.77.3-10.79-.86-14.49-5.64-7.66-.78-15.32-.46-23-.18-.66,0,.19,0-.44.21-.14.05,0,.38.34.67A8.7,8.7,0,0,1,9,25.81c0,19.89.16,39.78-.08,59.66,0,1-.38,2,.13,3a73.37,73.37,0,0,0,21.29-.11c.62-.53,1.25-1,1.86-1.58,2.49-3.61,5.92-4.91,10.27-4.78,7.28.21,14.57,0,21.86.08,3.25,0,6.3.54,8.21,3.63A2.17,2.17,0,0,1,72.57,87.4Z"/><path class="cls-1" d="M92.56,20.41c0-.34,0-.68,0-1,12.4,5.41,25.48,2.7,38.25,2.88,27.48.39,55,.11,82.46.14a18.67,18.67,0,0,0,7.06-1.71c8.73-3.46,17.68-4,26.44.25a11.42,11.42,0,0,0,5.2,1.46c7-.06,14-.09,21,0,2.45,0,4.18-.63,5.11-3,1.6-4.09,5.15-4.93,8.94-5,7.33-.1,14.66,0,22,0a11.41,11.41,0,0,1,7.11,1.94c4,3.16,8.59,2.73,13.22,3.19,13.88,1.36,26.5-2.75,39.22-7.48,12.18-4.54,25.15-5.51,38-6.63l0,2a4.23,4.23,0,0,1-3.2,1.35,152.21,152.21,0,0,0-48.37,11c-10.42,4.21-21.24,3.15-32,2.62a2.89,2.89,0,0,1-1.42-.44c-8.72-5.71-18.54-4-28.08-4.14-2.5-.05-5,0-7.49,0s-4.24.65-5.39,2.84c-2.12,4.05-5.65,5.29-10,5.18-4.66-.12-9.33-.17-14,0-4.29.17-8.07-1.25-12-2.59a34.94,34.94,0,0,0-22.32,0,8.63,8.63,0,0,1-3.45,1.37c-24.81.41-49.62.12-74.44.17-15.15,0-30.31.17-45.45-.09a9,9,0,0,1-3.21-.92,9.2,9.2,0,0,1-1.31-.71C93.54,22.33,92.11,22,92.56,20.41Z"/><path class="cls-1" d="M32.58,91.39c2.56-5.78,6.92-7.69,13.19-7.11,5.93.55,11.95.14,17.94.11,2.21,0,4.33.11,5.86,2-9.3-1.92-18.73-.6-28.08-1-2.51-.11-4,1.34-5.3,3.07C35.21,89.76,34.63,91.43,32.58,91.39Z"/><path class="cls-1" d="M511.58,30.39c2.58-.06,3.23,2.22,4.17,3.8,7.44,12.53,15.71,24.56,21.45,38.12,5.64,13.31,2.25,25-7.6,35.22-8.45,8.77-17.05,11.49-28.63,10-12-1.5-24.11-1.5-36.17-2.22a7.31,7.31,0,0,1-6.1-3.78c-1.19-2-2.72-3.88-3.45-6C451.82,95.46,444.14,92,434.31,91.38c-3.29-.19-6.73-.29-9.8-1.31-4-1.34-7.08-.38-9.93,2.33-.14-.22-.28-.45-.43-.67.13-4,3.32-4.34,6.09-5.24,9.76,1.23,19.53,2.44,29.13,4.66a3.93,3.93,0,0,1,1.27.83c1.32,2.58,2.38,5.3,4.13,7.66,1.58,2.52,2.66,5.33,4.45,7.74,1.45,4.42,4.37,5.68,9,5.68,6.94,0,13.88,1.09,20.85.85,9.3,1.12,18.68.75,24.82,1.51-5.47-.4-14.12-.83-22.79-1.11-7.51-.78-15.06-.9-22.57-1.23-4.76-.2-7.8-1.31-9.39-5.77-1.85-2.44-2.77-5.42-4.58-7.89a26.87,26.87,0,0,1-3.47-7.17c.9-1.87,1.91-.87,2.92-.13,2.36,3.4,4.24,7.09,6.28,10.69,2.25,4,5.18,6.85,10.11,6.83,4.31.76,8.65.17,13,.38a15.8,15.8,0,0,1,3.36.38c4.47,1.17,9,.34,13.53.58a33,33,0,0,1,5.79.34c3,.77,6,1.34,9-.16,4.58-3.09,8.15-7.32,12.33-10.83,7.38-6.21,7.21-14.15,4.74-21.87-4.49-14-12.91-26.13-20.62-38.53a8.5,8.5,0,0,0-8.41-4.27,83.86,83.86,0,0,1-9,0,9.42,9.42,0,0,0-6.9,2.18c-2.87,2.5-6.65,2.94-10.21,3.66-5.37,1.09-10.73,2.21-16.12,3.2-1.81.33-3.81.59-5.14,1.75-5.28,4.59-11.54,4.43-17.9,4.23-6-.18-12,.21-17.95-.2A6.11,6.11,0,0,1,418.3,50c-1-.86-2.81-1.45-1.2-3.28,8.67-1.64,17.42-.45,26.13-.67,3.3-.08,6.21-.54,8.47-3.11,7.37-4.36,15.94-3.91,23.89-6,3.47-.89,7.33-.92,8.94-5,4.16-1.8,8.54-.66,12.81-.92,4.47-.28,9,.36,13.44-.38Z"/><path class="cls-1" d="M450.58,92.39l-31.05-5c-2.35.94-6.55,0-4.95,4.93v0a2,2,0,0,1-1,2c-2.95,1.05-3,3.45-3,6-.18,11.7.59,23.41-.47,35.09a3.69,3.69,0,0,1-.5,1.87v0c-1.18,1.31-1.79,3.38-4.17,3a2.71,2.71,0,0,1-.41-1.59,20.76,20.76,0,0,0,1.28-8.25c-.16-22.28.08-44.57-.16-66.85,0-3.25,2.08-6.87-.12-9.66a25.88,25.88,0,0,0-12.31-8.14c-11.81-.14-23.61-.44-35.4.18-3,1.43-5.4,3.72-8,5.8A8.35,8.35,0,0,0,347,60.14c0,24.29,0,48.57,0,72.85a8.39,8.39,0,0,0,1.38,5.18c.71,1.06,1.36,2.41-.24,3.45-3.59-1.16-4.59-3.89-4.58-7.34q0-15.24,0-30.47c0-7.37-.29-7.77-7.26-10.5-3.71-1.46-7.51-2.69-11.27-4-1.46-.51-3.43-.61-3.48-2.89,2.05-1.67,4.12-.63,6.13.06,3.46,1.19,6.94,2.29,10.37,3.57,4.13,1.54,4.93,1,5.05-3.54.23-9,0-18,.1-26.94,0-2-.16-4,.55-5.93,5.53-7.38,11.91-13.15,22.14-11.65a20.55,20.55,0,0,0,4.43-.11c9.38.28,18.85-1,28.08,1.63a31.64,31.64,0,0,0,4,2c6.26,3.19,9.22,7.84,8.79,15.21-.53,9.1-.19,18.25-.06,27.38,0-11.3.05-22.61,0-33.91,0-6.33-.24-6.62-6.24-8.23a51.91,51.91,0,0,1-5.17-1.82c-7.31-2.93-15.19-2.76-22.77-4.2-3.4-.65-6.85-1.06-10.28-1.56-9.24-1.15-18.49-2.24-27.3-5.5-2.63-2.79-2.63-5.32.34-7.49-3.84.76-8.16.2-12.47.38-2,.08-2.81.42-2.67,2.88.88,16.08.19,32.19.42,48.28.05,3.39-1.75,6-3,8.82-1.34,2.6-4.55,1.88-6.39,3.6h-1c0-.35,0-.71,0-1.06-.5-2.62,1.79-3.61,3.07-5.16,1.42-1.73,3.57-3,3.53-5.62-.12-13.81-.1-27.61,0-41.42,0-4-.63-7.54-3.68-10.42-1.16-1.09-2.72-2.71-1.49-4.29,1-1.32,2.75.27,4.16.34,11.73.64,23.54,2.37,34.92-2.29,16.43-6.72,33.61-10.08,51.24-11.35a119.53,119.53,0,0,1,14-2,2,2,0,0,1,1.53,1.77c-1.7,2.76-4.76,2-7.19,2.51-3.05.62-6.19,1.06-9.32,1.41a14.75,14.75,0,0,0-3.16.63c-3.75.17-7.39,1.28-11.15,1.43-15.28,1.37-29.17,7.68-43.55,12.25-.29.13-.6.21-.88.36-1.5.79-4.35.62-4.27,2.39.1,2.26,2.94,1.72,4.67,2.23a157.63,157.63,0,0,0,22.15,3.32,15.37,15.37,0,0,0,3.23.62c10.36,1.33,20.75,2.64,30.64,6.14,10.87,3.84,22,4.24,33.37,3.92,5.4-.15,10.94.65,15.7-2.89a.8.8,0,0,1,.54,1.29c-1.71,3.06-4.25,4.1-7.79,4-9.41-.2-18.82,0-28.24,0-1.75,1-1.61,2.73-1.61,4.41,0,9.14.11,18.29,0,27.43-.06,3.33,1.08,5,4.45,5,8.78,2.34,17.89,2.79,26.74,4.66C448.17,89.42,450.58,89.31,450.58,92.39Z"/><path class="cls-1" d="M321.58,86.39c6,3.63,12.75,5.3,19.28,7.44,3,1,3.82,2.14,3.78,5.1-.15,11.59.05,23.19-.13,34.79-.05,3.55,1,6.1,4.17,7.69.79-.28,1.24.19,1.65.74.89,2.26,3.36,3.53,3.82,6.07a1.84,1.84,0,0,1-.57,1.16c-2.66-2.5-5.45-4.88-7.94-7.54a11.51,11.51,0,0,1-3.14-8.6c.24-9.83,0-19.66.13-29.49.08-4.61-1.69-7.77-6-9.3-6.85-2.43-13.48-5.85-21.11-5.07,1.22-2.59,3.38-3.3,6-3Z"/><path class="cls-1" d="M420.6,6.42c-4.57,1.32-9.31,1.45-14,2-1.22.34-2.7,1.47-3-1l3-.05a162.71,162.71,0,0,1,20-3,6,6,0,0,1,5,0c18-.22,32.79,8.76,48,16.56.9.46,2.89.41,2,2.47-2.11,1.43-3.83,0-5.54-.86-4.78-2.32-9.64-4.54-14.27-7.13-11.66-6.52-24.23-8.52-37.37-8A6.63,6.63,0,0,1,420.6,6.42Z"/><path class="cls-1" d="M420.6,6.42c9.16-1.89,18,.5,26.95,1.86,5.62.85,10.18,3.92,15.14,6.16,6.35,2.87,12.26,6.67,18.88,9,.34,1,.67,2,1,3a1.75,1.75,0,0,1-1.49.24c-5.62-2.87-11.47-5.33-16.87-8.56C454.11,12,443,9.81,431.57,8.48c-2.69-.31-5.29.48-7.93,0a3.74,3.74,0,0,1-2.05-1.13C421.27,7.07,420.93,6.75,420.6,6.42Z"/><path class="cls-1" d="M353.59,148.36c-.95-2.28-4-3.18-4-6.06,3.05-.41,4.23,2.81,6.73,3.46,13.82.38,27.64.35,41.44,0,3.06-1.12,3.78-5.65,7.8-5.4l.08.06c1.24,3.13-2.41,3.79-3,6a3.49,3.49,0,0,1-2,2,8.83,8.83,0,0,1-4.81,1H358.39A8.18,8.18,0,0,1,353.59,148.36Z"/><path class="cls-1" d="M481.66,26.39h.93l1,0c1.24,1,1.41,2.52,1.71,4a2.53,2.53,0,0,1-.67,2c.44,3.42-1.39,4.4-4.5,5.09-9.15,2-18.64,2.57-27.49,5.95,0-.34,0-.68,0-1,1.5-3.58,5-3.47,7.95-4,4.85-.89,9.69-1.85,14.52-2.8,6-1,6-1,5.89-7.48A2.09,2.09,0,0,1,481.66,26.39Z"/><path class="cls-1" d="M409.57,137.4c0-12.89.08-25.78-.05-38.68,0-3.06.62-4.84,4.07-4.33-.57,1.39-2.14,2.27-2,4-1.14,7.55-.16,15.14-.52,22.7-.2,4.1.6,8.24-.46,12.3C410.45,134.78,411.05,136.35,409.57,137.4Z"/><path class="cls-1" d="M353.59,148.36l47,0-1,1c-6.24,1.1-12.52.44-18.78.42-8.74,0-17.5.64-26.23-.42h-1C353.59,149,353.59,148.7,353.59,148.36Z"/><path class="cls-1" d="M354.58,149.39h45c-.82,1.06-2,1-3.16,1H357.75C356.59,150.38,355.4,150.46,354.58,149.39Z"/><path class="cls-1" d="M484.56,30.44c-1.4-1.08-.83-2.65-1-4,.2-.68.2-2.09,1.25-.56,2.15,3.13,5.25,3.44,8.71,3.62,6,.31,12.15-1.3,18.07.93h0c-2.41,1.72-5.18,1.06-7.75.93C497.41,31,490.9,32.5,484.56,30.44Z"/><path class="cls-1" d="M410.59,133.4c0-10,0-19.9,0-29.85,0-1.74-.66-3.69,1-5.16,0,10,0,19.89,0,29.84C411.53,130,412.19,131.92,410.59,133.4Z"/><path class="cls-1" d="M282.58,91.39c1.62-1.76,3.75-1,5.64-1,8.12-.09,16.25,0,24.38,0-2,1.87-4.43.93-6.65,1C298.16,91.47,290.37,91.39,282.58,91.39Z"/><path class="cls-1" d="M402.58,146.39c-.12-2.56,3.12-3.43,3-6l4-3A19.62,19.62,0,0,1,402.58,146.39Z"/><path class="cls-1" d="M431.59,4.38h-5A3.42,3.42,0,0,1,431.59,4.38Z"/><path class="cls-1" d="M223.55,82.39h-.91a35.58,35.58,0,0,1-9.36,1q-54.32,0-108.62,0c-3.16,0-6.26-.86-9.43-.38a3.63,3.63,0,0,1-1.79-.45c-2.27-4.55-1.34-9.31-.84-14a3.16,3.16,0,0,1,1-1.38,2.33,2.33,0,0,1,2.28.69,14.51,14.51,0,0,0,1.37.95c7.48.43,15,.16,22.41.15,33.37,0,66.73.19,100.09-.13a10.45,10.45,0,0,0,1.39-.92,2.69,2.69,0,0,1,2.33-.77,3,3,0,0,1,1.07,1.36C224.86,73.17,226.09,77.91,223.55,82.39Z"/><path class="cls-1" d="M281.53,71.43c.11,11,.9,8.78-8.79,8.93-7.44.12-14.9-.28-22.32.13-4.9.28-6.63-1.42-5.88-6.11a22.57,22.57,0,0,0,.09-3c1.24-1.41,2.93-1.4,4.58-1.41q13.87-.1,27.75,0C278.6,70,280.3,70,281.53,71.43Z"/><path class="cls-1" d="M223.55,82.39q0-7.5,0-15c-2.23-3.16-1.42-6.69-1-10.1.26-2.42,2.23-3.12,4.36-3.21,4.47-.19,9-.17,13.42,0,3,.1,4.55,1.73,4.6,4.7.07,3.64.4,7.29-.28,10.91a6.81,6.81,0,0,1-1,1.71c-.5,4.52,2.1,10.35-1.21,13.24-2.94,2.57-8.56.73-13,.68C227.18,85.28,223.63,87,223.55,82.39Z"/><path class="cls-1" d="M94.54,82.38c1-1.22,2.4-1,3.71-.93,38.76,2.08,77.54.32,116.31,1,2.7,0,5.4-2.43,8.08,0,0,1.34,0,2.67,0,4-.34.41-.68.44-1,0-1.38-.57-2.25-2.16-4-2-1.54-1-3.25-.5-4.88-.5q-54.22,0-108.44,0c-2.87,0-5.69-.06-7.93,2.15a2.75,2.75,0,0,1-1.73.55C93.34,85.18,93.52,83.78,94.54,82.38Z"/><path class="cls-1" d="M322.56,79.39l-8,8.94-15.87.08c-2.66,0-5.33-.09-8,0-8.12.35-8.12.39-8.13-8.07,0-3,0-6-.06-9a6.49,6.49,0,0,1-1-1.57c-.81-6.38-.16-12.8-.4-19.2,0-.63,0-1.26,0-1.89.07-8.43-.15-16.85.1-25.27.13-4.51,1.15-5.17,5.88-4.64a1.91,1.91,0,0,1,.38,3c-2.9,3-2.55,6.66-2.55,10.31,0,15.46,0,30.92,0,46.39,0,7.12.36,7.43,7.25,7.47,4,0,8-.34,12,.08,6.49.69,11.36-1.58,14.85-7C320.5,76.89,321.59,76.73,322.56,79.39Z"/><path class="cls-1" d="M94.58,86.38c2.53-2.46,5.51-3.07,9-3.06,36.1.12,72.19.06,108.29.11,1.9,0,4-.77,5.67,1q-53.38,0-106.78,0c-5.63,0-11.26-.4-16.22,3a.62.62,0,0,1-.21-.67C94.44,86.49,94.51,86.38,94.58,86.38Z"/><path class="cls-1" d="M221.57,86.4h1c5.78,0,11.56,0,17.34,0,1.58,0,3.35.55,4.65-1a4.61,4.61,0,0,1,4.45-2.5c9.06,0,18.13,0,27.19,0,3.09,0,4.88,1,3.36,4.48-1.92-2.42-4.43-3.15-7.47-3-5.66.17-11.33.12-17,0-3.73-.07-7.35-.07-10.13,3-1,1.09-2.39,1-3.74,1-5.16,0-10.33,0-15.49,0C224,88.42,222.42,88.22,221.57,86.4Z"/><path class="cls-1" d="M279.58,87.39c.21-3-1.37-4-4.22-4q-12.37.11-24.77,0c-2.3,0-4.08,1.17-6,2-.24-2.86.25-3.74,3.84-3.45,8.76.7,17.6.44,26.4.4,7,0,7-.15,6.57,7C280.08,89.33,280.09,88.12,279.58,87.39Z"/><path class="cls-1" d="M94.58,86.38c0,.33,0,.67,0,1l-3,1a48.13,48.13,0,0,1-15,0c-1.38-.14-2.95.44-4-1,0-.34,0-.68,0-1l.7-.64c7.13-.86,14.28-1.88,21.31.66Z"/><path class="cls-1" d="M282.52,70.41a7.69,7.69,0,0,1,0,1l-1,.06h-36.9l-1.05,0v-1a6.86,6.86,0,0,1,1.6-1,330.49,330.49,0,0,1,35.75,0A5.73,5.73,0,0,1,282.52,70.41Z"/><path class="cls-1" d="M76.58,88.4h15A24,24,0,0,1,76.58,88.4Z"/><path class="cls-1" d="M7.59,20.4c.22-1.9,1.69-.94,2.52-.95,7.49-.09,15-.06,22.46-.06,1.92,6.19,2.06,6.4,8.49,6.49q12.15.16,24.31,0c2.59,0,5.36,0,7.2-2.47q0-.5,0-1a51.38,51.38,0,0,1,22,0l0,0c1.22,2.16,3.17,2.61,5.5,2.61H216.91c2.3,0,4.32-.31,5.42-2.64,7.1-1.44,14.18-1.73,21.25.2a1.18,1.18,0,0,1-.65,1.55,10.16,10.16,0,0,1-4.53.71c-2.32.14-4.65.1-7,.12-6.12,0-6.3.23-6.34,6.57,0,4,0,8,0,12,0,1.82,0,3.67-.92,5.34a1.87,1.87,0,0,1-1.41.8,3.19,3.19,0,0,1-1.39-3c.5-4.72-2.32-5.16-5.89-4.75q-57.31,0-114.61,0c-3.26-.43-5.36.42-5,4.31a3.92,3.92,0,0,1-1.33,3.49A1.4,1.4,0,0,1,93,49c-1.76-5.88-.57-11.9-.82-17.85s-.42-6.34-6.2-6.34c-12.23,0-10.87-1.06-11.08,11-.08,4.44.92,9-.92,13.32a1.31,1.31,0,0,1-1.57.38,8.37,8.37,0,0,1-.8-1.23c-1-1.87.43-4.66-1.73-5.92s-4.53-.52-6.83-.54c-7.6,0-15.2.12-22.79-.08-4-.1-6.92.38-6.52,5.37a3.31,3.31,0,0,1-1,2.23,1.22,1.22,0,0,1-1.63-.19c-1.9-3.38-.92-7.07-1-10.62-.17-4.75,0-9.51-.08-14.25-.26-2.59-2.24-2.43-4-2.46-4.27-.07-8.55,0-12.82,0C11.22,21.75,9.2,21.9,7.59,20.4Z"/><path class="cls-1" d="M7.59,20.4c6.44,0,12.88,0,19.31,0,2.24,0,4.45-.05,4.67,3-.65,1.32-1.1,3-3.12,1.43-4.61-3.55-9.94-1.76-15-1.81C11.21,23,10,24.62,10,27q-.09,27,0,54c0,2.34,1,4.11,3.49,3.84,5.25-.57,10.86,2.12,15.79-2,1.58-1.33,2.46.68,3.05,2.06.15,2.6-1.16,4.26-3.63,4.37-6.43.27-12.88.26-19.31,0-1,0-1.94-.51-1.86-1.83Q7.58,53.9,7.59,20.4Z"/><path class="cls-1" d="M5.45,21.72V87.05H5V21.52Z"/><path class="cls-1" d="M72.58,86.38a13.41,13.41,0,0,0-9.67-3c-6.64.24-13.31.38-19.93,0-4.7-.3-8,1.22-10.38,5.1A14.57,14.57,0,0,1,32,82c1-1.74,2.64-1.72,4.36-1.58a198.68,198.68,0,0,0,32.27,0c1.72-.14,3.33-.17,4.47,1.42a3.92,3.92,0,0,1-.56,4.51Z"/><path class="cls-1" d="M72.58,23.4c.28,2.52-1.11,3-3.31,3-11.11-.06-22.23,0-33.34,0-5.77,0-2.43-4.56-3.35-7,2.44,5,6.58,6.41,11.85,6C53.81,24.75,63.39,26.88,72.58,23.4Z"/><path class="cls-1" d="M94.6,22.4h-22c2.09-2.55,5-2,7.72-2,4.09,0,8.17,0,12.26,0Z"/><path class="cls-1" d="M32.56,82.38c0,2,0,4,0,6l-1,1a131.33,131.33,0,0,1-25,0,2,2,0,0,1,1-2c7.2,2.1,14.54.67,21.82.76,2,0,2.25-2,2.19-3.78a1.84,1.84,0,0,1-.26-2A1,1,0,0,1,32.56,82.38Z"/><path class="cls-1" d="M6.58,89.39h25A64.13,64.13,0,0,1,6.58,89.39Z"/><path class="cls-1" d="M243.62,23.39c-4.9-2.17-10.06-.49-15.07-1-2-.18-4,0-6,0a.64.64,0,0,1-1,0c.86-1.8,2.45-2,4.2-2,5.16,0,10.32,0,15.47,0a4.55,4.55,0,0,1,2.42.37c9.57,6.69,20.35,2.6,30.56,3.42,2.15.17,4-1.47,4.85-3.74,1.24-3.31,3.69-4.25,7.09-4.13,5.65.2,11.31.1,17,0a48.27,48.27,0,0,1,16.7,3.14c11.23,3.89,23.26,3.21,34.58-1.11,15.89-6.06,32.15-10.22,49.19-11,.73,1.16,1.91.94,3,1-6.8,2-13.87,2.55-20.85,3.37-12.2,1.43-23,7.29-34.71,10.22-11.46,2.87-23.14,1.65-35.19.47,8.7,4.65,6.69,12.9,6.72,20.51,0,12.14,0,24.28,0,36.42-.73.18-1-2.31-2-.4-3.56,6.55-8.93,9.25-16.43,8.5a95.73,95.73,0,0,0-14.47,0c-4.11.21-6-1.8-6-5.52-.09-18.3,0-36.61-.12-54.91,0-3.51,3.13-4.87,4.06-7.62,7.78-1.15,15.59-.12,23-.53H285.84c-1.82,0-3.81-.32-3.92,2.42-1.91,4.14-5.21,5.63-9.67,5.52-6.64-.17-13.28,0-19.92,0-2.7,0-5.3-.33-7.58-2A3.93,3.93,0,0,1,243.62,23.39Z"/><path class="cls-1" d="M221.56,22.38h1c.39,2.95-.72,4.07-3.87,4.06q-60.15-.14-120.3,0c-3.16,0-4.23-1.14-3.85-4.08a2.13,2.13,0,0,1,2,1c1,.76,2.2.64,3.31,1,14.76.15,29.52,0,44.28.06h1.88c23.37,0,46.74.08,70.11-.06,1.14-.3,2.39-.2,3.4-.95Z"/><path class="cls-1" d="M219.58,23.39a2.07,2.07,0,0,1-2,1c-1.73.89-3.59.44-5.38.45-20.42,0-40.84,0-61.26.05-1.79,0-3.65-.48-5.37.48h-1c-5.23-1.09-10.53-.3-15.79-.49-10.07-.36-20.16.6-30.21-.49a2,2,0,0,1-2-1Z"/><path class="cls-1" d="M419.6,49.4c8.5,0,17,0,25.49,0,1.47,0,3.38.2,4.35-.59,8.82-7.13,20-6.22,30.08-9.15,3.05-.89,6.12-1.39,8.36-4,1.66-1.91,4.06-1,6.13-1.32,11.57-2,18.8,2.43,24,13.21,4.52,9.34,10.39,18.06,14.56,27.68s2.72,18.89-4.66,26.31c-3.87,3.89-7.71,7.8-12.33,10.83a17.93,17.93,0,0,1-9,0h-6c-4.59-1.41-9.42.38-14-1h-3c-4.6-1.41-9.42.38-14-1-3,.38-5.57-.39-7.45-3a67.43,67.43,0,0,1-8.55-15c-2.67-3.9-7.14-3.19-10.85-3.8q-10.23-1.66-20.5-3.28c-6.05-1-7.6-2.82-7.64-8.89-.05-6.8.12-13.6-.06-20.39C414.44,52.25,415.91,50.08,419.6,49.4Z"/><path class="cls-1" d="M419.6,49.4c-3.11,1.89-4.31,4.49-4.11,8.26.34,6.28.22,12.59.05,18.88-.13,4.66,2,7.08,6.47,7.76,8.94,1.37,17.86,2.82,26.81,4,2.65.36,4.38,1.29,4.76,4.06-.67-.09-1.34-1.11-2,0-.34.45-.68.47-1,0h0c-2.58-3.41-6.63-2-9.95-2.9-6.91-1.78-14.26-1.49-21-4.08-4.21-.57-5.62-3.11-5.54-7.17.16-8.1,0-16.21.07-24.31,0-2.8.45-5.49,4.44-4.56Z"/><path class="cls-1" d="M418.57,49.38c-3.36.51-4,2.81-4,5.75.07,7.09.2,14.19-.05,21.27-.15,4.23,1,7.35,5.08,9-4.7.75-6.32-1-6.13-6,.39-9.81.2-19.64,0-29.46,0-2.56.67-3.35,3.07-2.57Z"/><path class="cls-1" d="M484.56,30.44l27-.05c1,3-1.38,2-2.52,2-8.16.08-16.32,0-24.48,0Z"/><path class="cls-1" d="M491.56,113.42c6.92.11,13.83.84,20.72,1.26,3.69.22,5.75-1.16,8.26-2.9-1.35,3.44-3.83,5.27-7.55,4.55-6.89-1.34-13.82-.83-20.75-1a3.18,3.18,0,0,1-2.69-1C490,113.68,491.06,114.09,491.56,113.42Z"/><path class="cls-1" d="M491.56,113.42a2.11,2.11,0,0,1-2,1c-8.44.34-16.84-.43-25.24-1-4.52-.3-4.53-4.1-5.74-7l0,0c5,9.9,14.73,4.73,22.15,6.84C484.1,114.17,487.94,113.41,491.56,113.42Z"/><path class="cls-1" d="M535.56,98.37c2.08-10.75,2.24-21.29-4.13-31.08,8.19,8.51,6,18.93,6,28.91,0,1-.88,1.74-1.82,2.21Z"/><path class="cls-1" d="M535.6,98.41a69.34,69.34,0,0,1-12,11.5c3.66-4.19,6.58-9.12,12-11.53Z"/><path class="cls-1" d="M414.58,92.36c-2-5.33-1.8-5.5,4.95-4.93C417.72,88.92,414.63,89.11,414.58,92.36Z"/><path class="cls-1" d="M486.58,111.39c4.66.48,9.46-1.07,14,1C495.94,111.89,491.13,113.5,486.58,111.39Z"/><path class="cls-1" d="M469.58,110.39c4.66.48,9.47-1.07,14,1C478.94,110.9,474.13,112.5,469.58,110.39Z"/><path class="cls-1" d="M524.59,53.38c2.44,2.16,4.26,4.69,4.64,8-1.77-2.55-4.16-4.74-4.66-8Z"/><path class="cls-1" d="M521.57,48.4a14.78,14.78,0,0,1-5-8l0,0a14.87,14.87,0,0,1,5,8Z"/><path class="cls-1" d="M450.58,92.39h1c.94,2.36,2.69,4.36,3,7l0,0C452.1,97.71,451.29,95.07,450.58,92.39Z"/><path class="cls-1" d="M454.59,99.38c2.48,1.67,3.28,4.31,4,7l0,0c-2.48-1.68-3.28-4.32-4-7Z"/><path class="cls-1" d="M506.58,112.39h9A9,9,0,0,1,506.58,112.39Z"/><path class="cls-1" d="M516.57,40.4c-1.76-.86-2.31-2.42-3-5a6.87,6.87,0,0,1,3.05,5S516.57,40.4,516.57,40.4Z"/><path class="cls-1" d="M524.57,53.4c-2-1.08-2.65-2.94-3-5l0,0c2,1.08,2.65,2.94,3,5Z"/><path class="cls-1" d="M345.6,134.41q0-38,0-76c2.15-4.56,2.64-4.69,7.4-2a4.65,4.65,0,0,1,1.3,1.68,10.59,10.59,0,0,0,2.34,4.55c-1.71,1.65-.82,3.22.16,4.78-1.51,1.33-1.63,2.67,0,4-.95,1.62-1.73,3.24,0,4.85-1,1.3-2.29,2.41-2.43,4.2-1.42,2.72,2.33,2.82,2.43,4.76-.78,1.27-2.13,2.18-2.37,3.78a11.37,11.37,0,0,0-.4,1.82c0,1.28,1.25,1.71,1.76,2.63,0,1.78-1.24,3.18-1.44,4.9a6.54,6.54,0,0,0,.07,4.45,10.31,10.31,0,0,1-.37,4.84,8.66,8.66,0,0,0,.4,4.1,9.77,9.77,0,0,1,0,4.27,6.9,6.9,0,0,0,0,4.74,9.53,9.53,0,0,1,0,4.25,6.9,6.9,0,0,0,0,4.76,7.16,7.16,0,0,1-.26,4.41,3.85,3.85,0,0,1-1,1.19C350.4,137.48,347.7,138.42,345.6,134.41Z"/><path class="cls-1" d="M321.59,86.4c-.27-.91-2.43-1.48-.73-2.72,3.27-2.37,2.72-5.75,2.72-9q0-20.67,0-41.33c0-2.94.68-6.07-3.89-8.62h22.58c-4,1.82-4.47,4.48-2.67,7.69.32.64.13,1-.56,1.21-2.07-.29-2.83-2.15-4.08-3.42-1.45-1.47-3-2.77-5.23-2S327,31,327,33.06c-.09,6,0,11.95,0,17.93,0,9.3-.08,18.59,0,27.88.06,4.65,6.81,9.9,11.22,8.62,2.7-.78,2.85-3.37,2.88-5.75.13-8-.1-15.94.15-23.9.08-2.59-.21-5.47,3.06-6.65.94.63.83,1.39.27,2.2,0,11.79-.18,23.58.08,35.37.11,4.65-1.6,5-5.22,3.48-5.79-2.45-11.63-4.76-17.87-5.86A0,0,0,0,0,321.59,86.4Z"/><path class="cls-1" d="M405.53,140.34c-2.5,1.51-4,4-5.93,6.07-1.55.8-3.14.52-5.13.12.64-2.2,2.95-4.1,1.39-6.58a2.77,2.77,0,0,1,1.52-2.38c1.32-.73,1.77-1.37.14-2.33a3.59,3.59,0,0,1-1.44-5.12c1.12-2.17,3.13-2,5.16-1.24,1.15.67,1.56,2.11,2.74,2.82,1.66-1.11,1.13-2.74,1.13-4.09q.08-32.11,0-64.23c0-1.88,1-4.7-2.61-4.77a2.29,2.29,0,0,1-1.33-.6c-1.21-2.9-5.91-2.46-6.09-6.35.93-2.48-1.91-4.73-.46-7.24,1,.51,2.11,1,3.13,1.53,6.48,3.54,10.86,6.84,10.34,16.42-1.29,23.82-.32,47.76-.06,71.65C408,136.7,405.59,138,405.53,140.34Z"/><path class="cls-1" d="M394.59,44.41c.15,2.35,3.39,4.27,1,7-.44,3.81-3.23,5.43-7.8,4a11.68,11.68,0,0,0-5.7-.22c-4.25.66-9,2.15-12.84-1.28-1.34-1.2-.89.19-1.24.41-3.83,2.46-7.83,1.85-10.92-1.66a6.72,6.72,0,0,1-.55-7.34c1.33-1.46,3.1-.92,4.69-.93C372.36,44.38,383.48,44.41,394.59,44.41Z"/><path class="cls-1" d="M399.61,43.37c12.93,2.21,12.93,2.21,12.93,14.88v29c0,1,0,2,0,3-.07,1.19-.29,2.64-1.72,2.58-1.69-.07-1.2-1.73-1.2-2.77,0-9-.56-18,.13-27,.61-7.86-1.23-13.63-8.8-16.88a11.39,11.39,0,0,1-2.32-1.83C398.36,43.44,398.56,43,399.61,43.37Z"/><path class="cls-1" d="M475.61,36.41c-5.44,2.36-11.41,2.38-17.08,3.76a25.29,25.29,0,0,0-5.94,2.25c-3.28,3.63-7.46,3.86-12.1,4.12-16.13.92-31.63-1.63-46.93-6.56-7.06-2.28-14.57-2.76-21.94-3.63,0-2.11,1.73-1.91,3.07-2.23,13.24.74,25.74,4.93,38.43,8.23,1.61.42,3.26.67,4.87,1.08a144.15,144.15,0,0,0,27.4.06c8.5-6.33,18.49-7.84,28.65-8.82A2.38,2.38,0,0,1,475.61,36.41Z"/><path class="cls-1" d="M339.58,33.39v-1l27,5c-.12.11-.22.27-.36.32s-.29,0-.44,0c2.19,1.29,2.82,3.61,3.8,5.71-10.54-2.14-18.2,2.89-25,10v-2c.57-4.64,5.39-5.47,7.67-8.59,1.45-1.23,3.43-1.67,4.8-3.09-1.28-1.16-2.82-.92-4.24-1.13C348.38,36.91,343,37.67,339.58,33.39Z"/><path class="cls-1" d="M369.6,43.36c-2.91-.65-1.83-5.09-5.11-5.39.51-.88,1.4-.44,2.12-.6,11.14,1.23,22.38,2,33,6l-1,1c-4.78-2-9.77-.71-14.66-.93S374.38,43.37,369.6,43.36Z"/><path class="cls-1" d="M346.59,25.39c12.68-4.66,25.1-10.18,38.67-12,1.8-.24,3.57-.64,5.35-1,1.17,1.17,3.14-.35,4.19,1.24-.65,2.1-2.51,1.91-4.09,2.05-12.72,1.15-24.41,6-36.34,10a9.12,9.12,0,0,0-5.15,4.41c-1.89,1.27-2.61-.08-3.31-1.48A5.06,5.06,0,0,1,346.59,25.39Z"/><path class="cls-1" d="M345.6,134.41c2.34,2.3,4.67,2.21,7,0a14,14,0,0,0,4.39,4c1.37,2.43-1.13,5.64,2.25,7.41-1.95,1.38-3.3,1.29-4.67.59l-5-4.1-.89-.89C348.55,138.68,344.83,137.53,345.6,134.41Z"/><path class="cls-1" d="M356.55,45.34c.71,1.95-.61,4.25,1,6,.52,3.84-3.33,4-5,6-2.75-2.78-5-2.11-6.94,1-.79-4.54,3.06-6.27,5.47-8.78A44.85,44.85,0,0,1,356.55,45.34Z"/><path class="cls-1" d="M346.58,27.39a3,3,0,0,0,2,3c5,0,9.66,1.9,14.6,2a21,21,0,0,0,5.29.8,4,4,0,0,1,2.12.94c.29.94.14,1.51-1,1.25-8.16.22-16-1.87-24-3.07C345.25,30.55,343.18,28.41,346.58,27.39Z"/><path class="cls-1" d="M421.6,7.4l2,0c.74,1.1,3-.44,3.08,1.75-6,2.81-12.51,2.94-18.94,3.52-1.36-.32-3.09-.14-3.14-2.26C410.27,9.38,416.13,9.51,421.6,7.4Z"/><path class="cls-1" d="M346.58,27.39c-2.12,1.28.41,3.52-1,5a8.34,8.34,0,0,0-1.34-.58c-1.84-.48-4.33-.52-4.17-3.11.14-2.21,2.65-1.94,4.2-2.61a16.36,16.36,0,0,1,2.33-.65C347.69,26.06,346.67,26.72,346.58,27.39Z"/><path class="cls-1" d="M394.59,13.4c-1.37-.15-2.92.46-4-1,4,.16,7.88-1.64,11.95-1.06,1.36-.13,1.42.47.82,1.45C400.56,14.55,397.68,15.65,394.59,13.4Z"/><path class="cls-1" d="M403.58,12.38l-1-1a2.06,2.06,0,0,1,2.05-.94c.73,1.14,1.9.92,3,1C406.82,14,405.26,13.42,403.58,12.38Z"/><path class="cls-1" d="M369.56,35.41l1-1c1.67-1,3.24-1.63,4,1-1.08,0-2.26-.18-3,1A2.08,2.08,0,0,1,369.56,35.41Z"/><path class="cls-1" d="M426.6,8.4c-1.08-.05-2.26.18-3-1C437.52,7,450.88,9,463.1,16.15c6.09,3.58,13.12,5.47,18.56,10.24a11.82,11.82,0,0,0,.21,1.47c2.1,7.93,1.81,8.33-6.25,8.54l-1-1c6.08-4.7,6-7.26-1-10.94-12.61-6.65-25.31-13.1-40-13.95C431.22,10.37,428.61,10.15,426.6,8.4Z"/><path class="cls-1" d="M354.57,146.4h4.25c-4.77-2.47-2.07-5.4-2.26-8,1-.59,1.95.38,2.95.16,2.8-1.1,5.78.8,8.56-.56a36.92,36.92,0,0,1,15.3-.52c2.73.48,5.22-.66,7.88-.47,2.47.18,4.59.54,5.31,3.34,2.95,2.4,2.26,4.18-2,5.78l5,.27c-.83,1.06-2,1-3.17,1h-38.7C356.58,147.39,355.4,147.47,354.57,146.4Z"/><path class="cls-1" d="M282.52,70.41l-1-.06a284.82,284.82,0,0,0-36.84,0l-1.07,0c0-3.64-.19-7.28,0-10.9.21-3.35-1.17-4.34-4.34-4.16a100.82,100.82,0,0,1-11.4,0c-3.14-.18-4.63.75-4.35,4.13.22,2.63,0,5.28,0,7.93h-.92c-.31-.59-.25.27-.33-.36-.79-6.51-5.27-6.34-10.33-6.32q-52.9.23-105.82,0c-5.51,0-10.41-.18-11.66,6.68h-.9c-1.73-1.64-1.3-3.81-1.43-5.85-.1-1.55.41-3.25-1.17-4.4a55.43,55.43,0,0,0-15,.08c-1.81,1.79-.9,4-1,6.1-.18,2.43.35,5-1.24,7.16A3.21,3.21,0,0,1,72,71c-10.61-.46-21.22-.06-31.83-.22-2.13,0-4.33.31-6.3-.9a1.29,1.29,0,0,1-.43-1.61C35.29,66.61,37.54,67,39.67,67c8.16,0,16.33.13,24.49-.11,2.53-.08,6.83,1.86,6.8-3.21,0-4.85-4.16-2.71-6.47-2.79-7.32-.28-14.66-.1-22-.1s-7.28,0-9.57,6.39a1.24,1.24,0,0,1-1.66.13c-2-5.5-1.63-11-.26-16.57a1.32,1.32,0,0,1,1.53-.55c1.23,6,5.62,6,10.44,5.86,7.42-.23,14.86-.3,22.28,0,3.92.18,5.81-1.28,6.42-4.92A2.43,2.43,0,0,1,72.79,50c1.45,0,2,1.58,3.33,1.81a145.2,145.2,0,0,0,14.9,0c1.31-.26,1.93-1.91,3.47-1.72a3.31,3.31,0,0,1,1.09,1.34c.55,3.68,2.78,4.57,6.3,4.56q56.81-.14,113.62,0c3.59,0,5.34-1.88,7.37-4,6.76-.19,13.52-.3,20.27.18a5.16,5.16,0,0,1,1.6.73c1.67,2.33,3.87,3.12,6.79,3,7.26-.18,14.54-.35,21.78.05,4.36.24,6.89-1,7.7-5.36a1.1,1.1,0,0,1,1.48-.38C282.52,57.05,282.52,63.73,282.52,70.41Z"/><path class="cls-1" d="M94.51,67.4c.35-8.76-1.61-8,7.94-8q56.15,0,112.28,0c9.38,0,7.63-.89,7.92,8l-1.06,1c-1.75,1.37-3.82,1-5.78,1q-57.21,0-114.43,0c-2,0-4,.4-5.78-1C95.23,68.07,94.87,67.73,94.51,67.4Z"/><path class="cls-1" d="M220.57,71.44c3.77,1.59,2,4.85,1.79,7.26-.18,2.59-2.84,1.66-4.49,1.66q-59.31.08-118.61,0c-1.64,0-4.31.93-4.48-1.67-.16-2.41-2-5.67,1.81-7.25,1.74.87,3.61.44,5.41.44,35.81,0,71.63,0,107.44.09,1.75,0,4.05-1.25,5.32,1.23-2.11,2.37-4.94,1.56-7.5,1.56-33.72.06-67.45,0-101.17.12-1.89,0-4.87-1.51-5.47,2.16,1.42,1.32,3.17.92,4.79.92q53.46,0,106.92-.07c1.92,0,5.54,1.68,5.2-2.89a8.72,8.72,0,0,1-1-1.26C216.43,70.43,219.58,72.83,220.57,71.44Z"/><path class="cls-1" d="M92.57,55.41c2.12,3.84.48,8,1,12v15c.94,2.21.47,3.5-2.19,3.5-5.28,0-10.57,0-15.85,0-2.48,0-2.53-1.53-2.48-3.29-.81-4.11-2-8.24.5-12.22.55-5-1.19-10.11,1-15a2.87,2.87,0,0,1,.75,2.84A3.32,3.32,0,0,1,79,56c3.92.21,8-1,11.73.87C92.33,57.64,91.74,55.61,92.57,55.41Z"/><path class="cls-1" d="M221.59,69.35c.14,1.9-1.34,1-2,1q-61,.08-122,0a12.53,12.53,0,0,1-1.92-.21c-.09,0-.22-.23-.22-.35a1.31,1.31,0,0,1,.16-.47c1.24-.71,2.6-.43,3.91-.43H217.69C219,68.92,220.35,68.63,221.59,69.35Z"/><path class="cls-1" d="M214.58,73.38c-1.65-1.71-3.77-1-5.67-1q-53.31-.08-106.62-.07c-1.91,0-4,.73-5.69-.92h124c-.89,1.55-3.13.34-4,1.95A1.44,1.44,0,0,1,214.58,73.38Z"/><path class="cls-1" d="M221.59,69.35h-126v-.94h126C221.58,68.72,221.58,69,221.59,69.35Z"/><path class="cls-1" d="M73.56,82.38c-.08,2,.66,3.07,2.85,3q7.17-.12,14.34,0c2.2,0,2.93-1,2.86-3q.47,0,.93,0c0,1.34,0,2.68,0,4h-22c0-1.34,0-2.68,0-4Q73.1,81.69,73.56,82.38Z"/><path class="cls-1" d="M262.81,78.29c-3.64,0-7.28.14-10.91-.07-1.34-.08-3.28-.56-3-2.54.24-1.74,2.11-2.39,3.46-2.14a59.65,59.65,0,0,0,21.11-.05,3,3,0,0,1,3.62,2.65c.09,1.79-1.93,2.11-3.35,2.16-3.63.14-7.27,0-10.91,0A.13.13,0,0,1,262.81,78.29Z"/><path class="cls-1" d="M225.59,70c0-1.16.08-2.33,0-3.48-.79-10,4-9.53,11.57-8.9,3,.25,4.2,3.17,4.34,5.92a130.79,130.79,0,0,1,0,13.43c-.28,5.19-2.76,6.69-9.5,6.47-4.6-.15-6.53-2.55-6.42-7C225.64,74.28,225.59,72.12,225.59,70Z"/><path class="cls-1" d="M281.57,21.4c-.1-2,.69-3,2.89-3,9.28.07,18.57,0,27.87,1H287.58c-3.74-.57-5.26.69-5.11,4.79.3,8.4.06,16.81,0,25.22A1.12,1.12,0,0,1,281,49c-2-7.16-2-7.18-10.1-7.16-8.57,0-17.14-.15-25.71.17-3.26-.74-3-2.85-2-5.21a1.56,1.56,0,0,1,1.48-.52c.72.39,1.28,1,2,1.41,8.65.84,17.31.13,26,.38,2.31.07,4.66-.34,6.91.62.6.26.93.18.28,0-.07,0-.07-.31-.12-.5a8,8,0,0,1,0-2.35c.69-6,.69-6-5-6-8.33,0-16.65,0-25,0-1.82,0-3.68.2-5.4-.67-1.65-1.29-1.55-2.45.28-3.46,9.72.49,19.45.08,29.16.33C277.53,26.06,280.25,25.11,281.57,21.4Z"/><path class="cls-1" d="M281.53,49.36l1,0a5.13,5.13,0,0,1,0,1l-1,.09a3.9,3.9,0,0,1-2.66,1.25c-11.3-.12-22.62.68-33.91-.39-1.62-.86-1.87-1.78-.12-2.79,11.52-1.12,23-.5,34.59-.31A3.56,3.56,0,0,1,281.53,49.36Z"/><path class="cls-1" d="M244.65,70.36c1-1.3,2.39-1,3.68-1q14.73,0,29.47,0c1.29,0,2.71-.33,3.69.95Z"/><path class="cls-1" d="M99.55,40.44H216.63c5.6,2,6.42,5.31,2.46,10a20.34,20.34,0,0,1-5,.33q-55.49,0-111,0a22.94,22.94,0,0,1-5-.29C94.42,46.39,94.88,43,99.55,40.44Z"/><path class="cls-1" d="M31.61,50.38v17a18.7,18.7,0,0,1,0,15c0,.67,0,1.34,0,2-.52-.36-1.47-1.07-1.5-1-5.26,6.51-12.26,1.85-18.37,2.73-1.93.28-3.12-2.11-3.12-4.4q0-27.7,0-55.4c0-3.85,2.68-5,5.64-4.78,5.37.36,11.39-2.21,15.89,3,0,0,1-.73,1.47-1.12q0,13,0,26c.35.22.46.44.35.65S31.73,50.38,31.61,50.38Z"/><path class="cls-1" d="M94.58,36.4c-.06-8-.06-8,7.94-8q58.59-.07,117.17-.26c2.44,0,2.89.89,2.9,2.8s0,3.66,0,5.48c-1.79,1.62-4,1.4-6.15,1.4q-57.84,0-115.69,0C98.59,37.79,96.37,38,94.58,36.4Z"/><path class="cls-1" d="M94.58,36.4h128c0,.68,0,1.36,0,2-1.24.72-2.6.43-3.91.43H98.51c-1.31,0-2.67.29-3.9-.44Z"/><path class="cls-1" d="M223.54,49.41c0-7.42.11-14.85,0-22.27,0-2.72.83-3.92,3.68-3.8,3.79.16,7.59.06,11.38.07,3.25,1.79,4.58,4.55,4.35,8.22-.28,4.63-.19,9.26-.08,13.91.13,6-1.38,7.34-7.31,7.34-4.08,0-8.41.81-11.42-3.14Z"/><path class="cls-1" d="M32.62,49.37c-.09-11-1-8.81,8.79-8.95,8.45-.12,16.91.27,25.33-.14,4.9-.24,6.64,1.42,5.89,6.11a22.68,22.68,0,0,0-.08,3c-1.44,1.4-3.28,1.41-5.11,1.41q-14.86.06-29.72,0C35.9,50.78,34.06,50.77,32.62,49.37Z"/><path class="cls-1" d="M74.59,53.38c-1.22-.7-1-1.9-1-3-.35-.22-.47-.43-.36-.65s.23-.33.35-.33c0-7.29.17-14.59,0-21.88-.09-3.35,1.16-4.42,4.34-4.17,4.93.37,11.19-2,14.49.87s.9,9.36,1.18,14.25c.21,3.64.06,7.29.08,10.94.36.22.48.44.36.65s-.24.32-.36.32c-.06,1.1.19,2.3-1,3-1.44-1.51-1.37-3.59-2-5.4-.82-6,.1-12-.59-18a5.43,5.43,0,0,0-2.16-2.68,12,12,0,0,0-8.44,0A5.48,5.48,0,0,0,77.2,30c-.69,6,.27,12-.56,18C76,49.78,76,51.87,74.59,53.38Z"/><path class="cls-1" d="M32.58,36.39c0-8,0-8,7.84-8,8.12,0,16.25-.06,24.37,0,8.47.08,7.82-1.59,7.79,8-1.46,1.35-3.29,1.39-5.12,1.39-9.74,0-19.48,0-29.21,0A9.73,9.73,0,0,1,32.58,36.39Z"/><path class="cls-1" d="M93.61,50.38a8,8,0,0,1,0-1l1,0a1.32,1.32,0,0,1,1.93,0h124a1.34,1.34,0,0,1,1.94,0l1,.06.09,0A1.3,1.3,0,0,1,223,51a9.82,9.82,0,0,1-4.85.83c-39.12-.15-78.24,0-117.36-.07-2.15,0-4.37.33-6.14-1.37Z"/><path class="cls-1" d="M94.62,38.43H222.55c-1.49,1.6-3.44.93-5.18.93q-58.78.06-117.57,0C98.05,39.36,96.1,40,94.62,38.43Z"/><path class="cls-1" d="M32.58,36.39h40c0,.68,0,1.36,0,2a320.69,320.69,0,0,1-39-.07Z"/><path class="cls-1" d="M223.6,50.43c0-.35,0-.7,0-1.06,1.4-1.76,1.4-1.76,2-.47,1.59,3.27,7,4.75,12.43,3.38,3.69-.93,3.57-3.84,3.53-6.74s0-5.66,0-8.48c0-4.77.87-9.74-3-13.66l4,0c.66,4.28,1.68,8.4.92,12.95-.94,5.55.92,11.28,0,17-6.64-.41-13.37,1.16-19.94-.87A1.36,1.36,0,0,1,223.6,50.43Z"/><path class="cls-1" d="M243.5,53.33c-1.92-5.44-.61-11.07-.88-16.6-.22-4.43-.06-8.87-.06-13.3l1.06,0h1a2.19,2.19,0,0,1,0,3c-1,.66-1.08,1.34,0,2,1.85,2.66,2,5.32,0,8a3.35,3.35,0,0,0-.06,5c2.11,2.65,1.92,5.32.08,8-.75.38-.68.75,0,1.11a2.07,2.07,0,0,1-.11,3Z"/><path class="cls-1" d="M73.56,49.4a5.35,5.35,0,0,1,0,1l-1.06.07a6.18,6.18,0,0,1-4.59,1.39q-15.31-.09-30.64,0a6.18,6.18,0,0,1-4.59-1.38l-1.06-.08a6.28,6.28,0,0,1,0-1l1,0H72.56Z"/><path class="cls-1" d="M33.57,38.36l39,.07c-.56.3-1.12.87-1.69.87q-18.39.09-36.77.07c-.14,0-.38-.08-.41-.18A5.54,5.54,0,0,1,33.57,38.36Z"/><path class="cls-1" d="M222.52,49.35h-1.94c-.39-.5-1.2-1.32-1.11-1.44,3.15-4.09-.33-5.59-2.85-7.46C222.77,40.39,222.77,40.39,222.52,49.35Z"/><path class="cls-1" d="M96.59,49.33H94.66a35.4,35.4,0,0,0-.11-3.86c-.55-3.93.86-5.82,5-5C95.65,42.44,97.5,46.35,96.59,49.33Z"/><path class="cls-1" d="M31.6,82.38q0-7.5,0-15h.91a1.2,1.2,0,0,1,1.06,1c0,.32,0,.64,0,1,5.19,1.21,10.45.3,15.68.53,7.74.35,15.5-.56,23.23.46l1.1,0,0,12h-.94c-2.52-2.35-5,.23-7.57.06-10.08-.65-20.24.92-30.3-1a2.27,2.27,0,0,0-2.2.89h-.48Z"/><path class="cls-1" d="M285.62,54.4c0-8,0-16,0-24,0-6,1.15-7,6.92-7.07,4.83,0,9.65,0,14.48,0,7.12.06,11.54,4.39,11.56,11.45q.07,19.47,0,38.94c0,6.83-4.57,11.45-11.52,11.61-5,.11-10-.2-15,.09s-6.51-2.2-6.5-6.59C285.64,70.71,285.62,62.56,285.62,54.4Z"/><path class="cls-1" d="M244.61,26.36c0-1,0-2,0-3a14.44,14.44,0,0,0,8.56,2c4.65-.16,9.32-.07,14,0,5.2,0,10.59.83,14.43-4,.58,3.75-.7,5.21-4.8,5.09C266.06,26.19,255.33,26.37,244.61,26.36Z"/><path class="cls-1" d="M145.58,25.38c1.49-1.61,3.43-.95,5.18-1q33.42-.06,66.83,0c-1.48,1.61-3.43,1-5.18,1Q179,25.42,145.58,25.38Z"/><path class="cls-1" d="M98.58,24.4c13.61,0,27.22,0,40.83,0,1.75,0,3.69-.65,5.18,1-13.61,0-27.23,0-40.84,0C102,25.36,100.06,26,98.58,24.4Z"/><path class="cls-1" d="M482.58,41.37c5.89-5.44,12.92-6.75,20.66-6,3.24.3,5.63,1.38,7.45,4.17,7.36,11.29,14.91,22.58,19.81,35.14,4.27,10.92,3.31,20.42-6.83,29.26-9.52,8.3-19.15,6.5-29.34,5.82-8.11-.55-16.26,0-24.35-1.26-4.11-.66-12.7-9.47-12.23-13.42.24-2,1.41-1.35,2.43-.58,2.78,2.09,5.65,4.08,8.29,6.34,3.54,3,7.53,4.34,12,3.37,7.13-1.53,14.22-3.24,21.29-5,7.4-1.88,9.38-4.55,9.77-12.84a97.4,97.4,0,0,1,.86-10.89c.91-5.61-.6-10.37-4.88-14.9-5.94-6.27-12.52-10.57-21-12.11A1.26,1.26,0,0,1,487,47c5.92-1.93,10.82.71,15.25,4a60.73,60.73,0,0,1,9.92,9.84c3.48,4.07,4.17,9,3.68,14.13-.42,4.47-.73,9-1.11,13.43-.73,8.47-4.07,12-12.3,14-4.69,1.14-9.4,2.22-14.41,3.31a122.93,122.93,0,0,0,21.44,1.41,13.42,13.42,0,0,0,9.9-3.94c1.43-1.4,2.75-2.93,4.29-4.19,7.31-6,6.89-13.81,4.3-21.45-4.35-12.89-12.28-24-19.46-35.38a7,7,0,0,0-6.31-3.37c-5.12,0-10.38-.84-14.53,3.49a3.71,3.71,0,0,1-4.65.52A1.18,1.18,0,0,1,482.58,41.37Z"/><path class="cls-1" d="M482.58,41.37c0,.34,0,.68,0,1l-.48.52a28.92,28.92,0,0,1-8.37,1.76c2.32.11,3.93.42,5.55.63a9.31,9.31,0,0,1,1.37.3c1.74.72,3.74.36,5.43,1.28l.48.52c0,.34,0,.68,0,1a35.6,35.6,0,0,1-9.36-1c-7.12-1.5-12.86,2.53-18.83,5.15-7,3.07-13.75,6.7-20.55,10.19-6.45,3.31-6.94,6.91-1.5,11.79,3.07,2.76,6.47,5.15,9.66,7.79.86.71,1.87,1.62.92,3a2.45,2.45,0,0,1-2.67.83c-7.32-1.23-14.63-2.46-22-3.64-3.91-.63-5.76-2.82-5.7-6.8.08-6,0-12,0-18,0-4.48,1.84-6.72,6.67-6.41,4.64.3,9.31-.06,14,.1a36.19,36.19,0,0,0,19.35-4.57C464.31,42.69,473.69,42.26,482.58,41.37Z"/><path class="cls-1" d="M435.58,66.39a279.8,279.8,0,0,1,35.29-17.3c2.68-1.07,5-.23,7.26.39,6.46,1.76,13.67.57,19.47,4.91a2.92,2.92,0,0,1-1.34.92c-5.15.39-10-1.55-15.07-1.89-5.77-1.74-11.22-1.77-16.57,1.77-4.13,2.74-9,4.2-13.12,7.07a7.83,7.83,0,0,1-2.66,1.33,36.26,36.26,0,0,0-8.19,3.13c-1.58.78-3.16,1.82-5.08,1A.79.79,0,0,1,435.58,66.39Z"/><path class="cls-1" d="M508.59,65.37c4.15,4.65,1.26,10.12,1.72,15.19.11,1.26-.68,2.59-.68,3.89.1,13.88-3.91,11.66-12.45,13.92-4.81,1.27-9.66,2.37-14.51,3.47-3.06.69-6.15,1.35-9.11-.43a3.38,3.38,0,0,1,1.28-1.06c8.25-2.62,16.77-4.12,25.17-6.11,4.44-1,6.16-2.88,6.41-7.67.35-6.61.57-13.25,1.19-19.86A3,3,0,0,1,508.59,65.37Z"/><path class="cls-1" d="M459.59,91.37l-1-1c-4.07-2.5-7.28-6.07-11-9a99,99,0,0,1-12-10,1.79,1.79,0,0,1-.34-1.85c1.77-1.2,2.82.53,4.19,1a9.3,9.3,0,0,1,1.09.77,27.21,27.21,0,0,0,4.08,3.33,11.11,11.11,0,0,1,1.51,1.23,20.25,20.25,0,0,0,4.3,3.64,8.29,8.29,0,0,1,1,.74,23,23,0,0,0,3.86,3.17,9.28,9.28,0,0,1,1,.73A35.43,35.43,0,0,0,460,87.37a4,4,0,0,1,.84.89,2.33,2.33,0,0,1,.11,1.2A3.61,3.61,0,0,1,459.59,91.37Z"/><path class="cls-1" d="M459.59,91.37a2,2,0,0,1,1-2c4.86.8,7.43,5.08,11.29,7.41,1.29,1.3,3.35,2.14,2.77,4.57l-1.05,0C468.07,99.22,464.48,94.39,459.59,91.37Z"/><path class="cls-1" d="M508.59,65.37c0,.35,0,.7,0,1a20.4,20.4,0,0,1-12-12l1.05,0A70.88,70.88,0,0,1,508.59,65.37Z"/><path class="cls-1" d="M447.58,81.39c4.48,2,7.57,5.71,11,9C453.71,88.86,450.61,85.17,447.58,81.39Z"/><path class="cls-1" d="M435.58,69.4v2a3.36,3.36,0,0,1,0-5v1A1.32,1.32,0,0,1,435.58,69.4Z"/><path class="cls-1" d="M358.56,140.39l-2-2c-3,.35-4.49-.86-4-4l1-.05c2-1.65,1.92-3.29,0-4.93q-2.14-2,0-4.06c2-1.65,1.95-3.29,0-4.93-1.43-1.35-1.44-2.7,0-4.05,1.94-1.64,2-3.28,0-4.93-1.49-1-.9-2.64-1-4,2.43-1.21,3.65-2.67,1-4.94-1.45-1.35-1.45-2.7,0-4.07s2.4-2.87,2-5c-2.18.17-3.26-.76-3-3a3.89,3.89,0,0,1,2.49.29c14.12.43,28.24.63,42.35-.12.71-.41,1.26-1,2-1.43a2,2,0,0,1,1.55.14c2.28,2.38,1.61,4.08-1.2,5.3-3.25,2.68.76,2.54,1.44,3.68,1.29,1.49,1.66,3,.1,4.56-3.46,1.27-3.67,2.7-.21,4.33a3.44,3.44,0,0,1,1,4c-.69,1.59-6.92,1.94-1.09,5,1.47,1.49,1.51,3,.08,4.52-5.6,2.76-.42,3.48.94,4.93.63,1.71.27,3-1.46,3.83-1.67.17-3.84-.61-4,2.31-.12,2.32,1.22,2.76,3.1,2.76a1.53,1.53,0,0,1,1.7,1.42,2.12,2.12,0,0,1-1.55,2.26c-1.32.45-3.15.05-3.26,2.23a5,5,0,0,0-5.22-2c-7.51,1.27-15.18-1.5-22.65.91-.26.08-.75-.57-1.13-.88C364.77,140,361,137.18,358.56,140.39Z"/><path class="cls-1" d="M356.59,76.38c-.75-1.65-3.77-.18-3.77-2.49s3-.84,3.76-2.51a2.91,2.91,0,0,1,0-4c-.74-1.66-3.77-.19-3.77-2.5s3-.84,3.77-2.5l.5-.52a4.91,4.91,0,0,1,2-.62c2.16-.71,5.09,1.33,6.54-1.82-2-1.5-4.09-.71-6.17-.49a11.17,11.17,0,0,1-1.41.35,6.19,6.19,0,0,1-2.31,0,2,2,0,0,1-1.64-1.65,1.81,1.81,0,0,1,1.33-2c14.21-.44,28.42-.22,42.62-.12a3.08,3.08,0,0,1,1.48.58c.9,1.5-.59,2.06-1.17,3a2.11,2.11,0,0,0,.29,2.63c1.33,1,3.63,1,3.57,3.34s-2.45,2.19-3.63,3.34a1.78,1.78,0,0,0,.08,2.25c4.94,2.9,4.91,3.73-.23,7-.59,1-.71,2.18-1.24,3.2-.92,1.17-1.89,1.48-2.93.14-.24-2.29-.77-4.09-3.73-4.29-3.36-.23-3.62,2.22-4.45,4.32q-1.58,1.75-3.06-.06c-.71-1.55-.77-3.79-3.45-3.27-3.27.64-7.56-1.68-9.37,3.22-1,1.16-2,1.33-3.08.18-1.08-1,.08-3.5-2.49-3.53s-4.71.78-5.6,3.53c-1.34,1.23-2.39.89-3.23-.6A3.94,3.94,0,0,1,356.59,76.38Z"/><path class="cls-1" d="M347.59,95.85c0-11.3,0-22.6,0-33.9,0-1.73-.36-4.41,2.26-4,2.3.34,1.65,2.69,1.23,4.56-.87,3.84-.05,7.82,0,11.64.06,11.65-.16,23.29-.14,34.92,0,6.9-.52,13.9.38,20.81.22,1.73.61,3.8-1.52,4-2.32.25-2.18-2-2.18-3.65C347.57,118.78,347.59,107.31,347.59,95.85Z"/><path class="cls-1" d="M399.59,89.44c0,.64,0,1.27,0,1.91-4.22,1.1-8.52.51-12.77.48-11.05-.08-22.11.51-33.15-.32l-1.09-1.11,1-1c1.43-1,1.68-2.9,3-4-1.09-1.61-6.33-.73-3-5a1,1,0,0,1,1.25,0A12.33,12.33,0,0,0,356.22,82c13.79-.14,27.57.46,41.34-.3a13.81,13.81,0,0,1,1.78-1.56,2,2,0,0,1,1.48,0c3.58,3.6.05,4.63-2.19,6.13C397.87,87.69,399.17,88.44,399.59,89.44Z"/><path class="cls-1" d="M399.58,57.39v-1c-8.74-1.13-17.52-.43-26.28-.44-6.24,0-12.52-.79-18.73.48v1.91a.59.59,0,0,1-1,0l-1-1c-.48-3.81,4.77-2.82,5-6,1.12,2.24,2.8,3.87,5.4,3,5.45-1.92,10.91,1.17,16.15-.1,4.25-1,8.16.09,12.22.16,2.17,0,4-.28,4.23-3,1.14,1.41,1.69,3.37,4.28,3.11,1.76-.18,1.67,1.57,1.7,2.87A1.36,1.36,0,0,1,399.58,57.39Z"/><path class="cls-1" d="M353.62,102.45c2-.18,3.15.47,3,2.72-.2,2.91-2.4,2-4,2.22A8.51,8.51,0,0,0,353.62,102.45Z"/><path class="cls-1" d="M353.61,120.42c2-.16,3.13.44,3,2.71s-1.43,2.28-3,2.22C353.61,123.71,353.61,122.06,353.61,120.42Z"/><path class="cls-1" d="M353.62,111.43c1.59-.06,2.93.08,3,2.22s-1.08,2.86-3,2.71C353.61,114.72,353.61,113.08,353.62,111.43Z"/><path class="cls-1" d="M353.6,129.41c1.95-.15,3.14.42,3,2.7-.09,2.13-1.42,2.28-3,2.22C353.61,132.7,353.61,131.05,353.6,129.41Z"/><path class="cls-1" d="M355.6,93.42c1.59,2.56,2.24,4.75-2,5A4.76,4.76,0,0,1,355.6,93.42Z"/><path class="cls-1" d="M356.58,67.39c0,1.33,0,2.66,0,4-1.29-.06-2.75.11-2.89-1.75C353.52,67.47,355,67.39,356.58,67.39Z"/><path class="cls-1" d="M354.57,80.42l-1,0c-.1-2.15-.19-4.29,3-4,0,1.33,0,2.67,0,4A1.35,1.35,0,0,1,354.57,80.42Z"/><path class="cls-1" d="M356.6,85.37c.11,2.16.25,4.35-3,4C353.49,87.21,353.43,85.08,356.6,85.37Z"/><path class="cls-1" d="M353.58,58.39a6.57,6.57,0,0,0,1,0l2,.06a2.88,2.88,0,0,1,0,4h0C353.38,62.7,353.52,60.52,353.58,58.39Z"/><path class="cls-1" d="M352.6,43.4c-1.71,3.63-6.05,4.62-8,8-2,1.69-2,4-2,6.37,0,7.81.09,15.62,0,23.43-.05,3.42.31,7.61-4.61,8-5.23.39-12.24-4.36-12.27-8.21-.14-16.45-.07-32.9,0-49.34a4.82,4.82,0,0,1,3.52-4.9A5.06,5.06,0,0,1,335,28.28c1.5,1.73,3.06,3.41,4.59,5.11a75.61,75.61,0,0,0,14,4C357.1,39.67,357.1,39.67,352.6,43.4Z"/><path class="cls-1" d="M396.6,85.42c1-1.94,7.16.23,4-5-.45-2.19-2.39-2.91-4-4a7.49,7.49,0,0,1,.7-.68c1.21-.94,4,.56,4-1.86s-2.75-.91-4-1.86a8.84,8.84,0,0,1-.69-.68c.22-2.16,4.47,1.17,3.43-2.44-.41-1.43-2.69,0-3.43-1.48a7.49,7.49,0,0,1,.7-.68c1.21-.94,4,.56,4-1.86s-2.75-.91-4-1.86a9,9,0,0,1-.69-.69c1.73-.89,3.56-1.68,4.32-3.7l.64-.25c1.38-.63,1.49-3.55,3.74-2.38,1.77.92,1.25,2.93,1.25,4.54q0,34.47,0,69c0,2,1,5-2,5.35-2.68.26-2.78-2.74-3.35-4.76-.08-.28-.43-.48-.66-.72a6.61,6.61,0,0,0,1-4c-2.17-1.31-2.08-3.07-1-5a3.32,3.32,0,0,0,0-4c-1.07-2-1.17-3.72,1-5a6.74,6.74,0,0,0-1-4c-.81-1.65-1.54-3.31,0-5,1.82-1.33.57-2.68,0-4-.61-1.69-2.38-2.91-2-5,3.53.1,3.28-1.7,2-4A19.45,19.45,0,0,0,396.6,85.42Z"/><path class="cls-1" d="M399.58,57.39h2c0,.34,0,.68,0,1-1.64,1.06-3.29,1.43-4.95.06C397.29,57.2,398.49,57.43,399.58,57.39Z"/><path class="cls-1" d="M376.55,46.39c4.66,0,9.33,0,14,0,1.91,0,4.12.18,3.78,2.73s-2.58,4.09-4.76,2.94c-3.7-2-6.83-1.28-10.39.09a8.56,8.56,0,0,1-5.86-.17c-3.09-1.29-5.81-2.06-8.94-.11-1.84,1.14-3.51-.21-4.92-1.38a2,2,0,0,1-.39-2.71c.93-1.56,2.52-1.39,4-1.39C367.56,46.38,372.05,46.39,376.55,46.39Z"/><path class="cls-1" d="M426.6,8.4C445,9.15,461.48,15.62,477,25c2.55,1.55,4,3.62,3.31,6.57s-2.95,3.84-5.73,3.79c-9.6,2.18-19.88,2.21-28,9a180,180,0,0,1-29,0c-8.79-.85-16.87-4.6-25.45-6.25-5.81-1.12-11.69-1.86-17.54-2.77-1.07-1.43-2.63-.86-4-1h-2c-1.49-1.22-3.5.18-5-1-5.2,0-10.33-.34-15-3-.22-3.9,2.6-5,5.53-6,12.85-4.33,25.46-9.56,39.28-10.17.41,0,.8-.53,1.2-.81,3.09.46,6-.73,9-1,1.39-.13,2.94.45,4-1A88.64,88.64,0,0,0,426.6,8.4Z"/><path class="cls-1" d="M417.59,44.4h29c-2.14,1.9-4.76,1-7.09.92C432.19,44.92,424.8,46.64,417.59,44.4Z"/><path class="cls-1" d="M352.6,43.4c.65-1.95,4.7-3.34,1-6a28.94,28.94,0,0,1,3.35.73c.9.3,2.05.67,2,1.89-.06,1-1.07,1.09-1.84,1.4C355.55,42,354.08,42.73,352.6,43.4Z"/><path class="cls-1" d="M363.58,33.4c1.69.23,3.6-.65,5,1C366.9,34.15,365,35.05,363.58,33.4Z"/><path class="cls-1" d="M371.58,141.39c1.29-1.52,3.05-.87,4.63-1,4.67-.4,9.22,3.05,14.1.17a2.89,2.89,0,0,1,4,2.5c0,2.48-2.5,2.8-4.11,2.22-5-1.8-9.75.71-14.61.11C374.29,144,369.33,146.31,371.58,141.39Z"/><path class="cls-1" d="M371.58,141.39c-.77,3.44,2.84,2.49,4,4-4.19-.2-8.33-1.14-12.58-.09-1.59.39-4.3.4-3.9-2.23.37-2.44,2.81-3,5.14-2.56S368.84,143.48,371.58,141.39Z"/><path class="cls-1" d="M358.56,140.39c2.27-4,6-1.12,9-2-.46,2.7-2.29.78-3.41.9C362.24,139.51,360.3,139.33,358.56,140.39Z"/><path class="cls-1" d="M223.6,50.43c0,.67,0,1.35,0,2-.53,4.69-3.49,5.06-7.57,5-38.16-.16-76.33-.1-114.49-.09-7.08,0-7.08,0-6.84-7Z"/><path class="cls-1" d="M33.58,68.39l-1.06-1c.29-8.89-1.45-8,7.91-8s18.62.15,27.92-.09c3.78-.1,4.32,1.56,4.33,4.75s-.82,4.43-4.21,4.38C56.86,68.27,45.22,68.38,33.58,68.39Z"/><path class="cls-1" d="M32.67,50.45H72.5c.25,7,.25,7-6.75,6.95H39.44C32.44,57.41,32.44,57.41,32.67,50.45Z"/><path class="cls-1" d="M262.53,68.36c-4.83,0-9.66-.15-14.48,0-3.6.15-3.54-2-3.51-4.51s-.25-4.63,3.43-4.57c10,.16,20,.13,30,0,2.89,0,3.84,1.08,3.69,3.83-.13,2.57.17,5.22-3.61,5.2C272.85,68.34,267.69,68.36,262.53,68.36Z"/><path class="cls-1" d="M244.52,53.43c0-1,.07-2,.11-3h36.86c.22,6.95.22,6.95-6.78,6.94-8.76,0-17.53-.12-26.29.07C245.28,57.54,244.21,56.34,244.52,53.43Z"/><path class="cls-1" d="M72.48,70.35H34.09c-.14,0-.39-.08-.42-.18a4.49,4.49,0,0,1-.1-.83c11.25,0,22.51,0,33.76.07C69.07,69.44,71,68.7,72.48,70.35Z"/><path class="cls-1" d="M74.59,53.38c.22-1.69-.66-3.59,1-5q8,5.79,16,0c1.65,1.4.77,3.3,1,5Z"/><path class="cls-1" d="M92.57,55.41v4.11c-5.71-4.86-14-4.39-18,1.11V55.41Z"/><path class="cls-1" d="M158.47,66.39q-27.22,0-54.44,0a25.45,25.45,0,0,1-4.46-.25,2.43,2.43,0,0,1-1.9-2.59,2.5,2.5,0,0,1,1.47-2.38c1.53-.9,3.2-.76,4.86-.76H213.37a11.79,11.79,0,0,1,3,.15c1.63.42,3.33,1,3.12,3.21s-1.73,2.62-3.57,2.63H158.47Z"/><path class="cls-1" d="M214.58,73.38h3c1,.91,2.88,1.5,1.7,3.37-.91,1.44-1.91.39-2.79-.27-2.06-1-4.26-.58-6.39-.59q-51.94,0-103.9,0,52.15,0,104.31,0c2.46,0,5.06-.42,7.09,1.59-.15,1.87-1.62,1.35-2.65,1.35q-57.48,0-115,0a3.52,3.52,0,0,1-1.4-.47c-2.38-4.74.69-5,4.1-5h74.93Q196.1,73.4,214.58,73.38Z"/><path class="cls-1" d="M217.58,77.39c3.06-1.33.42-2.66,0-4,1.7.13,3,.85,2.82,2.73a3.52,3.52,0,0,1-2.92,3.05,17.46,17.46,0,0,1-4,.21q-54.88,0-109.76,0c-1.75,0-3.7.67-5.17-1q56.91,0,113.82,0C214.15,78.36,216.11,79,217.58,77.39Z"/><path class="cls-1" d="M76.59,69.65c0-1.16,0-2.32,0-3.48,0-7.2,4-10,10.94-7.61a4.39,4.39,0,0,1,3,4.61c0,4.8,0,9.61,0,14.41s-3.43,4.85-7,4.85-6.89,0-7-4.83C76.55,75,76.6,72.3,76.59,69.65Z"/><path class="cls-1" d="M239.58,69.89c0,1.66-.09,3.32,0,5,.28,4.18-1,6.7-5.8,6.57-5.12-.13-6.17-1.08-6.21-6.63,0-3.65.1-7.3,0-11-.16-4.35,2.57-5.41,6.05-5.41s6.23,1.14,6,5.47C239.49,65.91,239.58,67.9,239.58,69.89Z"/><path class="cls-1" d="M244.61,49.35q0-4-.08-8c2-1.79,4.46-.87,6.69-.9,8.14-.12,16.3.24,24.43-.16,4.86-.24,6.73,1.32,6,6.09a21.21,21.21,0,0,0-.08,3Z"/><path class="cls-1" d="M244.6,36.38c0-2.66,0-5.33,0-8q17-.08,34-.17c3.43,0,4.08,2.55,2.07,8.25a6.13,6.13,0,0,1-4.16,1.29q-13.86.1-27.73,0a5.9,5.9,0,0,1-4.13-1.36Z"/><path class="cls-1" d="M244.58,36.4l36,.08c0,.64,0,1.27,0,1.9a275.15,275.15,0,0,1-36,0Z"/><path class="cls-1" d="M244.61,38.42l36-.05c.37,1.07-.43,1-1,1-10.92,0-21.84,0-32.76-.05A6.31,6.31,0,0,1,244.61,38.42Z"/><path class="cls-1" d="M158.54,42.39H212c1.33,0,2.67,0,4,.09a2.35,2.35,0,0,1,2.4,2.1c.19,1.52-1.05,2.08-2.12,2.35a18.76,18.76,0,0,1-4.43.43q-53.17,0-106.36,0c-.67,0-1.33,0-2,0-2-.13-4.58-.17-4.54-2.69,0-2.8,2.79-2.27,4.7-2.27Q131.07,42.37,158.54,42.39Z"/><path class="cls-1" d="M10.58,53.66c0-8.15.13-16.31-.06-24.46-.09-3.9,1.83-5.47,5.29-5.73a46.85,46.85,0,0,1,6.49,0c3.94.26,6.18,2.5,6.2,6.41q.12,24.46,0,48.92c0,3.69-1.71,5.64-5.87,5.68-12,.12-12,.26-12-11.85Z"/><path class="cls-1" d="M158.84,29.39h57c2.2,0,4.31.74,4.28,3.12,0,2-2,2.84-4,2.86h-3q-54.48,0-108.95,0c-2.71,0-6.88.83-6.88-2.86,0-4.15,4.34-3.08,7.15-3.09C122.52,29.36,140.68,29.39,158.84,29.39Z"/><path class="cls-1" d="M239.57,38.2c0,2,0,4,0,6-.09,4-2.16,6.16-6.18,6.14s-6.12-1.8-5.85-6.16c.25-4,0-8,.07-12s2.54-4.86,6-4.86,5.93.88,6,4.88C239.59,34.22,239.57,36.21,239.57,38.2Z"/><path class="cls-1" d="M52.4,47.38H39.45c-1.76,0-3.59-.25-3.64-2.43s1.72-2.55,3.51-2.55h26.4c1.76,0,3.59.25,3.64,2.43s-1.72,2.55-3.51,2.55Z"/><path class="cls-1" d="M76.58,28.39l2-2a21.53,21.53,0,0,1,10,0,3.46,3.46,0,0,1,2,2c1.08,6.09.42,12.23.4,18.34,0,3.6-2.79,5.22-7.65,5.15-4.54-.07-7.14-1.68-7.15-5.15C76.17,40.62,75.51,34.48,76.58,28.39Z"/><path class="cls-1" d="M76.58,28.39c0,5.48-.06,11,0,16.45.06,4.26,2.59,6.54,7,6.54s6.92-2.28,7-6.53c.08-5.48,0-11,0-16.45,2.29,6.57.37,13.35,1,20-1.08,4.51-4.72,4-8,4s-6.92.54-8-4C76.2,41.74,74.32,35,76.58,28.39Z"/><path class="cls-1" d="M88.58,26.39h-10A11.27,11.27,0,0,1,88.58,26.39Z"/><path class="cls-1" d="M52.68,29.41c4.14,0,8.28,0,12.42,0,2,0,3.85.81,4,2.86s-2,2.79-3.49,2.82q-13.14.25-26.29-.05c-1.42,0-3.63-.8-3.32-2.95.26-1.75,1.88-2.66,3.72-2.67C44.07,29.39,48.38,29.41,52.68,29.41Z"/><path class="cls-1" d="M52.09,80.4c-5.16,0-10.32-.19-15.47.07-3.48.17-4.23-1.35-4.13-4.43.09-2.76.1-4.77,3.87-4.7q16.22.3,32.44,0c3.76-.07,3.79,1.93,3.88,4.69.09,3.07-.63,4.6-4.12,4.44C63.08,80.22,57.58,80.4,52.09,80.4Z"/><path class="cls-1" d="M480.58,46.39h-1c-.58-.7-2.1-.31-2.08-1.59,0-1.07.87-1.59,1.88-1.82s2.26.3,3.2-.58h0c1.65,0,3.47.29,4.64-1.22,5-6.43,12-3.8,18.09-3.41,4.68.3,5.81,6,8,9.47,5.74,9.07,11.38,18.21,15.44,28.28,3.69,9.15,1.82,17-4,24.57-8.17,10.54-18.91,8.71-29.48,7.82-3.62-.3-7.49.15-11.48-1,2-3.13,5-2.68,7.31-3.32,4.93-1.35,10.13-1.8,15-3.35,5.77-1.85,6.93-7.19,7.46-12.39.4-3.94.36-7.89,1-11.86,1-6.94-1.11-12.73-6.43-17.89-6.16-6-12.21-11.25-21.43-10.68h0C484.75,46.09,482.43,47.64,480.58,46.39Z"/><path class="cls-1" d="M441.84,83.32A108.74,108.74,0,0,1,421.21,80c-1.49-.35-1.63-1.94-1.63-3.32,0-6.65.07-13.3,0-20-.05-2.72,1.25-3.38,3.66-3.35,7,.08,14,0,20.95.05,4.13,0,7.82-.61,10.86-3.83,1.74-1.84,4.08-2.81,8-1.4-8.77,4.32-16.65,8.37-24.69,12.07-3.59,1.65-6.95,3.24-7.72,7.55s2.14,6.55,5.21,8.77c2.26,1.64,4.23,3.68,6.32,5.54Z"/><path class="cls-1" d="M482.59,42.39c-.62,1-1.68.88-2.64,1.08-2.92.6-1.25,1.82-.36,2.92a11,11,0,0,1-6.37-1.53A14.68,14.68,0,0,1,482.59,42.39Z"/><path class="cls-1" d="M480.58,46.39c2,.32,4.25-.8,6,1C484.58,47.07,482.34,48.2,480.58,46.39Z"/><path class="cls-1" d="M496.55,54.4a86.35,86.35,0,0,0,12,12c.68,7.94-1,15.77-1.05,23.68,0,2.31-.93,3.88-3.63,4.47-9.79,2.13-19.53,4.52-29.28,6.82l-3.06-4,.61-.45c5.54,1.89,10.74-.41,16-1.37,3.43-.62,6.77-1.73,10.19-2.43,5.72-1.17,6.54-2,6.81-7.9.19-4.15.15-8.29,1-12.41a7.23,7.23,0,0,0-2.5-7.16c-2.72-2.44-5.1-5.25-7.88-7.64a5.92,5.92,0,0,0-6-1.38c-1.8.74-1,3-.78,4.54,1.1,6.92-2.67,10.91-8,14.1-3.12.45-6.24,1.07-9.21-.62.31-4.12,3.65-2,5.61-2.74,6.52-2.08,8.6-5.27,7.42-11.57-.3-1.6-.26-3.28-1-4.78-.78-1.14-2.29-1.12-3.23-2a1.16,1.16,0,0,1,0-1.23C486,52.08,491.17,54.18,496.55,54.4Z"/><path class="cls-1" d="M448.7,62.39a1.93,1.93,0,0,0,1.87-.87c6-2.69,11.77-5.71,17.61-8.67,2.28-1.16,4.54-1.91,7.06-.89a1.24,1.24,0,0,1,.64,1.19,2.89,2.89,0,0,1-1.9,1.5c-5.72,1.45-8.15,5.18-7.7,11a5.64,5.64,0,0,1-4.07,3.24c-4.27-1.36-8.24-3.63-13-3.63C447.48,65.22,446.62,63.78,448.7,62.39Z"/><path class="cls-1" d="M448.7,62.39c-.75,1.42-.38,2.27,1.27,2,4.95-.9,8.73,1.66,12.59,4,4.51,1.43,8.94,3.13,13.82,2.92,1.07,0,2.33.44,2.24,2-2.34.41-4.91-.87-7.05,1a2.68,2.68,0,0,1-2.75.77A12.83,12.83,0,0,1,466.09,74a41.13,41.13,0,0,1-6.63-4.3c-4.71-3.9-10.13-3.43-15.55-2.69-2.35.32-4.46,1.33-4.32,4.35-1.74.16-2.61-1.46-4-2v-2C440.19,66.34,443.89,62.91,448.7,62.39Z"/><path class="cls-1" d="M475.56,52.44c-4.21-.85-7.56,1.34-11.13,3-4.58,2.11-8.71,5.27-13.85,6.1C456.93,57,464.13,54,471.21,50.89c2.77-1.2,6.37.12,9.38,1.49v.9C478.69,54.32,477.09,53.59,475.56,52.44Z"/><path class="cls-1" d="M439.59,71.39c-1.25-1.68-2.39-3.21.69-4.36,6.23-2.34,12.36-3,18.27.76,2.74,1.76,5.35,3.74,8,5.62.13,1.71-1.07,1.24-1.89,1-1.57-.39-2.82-1.52-4.34-2.06a27.84,27.84,0,0,1-4.5-2.94c-1.3-1-2.84-.8-4.33-.81-.66.09.16,0-.5,0-1.8.15-4.09-.07-4.62,2-.44,1.72,1.44,2.92,2.74,3.83,6.14,4.28,11.39,9.63,17.37,14.09,2.12,1.58,4.26,3.19,5.37,5.74a1.46,1.46,0,0,1-1.18,1.55c-3.93-1.74-6.73-5-10.12-7.49h0c-1.84-1.13-3.15-2.91-5-4h0c-1.84-1.13-3.15-2.92-5-4l0,0c-1.84-1.13-3.16-2.91-5-4l-1-.94c-1.81-1.19-3.16-3-5-4.07Z"/><path class="cls-1" d="M460.58,88.38c4,1.35,6.43,5,10,7,.74.45,1.56.86,1,2l-.05,0c-4.38-1.69-7.17-5.58-11-8Z"/><path class="cls-1" d="M439.58,71.38c2.51.33,3.83,2.12,5,4.07C442.12,75.09,440.79,73.31,439.58,71.38Z"/><path class="cls-1" d="M450.58,80.38c2.52.28,3.79,2.12,5,4C453.08,84.11,451.8,82.28,450.58,80.38Z"/><path class="cls-1" d="M445.57,76.39c2.53.26,3.8,2.11,5,4C448.08,80.12,446.82,78.26,445.57,76.39Z"/><path class="cls-1" d="M455.58,84.38c2.52.28,3.79,2.12,5,4C458.07,88.12,456.8,86.28,455.58,84.38Z"/><path class="cls-1" d="M354.52,109h44.37c0,.29,0,.59,0,.88h-44.3Z"/><path class="cls-1" d="M354.52,126.84h44.39c0,.33,0,.67,0,1H354.54C354.53,127.51,354.52,127.17,354.52,126.84Z"/><path class="cls-1" d="M398.9,101H354.51l0-.77h44.39Z"/><path class="cls-1" d="M354.49,135.79h44.43v1H354.57C354.54,136.45,354.51,136.12,354.49,135.79Z"/><path class="cls-1" d="M398.87,119.05H355.26c0-.33,0-.67,0-1h43.64C398.88,118.38,398.88,118.71,398.87,119.05Z"/><path class="cls-1" d="M377.64,129.4c1.86,1.1,6.34-2.13,6.55,2.07.23,4.74-4.42,2.36-7,2.84a30.48,30.48,0,0,1-5,.05c-1.89,0-2.7-.84-2.63-2.73s1.11-2.24,2.62-2.23Z"/><path class="cls-1" d="M377.08,107.39c-1.5,0-3,0-4.49,0-1.66,0-3-.29-3-2.37s1-2.63,2.77-2.61c3,0,6,0,9,0,2,0,3.2.92,3.08,3s-1.89,1.9-3.35,1.94S378.41,107.4,377.08,107.39Z"/><path class="cls-1" d="M376.4,98.41c-1.86-1.25-6.69,2.45-6.56-2.65.1-4.23,4.41-1.74,6.81-2.29a18.85,18.85,0,0,1,4,0c2,0,3.8.34,3.8,2.83s-2.07,2.07-3.64,2.14C379.46,98.46,378.13,98.41,376.4,98.41Z"/><path class="cls-1" d="M377,116.39c-1.48,0-3,0-4.45,0-1.66,0-2.92-.32-3-2.37s.92-2.64,2.72-2.62c3,0,5.93,0,8.89,0,1.64,0,3.09.48,3.14,2.36.06,2.2-1.57,2.62-3.39,2.61C379.64,116.38,378.32,116.39,377,116.39Z"/><path class="cls-1" d="M376.58,125.59c-2.11-1.46-6.93,2.26-6.75-2.89.15-4.2,4.44-2.24,6.75-2.14,2.65.11,7.58-2.28,7.49,2.52C384,127.24,379.22,124.53,376.58,125.59Z"/><path class="cls-1" d="M390.53,120.32c1.79.55,4.83-1.17,4.92,2.42.1,4-3.15,2.5-5.12,2.57s-4.78,1.11-4.69-2.51S388.72,120.84,390.53,120.32Z"/><path class="cls-1" d="M390.73,111.34c1.95.38,5-.94,4.72,2.68-.25,3.85-3.45,2.12-5.41,2.29-1.73.15-4.4,1-4.4-2.3C385.65,110,388.91,111.94,390.73,111.34Z"/><path class="cls-1" d="M363.5,98.47c-1.87-.48-4.87,1.08-4.86-2.56s2.94-2.34,4.82-2.45c2.07-.12,4.87-.56,4.91,2.61C368.41,99.71,365.24,97.88,363.5,98.47Z"/><path class="cls-1" d="M390.68,98.49c-1.76-.63-4.77,1.26-5-2.34s2.65-2.65,4.58-2.68c2.19,0,5.24-.73,5.14,2.88C395.28,99.58,392.38,97.93,390.68,98.49Z"/><path class="cls-1" d="M390.41,107.46c-2-.41-4.94,1-4.76-2.71s3.12-2.14,5-2.29c2.1-.17,4.88-.46,4.75,2.77C395.24,108.85,392.08,106.78,390.41,107.46Z"/><path class="cls-1" d="M390.07,134.41c-1.7-.36-4.42.91-4.42-2.4,0-4,3.22-2.47,5.19-2.54,1.7-.07,4.58-1.16,4.55,2.1C395.34,135.18,392.26,134.15,390.07,134.41Z"/><path class="cls-1" d="M363.3,134.41c-1.86-.39-4.75,1-4.67-2.66.07-3.26,2.66-2.23,4.43-2.34,2.29-.14,5.23-.47,5,2.94C367.92,135.25,365.08,134.05,363.3,134.41Z"/><path class="cls-1" d="M353.69,91.51l45.92-.16c-.77,1.16-2,1-3.11,1H356.41A3.23,3.23,0,0,1,353.69,91.51Z"/><path class="cls-1" d="M362.57,107.39c-1.6-.16-4.15.63-3.94-2.56.25-3.85,3.36-2.17,5.3-2.34,1.55-.14,4-.82,3.94,2.09C367.77,108.11,365,107.34,362.57,107.39Z"/><path class="cls-1" d="M362.9,111.32c1.82.46,4.51-.95,4.67,2.35.18,3.67-2.7,2.62-4.62,2.67s-4.35.81-4.34-2.47S361.26,111.73,362.9,111.32Z"/><path class="cls-1" d="M362.94,125.41c-1.93-.21-4.45.64-4.33-2.64s2.7-2.32,4.47-2.32,4.4-1,4.48,2.31C367.66,126.44,364.72,125,362.94,125.41Z"/><path class="cls-1" d="M401.59,111.35c-1.45,1.45-.28,3.43-1,5-1.92,0-4.26.44-4-2.74C397,110.1,399.83,111.89,401.59,111.35Z"/><path class="cls-1" d="M400.59,120.4c.72,1.6-.45,3.57,1,5-1.76-.54-4.63,1.26-5-2.29C396.33,120,398.66,120.44,400.59,120.4Z"/><path class="cls-1" d="M400.55,102.42l0,5c-1.9-.06-4.16.46-4-2.72C396.75,101.79,398.89,102.57,400.55,102.42Z"/><path class="cls-1" d="M398.56,93.41c1.32,1.4,3.14,2.6,2,5-1.46-.25-3.52.73-3.91-1.74C396.43,95.16,396.43,93.61,398.56,93.41Z"/><path class="cls-1" d="M396.6,85.42c3.2-.54,4.39.93,4,4h-.5l-.49,0C396.46,89.69,396.45,87.61,396.6,85.42Z"/><path class="cls-1" d="M354.57,80.42l2,0c.71,1.06,1.39,1,2,0a7.46,7.46,0,0,1,9,0c.72,1.06,1.4,1,2.05-.07a14.94,14.94,0,0,1,13.95.06c.71,1.06,1.39,1,2-.05,3-1.91,6-2.08,9,.07.73,1,1.4,1,2-.09a2.11,2.11,0,0,1,3,.1l0,2c-11.05,1-22.13.28-33.2.4-3.92,0-7.91.71-11.8-.48C354.57,81.7,354.57,81.06,354.57,80.42Z"/><path class="cls-1" d="M383.58,80.38l-13.95-.06c-.47-3,.79-4.28,3.86-4a22.43,22.43,0,0,0,6,0C383,75.63,384.31,76.89,383.58,80.38Z"/><path class="cls-1" d="M383.57,58.42c.37,2.87-.62,4.34-3.78,4a35,35,0,0,0-6.39,0c-3.13.29-4.18-1.12-3.8-4A37.5,37.5,0,0,1,383.57,58.42Z"/><path class="cls-1" d="M376.67,71.83c-2.39-1.46-6.76,1.62-6.68-2.51.07-3.83,4.3-1.78,6.55-1.81s6.6-1.87,6.65,1.7C383.25,73.85,378.51,69.9,376.67,71.83Z"/><path class="cls-1" d="M394.59,80.41l-9-.07c.27-1.66-1-4.12,1.5-4.66,2.36-.51,5.08-1,7.28.46C396,77.17,396,78.91,394.59,80.41Z"/><path class="cls-1" d="M398.44,74.2H354.86c0-.16,0-.32,0-.48h43.52C398.39,73.88,398.41,74,398.44,74.2Z"/><ellipse class="cls-1" cx="376.61" cy="64.89" rx="31" ry="0.32"/><path class="cls-1" d="M354.58,56.42c-.3-1.53.9-1,1.52-1q20.16,0,40.33,0c1.15,0,2.36-.15,3.15,1Z"/><path class="cls-1" d="M394.58,58.36c1.69,3,1.42,4.78-2.6,4.1-2.66-.45-7,1.71-6.38-4A17.42,17.42,0,0,1,394.58,58.36Z"/><path class="cls-1" d="M390.71,67.27c1.7.55,4.78-1,4.56,2.2s-3.34,1.75-5.19,1.87c-1.55.1-4.26,1-4.27-1.78C385.81,65.93,389,68,390.71,67.27Z"/><path class="cls-1" d="M367.58,80.38l-9,0c-.61-6.19,4.2-3.57,6.85-4C369.41,75.7,366.87,79,367.58,80.38Z"/><path class="cls-1" d="M363.26,71.48c-1.61-.54-4.59,1.1-4.46-2.26.11-2.83,2.75-1.78,4.35-1.79s4.17-1,4.26,1.89S364.87,71.06,363.26,71.48Z"/><path class="cls-1" d="M367.59,58.37c.37,2.76-.44,4.4-3.64,4.09-1.77-.18-3.57-.06-5.35-.08a2.83,2.83,0,0,1,0-4h0A17.78,17.78,0,0,1,367.59,58.37Z"/><path class="cls-1" d="M396.63,58.45l4.95-.06c-.37,2.93-1.46,5-5,4C396.62,61.05,396.62,59.75,396.63,58.45Z"/><path class="cls-1" d="M396.61,67.43c1.35.76,4.22-1.9,4.23,2s-2.87,1.21-4.22,2C396.61,70,396.61,68.73,396.61,67.43Z"/><path class="cls-1" d="M399.59,80.42l-3-.1c0-1.3,0-2.6,0-3.89,3-.32,5.59-.29,4,4h-.49Z"/><path class="cls-1" d="M383.57,58.42l-14,0A19.88,19.88,0,0,1,383.57,58.42Z"/><path class="cls-1" d="M367.59,58.37l-9,0A9,9,0,0,1,367.59,58.37Z"/><path class="cls-1" d="M394.58,58.36l-9,.08A8.9,8.9,0,0,1,394.58,58.36Z"/><path class="cls-1" d="M358.6,58.4v4h-2c0-1.33,0-2.67,0-4Z"/><path class="cls-1" d="M376.45,89.65c-2.2-1.34-6.7,1.88-6.62-2.78.07-4.39,4.36-2.28,6.69-2.29s6.68-2,6.82,2.14C383.51,91.85,378.67,88.14,376.45,89.65Z"/><path class="cls-1" d="M391,89.54c-2-.74-5.34,1.34-5.35-2.6s3.26-2.23,5.22-2.46c2.48-.29,4.88.12,4.58,3.46C395.15,91.67,392.24,88.22,391,89.54Z"/><path class="cls-1" d="M354.57,82.34l45,.08c-.56.31-1.12.87-1.68.88q-21.42.09-42.83.06c-.14,0-.38-.09-.41-.19A3.83,3.83,0,0,1,354.57,82.34Z"/><path class="cls-1" d="M363.15,89.43c-1.62-.43-4.3,1-4.5-2.25-.23-3.64,2.62-2.68,4.55-2.7s4.34-.8,4.36,2.43S365,89.17,363.15,89.43Z"/><path class="cls-1" d="M327.59,56.5c0-7.48.05-15,0-22.43,0-2.34.34-4.5,2.71-5.34S334.13,30,335,31.56c2.75,5.24,8,5.42,12.68,6.66,1.42.37,3.14.2,3.66,2,.58,2-.94,3.36-2.27,4-8.6,4.33-9,12.37-9.39,20.36-.26,6-.17,12,0,17.94.1,3.6-1.47,4.29-4.61,3.51-6.21-1.55-7.45-3.07-7.45-9.64S327.58,63.14,327.59,56.5Z"/><path class="cls-1" d="M376.33,51.35c-1.45-.47-4.28-.65-3.88-2.59.48-2.37,3.38-1.17,5.24-1.33,1.26-.11,3.25-.21,3.11,1.48C380.62,51.08,378.54,51.46,376.33,51.35Z"/><path class="cls-1" d="M362.58,23.38c9.91-5.08,20.8-6.28,31.57-8,10.12-1.59,20.2-3.46,30.36-4.74a53.35,53.35,0,0,1,26.34,3.7c9.29,3.72,19,7.22,26.73,14,1.28,3-.35,4.1-3,4.7-6.65,1.52-13.39,2.58-20,4.3h0c-1.73.3-3.18,2.26-5.2.89.49-3.68,3.68-4,6.27-4.67,4-1,8.17-1.5,12.22-2.44,1.56-.36,3.37-.17,4.76-2.07-4.1-2.93-9-4.22-13.19-6.77A53.56,53.56,0,0,0,423.93,15c-18.89,2.5-38,4.05-56.35,10-2,.65-4,1.7-6.28.89C359.22,23.81,362.15,24.22,362.58,23.38Z"/><path class="cls-1" d="M362.58,23.38l-2,2-.48.64c-.57.57-1.7.75-1.76,1.61-.11,1.51,1.25,1.22,2.12,1.31a311.85,311.85,0,0,1,55.42,11c9,2.62,18.45.94,27.7.85,1.15,0,2.28-.4,3.41.1l.61.53a6.11,6.11,0,0,1-4.9,2c-14.11.21-28.14.46-41.76-4.65-11.22-4.21-23.29-4.66-35.05-6.37-3.92-.57-7.82-1.28-11.73-1.9-1.31-.21-2.87-.2-3.13-1.86s1.33-2.22,2.51-2.62C356.51,25,359.35,23.48,362.58,23.38Z"/><path class="cls-1" d="M454.59,37.4c6.11-3,12.9-3.19,19.35-4.82,2.53-.64,3.85-1.54,3.65-4.19,2,3,.72,4.55-2.29,5.19C468.43,35.05,461.65,37,454.59,37.4Z"/><path class="cls-1" d="M449.58,38.38l5-1a21.12,21.12,0,0,1-7,4l0,0c-.59-.91-.12-1.67.32-2.44C448.35,38.43,448.84,38,449.58,38.38Z"/><path class="cls-1" d="M158.08,55.39c-18.33,0-36.66,0-55,0-1.34,0-3.66.82-3.81-1.06-.18-2.34,2.27-1.87,3.81-1.88q55.49,0,111,0c1.54,0,4-.46,3.8,1.88-.15,1.87-2.47,1.05-3.81,1.06C195.41,55.41,176.74,55.39,158.08,55.39Z"/><path class="cls-1" d="M67.58,61.39c1.39.17,2.92.53,2.56,2.27a3.52,3.52,0,0,1-3.73,2.7c-4.32,0-8.63,0-12.95,0q-7.22,0-14.44,0c-1.63,0-3-.52-3.3-2.35a2.51,2.51,0,0,1,2.33-3.21c9.85-.34,19.73-1.44,29.53.58-2.08,1.9-4.67,1.35-7.1,1.41-6.54.17-13.09-.23-19.62.66a218.21,218.21,0,0,0,22.73.33C65.3,63.74,66.87,63.21,67.58,61.39Z"/><path class="cls-1" d="M52.55,52.41c4.31,0,8.62,0,12.92,0,1.21,0,2.5.35,2.64,1.73.17,1.77-1.28,2.18-2.66,2.19-8.28,0-16.57,0-24.85,0-1.46,0-3.4-.36-3.42-2.1,0-2,2-1.81,3.44-1.82,4,0,8,0,11.93,0Z"/><path class="cls-1" d="M249.59,61.39c2.68-2,5.77-.84,8.65-.94,5.47-.2,10.95-.13,16.42,0,1.81.05,3.81.61,3.79,3.05s-1.83,2.85-3.82,2.85h-23.4c-2,0-3.76-.73-4.21-2.73-.39-1.72,1.17-2.09,2.57-2.26.83,2.06,2.65,2.43,4.51,2.47a132.28,132.28,0,0,0,18.45-.49c-5.25-.71-10.54-.45-15.81-.59C254.3,62.73,251.69,63.31,249.59,61.39Z"/><path class="cls-1" d="M263.13,52.4c3.66,0,7.31,0,11,0,1.34,0,2.93.09,2.95,1.87,0,1.42-1.53,1.88-2.55,1.89q-11.44.16-22.9,0c-1,0-2.58-.47-2.47-1.94.12-1.75,1.71-1.78,3-1.79C255.82,52.38,259.48,52.4,263.13,52.4Z"/><path class="cls-1" d="M158.67,65.39H105.19c-1.33,0-2.67,0-4-.09-1-.09-2-.5-2.09-1.71s1.16-1.63,2-1.82a21.28,21.28,0,0,1,4.45-.36q53,0,106,0h2c1.95,0,4.28.34,4.2,2.47s-2.58,1.49-4.11,1.5Q186.15,65.43,158.67,65.39Z"/><path class="cls-1" d="M217.58,77.39H105.72c-1.33,0-2.66,0-4,0-.63,0-1.39-.07-1.56-.91a1.45,1.45,0,0,1,1.32-1.76,22.8,22.8,0,0,1,4-.28q53.19,0,106.37,0C214.17,74.42,217.12,73.58,217.58,77.39Z"/><path class="cls-1" d="M79.59,70.43c0-2,.06-4,0-6-.12-3,1.31-4.15,4.22-4.09s3.85,1.36,3.81,4c-.06,4.14,0,8.29,0,12.43,0,2.89-1.68,3.61-4.2,3.58s-3.79-1-3.78-3.5Q79.6,73.66,79.59,70.43Z"/><path class="cls-1" d="M229.6,69.88c0-2,0-4,0-5.95,0-2.89,1.71-3.58,4.21-3.55s3.76,1,3.76,3.51c0,3.47-.07,6.94,0,10.41.09,3-.38,5-4.18,5.18-4.23.16-3.93-2.4-3.85-5.13,0-1.49,0-3,0-4.46C229.59,69.88,229.59,69.88,229.6,69.88Z"/><path class="cls-1" d="M263.16,47.38c-4,0-8,0-12,0-1.79,0-3.5-.43-3.4-2.65.08-1.89,1.64-2.31,3.25-2.32q12,0,23.9,0c1.79,0,3.54.43,3.39,2.65s-2,2.33-3.74,2.33C270.79,47.4,267,47.39,263.16,47.38Z"/><path class="cls-1" d="M263.08,35.38H251.15c-2,0-4-.8-4.09-2.79-.12-2.4,2-3.18,4.16-3.19q11.93,0,23.85,0c1.87,0,3.3.68,3.4,2.77.11,2.36-1.35,3.19-3.47,3.19C271,35.38,267.06,35.38,263.08,35.38Z"/><path class="cls-1" d="M158.7,30.39c18,0,35.94,0,53.91.07,1.63,0,4.72-1.33,4.56,1.89-.13,2.69-3,2-4.88,2q-53.65,0-107.32,0A16.22,16.22,0,0,1,101,34c-.88-.22-2.09-.62-1.93-1.9s1.16-1.55,2.2-1.62c1.33-.09,2.66-.07,4-.08Z"/><path class="cls-1" d="M52.86,43.39c3.83,0,7.67,0,11.5,0,1.07,0,2.67-.38,2.67,1.34,0,1-1.17,1.57-2.24,1.57q-12.24,0-24.49,0c-.85,0-1.82-.3-1.92-1.24-.14-1.33,1-1.61,2-1.62,4.16-.06,8.33,0,12.5,0A.08.08,0,0,1,52.86,43.39Z"/><path class="cls-1" d="M89.57,38.58c0,1.49-.08,3,0,4.47.3,4.3-1.32,6.43-6,6.43s-6.31-1.9-6.09-6.31c.18-3.63,0-7.28,0-10.92,0-4,2.45-4.9,5.92-4.9s6,.76,6,4.78C89.61,34.28,89.57,36.43,89.57,38.58Z"/><path class="cls-1" d="M51.94,78.38c-3.82,0-7.64,0-11.46,0-1.74,0-3.64-.2-3.65-2.39,0-2,2.26-2.25,3.39-2.14a125.47,125.47,0,0,0,24.74,0c1.12-.11,3.44.1,3.33,2.15-.09,1.76-2,2.23-3.41,2.28-4.31.13-8.63,0-12.95,0C51.94,78.34,51.94,78.36,51.94,78.38Z"/><path class="cls-1" d="M471.6,97.37l-1-2,1-1c8.78,1.69,17-1,25.39-3,4.21-1,6.17-3.6,6.27-7.8a61.13,61.13,0,0,1,.71-9.44c.74-4.21-5.54-12.69-9.82-13.83-2.43-.65-3,.87-3.11,2.67a22.49,22.49,0,0,1-1.46,7.82A18.9,18.9,0,0,1,460.45,73a1.51,1.51,0,0,1,.13-1.56c2.35-.38,3.36,3.23,6,2a2.13,2.13,0,0,1,2,1,33.16,33.16,0,0,0,13,0c.16-.29.25-.68.5-.85,6-4,6.54-9.89,5.23-16.15-.6-2.89.32-2.94,2.7-2.78,6,.39,8.79,5.26,12.86,8.45,5,3.93,5.28,8.47,3.91,14.13-1,4.12,0,8.52-1,12.83-.56,2.41-1.41,3.22-3.64,3.71-7.9,1.73-15.78,3.55-23.61,5.57C475.69,100,474,97.69,471.6,97.37Z"/><path class="cls-1" d="M478.63,73.37c-1.32-1.38-3.07-1-4.61-.89a13.28,13.28,0,0,1-11.46-4.07l3.05-3.13c1.91-.55,2.93,1.08,4.33,1.79,4.19,2.11,8.76,1.3,12.38-2.27.18-.41.37-.81.54-1.22,1.09-3-2-5.68-.77-8.71a1.62,1.62,0,0,1,2.51-.5C488.36,64.63,486.79,69.62,478.63,73.37Z"/><path class="cls-1" d="M481.58,74.38c-4.2,2-8.6.72-12.92.81-.08,0-.21-.23-.22-.35a1.38,1.38,0,0,1,.15-.46l3,0Z"/><path class="cls-1" d="M484.6,54.36a2.19,2.19,0,0,0-2.06,1.06c-2.76.72-5-.25-7-2.1,0-.29,0-.59,0-.88a8.82,8.82,0,0,1,5,.84C482,53.54,483.55,52.94,484.6,54.36Z"/><path class="cls-1" d="M475.55,53.32a19.52,19.52,0,0,1,7,2.1c.08,3,3.63,5.66,1.06,9a7,7,0,0,1-2.11-3.88c-1.74-6.08-8.61-5.61-12.39-1.36-2.32,2.61-.42,6,3.47,6.83s7.36-1.11,11-1.61c-2.39,5.13-10,6.87-15,3.38-1.06-.75-2-1.66-3-2.5C464.58,57.63,466.7,55.08,475.55,53.32Z"/><path class="cls-1" d="M463.57,62.17c0,1.55,0,3.24-2.18,3.11a3.54,3.54,0,0,1-3.63-3.41c-.11-1.82,1.46-2.63,3-2.81C462.85,58.81,463.64,60.2,463.57,62.17Z"/><path class="cls-1" d="M460.58,71.39c0,.33,0,.67,0,1-1.78,1.31-3.14-.12-4.58-.76a7.31,7.31,0,0,0-6.51-.2c4,5.61,9.65,9,14.64,13C478.72,96,474,95.59,492.07,91.32c9-2.13,10-3.22,10.28-12.78.16-5.48,0-10.47-5-14.23-3.75-2.82-3.46-3.1-4.82,1.29-.63,2-.5,4.93-3.91,4.79a34.21,34.21,0,0,0,1.1-7.81c.25-4.14,2.45-5.15,6.05-3.11,6.91,3.92,9.83,9.81,8.9,18a2.75,2.75,0,0,0,0,.5c1.41,14.58-4,14.18-15.3,16.57-6,1.26-11.83,3.69-17.73-.09-7.85-6.36-15.74-12.66-23.5-19.13-1.68-1.4-4.45-3-3.16-5.6,1.18-2.42,4.15-2.27,6.65-2.27,1.48,1.22,3.51-.21,5,1Z"/><path class="cls-1" d="M456.57,68.42c-1.68-.28-3.59.6-5-1C453.26,67.64,455.19,66.7,456.57,68.42Z"/><path class="cls-1" d="M449.58,38.38l-1,1A9,9,0,0,1,443,41.29c-13.7.29-27.37.75-40.63-4.13-10.75-4-22.16-5-33.48-6.3-2.77-.32-5.46-1.14-8.27-1.28a2.33,2.33,0,0,1-2.43-2.08c-.12-1.62,1.56-1.42,2.36-2.11h0c9-1.93,17.63-5.54,26.93-6.54,14.12-1.52,28-5.35,42.26-5.42,10,0,19.71,1.48,28.6,6.76,4.54,2.69,9.57,4.55,14.37,6.81,1.19.56,2.61,1.05,2.63,2.68,0,2-1.77,1.64-2.94,1.88-4.69,1-9.4,1.87-14.09,2.84C455.12,35.06,451.68,35.26,449.58,38.38Z"/><path class="cls-1" d="M360.58,25.39c-3,2.67-.76,3.5,1.54,3.89a112.32,112.32,0,0,0,14.19,2c12.23.49,23.66,4.54,35.23,7.79,6,1.68,11.84,1.3,17.75,1.27,6.43,0,12.94,1,19.29-.94-.33.67-.67,1.34-1,2a96.09,96.09,0,0,1-45.64-3.68c-13.24-4.48-27.21-5.38-41-7.3-2.2-.31-5.53.19-5.68-2.41C355.19,25.93,358.34,25.43,360.58,25.39Z"/><path class="cls-1" d="M67.58,61.39c1.34,2.45.57,3.92-2.17,4-8.46.09-16.92,0-25.38,0-1.32,0-3-.12-2.88-1.91.1-1.56,1.8-1.9,3.05-2,3.81-.15,7.63-.1,11.44-.11Z"/><path class="cls-1" d="M249.59,61.39c7.6,0,15.21,0,22.81,0,1.67,0,3.74-.06,3.85,2.11.14,2.7-2.26,1.82-3.69,1.84-6.61.09-13.22.06-19.84,0-2.66,0-4.91-.44-3.13-4Z"/><path class="cls-1" d="M263.19,43.4c3.33,0,6.66,0,10,0,1.17,0,2.63.07,2.63,1.57,0,1.14-1.29,1.38-2.32,1.38-7,0-14,0-21,0-1.16,0-2.54-.36-2.29-1.93.21-1.3,1.56-1,2.48-1C256.19,43.36,259.69,43.39,263.19,43.4Z"/><path class="cls-1" d="M262.26,34.37c-3.5,0-7,0-10.49,0-1.38,0-2.85-.37-2.72-2.16.11-1.41,1.41-1.76,2.62-1.76q10.74,0,21.48,0c1.36,0,2.91.19,3,1.93s-1.5,2-2.86,2C269.59,34.4,265.92,34.37,262.26,34.37Z"/><path class="cls-1" d="M87.58,39.09c0,1.82,0,3.65,0,5.47.07,2.74-1.28,3.84-4,3.84s-4.07-1-4-3.76q.07-5.72,0-11.43c0-2.75,1.28-3.84,4-3.84s4.1,1,4,3.76C87.54,35.12,87.57,37.11,87.58,39.09Z"/><path class="cls-1" d="M488.58,70.39c2.58-1.65,2.8-4.37,3-7,.2-3.31,1.77-3.69,4.23-2.2,7.28,4.41,10.76,20.56,5.91,27.46a6.82,6.82,0,0,1-4.48,2.83c-5.18,1-10.28,2.51-15.44,3.64-2.63.58-5.44.71-7.67-1.09q-12.16-9.81-24.15-19.85c-1.09-.91-2.67-1.94-2-3.66s2.58-.9,4-1.17c3.51-.7,5.69,2.38,8.73,3a23.37,23.37,0,0,0,16.14,5A14.31,14.31,0,0,0,488.58,70.39Z"/><path class="cls-1" d="M483.62,64.4c-3.28,3.81-7.73,3.1-11.95,2.94a5.23,5.23,0,0,1-4.89-4.27c-.66-2.61.35-4.7,2.83-6.24,7.21-4.48,13.14-2.43,14,7.6Z"/><path class="cls-1" d="M479.76,93.83c-5.3.56-7.83-3.82-11.19-6.22-5.51-3.93-10.6-8.45-15.84-12.75-.85-.7-2.25-1.42-1.53-2.75.64-1.18,2.09-.79,3.18-.57,2,.4,3.49,1.78,5,3.07,8.77,7.34,26.07,7.38,31.72-4.14.29-.59.8-1.07,1.09-1.66.94-1.91-.66-5.74,3.6-5.12,2.58.38,6.88,6.66,6.62,9.28-.08.81-.56,1.57-.68,2.38-.69,4.5,1.68,10.84-2.54,13.08C493.43,91.53,486.32,92.15,479.76,93.83Z"/><path class="cls-1" d="M475.15,64.43c-2.26-.17-4.16-1-4.1-3,.07-2.29,2.09-3.08,4.26-3,2,.06,3.85,1,3.8,3C479.07,63.7,477,64.35,475.15,64.43Z"/></g></g></svg>