<svg xmlns="http://www.w3.org/2000/svg" viewBox="0 0 467.64 207.25"><defs><style>.cls-1{fill:#fff;stroke:#000;stroke-miterlimit:10;}</style></defs><title>Asset 9</title><g id="Layer_2" data-name="Layer 2"><g id="Layer_1-2" data-name="Layer 1"><path class="cls-1" d="M326.54,1.57c1.06,1.43,2.63.84,4,1,1.7.81,2.35,2.41,3,4h0c1.24,1.85-.31,4.16,1,6h0c2.88,1.38,6.11-.31,9,1,.73,1.16,1.91.95,3,1a1,1,0,0,1-.2,1.42,5.41,5.41,0,0,1-4,.42A10.41,10.41,0,0,0,339.9,16c-6.73-.44-6.73-.44-9.06-7.08A3.9,3.9,0,0,0,329,6.71c-.74-.4-1.43-.88-2.16-1.3a7.37,7.37,0,0,0-2.46-.4q-38.15-.1-76.28,0c-5,0-5.65,1-6.14,6.9-.47,5.64-1.78,6.77-6.46,5.57-4.65-4-11.44-2.83-14.07,2.88a31.29,31.29,0,0,1-8.85,11c-8,6.78-9.92,13.93-2.45,22.35,1.22,1.37,2.55,2.83,1.57,4.87s-2.81,2.25-4.68,2.27q-26.73.18-53.46,0a7.8,7.8,0,0,1-5.11-1.73,5.75,5.75,0,0,1-1.8-6.33,4.46,4.46,0,0,1,4.4-3.44c4-.24,7.9-.55,11.66,1.58,7.15,4,15,2.07,22.49,1.8,2.55-.09,3.87-2.48,3.91-5.08.16-10.33.14-20.65,0-31,0-3-1.66-4.74-4.67-4.67-7.61.16-15.34-1.19-22.74,1.72a70.67,70.67,0,0,1-9,.23c-47.35.07-94.7-.11-142,.1a12.08,12.08,0,0,0-1.58.37c-1.78.42-3.94.18-4.64,2.59A10.22,10.22,0,0,0,4,18.46c0,9.1-.47,18.19.25,27.26A7.61,7.61,0,0,0,6.35,47.9,7.72,7.72,0,0,0,8.49,49c16.1.41,32.2,0,48.29.18,2.63,0,5.34-.3,7.79,1.08A4.85,4.85,0,0,1,66,51.44a7.83,7.83,0,0,1,.35,6.27,3.49,3.49,0,0,1-2,1.81c-2.69.69-5.45.33-8.17.45-9.41,0-18.81,0-28.21,0-2,.11-4.08-.45-6,.5a9.48,9.48,0,0,0-2.65,3.25c-1,3.47.09,7.08-.76,10.56a4,4,0,0,1-.8,1.41,4,4,0,0,1-1.41.83c-2.6.76-5.49-.14-8,1.35-2.86,1-3.49,3.14-3.41,5.87.38,12-.77,24.11.68,36.14a8.67,8.67,0,0,1-.54,3.9,12.41,12.41,0,0,1-.58,2.33,18.43,18.43,0,0,1-1,2c-1.19,2.82-.79,5.71-.34,8.6A8.1,8.1,0,0,0,4.28,139a8.67,8.67,0,0,0,2.51,2.24,5.71,5.71,0,0,0,2.23.81c47.57.18,95.12,0,142.67.08,3.32,0,6.65-.09,10,.1a8.87,8.87,0,0,1,1.84.32c6.8,3.81,14.22,2.57,21.46,2.43,3.4-.07,4.15-2.78,4.18-5.69.05-5.48,0-11,0-16.44a33,33,0,0,1,.21-5c.88-5.56,2.06-6.06,6.48-2.79,2.87,2.13,6.19,2.07,9.53,2.08,12.56,0,12.42,0,12.6,12.77.12,8.42-1,16.91,1.1,25.26.13.5-.28.93-.54,1.35-2.73-1.25-3.07-3.56-3-6.24.09-8,0-16,0-24,0-6.75,0-6.59-6.55-6.82-4.76-.17-9.66,1.13-14.25-1.29-1.54-.81-1.89.27-2.26,1.57a33.93,33.93,0,0,0-.5,15.32c1.87,10.37-1.52,13.28-11.77,12.81-13.54-.62-26.69-3.87-40.44-3.63-43.13.76-86.28.28-129.43.28-7.29,0-9.74-2.49-9.8-9.87,0-4.15-.34-8.34,1.55-12.25,1.39-2.87-.6-5.51-.58-8.31.1-10,0-20,.07-30,.08-7,2.59-9.54,9.77-9.52,3.7,0,5.21-1.48,5.18-5,0-1.17,0-2.33,0-3.5,0-6.82,2.59-9.5,9.64-9.57,10.66-.11,21.32,0,32,0a33.18,33.18,0,0,0,4-.12c1-.12,2-.67,2-1.88s-.93-1.75-2-1.88a33.18,33.18,0,0,0-4-.12q-23.24,0-46.47,0C2.81,52.56.54,50.25.54,41.32c0-7-.06-14,0-21,.07-6,2.93-8.75,8.89-8.75q72,0,143.92,0A35.32,35.32,0,0,0,163.55,9.7c7.78-2.3,15.81-1.28,23.71-.58a5.79,5.79,0,0,1,5,5.58c.28,11.63.63,23.26-.19,34.91-.31,4.44-3.71,5.43-8,8h20.9c2.35,0,2.42-1.19,1.5-2.89-.24-.44-.52-.85-.77-1.28-6.16-10.18-3.5-20.33,7-26.43,1.47-.85,2.89-1.65,3.59-3.29,4.34-10.2,8.82-12.79,19.18-11.09,1.64,1.19,2.31.45,2.51-1.26.15-1.25-.39-2.6.48-3.76-.37-5.15,4.15-4.6,7-6,1.05-.71,2.25-.47,3.39-.47q37.11,0,74.22,0C324.29,1.09,325.49.85,326.54,1.57Z"/><path class="cls-1" d="M449.55,175.57c2.49,6,5.2,11.88,7.39,18,1.82,5.05.17,8.56-4.82,9.56-7.44,1.49-14.79,3.46-22.53,3.65-5.26.13-8-1.85-9.71-6.5-4-10.74-8.39-21.33-12.22-32.12-1.53-4.31-3.73-5.72-8.34-5.72-10.78,0-21.62,1.13-32.37-.79-1-.17-2.22,0-2.9-.47-9.14-7-19.67-2.2-29.46-3.47-2.28-.3-2.84,1.57-3.11,3.64-1.07,8.07-2.42,8.81-10.42,9.34-30.27,2-60.57.35-90.85.88-1.91,0-4,.74-5.69-1,2.06-2,4.68-1.39,7.1-1.39,24.88-.05,49.77,0,74.65,0a30.87,30.87,0,0,0,6.93-.33c3.8-1.8,8-1.38,12-1.92a3.31,3.31,0,0,0,2.06-3.4c.16-2.65.46-5.25,2.17-7.44,5.73-3,29.29-2.68,34.51.63a10.87,10.87,0,0,0,6.16,1.52c9.5,0,19-.06,28.49,0,7.48.08,9.6,1.62,12.33,8.55C415,177.16,418.8,187.63,423,198c2.48,6.18,3.68,6.78,10.19,5.54,5.55-1.06,11.14-2,16.6-3.45,3.39-.9,5.24-2.92,3.63-6.66-.19-.46-.36-.93-.53-1.4a10.21,10.21,0,0,0-2.43-5,15.87,15.87,0,0,1-3-7.08,7.31,7.31,0,0,0-2-4.86,15.92,15.92,0,0,1-3-7.15,7.36,7.36,0,0,0-2.14-5,38,38,0,0,1-5-12.7,24.52,24.52,0,0,1,.21-6.23c.77-2.59,3.09-3.13,5.21-4,4.66-2,9.73-3.14,13.64-6.64a26.68,26.68,0,0,0,2.17-2.58,3.64,3.64,0,0,0-.24-4.62,8.29,8.29,0,0,1-.7-1.14,7.22,7.22,0,0,1-.85-2.61,2.78,2.78,0,0,1,.62-2c1.91-.58,2.27,1.18,3.19,2.1,5.5,6.5.41,14.85-7,17h0c-3,1.31-6.07,2.55-9.16,3.68-3.52,1.29-4.46,3.7-3.2,7.06,1.68,4.46,3.35,8.93,5.36,13.25h0C446.28,167.54,447.71,171.64,449.55,175.57Z"/><path class="cls-1" d="M458.55,122.57l-3-2c-2.09-.29-3-2-4-3.48-3-4.37-6.47-8.47-9.4-12.92s-6.94-6.26-12.26-6.23c-19.16.13-38.33.35-57.49-.08a107.85,107.85,0,0,1-28-4c-3-.87-5.93-.68-8.89-1-1.45-.17-3.32-.3-3.25-2.31s1.9-2,3.36-2.22a43.71,43.71,0,0,1,5.49-.12q54.24,0,108.48,0c2.48,0,5,.32,7.43-.57,4.52-.47,6.17-3.22,6.08-7.49-.07-3.48.05-7,0-10.44-.11-4.93-.8-5.57-5.93-5.69-8.44-.21-16.89.35-25.33-.3a4.78,4.78,0,0,1-2.89-2,8.7,8.7,0,0,1-.27-6.31,3,3,0,0,1,1.16-1.38c5.84-1.57,11.79-.47,17.69-.75,3.79-.18,7.58.12,11.36-.19,2.93-.63,4.51-2.41,4.57-5.46a10.71,10.71,0,0,1,.29-1.39c.83-3.73.54-7.48.26-11.23-.19-.43-.37-.86-.55-1.28-.81-1.78-2.39-2.31-4.15-2.59-29.22-.17-58.42,0-87.62-.07-2,0-4,.06-6,0-5.77-.31-7.71-2.84-6.81-8.8a1.18,1.18,0,0,1,1.61-.57c-.05,2.24.07,4.42,2,6,1.71,1,3.58.49,5.37.49q44.63,0,89.24.05c1.79,0,3.66-.46,5.38.46l4,4a48.07,48.07,0,0,1,0,15c-.6,3.33-1.74,6.33-5,8-8.61,1.11-17.26.18-25.88.47-2.35.08-5-.27-4.11,3.52h0c6.53,1.16,13.13.19,19.68.54,2.44.13,4.94-.53,7.33.46,6.8,1.92,7.55,2.85,8,10-1.45,4.93.38,10.07-1,15h0c-1.66,4.92-5.69,5.48-10,5.48-28.49,0-57,.09-85.46-.08-5.35,0-10.53,1.26-15.85,1.13,2.86,0,5.78-.37,8.32,1.47a27.44,27.44,0,0,0,8.33,1c18.1,0,36.2.23,54.29-.12,9.25-.18,16.76,1.4,21.59,10.52C450,111.19,455.29,116.24,458.55,122.57Z"/><path class="cls-1" d="M314.54,169.55c-1.64,1.75-3.77,1-5.67,1q-42.18.08-84.35,0c-5.29-.84-3.68-5.62-4.8-8.74-.59-1.63-.14-3.64-1.17-5.27-3.39-7.44-1.58-15.34-2-23a62.31,62.31,0,0,1,0-9c.42-4.49-1.13-6.59-5.86-6-2.3.26-4.65,0-7,.06-4.7.17-8.88-.71-11.53-6-2.79,7.53-1.32,14.65-1.67,21.6-.12,2.32,0,4.65,0,7s-1.07,4.82-3.39,4.88c-7.95.24-16.21,2.68-23.61-2.49a3.14,3.14,0,0,1,2.27-1c6.8.61,13.6,1.45,20.43.36,1.92-1.83,1.72-4.25,1.76-6.55.14-7.15.17-14.31.16-21.46a21,21,0,0,1,.26-4.48c.37-1.74,1.2-3.15,3.12-3.45a3.07,3.07,0,0,1,3.7,2.61c.73,5.94,4.85,5.64,9.18,5.63,14.47-.06,14.46.06,14.56,14.39.05,7-.5,14,.4,20.92,1.68,4.11,3.92,8,3.85,12.73a4.54,4.54,0,0,0,3.17,4.64c11.44.62,22.88.19,34.31.25,15.75.08,31.5,0,47.24,0C310.2,168.19,312.64,167.68,314.54,169.55Z"/><path class="cls-1" d="M362.54,93.57c-4.72-.62-9.89,1.57-15.46-3h6.43q50.44,0,100.9,0c4.59,0,8.54-.88,11.14-5-.14,5.5-4.45,5.68-8.15,5.9-5.64.34-11.31.09-17,.09-24.79,0-49.58,0-74.37.1C365,91.67,361.81,89.56,362.54,93.57Z"/><path class="cls-1" d="M462.54,28.57q-47.16,0-94.32,0c-1.9,0-4,.76-5.68-1q47.16,0,94.32,0C458.77,27.6,460.89,26.85,462.54,28.57Z"/><path class="cls-1" d="M326.54,1.57h-81c1.31-1.51,3.08-1,4.67-1q35.84,0,71.66,0C323.46.6,325.24.05,326.54,1.57Z"/><path class="cls-1" d="M444.55,163.57c-3.54-4.53-4.67-10.11-6.61-15.33-1-2.69,1.11-4.37,2.9-5.05,3.5-1.34,6.83-3.35,10.71-3.61-1.5,1.65-3.55,2.27-5.54,3-7.26,2.73-7.74,4-4.81,11.3C442.46,157.05,444.37,160,444.55,163.57Z"/><path class="cls-1" d="M431.55,59.56c-2.29-4.2,1-3.93,3.36-4,8.88-.09,17.76,0,26.64,0-3,2-6.37.81-9.55.94-5.25.22-10.51.07-15.77.05C434,56.56,431.8,56.52,431.55,59.56Z"/><path class="cls-1" d="M451.55,139.57c1.08-.71,2.15-1.43,3.23-2.13,4.94-3.2,6-7.17,3.77-14.87,3.29,2.24,3.71,5.47,2.48,8.8C459.42,135.72,457,139.44,451.55,139.57Z"/><path class="cls-1" d="M458.55,60.56c-7.45,0-14.91,0-22.36,0-1.59,0-3.36.55-4.65-1,7.45,0,14.9,0,22.34,0C455.48,59.61,457.25,59.06,458.55,60.56Z"/><path class="cls-1" d="M449.55,175.57a27.31,27.31,0,0,1-5-12A27.42,27.42,0,0,1,449.55,175.57Z"/><path class="cls-1" d="M346.53,15.6c0-.35,0-.69,0-1,3.1,1.94,7.26,1.21,10,4l-.59.54C352.4,19.13,348.62,19.7,346.53,15.6Z"/><path class="cls-1" d="M238.54,7.56a24,24,0,0,1-.07,4.88c-.67,3.05-1.86,1.79-2.92.13C238.88,12.3,236.52,8.63,238.54,7.56Z"/><path class="cls-1" d="M343.54,13.57c-3-.45-6.18,1-9-1C337.53,13,340.73,11.56,343.54,13.57Z"/><path class="cls-1" d="M334.55,12.57c-1.82-1.75-.68-4-1-6C335.35,8.32,334.22,10.57,334.55,12.57Z"/><path class="cls-1" d="M360.54,21.57h-1c-2.22.25-3.19-.78-3-3l.08-.09C358.57,18.68,359.69,20,360.54,21.57Z"/><path class="cls-1" d="M333.55,6.57l-3-4C333.12,2.72,333.64,4.42,333.55,6.57Z"/><path class="cls-1" d="M16.55,75.57l.9-.06.44.81c-.27,2.39-2.16,2.07-3.74,2.06q71.46-.31,142.94-.18c2.58,0,5.38-.71,7.61,1.43-1.26,3.15-4.1,2.3-6.4,2.32-16.5.1-33,0-49.49,0q-46.24,0-92.48,0C9.21,82,9,82.24,9,89.28c0,7.33,0,14.66,0,22-.15,2.69,1,4,3.82,3.89,1.83-.08,3.66,0,5.49,0q68.7,0,137.4,0A22.85,22.85,0,0,1,167,118c5,2.67,11,1.18,16.63.77,1.35-.83,1.41-2.34,1.94-3.63.39-.94.76-2.26,2.31-1.34.89,2.81,1.36,5.57-.84,8.06-3.49,2.39-8-.32-11.45,2.23-1.06.91-2.16,1.39-3.4.32-2.52-2.74-7-.86-9.37-4-1.76-1.74-4-1.42-6.14-1.43q-42.17-.06-84.33,0a24.83,24.83,0,0,0-3,.11c-1.66.2-3,.83-2.67,2.81.28,1.77,1.58,1.65,3,1.6,24.27-.76,48.56-.17,72.83-.34a201.65,201.65,0,0,1,20.42.45,4.91,4.91,0,0,1,2.78.41c.94.67,1.26,1.42.33,2.35-2.58,2.14-5.69,1.59-8.63,1.59q-69.2.06-138.39,0c-1.67,0-3.33,0-5,0-5.79.07-5.93.22-6.17,6.31a26.68,26.68,0,0,1-.14,2.83,5.68,5.68,0,0,1-.54,1.8,1.25,1.25,0,0,1-1.53.7c-3-5.51-2.15-12.73,1.81-15.63,13.13-.94,26.28-.16,39.42-.43,4-.08,8,.29,12-.33,2-.31,3.9-.58,2.37-3.34-1.79-1.31-3.86-.88-5.82-.89-14,0-28,0-42,0-7.38,0-7.85-.45-7.94-8-.1-8,0-16,0-24,0,7.94-.06,15.88,0,23.83s.56,8.28,8.16,8.3c12,0,24,0,36,0,1,0,2-.06,3,0,1.92.18,4.89-.26,4.91,2.16,0,3.16-3.17,2.14-5.09,2.16-14.65.15-29.31-.08-44,.15-1.73-.09-3,2.15-5,.94,1.75-3.4-.07-6.79-.06-10.18,0-10.46.15-20.92-.06-31.38-.08-3.86,1.22-6,5.07-6.48C11.09,75.25,14,77,16.55,75.57Z"/><path class="cls-1" d="M5.49,48.62l-1.9-1.09a191.64,191.64,0,0,1,0-31h0C4.64,14.29,6.72,14,8.9,13.9a29.56,29.56,0,0,1,7-.31q69.63,0,139.26,0a46.72,46.72,0,0,0,6.48-.17,14.5,14.5,0,0,1,5.28-1.75c6.44,0,12.88-.27,19.32.13.87.37,1.74.74,1.32,2-4.55,2.39-9.44,1-14.17,1.12-3.73.11-7.24.36-10.32,2.69-2.62.65-5.29.42-7.94.43Q84.81,18,14.51,18c-2.4,0-5.08-.73-6.9,1.72-1.41,7.43-.51,14.92-.5,22.37,0,3.37,2.93,3,5.24,3,16.15,0,32.29,0,48.44,0,2.28,0,4.71-.46,6.71,1.22-.8,3.57-3.78,2.5-5.94,2.51q-27.09.16-54.18.05A6.4,6.4,0,0,1,5.49,48.62Z"/><path class="cls-1" d="M166.53,12.56a6.75,6.75,0,0,0-4,1l-.39-.51.38-.51C170.45,8.72,178.8,10.81,187,11c2.58.06,3.57,2.71,3.57,5.27,0,10.48,0,21,0,31.45,0,4.14-2.25,6.9-6.4,6.7-8.11-.4-16.52,2.13-24.2-3.31-2.64-1.87-6.83-.71-10.28-.33-1.48.16-2,1.55-2.08,3-.07,1.88-.07,3.66,1.94,4.73a9.94,9.94,0,0,0,4.82,1q26.21,0,52.42,0c1.61,0,3.53.43,4.36-1.53.56-1.33-.71-2.1-1.5-2.89-10.38-10.35-4.81-19.9,3.8-26.29,2.7-2,4.55-3.89,5.67-7,2-5.73,6.93-8.64,12.73-8.28,2.08.13,3.58.7,3.8,3a1.75,1.75,0,0,1-1.33.32c-5.87-1.76-10.29-.05-12.58,5.47a18.11,18.11,0,0,1-7.3,9.05,14.5,14.5,0,0,0-6.67,9c-.09.45-.22.89-.35,1.32-1.4,4.4.38,7.76,3.52,10.67a11.21,11.21,0,0,1,1.42,1.42,17,17,0,0,0,3.12,2.69c1.49,1.57,2,3.13,0,4.71a5.21,5.21,0,0,1-1.66.58c-12.43.4-24.86.06-37.29.2-8.13,0-16.26,0-24.39,0-2.81,0-6.14.3-7.21-3s-1.77-7.22,1.85-10c4-1.39,8.16-.6,12.25-.67,1.88.13,3.41,1.14,5,2,.43.2.86.42,1.29.63a22.36,22.36,0,0,0,3.38,1,94.92,94.92,0,0,0,14.7,0,12.22,12.22,0,0,0,2.46-1.07,4.94,4.94,0,0,0,1.87-2.63c.13-.47.28-.93.42-1.4.3-4.51.07-9,.1-13.51-.19-5.82.48-11.66-.41-17.46a2.54,2.54,0,0,1-.21-2.39l-1-1A83.28,83.28,0,0,0,166.53,12.56Z"/><path class="cls-1" d="M328.53,4.57l1,1a1,1,0,0,1,0,1.41,4.81,4.81,0,0,1-3,1.22c-.59,0-1.16-.08-1.74-.15-24.83-.17-49.66,0-74.49-.11-3.81,0-5.42,1.35-5.41,5.27,0,2.84,1.15,6.08-1.7,8.41-2.51-1.26-2-3.7-2.28-5.84C241,3.47,241.74,4,253.49,4.07c23.22.06,46.45,0,69.67,0C324.94,4.11,326.81,3.65,328.53,4.57Z"/><path class="cls-1" d="M3.59,124.61l3.94-1,.39.51-.38.52c-3.68,4.77-2.18,9.88-1,15a3.2,3.2,0,0,1,1.88-.46c49,.17,98,0,147,.15,2.45,0,5.84-1.47,7.11,2.46-1.77,1.35-3.85.85-5.8.85q-72.46,0-144.93,0c-2.16,0-4.35.2-6.34-.95l-1.95-2.05c-1.36-4.33-1.68-8.66,0-13Z"/><path class="cls-1" d="M18.5,62.56l2.05-3c2.07-1,4.27-.27,6.4-.5H56.24c2.78.17,5.6-.37,8.36.33,0,2.33-1.81,2.16-3.17,2.09-12.21-.66-24.45-.34-33.76-.45,12-.86,26.95,1.4,41.88-.41a13.57,13.57,0,0,1,2.68.41c4.09.67,8.46-1.09,12.36,1.34A1.28,1.28,0,0,1,84.22,64c-2.12,1.32-4.5.92-6.79.92-15.92,0-31.84,0-47.76,0-5.42,0-5.47.24-5.77,5.59C23.77,73,25,77.1,21.81,77.1c-2.81,0-1.5-4.09-1.71-6.42-.19-2.07,0-4.17-.24-6.25-.32-.64-.84.38-.28,0,.19-.12.29,0,.33.38.28,3,.1,6,.1,8.92,0,1.55-.49,2.67-2.4,1.86l-.15-.09c0-.32.06-.64.08-1C19,70.65,17.19,66.48,18.5,62.56Z"/><path class="cls-1" d="M70.53,61.6C65,63,59.45,62.42,53.8,62c-8.1-.65-16.27-.31-24.41-.39a16,16,0,0,1-6.82-1c12.26,0,24.51,0,36.77,0,1.73,0,3.7.76,5.12-1-.29-.25-.37-.46-.24-.65s.24-.26.36-.26l1-1c1.36-2,1.5-4-.07-6h0a6.21,6.21,0,0,0-3.64-2c-16.37-.15-32.74,0-49.1-.09-2.1,0-4.33.53-6.21-1C8,47,10,47.6,11.71,47.6c16.89-.05,33.78,0,50.67-.06,1.74,0,3.68.64,5.17-.95,1.44-.64,2.51,0,3.46,1,1,1.84.69,4,1.37,5.94a7.79,7.79,0,0,1,0,3.08C71.77,58.28,72.07,60.29,70.53,61.6Z"/><path class="cls-1" d="M5.51,141.61l157,0c1.72-.41,3.08-.27,3,2h-2l-1,0c-1.72-.95-3.59-.48-5.38-.48Q84.55,143,11.93,143c-1.8,0-3.66.45-5.39-.46Z"/><path class="cls-1" d="M6.54,142.58q75.41,0,150.82,0c1.75,0,3.7-.65,5.19,1q-75.41,0-150.82,0C10,143.54,8,144.19,6.54,142.58Z"/><path class="cls-1" d="M162.54,13.57c-1.48,1.62-3.43,1-5.18,1q-74.91,0-149.82,0c-.33-.22-.43-.44-.33-.66s.22-.33.33-.33c.33,0,.65,0,1,0,1.39-.82,2.93-.46,4.4-.46q72.6,0,145.19,0c1.47,0,3-.35,4.4.44Z"/><path class="cls-1" d="M162.52,13.54H8.53c1.68-1.65,3.79-.93,5.7-.93q74.16-.09,148.31-.08C162.54,12.88,162.53,13.21,162.52,13.54Z"/><path class="cls-1" d="M356.51,18.62a7.22,7.22,0,0,0,3,3c.27,7.48.77,8,8.06,8q44.15,0,88.3,0c1.91,0,4-.71,5.7.94l-.72.67A9.77,9.77,0,0,1,456,32c-31.19,0-62.39.13-93.57-.06-3.71-.3-5.07-2.64-5.23-6,0-3.82-2.79-4.92-5.76-5.85-3.12-1-6.63-1-9-3.77l.15-.72,4,.06C349.55,17.62,353.08,17.94,356.51,18.62Z"/><path class="cls-1" d="M328.53,4.57H253.71c-12.22,0-12.22,0-12.15,12.05a3.41,3.41,0,0,1-.91,3.32c-2.35,1.2-4.28.51-6-1.34-.12-.21-.24-.43-.37-.64a1.63,1.63,0,0,1,.21-1.39h1c2.9,1.86,4.34.51,4.81-2.36a41,41,0,0,0,.15-5c.13-3.58,2-5.62,5.59-5.63q40.11-.06,80.23,0C327.08,3.62,327.8,4.24,328.53,4.57Z"/><path class="cls-1" d="M63.54,49.57a1.76,1.76,0,0,1,1.95,2,24.12,24.12,0,0,0-7.84-1.07q-23,.09-46,0c-1.76,0-3.7.61-5.21-.95,1.54-.94,3.24-.49,4.87-.49Q35,49,58.66,49.1C60.29,49.11,62,48.69,63.54,49.57Z"/><path class="cls-1" d="M156.69,57.74c-2.55-.83-6.92,1.37-6.83-2.87s4.33-1.95,6.71-2.2c2.68-.28,6.27.77,6,3.53S158.61,56.85,156.69,57.74Z"/><path class="cls-1" d="M63.54,49.57l-57,0-1-1,1.06-.07q25.9,0,51.82.07C60.11,48.63,62.06,48,63.54,49.57Z"/><path class="cls-1" d="M3.55,16.57q0,15.48,0,31c-1.46-1.08-1-2.67-1-4.1q-.06-11.37,0-22.73C2.55,19.27,2.15,17.69,3.55,16.57Z"/><path class="cls-1" d="M56.57,59.55h-30q-.46-.34-.3-.66c.11-.21.22-.31.33-.31h30c.33.21.44.42.34.64S56.68,59.55,56.57,59.55Z"/><path class="cls-1" d="M329.53,6.56c0-.33,0-.65,0-1,2.62.4,3.08,2.51,2.91,4.46-.33,3.9,1.4,4.94,4.95,4.59,1.71-.17,3.67-.66,5.16.92l0,0a16.59,16.59,0,0,1-9.59,1.94A3.46,3.46,0,0,1,331,16.21c-1-2-.53-4.27-1-6.38-.14-.42-.26-.86-.36-1.29A5.79,5.79,0,0,1,329.53,6.56Z"/><path class="cls-1" d="M3.53,126.56l0,13a2,2,0,0,1-1-2,21.84,21.84,0,0,1,0-10Z"/><path class="cls-1" d="M65.51,51.6c3.21,2,3,4,.07,6Q65.55,54.6,65.51,51.6Z"/><path class="cls-1" d="M18.5,62.56c-.44,4,1.12,8.14-1,12C18,70.57,16.5,66.42,18.5,62.56Z"/><path class="cls-1" d="M2.53,127.56v10A11.49,11.49,0,0,1,2.53,127.56Z"/><path class="cls-1" d="M56.57,59.55c0-.32,0-.65,0-1l8,0c0,.31-.07.61-.12.92Z"/><path class="cls-1" d="M16.55,75.57c-2.46,2-5.35.58-8,1C11,74.6,13.89,76,16.55,75.57Z"/><path class="cls-1" d="M7.54,13.57v1c-1.73-.12-2.61,1.45-4,2C3.68,14,5.39,13.48,7.54,13.57Z"/><path class="cls-1" d="M26.55,58.57c0,.32,0,.65,0,1l-6,0C22.3,57.75,24.54,58.87,26.55,58.57Z"/><path class="cls-1" d="M328.56,164.58a3,3,0,0,1-2,3l-.58-.28a7.88,7.88,0,0,0-1.24-.51c-4.84.08-9.67.12-14.51.18q-24.84,0-49.65,0c-9.57,0-19.15,0-28.72,0-2.12,0-4.32.29-6.26-1-2.33-4.06-1.82-8.22-.45-12.42a4.56,4.56,0,0,1,2.66-1.27c31.64-.34,63.29-.12,94.94-.11a8.16,8.16,0,0,1,2.94.47,2.15,2.15,0,0,1,1.39,2.07c-1.47,2.12-.89,4.68-1.05,6.51.33-1.15-.28-3,.28-4.62,1-.56,1.45.05,1.88.79C328.7,159.79,327.17,162.26,328.56,164.58Z"/><path class="cls-1" d="M453.56,191.54c3.47,5.5,2.34,8.53-3.94,10-6.12,1.43-12.31,2.56-18.45,3.92-5.27,1.17-7.6-1.83-9.23-6.13-4.12-10.86-8.5-21.62-12.39-32.56-1.84-5.19-5-7.32-10.37-7.22-10,.19-20,0-29.95.07-2.4,0-4.55-.19-6.39-2.07a5.55,5.55,0,0,0-3.47-1.78c-9.93.13-19.92-1.34-29.79.85a2,2,0,0,1-.27-1.77c1.09-1.58,2.78-1.63,4.42-1.65,8.23-.08,16.45-.1,24.68,0a12.77,12.77,0,0,1,6.07,1.83c1.9,1.3,4.09,1.12,6.24,1.13,10.6,0,21.21,0,31.81,0,2.09,0,4.34-.4,6.16,1.45a27.52,27.52,0,0,1-2.58-5.07,68.83,68.83,0,0,0-4-10.29,11.63,11.63,0,0,1-.52-1.39,6.72,6.72,0,0,1-.38-2.95,1.41,1.41,0,0,1,1.13-.89c3.51.78,4.34,3.87,5.43,6.58,6.36,15.92,12.36,32,18.66,47.93,2.67,6.75,3.21,7.05,10.39,5.56,12.55-2.61,11.3-2,6.89-12.65-3.87-9.39-7.71-18.78-11.6-28.16-1.59-3.84-3.23-7.76-2.7-12.06.34-2.73.32-5.81,3.75-6.95a1.5,1.5,0,0,1,1.06,1c.4,1.19-1.15,2.91,1,3.62.41,2,.93,4-.72,5.71-1.52.46-1.14-.89-1.48-1.55a3.58,3.58,0,0,0,.9,2.59,7,7,0,0,1,.59,1.24,111,111,0,0,0,4.35,10.82,6,6,0,0,1,.61,1.22c1.23,3.61,2.79,7.1,4.28,10.61a7.66,7.66,0,0,1,.61,1.17A20.16,20.16,0,0,0,446,178a8.77,8.77,0,0,1,.52,1.22,76,76,0,0,0,4.74,11.16,9.77,9.77,0,0,1,.57,1.38c1.61,6.31,1.58,6.14-4.75,7.4-6.07,1.21-12.22,2.1-18.16,3.88-2,.49-2.75-.71-3.28-2.28-.95-1.68-1.17-3.67-2.21-5.32-1.1-2.59-1.64-5.39-2.94-7.91-.8-1.7-1.12-3.59-2.14-5.2-1.38-4.27-3.18-8.38-4.72-12.58-.75-.81-.48-2.09-1.28-2.88.74.93.6,2.3,1.48,3.16,1.29,4.3,3.14,8.39,4.71,12.58.86,1.67,1.13,3.58,2.13,5.19,1.09,2.57,1.64,5.35,2.9,7.86.81,1.66,1.12,3.52,2.08,5.12.36,2.08,1.62,2.71,3.58,2.23,6.21-1.71,12.56-2.67,18.85-3.95,2.23-.45,5.95,0,4.56-4.46A3.12,3.12,0,0,1,453.56,191.54Z"/><path class="cls-1" d="M457.59,88.59c-1.69,1.63-3.8.92-5.72.92q-56.72.08-113.42.08c-1.75,0-3.58-.37-5.53.63.47.55.71,1.1,1,1.16,26.33,5.09,53,6,79.67,5.2,5.66-.16,11.33.2,17-.06s9.55,2.18,12.63,6.53c4.12,5.82,8.21,11.66,12.32,17.49,0,.67,0,1.33,0,2-2.41.31-3-1.82-3.89-3.2-3.33-5-7.18-9.55-10.49-14.52a10.63,10.63,0,0,0-5.63-4.7c-22-1.76-44-1-66-1.16-2.81,0-5.64.19-8.34-.89-.59-.1-1.17-.24-1.74-.39-3.63-1.45-7.52-.26-11.22-1.05-3.8-1.86-7.87-1.7-11.94-1.73-2.58,0-5.36.1-6.5-3.08-.21-3,1.6-4.16,4.2-4.52a36.13,36.13,0,0,1,5-.15q55.47,0,111,0C452.55,87.19,455.35,86.48,457.59,88.59Z"/><path class="cls-1" d="M314.54,169.55q-42.17,0-84.32,0c-1.91,0-4,.72-5.68-1l.73-.66c2.2-1.07,4.56-.73,6.86-.74,24.41,0,48.81-.08,73.22,0,5.32,0,10.59-.72,15.9-.62,1.8,0,3.69-.33,5.26,1l0,0C322.81,169.81,318.34,167.61,314.54,169.55Z"/><path class="cls-1" d="M433.58,147.58c1.74-1.83.67-4.07.9-6.12.94-3.13,4.34-1.6,6.07-3.23a11.14,11.14,0,0,1,1.24-.51,29.93,29.93,0,0,0,6.08-2.6,10.7,10.7,0,0,1,1.25-.54c2.17-.3,4-2.56,6.49-1-3.1,4.62-8.63,4.82-13,7.16-2,1.06-4.51.95-6.09,2.86a10,10,0,0,0,0,7c1.25,4.17,2.44,8.37,5,12a3.53,3.53,0,0,1,.53,2.53,1.28,1.28,0,0,1-1,.75c-1.78-.89-1.61-2.93-2.55-4.31l0,0c-1.77-4-3.18-8.09-5-12l0,0A1.36,1.36,0,0,1,433.58,147.58Z"/><path class="cls-1" d="M437.54,99.57c6.31,4.89,9.53,12.25,14.51,18.2,1.27,1.51,2.34,3.19,3.51,4.79l1,2.08c-2,1.24-3.15-.29-4.47-1.31a39,39,0,0,1-5.19-7.37,27.44,27.44,0,0,0-5-6.85c-1.81-2.21-4.05-4.13-4.86-7a3.08,3.08,0,0,1,0-2Z"/><path class="cls-1" d="M453.56,191.54l0,3.05c-2.67-.11-1.79-2.85-3-4l0,0c-1.77-4-3.18-8.09-5-12l0,0c-.85-1.6-1.11-3.45-2-5l0,0c-.44-2.72-3.47-4.78-2.05-8l0,0c2-.63,1.1,1.59,2,2,.72,2.46,1.05,5.08,3,7,.85,1.59,1.08,3.43,2,5,.73,2.45,1,5.08,3,7,.85,1.58,1.07,3.43,2,5C453.57,191.56,453.56,191.54,453.56,191.54Z"/><path class="cls-1" d="M452.53,122.55c1.41.57,2.27,2.22,4.05,2.09,0,.31,0,.62,0,.93,2.6,1.65.79,4,1,6l-1.88,1.95c-2.52.14-4.43,2.42-7.1,2C452.41,132,455,128,452.53,122.55Z"/><path class="cls-1" d="M329.54,155.56c0,.36,0,.72,0,1.08l-1,8c-1.94-2.11-.62-4.68-1-7C328.21,156.9,327.68,155.05,329.54,155.56Z"/><path class="cls-1" d="M457.51,131.6c-1.58-1.81.68-4.23-1-6C459.84,127.1,458.93,129.3,457.51,131.6Z"/><path class="cls-1" d="M436.56,150.58a5.72,5.72,0,0,1,0-7Q436.57,147.07,436.56,150.58Z"/><path class="cls-1" d="M453.57,191.56a5.69,5.69,0,0,1-2-5A5.89,5.89,0,0,1,453.57,191.56Z"/><path class="cls-1" d="M448.56,179.57a5.75,5.75,0,0,1-2-5A5.84,5.84,0,0,1,448.56,179.57Z"/><path class="cls-1" d="M443.56,167.57l-2-2v-3A5.84,5.84,0,0,1,443.56,167.57Z"/><path class="cls-1" d="M461.57,30.55a2.83,2.83,0,0,1,3,3c-.13.44-.27.87-.42,1.3-.81,4,.34,8.11-.84,12.06-.13.43-.26.61.1.58.11,0,.21-.2.34-.32a.63.63,0,0,1,.84.38c.19,3-.44,5.49-4,6l-.51-.52c-.27-.39-.51-.8-.75-1.19-2.21,1.73-4.78,1-7.19,1-6.11.11-12.22-.07-18.32.1-1.94,0-5.13-1.21-5.49,1.6-.39,3.07-2.17,6.94,1.83,9.35,8.05.48,16.09.05,24.13.22,2.1,0,4.3-.31,6.17,1.13a1.2,1.2,0,0,1-.2,1.71c-1.78,1.22-3.82,1-5.79,1q-45.79,0-91.59,0c-2,0-4,.21-5.85-.79a2,2,0,0,1-.7-2.55c2.48-1.84,5.39-1.44,8.18-1.45,17.95-.05,35.9,0,53.86,0,5.29,0,7.53-3.41,5.58-8.36C423,52.44,421,53,419.24,53c-10.14-.09-20.28,0-30.42,0-8.64,0-17.29,0-25.93,0-2.13,0-4.36.34-6.27-1.07a2,2,0,0,1,0-2.62c2.22-1.64,4.81-1.08,7.26-1.09,29.32,0,58.64,0,88-.07,2.36,0,5.94,1.19,6.69-1.67.94-3.56,2.28-7.78-1.18-11.13a30.63,30.63,0,0,0-7-.31c-30.05-.09-60.11.13-90.16-.11a4.34,4.34,0,0,1-2.69-1.12,1.28,1.28,0,0,1,.47-1.69c1.91-.9,3.94-.47,5.91-.48,32-.12,64,.16,96-.15a4.32,4.32,0,0,0,1.67-.84Z"/><path class="cls-1" d="M457.59,88.59l-121.27,0c-2.85,0-6-.47-5.78,4-2.44-2.65-2.06-4.75,1.06-5.39a22.41,22.41,0,0,1,4.49-.09H454a20.27,20.27,0,0,0,4.92-.24c-1.8.52-3.66.2-5.49.2q-59,0-118-.05c-2.6,0-5.26,1.07-7.84-.2-.33-2.27,1.44-2.25,2.82-2.47a38.61,38.61,0,0,1,6-.17c40-.05,79.95.08,119.9-.07a14.71,14.71,0,0,0,1.62-.24c.93-.13,1.94.11,2.79-.49,2.07-5.62,1.67-11.34.85-17.08a2.8,2.8,0,0,0-1.71-1.57c-7.88-.32-15.76,0-23.64-.19-1.71-.05-4.12,1-4.78-1.92,8.93,0,17.87.06,26.8-.1,4.39-.08,6.45,1.65,6.27,6.15-.17,4.29.08,8.61-.1,12.9S462.64,89,457.59,88.59Z"/><path class="cls-1" d="M431.54,62.59c5.72,2.19,11.67.34,17.47,1,4.17.46,8.5-1.14,12.53,1-8.87,1.09-17.78.16-26.67.51-2.11.08-4.29-.53-6.34.48-1.71-1.62-3-11.61-1.51-13.15a3.26,3.26,0,0,1,2.2-.81c10.41,0,20.83.09,31.24.16.08,0,.23.22.24.35a1.47,1.47,0,0,1-.14.47c-1.9,1.49-4.13.93-6.24,1-7.45.1-14.91-.07-22.36.09a3.8,3.8,0,0,0-2.34,1c0,.31,0,.62-.07.92-1.33,2-1.5,4,.07,5.94C430.26,61.87,430.9,62.23,431.54,62.59Z"/><path class="cls-1" d="M429.61,54.65c.31-.36.62-.72.92-1.09a193.58,193.58,0,0,1,30,0l0,0c-2.35,1.88-5.1.86-7.65.91C445.15,54.68,437.38,54.62,429.61,54.65Z"/><path class="cls-1" d="M464.56,47.58h-1a41.27,41.27,0,0,1-.05-14l1,0h0a37.22,37.22,0,0,1,0,13C464.57,46.92,464.57,47.25,464.56,47.58Z"/><path class="cls-1" d="M429.62,61.51c-3.07-1.94-2.9-3.93-.07-5.94Q429.58,58.54,429.62,61.51Z"/><path class="cls-1" d="M165.52,143.58l-3-2c-1.65-1.72-3.77-1-5.67-1q-71.81-.06-143.62-.07c-1.91,0-4,.72-5.7-.91,1.71-1.84,4-1.45,6.1-1.45q72.66-.06,145.31,0c2.15,0,4.34-.11,6.36.88a10.28,10.28,0,0,1,1.58.82c2,1.93,4.79,1.11,7.14,1.82,2.74.84,5.58.25,8.35.56,1.65.18,3.84-.34,4.16,2.33C179.51,145,172.48,145,165.52,143.58Z"/><path class="cls-1" d="M186.56,144.58c-2.27-2-5-.64-7.48-1-1.86-.28-3.93.66-5.56-1,2.09-2.2,5.06-.86,7.44-1.85,3.9-.11,3.15-3.35,3.77-5.66.86-2.84.12-5.84.87-8.7,1.93-5.09,3.21-10.13,1.82-15.73a4.6,4.6,0,0,1,4.09-5.76c3-.41,4.4,1.69,5.14,4.29a12,12,0,0,0,.78,2.83,9.51,9.51,0,0,0,1.78,1.69c4.4,1,8.87.16,13.28.55,4.86.43,6.37,1.85,7.41,6.9.08,8.12.06,16.24,0,24.36,0,2.1.39,4.37-1.41,6.09-2-3.42-.76-7.15-.9-10.72-.24-6-.26-12,0-18,.21-4.7-2.14-6.27-6.3-6.29-3.5,0-7-.1-10.5,0-3.65.12-6.22-.82-6.37-5.11-.06-1.64-.48-3.75-2.55-3.68-2.5.08-2.34,2.37-2.34,4.21,0,8.83,0,17.67,0,26.5C189.51,141,189.9,143.72,186.56,144.58Z"/><path class="cls-1" d="M218.52,151.61q0-15.54,0-31.09c.83-1.12,1.69-1.8,2.74-.22,1.4,8.69.27,17.44.64,26.16.1,2.25-.49,4.73,2,6.2,2.28,4.05.49,8.46,1.1,12.65a4.63,4.63,0,0,1,.26,1.69,3.52,3.52,0,0,1-.74,1.53l0,0a4.35,4.35,0,0,1-2.53-4.45C222.12,159.52,220.12,155.65,218.52,151.61Z"/><path class="cls-1" d="M185.58,135.51c-.25,2.79,1.21,6.73-4.11,6.11a48,48,0,0,1-14.94-.08l0-.91c-2.05-1.92-4.6-1.57-7.08-1.57q-73.78,0-147.58,0c-1.78,0-3.66.55-5.34-.54,0-.31,0-.63.05-.94a15.33,15.33,0,0,1,4.14-2.13,31.4,31.4,0,0,1,5.48-.26q70.69,0,141.38,0c3.53,0,7,.08,10.16,1.9,3.1,1.61,6.46,1,9.75,1.16,2.91.12,4.74-.57,4.69-4.08s-1-5.24-4.81-5.25c-4.63,0-9.26-.21-13.89.11q-72.69,0-145.37,0c-2.57,0-5.4-.75-7.52,1.57-1,1.48-.53,3.47-1.68,4.9a1.67,1.67,0,0,1-2.34.1c-.15-9-.15-9,8.81-9q71.64,0,143.27,0a22.54,22.54,0,0,0,7.83-1.1c6.3-.91,12.6-2.26,19-.33C186.53,128.6,186.16,132.05,185.58,135.51Z"/><path class="cls-1" d="M185.64,119.53c-7.51.92-15.17,3.57-22-2.2-1.69-1.41-3.86-.74-5.81-.75q-72.42,0-144.84.06c-3.88,0-6.18-.61-5.38-5.07a2.4,2.4,0,0,1,2.63-.24c2.53,2.14,5.59,1.82,8.58,1.82q67.46,0,134.92,0c4.55,0,8.87.39,13,2.66,3.79,2.08,8.12,1.46,12.27,1.21,2.92-.18,3.95-2.46,4-4.89.19-9.16.25-18.32,0-27.48-.09-3-1.66-4.9-5.12-4.68s-7-.41-10.32,1.13A2.12,2.12,0,0,1,164.94,79a3.31,3.31,0,0,1,.36-1.86,4.11,4.11,0,0,1,2.35-1.65c4.63-.65,9.29-.24,13.94-.3,3.79,0,5.41,1.94,5.35,5.59C186.69,93.71,187.86,106.68,185.64,119.53Z"/><path class="cls-1" d="M165.54,78.57a2.1,2.1,0,0,0,1,2c.1,2.51-1.72,3-3.59,3.24a41.26,41.26,0,0,1-6,.16H24.05c-1.83,0-3.67,0-5.5,0-5.8.16-7.45,1.74-7.56,7.44-.1,4.83,0,9.66-.05,14.49,0,2,.27,4-1.39,5.63h-2c0-8.5.21-17-.12-25.48-.17-4.35,1-5.65,5.52-5.64,48.64.17,97.28.11,145.93.07,1.9,0,4,.79,5.67-1C164.31,78.65,164.65,78.32,165.54,78.57Z"/><path class="cls-1" d="M163.59,124.61c-2.54,2-5.06-.14-7.61-.12-27.28.19-54.56.12-81.85.12a14.4,14.4,0,0,0-3.48.16c-2.85.71-5.73,1.94-6.1-2.8s2.77-4.39,5.89-4.39q33.44,0,66.88,0c7.15,0,14.31.07,21.46,0,2.57,0,4.58.57,5.78,3C165,122.09,163.62,123.19,163.59,124.61Z"/><path class="cls-1" d="M165.54,78.57l-1,1H7.17c1.83-2.42,4-1.8,6-2,1.68-.15,3.87.74,4.43-2,2.71-.58,1.84-2.76,1.92-4.43.11-2.46,0-4.93.33-7.4,1.67,4.12-.68,8.91,2.68,14,0-4,.23-6.75-.06-9.49-.39-3.8,1.1-4.77,4.79-4.75,19.1.15,38.21,0,57.32,0a5.26,5.26,0,0,1,3.64-1.29c7.74-.09,15.49-.15,23.23,0a4.83,4.83,0,0,1,2.79.88,1.19,1.19,0,0,1,.18,1.7c-2.22,1.62-4.8,1.11-7.25,1.11C82,66,56.92,66,31.79,66c-5.7,0-7.31,1.67-6.81,6.52a4.57,4.57,0,0,0,4.42,4.53,29.06,29.06,0,0,0,3.49.1H155.67a19,19,0,0,0,4.46-.29,30.49,30.49,0,0,1,3.69-1.3c1.72-.4,2.56.14,1.7,2C165.54,77.91,165.54,78.24,165.54,78.57Z"/><path class="cls-1" d="M7.53,123.55c1.49-1.6,3.44-1,5.19-1,13.15,0,26.31,0,39.46-.06,1.55,0,3.29.62,5-1-1.57-1.53-3.44-.94-5.07-1-13.15,0-26.31-.23-39.46.07-4.85.11-7.22-1.72-7.61-6.31-.91-10.65-.25-21.27-.41-31.91h2v18c0,4.33.18,8.67-.06,13-.18,3.36,1.16,4.24,4.35,4.22,15.82-.13,31.63-.08,47.45,0,1.73,0,3.7-.75,5.15,1-2,1.58-4.2.39-6.27.4-14.73.1-29.47.07-43,0-1.83.13-.88,1-1.17.39-.12-.25,0-.4.3-.4,14.8.1,29.6,0,44.4,0,1.72,0,3.48,0,3.54,2.4s-1.52,2.58-3.35,2.57c-16.46,0-32.92.07-49.38-.08a2.42,2.42,0,0,1-.91-.4Z"/><path class="cls-1" d="M6.57,138.49q76.94,0,153.87.08c2.21,0,4.82-.8,6.12,2.05a28.08,28.08,0,0,0-5.83-1.1q-76.59.1-153.19.1l-1-.09C6.56,139.19,6.56,138.84,6.57,138.49Z"/><path class="cls-1" d="M7.57,123.59c12.64,0,25.29.29,37.91-.16,4.94-.18,10.39,2.43,14.91-1.73-4.52-4.51-10.13-1.77-15.17-2-11.43-.48-22.9-.15-34.36-1.12H63.44c.8,4.6-.22,6.39-5.75,6.21-16.7-.55-33.44-.21-50.16-.22C7.54,124.25,7.55,123.92,7.57,123.59Z"/><path class="cls-1" d="M185.64,119.53c0-12.75-.19-25.5,0-38.24.05-3.68-.94-5-4.73-4.79-4.78.32-9.6.13-14.4.15-.14-1.54,1-2.11,2.12-2.21,5.87-.52,11.75-.81,17.61.17a3.07,3.07,0,0,1,1.91,1.45c1.61,8,.56,16,.65,24.08a12.39,12.39,0,0,0-.16,4.25c-.56,3-.29,6.17-1.13,9.17C185.48,115.12,187.59,118,185.64,119.53Z"/><path class="cls-1" d="M187.51,113.57l.09-10c2.89-2.13,6.46-2.41,8.72-.15,2.76,2.76,2.28,6.67.21,10.1-1.28-1-.93-2.36-1-3.64-.11-2.24-1.16-4.09-3.39-4.12-2.56,0-3.55,2-3.6,4.41-.09,4.75.34,9.53-1,14.18a16.49,16.49,0,0,1-1,2.15c-.56-.46-.55-1.2-.87-1.78a4.74,4.74,0,0,1-.1-1.35,2.85,2.85,0,0,1,.95-1.75C188.08,119.11,187.43,116.3,187.51,113.57Z"/><path class="cls-1" d="M186.54,123.63l-.06,1a2.44,2.44,0,0,1-.95,1l-19-.08-1-1c2-3.1,4.55-2.24,7.12-.81.79,1,1.46.8,2-.23A16.38,16.38,0,0,1,186.54,123.63Z"/><path class="cls-1" d="M172.57,123.7c-2.38.16-4.91-.91-7.12.81l-1.87.1c-2-1.92.65-2.71,1-4.06,2,1.41,4.33.91,6.55,1.06C172.35,121.69,174.11,121.6,172.57,123.7Z"/><path class="cls-1" d="M186.54,123.63l-11.94-.15c.59-3,3-1.69,4.7-1.82,2.4-.2,4.83,0,7.25,0C186.55,122.32,186.54,123,186.54,123.63Z"/><path class="cls-1" d="M6.6,135.59l2,0c.86-.21,1.18.13,1,1-.69,1.18-1.85,1-2.95,1C6.61,136.89,6.6,136.24,6.6,135.59Z"/><path class="cls-1" d="M70.53,47.55l-3-1c-19.08,0-38.16-.1-57.24.06-3.64,0-5-.92-4.85-4.73.28-7.79.11-15.59.13-23.39a1.19,1.19,0,0,1,1.59.57c1.68,7.15.29,14.41.84,21.6.09,2.23,1.31,3.3,3.48,3.4,1.66.08,3.33,0,5,0H152.33c2.66,0,5.33-.1,8,.14a4.45,4.45,0,0,1,3.21,1.75l.31.86a1.45,1.45,0,0,1-1.11,1.24c-6.88-.23-13.77-.5-20.65.29-21.41,1.13-42.82.31-64.23.49A25.48,25.48,0,0,1,70.53,47.55Z"/><path class="cls-1" d="M6.46,18.52a8.55,8.55,0,0,1-.88,0c.79-3.34,3.51-1.9,5.34-1.9q74.57-.12,149.13-.07l3.49,0a1.23,1.23,0,0,1-.55,1.67c-2,1-4.23.77-6.37.77Q83.75,19,10.89,19A12,12,0,0,1,6.46,18.52Z"/><path class="cls-1" d="M163.53,17.54c0-.34,0-.67,0-1,1.18-2.37,3.13-3,5.69-3,6.09.11,12.19,0,18.29,0l1,1a2,2,0,0,1,.12,1.73c-.25,11.09-.1,22.18-.13,33.26a3.48,3.48,0,0,1-2,2,52.77,52.77,0,0,1-22,0h0c-1-1.17-2.33-2.26-1-4h0c6.87.57,13.73,1.28,20.59,0,2.14-4.25.59-8.77,1-13.15.19-2.13,0-4.3,0-6.45.12-12.16.12-12.16-12.22-12.07-2.47,0-5-.26-7.09,1.55l-.75.32A1.7,1.7,0,0,1,163.53,17.54Z"/><path class="cls-1" d="M166.53,12.56a41.31,41.31,0,0,1,20,0Z"/><path class="cls-1" d="M163.55,47.57c.33,1.34.67,2.67,1,4-1.75.15-2.63-1.42-4-2a34.66,34.66,0,0,0-13,0c-3.46,2.51-2.24,6.15-1.56,9.12s3.9,1.82,6.08,1.85c8.16.11,16.32.05,24.48.05,11.37,1.14,22.77.21,34.15.47,1.61,0,3.31.48,4.84-.49h0c.81-.56,1.57-.66,2.23.23a2.78,2.78,0,0,1-1.94,2.69c-5.67,1-11.39.23-17.09.5H196c-10.35,0-20.7,0-31.05,0-5.44,0-10.89,0-16.33,0-1.81,0-3.65.06-5.27-1a3.81,3.81,0,0,1-1.07-1.26,2.4,2.4,0,0,1,.08-1.52c1.53-3.3,1.06-6.73.55-10.15a6.2,6.2,0,0,1-.6-1.21,1.57,1.57,0,0,1,.29-1.27C149.55,45.83,156.55,46.18,163.55,47.57Z"/><path class="cls-1" d="M234.55,16.57c0,.34,0,.68,0,1a1.92,1.92,0,0,1-1.27.35c-3.35-.22-6.64-.28-8.75,3-.39.82-.81,1.63-1.18,2.46-.91,2.78-.1,6.36-3.66,7.9C217,33,214.05,34.22,212.26,37c-1.31,1.29-2,3.14-3.75,4a1.9,1.9,0,0,1-2-.46c.45-5,3.81-8.27,7.53-10.51a12.69,12.69,0,0,0,6.18-7.85c1.38-4.81,5.22-6.61,9.64-7.53C231.76,14.3,233.58,14.49,234.55,16.57Z"/><path class="cls-1" d="M215.54,60.56c-.56.31-1.11.9-1.67.9q-17.82.07-35.65,0c-.56,0-1.12-.58-1.68-.88Z"/><path class="cls-1" d="M188.54,49.57c-1.27-1-1-2.35-1-3.64q0-13.36,0-26.72c0-1.29-.28-2.68,1-3.64,1.07,5.95.21,12,.48,17.93-.25,5,.55,10.08-.47,15.08C188.56,48.91,188.55,49.24,188.54,49.57Z"/><path class="cls-1" d="M164.54,51.56l22,0a2,2,0,0,1-1.94,1,63.47,63.47,0,0,1-17,0C166.43,52.54,165.24,52.75,164.54,51.56Z"/><path class="cls-1" d="M210.59,53.59c-3.79-3.19-6.58-6.71-4-12,1.67,1.4,1.71,3.6,2.62,5.37a19,19,0,0,0,1.6,2.89,5.08,5.08,0,0,1,.52,1.25A2.55,2.55,0,0,1,210.59,53.59Z"/><path class="cls-1" d="M188.55,33.57v-19c2.15,6.24.45,12.67,1,19C189.2,34,188.88,34,188.55,33.57Z"/><path class="cls-1" d="M167.53,52.59h17A31.67,31.67,0,0,1,167.53,52.59Z"/><path class="cls-1" d="M188.55,33.57h1c-.53,5,1.17,10.13-1,15Q188.56,41.08,188.55,33.57Z"/><path class="cls-1" d="M210.59,53.59l-.06-3a11.93,11.93,0,0,1,8.26,4.57,1.6,1.6,0,0,1-.91,1.07c-2.36.41-4.31-.76-6.34-1.66Z"/><path class="cls-1" d="M147.54,49.56a18,18,0,0,1,13,0Z"/><path class="cls-1" d="M211.54,54.56l7,1a1.39,1.39,0,0,1,.24,1.2A2.34,2.34,0,0,1,217.33,58a6.45,6.45,0,0,1-2.8-1.37A3,3,0,0,1,211.54,54.56Z"/><path class="cls-1" d="M208.52,47.62a9.59,9.59,0,0,1-2-6.06c0-.33,0-.65,0-1l2,0a12.41,12.41,0,0,1,.76,6A2.44,2.44,0,0,1,208.52,47.62Z"/><path class="cls-1" d="M214.53,56.59l3,1a2,2,0,0,1,0,3h-2C216.82,58.83,215.1,57.85,214.53,56.59Z"/><path class="cls-1" d="M242.53,21.56c2.16-3.54.71-7.42.92-11.13.15-2.61.67-3.91,3.64-3.9,25.55.08,51.09,0,76.64,0a3.13,3.13,0,0,1,2.72.89c-1.83,2-4.27,1.47-6.52,1.48-12.38.07-24.76,0-37.14,0-10.65,0-21.31.1-32-.07-3.65-.06-5,1.1-4.93,4.86.2,8.32.09,16.65,0,25,0,2.14.3,4.35-.81,6.36a1.41,1.41,0,0,1-1.58.64c-2.29-2.72-1.21-6-1.36-9-.17-3.45-.05-6.91,0-10.37.05-1.36-.14-2.73,0-4.09Z"/><path class="cls-1" d="M329.53,6.56l1,1c-.64,1.91.28,3.82,0,5.74-.63,4.48,1.65,5.52,5.54,4.56,2.37-.83,5.3-3.35,5.67,1.87-1.59,1.26-1.83,3-1.83,4.88q0,19.65,0,39.31a7.91,7.91,0,0,0,1.6,5.09c-1.74,3.35-2.44,3.28-5.9-.55-1.84-1-3.95-.35-5.86-.92a3.68,3.68,0,0,1-1.36-.74,2.24,2.24,0,0,1-.2-2.22,2.88,2.88,0,0,1,1.19-.88c2.06-1.11,4.69.81,6.58-1.25.42-11.8-.07-23.58.24-35.35.12-4.4-1.73-5.62-5.65-4.89a4.62,4.62,0,0,1-1.65-.2,2.44,2.44,0,0,1-1.14-1.17,6.11,6.11,0,0,1-.44-1.57,87.63,87.63,0,0,1,.08-11l.15-.77A2,2,0,0,1,329.53,6.56Z"/><path class="cls-1" d="M282.57,7.64l43.88-.17,1.12.06h0a7.15,7.15,0,0,1,.11,5.11,1.8,1.8,0,0,1-1.7-.1c-2.56-2.14-5.58-2.63-8.82-2.62q-13.9.06-27.81,0c-2.13,0-4.32.31-6.33-.77A1.07,1.07,0,0,1,282.57,7.64Z"/><path class="cls-1" d="M233.58,17.6l1,0h0c1.4,2.45,3.34,3.29,6,2,.35-1,.69-2,1-2.95,1.63,1.39.76,3.27,1,4.94l.05.06c-1.93,1.73-4.29,1.47-6.52,1.13C233,22.27,231.8,20.57,233.58,17.6Z"/><path class="cls-1" d="M71.53,56.59V53.54c-.24-4.79.32-5.44,5-5.45q29.36,0,58.71,0c2.64,0,5.63-.51,6.86,2.64,1.32,3.39,1.3,6.85-1.19,9.85A12,12,0,0,1,138,63.25c-6.56,1.48-13.3,1.21-19.8.5-9.46-1-18.87-.33-28.29-.72-1.8-.08-3.65.43-5.38-.45l-13,0a24.67,24.67,0,0,0-.24-3.2A2.9,2.9,0,0,1,71.53,56.59Z"/><path class="cls-1" d="M84.56,62.59l54-.08a4.19,4.19,0,0,1,4-.88c7.24,2,14.65.42,22,1a1.12,1.12,0,0,1-.51,1.57c-5.54,1.59-11.21.39-16.81.79-8.83,0-17.65,0-26.48,0-2.14,0-4.37.27-6.19-1.33l-30-.12C84.56,63.21,84.55,62.9,84.56,62.59Z"/><path class="cls-1" d="M71.53,56.59c-.22,2.28.78,3.71,3.12,4.24-.74,1.29-2.57.36-3.11,1.72l-1-.95C70.8,59.92,69.88,58,71.53,56.59Z"/><path class="cls-1" d="M142.57,61.63c-1.09,1.4-2.63.79-4,.88.61-2.94,3.74-4.69,3.15-8.42s-1.64-5.54-5.45-5.54q-29.68,0-59.38,0c-3.42,0-5.37,1.39-5.36,5-1.77-1.76-.65-4-1-6,2.52-2.38,5,.11,7.56.09q28.93-.26,57.88,0c2.2,0,4.39-2.21,6.58-.1,0,.38,0,.76.07,1.15a16.93,16.93,0,0,1,0,11.76C142.6,60.85,142.59,61.24,142.57,61.63Z"/><path class="cls-1" d="M461.51,31.61c-1.67,1.67-3.79.92-5.69.92q-49.15.11-98.3.11c-2.09-.08-1.73-1.65-1.81-3,.87-1.72-.23-4.55,2.81-5.07.27,2.36-1,5.49,3,6,1.72,1,3.59.48,5.38.48q44.63,0,89.24.05C457.93,31.11,459.8,30.61,461.51,31.61Z"/><path class="cls-1" d="M461.51,31.61q-47.14,0-94.29-.08c-1.91,0-4,.74-5.69-1l100,0Z"/><path class="cls-1" d="M358.52,24.61c-1.87,1.19-.12,3.79-1.95,5-1.21-.88-1.2-2.35-1.75-3.55a8.36,8.36,0,0,0-1.27-2.23c-2.7-2.57-6.38-2.51-9.63-3.59-.5-1.3-1.81,0-2.48-.77-1.71-4.12-3.32-.88-5,.07-.84-1.63-4-.09-4-2.93,3.38.11,6.57-1.62,10-1,2.79,1.74,5.94,2.37,9.07,3.18S357.94,20.62,358.52,24.61Z"/><path class="cls-1" d="M240.52,19.56c-2.8,1.75-5,1.79-6-2C236.31,18.89,238.16,20,240.52,19.56Z"/><path class="cls-1" d="M332.52,16.59c.8,1.69,4,.07,4,2.94-7.55.1-9.18-3.17-6-11.93,0,.33,0,.65,0,1,1.28,2.21-.34,4.82,1,7C331.86,15.92,332.19,16.25,332.52,16.59Z"/><path class="cls-1" d="M331.53,15.59c-1.88-2.12-.63-4.68-1-7C332.43,10.69,331.17,13.25,331.53,15.59Z"/><path class="cls-1" d="M276.55,156.55c13.32,0,26.64,0,40,0,2.15,0,5.55-1,5.67,2.29.13,3.5-3.33,3.62-6,3.63-12,.07-24,0-36,0l-44,.06c-1,0-2,0-3,0-2.19,0-4.36-.75-4.22-3.17s2.36-2.9,4.53-2.88c3,0,6,0,9,0Z"/><path class="cls-1" d="M223.7,153.5c-3.4.41-3.17-1.92-3.17-4.15q0-14.9,0-29.8c-1.16-1.22-1.21-2.8-1.39-4.34a18.5,18.5,0,0,1-.24-2.36c.59-4-.06-8.1.7-12.11a3,3,0,0,1,1-1.39l.9,0a3.51,3.51,0,0,1,1,1.48c.88,11.07.15,22.15.41,33.22,0,3.81.1,7.63-.07,11.44-.15,3.37,1,5.07,4.54,4.63,41.64,0,83.28,0,124.91.08,2.54,0,5.82-1.29,7.32,2.36-2.06,1.64-4.49,1-6.75.95-40-.65-79.91-.44-119.86-.45-1.8,0-3.67-.41-5.42.42l-2.08.08C224.94,153.44,224.34,153.15,223.7,153.5Z"/><path class="cls-1" d="M224.59,168.53c0-.32,0-.64,0-1,1.25-1.08,2.77-1,4.26-1,10.63.32,21.24-.6,31.86-.5h50.61c5.08.28,10.21-.6,15.26.52,0,.31,0,.63,0,.94C292.56,169.51,258.56,168.21,224.59,168.53Z"/><path class="cls-1" d="M227.64,153.49c1.68-1.65,3.8-.88,5.7-.89q63.11-.07,126.22,0c.51-4.48-1.3-9,.31-13.47a1.64,1.64,0,0,1,1.25-.86,2.45,2.45,0,0,1,1.85,1.41,4.33,4.33,0,0,1,.2,1.64c-.38,4.07,2.42,8.37-.93,12.22a252.62,252.62,0,0,1-35.66.14Z"/><path class="cls-1" d="M260.55,166.56c-12,.18-24,1.59-36,1,0-.35,0-.69,0-1a3,3,0,0,1,1-1l35,.07c.3.22.39.43.28.63S260.66,166.56,260.55,166.56Z"/><path class="cls-1" d="M260.55,166.56c0-.31,0-.61,0-.92h50.92c.35.2.47.39.35.59s-.23.3-.34.3Z"/><path class="cls-1" d="M326.59,153.63l30.21,0c2,0,4,.14,5.76-1a4.37,4.37,0,0,1,2.43,2.16,1.71,1.71,0,0,1-.47,1.83,14.72,14.72,0,0,0-8.51-2c-7.27.14-14.55,0-21.82.07-1.59,0-3.35-.53-4.65,1l-2,2-1-1c-.28-.19-.38-.4-.3-.61s.17-.32.25-.32Z"/><path class="cls-1" d="M311.53,166.53c0-.3,0-.6,0-.9,4.49-.1,9-.13,13.47-.34,1.18-.06,1.43.42,1.56,1.32Z"/><path class="cls-1" d="M225.55,165.57l-1,1c-.52-4.33,1-8.8-.87-13,.67-1.1,1.27-.85,1.85.08Z"/><path class="cls-1" d="M326.5,155.64c0,.31,0,.62.05.93v5.73C325.78,160.06,324.84,157.81,326.5,155.64Z"/><path class="cls-1" d="M433.55,137.6c-4.05,3.72-3.79,8.41-2.1,12.82q7.67,20,16,39.71c1.6,3.8.6,5.71-3.08,6.61a110.78,110.78,0,0,1-12.11,2.62c-3.95.5-5.38-2.78-6.53-5.73-5.83-15-11.42-30.1-17.4-45-1.59-4-2-8.9-6.77-11-11.08.91-22.18.44-33.26.22-4.38-.09-5.78-2.64-6.15-9.11,0-6.31-.06-12.62,0-18.93.08-6,2-8.08,8-8.45,5.8-.35,11.62-.23,17.43-.09,13.42.31,26.84-.45,40.28.66,6.37.52,10.7,2.7,13.83,7.92,3.34,5.14,7.24,9.89,10.39,15.18,2.1,3.51,1.19,5.73-1.79,8A28.64,28.64,0,0,1,440,137.68c-1.7.2-3.43.17-5.13.43A2.3,2.3,0,0,1,433.55,137.6Z"/><path class="cls-1" d="M362.53,140.36c0-.25,0-.51,0-.76a1.2,1.2,0,0,1,.53-1.64c12.83-.34,25.66-1.34,38.46.58a2.21,2.21,0,0,1,1,2.09,10.7,10.7,0,0,0-2,2.14c-1.12,2.32-.42,4.77-.59,7.16-.13,1.91,0,3.93-1.77,5.29-6,1.47-12.07.6-18.11.55a3.57,3.57,0,0,1-3.22-1.93c-1-2.33-.76-4.83-.59-7.23.26-3.57-.95-5.22-4.69-4.75a13,13,0,0,1-4.36-.5,7,7,0,0,0-2.85-.1A1.94,1.94,0,0,1,362.53,140.36Z"/><path class="cls-1" d="M433.55,137.6a6.18,6.18,0,0,1,1,0c1.52-1.13,3.52.22,5-1,3.61-1.48,7.61-2,10.67-4.82,2.16-2,2.87-3.71.91-6.34-3.34-4.5-6.41-9.22-9.59-13.84-.76-1-.47-1.76.59-2.31,2.61,1.42,3.41,4.41,5.47,6.31l4.93,7a10.47,10.47,0,0,0,.87,2.27c3.14,4.57,2.76,6.22-2,8.85-1,.55-1.9,1.27-2.84,1.91l0,0c-2.37.94-4.69,2-7,3l0,0c-2.67,1-5.34,1.71-8,0C433.55,138.25,433.55,137.93,433.55,137.6Z"/><path class="cls-1" d="M401.53,138.55l-39,.09c-1.53-3.55-3.12-7.1,1-10.09.19,7.39.82,8,7.9,8q12.15,0,24.31,0c2,0,4-.11,5.78,1C401.55,137.89,401.54,138.22,401.53,138.55Z"/><path class="cls-1" d="M364.5,140.65a2.08,2.08,0,0,1,2.08-1.07c1,3.59.27,7.25.41,10.87.12,3,1.28,4.54,4.45,4.67,11.07.43,22.14,1,33.17-.27a3.23,3.23,0,0,0,.74-1,8.46,8.46,0,0,1,.72-1.8l.48-.43c2.33,2.5,2.67,5.84,3.75,9.13-1.54-3-3.93-3.24-6.81-3.2-11.27.16-22.53.09-33.8,0-1.74,0-3.69.66-5.15-1l-.06-2C363.2,149.9,362.67,145.27,364.5,140.65Z"/><path class="cls-1" d="M450.54,190.56c1,1.35,2,2.69,3,4,.78,3.83-2,4.36-4.64,4.89-6.78,1.37-13.57,2.68-20.36,4-.32-.2-.43-.4-.32-.61s.22-.3.33-.3a151.84,151.84,0,0,1,15.82-3.52C451.79,197.61,451.76,197.47,450.54,190.56Z"/><path class="cls-1" d="M399.56,140.58l3,.06a8.68,8.68,0,0,0,0,.88c.61,1.69,1.69,3.25,1.58,5.16a3.39,3.39,0,0,1-4,1.92c-1.81-.5-.92-2.48-1-3.81S398.63,141.9,399.56,140.58Z"/><path class="cls-1" d="M413.55,169.57a32,32,0,0,1,5,13h0a32,32,0,0,1-5-13Z"/><path class="cls-1" d="M433.54,149.55a28,28,0,0,1,5,12A27.57,27.57,0,0,1,433.54,149.55Z"/><path class="cls-1" d="M441.51,165.59c-.32,2.92,2.42,5,2.05,8a27.57,27.57,0,0,1-5-12Z"/><path class="cls-1" d="M433.55,138.58l8,0c-1.65,2.69-5.06,1.08-7.07,2.89C431.72,141.3,434.06,139.47,433.55,138.58Z"/><path class="cls-1" d="M445.54,178.55a28,28,0,0,1,5,12A27.62,27.62,0,0,1,445.54,178.55Z"/><path class="cls-1" d="M403.59,146.54l-1.08-5a17.93,17.93,0,0,1,4,10h0C403.22,151.26,404.06,148.52,403.59,146.54Z"/><path class="cls-1" d="M423.54,195.57c-2.1-2.25-2.71-5.07-3-8h0c2.1,2.25,2.72,5.07,3,8Z"/><path class="cls-1" d="M433.58,147.58l0,2c-1.78-1.81-.81-3.91-.92-6.36C434.13,144.79,433.3,146.28,433.58,147.58Z"/><path class="cls-1" d="M418.55,182.57a5.87,5.87,0,0,1,2,5h0a5.78,5.78,0,0,1-2-5Z"/><path class="cls-1" d="M443.54,173.55a5.87,5.87,0,0,1,2,5A5.81,5.81,0,0,1,443.54,173.55Z"/><path class="cls-1" d="M413.54,169.57c-1.17-1.11-2.12-2.31-1.64-4.25,1.58,1.15,1.63,2.69,1.64,4.25Z"/><path class="cls-1" d="M425.55,200.57a5.82,5.82,0,0,1-2-5h0a5.86,5.86,0,0,1,2,5Z"/><path class="cls-1" d="M428.54,202.6v.91c-2.3.34-3.18-.75-3-2.94h0C426.57,201.2,427,202.73,428.54,202.6Z"/><path class="cls-1" d="M327.55,86.49H459.32c0,.36,0,.72,0,1.08h-5q-59.7,0-119.39,0c-3.13,0-7.23-.51-4.46,5,2.89,1.68,6.07,1,9.12.94s6.17.32,8.88,2.07c3.58,1.4,7.43-.34,11,1,.33,0,.65,0,1,0a1.1,1.1,0,0,1-.39,1.54c-5.56,1.07-11.12,2.15-16.34-1.25-3.48-1.7-7.2-.86-10.79-.82-7.61.07-9-1.56-7-9.1A1.21,1.21,0,0,1,327.55,86.49Z"/><path class="cls-1" d="M360.55,97.56v-1a27.36,27.36,0,0,0,8.31,1c14.42-.07,28.84-.14,43.26,0,7.75.08,15.5.59,23.25,1a6.69,6.69,0,0,1,2.17,1c-1.62,1.5-3.65,1.39-5.64,1.4-6.13,0-12.26,0-18.39,0-15.47,0-30.95.06-46.42-.08C364.53,100.9,361.11,101.8,360.55,97.56Z"/><path class="cls-1" d="M359.56,96.56c-3.66-.5-7.51,1.14-11-1C352.2,96.1,356.05,94.48,359.56,96.56Z"/><path class="cls-1" d="M441.53,138.58a10.16,10.16,0,0,1,7-3A10.27,10.27,0,0,1,441.53,138.58Z"/><path class="cls-1" d="M363.56,128.56c-2.05,3.19-.57,6.73-1,10.09,0,.32,0,.64,0,1l-1-1c-2.48-4.09-1.13-8.49-1.08-12.79,1.42-5.52.68-11.14.63-16.7,0-4.59,1.52-7.61,6-8.94,15.27-.09,30.54,0,45.8,0h20.67a6,6,0,0,1,4.06,1.48l4.95,7c.31.24.41.46.3.69s-.22.33-.33.33a2.12,2.12,0,0,0-1,2c-4.19-9.41-13-8.63-20.86-8.84-16.48-.45-33-.19-49.48-.11-6.73,0-7.65,1.12-7.64,7.93C363.56,116.56,363.55,122.56,363.56,128.56Z"/><path class="cls-1" d="M437.59,101.58c-8-1.38-16-.88-24.06-1-.32-.2-.43-.4-.33-.61s.2-.31.31-.31l24-.06C437.56,100.24,437.58,100.91,437.59,101.58Z"/><path class="cls-1" d="M442.51,109.57l0-1a12.67,12.67,0,0,1,5.06,7C445.09,114.27,443.68,112,442.51,109.57Z"/><path class="cls-1" d="M356.54,51.57c21.3,0,42.61.08,63.91-.08,3.74,0,5.33.69,5.19,4.9-.29,8.2,0,8.2-8.32,8.2H356.53A14.18,14.18,0,0,1,356.54,51.57Z"/><path class="cls-1" d="M359.55,33.6h99c-.3,2.46-2.4,2.54-4.12,3.13-25.93.54-51.86.11-77.79.23a121.85,121.85,0,0,1-13-.21C361.93,36.19,359.84,36.06,359.55,33.6Z"/><path class="cls-1" d="M359.55,33.6l3,1.95a11.43,11.43,0,0,1-1.34,2.09c-3.24,5.62-1.15,9.5,5.22,9.51q41.22.09,82.45,0c3,0,6.62,1.12,8.58-2.41s-.23-6.32-1.9-9.17l3-1.95c3.54.94,1.91,3.82,1.94,5.8.14,10.17,0,10.17-10.14,10.17H356.55c-2.58-4.78-1.37-9.78-.8-14.73a1.54,1.54,0,0,1,1.8-1.28Z"/><path class="cls-1" d="M356.53,66.52l104,.08a6.51,6.51,0,0,1,.05,8.1c-.33,0-.87,0-.94-.17-2.34-5.83-7.23-5.62-12.35-5.6q-42.32.16-84.62-.06c-3.34,0-6.84,2.14-10.09-.37C352.77,65.61,354.5,65.76,356.53,66.52Z"/><path class="cls-1" d="M356.53,66.52l-4,1.08c-2.51,2.64-5.22,3.12-8.21.8.82-2.64,3.36-2.71,5.3-2.94,3.73-.45,4.55-2.48,4.52-5.78-.09-9.32-.07-18.63,0-27.95,0-2.1-.44-4.39,1.45-6.08,1.39,1.06.73,2.62,1,4,0,1.11-.17,2.27.94,3,0,.31,0,.62,0,.93-2,5.23-.47,10.68-1,16v2q0,6.51,0,13C356.53,65.23,356.53,65.88,356.53,66.52Z"/><path class="cls-1" d="M428.53,65.56c1.49-1.58,3.42-.94,5.17-1,9.28-.06,18.55,0,27.83,0,.34.34.67.68,1,1,.57,1.51,1.24,3-.62,4.2-1.81-1-.1-3.08-1.39-4.21Z"/><path class="cls-1" d="M460.52,53.55l-30,0c2.35-1.92,5.1-.88,7.65-.93,7.45-.15,14.91,0,22.36,0Q460.54,53.05,460.52,53.55Z"/><path class="cls-1" d="M460.54,65.56c1.51,1,.83,2.64,1,4,2,5.34.71,10.66-.05,16a2,2,0,0,1-1.95-1,15,15,0,0,1-.36-3.89c.12-2.13-.41-4.39,1.3-6.18,0-2.64,0-5.29,0-7.93C460.53,66.26,460.53,65.91,460.54,65.56Z"/><path class="cls-1" d="M463.52,33.6q0,7,.05,14c-.07.63-.15,1.26-.22,1.89C463,44.17,461.51,38.85,463.52,33.6Z"/><path class="cls-1" d="M460.49,81.56c0,1.11.22,2.29-.93,3l-1.1.05c-1.76.75-3.62.37-5.42.38q-62.87,0-125.72,0a1.54,1.54,0,0,1-1.27-1.26,8.71,8.71,0,0,1,.44-3.44c.68-1.85,1.83-2.5,3.14-.65,1.72,2.41,4.15,2.44,6.68,2.44,38.08,0,76.16-.11,114.23.15,4.82,0,6.45-2.76,8.3-6C460.92,77.87,459.33,80.09,460.49,81.56Z"/><path class="cls-1" d="M326.56,84.52l121.91.06c3.33,0,6.66,0,10,.08-1.7,1.63-3.81.87-5.72.87q-59.73.07-119.46.07c-1.92,0-4-.73-5.72.89l-1,.1A1.5,1.5,0,0,1,326.56,84.52Z"/><path class="cls-1" d="M461.51,85.58q0-8,.05-16c1.4-1.07.85-2.62,1-4A31.17,31.17,0,0,1,461.51,85.58Z"/><path class="cls-1" d="M166.53,141.54l14.94.08c-2.46,1.92-5.33.49-8,1C171.21,142.12,168.61,143.55,166.53,141.54Z"/><path class="cls-1" d="M219.54,113.55l1,1.08c-2.44,2.14-5.12.37-7.66.35-5.11,0-10.25.63-15.33-.42l-1-1v-1c0-9.14,0-9.14-8.93-9-1-.6-1.16-1.27-.16-2,7.7-1.2,7.61-1.2,7.73-9.31.14-9.39-.52-18.8.38-28.18a6.76,6.76,0,0,1,1-1.48h2a2.88,2.88,0,0,1,.55,1.67c-.3,14.15-.1,28.3-.1,42.45,0,2.17-.74,5,2.85,5.32,4.79.23,9.58,0,14.36.15A4.21,4.21,0,0,1,219.54,113.55Z"/><path class="cls-1" d="M197.54,114.57l23,.06c0,1.64,0,3.28,0,4.92l-2,1c0-4.46-3.23-4.66-6.48-5C207.25,115.09,202.27,116.71,197.54,114.57Z"/><path class="cls-1" d="M185.53,125.58l.95-1c0,.64.06,1.29.08,1.93-.52,3,1,6.15-1,9Q185.57,130.54,185.53,125.58Z"/><path class="cls-1" d="M164.56,127.59c4.89-.72,9.79,0,14.68,0s4.14,3.64,4.33,6.7c.2,3.21-.43,5.75-4.44,5.32-3.53-.38-7.22,1.09-10.59-1a.88.88,0,0,1,.19-1.32c2.76-.8,5.53.25,8.31,0,2.5-.23,4.14-1.09,4-3.85-.09-2.51-1.69-3.44-3.94-3.42-3.93,0-7.9-.59-11.78.63a9.51,9.51,0,0,1-1.76.29c-48.93.21-97.85.06-146.77.07-1.81,0-3.7.15-5.21-1.21-.28-1.05.2-1.55,1.21-1.62,1.5-.11,3-.05,4.49-.05q70.92,0,141.84,0C161,128.06,162.84,128.53,164.56,127.59Z"/><path class="cls-1" d="M168.54,137.57v1c-4.33-2.08-8.95-2-13.62-2q-72.67,0-145.36,0l-1-1,0-5a1.4,1.4,0,0,1,1.74.35c2,3.52,5.46,3.24,8.81,3.24h137.8c2,0,4-.08,6,.1C165.27,134.48,167.53,135,168.54,137.57Z"/><path class="cls-1" d="M9.58,130.6l-1,0c1-3.49,3.94-3,6.53-3q27.49,0,55,0l94.49,0c-1.84,1.74-4.12.95-6.19.95q-70.58.08-141.16.07c-1.91,0-4-.72-5.7.93C11.17,130.45,10.67,131.05,9.58,130.6Z"/><path class="cls-1" d="M9.55,111.57c0-6.82,0-13.63,0-20.45,0-6.62,1.94-8.52,8.66-8.52q70.83,0,141.65,0c2.35,0,5.14,1,6.68-2,4.61-3.53,9.93-2.08,14.9-1.67,2.66.22,2.9,3.56,2.94,5.74.19,9.32.21,18.65,0,28-.08,3.78-2,6.14-6.31,6-5-.17-9.91.34-14.41-2.74-2.18-1.5-5.07-1.29-7.76-1.29q-69.69.06-139.38,0C13.86,114.58,10.69,115.32,9.55,111.57Z"/><path class="cls-1" d="M187.57,76.61a42.86,42.86,0,0,0-21,0l-1,.92c-1.34-3.44-2.66,1.26-4,0-.81.53-1.58.72-2.2-.28a15.37,15.37,0,0,1,11.45-6,101.88,101.88,0,0,1,12,0c5.26.26,7.75,2.82,8.15,8.18.38,5.12-.4,10.29,1.05,15.46,1.54-2.85,1-6,1.1-9.08s-.2-6.35.08-9.49c.3-3.36-1.12-6.53-.69-9.86a2.27,2.27,0,0,1,1.75-.19c1.58,1.06,1.8,2.69,1.81,4.38,0,8.28.12,16.56-.06,24.84-.06,2.46.28,5.89-3.65,5.86-3.78,0-4.18-2.91-4.28-6C187.82,89.13,188.69,82.85,187.57,76.61Z"/><path class="cls-1" d="M69.54,120.57c1.31-1.52,3.09-1,4.69-1q40.71,0,81.43,0a25.4,25.4,0,0,1,3.49.12c1,.14,2,.66,2,1.87s-.94,1.73-2,1.87a25.34,25.34,0,0,1-3.49.12q-40.71,0-81.43,0c-1.6,0-3.38.55-4.69-1,1.87-1.62,4.13-1,6.22-1q37.65-.07,75.31,0-37.9,0-75.8,0C73.33,121.54,71.24,122.11,69.54,120.57Z"/><path class="cls-1" d="M69.54,120.57h89.29v2H69.53C68.52,121.9,68.52,121.24,69.54,120.57Z"/><path class="cls-1" d="M159.51,77.55l2,0c-1.49,1.62-3.44,1-5.19,1q-62.24.06-124.46,0c-7.56,0-8.39-1-8.42-8.18,0-4.77,2.38-5.88,6.59-5.87,28.16.09,56.31,0,84.47,0,7.87-1.08,15.78-.16,23.66-.5,3.1-.14,6.25.55,9.31-.45l17-.08c9.4-1,18.83-.16,28.22-.45,1.44.08,3.2.14.89,1.88-.94.71.74,1.14-.08,1.6l-1.05,0a5.24,5.24,0,0,1-5.14,1.2c-5.78-1.23-11.62-.69-17.42-.69Q102.47,67.07,35,67a41.9,41.9,0,0,0-5.49.14C26.81,67.5,26,69.33,26,71.78A3.76,3.76,0,0,0,29.45,76a28.65,28.65,0,0,0,5,.13q59,0,118,0C154.83,76.1,157.46,75.51,159.51,77.55Z"/><path class="cls-1" d="M147.51,63.61c-1.66,1.66-3.77.9-5.66.92-9.1.08-18.2,0-27.31,0v-.93Z"/><path class="cls-1" d="M193.56,66.55l-2.16-1.66c1-.6,2.47-.06,3.17-1.28.66-.59,1.3-.72,1.91.06q0,15.94.05,31.89c0,7.63-1.49,8.62-9.09,6q.06-12.5.13-25c2.06,4.77.49,9.78.94,14.66.18,2-.1,4,.19,6a3.75,3.75,0,0,0,3.35,3.22c2,.32,2.69-1.2,2.85-2.69a139.89,139.89,0,0,0,0-29.22C194.86,67.84,194,67.22,193.56,66.55Z"/><path class="cls-1" d="M163.56,46.57l-2.06-1c-1.73-.92-3.6-.46-5.39-.47Q85,45,13.87,45.09c-3.52,0-6.37-.33-6.71-4.64C6.91,35.29,7,30.12,7.08,25c.08-4.87,1.37-6.18,6.1-6.78a39.59,39.59,0,0,1,5-.1q70.48,0,141,0c1.79,0,3.67.5,5.38-.5h0c5.51-4.1,11.71-2.49,17.7-2,2.88.26,3.32,2.77,3.31,5.28,0,7.45,0,14.91,0,22.36,0,4.13-2.06,6-6.25,5.83a63.93,63.93,0,0,0-9,0C167.53,49.36,165.52,48.17,163.56,46.57Z"/><path class="cls-1" d="M164.54,17.56c-1.64,1.75-3.77,1-5.68,1q-70.23.06-140.47,0c-9.59,0-10.85,1.29-10.85,11v11a.59.59,0,0,1-1,0L6.46,18.52c1.68-1.67,3.79-.92,5.7-.92q75.68-.08,151.36-.05C163.87,17.54,164.2,17.55,164.54,17.56Z"/><path class="cls-1" d="M6.59,40.58l1,0c1.31,3.46,3.86,4.1,7.39,4.09q70.44-.18,140.88,0c1.91,0,4-.76,5.69.93q-75,0-150.08.12C7.36,45.68,6,44.42,6.59,40.58Z"/><path class="cls-1" d="M163.56,46.57c5.2,3.08,10.93,1.81,16.48,2,3.3.09,4-2.46,4.53-5a.86.86,0,0,1,1.36.31c0,1.89.58,3.83-.4,5.66-5.23,0-10.47-.12-15.69.08a9,9,0,0,1-6.29-2.07C163.54,47.23,163.55,46.9,163.56,46.57Z"/><path class="cls-1" d="M185.51,43.59h-.94c0-7.48-.13-15,0-22.43.09-4-2.14-5.32-5.49-5.54-5-.33-9.93-.25-14.58,2,1.15-2.42,3.11-3.14,5.71-3a113.41,113.41,0,0,0,11.95,0c3.64-.26,4.67,1.24,4.39,4.61-.24,2.8-.07,5.64-.09,8.46C185.14,32.85,187,38.32,185.51,43.59Z"/><path class="cls-1" d="M185.51,43.59c.59-5.32-1.08-10.78,1-16,0,6,.05,11.9,0,17.84,0,1.43.42,3-1,4.14C185.52,47.57,185.52,45.58,185.51,43.59Z"/><path class="cls-1" d="M198.53,63.52c0-.3,0-.6,0-.89l18.06-.11c3-1.21,4.39-3,2-6,0-.31,0-.63,0-.94h0a43.18,43.18,0,0,0,0-25c4.38-1.16,2-5.72,4-8,1.78,1.75,1.32,4,1.33,6.12.06,10,0,19.92,0,29.88,0,2.63.43,5,2.75,6.56,2.11,1.44,3.72,1.34,4.34-1.53.28-12.76,0-25.52.12-38.27,0-5.63,0-5.63-7.61-4.65,1.86-3.6,6.82-5.11,10.05-3-.4,2.81.45,4.36,3.65,4a45.65,45.65,0,0,1,5.36,0l.94,3a2.35,2.35,0,0,1-1.32.49c-1.11-.09-2.23-.11-3.33-.24C235.65,24.46,234.54,26,235,29q0,15.14,0,30.22c.59,4.52,1.07,4.74,6.61,3.09,1.18-3.54.32-7.18.59-10.75.16-2.08-.41-4.33,1.38-6l.93,0c2.91,6.27,1.19,12.79,1.05,19.23a4.29,4.29,0,0,1-2.35,2.52c-2.9,1.34-6.5-.53-9.15,2a4.88,4.88,0,0,1-2.25,1c-3.75,0-7.17-.9-9.81-3.81-1.35-1.49-3.19-1.54-5-1.55-4.28,0-8.57,0-12.85,0C202.14,64.89,200.06,65.23,198.53,63.52Z"/><path class="cls-1" d="M196.48,63.68l-1.91-.06-30-.09c0-.3,0-.6,0-.91h32C196.53,63,196.51,63.33,196.48,63.68Z"/><path class="cls-1" d="M218.59,56.52c2.82-.14,3.15,1.65,2.91,3.82-.4,3.48-3.11,1.82-4.92,2.18.32-.65.64-1.3.95-2,0-1,0-2,0-3C217.88,57.23,218.24,56.87,218.59,56.52Z"/><path class="cls-1" d="M143.52,48.61a15.36,15.36,0,0,1,0,11.92A31.44,31.44,0,0,1,143.52,48.61Z"/><path class="cls-1" d="M143.52,48.61c0,4,0,8,0,11.92a2.7,2.7,0,0,1-.9-.08c0-3.92,0-7.84,0-11.76A2.86,2.86,0,0,1,143.52,48.61Z"/><path class="cls-1" d="M218.54,30.58c2.47-.24,3.08,1.08,3.05,3.31q-.14,9.18,0,18.37c0,2.23-.59,3.53-3.05,3.32l-8-5h0a2,2,0,0,1-.47-1.22c-1.68-4.53-.92-8.77,1.48-12.83C212.65,33.12,216,32.33,218.54,30.58Z"/><path class="cls-1" d="M223.53,20.64a16.27,16.27,0,0,1,2-1.41c5.94-2.88,7-2.2,6.94,4.34-.58,1-1.3,1.66-2.54,1C227.88,23,226.08,22.8,226,26c-.24,11.12-.22,22.24,0,33.36.06,2.92,1.51,4,4.2,2.11,2.8-.48,1.19,2.33,2.33,3.1.3,3-1.58,3.39-3.77,3-3.61-.7-6.06-2.93-6.15-6.67-.19-8.12-.06-16.26-.05-24.39,0-4.65,0-9.29,0-13.94C222.89,21.9,223.21,21.27,223.53,20.64Z"/><path class="cls-1" d="M211.54,36.54c.12.1.37.26.35.31a20.83,20.83,0,0,0-1.32,12.7c-1.58-.39-1.25-2.07-2-3-.07-2-.74-4,0-6C209.41,39.08,209.76,37.28,211.54,36.54Z"/><path class="cls-1" d="M208.56,46.54l2,3c0,.34,0,.69,0,1a3,3,0,0,1-2-3C208.53,47.26,208.55,46.9,208.56,46.54Z"/><path class="cls-1" d="M244.47,65.48q0-10,0-19.92c0-11.27.14-22.55,0-33.82,0-3.3,1.07-4.28,4.29-4.23,11.27.18,22.54.11,33.82.13,0,.31,0,.62,0,.92-1.74,1.8-4,1.37-6.12,1.39-7.16.08-14.32-.07-21.48.07-6.35.12-7.94,1.76-8,8.11q-.08,20,0,40c0,6,1,7,7,7q32.47.09,65,0c5.5,0,6.17-.74,6.2-6.51.06-13.16,0-26.31.05-39.47,0-2.27-.53-4.72,1.4-6.61l1,0c1.27,2.2-.28,4.78.95,7,0,.35,0,.71,0,1.06,1.06,14.07.08,28.16.58,42.24a3,3,0,0,1-.48,1.75v2c-1.11,3.27-4,2.37-6.22,2.38q-33.57.14-67.14,0c-3.44,0-7,.67-10.31-.81A1.94,1.94,0,0,1,244.47,65.48Z"/><path class="cls-1" d="M243.54,45.57c-.59,6.32,1.18,12.77-1,19a6.19,6.19,0,0,1-1.39-4.43c0-10.72-.09-21.45,0-32.17a4.42,4.42,0,0,1,1.42-3.46l.91.08Q243.54,35.09,243.54,45.57Z"/><path class="cls-1" d="M460.49,81.56c-1.56-.94-.39-2.87-1.77-4.41.26,5.5-2.71,6.49-7.2,6.48q-58.06-.16-116.13,0c-3.41,0-6.23-.41-7.26-4.4-1.08,1.52,0,3.4-1.58,4.36-2.49-3.65-1.18-7.65-1.1-11.53,1.66-2.9,4.42-4,7.53-4.4,1.25-.17,2.61.17,3.54-1,1.66,1,.68,6.3,4.94,3,.78-1.09,1.72-1.72,3.1-1a21.83,21.83,0,0,0,8-1c2.53,2.42,5-.14,7.55-.13q46.48.23,93,0c5.28,0,6,3.6,7.42,7Q460.51,78.05,460.49,81.56Z"/><path class="cls-1" d="M326.53,70.58q0,6.49,0,13c0,.32,0,.63,0,1,0,.69,0,1.38,0,2.07,0,8,0,7.92,7.82,8,3.41.06,7-1,10.23.87a3.06,3.06,0,0,1-2,2,11.72,11.72,0,0,1-4.45.41q-53.74,0-107.5,0a10.34,10.34,0,0,1-3.95-.43,3.34,3.34,0,0,1-1.5-1.23,2.57,2.57,0,0,1,.22-1.9,3.21,3.21,0,0,1,1.87-.42c31,.28,62.08.09,93.12.09a7.21,7.21,0,0,0,2-.29,2.7,2.7,0,0,0,1.69-2.77c.13-5.47.07-11,0-16.42,0-2.48-1.26-3.6-3.7-3.63-2.65,0-5.31,0-8,0-22.39-.14-44.77.3-67.16-.22a4.13,4.13,0,0,1-1.63-.76c-.68-1.16-1-2.18.88-2.41q39.69,0,79.38,0c1.6,0,3.38.55,4.66-1q.49,0,1,0C330.85,69.66,328.21,69.75,326.53,70.58Z"/><path class="cls-1" d="M344.57,68.56l-3.1,1c-2.49.17-3-1.21-3-3.41.06-14.77,0-29.54,0-44.3,0-2.12.12-3.87,3-2.45.71.06,1.5-1,2.12.15s2.95-.43,3.08,1.75c-5.51,1.84-6,6.1-5.81,11.09.27,9,0,18,.09,27,0,2.72-.14,5.57,3.83,5.67s7.18-2.15,7.35-5.64c.4-8.29,1.44-16.55,1.11-24.89-.15-3.74-.13-7.33-3.18-10.1a1.4,1.4,0,0,1-.1-2.18c1.77-.57,3.36-.47,4.52,1.21a2.34,2.34,0,0,1,1.15,2.16c0,11.29-.25,22.58,0,33.87.1,4.59-.76,7.28-6,7.37C348,66.9,345.92,67.06,344.57,68.56Z"/><path class="cls-1" d="M329.44,21.53c6.64-2.28,8.06-1.33,8.07,5.4,0,10.82,0,21.64,0,32.45,0,1.75.7,3.7-.93,5.19-1.46-1.11-3.14-.28-4.7-.54-2.38-.39-3.08-2.06-3.27-4.17-.07-11,0-22,0-33C328.56,25,328.27,23.16,329.44,21.53Z"/><path class="cls-1" d="M329.44,21.53q.07,20.05.16,40.1a2.36,2.36,0,0,1-.08,2.95h-.92c0-.34,0-.68-.05-1-1.08-11-.25-22.13-.44-33.19-.05-2.93-.58-5.94.48-8.83A8.17,8.17,0,0,0,329.44,21.53Z"/><path class="cls-1" d="M328.58,21.55q0,21,0,42c-1.07-.82-1-2-1-3.16V23.77c0-1.15-.1-2.34.94-3.18C328.52,20.92,328.56,21.23,328.58,21.55Z"/><path class="cls-1" d="M326.53,70.58c1-1.37,3.24-1.74,3-4h6.95c-.07.65-.15,1.29-.22,1.94C332.65,67.3,330,71,326.53,70.58Z"/><path class="cls-1" d="M329.51,64.58c0-1,.05-2,.08-2.95,1.53,1.71,3.2,2.67,5.53,1.4s1,.95,1.42,1.54Z"/><path class="cls-1" d="M328.49,19.54c-1.83-2.12-.57-4.66-.95-7,0-1.67,0-3.34,0-5C329.63,11.41,328.12,15.55,328.49,19.54Z"/><path class="cls-1" d="M326.57,12.54q0,23.7,0,47.4c0,5.74-.89,6.61-6.71,6.61q-33.43,0-66.87,0c-5.93,0-7.39-1.46-7.41-7.31q0-21,0-41.92c0-6.7,1.84-8.65,8.55-8.73,9.48-.11,19,0,28.44,0,12,0,23.95-.09,35.92.06C321.61,8.67,325.33,8.23,326.57,12.54Z"/><path class="cls-1" d="M106.27,59.59c-9.32,0-18.64,0-28,0-3.26,0-5.53-.89-5.76-4.61-.26-4.06,2.27-5.35,5.6-5.37q28.47-.12,56.93,0c3.33,0,5.5,1.79,5.32,5.23s-2.09,4.86-5.65,4.79C125.25,59.48,115.76,59.59,106.27,59.59Z"/><path class="cls-1" d="M346.52,20.61c-1.06-.11-2.24.15-2.95-1,4.08.05,8.09.28,10.89,3.88l-3.86-1C349.19,22,347.2,22.7,346.52,20.61Z"/><path class="cls-1" d="M225.55,94.59c0,.31,0,.63,0,.94a1.88,1.88,0,0,1-1,.64,3.72,3.72,0,0,0-2.78,2,8,8,0,0,1-1.19,1.4c0,.35,0,.69,0,1-1.61,1.87-.89,4.13-1,6.23-.17,3.57-1.79,5.63-5.46,5.73-3.49.1-7,.15-10.47,0-3.14-.16-5-1.94-5-5.08-.14-12.63-.16-25.26,0-37.88.05-3.15,2-4.83,5.15-4.91,4.82-.13,9.64,0,14.45,0a6.5,6.5,0,0,1,4.86,2.17,9.66,9.66,0,0,0,9.44,2.81l1-1a3.11,3.11,0,0,1,1.84-.93,45.4,45.4,0,0,1,4.81,0,4.47,4.47,0,0,1,1.3.3,6.86,6.86,0,0,1,2,1.63h0c1.72,1,3.59.49,5.38.49q34.18.06,68.38,0c6.82,0,7.7.91,7.72,7.79,0,3.49.05,7,0,10.48-.08,5-1.14,6.15-6.22,6.18-16.31.07-32.61,0-48.92,0C255.11,94.58,240.33,94.53,225.55,94.59Z"/><path class="cls-1" d="M232.54,69.56c-3.43,2.29-6.16.6-9-1.42-6.77-4.86-14.36-2.23-21.62-2-1.78.06-2.43,2.4-2.42,4.42q.06,17.94,0,35.87c0,3.52,1.71,5.2,5.2,5.13,1,0,2,0,3,0,9.82,0,9.87,0,10.77-9.48.15-1.57.48-2.19,2-1.52-.4,4.32,1,8.78-1,13h-3a45.76,45.76,0,0,0-15,0c-2.65.17-4-.92-4-3.72,0-14.71,0-29.42.07-44.13a6.42,6.42,0,0,1,.92-2.19c4.82,0,9.64.12,14.45,0,4.51-.09,8.82-.38,12.12,3.87C226.76,69.55,230.15,68.43,232.54,69.56Z"/><path class="cls-1" d="M360.61,138.55c.16,3.77-.58,7.57.53,11.3.42,1.4-.5,2.12-1.58,2.7-1.85-1.73-4.13-.94-6.2-.94q-63.41-.08-126.82-.05a1.19,1.19,0,0,1,.54-1.62c2.53-1.2,5.24-.76,7.88-.76q57.72-.06,115.45,0c6.15,0,6.85-.67,7.69-6.57.09-5.46-.07-10.91.1-16.36.06-1.85-.41-4.16,2.36-4.76C361.78,127.14,361,132.85,360.61,138.55Z"/><path class="cls-1" d="M226.55,150.57c0,.33,0,.66,0,1-3.71.57-5.42-.64-5-4.75s.11-8.19.12-12.29c1-1.1.92-2.44.93-3.77q0-13.68,0-27.37a5.58,5.58,0,0,0-.88-3.79l-.26,0c1.72-3.11,3-1.57,4,.47.74,1.51.48,3.26.49,4.91,0,8.79,0,17.58,0,26.36a6.84,6.84,0,0,0,.87,3,2.66,2.66,0,0,1-.1,1.45C222.7,140.85,222.65,144.17,226.55,150.57Z"/><path class="cls-1" d="M221.66,99.59c2.13.3,1.88,1.94,1.88,3.4q0,14.08,0,28.18c0,1.47.23,3.11-1.93,3.35Q221.64,117,221.66,99.59Z"/><path class="cls-1" d="M224.62,133.5c0-10.33,0-20.66-.1-31,0-1.85.79-5-3.12-3l-.82,0,0-1.94c1.17-1,2.88-.93,4-2,.32,0,.65-.06,1-.07,0,.36,0,.72,0,1.08a4.63,4.63,0,0,1,1.33,3.12c-.1,10.7.44,21.4-.26,32.1C226.26,132.73,225.88,133.66,224.62,133.5Z"/><path class="cls-1" d="M360.61,138.55q0-8.48-.1-16.94c-2.32-6.89-1.81-13.84-.37-20.8a1.13,1.13,0,0,1,1.69-.11c.3,8.29.58,16.58-.27,24.85q0,6.51,0,13h-.91Z"/><path class="cls-1" d="M364.5,140.65q0,6.93,0,13.87c-1.3,0-1.86-.72-1.91-1.94,1.07-4.07-2-8.14,0-12.21Z"/><path class="cls-1" d="M397.86,104.61c9.95.08,21.76-.32,33.54.9,2,.2,3.53.67,4.7,2.3,4,5.53,7.89,11.09,11.94,16.55,2.61,3.52,1.68,5.77-2.17,7.24a67.23,67.23,0,0,1-7,2.65c-9.56,2.47-12.89,8.68-9.15,18.28,4,10.37,8.45,20.6,12.76,30.86,4.66,11.12,4.61,10.78-7.08,13.34-5.14,1.13-6.8-1-8.35-5.06-6.37-16.77-13-33.46-19.36-50.22-1.82-4.76-4.71-7.18-10.1-7-8.49.31-17-.17-25.49.18-4.46.19-6.21-2-6.37-5.7-.27-6.65-.2-13.33-.13-20,0-3.44,2.32-4.41,5.4-4.39C379.34,104.65,387.67,104.61,397.86,104.61Z"/><path class="cls-1" d="M439.54,136.59c-1.43,1.63-3.33.75-5,1C435.94,136,437.83,136.76,439.54,136.59Z"/><path class="cls-1" d="M406.7,154.48c1.28,2.31-.6,2.06-1.79,2.06-11.94,0-23.89,0-35.83,0-1.9,0-3.48-.67-3.4-2.74.18-4.75-1.13-9.6.9-14.23,1.08.32,2.18.62,3.25,1,2.5.81,6-1.81,7.45,1,1.09,2,.25,5.11.26,7.72,0,1.14,0,2.29-.05,3.43-1,2.38.63,2.49,2.19,2.42,7-.32,14.11.8,21.12-.72A14.67,14.67,0,0,1,406.7,154.48Z"/><path class="cls-1" d="M388.39,153.54h-.5c-8.2,0-10.42-3-8.34-11,.45-1.75,1.52-1.95,2.92-1.95H391c6.6,0,6.25,0,6.72,6.74.35,5.08-1.17,7.15-6.29,6.25A18.64,18.64,0,0,0,388.39,153.54Z"/><path class="cls-1" d="M403.59,146.54c1.52,1.36,1.06,3.88,2.94,5l0,2c-2.43,2.3-5.24,1.37-8,1,.61-4.64-1.1-9.45,1-14v7Z"/><path class="cls-1" d="M398.51,154.55c2.63-.55,5.43.28,8-1a8.63,8.63,0,0,0,.2.88c-1.59,1.79-3.72,1-5.62,1.05-7.45.09-14.9,0-22.35.07-3,0-3.3-.94-1.24-3,.36,2.44,2.26,1.92,3.81,1.93C387,154.59,392.78,154.56,398.51,154.55Z"/><path class="cls-1" d="M361.57,100.58h-1a7,7,0,0,1-2.18-.29c-.32,0-.64-.13-1-.17-8.78-.87-8.78-.86-11.71,6.54a1.32,1.32,0,0,1-1.5-.23c-1.6-3.24-1.2-6.59-.58-10l1-.95c1.58,2.65,4.2,2,6.59,2,3.12,0,6.24,0,9.36,0,1.16,2.66,3.53,2,5.61,2q23.67.06,47.35.06c0,.31,0,.62,0,.92l-47,.06A3.78,3.78,0,0,1,361.57,100.58Z"/><path class="cls-1" d="M361.57,100.58l5,0c-5.12,2.91-3.73,7.88-4,12.39-.28,4.18,1.16,8.5-.93,12.55Q361.56,113.07,361.57,100.58Z"/><path class="cls-1" d="M422.51,55.61l.06,1.94c.11,1.48,0,2.83-1.89,3.05a3.9,3.9,0,0,1-1.3-1.65,3.77,3.77,0,0,0-2.13-1.81c-17.54-.32-35.06-.23-52.57,0a12.09,12.09,0,0,0-2.05,1A14,14,0,0,1,360.36,60a2.63,2.63,0,0,1-1.47-.06,2.4,2.4,0,0,1-.34-3.36h0c.94-1.66,2.18-2.91,4.24-3,18.87,0,37.74-.14,56.61,0C420.78,53.78,421.62,54.73,422.51,55.61Z"/><path class="cls-1" d="M361.53,54.55l-3,2c-.19-3.25,2-4,4.51-4,18.59-.06,37.18,0,55.77,0,2.08,0,3.59.64,3.68,3a2.18,2.18,0,0,1-2-1c-.85-.71-1.88-.53-2.86-.53H364.41A4.52,4.52,0,0,0,361.53,54.55Z"/><path class="cls-1" d="M358.55,56.57c.08,1.09-.17,2.28,1,3,2.27,1.83,5,1.54,7.62,1.54,15.91,0,31.83,0,47.74,0,2.28,0,4.69-.39,6.64,1.36-1.1,1.45-2.7,1-4.14,1q-26.85,0-53.69,0C358.43,63.55,357,61.47,358.55,56.57Z"/><path class="cls-1" d="M421.51,62.54q-28.35,0-56.71,0c-2.29,0-4.88.43-5.29-3l1,0a6.16,6.16,0,0,1,2.62.4c16.52.46,33,.05,49.56.2a48.59,48.59,0,0,1,6.93.19l.89.2,2-3C424.43,59.68,421.85,60.88,421.51,62.54Z"/><path class="cls-1" d="M455.55,35.56c4.89,1.42,4.44,5.32,3.78,8.92s-3.72,4.12-6.95,4.11q-43.86-.06-87.73,0c-2.88,0-5.75-.33-5.95-3.75s-1.82-8,3.83-9.28Z"/><path class="cls-1" d="M201.54,113.56a24,24,0,0,1,15,0Z"/><path class="cls-1" d="M9.58,130.6l1.92-1.06,154,0c-.34,2.63-2.55,2.21-4.22,2.45a49.26,49.26,0,0,1-7,0H20.49a13.93,13.93,0,0,0-4,.35c8.37-.59,16.18-.31,24-.32q52.44,0,104.89,0c9,0,17.92.25,26.57,3.39,2.55.93,6,2.18,7.35-2.13a2.91,2.91,0,0,0-1.18-1.8c-2.39-1.12-4.92-.43-7.38-.61-1.81-.13-3.69.1-5.13-1.38,4.59-2,9.41-1.1,14.06-.64,2.7.27,3.16,3,2.91,5.54a4.07,4.07,0,0,1-4.17,4.06,24.76,24.76,0,0,1-9.79-.95,15.39,15.39,0,0,0-8.56-2.05q-71.81.09-143.61.06C12.8,135.58,9.49,135.48,9.58,130.6Z"/><path class="cls-1" d="M90,84.6q35,0,70,0c3.07,0,5.92-.25,8.43-2.33,3.15-2.61,7-1.75,10.58-1.57,2.11.11,2.53,1.85,2.53,3.65,0,9.33,0,18.66,0,28,0,2.21-.89,3.69-2.95,3.93-3.11.37-6.52,1.14-9.32-.47-5.65-3.26-11.68-3.29-17.88-3.28q-66.22.1-132.46,0c-7.32,0-7.41-.09-7.42-7.66,0-4.67.18-9.34-.05-14-.24-4.84,1.9-6.41,6.56-6.38C42.06,84.68,66.05,84.6,90,84.6Z"/><path class="cls-1" d="M159.51,77.55q-63.67,0-127.35,0c-3.3,0-7,.36-7.6-4.37-.75-5.65.92-7.56,6.76-7.56q74.66,0,149.32.08c4,0,7.92.6,11.88.93a13.67,13.67,0,0,1,2,8.06c-.15,6.49,0,13-.09,19.48,0,1.81-.25,4.15-2.57,4.15-2.51,0-2.32-2.36-2.33-4.19,0-5.16,0-10.33,0-15.49-.06-3.77-2.1-5.94-5.87-6C175.27,72.5,166.61,71.3,159.51,77.55Z"/><path class="cls-1" d="M89.1,20.63q35.24,0,70.46,0a16.42,16.42,0,0,0,8.63-1.89c3.54-2,7.5-1.3,11.25-.94,2.91.28,3.89,2.64,4,5.46.36,6.5-.5,12.93-1,19.39-.15,2-1.38,3.68-3.38,3.74-4.26.13-8.7,1.18-12.67-1.38-3.22-2.08-6.71-2.49-10.48-2.49q-69.46.1-138.92,0c-6.93,0-7.46-.54-7.49-7.34C9.49,19.65,8.48,20.58,24.12,20.62,45.8,20.67,67.45,20.63,89.1,20.63Z"/><path class="cls-1" d="M242.52,27.52q0,16.56,0,33.11c-.68,2.21-1.78,3.52-4.49,3.52s-3.78-1.35-4.46-3.55V27.53c.68-2.2,1.75-3.55,4.47-3.55S241.83,25.33,242.52,27.52Z"/><path class="cls-1" d="M232.52,64.57c-.66-1-1.31-2-2-3-1.39-1.25-1.38-2.95-1.39-4.6q-.09-13.9,0-27.81c0-1.65,0-3.35,1.39-4.6l1.93-1Q232.51,44.07,232.52,64.57Z"/><path class="cls-1" d="M233.57,60.61c3.71,4.14,5.23,4.15,9,0l0,3.95a50.23,50.23,0,0,0-5.35.06C234,65,233.21,63.36,233.57,60.61Z"/><path class="cls-1" d="M242.52,27.52c-3.75-4.16-5.21-4.16-9,0,.45-4.45,2.89-5.26,9-3C242.58,25.52,242.55,26.52,242.52,27.52Z"/><path class="cls-1" d="M235.51,68.55l-1.95,0c2.24-4.06,6-1.08,9-2,.72,1.17.79,2-1,2A7.86,7.86,0,0,0,235.51,68.55Z"/><path class="cls-1" d="M241.54,68.57a1.93,1.93,0,0,0,1-2l2-1.13c0,.7,0,1.4.07,2.11a1.94,1.94,0,0,0-1,2A2.08,2.08,0,0,1,241.54,68.57Z"/><path class="cls-1" d="M218.69,43.58c-.73,2.25,1.22,6.13-2.07,6.32-3.07.18-4.9-3.27-4.9-6.41,0-3,1.93-6.37,4.58-6.3C220.22,37.31,217.79,41.4,218.69,43.58Z"/><path class="cls-1" d="M230.56,24.57q0,18.51,0,37c-.24,1.91-1.11,3.34-3.23,2.69A4.05,4.05,0,0,1,224.53,60c0-6.15,0-12.29,0-18.44q0-8,0-15.94c0-1.72.13-3.47,2.26-3.88S230.32,22.27,230.56,24.57Z"/><path class="cls-1" d="M393.54,81.59c-19.3,0-38.6,0-57.9,0-3.75,0-6.17-1-6.06-5.3.13-4.93,2.15-6.25,6.35-3.79a8,8,0,0,0,6.69.51c9.8-2.82,19.77-3.68,30-3.57,25.95.28,51.91.09,77.86.1,6.13,0,7.43,1.46,7.06,7.27-.26,4-2.67,4.8-6.09,4.79C432.14,81.56,412.84,81.59,393.54,81.59Z"/><path class="cls-1" d="M343.59,96.47c1.93,3.21.51,6.74,1,10.08,1.64,4.71.23,9.51.31,14.26C345.11,134.9,346,134,331.63,134q-49.2,0-98.4,0c-2.61,0-5.38.52-7.66-1.42q0-18,0-35.94Z"/><path class="cls-1" d="M225.55,94.59c1.63-1.76,3.76-1,5.66-1q42.64-.07,85.29,0c7.72,0,8-.33,8.05-8.27V80.8c0-9.72-.51-10.24-10-10.24q-32.67,0-65.34,0c-1.9,0-4,.76-5.67-1,25.61,0,51.21.09,76.82-.1,4.17,0,5.53,1.14,5.28,5.31-.34,5.63-.06,11.3-.09,17,0,1.59.46,3.51-2,3.81-1.73-.91-3.59-.46-5.39-.46Q275,95,231.91,95c-1.79,0-3.66.45-5.39-.45C226.2,94.59,225.87,94.59,225.55,94.59Z"/><path class="cls-1" d="M226.52,94.58q45.9,0,91.81,0c1.75,0,3.7-.66,5.19.94q-46.15,0-92.31,0C229.62,95.53,227.85,96.06,226.52,94.58Z"/><path class="cls-1" d="M346.52,20.61l4.09,1.91c3.89,4,3.93,9,4.06,14.27.2,8-1.15,15.9-1.18,23.87,0,3.46-4,5.91-8.89,5.92-4,0-5.12-2.22-5.09-5.79.07-9.83.22-19.67-.05-29.49C339.32,25.83,339.81,21.3,346.52,20.61Z"/><path class="cls-1" d="M334.54,60.57c-3.08,3.42-3.8-.1-3.84-1.74-.22-10.46-.15-20.93-.07-31.4a3.14,3.14,0,0,1,3-3.4c1.43-.08,1.9,1.25,1.89,2.46q-.09,16.68-.31,33.35c0,.24-.41.48-.63.73-1.61-1.77-1.44-4-1.45-6.11,0-7.72,0-15.43,0-23.15Q333,43.18,333,55C333,57,332.83,59.06,334.54,60.57Z"/><path class="cls-1" d="M286.18,64.58c-10.82,0-21.64-.11-32.46,0-4.51.07-6.25-1.73-6.2-6.23q.22-21,0-41.95c0-4.18,2-5.8,5.71-5.81q33.21-.08,66.43,0c3.9,0,5.82,2,5.82,5.85V58.41c0,4.22-1.67,6.34-6.32,6.24C308.16,64.43,297.17,64.59,286.18,64.58Z"/><path class="cls-1" d="M106.06,57.57q-13.49,0-27,0c-1.82,0-4.14.22-4.28-2.25-.15-2.65,1.89-3.7,4.33-3.7q27.46,0,54.92,0c2.2,0,4.19.89,4,3.37-.13,2.22-2,2.63-4.09,2.62C124.7,57.53,115.38,57.57,106.06,57.57Z"/><path class="cls-1" d="M273,91.62q-21.24,0-42.47,0a16.62,16.62,0,0,0-6.37.92c-4.32,1.75-7.48,4.18-6.78,9.6.34,2.64.35,6.1-2.55,6.94a18.9,18.9,0,0,1-12.2-.25c-1.34-.53-1.17-2.26-1.17-3.6,0-11.16,0-22.32,0-33.48,0-2.93,1.23-4.36,4.19-4.21,6.35.33,12.88-1.27,18.69,3.27,3.16,2.47,7.28,2.28,10.9.29,2.29-1.26,4.31-1.39,6.5.09s4.71,1.39,7.23,1.38q33.22,0,66.46,0c6.44,0,7.14.68,7.09,7.23-.1,13.43,1.7,11.76-11.53,11.82C298.36,91.67,285.7,91.62,273,91.62Z"/><path class="cls-1" d="M224.56,95.6c-.32,2.7-2.44,1.8-4,2C221.45,96.05,222.5,94.81,224.56,95.6Z"/><path class="cls-1" d="M235.51,68.55a4.62,4.62,0,0,1,6,0Z"/><path class="cls-1" d="M226.55,150.57c-5.82-3.69-5.82-11.94,0-15,2.28-2,5.06-1.37,7.67-1.38,35.8-.06,71.61,0,107.39-.06a9.53,9.53,0,0,0,1.58-.22,2.94,2.94,0,0,0,2-2.77,27.82,27.82,0,0,1,.59-5.46c.9-7.37-.1-14.8.84-22.16.82-4.41,4.25-4.07,7.35-3.79,3.49.32,5.17,2.87,5.44,6.08.38,4.6.13,9.23.11,13.85a112,112,0,0,0,0,22.94c-.48,7.12-1.35,8-8.34,8Z"/><path class="cls-1" d="M359.52,142.58c-2.16-5.08-.5-10.4-.94-15.6-.21-2.46,0-5,0-7.44A58.59,58.59,0,0,0,358.7,104c-.15-1.64-.59-3.26.9-4.54.31.37.61.74.92,1.1q0,10.51,0,21c-2.15,5.07-.45,10.37-.94,15.54C359.4,138.94,359.53,140.77,359.52,142.58Z"/><path class="cls-1" d="M225.57,132.55c37.76,0,75.52,0,113.27.11,3.72,0,4.87-1,4.8-4.78-.12-7.11-.78-14.28.92-21.33l.92,0c2.24,6.25.71,12.68.83,19,0,1.28-.3,2.61-.3,3.92-.33,1.74-.47,3.55-1.48,5.09h0c-1.22.78-2.59.47-3.89.47q-55.11,0-110.22,0c-1.31,0-2.67.29-3.9-.44a1.93,1.93,0,0,1-1.91-1.1C224.94,133.18,225.25,132.87,225.57,132.55Z"/><path class="cls-1" d="M226.53,134.6l118,0c-1.48,1.61-3.43,1-5.18,1q-56.42,0-112.82,0C226.54,135.24,226.54,134.92,226.53,134.6Z"/><path class="cls-1" d="M368.56,148.06c.27-2.07.39-4.66,3.73-4.45,2.94.19,3.22,2.57,3.12,4.77s-.61,4.8-3.23,4.89C369.24,153.38,368.54,150.92,368.56,148.06Z"/><path class="cls-1" d="M388.42,141.55c3.51.15,7.75-.94,8.1,4.66.28,4.46-1.74,5.44-9.84,5.43-4,0-6.48-1.28-6.1-5.68C381,140.74,385,141.66,388.42,141.55Z"/><path class="cls-1" d="M345.53,130.56q0-12,0-24c.3-8.82-1.52-8,7.92-7.92,2.07,0,4.33-.81,6.2.85,0,5.14,0,10.28-.09,15.41,0,1.59.56,3.36-1,4.67,0-4.31.16-8.64-.11-12.94-.17-2.73-1.36-5.36-4.43-5.89-2.57-.44-5.42-.58-6.48,2.85-1.1,5.7-.2,11.46-.52,17.18-.11,2,.47,4-.45,5.83,0,2,0,4,0,6C344.69,132.63,344.93,131.68,345.53,130.56Z"/><path class="cls-1" d="M361.54,57.57l1-1c2.57-1,5.25-.43,7.86-.44q22.14-.1,44.27,0c1.63,0,3.32-.42,4.88.46a2.07,2.07,0,0,1,1,2c-1.14,2.21-3.22,2-5.2,2-16.21,0-32.43,0-48.64,0C364.53,60.52,361.74,61.18,361.54,57.57Z"/><path class="cls-1" d="M361.54,57.57c.94,2.07,2.78,2,4.64,2q24.79,0,49.59,0a9.13,9.13,0,0,0,4.77-1c0,.66,0,1.33,0,2h0c-1.55.9-3.25.47-4.87.47q-24.63,0-49.25,0c-1.63,0-3.32.41-4.88-.45l-1-1A2.14,2.14,0,0,1,361.54,57.57Z"/><path class="cls-1" d="M361.53,54.55c1.15-1.36,2.73-1,4.18-1q25.34,0,50.67,0c1.44,0,3-.43,4.14,1Z"/><path class="cls-1" d="M419.54,56.57h-57c1-1.23,2.37-1,3.67-1h49.68C417.18,55.58,418.57,55.32,419.54,56.57Z"/><path class="cls-1" d="M361.54,60.58l59,0c-1,1.26-2.36,1-3.65,1H365.21C363.9,61.57,362.51,61.81,361.54,60.58Z"/><path class="cls-1" d="M408.89,36.59q21,0,42,0c5.52,0,7.94,1.68,7.59,5.55-.39,4.44-3.45,5.44-7.43,5.43-28.15-.07-56.31,0-84.46,0-3.42,0-6.85-.12-7.06-5-.19-4.24,1.61-6,5.89-6C379.9,36.65,394.4,36.58,408.89,36.59Z"/><path class="cls-1" d="M165.54,129.57c4.66.5,9.46-1.1,14,1-3.32,2.58-7.43.38-10.91,1.81,4.17,2.9,7.59,2.67,11.9-.8,2.31,3.65.17,5.29-3,5.87a11.43,11.43,0,0,1-5.89-.44c-8.23-3.17-16.8-3.42-25.43-3.42q-57.72,0-115.44,0c-5,0-10-.63-14.89.8-1.5.43-3.75.47-3.84-1.86-.08-2,1.91-1.91,3.39-2,1.16,0,2.33,0,3.5,0q70.22,0,140.42,0C161.42,130.54,163.72,131.36,165.54,129.57Z"/><path class="cls-1" d="M180.54,131.57c-.94,3.9-4.62,5.34-10.16,3.73a9.9,9.9,0,0,1-5.27-3.08c4.69-2.79,9.69-1.21,14.44-1.65Z"/><path class="cls-1" d="M94.56,74.59H30.08c-2.19,0-3.44-1-3.5-3.27-.07-2.49,1.06-3.78,3.57-3.7,14,.46,28-1,41.88.83a37.72,37.72,0,0,0,5,.12l108.47,0c1.33,0,2.67-.06,4,0,1.8.15,2.81,1.22,2.36,3-.55,2.21-1.93.85-3.12.55-8.93-2.27-17.83-3.67-26.35,1.46-1.83,1.1-3.83.94-5.83.94Z"/><path class="cls-1" d="M235.53,44c0-4.66.05-9.33,0-14,0-2.08.5-3.81,2.76-4s2.92,2,2.95,3.41c.17,9.81.18,19.62,0,29.42,0,1.64-1,3.86-3.43,3.5s-2.2-2.56-2.21-4.37C235.51,53.28,235.52,48.62,235.53,44Z"/><path class="cls-1" d="M229.53,43.44c0,5.16,0,10.33,0,15.49,0,1.52-.12,3.34-2.21,3.15-1.63-.15-1.75-1.77-1.75-3.14q0-16,0-32c0-1.36.22-2.91,2-2.92s2,1.55,2,2.91C229.55,32.44,229.53,37.94,229.53,43.44Z"/><path class="cls-1" d="M285,98.59q25,0,50,0c5.74,0,6.61.91,6.63,6.72,0,6.49-.11,13,0,19.48.06,4-1.58,5.79-5.63,5.79q-50.94-.08-101.9,0c-4.69,0-6.58-2.23-6.5-6.77.12-6.16,0-12.32,0-18.48.06-5.25,1.55-6.71,7-6.72C251.38,98.57,268.2,98.59,285,98.59Z"/><path class="cls-1" d="M341.52,43.9c0-5,0-10,0-14.94,0-2.48-.39-5.58,3.39-5.27,3.21.26,7.35.59,7.48,4.94q.47,15.18-.08,30.37c-.14,4.1-3.05,6-7.27,5.64-4.51-.33-3.44-3.67-3.5-6.3C341.44,53.53,341.52,48.71,341.52,43.9Z"/><path class="cls-1" d="M334.54,60.57c-2.71-.21-3-2.07-3-4.25,0-8.8,0-17.6,0-26.39,0-1.47-.19-3.73,1.55-3.69,2.52.05,1.37,2.56,1.38,4,.1,10.12.05,20.24.05,30.37Z"/><path class="cls-1" d="M290.65,148.59h-60c-5.55,0-8.22-4.21-5.86-9.17,1.13-2.38,3.32-1.84,5.25-1.84q19.74,0,39.48,0,34,0,68,0c8.72,0,11-2.28,11-10.86,0-6.16,0-12.33,0-18.49,0-2.85.45-5.79,3.71-6.17s4.23,2.36,4.71,5.23c1.18,7.12.32,14.28.57,21.42.17,4.83-.16,9.67.11,14.49.23,4.16-1.36,5.53-5.49,5.5C331.64,148.5,311.15,148.59,290.65,148.59Z"/><path class="cls-1" d="M346.56,126.58c0-6.12-.05-12.24,0-18.36,0-1.59-.53-3.35,1-4.65,0,6.12,0,12.23,0,18.35C347.49,123.51,348,125.26,346.56,126.58Z"/><path class="cls-1" d="M345.53,130.56a2.07,2.07,0,0,0,1,2,3.24,3.24,0,0,1-2,2C344.71,133.2,344.1,131.63,345.53,130.56Z"/><path class="cls-1" d="M387.87,150.57c-2.62.33-5.5-.08-5.92-3.75-.29-2.54,1.78-4,4.09-4.09,3.33-.18,7.33-1.27,9,3.11C396.12,148.78,393.44,150.59,387.87,150.57Z"/><path class="cls-1" d="M408.52,45.56q-20.72,0-41.44,0c-2.42,0-5.35.61-5.5-3.25-.16-4.18,2.87-3.72,5.54-3.72q41.94,0,83.88,0c2.42,0,5.35-.62,5.5,3.25.16,4.17-2.87,3.72-5.54,3.72Z"/><path class="cls-1" d="M239.54,44.3c0,4.47,0,8.94,0,13.41,0,.93.2,2.23-1.17,2.32-1.19.08-1.71-1-1.72-2q-.07-13.9,0-27.81c0-.85.38-1.81,1.3-1.86,1.26-.07,1.57,1.05,1.58,2.06,0,4.63,0,9.27,0,13.9Z"/><path class="cls-1" d="M228,26.24V59.86h-1V26.25Z"/><path class="cls-1" d="M285.4,101.56c16.48,0,33,.11,49.45-.08,3.8,0,4.94,1.19,4.76,4.87-.27,5.65,0,11.32-.11,17,0,3.27-.84,5.39-5.08,4.52-3.2-.66-6.63-.25-10-.25H240.54c-10,0-10,0-10-10,0-3.5.27-7-.07-10.48-.42-4.32.95-5.75,5.49-5.67C252.43,101.72,268.92,101.56,285.4,101.56Z"/><path class="cls-1" d="M290.48,146.57c-19.47,0-38.94,0-58.42,0-2.38,0-5.54,1.2-5.6-3.39s2.94-3.56,5.44-3.57q52.43,0,104.85,0c11.2,0,13.78-2.59,13.78-13.78,0-6,0-12,0-18,0-1.48-.19-3.39,1.65-3.72,2.21-.4,2.52,1.8,3,3.27a10.66,10.66,0,0,1,.29,3.45c0,10.15-.24,20.31.14,30.45.17,4.69-1.61,5.44-5.76,5.4C330.09,146.47,310.29,146.57,290.48,146.57Z"/><path class="cls-1" d="M388.73,148.65c-1.89-.34-4.73.64-4.64-2.25.07-2.39,2.69-1.83,4.38-1.8s4.6-.73,4.52,2.14C392.93,149.18,390.26,148.31,388.73,148.65Z"/></g></g></svg>