<svg xmlns="http://www.w3.org/2000/svg" viewBox="0 0 497.1 117.64"><defs><style>.cls-1{fill:#fff;stroke:#000;stroke-miterlimit:10;}</style></defs><title>Asset 8</title><g id="Layer_2" data-name="Layer 2"><g id="Layer_1-2" data-name="Layer 1"><path class="cls-1" d="M270.57,9.69c9.09.54,18,2.19,27,3.48q20.36,2.92,40.76,5.5Q359,21.26,379.7,23.5c8.39.9,16.85,1.13,25.21,2.25,27.34,3.66,54.8,1.17,82.2,1.95,5.86.17,9.44,3.89,9.47,9.76q0,7.74,0,15.49c0,7-2.59,9.66-9.65,9.71-13.66.1-27.31,0-41,0-6.89,0-7.35.53-4.16,6.33,3.28,6,.77,11.67-.28,17.42s-2.44,11.65-3.88,17.43c-1.1,4.42-3.91,7.23-8.59,7.9-11.45,1.64-22.86,3.56-34.46,3.93a1.23,1.23,0,0,1,.33-1.59c6.34-2.87,13.29-2.62,20-3.6,3.74-.55,7.58-.93,11.37-1.35,5.68-.62,7.62-2.81,9-8.41,1.79-7.27,2.65-14.72,4.58-22,1-3.8-.5-7.18-2.11-10.53-2.63-5.44-1.21-7.84,4.84-7.91,11.83-.13,23.66,0,35.5,0,1.5,0,3,0,4.5,0,8.1-.31,10.3-2.11,11.37-10.07a34,34,0,0,0-.58-12.9c-1.25-5-2.25-6.13-7.41-6.18-11.33-.11-22.67-.24-34,0a365.67,365.67,0,0,1-49.3-2.37c-8-1.05-16.14-1.88-24.21-2.6-16.69-1.49-33.36-3.06-49.93-5.55-15.58-2.35-31.22-4.3-46.82-6.51-2.47-.35-4.89-.94-7.37-1.25C272.56,12.63,270.58,12.18,270.57,9.69Z"/><path class="cls-1" d="M394.56,114.69v1c-7.69,2.24-15,2.12-22.25-2.06-11.46-6.65-23.16-12.87-34.66-19.45-3.41-2-6.6-1.11-10.08-.62A134.22,134.22,0,0,1,309.79,95c-13.8.08-23.91,9.55-36.05,13.87-12.62,4.49-24.76,5.1-37.35,1.23-1.27-.39-2.49-1-3.77-1.28-9.3-2.2-17.4-6.32-23.45-14-2.14-2.71-5.1-4.09-8.32-2-7.38,4.69-15,3.77-22.95,2-14.17-3.24-28.44-6-42.68-9-1.53-.31-2.95-.51-3.66-2.11,1.74-1.36,3.66-.11,5.47-.39,6.7.12,13.12,2,19.59,3.35,8.77,1.85,17.59,3.39,26.36,5.19a22.18,22.18,0,0,0,14.55-1.49c6.67-3.19,9.62-2.6,14.67,2.69,10.3,10.78,23.38,14.68,37.67,15.18,6.4.22,13,1.21,19.23-1.38,8.59-3.11,17.18-6.26,24.84-11.35,5.43-3.6,11.66-3.36,17.7-4.16,3.43-.16,6.89.42,10.29-.45a10.79,10.79,0,0,1,1.59-.37,75.18,75.18,0,0,1,13.08.1c11.33,5.48,22.16,11.88,33.12,18a38.37,38.37,0,0,0,7.58,3.66,10.13,10.13,0,0,1,2,.61,18.76,18.76,0,0,1,1.78.93c2.09,1,4.2.71,6.31.06a9.52,9.52,0,0,1,1.4-.34C390.83,113.48,392.9,113,394.56,114.69Z"/><path class="cls-1" d="M270.57,9.69c5.49,3.79,12.06,2.88,18.13,3.88,15.8,2.61,31.67,4.75,47.55,6.82,10.32,1.34,20.71,2.12,31.05,3.34,11.75,1.38,23.62,1.78,35.28,4-1.14,1.31-2.71,1.29-4.25,1.38-13.3-.15-26.42-2.42-39.65-3.42-14.56-1.1-29-3.59-43.4-5.72-13.62-2-27.35-3.28-40.9-5.79C267.93,13,262.64,8.8,256.2,7.41c-6.2-1.34-12.17-3-18.63-1.53-3.2.75-6.64.36-10,.18-10.33-.56-20.57,1-30.88,1.13-4.22,0-8,2-11.89,3.5-12,4.83-24.09,9.62-36.12,14.47a24.2,24.2,0,0,1-9.21,1.94l-98.88,0c-1.66,0-3.37.14-4.91-.63-.87-.43-1.86-1-.75-2.19,2.07-.93,4.27-.53,6.41-.54,33.65-.11,67.31.15,101-.14,14.77-5.07,29.11-11.31,43.57-17.19,6.42-2.61,12.94-2.63,19.53-3.18,7.77-1,15.57-.27,23.35-.5a31.16,31.16,0,0,0,5.46-.24,5.53,5.53,0,0,1,1.81-.24c4.86-.38,9.74-1.42,14.53.48C257.44,4.44,264.58,5.4,270.57,9.69Z"/><path class="cls-1" d="M136.59,84.68l-5-1c-7.2-3.11-13.36-7.84-19.23-12.89-2.26-1.94-4.27-3.2-7.41-3.19Q72,67.82,39,67.63c-3.43,0-5.5,1.09-7.11,4.16-2.77,5.28-6.4,6.4-11.49,3.21S9.14,70,6.57,63.69l.65-.24c1.9.32,3.13,1.83,4.75,2.66,3.52,2.34,6.8,5,10.73,6.72,1.79.67,3.49,1,4.81-.89a16.34,16.34,0,0,1,2.6-3.26c1.63-1.25,2.91-2.93,4.83-3.84a6.26,6.26,0,0,1,1.7-.44c23.42-.26,46.83-.11,70.22-.1a7.57,7.57,0,0,1,5.42,2c6.52,6.41,14.26,11,22.15,15.5C135.49,82.42,136.89,82.94,136.59,84.68Z"/><path class="cls-1" d="M143.57,23.69c-1.65,1.71-3.78,1-5.68,1q-51.66.08-103.33.05c-4.45,1.32-4.73-3.07-6.84-5-2.09-2.76-4.37-2-6.69-.34-2.7,1.6-5.25,3.43-7.92,5.08A9.3,9.3,0,0,0,8,29.2c-1.77,2.64-3.81,5.12-4.71,8.25.5,6.15-1.42,12.39.84,18.44.81,2,2.33,3.67,3,5.77a2.09,2.09,0,0,1-.58,2h0c-4-3.15-6.24-7-6-12.31.29-8.19-1.09-16.56,5-23.66A42.48,42.48,0,0,1,22.66,15.62a7,7,0,0,1,8.7,2.67l3.21,4.39c1.71,1,3.58.49,5.37.49q49.13,0,98.25,0C140,23.23,141.84,22.76,143.57,23.69Z"/><path class="cls-1" d="M143.57,23.69q-51.66,0-103.33,0c-1.9,0-4,.76-5.68-1,30.42,0,60.85-.39,91.26.19a78.24,78.24,0,0,0,33.64-6.61c8.92-3.9,18.09-7.24,27-11.09,5.85-2.51,11.89-2.72,18.06-2.49.33.22.44.45.33.67s-.22.33-.33.33c-17.12.47-31.46,9.64-47,15C152.86,20.29,148.59,23,143.57,23.69Z"/><path class="cls-1" d="M204.56,3.69v-1h2a163.75,163.75,0,0,1,28,0c-2.34,1.94-5.1.88-7.64.94C219.47,3.79,212,3.69,204.56,3.69Z"/><path class="cls-1" d="M234.57,2.69h-28c2.34-1.95,5.1-.88,7.64-.94,7.12-.16,14.24-.06,21.36-.06.33.22.44.45.33.67s-.22.33-.33.33h-1Z"/><path class="cls-1" d="M235.56,2.69v-1h2a30.68,30.68,0,0,1,12,0l1,1Z"/><path class="cls-1" d="M249.57,1.69h-12A15.69,15.69,0,0,1,249.57,1.69Z"/><path class="cls-1" d="M398.56,27.69h4c28.19,2.95,56.48,1.82,84.74,2,4.35,0,6.56,2.12,7.36,6.49a54.89,54.89,0,0,1,.87,12.38c-.46,10.26-3.45,13.09-13.82,13.12-13,0-26,0-39,0-5.83,0-6.69,1.29-3.49,6.3,4.4,6.88,1,13.53,0,20.26-.68,4.24-2,8.39-2.54,12.64-.69,5.63-3.79,8.84-9.14,9.6-8.84,1.26-17.73,2.14-26.59,3.22-2.13.26-4.24.65-6.36,1h-7a1,1,0,0,1,.19-1.39,4.77,4.77,0,0,1,2.18-.8,20.8,20.8,0,0,0,6.12-.85c10.07-1.87,20.29-2.62,30.39-4.24,3.16-.5,5.93-1.75,6.77-5,2.17-8.47,4.18-17,4.94-25.74a6.45,6.45,0,0,0-.53-3.4c-.83-2.67-2.42-5-3.48-7.56-.93-5.65.42-7.31,6.64-7.38,13.79-.15,27.59-.06,41.37-.05,2,0,4.09.28,6.11-.24a4.88,4.88,0,0,0,2.39-2.33,24.67,24.67,0,0,0,1.3-3.41,119,119,0,0,0,0-15.8c-1.18-4.13-4.44-4.42-7.94-4.41-19.64,0-39.29,0-58.93,0-8,0-15.79-2.14-23.78-2.23C400.05,29.88,398.56,29.56,398.56,27.69Z"/><path class="cls-1" d="M136.59,84.68c-6.26-4-12.43-8.06-18.81-11.8-3.43-2-5-6.3-9.21-7.19-5.31-1.16-10.69-.15-16-.54-1.71-.13-3.6.75-5.1-.76.39-2,2.12-1.81,3.51-2,2-.21,4,0,6-.11,8.47-.51,15.76.58,22.61,7.25,8.63,8.4,19.83,12.55,32.18,14.11,10.46,1.33,20.78,4.11,31.18,6.18a20.74,20.74,0,0,0,10.32-.19c9.55-5.5,16.76-2.51,24.07,5.06,7.48,7.74,18,10.44,28.42,11.4,8.44.78,17.25,1.52,25.48-2.21a2.6,2.6,0,0,1,1.93.24c.35,1.9.35,1.9-3.53,3.54a7.77,7.77,0,0,1-5,1.92c-15.16,1.25-29.85-.54-43.63-7.38-4.4-2.18-7.39-6.14-10.82-9.51-2.56-2.51-5.52-4.27-8.93-2.31-9.43,5.4-18.89,2.61-28.53.88C160.62,89.15,148.86,85.52,136.59,84.68Z"/><path class="cls-1" d="M269.57,107.7l4-3a4.6,4.6,0,0,1,3.14-3,99.63,99.63,0,0,0,19.06-9.55c3.75-2.43,8.33-2.27,12.55-2.61,7.1-.57,14.18-1.16,21.25-2,2.82-.35,5.71-.41,8.31.93,12.83,6.61,25.45,13.61,37.92,20.87a5.81,5.81,0,0,1,2.11,2.07,2.16,2.16,0,0,1-.33,2.29c-8.71-3-16.05-8.59-24.11-12.83-5.4-2.84-11.13-5.19-15.91-9.15-5-1.31-10-.64-15,0h0c-3.57,1.35-7.43-.4-11,1-6.91.57-13.48,1.42-19.69,5.55A69.24,69.24,0,0,1,269.57,107.7Z"/><path class="cls-1" d="M377.57,113.68v-2c3.92-1.6,8.09-.51,12.16-1.05q17.5-2.32,35.07-4.31c.89-.1,2.07.36,2.46-1,.62-1.82,2.45-1.82,3.78-2.58,3.52-6.41,3.19-13.78,5.21-20.54.93-3.13.21-6.66,2.32-9.5,2.49,4.2.4,8.39-.17,12.52s-2.15,8-2.48,12.12c-.6,7.55-4.27,11.37-11.82,12.07-9.53.89-19,2.17-28.54,3.29-1.85,1.25-4.16-.3-6,1h-2c-2.67,1.58-5.34,1.24-8,0Z"/><path class="cls-1" d="M322.56,91.69c5-.93,10-3,15,0Z"/><path class="cls-1" d="M311.56,92.69c3.5-2.13,7.35-.49,11-1C319.06,93.81,315.21,92.18,311.56,92.69Z"/><path class="cls-1" d="M379.56,113.69h8v1a11,11,0,0,1-7,0C380.23,114.36,379.89,114,379.56,113.69Z"/><path class="cls-1" d="M380.56,114.69h7A5.79,5.79,0,0,1,380.56,114.69Z"/><path class="cls-1" d="M398.56,27.69c4.1,2.27,8.71.84,13.09,1.75,6.44,1.34,13.14,1.37,19.8,1.31,18-.18,35.94,0,53.9-.09,4.35,0,7.51,1.25,8.22,6a1.69,1.69,0,0,1-1.75,0c-2.48-2.86-5.61-3.67-9.36-3.64-18.5.12-37,.07-55.49,0-14.16,0-28.11-2.37-42.16-3.65-11.08-1-22.16-1.95-33.21-3.24-16-1.87-32-4.06-47.89-6.46-7.38-1.12-14.77-2.27-22.22-2.87-2.38-.9-4.95-.68-7.4-1.19-3.64-.95-6.88-2.89-10.38-4.21-12.95-5.8-26.66-4.84-40.19-3.93-7,.47-13.92.48-20.87.5a40.24,40.24,0,0,0-15,3.07c-14,5.56-27.94,11.42-42.06,16.78-16.32.51-32.64.18-49,.21-20.48,0-41,.12-61.44-.05a8,8,0,0,1-1.67-.26C31.32,27,30,25,28.15,23.71a13.69,13.69,0,0,1-1.54-1.41c-1.45-1.6-3.06-1.62-4.79-.5-3.72,3-8.34,4.87-11.51,8.59a19.67,19.67,0,0,0-4.05,7.36,72.62,72.62,0,0,0,.07,16C9.06,62.17,15.79,66.41,23.19,70c2.56.27,4-1.32,5.26-3.16a10,10,0,0,1,8.91-4.53c14.82,0,29.65,0,44.47,0,1.79,0,3.74-.18,4.94,1.68-1.24,2.14-3.3,1.1-5,1.11-14.13.09-28.26,0-42.39.08-1.62,0-3.33-.46-4.87.5h0a11.44,11.44,0,0,0-4,4c-.67,1-1.33,2-2,3-1.84,1.3-3.75,2.16-6,1-4.41-1.16-7.74-4-11-7a18.87,18.87,0,0,1-5-5c-1.3-1.49-2.77-2.87-3-5a11.8,11.8,0,0,1-.72-9.47C4,43.81.75,40.27,2.56,36.67a14.55,14.55,0,0,1,5-8,18.27,18.27,0,0,1,5-5,32.39,32.39,0,0,1,8-5c2.67-2,5.34-2.05,8,0,1.89,2.11,2.4,5.61,6,6,1.66,1.7,3.78.95,5.69.95,29.63.05,59.27-.29,88.9.21a68.09,68.09,0,0,0,29.35-6.05c10.16-4.48,20.53-8.54,30.93-12.46,7.9-3,16.4-1.66,24.6-2.52,9.38-1,18.87.27,28.35-1,7.51-1,15.1,1.4,21.58,4.82,9.49,5,19.72,5.27,29.76,6.92,10.91,1.8,21.9,3.11,32.87,4.57,12.61,1.68,25.18,3.6,37.88,4.54C375.84,25.58,387.11,27.63,398.56,27.69Z"/><path class="cls-1" d="M34.57,65.69c1.47-1.63,3.41-1,5.15-1,13.9,0,27.8,0,41.7-.06,1.75,0,3.68.63,5.17-.94a.7.7,0,0,1,1,0c4.7,2.07,9.65.42,14.45,1,2.2.26,4.61-.86,6.57,1Q71.57,65.7,34.57,65.69Z"/><path class="cls-1" d="M6.56,61.69a14.85,14.85,0,0,1,5,5c-2.31.07-3.15-2.3-5-3C6.57,63,6.56,62.36,6.56,61.69Z"/><path class="cls-1" d="M30.56,69.69a4.16,4.16,0,0,1,4-4A10.39,10.39,0,0,1,30.56,69.69Z"/><path class="cls-1" d="M22.56,73.7c2.11.33,4-.66,6-1C26.94,75.28,24.89,75.33,22.56,73.7Z"/><path class="cls-1" d="M2.57,36.69c1.28,6.62-.4,13.39,1,20-.48-.65-1.33-1.28-1.37-2C1.82,48.72,1.11,42.68,2.57,36.69Z"/><path class="cls-1" d="M28.56,18.7a10.46,10.46,0,0,0-8,0C23.23,15.74,25.9,15.69,28.56,18.7Z"/><path class="cls-1" d="M12.57,23.7a15.38,15.38,0,0,1-5,5A5.88,5.88,0,0,1,12.57,23.7Z"/><path class="cls-1" d="M280.57,15.68c11.62.31,23,2.82,34.43,4.3,12.12,1.57,24.23,3.24,36.36,4.69,12,1.43,23.95,3,36,3.88,16.84,1.26,33.58,3.77,50.58,3.24,15.47-.48,31,0,46.46-.14,3.93,0,6.82,1.14,8.19,5a60.89,60.89,0,0,1,0,17c-.35,1-.7,2-1.06,3a1.21,1.21,0,0,1-1.59-.57c-1.55-5-.51-10.2-.74-15.3s-.5-5.68-5.75-5.7c-22.05-.06-44.09,0-66.14,0a26,26,0,0,1-4.5-.33c-4.46-1.25-9.17-.44-13.64-1.59-13.73-1.05-27.41-2.65-41.12-3.89-23.49-2.14-46.69-6.51-70.09-9.32a34.72,34.72,0,0,1-8.77-1.69c-1.28-1.16-.81-1.92.57-2.46Z"/><path class="cls-1" d="M490.58,56.69h.94a3.31,3.31,0,0,1-1.95,2c-2,1-4.18.26-6.27.47-14.42,0-28.84,0-43.26,0-6.27,0-7.36,1.9-4.47,7.5a11.36,11.36,0,0,1,3,6c-.24,9.91-3.11,19.35-5.16,28.93-.17.79,0,2.49-1.87,2.06-1.34-1.41-1-3-.64-4.68,1-5,1.75-10.12,3.07-15.06,1.58-5.9,1.56-11.3-2.36-16.44-1.58-2.07-2.77-4.5-4.26-6.7a6.66,6.66,0,0,1-.81-1.51c-.54-1.6-.6-3,1.41-3.64,13.48-.85,27-.18,40.46-.37,5.5-.08,11,0,16.49,0C486.9,55.3,489,55.18,490.58,56.69Z"/><path class="cls-1" d="M435.57,66.69c-2.73-1.41-2.32-3.9-1.7-6.07.72-2.52,3.16-1.91,5.07-1.92q22.31,0,44.62,0c.33.22.44.44.33.67s-.22.33-.33.33q-21.33,0-42.66,0C434.54,59.72,434,60.55,435.57,66.69Z"/><path class="cls-1" d="M492.57,53.69v-17h1C493,42.35,494.75,48.13,492.57,53.69Z"/><path class="cls-1" d="M389.56,113.69c1.76-1.79,4-.68,6-1C393.81,114.49,391.57,113.37,389.56,113.69Z"/><path class="cls-1" d="M483.56,59.69v-1l6,0C487.8,60.49,485.57,59.38,483.56,59.69Z"/><path class="cls-1" d="M427.56,105.66a4.14,4.14,0,0,1,1.47.14c1.36.7.21.87-.3,1-3.71.67-7.4,1.44-11.14,1.89-9.77,1.18-19.63,1.85-29.32,3.48-3.79.64-7.15-.1-10.7-.45-12.75-7-25.54-14-38.23-21.17a16.3,16.3,0,0,0-10.09-1.74c-8.85.91-17.67,2-26.53,2.81-2.58.22-5.06.56-7,2.08-6.66,5.18-14.83,7.2-22.14,11-9.13,3.89-18.83,3.67-28.29,2.82-10.05-.9-20.28-3.64-27.66-10.69s-14-12.07-24-6.12c-1.13.72-1.95.62-2.25-.85,4.42-3.53,9.09-6.5,15-6.85a21.59,21.59,0,0,1,7.08,5.21c13.48,15.26,31.46,18.43,49.89,15.56a59.21,59.21,0,0,0,30.34-14c3.59-2.18,7.77-1.69,11.64-2.17,9.19-1.14,18.48-1.49,27.64-3,3.53-.59,6.44,1.34,9.3,3,10.2,5.9,20.92,11,30.75,17.41,7.41,4.87,14.86,4.39,22.85,3.06,9.14-1.53,18.42-2.1,27.59-3.53A4.54,4.54,0,0,1,427.56,105.66Z"/><path class="cls-1" d="M191.57,89.76a2.15,2.15,0,0,0,2,.93c-5,2.46-10.1.66-15-.25-13.18-2.43-26.35-5-39.41-7.91C130,80.45,122.79,74.45,116,68.38c-3.62-3.24-7.06-5.08-12-4.78-5.48.34-11,.1-16.49.11h-1c-16.26,0-32.52.07-48.78-.12-3.92-.05-6.54,1.11-8.59,4.52-1.65,2.75-4,5.18-7.67,2.57a3.88,3.88,0,0,1,2.07-1.6c2.33-.69,2.59-2.81,3.25-4.67a6.55,6.55,0,0,1,2-3.37,5.28,5.28,0,0,1,1.68-.6q40.64-.42,81.26,0c2.26.36,3.67,1.91,4.88,3.66a10.06,10.06,0,0,0,4.87,3.81c3.76,2.45,7.54,4.85,11.16,7.53,2.57,2.72,6.06,3.23,9.46,3.89,15.57,3,31,6.66,46.62,9.47A5.53,5.53,0,0,1,191.57,89.76Z"/><path class="cls-1" d="M121.53,68.65c-4.86.21-5.65-4.25-8-7-.85-.76-2.34-.53-2.87-1.81s-1.75-2.59-1.33-4.29a3.81,3.81,0,0,1,2.72-2.1,34.84,34.84,0,0,1,8-.45H416.2c2.82,0,5.67-.26,8.43.62,1.32.59,2.25,1.44,2,3.06l.95,3c-6.68-2.76-12.25,1.32-18.22,3C396,67.25,382.39,71.29,369,75.8c-7,2.1-14,4.09-20.8,6.55-2.46.83-5.07,1.26-7.48,2.66,1.43,1.58,3.47,2,5,3.17,10,5.19,20,10.59,29.65,16.41,4.77,2.87,9.62,3.23,14.82,2.58,11.19-1.41,22.34-3.12,33.6-3.93,3.24-.23,5.07-1.64,5.69-5,1.12-6.2,2.25-12.41,3.74-18.53.85-3.46.14-6.28-1.59-9.39s-5.65-6-4.06-10.58c6.1,7.24,11.13,14.56,7.66,25-2,6.06-2.5,12.63-3.68,19l-4,2c-12.31,1.4-24.78,2-36.86,4.47-8.05,1.64-13.81-1.56-20-5C360.39,99.43,350,93.91,340,87.71c-4.82-3-9.34-1.19-13.94-.84-9,.68-18.07,1.82-27.09,2.82-1.8.2-3.56.67-5.34,1l-.28-.72a3.08,3.08,0,0,1,2.28-2.9,190.83,190.83,0,0,1,24.27-2.48c11.42-.48,21.71-4.74,32.31-8,14.46-4.47,28.94-8.88,43.2-14,6-1.78,11.91-4.21,17.16-5.06-.72,0-2.46.46-4.24.5-5,.12-10-.17-15,.19-90.2-.21-180.38,0-270.55-.07-2.38,0-4.81-.59-7.19,0-.43,2.11,1.16,3.13,1.82,4.54C118.28,65,121.4,65.81,121.53,68.65Z"/><path class="cls-1" d="M27.57,21.69l1,1a11.41,11.41,0,0,0,4,4h0c1.2.84,2.58.5,3.88.51q53.13,0,106.25,0c1.3,0,2.67.34,3.87-.51C162,19.41,178,13.44,193.94,7.48a10.34,10.34,0,0,1,3.86-.74c15.62.63,31.16-1.61,46.78-1.06a49.25,49.25,0,0,1,20,5c.18,1.19-.65,1.57-1.53,1.9-2.73.38-5.24-.58-7.74-1.39a39.87,39.87,0,0,0-18.09-1.45c-8,1.09-16.23.25-24.36.36-2.48,0-5-.19-7.39.68-14.83-.84-27.08,7.21-40.31,11.84a85.9,85.9,0,0,0-16.44,7.23,10.8,10.8,0,0,1-5.79,1.23q-54.5.06-109,0c-6.14,0-7.58-1.77-7.83-8.83A1,1,0,0,1,27.57,21.69Z"/><path class="cls-1" d="M146.56,26.68c-1.47,1.65-3.42,1-5.16,1q-51.84.06-103.67,0c-1.74,0-3.7.66-5.17-1Z"/><path class="cls-1" d="M23.56,69.74a2.14,2.14,0,0,1-2,1c-6.76-3.91-13.72-7.62-16-16a2.07,2.07,0,0,1,1.3-.51,2.33,2.33,0,0,1,1.73.88C11.76,60.57,16.83,64,22,67.33A3.21,3.21,0,0,1,23.56,69.74Z"/><path class="cls-1" d="M5.55,36.69c1.51-5.89,5.62-9.51,10.66-12.4,1.86-1.07,3.57-2.4,5.34-3.6,1-.72,1.82-.53,2.31.65,0,.33,0,.75-.26.93A131.79,131.79,0,0,0,6.87,37.21,2.14,2.14,0,0,1,5.55,36.69Z"/><path class="cls-1" d="M5.55,36.69l1.07,0c1,1.63.42,3.44.63,5.17a20,20,0,0,0-.1,7.48c-.21,1.77.68,3.65-.53,5.31l-1.07,0A33.84,33.84,0,0,1,5.55,36.69Z"/><path class="cls-1" d="M263.54,11.7c.34-.34.69-.68,1-1a40.93,40.93,0,0,1,9,4l-.53.52c-2.93,1.28-5.23-.93-7.84-1.4C264.31,13.37,263.23,13.08,263.54,11.7Z"/><path class="cls-1" d="M23.56,21.64a2.17,2.17,0,0,0-2-1c2.34-1.63,4.4-1.59,6,1h-1A5.83,5.83,0,0,1,23.56,21.64Z"/><path class="cls-1" d="M273.57,14.68c2.33.38,4.89-.89,7,1h0c-2.42.29-5.21,3.14-7-1Z"/><path class="cls-1" d="M32.57,26.69a4.15,4.15,0,0,1-4-4A10.36,10.36,0,0,1,32.57,26.69Z"/><path class="cls-1" d="M426.62,56.74l-1.06-2c1.87-1.94,4.31-1.49,6.6-1.5,15.66,0,31.33,0,47-.05,2.54,0,6,.92,7.12-2.06a17.22,17.22,0,0,0-.12-12.22c-.46-1.26-1.86-1.24-3-1.43a42.86,42.86,0,0,0-7-.26q-221.44,0-442.88,0c-2.15,0-4.34.31-6.45-.43a2.61,2.61,0,0,1-1.92-3A2.12,2.12,0,0,1,26,32.27a4.31,4.31,0,0,1,1.89-.11c36.53.09,73.06,0,109.59,0a13.66,13.66,0,0,0,5.84-.92,3.59,3.59,0,0,1,1.81.16c4.65,1.46,9.41.61,14.14.67,28.9.28,57.79-.19,86.69.24a11.38,11.38,0,0,0,4.39.18c3-.51,6-.06,9-.41,20.36.26,40.71-.06,61.06,0,7,.53,14.09-.13,21.14,0,17.65-.06,35.29-.12,52.93.45,1.63-.68,3.51.06,5.1-.88,4.21,1.6,8.89,0,13.06,1.9a7,7,0,0,1-4.46.52c2-.16,5.14.55,8.31-.39,22.95,0,45.9,0,68.85-.13,4.29,0,5.49,1.62,5.33,5.61-.24,5.81,0,11.64,0,17.46Z"/><path class="cls-1" d="M399.53,31.72c-1.09,1.45-2.7.8-4.1,1-9.76,1.14-19.46-.41-29.18-.88-6.76-.33-13.53-1.19-20.27-2.05-7.09-1.48-14.42-1.32-21.47-3.06-15.89-2.4-31.84-4.44-47.75-6.69-3.51-.5-7.36,0-10.33-2.66-.08-1.55,1.1-1.89,2.2-2.3,3.32.4,6.61,1,9.9,1.61,5.46,1.92,11.25,2.05,16.89,2.91,15.8,2.4,31.64,4.51,47.47,6.68,6,.83,12.08,1.7,18.15,2.25C373.87,29.7,386.71,30.67,399.53,31.72Z"/><path class="cls-1" d="M278.54,16.7c-3.4.38-6.68-.56-10-1-1.4.53-2.95,1.15-4-.26-.9-1.16,0-2.12,1.06-2.79,2.76.33,5,2.62,8,2,2.11,1.91,4.67.61,7,1A2.1,2.1,0,0,1,278.54,16.7Z"/><path class="cls-1" d="M416.45,33.75c-3.18,1.88-6.53.64-10.64.88,2.69-1.56,4.81-.61,6.78-1Z"/><path class="cls-1" d="M293.6,90.72a16,16,0,0,1-8.55,6.37c-4.83,1.67-9.4,4.11-14.2,5.88-13,4.78-25.64,3.14-38.72-.73-10.08-3-16.3-10.22-23.55-16.56-.31-.94.26-1.28,1-1.49,3.18.46,4.56,3.34,6.8,5.07,4.67,6.44,11.64,8.86,18.88,10.83,12.31,4.72,24.52,5.07,36.68-.55,6.3-2.92,13.21-4.55,18.85-8.89a2.07,2.07,0,0,1,2.75,0Z"/><path class="cls-1" d="M191.57,89.76c-5.38,1.15-10.31-1.19-15.38-2.14-12.76-2.41-25.43-5.25-38.16-7.83-2.72-.55-5.07-1.45-6.41-4.06,4.24-.7,7.9,1.63,11.85,2.41,13.5,2.68,27.06,5.13,40.48,8.22,5.33,1.23,9.75-.5,14.33-2.53,2.68-1.19,5.07-3.3,8.33-2.79,1.26.91,2.55,1.82-.05,2.66C200.94,84.19,196.87,88.51,191.57,89.76Z"/><path class="cls-1" d="M206.56,83.7c1.06-.69,1-1.38,0-2.06.84-3,3.18-2,5.16-1.94,2.69.86,5.47.46,8.21.65,1.84.13,4.05-.36,4.85,2.17-1.7,2-4.07,1.35-6.21,1.53-3,.23-6.07-.81-9,.64l-1,1Z"/><path class="cls-1" d="M211.61,80.72c-1.71.18-3.61-.65-5.07.92-.17,0-.37,0-.49.08-12.61,9.26-26,5.71-39.42,2.56-9.34-2.19-18.8-3.88-28.25-5.57-2.58-.46-4.18-2.76-6.76-3-3.58-2-7.28-3.93-10.09-7.08-1.64-1.68-4-2.63-4.91-5-1.34-3.82.12-6.05,3.94-6.94h274c1.65.9,4.06.93,4.41,3.38s-2.39,2.31-3.43,3.63c-13.63,5.65-27.9,9.39-41.92,13.85-8.65,2.75-17,6.85-26.19,7.6-11,.89-21.82,3-32.88,2.51l-.6-.46a9,9,0,0,1-1.3-2.63c-3.15-8.51-3.16-8.59-11.89-7.45a60,60,0,0,0-8.69,1.58,29.57,29.57,0,0,1-5,.39,121.14,121.14,0,0,1-26.13,2,14.72,14.72,0,0,0-4.88.75C227.88,82.75,219.79,80.82,211.61,80.72Z"/><path class="cls-1" d="M25.55,32.66c0,1,0,2,0,3a3.3,3.3,0,0,1-.73,2.29C20,43.29,21,48.54,25,53.76c.47.73.92,1.48,1.34,2.25A33,33,0,0,0,28.2,59.3c.38.74.94,1.45.33,2.33l0,0c-.52.86-1.07,1.67-2.27,1-2.34-3-4-6.48-5.9-9.79a13.08,13.08,0,0,0-2.15-3.34c-2.29-2.13-5.34-2.82-7.73-1.18s-1.14,4.37.13,6.7c2.51,4.58,6.64,7.3,10.81,10.07,2,1.32,3.39.6,4.86-.66a1.5,1.5,0,0,1,1.33.19c-.54,2.33.22,5.69-4,5-6.59-4-12.72-8.45-17-15.06-.28-1.66-1.38-3.31-.07-5q0-4,0-8a8.41,8.41,0,0,1,.08-5c4.22-6.63,10.37-11.09,17-15.07a2.65,2.65,0,0,1,3,.05c2.23,8,2.23,8,10.5,8,30.61,0,61.22-.13,91.82.07,9.83.06,19.1-.49,28.31-5.13,11.07-5.57,23-9.41,34.55-14,4.52-1.81,9.21-.54,13.81-.91a1.07,1.07,0,0,1-.21,1.41c-17.41,1.4-32.16,10.7-48.18,16.23-4.74.53-7.63,5.33-12.54,5.49l-.09-1.13a74.86,74.86,0,0,1-11.4.52H33.92a31.45,31.45,0,0,0-7.44.49h-1a1.66,1.66,0,0,1-.51-.83c-.46-2,1.25-4.9-.89-6-2.34-1.24-4,1.65-6,2.65-3.53,1.79-5.7,4.92-7.78,8.16-1.42,2.22-2.14,4.58.42,6s5.41,1.74,7.49-1.2c1.73-2.43,2.93-5.2,4.79-7.54C23.7,33.14,24.34,32.29,25.55,32.66Z"/><path class="cls-1" d="M28.53,61.63l-1-1.91c1.69-1.82,3.94-1.51,6.07-1.52q35.88,0,71.75,0c2.15,0,4.36-.18,6.15,1.41l2,2.08Q71,61.68,28.53,61.63Z"/><path class="cls-1" d="M26.64,62.66l1.87-1c0,1.1.24,2.26-.91,3h-1A1.41,1.41,0,0,1,26.64,62.66Z"/><path class="cls-1" d="M24.56,54.7c-1.48-2.38-3-4.74-4.43-7.13a3.57,3.57,0,0,1,.19-4.21c1.87-2.5,2.56-5.78,5.22-7.72l371.27,0c28.82,0,57.63.07,86.45-.08,4,0,5.85.89,5.39,5.21a50,50,0,0,0,0,9.48c.31,3.63-1.23,4.48-4.61,4.46-19.49-.12-39,0-58.46,0l-315,0c-2,1.36-4.37,1.39-6.71,1.38H31.26C28.91,56.11,26.59,56.11,24.56,54.7Z"/><path class="cls-1" d="M427.56,59.69c.58,4,3.14,7,5.22,10.07a11.38,11.38,0,0,1,1.83,9.69c-1.58,7.09-2.77,14.26-4.1,21.4-.67,3.58-3.83,3.59-6.22,3.72-13.55.73-26.85,3.51-40.36,4.56a5.45,5.45,0,0,1-3.31-.41l-36-20c-.57-3,0-5.53,3-7,6.66-3.38,14-4.84,21-7a7.05,7.05,0,0,1,7.28,3.87c.52,10.22,6.13,17,16.25,19.9a5.76,5.76,0,0,0,3.85-.35c5.11-2,10.25-3.88,15.25-6.12,4.69-2.09,7.1-9.32,4.62-13.93-1.81-3.36-4-6.52-5.86-9.83-1.34-2.12-1-4.35-.45-6.6,3.83-2.31,8.35-2.8,12.36-4.62,3.08-1.41,3.77,1.8,5.66,2.65Z"/><path class="cls-1" d="M293.56,90.67c-8.44,6-18.12,9.82-27.81,12.59-10.27,2.94-21.25,3.48-31.23-2.52-2.92-2-6.44-2.43-9.6-3.81a19.17,19.17,0,0,1-8.15-7.08c-1.94-2.84-1.1-5.71,2.12-6.09,10.61-1.28,21.34-3.63,31.79,1,2.72,1.1,5.29,2.72,8.4,2.56,1.75,0,3.51,0,5.26-.09,2.42-.53,4.92-.69,7.26-1.54,2.85-1,5.35-2.29,3.3-6.08-.89-1.64-.14-2.44,1.67-2.45.65,0-.16.12.5,0,12.58-2.07,12.58-2.07,17.53,10.49h0C294.23,88.68,293.89,89.67,293.56,90.67Z"/><path class="cls-1" d="M409.53,61.66c2.15,1.68-.53,4.18,1,6-.83,1.65-2.47,2.06-4,2.6-8.56,3-17.18,5.73-25.77,8.6-1.67.56-3.46,1.38-5.14-.09l-7-4C382.1,69.92,395.76,65.63,409.53,61.66Z"/><path class="cls-1" d="M111.52,59.61l-84,.11-1.9-2.94c1.51-1.47,3.43-1.07,5.22-1.07q36.72,0,73.44,0c1.8,0,3.7-.33,5.3.92A3.06,3.06,0,0,1,111.52,59.61Z"/><path class="cls-1" d="M109.6,56.62l-83.95.16-1.09-2.09,86,0Z"/><path class="cls-1" d="M395.56,63.71c4-2.94,2.1-5.06-1-7h21.9c.06.26.13.51.19.77Z"/><path class="cls-1" d="M347.56,81.68c-2.26,1.79-1.35,4.94-3,7l-7-3.56A25.21,25.21,0,0,1,347.56,81.68Z"/><path class="cls-1" d="M120.55,56.7c-2.89,1.42-3.66,4-3.94,6.94-1.39-2-2.93-3.91-3.5-6.5C115.71,56.22,118.16,56.87,120.55,56.7Z"/><path class="cls-1" d="M205.56,10.64v-1c.41-.27.83-.81,1.22-.78,18.24,1.33,36.81-4.34,54.78,2.61a7.57,7.57,0,0,0,2,.2,2.2,2.2,0,0,0,2,1c-1.88,3.84,1.25,2.76,3,3a2.06,2.06,0,0,1-2,1,29.55,29.55,0,0,0-11.93,11.4c-1.38,2.07-2.51,4.39-5,5.49-.63,1-1.31,1.24-2.08.14,1.9-6.18,6-11,10.1-15.7.88-1.14,2.34-1.79,3.07-3.5a54,54,0,0,0-7.07-2.32c-12-1.83-24.09-1.06-36.14-.44C213.5,12,209.34,13.34,205.56,10.64Z"/><path class="cls-1" d="M6.54,41.7a7.77,7.77,0,0,1,0,8A7.59,7.59,0,0,1,6.54,41.7Z"/><path class="cls-1" d="M205.56,10.64c13.67-.76,27.35-1.16,41.05-1,3.15,0,6.19.39,9,2s3.24,4.09,2.93,7c-4.36,4.51-6.95,10.3-10.92,15.09l-89,0c-4.53-2.06-4.69-2.63-2-7,9.24-4.92,19.36-7.73,28.81-12.1A39.33,39.33,0,0,1,205.56,10.64Z"/><path class="cls-1" d="M253.58,27.72c3.35-4.82,6-10.44,13-11,5.92,2.07,12.19,2,18.29,2.94,13,2,26,3.62,39,5.42.27,0,.5.41.74.62a71.89,71.89,0,0,0,7.92,2.18,2.75,2.75,0,0,1,2.44,2.69c0,1.76-1.43,1.89-2.71,2.25-3.83,1.09-7.84-.46-11.64.88h-62C255.5,32.85,253.44,31.2,253.58,27.72Z"/><path class="cls-1" d="M26.5,32.67c.86-1.79,2.43-2,4.19-2q55.59,0,111.19,0a2.86,2.86,0,0,1,2.67,1,9.47,9.47,0,0,1-6.43,2.08q-53.48-.1-106.95-.07C29.57,33.68,27.79,34.23,26.5,32.67Z"/><path class="cls-1" d="M345.61,28.65c13.68.74,27.28,2.27,40.88,3.8,2.95.33,6,.2,8.94.29-1.48,1.63-3.43.92-5.16.92-16.23.05-32.47,0-48.7,0C342.24,31.45,340.46,27.27,345.61,28.65Z"/><path class="cls-1" d="M345.61,28.65c-.87.32-2.76-.58-2.25,1.41s-1,2.51-1.78,3.6h-21c3-2,6.4-.35,9.49-1.13,1.45-.37,3.79-.17,3.94-2.11s-2.09-1.72-3.39-2.18c-2-.7-4-1.16-6.06-1.75-.1,0-.21-.26-.21-.39s.14-.29.21-.43C331.54,27,338.75,26.6,345.61,28.65Z"/><path class="cls-1" d="M156.52,26.64c-.47,2.68-1.48,5.5,2,7-4.63-.42-9.38,1-13.91-.88C148.62,30.78,151.55,26.75,156.52,26.64Z"/><path class="cls-1" d="M253.58,27.72a14.69,14.69,0,0,0,5,6l-8.88-.1Z"/><path class="cls-1" d="M250.59,85.66c-9.35-3.64-19.11-1.41-28.67-1.91-2-.11-4.16.64-5,2.65s.64,3.48,1.8,4.89c3,3.61,7.2,5.15,11.4,6.8,1.55.6,3.94.14,4.39,2.66-7.7-1.29-14.5-4.13-18.95-11-2.64-4.54-2.54-4.91,2-7l7,0c4.89-2.91,10.42-.68,15.53-1.91a17.61,17.61,0,0,1,4-.05c1.5,0,3,0,4.49,0s3.35-.36,4,1.29S251.87,84.76,250.59,85.66Z"/><path class="cls-1" d="M217.54,82.71c-3,1.67-3.19,4.16-2,7l-6-5c-.31-1-.74-2,1-2Z"/><path class="cls-1" d="M244.52,81.64c-6.64.47-13.37-.84-19.94,1-2.28-1.88-5-.58-7.46-1-1.84-.28-3.91.7-5.51-1l24.92,0C239.25,80.56,242.18,78.66,244.52,81.64Z"/><path class="cls-1" d="M255.13,59.68q63,0,125.92,0c2.33,0,5.95-1,6.43,1.78.38,2.19-3.22,2.75-5.4,3.46q-23,7.5-46,15c-11,3.57-22.6,2.86-33.88,4.49-3.14.45-5.52-2.35-6.84-5.63-2.89-7.22-4.07-7.18-11.68-6.47-15.15,1.42-30.09,5-45.45,4.42-9.62-.35-19.2,1.24-28.86,1.07-5-.09-9.58,2.67-13.94,5a17,17,0,0,1-11.61,1.65c-13.64-2.66-27.18-5.87-40.84-8.41-8-1.48-13.48-6.92-20-10.75a2.91,2.91,0,0,1-1.28-3.48c.37-1.55,1.54-2.08,3-2.13s2.66,0,4,0Z"/><path class="cls-1" d="M244.52,81.64c-2.47-1.91-5.34-.49-8-1,.57-.3,1.14-.87,1.7-.86a164.78,164.78,0,0,0,29.43-2c1.64.57,3.28,1,4.87-.13,5-2.28,10.59-1.4,15.78-2.8,1.86-.5,2.55,1.24,3.1,2.58,1.37,3.33,2.89,6.62,3.17,10.29-2.21-1.8-2.65-4.62-3.32-7-1.19-4.18-4-4.59-7.18-3.81a50.79,50.79,0,0,1-8.67,1c.35,2,3.19,3.08,1.81,5.42s-3.81,3.57-6.41,4.21c-2.06.51-4.18.81-6.27,1.2-.58-.4-1.33-.66-1.17-1.6,2.21-2.49,5.56-1.74,8.24-2.9.89-.39,2.11-.69,1.95-1.89s-1.45-1.21-2.39-1.21c-5.47,0-11.13-.83-16,3,1.57,2.28,4.7.69,5.67,3.17-.17,1.34-1.63.71-2.19,1.45a13.11,13.11,0,0,1-8-3l1.36-4C249.29,81.64,246.91,81.64,244.52,81.64Z"/><path class="cls-1" d="M272.53,77.63c-1.57,2-3.22,1.28-4.87.13Z"/><path class="cls-1" d="M26.64,62.66c0,.68,0,1.36,0,2-.84,4-2.58,4-5.64,1.74-4.36-3.26-8.82-6.14-11.77-11.1-2.12-3.57-2-7.37.7-8.64,2.27-1.06,7-1.7,9.24,2C21.84,53.25,25.06,57.53,26.64,62.66Z"/><path class="cls-1" d="M25.55,32.66c-2.78,2.92-4.24,6.7-6.46,10-2.44,3.61-6.08,2.35-9,1.49a4.08,4.08,0,0,1-2.07-5.88c2.11-3.49,3.81-7.42,7.64-9.65,1.86-1.08,3.5-2.56,5.39-3.58,1.24-.67,2.46-2.7,3.8-1.7s1.84,3.14,1.66,5a32,32,0,0,1-1,4.34S25.55,32.66,25.55,32.66Z"/><path class="cls-1" d="M255.79,38.71H476.72c6.66,0,9.18,2.1,8.82,7.22-.25,3.53-2.17,5.75-5.66,5.67-19.12-.42-38.27,1.19-57.37-.84a42.16,42.16,0,0,0-4.5-.06c-100,0-199.94-.43-299.91.28-27.78.2-55.58.22-83.36.67-5.86.09-10-2.43-10.13-5.94-.15-4.21,3.91-7,10.23-7Z"/><path class="cls-1" d="M364.81,78.84c4.82-.43,6.34,1.42,7.06,4.35,1.76,7.2,5,13.22,12.31,16.39,1.91.83,5,2.25,3.56,4.89-1.32,2.37-4.69,1.71-6.84.71-5.4-2.5-10.61-5.43-15.84-8.3-4.2-2.31-8.32-4.78-12.46-7.2-1.45-.85-3-1.77-2.84-3.7s1.63-2.75,3.31-3.3C357.45,81.26,361.84,79.81,364.81,78.84Z"/><path class="cls-1" d="M408.56,103.69a16.48,16.48,0,0,1-2.51,0c-1.68-.32-4.49,1-4.82-1s2.15-3.32,4.3-4.1a51.89,51.89,0,0,0,7.76-3.35c6.43-3.62,8.87-12.32,5.45-19.07a47.35,47.35,0,0,0-3.54-6c-1.79-2.53-2.7-5.19-.51-7.69s7.91-2.51,10,0c4.51,5.45,9.3,10.86,7,19-1.2,4.27-1.25,8.85-2.37,13.15-1,3.73-2.72,7.13-7.51,7.49C417.21,102.49,412.73,104,408.56,103.69Z"/><path class="cls-1" d="M375.6,78.73l34.94-11.1c2.2,2.09,3.31,4.91,4.9,7.41,5.22,8.19,2.84,15.65-6.1,19.23-1.23.49-2.49.9-3.7,1.41-13.17,5.54-13.17,5.55-25.18-2C377.09,91.51,374.22,82.68,375.6,78.73Z"/><path class="cls-1" d="M235.39,85.7a24.94,24.94,0,0,1,16.11,4.14c8.91,6,22.8,2.64,29.4-5.76,1.62-2.06,3.48-3.43,5.88-1.49s2.45,4.53.37,7a3.48,3.48,0,0,1-1.07,1c-8.92,3.92-17.44,8.94-27.39,10.08-10.57,1.21-20.43-1.54-30-5.51a16.52,16.52,0,0,1-4.71-2.74c-1.39-1.24-3.85-2.36-3-4.69.79-2.17,3.19-2,5.2-2Z"/><path class="cls-1" d="M258.6,88.65a2.16,2.16,0,0,1,2-1,2,2,0,0,1,2.9,0l1,1Z"/><path class="cls-1" d="M258.51,18.63c-1-2.32-2-4.63-2.93-6.95a6.45,6.45,0,0,1,1.86.5c1.67,1.05,4.75-.46,5.21,1.67C263.2,16.36,259.89,17,258.51,18.63Z"/><path class="cls-1" d="M205.2,30.68H171.78c-2.47,0-6.08.17-6.49-2.09-.48-2.65,3.12-3.19,5.4-4.07a96,96,0,0,0,11-4.5c10-5.38,20.94-5.68,31.83-6.27,9.26-.5,18.56.6,27.83-.9,4-.65,9-.66,11.41,3.05,2.68,4-2.58,6.13-4,9.23-1.94,4.21-5.51,5.71-10.18,5.63C227.48,30.54,216.34,30.68,205.2,30.68Z"/><path class="cls-1" d="M312.13,28.86c-4.2,1.09-7.28,1.86-10.58,1.84-11.82-.07-23.65,0-35.47-.05-2.82,0-6.48,1-7.11-3.33-.33-2.33,5.17-6.89,8.09-6.37C280.89,23.39,295,24,308.69,27.29A23.64,23.64,0,0,1,312.13,28.86Z"/><path class="cls-1" d="M250.62,62.69H366c1.17,0,2.33,0,3.5,0,.94,0,2.24-.28,2.46,1s-.87,1.6-1.87,1.87c-13.45,3.65-26.28,9.32-39.92,12.29-8.91,1.94-18,2.36-27.1,2.83-2.83.15-4-1.11-5-3.66-2.87-7.2-5.69-9.1-13.39-8.28-12,1.28-23.87,3.5-35.87,4.52-9.09.78-18.29.43-27.44.36-7.72-.06-15.51.19-22.23,4.15-8.11,4.77-16.09,3.43-24.44,1.51-10.47-2.41-21-4.66-31.58-6.52-5.37-.94-9.36-4.07-13.65-6.83a2.74,2.74,0,0,1-1.2-2c0-.84,1.06-1.19,1.92-1.23,1.33-.06,2.66-.05,4-.05Q192.42,62.68,250.62,62.69Z"/><path class="cls-1" d="M263.51,87.65h-2.9c-1.33-1.45-3.11-.82-4.7-1-1.21-.12-2.52-.29-2.9-1.51-.49-1.58.86-2.46,2-3.06a21,21,0,0,1,10.51-2.41c2.16,0,4.31,0,6.47,0,1.66,0,3.83.16,4,2s-1.76,3.22-3.48,3.7C269.54,86.27,266.34,86.18,263.51,87.65Z"/><path class="cls-1" d="M21.51,58.33c0,1.4-.21,2.74-1.91,3-2.29.37-7.72-5.2-8-8.13-.16-1.94.55-3.26,2.66-3.46C17,49.51,21.33,54.67,21.51,58.33Z"/><path class="cls-1" d="M22.43,33.23a12.33,12.33,0,0,1-6.31,8.66c-1.24.66-2.45,1-3.7,0s-2.21-2.24-1.72-3.86c1.23-4.12,3.23-7.76,7.68-9.12C20.72,28.24,22.81,28.52,22.43,33.23Z"/><path class="cls-1" d="M373.09,94.78c.28,1.93-.91,2.14-2.07,1.54-5.15-2.65-10.28-5.34-15.29-8.24-1.56-.9-1-2.5.44-3.09a96.21,96.21,0,0,1,9.35-3.19,2.44,2.44,0,0,1,2.83,1.58C370,87.17,371.54,91,373.09,94.78Z"/><path class="cls-1" d="M407.11,101.69c1-2.89,3.15-3.27,4.84-4.16,9.16-4.81,12.17-14,7.48-23.08-1-1.91-2.19-3.71-3.27-5.57s-2.23-3.88.39-5.56c2.37-1.52,4.57-2.46,7.15,0,7.48,7,7.71,15.47,5.66,24.7-2.8,12.63-4,13.73-17.35,13.72Z"/><path class="cls-1" d="M394.47,98.65c-6.87,0-18.44-10.81-18.58-16.56-.05-1.78,1.25-2.08,2.55-2.51q14.18-4.71,28.34-9.48c1.14-.38,2.5-.83,3.34,0,3.36,3.28,6.74,7.33,6.78,11.74,0,4.14-1.16,9.13-7,10.81C404.41,94.25,399.14,96.8,394.47,98.65Z"/><path class="cls-1" d="M257.63,96.05c-10.8,2.2-19.75-.61-28.54-4.34-.76-.32-1.77-.45-1.78-1.44,0-1.3,1.16-1.58,2.12-1.51,6.42.45,13.36-2,18.84,3.7C250.44,94.73,254.06,94.21,257.63,96.05Z"/><path class="cls-1" d="M14.86,40.62c-2.17.07-2.5-1.4-2.23-3,.55-3.23,3.22-4.85,5.58-6.57.88-.65,1.86-.15,2.23,1.08C21.14,34.45,17.14,40.56,14.86,40.62Z"/><path class="cls-1" d="M414,99.36c2.17-3.61,5.52-5.46,7.2-8.86,3.58-7.26,2.36-13.74-2.34-20-1.49-2-3.54-4.14-.23-6.21,2.89-1.81,4.73.32,6.23,2.32a20.69,20.69,0,0,1,3.33,19.68c-.45,1.42-.77,2.88-1.12,4.33C424.84,99.78,424.17,100.25,414,99.36Z"/><path class="cls-1" d="M411.57,76.68c3.78,4.38,3.88,7.26.37,11.14-5,5.49-16.63,9-22.5,6.7-1.52-.59-3.15-1.11-3.89-2.82l.53-.43c1.92-.52,3.51.57,5.12,1.23a7.3,7.3,0,0,0,7-.76c3.7-2.27,8.13-3.11,11.49-6,3.2-2.38.69-5.74,1.47-8.53Z"/><path class="cls-1" d="M385.55,91.7c-3.59-.89-5-3.19-5.06-6.86-.05-3.86,2.61-4.48,5.35-5.37,6.13-2,12.23-4.1,18.36-6.12,3.44-1.13,6.23-.68,7.37,3.33l0,0c-9.39-2.11-17.27,2.9-25.6,5.6-2.57.83-4,3.07-1.64,5.87.81,1,1.87,2,1.25,3.51Z"/><path class="cls-1" d="M410.56,86.69c-3.53,3-8.05,3.9-12,6-5.47,2-10,.12-14-3.56-3.32-3.07-3.07-5.88,1.1-7.53,6.11-2.4,12.41-4.38,18.71-6.26a5.37,5.37,0,0,1,6.19,2.13C412.6,80.48,412.81,83.62,410.56,86.69Z"/><path class="cls-1" d="M410.56,86.69c.32-1.78,1-3.59.88-5.34-.3-4-3.89-6.35-7.88-5.12C398,77.94,392.47,79.72,387,81.75c-4.94,1.84-5.17,4.28-1.14,7.76,3.72,3.21,8.12,3.44,12.68,3.18-4.67,4.06-8.7-.17-13-1-.61-.77-1.18-1.57-1.83-2.31-3-3.44-2.8-6.57,1.3-8.2,6.25-2.49,12.72-4.46,19.19-6.35a7.4,7.4,0,0,1,7.33,1.88C412,80.1,414.49,83.72,410.56,86.69Z"/><path class="cls-1" d="M395.65,91a20.64,20.64,0,0,1-4.28-1c-2.13-1-5.44-1.54-5.27-4.46.14-2.5,3.4-2,5.21-2.9,4-2,8.45-2.75,12.62-4.26,2.3-.84,4-.5,5.05,1.52s1,4.31-1,5.8C404.17,88.48,399.7,89.64,395.65,91Z"/></g></g></svg>