<svg xmlns="http://www.w3.org/2000/svg" viewBox="0 0 342.08 176.46"><defs><style>.cls-1{fill:#fff;stroke:#000;stroke-miterlimit:10;}</style></defs><title>Asset 1</title><g id="Layer_2" data-name="Layer 2"><g id="Layer_1-2" data-name="Layer 1"><path class="cls-1" d="M327.54,112c0,.66,0,1.32,0,2a1.54,1.54,0,0,1-1.4.16c-4.5-4-6.31-9.72-9.18-14.72q-10.2-17.73-20-35.72c-2.43-4.49-6.92-6-10.83-8.45-12.92-8-26.77-14.07-40.87-19.61a13.1,13.1,0,0,1-2.62-1.44,14.93,14.93,0,0,0-4.8-2.4,5.5,5.5,0,0,1-1.2-.69,12.45,12.45,0,0,1-2.45-2.52,5.54,5.54,0,0,1-.6-1.28c-.65-2.73,0-5.55-.64-8.28a12.28,12.28,0,0,1-.36-1.32A6.11,6.11,0,0,0,227.71,12c-.46-.11-.9-.25-1.34-.4-3.6-.25-7.11-1.09-10.68-1.49-3.42-.93-6.07-3.28-9.08-5-8.1-2.2-15.3-1.12-21,5.68a7.43,7.43,0,0,1-1.63.66c-2.87,1.21-5.9,1-8.89,1q-52.49,0-105,0a35.11,35.11,0,0,0-7.46.32C50.53,15.3,38.3,17.42,26,19.32,20,20.26,16.25,22.91,14.33,29c-1.66,5.25-2.23,11.08-6.28,15.4A1.89,1.89,0,0,1,6.5,44c1.14-7.24,4-14,6.27-20.89,1.47-4.44,5.86-6.21,10.25-7C47,11.9,70.9,8,95.51,8.8c27.6.94,55.27.18,82.9.26,3.53,0,6.41-.76,9-3.35,5.14-5.18,15.85-7,22-3.09a38.73,38.73,0,0,0,16.55,5.83c8.37,1.14,10.36,3.55,10.4,13.22,0,5.34,1.91,7.53,6.66,9.24A241.38,241.38,0,0,1,268.2,41.52c9.35,4.64,18.33,10,27.37,15.25a10.76,10.76,0,0,1,3.73,4c7.46,13.33,14.77,26.74,22.16,40.11,1.33,2.41,1.15,5.67,4.06,7.18C326.61,109.17,326.77,110.76,327.54,112Z"/><path class="cls-1" d="M240.53,129c-1.9-2.71-3.73-5.47-5.73-8.1-2.16-2.85-4.72-4.11-8.1-1.67a39.13,39.13,0,0,1-4.37,2.39c-8,4.36-8.46,6-7.15,15.09,1.14,8-1.94,12.93-10.2,13.16-14.62.42-29.27.29-43.9,0-6.1-.11-10.67-4.29-15.46-7.5a128.74,128.74,0,0,1-12.83-9.36c-7.28-6.3-16.23-6.87-25.06-8-10.14-1.32-20.28-2.69-30.44-3.81-2.46-.27-6.13-1.63-7.24,1s2,5,4.12,6.76c2.26,1.91,5.3,2.74,7.37,5a.92.92,0,0,1-.32,1.38c-6.28-.36-13.85-6.45-15.36-12.34-1-3.84,1.24-6.23,5.65-5.77,6.59.7,13.15,1.68,19.74,2.46,8.89,1.06,17.75,2.34,26.66,3.27,6,.63,11,3.37,15.77,6.87,6,4.41,12,8.84,18.36,12.81a10.17,10.17,0,0,1,3.6,2.19,6.56,6.56,0,0,0,5,1.72q22.2,0,44.41,0a6,6,0,0,0,3.8-.93c.57-.57,1.14-1.16,1.75-1.68,3-3.47,1.52-7.65,1.44-11.44-.11-5.2,1.45-9,6.06-11.53a8.18,8.18,0,0,1,1.26-.85c1.74-.88,3.51-1.69,5.2-2.67,6.2-3.61,7-3.5,12.16,1.58a18.78,18.78,0,0,1,2.26,3.4,18,18,0,0,0,2.52,3.67,4.26,4.26,0,0,1,.58,1.17,2.28,2.28,0,0,1-.44,1.87A.86.86,0,0,1,240.53,129Z"/><path class="cls-1" d="M240.53,129h1c3.39,1.2,5.51,4.71,9.34,5.1a14.92,14.92,0,0,1,3.31,1.43c10,4.94,20.69,8.2,31,12.44,4.61,1.9,9.29,3.64,13.95,5.43a13.59,13.59,0,0,0,10.2.06c7.59-3,15.26-5.77,22.67-9.17,6.91-3.17,7.55-5.3,4.25-12-2.13-4.33-4.86-8.34-6.91-12.72-.67-1.44-2.08-2.78-.77-4.56,3.08.61,3.07,3.66,4.3,5.66,2.77,4.52,5.49,9.1,7.84,13.84,2.06,4.17.42,9.33-3.67,11.09-9.28,4-18.7,7.67-28.11,11.35-3.92,1.53-7.79.44-11.51-1q-24.31-9.45-48.58-19C245,135.48,241.92,133.12,240.53,129Z"/><path class="cls-1" d="M328.54,115c3.16,6,6.4,12,9.46,18,3,5.86,2.1,8.89-3.81,11.63a243.13,243.13,0,0,1-26.76,10.65,10.89,10.89,0,0,1-7.72-.35c-11.13-4.32-22.27-8.61-33.35-13-4.37-1.74-9.48-1.9-12.82-5.88,1.83-1.71,3.74-.9,5.58-.11,12.08,5.21,24.54,9.48,36.68,14.51,5.87,2.43,11.19,2.54,16.81,0,2.73-1.24,5.54-2.27,8.35-3.33a52.83,52.83,0,0,0,12.41-5c3.2-1.69,4.06-4.15,2.55-7.44-2.42-5.28-5.62-10.13-8.25-15.29-.87-1.7-2.56-3.23-1.11-5.41l1,0Q328,114.54,328.54,115Z"/><path class="cls-1" d="M53.53,168c-5.73-.1-8.88-4.71-13-7.57-11-7.64-17.65-18.44-22.24-30.82C15,120.68,11.13,111.9,7.52,103a3.13,3.13,0,0,1-.38-2.74,1.19,1.19,0,0,1,1.26-.43c4,3.81,4.24,9.53,7,14,3.57,8.21,7.68,16.2,10.76,24.6,3,8.13,9.33,13.1,15.65,18.19a22,22,0,0,1,4.63,4.46c1.06,1.79,2.76,2.8,4.5,3.83C52.08,165.65,53.88,166,53.53,168Z"/><path class="cls-1" d="M53.53,168c-2.25-2.55-6.48-2.49-8-6,1.31-1.06,2.51-.36,3.65.31,5.47,3.16,11.55,4.94,17.24,7.61,8.13,3.8,15.89.83,23.52-1.79,3.13-1.07,2.82-4.42,3.3-7.2.58-3.32-1.88-6.83.69-10,3.18,1.77,2.25,5.06,2.21,7.55-.07,3.9,1.22,8.38-2.61,11.52l-1,1c-1.85,1.1-4,1.19-6,2h0c-7,1.43-14,3.53-21,0h0c-3.92-1.84-8-3.26-12-5Z"/><path class="cls-1" d="M6.51,44h1c.22.25.61.55.56.79-1.26,6.7.18,13.69-2,20.26-1.62,4.8-2.19,9.35,1.42,13.54.87,1,2,2.14,1.88,3.42-.67,6,.67,12.19-1.84,18h0C4.6,96.45,6.08,92.2,5.85,88.23c-.14-2.39,1.42-4.86-.33-7.19-1.6-.88-2.92-2-3-4-.2-2.69-2.18-5.15-1-8h0c1-1.9.17-4.39,2-6h0c1.57-4.24-1.09-8.81,1-13A9.56,9.56,0,0,1,6.51,44Z"/><path class="cls-1" d="M93.53,170c2.71-6.33,3.54-12.66,0-19l-.58-.31a31.38,31.38,0,0,0-4.2-4c-1.94-1.87-3.22-4.23-4.8-6.37-.7-1.81-3-2.88-2.42-5.28,0-.35,0-.69,0-1,1.67,0,2.66,1.1,3.59,2.3,3,3.88,5.65,8,8.69,11.88,4.59,5.85,3.53,12.93,2.16,19.75A2.46,2.46,0,0,1,93.53,170Z"/><path class="cls-1" d="M5.52,81c2.13,1,1.64,2.55,1.45,4.53C6.49,90.38,5.5,95.3,7.53,100v3C4.24,98.78,5.09,93.62,5,88.87,4.89,86.39,5.44,83.67,5.52,81Z"/><path class="cls-1" d="M65.53,173c7,1.89,14,.74,21,0C79.53,175.28,72.53,178.3,65.53,173Z"/><path class="cls-1" d="M4.53,50c-.56,4.32,1.2,8.81-1,13C4.29,58.74.77,54.1,4.53,50Z"/><path class="cls-1" d="M53.53,168a27.19,27.19,0,0,1,12,5A27.36,27.36,0,0,1,53.53,168Z"/><path class="cls-1" d="M1.53,69c.06,2.71,1.51,5.24,1,8C1.17,74.51-.7,72,1.53,69Z"/><path class="cls-1" d="M86.53,173a9.42,9.42,0,0,1,6-2C91,173,88.78,173.12,86.53,173Z"/><path class="cls-1" d="M3.53,63c-.69,2-.51,4.28-2,6C1.71,66.88.77,64.34,3.53,63Z"/><path class="cls-1" d="M327.54,112a5.47,5.47,0,0,1-2-4C327.35,108.8,327.63,110.33,327.54,112Z"/><path class="cls-1" d="M326.54,114c2.32,6.25,6.31,11.63,9.26,17.55,3.8,7.63,3.26,9.43-4.48,13-3.13,1.45-6.2,3.23-9.78,3.45a1.19,1.19,0,0,1-.3-.85c0-.31.06-.46.11-.46,2.7-2.88,6.64-3.25,9.95-4.91,2.95-1.48,4.93-3.28,3.17-6.87-12.82-23.12-25.81-46.14-38.63-69.26-3-5.41-8.55-7.15-13.23-10.17-13.37-8.62-28.25-14.07-42.83-20.06-6.51-2.67-9.32-6.92-9.53-13.6-.2-6.36-1.83-8.06-8.38-8.47a24,24,0,0,1-11.64-4C202.84,4.69,197,5.07,190.28,10.5a17.4,17.4,0,0,1-7.51,3.8c-38.19.36-76.36.1-114.54.14a7.27,7.27,0,0,1-4.32-.91,1.19,1.19,0,0,1-.27-1.71,21.25,21.25,0,0,1,5.46-.24q54.38,0,108.76,0a15.28,15.28,0,0,0,7.69-1.54h0c5.88-7.31,13.72-7.46,22-6l8,5c3.87,1.47,8,1.19,12,2h0a8.33,8.33,0,0,1,6,7h0c1.36,3.23-.43,6.78,1,10h0a7.77,7.77,0,0,0,3,3h0c1.56.93,3.4,1.16,5,2,5.32,2.29,10.54,4.85,16,6.8,12.73,4.58,23.81,12.25,35.6,18.6,4.05,2.18,5.13,6.86,7.24,10.51C310,83.86,318.17,99,326.54,114Z"/><path class="cls-1" d="M63.54,12.05v1a2.59,2.59,0,0,1-.63,1.23,4.07,4.07,0,0,1-1.22.64c-3.12.38-6.2,1-9.28,1.67a9.83,9.83,0,0,1-1.32.34c-1.79.31-3.65.19-5.4.85a9.71,9.71,0,0,1-1.41.36c-6.94.8-13.73,2.47-20.62,3.51-4.35.66-6.49,3.89-7.59,7.72-1.78,6.24-3.93,12.35-6,18.5-1.26,3.82-2.33,7.48-.2,11.51,1.76,3.33-1.08,5.51-3,7.77C5.25,69.28,5.65,71.66,6.1,74c.19.4.37.81.56,1.21A6.79,6.79,0,0,0,8.9,77.8c5,3.7,5,3.71,1.7,9.17-.15.44-.33.86-.51,1.29a23.68,23.68,0,0,0,1.39,12.52c1.38,3.73,3.85,7.07,4,11.23a2.79,2.79,0,0,1-1,2c-3.43-4.12-3.32-10-7-14,.26-5.28-.7-10.61.9-15.84a4,4,0,0,0-1.32-4.07C1.92,74.94,2.47,69.26,5.64,63.33c.38-.71,1-1.7.76-2.26C4,55.17,7.08,49.69,7.55,44c2.8-5.1,4-10.78,5.83-16.23,1.71-5.2,4.55-8.47,10.23-9.36,12.67-2,25.28-4.26,37.92-6.42A1.4,1.4,0,0,1,63.54,12.05Z"/><path class="cls-1" d="M63.54,12.05h-2c1.65-1.71,3.78-1,5.69-1q52-.08,104,0c4.81,0,9.64.24,14.36-1-2,2.41-4.74,2-7.37,2Z"/><path class="cls-1" d="M207.53,4.05c-2.33,0-4.68.15-7,0-4.76-.42-8.93.45-12,4.5a3.61,3.61,0,0,1-3,1.54C191.28,2.79,198.73.76,207.53,4.05Z"/><path class="cls-1" d="M227.54,11c-4.11,0-8.28.32-12-2A36.88,36.88,0,0,1,227.54,11Z"/><path class="cls-1" d="M233.54,18a17.1,17.1,0,0,0-6-7C232,11.3,233.69,13.86,233.54,18Z"/><path class="cls-1" d="M234.54,28c-2-3.16-.56-6.68-1-10C235.56,21.2,234.08,24.72,234.54,28Z"/><path class="cls-1" d="M242.53,33a5.72,5.72,0,0,1-5-2A5.79,5.79,0,0,1,242.53,33Z"/><path class="cls-1" d="M237.54,31a2.8,2.8,0,0,1-3-3A6.35,6.35,0,0,1,237.54,31Z"/><path class="cls-1" d="M321.54,147v1c-3.36,1.38-6.78,2.65-10.08,4.18-5.37,2.49-10.34,1.77-15.76-.45C283,146.58,270,142.2,257.42,136.56c-1.14-.51-2.59-.37-3.89-.53l-3-1c-3.38-2.24-7.2-4-9-8h0c-.9-1.41-2.08-2.61-3-4-.67-1-1.34-2-2-3-4.5-5.73-5.5-5.93-11.39-2.2-1.82,1.15-3.9,1.84-5.61,3.19h0c-5.33,2.52-7.93,6.13-6.69,12.53.71,3.68,1.08,7.88-1.33,11.47l-1,1a7.74,7.74,0,0,1-5.12,1.54c-15-.05-30,0-45,0-2,0-4-.12-5.16-2.18.73-1.27,2-1.48,3.28-1.63,15.94-.34,31.89.31,47.81-.36a6.47,6.47,0,0,0,1.93-1.39c1.85-3.46.58-7.18.9-10.77.19-2.14-.43-4.59.95-6.32,5.35-6.72,12.55-10.67,20.73-12.86,1.45-.39,2.92.45,4.13,1.42a11.16,11.16,0,0,1,3.08,3.24c5.55,10.61,15,15.75,25.83,19.66,11.4,4.13,22.76,8.47,33.86,13.36,5.21,2.29,9.65,1,14.31-.91C315.3,148.53,318,145.29,321.54,147Z"/><path class="cls-1" d="M158.54,145h-3c-.32.49-.65.48-1,0L151.58,144a130.4,130.4,0,0,0-26.36-18.67c-5.78-3.12-13-2.3-19.52-3.29-9.67-1.46-19.48-2-29.07-4a18.61,18.61,0,0,0-5.82-.94c-5.8-.32-7,1.45-4.81,7,.76,1.14,1.51,2.28,2.16,3.49a14.44,14.44,0,0,0,7.73,6.78c1.75,1.12,4,1.55,4.91,3.8a1.59,1.59,0,0,1-1.48,1.41,28.4,28.4,0,0,1-12.69-6.72c-1.61-2.72-3.43-5.31-5.06-8a11.57,11.57,0,0,1-2.1-6c0-5.11,1.83-6.82,6.94-6.21,19.28,2.28,38.53,4.77,57.79,7.18a10,10,0,0,1,4.65,1.66c9.45,6.79,19.22,13.12,28.48,20.18a6.44,6.44,0,0,1,1.42,1.93A1.33,1.33,0,0,1,158.54,145Z"/><path class="cls-1" d="M80.53,138.05l-5-3a21.94,21.94,0,0,1-8-7l-2-3c-3.18-6.34-2-8.52,4.71-8.45,2.09,0,4.26-.54,6.29.46,6.2,1.9,12.68,2,19,2.91,8.81,1.32,17.7,2.08,26.54,3.21,4.11.53,7.15,3.36,10.45,5.53,5.26,3.46,10.41,7.07,15.55,10.7,1.61,1.14,3.29,2.34,3.48,4.6-5.45-3.71-11.43-6.83-16.22-11.24-8-7.31-17.62-8.51-27.51-9.71-12-1.44-23.95-2.82-35.9-4.46-2-.28-3.72-.46-4.92,1.16s-.08,3.2.72,4.64a22.15,22.15,0,0,0,13.78,10.68c.73,1.82,3.1,2.65,3,5-.83.53-1.6.16-2.37-.17A3.62,3.62,0,0,1,80.53,138.05Z"/><path class="cls-1" d="M154.53,145.08l1,0c1.69,2.05,4,2,6.36,2,14.1,0,28.2,0,42.3,0a28.91,28.91,0,0,0,6.32-1.07c-1,2.38-3.17,2-5.13,2q-22.41,0-44.82,0C158.14,148,155.41,148.38,154.53,145.08Z"/><path class="cls-1" d="M211.5,145c1-4.88,1.42-9.68.22-14.69-1-4.07,2.21-7.4,7.81-9.3-6,3.55-6.49,9.15-6.13,15.38C213.57,139.26,215.1,142.84,211.5,145Z"/><path class="cls-1" d="M219.53,121c2.18-2.8,5.4-4.28,8.46-5.5,4.07-1.62,7.32-.08,8.55,4.51-3.89-4.57-8-4.68-12.53-.84C222.83,120.19,221,120.44,219.53,121Z"/><path class="cls-1" d="M241.54,127c2.83,2.86,6.66,4.59,9,8-4.14-.29-6.75-2.88-9-6C241.54,128.37,241.54,127.7,241.54,127Z"/><path class="cls-1" d="M238.53,123c1.62.87,2.91,2,3,4C239.92,126.17,238.62,125.06,238.53,123Z"/><path class="cls-1" d="M82.51,139.05l2,1c2.43,1.36,2.9,4.35,5,6,1.14,1.83,2.89,3.16,4,5h0a42.27,42.27,0,0,1,1,10.82c-.32,5.5-2.7,7.46-7.85,9.26-14.35,5-26.06-1.86-38.07-7.67-1-.49-1.83-1.43-3.09-1.43-1.36-2.87-4.14-4.35-6.56-5.89-9.87-6.31-13.77-16.55-18.1-26.54-2.22-5.14-4.24-10.36-6.36-15.55,0-.67,0-1.35,0-2,2.12-.19,2.3,1.68,2.81,2.91,2.87,6.9,6.94,13.25,9.52,20.25,5,13.62,16.17,21.09,27.85,27.83A63.5,63.5,0,0,0,69.9,169.2c4.16,1.17,8.22.23,12.32-.43,8.88-1.41,12.2-8.43,7.56-16.29-1.86-3.15-4.33-5.88-6.24-9C82.73,142.11,81.23,140.92,82.51,139.05Z"/><path class="cls-1" d="M93.53,151.05c-1.86-1.25-3.71-2.5-4-5C91.41,147.26,93.29,148.5,93.53,151.05Z"/><path class="cls-1" d="M184.53,13c2.46-1.94,5.12-3.55,7.42-5.76C195.33,4,204.19,3.89,208.88,7c4.53,3,9.07,5.07,14.72,5.21,4.41.11,8.4,2.18,8.05,9.11-.4,7.85,1.51,9.81,9,12.88,17.5,7.2,34.81,14.81,50.93,24.84,5.27,3.28,7.07,9.15,9.91,14.1,11.24,19.58,22.13,39.35,33.12,59.07a17.1,17.1,0,0,1,1,2.8c.73,1.07.6,1.87-.72,2.29-5.1-4.09-6.92-10.35-10.21-15.63-2.72-4.36-5-9-7.74-13.36-6-11.5-12.45-22.8-19-34-3-9.62-10.76-14.23-19.08-18.29a44.43,44.43,0,0,1-8.26-4.58c-9.63-5.26-20.08-8.66-30-13.17-.3-.14-.63-.22-.93-.36-11.26-5.3-11.51-2.63-11.42-16.4,0-4.89-.89-5.78-7.47-6-4.3-.14-8.23-.69-11.48-3.73-6.44-5.43-12.81-5-18.17,1.34-1.32,1.56-2.68,2.91-4.82,3.18q-50.65.46-101.3,0a192.32,192.32,0,0,0-36.59,3.49,18.3,18.3,0,0,1-4.94.48c-1.26-.2-2.49-.45-2.88-1.93,1.44-1.62,3.58-.12,5-1.35h0c1.85-1.24,4.17.31,6-1h0c3.63-.86,7.39-1.05,11-2h0c1.73-.91,3.59-.46,5.39-.46q55.62,0,111.24-.05C181,13.53,182.82,14,184.53,13Z"/><path class="cls-1" d="M184.53,13c-1.64,1.74-3.77,1-5.67,1q-58.17.08-116.33,0l1-1Z"/><path class="cls-1" d="M334.57,137a2.11,2.11,0,0,0,1-2c2.18,3.3.81,5.61-2.27,7.07-3.83,1.81-7.81,3.31-11.73,4.94l-9,3c-.51-.45-1.34-.64-1.27-1.56.91-2.12,3-2.38,4.84-3.07,5.56-2.1,11.12-4.22,16.49-6.75a7.1,7.1,0,0,0,.93-.89A3.09,3.09,0,0,1,334.57,137Z"/><path class="cls-1" d="M45.53,17c-.84,1.3-2.19.91-3.38,1-.46.05-.88.23-.45.75.16.19.57.17.87.25-1.07,3.4-4.31,2.61-6.64,3.14-3.87.88-7.84,1.5-11.78,2a5.41,5.41,0,0,0-5,4C16.52,36,14.45,43.86,11.73,51.55c-1,2.9.07,4.08,2.95,4.08h4c39,0,78,0,117,.1,2.32,0,5.87-1.74,6.79,2.57-5.23,2.13-10.72.82-16.09,1.24-27.87.26-55.75.06-83.62.12-5.47,0-11,.06-16.4-.21-4.2-.26-8.49.42-12.54-.92,3.37,2.62,3.25,3.13-1.81,7-.78,1.51-2.76,1.46-3.64,2.84C7,70.46,9.27,74,5.55,75h0a14,14,0,0,1,0-8c3.18-3.12,5-6.31,1.79-10.68-1.38-1.89.13-4.2.71-6.17,2.17-7.31,4.5-14.57,6.9-21.81,1.66-5,4.91-8,10.51-8.42C32.19,19.41,38.68,17,45.53,17Z"/><path class="cls-1" d="M69.52,170.05a89.75,89.75,0,0,1-27.34-13.56C27.07,145.8,23.4,128.56,15.57,113.67c-.3-.57-.68-1.09-1-1.64-.49-4-3.17-7.14-4-11-1-4.61-2.36-9.21-1-14h0c2.24-.13,2.14,1.84,2.83,3.11.49,9.8,5.74,18,8.83,27a19.17,19.17,0,0,1,1.35,2.63c2.78,8.14,7,15.66,10.32,23.57a7.09,7.09,0,0,0,2.66,2.85c2.16,1.68,3.91,3.86,6.28,5.3,2.18,1.68,4,3.84,6.39,5.24,4.92,4.67,11.49,6.07,17.38,8.82,1.9.89,4.12,1.24,5.2,3.38C70.76,169.76,70.6,170.43,69.52,170.05Z"/><path class="cls-1" d="M11.46,90.08l-1.92-3c.38-.87.53-2,1.16-2.57,2.64-2.47,1.4-3.79-1.19-5-1.95-.89-3.82-1.94-4-4.47,2.39-2.25-.36-5.76,2-8,2.62,2.43,0,6.62,3,8.92,2.44,2.31,5.7,2.22,8.67,3,1.92.51,4.36,1.11,4.31,3.34,0,2.39-2.72,2.44-4.57,2.85s-3.61.3-5.08,1.55C12.71,87.58,12.74,89.29,11.46,90.08Z"/><path class="cls-1" d="M9.54,87c-.62,4.73,1,9.31,1,14C8.39,96.5,7.47,91.88,9.54,87Z"/><path class="cls-1" d="M62.53,14a23.13,23.13,0,0,1-11,2A23.38,23.38,0,0,1,62.53,14Z"/><path class="cls-1" d="M5.53,67v8A7.5,7.5,0,0,1,5.53,67Z"/><path class="cls-1" d="M51.53,16c-1.75,1.82-4,.69-6,1C47.29,15.25,49.53,16.34,51.53,16Z"/><path class="cls-1" d="M311.49,149l1,1c-6.41,3.64-12.36,2.09-18.79-.67-13.85-6-28-11.31-42-16.72-7-2.67-9.9-9.08-14-14.38-4.71-6.11-5.87-6.54-12.78-2.94-.3.15-.58.34-.88.46-10,4.23-16,10.81-13.58,22.59.31,1.49.59,3.36-.95,4.66-1.68-1.6-1.09-3.91-1.85-5.8-.6-3.53-.2-7.24-2.89-10.31-1.41-1.61,0-3.14,1.52-4.06,7.63-4.71,15.3-9.35,23.07-13.83,2.91-1.67,5.09-.46,6.88,1.89,3.32,4.36,6.65,8.71,9.85,13.16a17.42,17.42,0,0,0,7.74,6c14.68,6.21,29.61,11.81,44.4,17.75,3.29,1.32,6.47,2.6,10,.71A2.7,2.7,0,0,1,311.49,149Z"/><path class="cls-1" d="M208.55,137c1.76,1.78.68,4,1,6l-1,1c-4.91,1.07-9.88.47-14.81.42-11.73-.11-23.47.64-35.19-.41l-1-1a2.48,2.48,0,0,1,1.78-1.75c13.71-1.38,27.45-.71,41.18-.41,1.95,0,4,.79,5.63-.88C207,139.1,207.42,137.75,208.55,137Z"/><path class="cls-1" d="M158.54,144.06h50c-1.47,1.62-3.42,1-5.17,1-14.94,0-29.88,0-44.83,0C158.54,144.71,158.54,144.38,158.54,144.06Z"/><path class="cls-1" d="M158.52,142.07l-1,1C148,136.38,138.38,129.84,129,123c-3.56-2.61-7.65-2.19-11.44-2.73-17.68-2.53-35.42-4.55-53.15-6.75-2.62-.33-4.77,3.87-3.43,7.3a43,43,0,0,0,3.68,6.49c1.12,1.83,2.68,3.43,2.9,5.71l-.71.24c-5.07-3.66-8.14-8.62-8.44-14.82-.16-3.38-1.31-4.9-4.54-5s-6.19-.83-9.29-1.22-4.92-2.68-6.87-4.7c-5.15-5.34-12.12-3.69-18.35-4.81-1.3-.23-1.53,1-1.3,2.13a16.55,16.55,0,0,0,1.47,4.22c6.15-5.37,13.3-4.63,18.14,1.73,1.31,1.72,2.54,3.5,3.75,5.3,4.54,6.31,9.33,12.44,13.9,18.72,1.28,1.75,3.46,3.34,2.24,6.08-2.59.68-3.46-1.45-4.59-3-6.12-8.1-12.49-16-18.16-24.45-2.33-3.46-5.14-3.6-8.61-3.2s-3.23,3.28-3.94,5.55a3.82,3.82,0,0,1-1.78,2.22c-3.57-9.15-9.36-17.59-9-28,.24-1.39-.42-3,1.12-4.07,4.5-1.41,9.18-1.56,13.8-1.56,32.62,0,65.24-.3,97.86.14,8.09-.09,16.17.09,24.26.09a5.94,5.94,0,0,1,3.77,1,1.16,1.16,0,0,1,.06,1.71c-2.71,1.8-5.8,1.26-8.75,1.26q-64,0-127.94,0a3.31,3.31,0,0,0-1.25.77c-.86,1.51-.49,3-.07,4.59.33,2,.62,4,3.21,4.34a17.23,17.23,0,0,0,4,.34c7.76.72,15.75.68,21.23,7.81,1.36,1.77,3.75,2,5.94,2.24q35.67,4.53,71.36,9a27.31,27.31,0,0,1,13.34,5c7,5.14,14.2,9.91,21.22,15C156.2,138.93,158.09,139.85,158.52,142.07Z"/><path class="cls-1" d="M70.52,169.08c-5.48-2.34-10.92-4.79-16.47-7a12.49,12.49,0,0,1-6.57-5l.58-.45a158.46,158.46,0,0,1,15.79,6.76,25,25,0,0,0,18.68,1.9c6.24-1.77,7.94-7,3.7-12.24C84.14,150.5,81,149,79.39,146c.47-3.15-1.66-4.66-3.9-6.07-2.06-1.29-4.34-2.16-6.48-3.32-1.13-.91-2.65-1.65-1.51-3.52l.09-.07,12,6c5.59,6.85,13.27,12.51,12.08,23.06-.37,3.25-1.14,5.25-4.57,6q-6.28,1.31-12.62,2.31C72.87,170.6,71.45,170.66,70.52,169.08Z"/><path class="cls-1" d="M70.52,169.08c6.56,1.17,12.56-1.66,18.8-2.71.49-.08,1.11-1.32,1.11-2,0-5.32,1.32-10.73-3.89-15.11-3-2.56-4.71-6.74-7-10.2l1-1,2,1a27.31,27.31,0,0,0,6.19,9.39c4.58,4.72,3.86,10.22,3.77,15.79a3.54,3.54,0,0,1-2.06,3.21c-6.69,2.94-13.54,4.92-20.91,2.62Z"/><path class="cls-1" d="M76.54,117.05h-5c-7.53,0-8,.61-6,8-3.07-1.74-2.23-4.65-1.67-7.07s3.16-2,5.05-1.88C71.46,116.29,74.21,115.08,76.54,117.05Z"/><path class="cls-1" d="M67.53,128.05l8,7C71.6,134.16,68.81,132,67.53,128.05Z"/><path class="cls-1" d="M9.53,77c-3.47-2.77-1.44-6.65-2-10,.89-1.59,3.14-.4,4-2a29.67,29.67,0,0,1,13.84-2.46,20.87,20.87,0,0,0,6.77-.77c4.81-.71,9.65-.39,14.47-.4q32.23-.06,64.47,0a49.91,49.91,0,0,1,8.47.36c7,1.42,14.18.92,21.06,2.91a10.23,10.23,0,0,1,1.73.45c5.45,1,11,.45,16.42.45,12.14,0,24.29.33,36.4-.21,1.33-.67,2.22-1.4.42-2.62-12.61-.75-25.19-.12-37.77-.33-3.48-.06-7,.13-10.43-.14a6.52,6.52,0,0,1-1.68-.45A5.4,5.4,0,0,1,142.56,58c-1.68-1.65-3.8-.93-5.71-.93Q75.4,57,13.94,57c-5.54,0-5.51,0-3.78-5.38,2.59-8.06,5.19-16.12,7.66-24.22.86-2.82,2.13-4.1,5.41-4.61,6.47-1,13.12-1.35,19.32-3.77,7.66-1.17,15.31-2.36,23-3.52A30.17,30.17,0,0,1,69.94,15q58.8,0,117.6,0a1.22,1.22,0,0,1-.63,1.63c-2.38,1.08-4.92.71-7.39.71q-51.5,0-103,0c-2.49,0-5-.3-7.43.53-14.58,2.41-29.15,5-43.72,7.45-2.28.39-4,1.15-4.83,3.61C18.27,36,15.8,42.87,13.72,49.9c-1,3.28,0,4.75,3.39,4.7,1.5,0,3,0,4.5,0q57.22,0,114.45,0c3.87,0,7.7-.14,10.69,3,1,1,2.44.95,3.77,1,5,.07,10-.08,15,.06,3.09.09,5.3-1.74,7.82-2.91a2.18,2.18,0,0,1,2.14.68c.27,2,1.53,2.45,3.41,2.36,2.76-.13,5.53-.12,8.31-.17,14.85,0,13.8-1,13.71,13.62,0,3.58.79,7.28-.93,10.73-3.09,2.55-6.75,1.19-10.17,1.47-6.79,0-13.58,0-20.37,0a14.12,14.12,0,0,0-5.83,1,1.49,1.49,0,0,1-1.5-.81c-.55-3.9,2.32-3.82,4.75-3.88,7.77-.17,15.54,0,23.31-.08,1.78,0,3.67.37,5.21-.91.12-3.72-2.86-2-4.21-2.07-9.93-.25-19.87,0-29.81-.16-12.22-.71-24.29.62-36.3,2.72-15,1-30,.32-45,.43-15.66.11-31.33.19-47,0A76,76,0,0,1,9.53,77Z"/><path class="cls-1" d="M187.54,16c0-.31,0-.62,0-.93,1.82-.81,2.35-2.73,3.48-4.13,4.57-5.66,13.76-5.71,18.56,0l-.56.45c-4.4-1.14-8.66-3.43-13.4-1.57-1.53,1.58-4.18,2.91-1.07,5.42,4.6,10.41.92,32.1-11.09,38-2.67,1.19-4.53,4.12-7.94,3.72l-1-1c1.12-3.59,4.54-4.89,7.26-6.42,7.37-4.15,8.33-11.61,10.24-18.51.82-3,.13-6.29.18-9.44A4.32,4.32,0,0,0,188.7,17,2.75,2.75,0,0,1,187.54,16Z"/><path class="cls-1" d="M209.58,11c4.63,4,10.6,2.8,15.95,3.87,2.87.57,4.54,1.6,3.94,4.4-2.34,10.93,3.31,15.49,12.93,18.46,8.82,2.73,17.15,7,25.69,10.66,1.36.58,2.84,1,3.47,2.62l-.66.47c-6.92-.68-12.67-4.6-19-6.94s-12.12-5.37-18.36-7.61c-4.47-1.6-6.48-4.45-6.44-9.36.08-9.82-.11-9.86-10.15-11.12-3.52-.44-7.1-.62-7.48-5.37Z"/><path class="cls-1" d="M271.57,51c6,3.16,11.95,6.27,17.87,9.5,5.35,2.91,7.11,8.31,9.13,13.51l-.66.24a2.51,2.51,0,0,1-2-1.35c-2.88-7.62-9.22-11.45-16-14.77-1.78-.86-3.38-2.12-5.45-2.46-1.3,1.28-.36,2.85-.57,4.25,0,1.59.05,3.17.07,4.76-.13,6.17.27,12.33-.23,18.49-1.43,3.2-3.57,5.29-7.41,4.71a2.55,2.55,0,0,1-.15-1.72c4.15-3.26,4.2-7.78,4-12.5-.18-5.64,0-11.29-.05-16.94,0-2-.1-4,1.36-5.65Z"/><path class="cls-1" d="M298.57,74c5,5.64,7.66,12.66,11.32,19.07,2.77,4.84,6.24,9.4,7.71,14.94a1.41,1.41,0,0,1-1.41.18c-4.9-5.51-7.41-12.46-11.17-18.66a118.64,118.64,0,0,1-5.78-10.42c-.75-1.56-2.11-3.14-.74-5Z"/><path class="cls-1" d="M316.61,108h1c4.95,5.66,7.39,12.82,11.4,19,2.05,3.19,3.73,6.63,5.58,10l0,1c-2.17.52-3-1.21-3.76-2.54-4.8-8.5-9.71-16.94-14.21-25.61A1.86,1.86,0,0,1,316.61,108Z"/><path class="cls-1" d="M208.55,137c-.06,1.08.18,2.25-.93,3a2.73,2.73,0,0,1-1.2-2.6c.78-6.08-2.84-9.43-7.31-12.44-2-1.35-4.37-2.56-4.76-5.41a1.72,1.72,0,0,1,1-1,3,3,0,0,1,2.71.92c3.75,4.24,7.24,2.68,11.2.07,5.5-3.63,11.3-6.82,16.94-10.25,1.06-.74,2.42-1.07,3.3-2.56-1.91-1.37-4.28-1.47-6.36-2.28-5.45-1.9-11.08-.79-16.63-1.07a47.07,47.07,0,0,1-6.39-.31c-8.69-2.21-9.49-3-10.23-10.55.76-2.27,3-3.09,4.55-4.55,3.18-2,7-1,10.33-2.16,8.34-.13,16.58.46,24.47,3.51,2.22.53,4.1,2.15,6.74,2.15.7-2.74-.79-5.24-.74-7.84-.71-8.07-3.16-15.08-10.57-19.69-3.2-2-6.72-1.53-10-2.47-2.55-.72-5.22-1.08-7.54-2.44s-4.49-3.35-4-6.33,2.77-5,5.68-5.67a35.44,35.44,0,0,1,28.94,5.26,13,13,0,0,1,3.77,4.57c6,10.25,10.4,21.09,11.69,33,1.12,3.47,3.19.75,4.84.73a2.3,2.3,0,0,1,1.3.52,2.26,2.26,0,0,1,.56,1.28,3.93,3.93,0,0,1-2.36,2.42c-2.36,1.23-2.44,3.09-2.11,5.48,1.12,8.06,5.89,13.89,11.19,19.54,2.28,2.43,5.9,4,6,8.07-1.82,1.44-3,0-4.2-1a39.26,39.26,0,0,0-4.17-3.33c-3.38-3.22-5.38-7.55-8.73-10.81-4-6.94-4.73-14.85-6.15-22.45A101.08,101.08,0,0,0,239.19,60.9c-3.48-6.51-9.18-9-15.51-10.29a40,40,0,0,0-13.88.12c-3.42,3-3.37,3.29.88,5.74a27.7,27.7,0,0,0,5.85,1.24C230,59,236.08,66.76,238.74,78.93c1.07,4.87,1.26,9.87,1.64,14.83-1.12,3.69-3.74,2.64-6,1.7a69.8,69.8,0,0,0-23.65-5.52,39,39,0,0,0-12.76,1.32c-1.75.52-3.56,1.42-3.38,3.73s1.88,3,3.71,3.51a15.86,15.86,0,0,0,5.91.38c8.86-.69,17.46,0,25.92,3.39A35,35,0,0,1,245,113.49c3.59,4.58,7.91,8.5,11.47,13.1,3.27,4.22,7.79,6.64,12.77,8.29,4.13,1.7,8.32,3.24,12.43,5,1,.43,2.37,1.3,3.14,0,.93-1.59-.67-2.34-1.72-3-2.91-1.91-6.17-3.23-9-5.34-1-1-2.32-1.92-1.54-3.69,2.46-1.15,4.1.73,5.8,1.79a110.85,110.85,0,0,0,16.43,8c3.18,1.32,4.32.45,5.09-2.77.89-3.77,1.63-7.09-2.5-9.47-.84-.48-1.83-1.65-.43-2.83,7,.85,9.26,3.67,7.44,10.15-.95,3.39-.59,7.45-4.09,9.82-3,.91-5.3-1.15-7.94-1.85-.9-.24-2.05-1-2.62.18-.69,1.39.57,2.1,1.6,2.52,3.18,1.29,6.22,2.94,9.55,3.86,3,1.4,5.84.36,8.61-.78,6.27-2.57,12.54-5.1,18.92-7.4,2-.74,4-1.63,6.09-.06-6,3.27-12.43,5.26-18.7,7.77-1.53.61-3.21.85-4.35,2.21-10.89,4.93-19.26-3-28.45-5.95-10.54-3.39-20.58-8.29-31-12.23-5-1.89-6.92-6.46-10-10-3.34-3.81-5.09-10.46-9.77-11.19-4.3-.66-8.54,4.3-12.79,6.8-4,2.35-7.93,4.83-12,7-2.18,1.19-3.38,2.13-.85,4.17C209.81,130.23,208.14,133.85,208.55,137Z"/><path class="cls-1" d="M334.53,139c-8.41,1.19-15.72,5.56-23.61,8.23-3.35,1.13-6.67,4.25-10.42.81-.81-1.9-1.81-3.76-1-5.93,3.77-4,3.9-9.47,4.34-14.29.21-2.32-4.2-4.16-7.39-4.84-1.18.44-2.05-.15-2.9-.84-3.16-4.15-1.11-8.53-.54-12.84a1.49,1.49,0,0,1,1.32-.63c1.89.69,2.32,2.35,2.35,4a9.84,9.84,0,0,0,5,8.63c4.73,3,5.87,7.36,4.63,12.59-.54,2.26-1.15,4.51-1.61,6.79-.68,3.37,1,4.48,3.88,3.63a87.85,87.85,0,0,0,15.71-6.31c3.45-1.78,2.66-4.53,1.17-7.24-5.71-10.33-11.56-20.59-17.18-31C302.51,89.2,295.88,79,290.73,68c-.56-2-1.58-3.54-3.83-3.86-2.35-.5-4.19-2-6.17-3.17-1.66-1-4-.26-5.39-1.92.75-3.17,3.31-1.43,5.07-1.87,8.57,2.91,13.77,9.42,18.07,16.9,3.52,9.29,9.44,17.32,13.83,26.17,1.32,2.66,2.85,5.2,4.28,7.8,4.51,8.06,9,16.14,13.56,24.17,1.21,2.12,2.15,4.48,4.37,5.87C334.54,138.4,334.53,138.72,334.53,139Z"/><path class="cls-1" d="M120.5,63.06H31.56c-5,2.1-5.66-2-7-5h102C126,61.5,125.64,65.15,120.5,63.06Z"/><path class="cls-1" d="M24.55,58.05c.93,1.53,5.78.44,3.1,4.6-.09.14,2.57.13,3.92.41-6.59,1.53-13.35,1.29-20,2-.46-.47-.3-.78.21-1.13,1.27-.87,3.55-.94,3.38-3-.19-2.47-2.8-1.21-5-2.26C15.51,57.57,20.05,58.24,24.55,58.05Z"/><path class="cls-1" d="M120.5,63.06c1.31-.6,4.9,1.78,3.3-2.73-.49-1.38,2.17-1,2.72-2.28l16,0a6.51,6.51,0,0,1,2.91,3.09c.89,4.16-1.63,4.9-4.9,4.9a89,89,0,0,0-15.44-2C123.56,64,121.83,64.47,120.5,63.06Z"/><path class="cls-1" d="M35.49,147.09a3.86,3.86,0,0,1-3.5-2.45c-3.16-8.34-8-16-10.46-24.6a1.36,1.36,0,0,1,1.36-.17c2.86,2.14,3.23,5.67,4.62,8.59,2.83,5.94,5.48,12,8.25,17.95C35.68,146.64,35.58,146.86,35.49,147.09Z"/><path class="cls-1" d="M47.48,157.1c-2.87-.63-4.36-2.9-6-5l.56-.45c3.31.27,5.21,2,5.52,5.36Z"/><path class="cls-1" d="M41.49,152.09c-2.87-.62-4.37-2.89-6-5l.07-.09c4-.77,5.5,1.55,6,5Z"/><path class="cls-1" d="M22.52,120h-1l-1-2A2.14,2.14,0,0,1,21.57,116C22.91,117.11,23.66,118.35,22.52,120Z"/><path class="cls-1" d="M9.53,77a214.53,214.53,0,0,0,26.68,2q44.66,0,89.3-.06a3.75,3.75,0,0,1,4.39.44c-2.06,2.05-7.19,1.72-5.37,6.53H12.59C15.2,82.65,20,85.2,23,82.14,19.11,78.6,13.12,80.81,9.53,77Z"/><path class="cls-1" d="M194.53,119a10.67,10.67,0,0,0,4.62,4.35c6.61,3.62,9.87,8.94,8.47,16.63.16,2.92-1.7,3.24-3.92,3-14.56-1.76-29.15-.94-43.74-.51a5.24,5.24,0,0,1-1.43-.41c-9.63-6.77-19.27-13.51-28.86-20.32-3-2.14-6.57-2.18-9.95-2.65-15-2.08-30.1-4-45.17-5.87C65.7,112.11,56.85,111,48,110.1c-2.43-.25-4.91-.53-6.25-2.52C36.79,100.21,29,101,21.71,100c-1.75-.23-3.7.59-5.2-1-2.15-2.88-4-5.72-2-9.59C15,88.4,13,89,12.67,88.09c1.41-1.8,3.39-1,5.11-1q67.38-.06,134.75,0c4.51.88,6.92,5,10.71,7a9.65,9.65,0,0,1,1.1.8,61.68,61.68,0,0,0,7.85,6.18,10.39,10.39,0,0,1,1.07.77,21.17,21.17,0,0,0,3.11,2.38,9.15,9.15,0,0,1,1.07.78,61.48,61.48,0,0,0,7.86,6.14,9.65,9.65,0,0,1,1.1.8c2.35,2.49,5.46,4.08,7.83,6.55Z"/><path class="cls-1" d="M22.52,120l-1-4c.1-2.57-.7-6.32,2.55-6.66C27.8,109,32,106.56,35.37,112c6,9.47,13.18,18.19,19.91,27.19A13,13,0,0,0,57.53,141l.74.32c1.77,2,4.09,2.29,6.64,2.38,4.69.16,9.44-.79,14.07.7l.57.57c2.63,2.47,5.23,5,7.89,7.39a6.35,6.35,0,0,1,2.13,4.78c.29,7.68.28,7.38-7,9.45a24.85,24.85,0,0,1-19-2c-5.24-2.67-10.95-4.4-15.93-7.63-1.63-2.11-3.1-4.41-6-5-1.62-2.13-3.11-4.41-6-5-5.08-6.61-7.07-14.75-10.88-22C23.84,123.41,23.24,121.69,22.52,120Z"/><path class="cls-1" d="M67.49,133.06c-.11,1.54,1.42,1.93,2.07,2.94,1.59,5.19.28,7.16-4.86,7.28a24.29,24.29,0,0,1-4.88-.52A3.55,3.55,0,0,1,57.51,141h0c-4.08-8.34-10.67-14.9-15.89-22.43-.37-.54-.68-1.11-1-1.67.13-2.7,1.67-4.48,3.85-5.82,2.95.31,5.9.72,8.86.91,4.19.26,7.16.56,6.45,6.61C59.08,124.51,63.85,128.79,67.49,133.06Z"/><path class="cls-1" d="M124.52,86c.47-2.56-4.32-1.53-3-3.92s4.19-2,6.62-2.13c.14,0,.28-.15.46-.25-.82-1.17-2-.42-3-.67,9.14-1.75,18.26-3.53,27.65-3,2.79.16,5.6,0,8.41.07,2.51,2.9,5.76,3.54,9.44,3.46,6.82-.15,13.65-.09,20.48,0,2.13,0,4.38-.25,6.09,1.54-2,1.74-4.48.86-6.72.89-8.16.11-16.32.08-24.48,0-2.2,0-4.13.06-3.78,3.07-2.94,4.24-6.53,2.25-10,1Z"/><path class="cls-1" d="M44.47,111.12l-3.85,5.82c-1.28-1.73-2.9-3.31-3.79-5.22-2.68-5.74-7.64-4.81-12.41-4.59-3.23.15-3.05,3.42-4.54,5.21-2.28-3.23-4.63-7.45-3.44-10.38s5.61.27,8.67.11c6.26-.32,11.73,1.42,15.71,6.67A5.2,5.2,0,0,0,44.47,111.12Z"/><path class="cls-1" d="M152.55,86.11c3.32-.58,6.86.91,10-1,.31,0,.61,0,.92,0-.31,2.88-.31,2.88-5.13,3.43,1.26,1.69,3.35,2.37,4.6,4,.55.77,1.05,1.55.57,2.55-4.46-1.59-7.4-5.25-11-8C152.53,86.74,152.54,86.42,152.55,86.11Z"/><path class="cls-1" d="M12.66,88.09h4.09c-3.35,4.56-3.08,6.72,1,9.87.46.35,1.53.42.19,1a4.72,4.72,0,0,1-1.47.12c-4.12.21-2.69-2.91-3-5-1.09-1.53.15-3.48-.89-5A4.32,4.32,0,0,1,12.66,88.09Z"/><path class="cls-1" d="M12.62,89c1.52,1.46.72,3.33.89,5C11.92,92.62,12.74,90.75,12.62,89Z"/><path class="cls-1" d="M59.51,142.07c1.06-1,2.16,0,3.23,0,6.17.27,6.66-.12,6.83-6.07,3.77,1.28,7.59,2.58,10.12,5.88.54.7,3,2.28-.14,3.13l0,0c-5.18-1.11-10.43-.21-15.64-.52C62.09,144.4,59.72,145.17,59.51,142.07Z"/><path class="cls-1" d="M229.6,91c-8-3.41-16.57-3.66-25.1-3.94-2.3-.55-4.4-1.37-5-4,0-6.42-.06-12.84.1-19.26.07-2.79-1-3.83-3.74-3.72-3.45.14-6.91,0-10.37,0-3.71-1.22-5.3-3.34-3-7.09,6.59-4.07,9-10.71,11.51-17.57s.74-13.54-.51-20.26a5.11,5.11,0,0,1,1.84-4.66c1.45-1.35-1.16-.53-.8-1.36,5.41-2.45,10.29-1,14.95,2,3.1,5.73,9,4.22,13.73,4.73,4.09.44,5.39,1.62,5.36,5.68-.09,12.15.1,12,11.68,16.64,10.47,4.16,20.82,8.6,31.23,12.92,0,7.81-.2,15.62.09,23.42.19,5.09.29,9.84-5,12.56-2.17,2.32-4.45,4.42-8,4.13l-.06-.21c-2,0-4,.07-6,.17-1.42-2.86-1.71-6-2.06-9.08-1.13-9.9-6.61-18-11.27-26.3-2.64-4.71-8.52-6.2-13.58-7.58s-10.43-1-15.69-.18a6.74,6.74,0,0,0-5.8,4.78c-.6,2.48,1.72,4.37,4.12,5.58,2.88,1.46,6,1.75,9.1,2.38,13.14,2.73,19.3,10.1,19.23,23.34C235.53,90.35,235.46,90.42,229.6,91Z"/><path class="cls-1" d="M188.52,16.11c3.63-.54,4.8,1,5.12,4.68.7,8.21-1.35,15.73-4.19,23.24-1.46,3.86-5.31,4.84-7.93,7.27-2,1.89-4.62,3.21-7,4.78-3.69,3.8-8.31,4.31-13.29,4-3.65-.22-7.32,0-11-.06-1.14,0-2.81.16-3.34-.49-4.1-5.06-9.7-3.44-14.81-3.45Q74,56,15.85,56.05c-5.53,0-5.49,0-3.75-5.3C14.53,43.35,17,36,19.19,28.48A5.57,5.57,0,0,1,24,24.15q20.75-3.57,41.51-7a22.82,22.82,0,0,1,3-.09c1.74-.88,3.6-.44,5.39-.44q54.6,0,109.21,0C184.92,16.53,186.78,16.94,188.52,16.11Z"/><path class="cls-1" d="M137.55,75.06c-7.29,2.28-14.92,2.73-22.39,2.82-26.25.34-52.51.43-78.76,0-8.29-.15-16.77-.37-24.9-2.77.23-.54,1.29-.52,1.17-.7C9.68,70,9.86,69.19,14.51,67c4.35-1.79,9.06-1.45,13.56-1.82,21.85-1.8,43.77-.86,65.66-1.21C107,63.76,120.17,65,133.36,66.1a7.31,7.31,0,0,1,2.18,1C139.6,68.87,138.4,72,137.55,75.06Z"/><path class="cls-1" d="M170.13,68c8.3,0,16.6.06,24.9,0,2.53,0,3.65.8,3.53,3.43s-1.15,3.79-3.68,3.46c-13.72-1.77-27.49-.33-41.23-.79-2.82-.09-5.65-.09-8.46.09-1.76.11-3.65,1.25-3.71-2,0-2.76.43-4.32,3.76-4.24C153.53,68.16,161.83,68,170.13,68Z"/><path class="cls-1" d="M140.57,66a7.09,7.09,0,0,0,4.9-4.9h.06c8.72,1,17.47.18,26.21.46s17.8-.64,26.67.51c0,1.39.58,2.9-.83,4-4.59,1-9.24.38-13.85.41-12.44.1-24.89,0-37.34,0-1.63,0-3.32.41-4.88-.45A4.24,4.24,0,0,1,140.57,66Z"/><path class="cls-1" d="M197.58,81.08c-10,0-19.9-.23-29.84,0-3.94.11-5.9-1.16-6.17-5,11,0,22,0,32.92-.08C198.61,76,199.56,77.55,197.58,81.08Z"/><path class="cls-1" d="M156.39,88.06c-.27-1.46.86-1,1.5-1,.8-.08,1.61,0,2.42,0,1.46,0,3.05.18,3.2-2,.47-2.72,2.63-2,4.31-2,7.26,0,14.51,0,21.77,0,2.93.94,5.37,2.29,5,6-.8,1.72-2.56,2.16-4,3-1.49-6.73-1.49-6.75-9.16-6.75-3.15,0-6.32-.18-9.46.13-2.55.25-5,.94-5.75,3.87s1.05,4.31,3.3,5.41a18.66,18.66,0,0,1,6.39,4.42,18.72,18.72,0,0,0,4.15,3.48c5.8,5.13,13,8.67,17.76,15-.26,1.23-1.45.91-2.21,1.31l-1.06.09h0c-2.94-2.41-6-4.66-9-7h0c-2.95-2.41-6-4.66-9-7h0c-1.4-.93-2.59-2.13-4-3h0c-2.95-2.41-6-4.66-9-7l0,0-1-2C162.47,89,158.7,89.4,156.39,88.06Z"/><path class="cls-1" d="M188.52,16.11c-1.35,1.43-3.12.91-4.72.91q-57.65,0-115.29,0c1.67-1.68,3.79-.94,5.7-.94q56.67-.07,113.33,0C187.87,16,188.2,16.07,188.52,16.11Z"/><path class="cls-1" d="M141.51,66.05l56.07,0c-1,1.15-2.4.93-3.71.93q-24.35,0-48.68,0C143.91,67,142.52,67.24,141.51,66.05Z"/><path class="cls-1" d="M194.56,89.08a15,15,0,0,0-5-6l9.9-.1,5,4C201.48,89.09,197.59,87,194.56,89.08Z"/><path class="cls-1" d="M198.41,62.07c-15.9,0-31.8,0-47.7,0-1.75,0-3.68.63-5.18-.92,16.08,0,32.17,0,48.25,0C195.35,61.1,197.15,60.45,198.41,62.07Z"/><path class="cls-1" d="M182.51,52.9c-.27,2.89.11,5.51,3,7.09h-11.9c-.71-2,1.63-1.78,1.95-3C177.93,55.79,179.79,53.62,182.51,52.9Z"/><path class="cls-1" d="M14.51,67c-1.66,2.16-5.34,4-1.1,7.1.69.51-.07.76-.47.85a7.63,7.63,0,0,1-1.44.1c-3.86.14-3-2.71-2.91-4.83C8.76,66,12.11,67.32,14.51,67Z"/><path class="cls-1" d="M137.55,75.06c-.61-.11-1.68-.4-1.22-1,2.16-2.71.88-4.85-.79-7,2,0,3.92.31,3.92,2.71C139.46,71.63,140.87,74.29,137.55,75.06Z"/><path class="cls-1" d="M194.55,9.05c.72.43,3.34-1,1.72,1.71-.87,1.47-1.84,2.87-2.77,4.31-1.69-.11-3.92.12-1.82-2.61C192.59,11.28,193.59,10.18,194.55,9.05Z"/><path class="cls-1" d="M294.54,109h-1c-6.37-2.22-7.25-3.14-7-9.38.08-2.56-1-3.45-3.06-4.21-2.74-1-5.85-1.2-8-3.47-1.85-2.31-3.54-4.68-2.83-7.9l0-20c1.24-.4,1.91.27,2.4,1.29a3.93,3.93,0,0,1,.06,1.53c-.21,4-.61,8.08.37,12.08-.71,7.09,2.93,10.71,9.52,12.1a5.82,5.82,0,0,1,3.78,2.27A45.9,45.9,0,0,1,294.54,109Z"/><path class="cls-1" d="M272.58,84.08c1.16,2.25,1.25,4.94,2.95,7-3.35,1.9-6-.25-8.79-1.53a1.06,1.06,0,0,1-.17-1.42Z"/><path class="cls-1" d="M280.43,57.16c-1.21,1.73-3.75,0-4.9,1.87a1.67,1.67,0,0,1-1.11,1.32c-1,.08-1.36-.67-1.82-1.33.1-1.73-.5-3.51.41-5.31C275.8,54.25,278,55.93,280.43,57.16Z"/><path class="cls-1" d="M266.57,88.09c0,.31,0,.62.05.93a4.44,4.44,0,0,1-2,1.76c-1.64.6-3.06,2.1-5.06,1.26l-1-.87,8-4.13C266.55,87.4,266.56,87.74,266.57,88.09Z"/><path class="cls-1" d="M272.6,59l1.93,1a3.56,3.56,0,0,1,.9,3.7,2.74,2.74,0,0,1-.89,1.3l-1.93-1C272.6,62.38,272.6,60.71,272.6,59Z"/><path class="cls-1" d="M259.54,92l5-2.15c3-1.09,5.44.72,8.11,1.41,1.61.42,3.17,1,4.73,1.52,3,1,6.49,1.33,8.81,3.18,2.76,2.2-.36,6,.72,8.94,2.94,4.31,5.83,8.64,4.85,14.29a6.34,6.34,0,0,0,2.69,2.78l2,1a3.68,3.68,0,0,0,.23.44c1.48,2.21,5.48,2.4,5.57,5.18.11,3.36-1.1,6.77-1.84,10.14-.49,2.26-1.93,1.6-3.44,1a106.39,106.39,0,0,1-21.79-10.62,17.11,17.11,0,0,0-2.66-1.16h0c-4-5.27-9.23-9.37-13.3-14.63-3.67-4.74-4.55-10.21-5.57-15.64C252.91,93.75,258,94.46,259.54,92Z"/><path class="cls-1" d="M269.49,136.08c-6.43-1.11-11.07-5-15.14-9.76-3.55-4.16-7.16-8.25-10.62-12.49-7.55-9.25-17.75-12.77-29.17-13.78-5.59-.49-11.18,1-16.78-.09-3-.56-4.79-2.14-5.1-5.15-.34-3.35,2.43-4.25,4.7-4.8C207.73,87.5,218,88.5,228,91.84q4.24,1.41,8.36,3.18c1.48.64,2.53.68,3.19-1a.9.9,0,0,1,1.36.34,2.41,2.41,0,0,1-.33,2.3c-3.55,2.92-7.24,1.62-10.75.11-6.82-2.94-14-4-21.29-4.35a7.41,7.41,0,0,0-1.49,0c-2.06.27-5.44-.2-5.47,2.08,0,2.56,3.31,2.08,5.33,2,8.31-.11,16.55-.09,24.4,3.34a41.2,41.2,0,0,1,8,4,8.9,8.9,0,0,1,3,3.34c1.32,3.54,4.46,5.56,6.87,8.19a57.25,57.25,0,0,1,4.17,4.5c3.89,4.28,6.92,9.64,13.67,11,.41-3.7-4.19-4.63-3.58-7.9a.74.74,0,0,1,1.17,0c3.59.2,4.42,4.79,8,5h0c.68,1,1.37,2,2.05,2.95C276.19,136,272.76,136,269.49,136.08Z"/><path class="cls-1" d="M240.54,94h-1c-.67-4.7-1.19-9.43-2-14.1-2.18-12-8.35-20.11-21.56-20.88-2.34-.14-4.57-.47-6.45-2-1.45-2.18.56-4.87-1-7,10.14-2.61,19.64-1.24,28.23,4.89,1.25.89,1.84,2.7,2.77,4.06,8.31,12.16,9.93,26.48,13,40.32,1,4.67,1.95,9.34,4.09,13.67.74,1.2.5,2-.92,2.37-2.1-.61-2.87-2.27-3.33-4.18-2-7.35-3.55-14.8-5.4-22.18a8.21,8.21,0,0,1-.4-1.45c-.91-10.34-4.93-19.47-10.85-27.86-5.92-6-14.67-8.58-19.92-5.76.41,1.43,1.7,1.46,2.79,1.69,16.27,3.46,20.92,12.69,23.11,26.29.47,3,.15,6,.73,8.94C242.63,92.11,242.92,94,240.54,94Z"/><path class="cls-1" d="M169.54,96c-3.31-.83-5.26-2.8-4.93-6.36.3-3.36,2.66-5.11,5.66-5.29a116.71,116.71,0,0,1,16.93-.12c5.05.44,4.69,4.15,3.35,7.83.58,5.5,3.24,9.12,9,9.94,5.64,1.17,11.35.32,17,.47,2.37.07,4.65.24,6.54,1.67,2.5,1.88,3.62,4,.14,6.1-2.4-.37-1.84-4.21-4.73-4-5.55-1.64-11.22-.63-16.83-.82-3.55-.12-7.07-.46-9.95-2.61a10,10,0,0,1-4-11c.94-3.89-.93-5.22-4.36-5.35a86.9,86.9,0,0,0-9.95,0c-5.6.43-6.55,2.15-4.19,7.18A2.76,2.76,0,0,1,169.54,96Z"/><path class="cls-1" d="M222.54,110c2.71-1.53,2.35-3.31.32-5.09-1.84-1.62-4.08-2-6.49-1.94-5.8.08-11.6,0-17.4,0-.11,0-.23-.17-.34-.26l.92-.73c6,0,12,0,18,0a11.09,11.09,0,0,1,7,2c2.34,1.48,2.47,3.7,2,6.1-6.91,5-14.57,8.87-21.74,13.49-2,1.31-2.87.31-4.16-.75-1.64-1.36-3.39-2.58-5.1-3.87a2,2,0,0,1,1.94-.91c6.66,2.65,11.9-.31,17.08-4.08A21.3,21.3,0,0,1,222.54,110Z"/><path class="cls-1" d="M269.49,136.08c2-1.38,5.57-1.22,5.09-5.09,3.47,1.9,6.87,4,10.43,5.66,2.36,1.12,2,2.68,1.34,4.47-.88,2.28-2.37,1.06-3.66.52C278.28,139.8,273.89,137.93,269.49,136.08Z"/><path class="cls-1" d="M235.53,107.48c2.29,2.36,4.86,4.51,6.82,7.12,3.91,5.21,9.24,9.24,12.14,15.29-10.12-4-13.18-14.5-20-21.5Z"/><path class="cls-1" d="M299.5,142.14a7.69,7.69,0,0,1,1,5.93c-4.07-.29-7.24-3-11-4.12-2-.6-2.16-2.15-1.38-4,.87-2.07,2.11-1.44,3.57-.83C294.27,140.19,296.9,141.14,299.5,142.14Z"/><path class="cls-1" d="M229.6,91a8.7,8.7,0,0,0,6.88-6.87c.17,3.06,1.94,6,.64,9.19C234.28,93.52,232.2,91.4,229.6,91Z"/><path class="cls-1" d="M226.57,110.08c-1.85-1.65-.52-4.35-2-6.1,2.65.12,5,1.24,7.77,2.36A12.16,12.16,0,0,1,226.57,110.08Z"/><path class="cls-1" d="M208.49,50l1.44.07c-.14,2.32-.27,4.64-.41,6.95C204.54,54.67,204.39,53.65,208.49,50Z"/><path class="cls-1" d="M255.56,115a2.3,2.3,0,0,0,1-2.09c3.78,2.47,5.35,6.7,8,10.08h-1c-3.94-.29-4.51-4.68-7.49-6.15C255.58,116.35,255.2,115.79,255.56,115Z"/><path class="cls-1" d="M252.45,91.13c1.94-3,4-.74,6.05-.17-1.09.72-2.16,1.48-3.27,2.17C252.77,94.65,252.5,93,252.45,91.13Z"/><path class="cls-1" d="M274.54,65c0-.33,0-.66,0-1,.57-4.41,3.09-5.43,7-4,1.93,1.13,3.54,2.88,6,3a12.2,12.2,0,0,1,4,4c10.85,19.41,21.84,38.74,32.5,58.25,5.18,9.48,8.33,11.73-5.49,16.75-3.27,1.19-6.43,2.76-9.77,3.7-4.18,1.18-6.22-1-5.29-5.22.53-2.43,1.26-4.81,1.79-7.23.93-4.21.41-8.09-3.61-10.48-4.26-2.53-6.65-5.85-6.22-11,.07-.91-.58-1.87-.9-2.81a39.49,39.49,0,0,1-5.1-12.6c-.51-2.79-3.13-3.59-5.52-4.44-9.38-3.3-9.38-3.31-9.39-13a36.4,36.4,0,0,1,0-13Z"/><path class="cls-1" d="M294.45,122a3,3,0,0,1-2.94-2,3.07,3.07,0,0,1-.44-2.35c.52-4.68-.44-8.76-4.55-11.63-.29-.77-1-1.74-.79-2.29,3-7-1.74-8.46-6.87-9.77-4.81-1.23-9.26-3.77-14.33-4.09l2.08-.87,8.92,2c1.35,1.36,3.22,1.53,4.9,2.06,4.46,1.4,9.56,2.11,7.14,9-.59,1.68.43,3.12,2.14,4,1.44.72,3.12,1.21,3.83,2.91C294.36,113.33,291.62,117.86,294.45,122Z"/><path class="cls-1" d="M281.53,60c-3.53-.76-5.74.8-7,4V60l1-1C277.53,59.36,279.78,58.23,281.53,60Z"/><path class="cls-1" d="M291.53,67.05a11.09,11.09,0,0,1-4-4A4.14,4.14,0,0,1,291.53,67.05Z"/><path class="cls-1" d="M136.86,59c2.16.35,5.24-.85,5.41,2.65.12,2.44-2.21,2.48-4,2.38-2.49-.13-5.73-.69-6-3.11C132,58.25,135.18,59.4,136.86,59Z"/><path class="cls-1" d="M85.45,91c19.16,0,38.32.2,57.47-.12a22.22,22.22,0,0,1,15.05,5c12.74,10.08,25.74,19.83,38.56,29.8a65.39,65.39,0,0,1,5.73,5.57,4.45,4.45,0,0,1,.93,5.09,4.28,4.28,0,0,1-4.39,2.67c-12,0-24,.17-36-.12-4.87-.12-8.29-4-12.16-6.5a107.16,107.16,0,0,1-12.88-9.36c-8.19-7.24-18.35-7.73-28.33-9-17.55-2.25-35.06-5-52.67-6.54-7.37-.66-13.4-2.78-18.88-7.51-3.18-2.75-7.45-2.44-11.37-3-1.31-.17-2.72.1-4-.25-1.89-.53-4.13-1.16-3.9-3.78.25-2.85,2.68-2,4.31-2C43.8,91,64.63,91,85.45,91Z"/><path class="cls-1" d="M163.52,95a19.5,19.5,0,0,1,9,7A19.84,19.84,0,0,1,163.52,95Z"/><path class="cls-1" d="M176.52,105a19.88,19.88,0,0,1,9,7A19.81,19.81,0,0,1,176.52,105Z"/><path class="cls-1" d="M185.53,112a19.53,19.53,0,0,1,9,7A19.66,19.66,0,0,1,185.53,112Z"/><path class="cls-1" d="M172.52,102c2,.09,3.15,1.38,4,3C174.52,105,173.39,103.67,172.52,102Z"/><path class="cls-1" d="M74.8,165c-7.48-.44-14.22-3.51-20.39-7.23-7.76-4.68-15.57-9.92-20.22-18A100.82,100.82,0,0,1,25,118.91c-.73-2.39-.89-5,1.34-6.32s4.78-.73,6.7,1.42A229.69,229.69,0,0,1,51.36,138.1c4.47,6.53,9.4,10.17,17.66,9.1a18.87,18.87,0,0,1,12.39,2.85c3.41,2.15,5.87,5.24,5,9.49-.88,4.06-4.56,4.88-8.08,5.45A22.43,22.43,0,0,1,74.8,165Z"/><path class="cls-1" d="M59.51,142.07c1.08,2.32,3.19,1.78,5.12,2,5,.45,10.09-1.24,14.93,1-5.61,0-11.21,0-16.82,0-2.87,0-4.77-1-5.22-4C58.18,141.38,58.85,141.72,59.51,142.07Z"/><path class="cls-1" d="M50.2,115a5.43,5.43,0,0,1,6.09,4.11c1.49,5.6,4.56,10.27,7.66,15,1,1.6,2.76,3.71.79,5.33-1.61,1.32-3.69-.28-4.74-1.63-4.68-6-9.34-12.06-13.6-18.37C44.46,116.59,46,115,50.2,115Z"/><path class="cls-1" d="M128,82.7c9-4.74,17.17-6.44,25.79-5.64,2.53.23,5.45.58,5.55,3.76s-2.92,2.76-5.14,3.28C145.73,86.08,137.51,84.68,128,82.7Z"/><path class="cls-1" d="M156.39,88.06c8.1,0,6.13-1,6.12,5C160.4,91.48,157.88,90.4,156.39,88.06Z"/><path class="cls-1" d="M269.53,67.87c0,2.33,0,4.66,0,7,.2,7.82-4.05,10.41-9.74,12.82-3.66,1.55-6.57,0-7.22-4.3-1.45-9.54-5.48-18-10.38-26.17-3.92-6.55-9.86-9.78-16.93-11-4.48-.8-9-1.38-13.74-.27-5.27,1.24-8.06,3.31-9,8.83a3.74,3.74,0,0,1-1.13,2.65c-1.37,1.09-13.64.92-15.13-.21-1.66-1.27-1.94-2.65-.25-4.09,6.73-5.75,8.68-13.84,11-21.83,1.48-5.08-1.05-9.8-.59-14.8.53-5.74,3.63-8.2,8.42-4.94a38.05,38.05,0,0,0,16.7,6.77c4.1.57,5.31,4.32,4.84,7.6-1.12,7.87,3.9,10.49,9.69,12.89,8.28,3.42,16.43,7.15,24.8,10.34,6.32,2.41,9.38,6.46,8.68,13.27A52.88,52.88,0,0,0,269.53,67.87Z"/><path class="cls-1" d="M234.53,82.92c0,5.49-1.88,7-7,5.19-6.16-2.17-12.54-2.77-19-3-5.33-.24-6.89-1.59-7-6.76-.07-5,0-10,0-14.94,0-3.5,1.13-5,4.86-3.54a71.35,71.35,0,0,0,13.44,3.31C227.37,64.51,234.49,74.3,234.53,82.92Z"/><path class="cls-1" d="M146.58,56a36.61,36.61,0,0,0-8.35-1c-32.58-1.3-65.18-.83-97.78-1-5.67,0-11.16,1.43-16.86,1.13-8.33-.44-10.5-3.19-7.94-11,.78-2.37,1.94-4.67,2.33-7.09,1.41-8.67,7.1-11.54,15.09-13a363.46,363.46,0,0,1,77.15-6.08c23,.63,45.95.39,68.92,0,14.36-.22,13.56,3.9,11.93,15.22-2,13.74-16.75,25.07-30.67,24.78-4.61-.1-9.7,1.93-13.83-2,1-1.64,2.45-1.38,4-1,13.28,3.44,23.32-3,32.25-11.35,4.3-4,5.6-10.16,6.15-16,.41-4.34-1.5-6.13-5.84-6.13-38,0-76-.34-113.93.21-10.88.16-21.59,3.48-32.4,5.26C22.6,29.33,24.37,28.6,19.84,42.09c-3,8.81-2.47,9.47,6.71,9.48H137c2.16,0,4.37-.24,6.45.45C145.28,52.62,147.54,53.11,146.58,56Z"/><path class="cls-1" d="M77.75,76c-11.31,0-20.64,0-30,0-9.63,0-19.17-1.17-28.74-2-2-.17-3.95-.84-4-2.9-.09-2.28,2.31-2.78,4-2.94,3.3-.32,6.6-.81,9.87-1,26.26-1.72,52.56-1.18,78.84-1,7.09,0,14.17,1.21,21.24,1.91,2.34.23,5.24.57,5.24,3.44,0,2.43-2.76,2.27-4.71,2.59C111.68,77,93.7,75.75,77.75,76Z"/><path class="cls-1" d="M169.54,96c-.83-1-1.73-2-2.47-3.12-2.13-3.14-1.39-5.79,2.31-6.91,5.67-1.72,11.49-1.24,17.27-.39,3.3.49,3.13,2.91,2.72,5.32-1.43,8.55,2.07,12.75,10.8,13.12,6.46.28,13-.92,19.36,1,1.42,1,3.27,2.1,2.05,4.19-1.08,1.85-2.41,3.87-5.22,2.8,1.33-4.12-.65-4.82-4.33-4.75-5.11.1-10.27.62-15.35-.64-7.25-1.8-10-5-10.45-12.44-.35-5.79-.35-5.8-6.28-5.83-2.49,0-5-.06-7.46.08-1.21.07-2.43.31-2.84,1.59s.63,2,1.48,2.85c2.24,2.23,6.16,2.94,6.43,7a1.34,1.34,0,0,1-2,.17Z"/><path class="cls-1" d="M216.53,112c3.54-1.24,6.42-2.77,3-7,3.33.27,3,2.75,3,5a79.83,79.83,0,0,1-17.32,10.5c-2.87,1.19-5.31-1.05-7.69-2.5-5.63-5.44-12.71-9.14-18-15l.57-.46a3.12,3.12,0,0,1,2.13.08c5.64,3.19,10.32,7.68,15.46,11.54,4,3,7.58,3.24,11.8.62C211.59,113.53,213.48,111.16,216.53,112Z"/><path class="cls-1" d="M175.54,100h2l.68.17c1,.69,1.94,1.38,1.33,2.82l0,0C177.52,103,176.41,101.64,175.54,100Z"/><path class="cls-1" d="M274.54,66V79A17.79,17.79,0,0,1,274.54,66Z"/><path class="cls-1" d="M257.54,101.35c-.11-4,4.38-8.41,8.51-7.88A40.45,40.45,0,0,1,278.41,97c.88.42,2,1,2.32,1.79,2.24,5.93,7.39,10.61,7.77,17.28.28,4.82,2.92,8,6.5,10.6,2.26,1.66,4.54,3.44,2.7,6.43-1.74,2.83-4.49,2.14-7.1,1-12.11-5.56-22.78-12.87-30-24.43C258.89,106.91,257.6,103.58,257.54,101.35Z"/><path class="cls-1" d="M286.52,106.05c4.55,1.17,5.67,4.28,5.06,8.56a40.64,40.64,0,0,0-.07,5.41C290.52,115.12,289.68,110.17,286.52,106.05Z"/><path class="cls-1" d="M239.52,105.08A57.75,57.75,0,0,0,206,98a8.35,8.35,0,0,1-1.5,0c-2.53-.22-5.62-.44-5.63-3.58s3.37-3.08,5.43-3.22A54.89,54.89,0,0,1,231.39,96a10,10,0,0,0,9.12,0,.84.84,0,0,1,1.18,0c.17.65.16,1.47-.35,1.78C238.35,99.68,238.89,102.35,239.52,105.08Z"/><path class="cls-1" d="M241.54,96h-1c0-.66,0-1.33,0-2,.94-6.74-.09-13.3-1.92-19.76-3-10.49-10.35-15.71-20.8-17.46-1.79-.3-5.21-.16-4.73-3.15.35-2.21,3.2-2.83,5.41-2.58,6.8.78,13.61,1.7,18,7.94,4.94,9.18,10,18.31,11,29h0c.8,1.15.4,2.43.42,3.66-3.71.6-2.51-3.09-3.91-4.47C243,90.11,245.23,93.91,241.54,96Z"/><path class="cls-1" d="M241.54,96c2.15-3.89.13-8.41,1.59-12.91,3.47,2.43,1.86,6.7,4.41,8.91,3.09,5.11,2.52,11.28,4.81,16.62.26,1.28.14,2.63.69,3.87.71,1.57,2.41,3.39.13,4.7-2,1.15-3.15-1.07-4.54-2.09a33.85,33.85,0,0,1-7.09-7.1l-2-3C233.9,100.66,239.76,98.81,241.54,96Z"/><path class="cls-1" d="M248.52,114.05c.78.59,1.57,1.16,2.33,1.78s1.33,1.22,2.12.58.45-1.49.09-2.26c-.76-1.63-1.74-3.19-1.52-5.12,2-.62,1.1,1.56,2,2-.13,1.74,1.44,2.62,2,4l1,1a85.39,85.39,0,0,0,8.62,10.19c1.09,1,3,2.27,1.12,4-1.47,1.36-3.24.56-4.46-.6-3.23-3.07-6.58-6-9.28-9.6a10.53,10.53,0,0,1-4-4A1.36,1.36,0,0,1,248.52,114.05Z"/><path class="cls-1" d="M252.53,120.05l9,8.52c1.29,1.22,3,2.35,4.3.8,1.05-1.23-.85-2.24-1.69-3.14-2.9-3.14-6.48-5.75-7.66-10.17,3.21,1.46,4.31,5,7,7l3.24,3.74c1.17,1.36,3.21,3,2,4.57s-3.85,1.1-5.51-.05C259,128.3,254.77,125.07,252.53,120.05Z"/><path class="cls-1" d="M248.52,114.05c0,.66,0,1.32,0,2-2.72-2.33-5.93-4.22-7-8Q245,111.06,248.52,114.05Z"/><path class="cls-1" d="M247.54,88c-1.64-10.44-7.53-19.26-11-29C243,67.65,247.24,77.09,247.54,88Z"/><path class="cls-1" d="M253.53,111.05l-2-2q-2-8.51-4-17c0-1.33,0-2.67,0-4C250.59,95.43,251.27,103.45,253.53,111.05Z"/><path class="cls-1" d="M322.53,127a2.12,2.12,0,0,0,1,2c3.19,5.8,2.6,7.38-3.51,10-3.33,1.43-6.69,2.79-10.1,4-2.82,1-4-.24-4-3.1,0-1.88.75-3.54,1.22-5.27,1.89-7,1.23-9-4.6-13.63a6.35,6.35,0,0,1-3-3c-2.44-4.2-1.29-9.29-3.42-13.57,3.44-1.27,4.2,1.71,4.2,3.54,0,5.8,3,9.48,7.22,12.85s4.8,7.94,3.4,13.09c-1.16,4.25-.33,4.83,3.81,3.41.63-.22,1.23-.49,1.85-.74,5.45-2.22,5.59-2.77,2.81-7.92-1.44-2.68-4.11-5-3.14-8.56a1,1,0,0,1,1.29-.12h0C320.06,121.76,320.52,125,322.53,127Z"/><path class="cls-1" d="M296.53,104c2.24,4.41,1.67,9.41,3,14-.4-.29-1.15-.57-1.16-.87-.22-7.49-5.71-13.2-6.83-20.35-.66-4.23-3.9-5.49-7.21-6.71-7.79-2.87-7.8-2.84-7.8-11,0-4,0-8,0-12,.07-5.16.92-5.72,6-4.11a1,1,0,0,1-.08,1.38c-2.77,1.21-3.35,3.41-3.69,6.31-1.15,9.65.52,17.3,11.69,19.4a8.88,8.88,0,0,1,2.61,2.64c1.81,2.84,1.07,6.45,2.8,9.32A3.62,3.62,0,0,1,296.53,104Z"/><path class="cls-1" d="M302.53,121c5.37,2.42,7.19,6.38,5.67,12.46-.32,1.28-.85,2.5-1.24,3.76-.51,1.61-.88,3.3.31,4.71,1.48,1.75,3.12.19,4.54-.22a60.41,60.41,0,0,0,6.86-2.78c6.48-2.75,6.67-3.15,4.86-9.93,4.39,4.58,3.87,7.7-1.77,10-3.83,1.59-7.64,3.27-11.58,4.51-4.38,1.38-5.81-.11-4.81-4.53a14.39,14.39,0,0,1,.65-2.9C308.73,130.21,307.24,125.27,302.53,121Z"/><path class="cls-1" d="M317.54,120h-1c-1.24.39-1.88-.49-2.35-1.31-5-8.73-10-17.5-14.8-26.36a5.47,5.47,0,0,1-.68-2.87,3.29,3.29,0,0,1,.5-1.36c2.48-.61,2.08,2.09,3.31,2.9a5.66,5.66,0,0,0,2,4c1.21,1.54,1.73,3.49,3,5a2.14,2.14,0,0,0,1,2c1.21,1.53,1.73,3.49,3,5a11.52,11.52,0,0,0,3,6c1.21,1.54,1.73,3.49,3,5C317.53,118.71,317.54,119.37,317.54,120Z"/><path class="cls-1" d="M302.52,91l-3-3c-1.83-.54-2.37-2.4-3.59-3.56a8.29,8.29,0,0,1-1.31-2.27c-.29-1.06-.79-2.11-.09-3.19C299.37,81.59,300.68,86.49,302.52,91Z"/><path class="cls-1" d="M289.56,70c4,1.22,4.39,4.69,5,8a1.55,1.55,0,0,1-1.85-.16,4.33,4.33,0,0,1-.9-1c-.55-.91-1-1.9-1.46-2.83a9.67,9.67,0,0,1-.55-1.12C289.45,72,288.85,71.05,289.56,70Z"/><path class="cls-1" d="M289.56,70c.33,1,.65,2,1,3-3.71-1-5.51-3.53-6.06-7.16,1.5-.89,2.31.09,3.09,1.15A3.07,3.07,0,0,1,289.56,70Z"/><path class="cls-1" d="M322.53,127c-2.93-1.44-3.57-4.5-5-7C321.35,120.84,321.47,124.27,322.53,127Z"/><path class="cls-1" d="M287.56,67l-3-1c-1,.51-1.68-.09-2.26-.82a1,1,0,0,1,.27-1.19c0-.33,0-.67,0-1C284.85,63.56,287.2,64,287.56,67Z"/><path class="cls-1" d="M317.52,118c-2-1.07-2.64-2.94-3-5C316.55,114.1,317.19,116,317.52,118Z"/><path class="cls-1" d="M292.54,77l2,1c0,.32,0,.65,0,1l1,3C292.28,81.72,291.5,79.92,292.54,77Z"/><path class="cls-1" d="M311.52,107c-2-1.07-2.64-2.94-3-5C310.55,103.1,311.19,105,311.52,107Z"/><path class="cls-1" d="M307.52,100c-2-1.07-2.64-2.94-3-5C306.55,96.1,307.19,98,307.52,100Z"/><path class="cls-1" d="M94.57,94c16.81,0,33.62.06,50.44,0,3.93,0,7,1.53,9.92,3.89,8.66,6.9,17.41,13.69,26.18,20.45,5.37,4.14,10.87,8.14,16.28,12.23,1.2.9,2.48,1.93,1.84,3.71S197,136,195.47,136c-10,0-20,.1-30-.05-3.54,0-6.56-1.63-9.49-3.83-7.53-5.65-15.26-11.06-23.06-16.33-6.34-4.29-14-3.67-21.09-4.72C100,109.34,88,107.91,76,106.37q-13.26-1.71-26.54-3.31c-1.16-.14-2.39,0-3.27-.94-2.36-2.43-7.56-3.73-6.75-7.06.61-2.54,5.64-.93,8.66-1C63.61,94,79.09,94,94.57,94Z"/><path class="cls-1" d="M75.29,163.24c-8.94-1.45-16.94-5.2-24.52-10.06C38,145,31.56,132.61,27.26,118.7c-.46-1.47-1.15-2.93.43-4,1.86-1.31,3.1.09,4.25,1.29,7,7.33,12.66,15.76,18.33,24.06,4.64,6.79,9.86,10.37,18.11,9.07,3-.48,6,.24,8.82,1.09,4.31,1.29,8.06,5.61,7.16,8.46C83,163,79.12,163.1,75.29,163.24Z"/><path class="cls-1" d="M55.34,126.81A18.5,18.5,0,0,1,49.55,121c-.61-1.07-1.7-2.47-.16-3.49a2.77,2.77,0,0,1,3.92,1C54.92,120.75,55.45,123.41,55.34,126.81Z"/><path class="cls-1" d="M146.94,83c-2,0-3.32.08-4.63,0-1.5-.12-3.81.66-3.92-1.62-.07-1.57,2.12-2.12,3.47-2.19,4.28-.22,8.59-.13,12.88-.11.84,0,1.78.24,2,1.14.32,1.28-.86,1.58-1.69,2C152.24,83.75,149.19,82.65,146.94,83Z"/><path class="cls-1" d="M267.51,68c0,2.5.12,5,0,7.49a11.22,11.22,0,0,1-8.2,10.16c-3.09.85-4.32-1.06-4.73-3.6-1.44-8.83-5.59-16.48-9.5-24.41-5.66-11.46-20.61-15.38-31-14.28-6.83.72-11.91,3.36-14.34,10.23-.88,2.48-8.36,3.53-10.16,1.73-1.13-1.14-.53-2.06.3-3,5.61-6.32,7.64-14.18,9.52-22.11,1-4.21-1-8.19-.82-12.35.25-4.85,2.61-6.32,6.69-3.56s8.19,5,13.12,5.54c4.63.47,6.44,3.47,6.12,7.54-.54,6.95,3.26,10.27,9,12.58,9.39,3.76,18.72,7.67,28,11.65,3.8,1.63,6.11,4.5,6,8.9C267.47,63,267.51,65.48,267.51,68Z"/><path class="cls-1" d="M203.52,72.36c0-10.84-.08-10.22,10.74-8.75,9.69,1.31,15.61,5.93,18,15.17,1.83,7.12-.25,9.06-7,7A41.7,41.7,0,0,0,213,84c-8.88.06-9.45-.57-9.45-9.14Z"/><path class="cls-1" d="M146.58,56c-1.25-3.65-4.38-3-7.09-3Q82.55,53,25.6,53a28,28,0,0,1-4.49-.1c-3.53-.59-5.45-2.52-4.26-6.3,1.49-4.75,3.07-9.49,4.74-14.18a8,8,0,0,1,6.68-5.34c18.13-2.71,35.92-7.47,54.54-7.21,33.13.47,66.27.13,99.41.13,6.63,0,9.22,3.64,8.13,10.26-3,17.93-25.15,32-41.86,25.35-.51-.2-1.27.22-1.91.35C146.57,56,146.58,56,146.58,56Z"/><path class="cls-1" d="M19.65,70.78a48.06,48.06,0,0,1,16.72-2.64c26.45-.22,52.91-.14,79.37,0,3.62,0,7.24.65,10.86,1,1.42.13,3,.69,3,2.07.08,1.61-1.73,1.72-2.95,1.85-6.9.73-13.8,1.86-20.71,2-19.63.26-39.28.43-58.9-.08-7.55-.19-15.23-.26-22.71-1.87C22.8,72.67,21.17,72.44,19.65,70.78Z"/><path class="cls-1" d="M216.53,112c-.15.07-.31.12-.45.2-15.15,9.73-13.31,6.77-26.84-3-2.66-1.93-5.15-4.1-7.71-6.16-1.39-.93-2.57-2.12-4-3h0c-1.61-2.91-4.77-4-7.12-6-1.38-1.2-3.34-2.1-2.55-4.29s2.63-2.82,4.84-2.7c1.32.07,2.66,0,4,0,3.13.18,6.64-1.06,9.29.59,3.17,2,1.08,5.82,1.59,8.8,1.05,6.09,5.21,9.27,13.13,9.56,4.31.16,8.63,0,12.94.06,1.89,0,4.37-.85,5.35,1.45C219.88,109.59,217,110.31,216.53,112Z"/><path class="cls-1" d="M177.53,100c2,.09,3.12,1.39,4,3l-2,0Z"/><path class="cls-1" d="M267.16,96c7.33.07,11,3.4,14.47,10.07,2.48,4.83,5.18,9.21,5.6,14.88.23,3.15,3.87,4.8,5.9,7.18.8.94,2.66,1.75,1.74,3.16s-2.79.91-4.1.25A134.86,134.86,0,0,1,278.52,125a51.65,51.65,0,0,1-16.92-17.88C257.8,100.42,260.14,96,267.16,96Z"/><path class="cls-1" d="M220.26,54.27c5.05-.89,9.23.81,13.08,3.35,1.17.78,2.47,2.38,1.54,3.74s-2.35,0-3.34-.73A39.94,39.94,0,0,0,220.26,54.27Z"/><path class="cls-1" d="M249.34,108.5c-.14,1.84-1.51,1.93-2.91.74a81.59,81.59,0,0,1-6-5.91,2.32,2.32,0,0,1,0-3.54c1.5-1.48,2.57-3.9,4.78-4,1.44-.06,1.88,2.12,2.22,3.53C248.11,102.19,248.64,105.1,249.34,108.5Z"/><path class="cls-1" d="M292.54,77c.33,2.06,1,3.94,3,5l1,2c1.2,1.55,1.72,3.5,3,5,3,8.77,9,16,12.92,24.31a66.64,66.64,0,0,0,4.08,6.68c.78,4.41,4,7.58,5.84,11.47,1.21,2.57.87,4.05-1.78,5-.63.22-1.25.44-1.88.64-3.09,1-6.51,4.32-9.17,2.25s.48-5.74.93-8.72c.82-5.37-2.57-8.54-6.24-11.06-3.44-2.37-4.93-5.13-4.71-9.15.14-2.6-.51-5-3-6.4l-1-1c-2.65-2.84-.46-7.13-3-10-.67-.67-1.33-1.34-2-2a19.33,19.33,0,0,0-7.13-3.26c-3.33-1-5-2.89-4.88-6.4.1-4.45-.11-8.9.09-13.34.11-2.36.76-4.43,3.93-3l2,1,6,7h0c.67,1.3.85,2.88,2,4Z"/><path class="cls-1" d="M282.54,65c-2-.1-3.13.65-3,2.84.08,1.64.08,3.29,0,4.94-.4,7.51-1.26,15.23,9.38,16.51.6.07,1.09,1.13,1.63,1.72-2.94-1-5.93-1.94-8.81-3.12-2.6-1.07-4.28-2.91-4.21-6,.09-4.29,0-8.58,0-12.87,0-3.33,1.21-5.44,5-5C282.53,64.37,282.54,64.7,282.54,65Z"/><path class="cls-1" d="M292.53,93c3.7,2.52,1,7,3,10C292.16,100.42,293.93,96.26,292.53,93Z"/><path class="cls-1" d="M299.53,89.05c-2-1.07-2.66-2.94-3-5,1.8.73,2.16,2.54,3,4C299.54,88.37,299.53,88.71,299.53,89.05Z"/><path class="cls-1" d="M292.54,77c-1.82-.75-2.09-2.28-2-4A5.45,5.45,0,0,1,292.54,77Z"/><path class="cls-1" d="M74.34,161.29A81.23,81.23,0,0,1,47.8,148.21c-9.32-7-13.15-16.73-17.44-26.56-.45-1-1.43-2.32,0-3.05s2,.75,2.72,1.64c6.17,8.21,12.44,16.36,18.38,24.73a15.66,15.66,0,0,0,14,7.08,74.92,74.92,0,0,1,9.48.07c3.41.37,7.32,2,7.23,5.49S77.64,160.49,74.34,161.29Z"/><path class="cls-1" d="M195.77,52.87c.95-7.94,5-14.48,6.21-22.1.6-3.79-1.29-7.16-.45-10.76.28-1.22-.55-2.83,1-3.58s2.43.59,3.36,1.47c2.89,2.73,6.16,4.41,10.27,4.16,3.77-.23,5.54,1.68,5.38,5.42s-.16,7.34,3,10.1a1.64,1.64,0,0,1,.17,2.6c-1,1-2,.51-3.23.38-7.39-.85-14.61-.47-20.35,5C199,47.64,197.52,50.42,195.77,52.87Z"/><path class="cls-1" d="M258.53,53.05c5.43,2.29,6.73,6.53,6.07,12a80.34,80.34,0,0,0-.07,9.94,7.11,7.11,0,0,1-2.76,6.1c-2.07,1.52-4.61,1.5-5-1.37-1.7-11.94-9.19-21.29-14.19-32.68l11,4C255.1,52,256.93,52.2,258.53,53.05Z"/><path class="cls-1" d="M258.53,53.05a5.82,5.82,0,0,1-5-2A5.74,5.74,0,0,1,258.53,53.05Z"/><path class="cls-1" d="M205.53,72a20.68,20.68,0,0,0,0-2.49c-.63-4.84,1.54-5.74,5.77-4.42,2.81.88,5.84,1.08,8.65,2,5.53,1.73,10.25,8.17,10.58,13.86.14,2.44-1.07,3.74-3.22,3-5.24-1.83-10.72-1.91-16.1-2.37-4.84-.42-6.33-2.61-5.68-7A17.1,17.1,0,0,0,205.53,72Z"/><path class="cls-1" d="M124.67,23c18.15,0,36.3-.1,54.44.11,2.53,0,5.8-2.56,7.69,1,1.67,3.12.42,6.39-.25,9.67-2.85,14-26.27,26.8-40.56,17.48-2.24-1.46-4.77-1.22-7.26-1.22H26.35c-7.44,0-7.81-.55-5.39-7.77.58-1.73,1.28-3.44,1.69-5.21,1.27-5.6,5-7.41,10.42-8.12,10.8-1.43,21.53-3.43,32.25-5.38A33,33,0,0,1,71.25,23Z"/><path class="cls-1" d="M120.6,71.15c-7.87,2.61-81.53,2.59-88.23.22C38.27,68.26,110.13,67.88,120.6,71.15Z"/><path class="cls-1" d="M187.54,103.84A92.34,92.34,0,0,1,171.07,92c-1.77-1.62-.84-2.79,1.1-2.9,3.48-.19,7-.11,10.48,0A2.58,2.58,0,0,1,185.44,92C185.15,96.06,186.5,99.76,187.54,103.84Z"/><path class="cls-1" d="M190.64,105.77a68.74,68.74,0,0,0,20.54,2.32c1.32,0,3.45-.88,3.8,1.12.27,1.54-1.59,2.28-2.89,3.05C202.93,117.7,198.8,116.6,190.64,105.77Z"/><path class="cls-1" d="M289.68,128.68a48.76,48.76,0,0,1-20.77-14.18c-2.93-3.44-6.28-6.74-7.05-11.7-.51-3.27.32-4.58,3.65-4.82,4-.29,7.53,1,11.08,2.28,1,.37,2.42,1.45,2.44,2.23.14,6.19,6.52,9.81,6.36,16.19C285.29,122.38,287,125.69,289.68,128.68Z"/></g></g></svg>