<?xml version="1.0" encoding="utf-8"?>
<!-- Generator: Adobe Illustrator 23.0.4, SVG Export Plug-In . SVG Version: 6.00 Build 0)  -->
<svg version="1.1" id="Layer_1" xmlns="http://www.w3.org/2000/svg" xmlns:xlink="http://www.w3.org/1999/xlink" x="0px" y="0px"
	 viewBox="0 0 658.4 658.4" style="enable-background:new 0 0 658.4 658.4;" xml:space="preserve">
<style type="text/css">
	.st0{fill:url(#SVGID_1_);}
	.st1{display:none;fill:url(#SVGID_2_);}
	.st2{display:none;fill:url(#SVGID_3_);}
	.st3{display:none;fill:url(#SVGID_4_);}
	.st4{fill:#FFE700;stroke:#FF00E1;stroke-miterlimit:10;}
</style>
<g>
	<g id="Layer_1-2">
		
			<radialGradient id="SVGID_1_" cx="345.28" cy="250.75" r="484.41" gradientTransform="matrix(1 0 0 1 0 -132)" gradientUnits="userSpaceOnUse">
			<stop  offset="0.41" style="stop-color:#001EFF"/>
			<stop  offset="0.5" style="stop-color:#001DFB"/>
			<stop  offset="0.61" style="stop-color:#001AED"/>
			<stop  offset="0.72" style="stop-color:#0015D7"/>
			<stop  offset="0.83" style="stop-color:#000EB9"/>
			<stop  offset="0.94" style="stop-color:#000692"/>
			<stop  offset="1" style="stop-color:#000079"/>
		</radialGradient>
		<circle class="st0" cx="329.2" cy="329.2" r="329.2"/>
		
			<linearGradient id="SVGID_2_" gradientUnits="userSpaceOnUse" x1="329.2" y1="644.38" x2="329.2" y2="169.12" gradientTransform="matrix(1 0 0 1 0 -132)">
			<stop  offset="0.36" style="stop-color:#000000"/>
			<stop  offset="0.45" style="stop-color:#010204"/>
			<stop  offset="0.53" style="stop-color:#050A0F"/>
			<stop  offset="0.61" style="stop-color:#0B1622"/>
			<stop  offset="0.69" style="stop-color:#14273D"/>
			<stop  offset="0.76" style="stop-color:#203D5F"/>
			<stop  offset="0.84" style="stop-color:#2E578A"/>
			<stop  offset="0.91" style="stop-color:#3F77BC"/>
			<stop  offset="0.99" style="stop-color:#519BF4"/>
			<stop  offset="1" style="stop-color:#55A2FF"/>
		</linearGradient>
		<ellipse class="st1" cx="329.2" cy="158.9" rx="210.9" ry="138.6"/>
		
			<linearGradient id="SVGID_3_" gradientUnits="userSpaceOnUse" x1="728.3621" y1="169.2969" x2="728.3621" y2="-78.2831" gradientTransform="matrix(0.9767 0.2147 -0.2147 0.9767 -315.7708 -25.3657)">
			<stop  offset="0.36" style="stop-color:#000000"/>
			<stop  offset="0.45" style="stop-color:#010204"/>
			<stop  offset="0.53" style="stop-color:#050A0F"/>
			<stop  offset="0.61" style="stop-color:#0B1622"/>
			<stop  offset="0.69" style="stop-color:#14273D"/>
			<stop  offset="0.76" style="stop-color:#203D5F"/>
			<stop  offset="0.84" style="stop-color:#2E578A"/>
			<stop  offset="0.91" style="stop-color:#3F77BC"/>
			<stop  offset="0.99" style="stop-color:#519BF4"/>
			<stop  offset="1" style="stop-color:#55A2FF"/>
		</linearGradient>
		<path class="st2" d="M291.5,93C300,54,355,33,414.3,46s100.3,55.2,91.8,94.1c-8.6,39-63.5,60-122.8,47S282.9,131.9,291.5,93z"/>
		
			<linearGradient id="SVGID_4_" gradientUnits="userSpaceOnUse" x1="488.476" y1="252.5206" x2="564.7859" y2="300.6606" gradientTransform="matrix(1 0 0 1 0 -132)">
			<stop  offset="0.36" style="stop-color:#000000"/>
			<stop  offset="0.45" style="stop-color:#010204"/>
			<stop  offset="0.53" style="stop-color:#050A0F"/>
			<stop  offset="0.61" style="stop-color:#0B1622"/>
			<stop  offset="0.69" style="stop-color:#14273D"/>
			<stop  offset="0.76" style="stop-color:#203D5F"/>
			<stop  offset="0.84" style="stop-color:#2E578A"/>
			<stop  offset="0.91" style="stop-color:#3F77BC"/>
			<stop  offset="0.99" style="stop-color:#519BF4"/>
			<stop  offset="1" style="stop-color:#55A2FF"/>
		</linearGradient>
		<path class="st3" d="M569.9,155.3c0,14.6-11.8,26.3-26.4,26.3c-14.6,0-26.3-11.8-26.3-26.4s11.8-26.3,26.4-26.3l0,0
			C558.1,128.9,569.9,140.7,569.9,155.3L569.9,155.3z"/>
		<g id="Layer_1-2-2">
			<path class="st4" d="M520.7,376.4c4,5.3,5.4,12,3.9,18.4c-2,10.3-0.6,20.7-2.3,31c-1.5,8.7-4.2,13.1-12.9,14.6
				C484.3,444.9,459,449,434,454c-12.8,2.6-25.6-1.3-38.4-3.6c-17.8-3.4-35.8-6.6-53.7-9.6c-5.4-0.9-10.1-2.9-12.8-7.4
				c-5.8-10-15.8-12.1-25.5-14.8c-23.4-6.3-46.8-12.4-70.2-18.8c-10.4-2.9-20.3-6.8-26.1-16.9c-1.6-2.8-4.3-3.9-7.7-3.7
				c-5.8,0.2-11.6,0.2-17.4,0c-10.5-0.2-18.8-4.2-23.8-13.8c-1.6-2.9-3.8-2.9-6.4-2.9c-8.1-0.1-16.1,0.3-24.2-1.3
				c-5.7-1.1-9.2-3.9-9.7-9.9l1-0.3c0.7,0.2,1.4,0.6,1.9,1.1c3.4,4.4,7.9,6.1,13.3,5.8c3.5-0.3,6.9,0.2,10.4-0.1
				c8.1-0.5,14.6,1,19.3,9.1c3.5,6.1,10.4,8.3,17.3,8.8c5.5,0.4,11.3,0.9,16.7-0.2c6.1-1.2,9.8,1,12.8,5.8c2,3.2,4.3,6.1,8.1,7.4
				c13.9,6.8,29.1,9.2,43.7,13.5c17.3,5,34.8,9.7,52.3,14.3c6.1,1.6,11.5,5.3,15.3,10.3c1.5,2.5,3.4,4.8,5.7,6.5
				c6.9,4.5,15.1,4.2,22.7,5.7c17.1,3.3,34.2,5.9,51.3,9.4c13.2,2.7,25.8,0.4,38.5-1.9c8.2-1.6,16.4-3.2,24.5-4.9
				c11.3-0.2,22.3-3.4,33.4-4.7c3.1-1,6.1-2.4,8.7-4.4c2.5-1.4,2.5-3.8,2.8-6.1c0.1-0.6,0.2-1.2,0.3-1.8c0.7-2.3,0.6-4.7,1.2-6.9
				c1.1-4.7,0.3-9.4,0.6-14.1c-0.1-2.2,0.1-4.3,0.5-6.5c1.1-3.1,1.3-6.6,0.3-9.8c-0.4-1.3-1-2.5-1.4-3.7c-0.3-1-0.4-2-0.4-3
				C519,378.7,519.6,377.3,520.7,376.4z"/>
			<path class="st4" d="M330,428c-7.1-9.1-18-10.5-28.1-13.3c-24.3-6.8-48.8-13.5-73.2-20c-3.6-1-6.8-2.9-10.1-4.3
				c-3.9-2.6-7.1-6.1-9.4-10.1c-2-3.5-4.7-5-8.6-4.3c-6,1-12,0.6-18.1,0.4c-9.4-0.2-17.1-3.7-21.6-12.6c-1.8-3.6-4.7-4.8-8.5-4.8
				c-6.5,0-13,0.1-19.5,0c-8.9-0.2-13.9-4.8-13.9-13.8c0-9.9-1.7-20,3.9-29.2c1-1.6,0.6-3.6,0.2-5.5c-1.4-6-1-12-0.9-18
				c0.2-9.1,3-12.8,11.7-15.7c1.6-0.4,3-1.2,4.2-2.3c0.4-0.5,0.9-1.1,1.2-1.7c2.5-3.9,5.9-7.2,9.7-9.7c4.9-3.2,7.6-8.6,10.6-13.5
				l1.6-2.6c2.2-5,4.9-9.4,10.7-11.2c7.8-1.2,15.8-0.1,23.6-2.2c1.4-1.2,3.3-1,4.6-2.2l2.8-2.8c1.6-2.5,2.6-5.5,5.5-6.8l0,0
				c1.6-2.6,2.9-5.3,5.5-6.9l1.4-1.4c2.6-1.3,5-2.9,7.7-3.9c1.2-0.2,2.3-0.2,3.6-0.3c10.8-0.3,21.7-1.3,32.6,0.5
				c0.8,0.3,1.4,1.1,1.3,2c-0.4,0.7-1.1,1.3-1.8,1.6c-10.3,1.6-20.7,0-30.9,1c-4.8,1.4-9,4.1-12.2,7.9c-1.8,1.6-3.5,3.5-4.7,5.5
				c-0.5,0.8-1.1,1.5-1.7,2.2c-3,2.9-5.5,6.1-9.1,8.5c-1.6,0.9-3.2,1.5-4.9,1.7c-6.1,0.7-12.1-0.3-18.1,0.7c-1.2,0.5-2.3,1-3.6,1.6
				c-2.6,0.7-4.8,2.6-5.7,5.1c-2.6,4.2-5.3,8.4-8.2,12.5c-2.6,2.8-5.3,5.5-8.1,8.1c-0.5,0.4-1,0.9-1.6,1.2c-1.8,1-3.2,2.6-4.2,4.4
				c-2.3,4.4-5.5,7.7-10.7,8.8c-2.7,0.7-5,2.6-6.1,5.1c-0.5,8-1.6,16,1.1,23.8c1.6,4.2-0.7,7.6-3,10.7c-1,1.5-1.7,3.1-2.2,4.8
				c-1,6.7-1,13.5-0.2,20.2c0.6,2.7,1.5,5.1,4.5,5.9c6.8,1,13.8,0.5,20.7,0.4c6.9-0.1,12.1,2.1,15.3,8.3c1.2,2.5,3.2,4.6,5.6,5.9
				c2.3,1.6,4.9,2.6,7.7,3.2c6.7,1.4,13.3,0.7,20,0.4c4.8-1.7,10.1-0.1,13.2,4c0.8,1,1.5,2.3,2.1,3.4c2.5,4.2,5.5,7.6,10.5,9.1
				c18.4,6.5,37.4,10.6,56.1,15.9c10.9,3.1,21.8,6.1,32.8,9c7.3,1.9,13.2,5.5,17.2,12C330.9,425.8,330.8,427.1,330,428z"/>
			<path class="st4" d="M260.4,210.6h-34.8c0.3-3.4,3.1-2.6,5.1-2.7c3.4-0.3,6.8,0,10.1-0.1c8.1-0.3,16.4,0.7,24.5-0.7
				c1.4,0,2.8-0.7,4.2-0.6c23.6,0.7,46.9-2.3,70.7-1.5c1.8-0.2,3.7,0.3,5.3,1.3l4.1,0.1c1,1,2.3,0.5,3.4,1c2.4,0.5,5,0.4,7.4-0.3
				c6.1-0.5,11.6,4.2,17.9,2.3c3.6-0.3,7.4-0.4,11.1-0.2c1.8,0.4,3.6,1.3,4.9,2.6c0.4,0,0.9,0,1.3,0.1c3.8,2.2,8,3.6,11.7,6.1
				c3.1,2.6,7.1,4.2,9.4,7.8c0.4,0,0.9,0,1.3,0.1c2.4,1.4,5,2.3,7.7,2.8c10,1.6,18.5,6.3,26.1,13c1.6,1.7,2.1,4.1,3.3,6
				c0.6,1.8,1.9,3.4,3.6,4.3c4.3,0.9,8.7,0.2,13.2,0.4c0.7,0,1.4,0.2,2.1,0.3c2.9,1.4,6.3,1.9,9.4,3.4c7.8,4.9,15.8,8.1,25.4,7.6
				c6.6-0.3,13.2,1.6,19.7,3c5.5,1.2,8.5,4.8,9.5,10.7c1.4,8,1.8,16.1,1.2,24.2c-0.7,9.3,2.4,18.4,0.3,27.6c-1.2,5.2-3.4,9-8.6,10.7
				c-3.9,0.1-7.8,0.5-11.6,0.8c-0.6,0.2-1.3,0.3-1.9,0.5c-2.6,0.2-4.8,1.8-5.8,4.2c-0.2,0.6-0.4,1.1-0.7,1.6c-1.1,3.2-1,6.8,0.6,9.8
				c1.7,4.9,5,9.4,5.5,14.7c-0.1,0.7-0.3,1.3-0.8,1.8c-3.6,0.8-3.7-2.9-5.6-4.3c-0.9-1-1.4-2.2-1.6-3.4c-0.3-2.4-1-4.8-2.3-6.9
				c-0.3-0.6-0.5-1.2-0.8-1.8c-2-4.4-0.9-8.7,0-13.2c1.1-4.5,4.3-6.7,8.5-7.9c4.2-0.9,8.7-0.1,12.9-1.2c3.8-1,6.1-2.8,6.8-6.7
				c1.5-5.8,0.2-11.4-0.3-17.1c-0.9-8.7-0.1-17.6-0.3-26.3c-0.3-8.7-2.2-11.1-10.4-12.7c-5.9-1.2-11.7-2.7-17.8-2.3
				c-6.2,0.3-12.5-1.2-17.9-4.3c-3.2-1.8-6.5-3.5-10-4.8c-4.3-2.2-8.9-2.3-13.5-2c-7.1,0.4-12-2.4-14.5-9.3
				c-3.1-6.1-8.7-10.7-14.6-11.7c-13.8-2.4-24.1-11-35.5-17.5c-4.2-2.4-8.7-4.3-13.2-5.7c-14.9,1.9-29.3-2.6-43.8-3.7
				c-5.8-0.4-11.3-1-17.1,0c-5.5,0.8-11.1,0.9-16.6,0.3c-13-0.8-25.8,1.7-38.7,1.4C266,212.5,262.9,213,260.4,210.6z"/>
			<path class="st4" d="M515.3,372.1l-5.5-15.2c-1.1-3.6-1.1-7.5,0-11.2l0,0c1.5-2.7,4-4.7,6.9-5.5l0,0c4.1-1.8,8.5,0.4,12.6-1.4
				c6.6-3,10.5-9,9.3-16.7c-1.6-10-0.3-19.8-1-29.8c-0.3-5.3-0.8-10.6-1.6-15.8c-0.6-4.8-4.6-8.5-9.4-8.7c-8.9-1-17.6-3.2-26.8-3
				c-6.9,0.2-12.3-4.6-17.9-8.1c-0.8-1-2.5-0.5-3-1.9c0.1-0.3,0.2-0.6,0.3-0.9c0.3,0,0.5-0.1,0.7,0c13.2,8.9,28.8,8,43.6,10.5
				c15.4,2.6,15.3,6.7,16.8,20.3c1.3,12.1-0.6,24.4,1.5,36.6c0.8,4.6-0.7,9.3-2.3,13.5c-3,8.5-11.3,6.9-17.8,8
				c-9.8,1.6-12.6,5.4-8.8,14.5c2.6,6.4,6.1,12.5,8,19.1v4.2C515.6,379.9,516.6,375.3,515.3,372.1z"/>
			<path class="st4" d="M345.4,206.4l-80.8,1.5c-7.8,1.8-15.9-0.6-23.6,1.4c-5.1,0.8-10.5-1.6-15.3,1.4h-2.8c-1.3,1-3,1-4.3,0
				c4.3-3.6,9.6-4,14.9-4.2c22.6-0.5,45.2-0.3,67.8-1.7c12.7-0.8,25.4-0.8,38-1C341.5,203.7,344.6,202.7,345.4,206.4z"/>
			<path class="st4" d="M473.4,253.8H472c-5-1.9-10.4,0.4-15.3-1.4c-1.7-0.6-2.9-2.3-2.8-4.2c-1-1.8-1.1-4.1-2.8-5.5
				c-8.2-6.1-16.7-11.4-27.3-12.7c-2.6-0.2-4.9-1.6-6.1-4c13.1,1,24.7,5.4,34.6,14.3c0.9,0.8,2.1,1.6,2.3,2.6
				c1.4,8.5,7.4,8.7,14.1,8.2c3.7-0.5,7.4,0.5,10.5,2.8l0,0C477.3,254.9,475.1,254.9,473.4,253.8z"/>
			<path class="st4" d="M118.3,323.5c4.2-10.9,2.5-22.3,2.8-33.4c0.2-8.7,2.8-12.6,10.7-14.8c4-1,6.4-2.5,8-6.5
				c1.4-3.8,5-5.9,9.2-6.6c-1.5,4.7-7.2,6.2-8.4,11.2l0,0c-1.6,2.5-4.2,4.2-7.2,4.8c-6.9,1.8-9.8,4.6-10,12
				c-0.3,6.6-1.1,13.3,1,19.9c0.6,1.9,1.1,4.2,0,6.1c-2.8,4.8-4.7,10-4.2,15.7c0.2,1.3-1,2-2.3,1.2
				C117.6,329.8,117,326.6,118.3,323.5z"/>
			<path class="st4" d="M171.3,237.2c-4.2,2.3-6.2,6.8-9.8,9.8c1.2-8.6,6.7-13.5,16.1-13.9c7.6-0.3,15.2,0.3,22.8-1.5l-2.8,2.9
				c-2.9,1.6-6.2,0-9.2,1.1c-4.1,0.6-8.1-0.1-12.2,0.5C174.7,236.8,172.6,235.7,171.3,237.2z"/>
			<path class="st4" d="M140.6,273.3c0-5.8,5.5-7.4,8.4-11.2c4.4-3.6,5.9-9.6,11.1-12.6c-0.1,5.9-4.3,9.4-8.1,13
				S143.7,269.1,140.6,273.3z"/>
			<path class="st4" d="M352.2,207.9c-1.1,0.2-2.3-0.4-2.8-1.4c9.4-0.5,18.8-0.2,27.9,2.8l0.5,0.7l-0.5,0.7
				c-6.4,1.8-12-2.3-18.1-2.8C357,208.9,354.5,208.9,352.2,207.9z"/>
			<path class="st4" d="M118.3,323.5v9.8c2.2,2.5,1.1,5.5,1.4,8.3c-0.3,3.2,0.9,6.8-1.4,9.8l0,0C116,342.2,116,332.6,118.3,323.5z"
				/>
			<path class="st4" d="M406.5,219c-3.6-2.4-8.5-2.9-11.2-6.9c5.4,0.5,10.4,2.9,14,6.9C408.6,219.8,407.4,219.8,406.5,219L406.5,219
				z"/>
			<path class="st4" d="M394.1,212l-4.2-1.4c-4-1.9-8.5,0.4-12.6-1.4l0,0C383.2,207.7,389.5,205.1,394.1,212z"/>
			<path class="st4" d="M406.5,219h2.9c3.6,0.6,6.3,3.4,6.9,6.9C413.1,223.6,409.8,221.3,406.5,219z"/>
			<path class="st4" d="M214.4,214.8c-1.2,2.8-2.5,5.5-5.5,6.9C208.7,217.9,210.4,215.4,214.4,214.8z"/>
			<path class="st4" d="M208.9,221.8c-1.9,2.3-2.6,5.5-5.5,6.8C203.2,224.8,204.8,222.3,208.9,221.8z"/>
			<path class="st4" d="M218.5,210.6h4.3c-1.7,2-4.4,3-7,2.7L218.5,210.6z"/>
			<path class="st4" d="M118.3,341.6v-8.3c4-11.9,5.4-24.3,4.2-36.8c-0.4-3.5-0.3-7,0.5-10.4c1.1-4.5,3.7-7.6,8.2-8.3
				c3.7-0.5,6.3-2.6,9.4-4.4c-0.2,3.6-2.9,5-5.5,5.2c-7.8,0.7-9.5,6.1-11,12.2c-2.3,9.3,4.6,18.8,0,27.6s-2.6,18.2-2.9,27.3
				c-0.3,8.4,3.6,12.1,12.2,12.6c6.8,0.3,13.4,0.2,20.2,0c3.6-0.4,7,1.6,8.3,4.9c4.3,8.6,11.6,12.1,21,11.9c1.4,0.1,2.8,0.1,4.2,0
				c14.5-3,24.7,2.8,31.6,15.3c-4.8-1-6.9-4.9-9.4-8.6c-2.4-3.6-5-5.1-10.2-4.5c-11.2,1.2-22.7,2.4-32.6-5.4c-1.4-1.1-3.4-2.3-4-3.8
				c-2.9-8.5-9.6-8.8-17-8.3c-4.8,0.3-9.8,0.2-14.5,0c-5.5-0.3-9.8-2.6-11.3-8.3C117.9,348.2,120.2,344.6,118.3,341.6z"/>
			<path class="st4" d="M473.5,443.2c-17.1,3.1-34,8.8-51.6,8.2c-15.2-0.5-30-4.8-44.9-7.2c-11.8-1.9-23.5-4.3-35.2-6.5
				c-3-0.5-5.9-1.3-7.5-4.2c1.6-1.4,3.4-0.7,5.1-0.4c1,0.3,2.2,0.5,3.2,0.9c14.4,3.4,28.9,5.7,43.5,8c11.5,2.3,23,4.5,34.6,6.1
				c11.2,1.6,21.8-2.8,32.7-4.5c6.5-1,12.9-3.6,19.7-2.3c0.7,0.3,1,1.2,0.6,1.9C473.6,443.1,473.5,443.2,473.5,443.2z"/>
			<path class="st4" d="M515.3,372.1l5.5,8.3v2.9c2.8,6.1,0.3,12.4,0.7,18.5c0,0.9-0.1,1.6-0.3,2.4c-0.9,6.9-0.1,13.9-1.8,20.8v1.4
				c-1,2.3-0.9,5-2.8,6.9c-2.7,1.6-4.9,4.1-8.4,4.2c-1.6,1.1-3.3,0.5-5,0.6c-0.6-0.2-1-0.8-1-1.4c2.3-4.8,9-2.5,11.4-7.2
				c0.3-0.5,0.5-1.1,0.8-1.6c1-3,0.3-6.3,1-9.4c0.1-0.7,0.3-1.3,0.4-2c0.9-6.2-0.1-12.6,0.6-18.9c0.1-0.7,0.3-1.3,0.4-2
				c1.4-4.6,1.1-9.5-0.9-13.9c-0.3-0.6-0.4-1.2-0.6-1.8c-0.3-2.2-1.9-4.2-0.1-6.4C515.2,373.2,515.3,372.7,515.3,372.1z"/>
			<path class="st4" d="M502.7,437.7h5.5c-11.3,3.1-23,4.9-34.8,5.5v-1.4C482.9,438.6,492.4,435.9,502.7,437.7z"/>
			<path class="st4" d="M338.5,434.7l-4.3-1.3c-2.2-1.3-4-2.8-4.2-5.5v-2.8C334.7,426.6,338.2,429.3,338.5,434.7z"/>
			<path class="st4" d="M519.4,425.1c0.8-6.9-1.6-14.1,1.4-20.9c1.1,4.6,1.1,9.4,0,13.9C520.4,420.5,521.7,423.1,519.4,425.1z"/>
			<path class="st4" d="M520.7,402.9v-19.5c1,0.6,1.5,1.6,1.4,2.8c1,3.2,1,6.6,0,9.8v6.9C521.7,403.5,521.3,403.5,520.7,402.9z"/>
			<path class="st4" d="M520.7,402.9h1.4c-0.7,5.1,1.6,10.5-1.4,15.3V402.9z"/>
			<path class="st4" d="M522.2,395.9v-9.8C524.4,389,524.4,393,522.2,395.9z"/>
			<path class="st4" d="M118.3,341.6c2.6,2.9,0.9,6.5,1.4,9.8h-1.4V341.6z"/>
			<path class="st4" d="M516.6,433.5c0.6-2.4,1-5,2.8-6.9C519.4,429.2,519.9,432.1,516.6,433.5z"/>
			<path class="st4" d="M387.1,213.4c9.6,2.7,18.4,7.5,25.9,14.2c5,4.5,11.3,4.9,17.2,6.7c8.1,2.4,15.3,6.1,19.5,13.9
				c0.7,0.9,0.8,2.1,0.2,3c-0.7,0.3-1.5,0.2-2.1-0.2c-8.1-5.7-15.7-12.5-26.4-13.3c-5.5-0.5-9.9-3.6-14.3-7.4
				c-9.1-7.7-19-15.1-32.3-10.2c-2.4,1-5.1,0.9-7.4-0.3c-4.5-4.7-10-3-15.4-2.3c-1.1,0.1-2.3,0-3.3-0.3c-9.4-5.3-19.1-3.1-29-1.6
				c-4.9,0.1-9.8,0-14.7,0.1c-7.9,0.2-15.8-0.8-23.6,1.2c-5.5,0.3-10.9,0.1-16.4,0.2c-7.2,0.3-14.4-0.9-21.5,1
				c-1.6,0.3-3.2,0.3-4.8,0.2c-11.2-2.1-19.1,2.4-24.4,12.1c-4.2,3.9-6.3,9.6-11.7,12.3c-4,0.9-8.1,1-12,2
				c-4.1,0.2-8.1,0.1-12.1,0.1c-1.4,0-2.8-0.2-4.2-0.5c-0.7-0.2-1.3-0.5-1.8-1c-0.4-0.5-0.3-1.3,0.1-1.8l2.8-1.4
				c6.9-1.9,14,0.7,20.9-1.4l4.2-1.4c3.4-2.2,6.2-5,8.3-8.3c0.4-0.4,0.9-1,1.4-1.4c1.5-1.8,2.9-3.6,4.2-5.5
				c2.4-4.4,6.4-6.8,11.2-8.3c8.7-1.4,17.4-0.2,26.1-0.7c2.5-0.1,5,0.7,7.4-0.7h1.4c8-1.7,16-0.4,24.1-0.9c19.3-1,38.7-3,57.9-0.9
				c9.2,1,18.7-0.5,27.9,3.6C375.3,216.1,381.4,213.2,387.1,213.4z"/>
			<path class="st4" d="M338.5,434.7l-8.5-9.6c-7.7-9.1-18.8-11.2-29.4-13.9c-23.2-6.2-46.4-12.6-69.4-18.9c-2.9-1-5.6-2.1-8.3-3.4
				c-3.7-2.8-7-6.1-9.8-9.7c-1-0.6-1.5-1.6-1.4-2.8c-0.6-0.7-0.9-1.6-0.8-2.6c0.1-0.6,0.2-1.3,0.3-1.9c1-1.6,0.3-5.5,4.2-3.1
				c1.4,11.3,8.3,16.4,18.9,19.1c30,7.9,59.9,16.5,89.8,24.4c2.3,0.5,4.4,1.5,6.3,2.8c1.6,1.4,2.9,3.1,3.6,5.1
				c2.8,6.4,6.9,10.9,14.7,10.2c1,0.1,2.2,0.3,3.1,0.6c9.6,2,19.7,2,28.7,6.8c-1.3,4-4.7,2.1-7.2,2.6c-10.8-1.3-21.4-3.7-32-5.5
				C340.3,434.8,339.3,434.8,338.5,434.7z"/>
			<path class="st4" d="M387.1,213.4c-7.6,1.8-15.6,1.6-23.1-0.5c-8.1-2.2-16.9-2.2-25.4-2.1c-26.1,0.2-52.2,0.8-78.4,1.3v-1.4
				c20.3,0.2,40.7-0.5,60.9-2.1c14.4-1,28.1,1.7,41.8,2.8C371,212,379.2,211.9,387.1,213.4z"/>
			<path class="st4" d="M128,285.8c8.1-5.2,15.6-11.3,22.3-18.1c0.5,1.4,0.5,2.9-0.1,4.2c-4.5,16.7-3.3,13.4-18.1,14.7
				c-0.7,0.2-1.5,0.3-2.2,0.2l-1-0.3L128,285.8z"/>
			<path class="st4" d="M125.2,322c3.3-3.9,4.1-7.5,2.4-13.2c-2.3-7.5-2.2-15.6,0.4-23l0.1,0.1c3.6,6,0.9,12.6,2.2,19
				c0.5,1.3,0.9,2.6,1.4,3.9c0.3,0.6,0.4,1.2,0.7,1.8c1,2.7,2.5,5.4,1,8.3c4.3,0.3,8.7-0.1,13,0c3.2,0.1,6.4-0.2,9.6-0.3
				c0.8,0.1,1.5,0.5,1.9,1.1c0.2,0.8,0.1,1.6-0.3,2.3c-3.9,3.3-8.6,1.5-12.9,2c-5.8-0.3-11.6,0.5-17.4-0.5
				C126.4,323.2,125.7,322.7,125.2,322z"/>
			<path class="st4" d="M178.2,372.2c-2.6,0.2-5.2-0.8-6.9-2.8c-1.1-1.4-4.1-1.8-2.5-4.7c3.9-1.2,6.1,2.5,9.5,3
				c6.4,0.2,12.7-0.5,19.1-0.3c2.9,0.2,5.7-0.3,8.7-0.3c2.8,1.3,7.1,1.2,5.7,6.3l0,0c-3.8,0.4-6.9-4.2-11.2-1.4l0,0
				C193.2,373.3,185.6,373.3,178.2,372.2z"/>
			<path class="st4" d="M149,270.7c0.4-1,0.9-2,1.4-3l0,0c3.4-2.2,6.1-5,8.4-8.3l8.4-12.6c1.7-1.6,2.3-4.8,5.5-4.2l0.2,0.2
				c0.6,0.7,0.8,1.7,0.3,2.6c-4.9,8.3-10.4,16.3-16.3,24C154.9,271.9,152.1,273,149,270.7z"/>
			<path class="st4" d="M125.2,322h1.6c3.4,5.1,1.4,10.8,1.8,16.2c0.3,3.5,0,6.9,0,10.4c0,1.1,0.1,2.3,0.2,3.5
				c0,0.3-0.1,0.8-0.2,1.1l-0.6,1c-3.5-0.3-4.3-2.6-4.2-5.5c-1-7.4-1-14.9,0-22.3C123.9,324.7,123.6,323.1,125.2,322z"/>
			<path class="st4" d="M168.5,365.1c1,1.4,1.8,2.9,2.8,4.4c-3.8-0.6-5.9-3.5-7.4-6.7c-2.5-5.5-6.8-7.3-12.7-7.4
				c-7.7-0.3-15.5,1.6-23.1-1.2V354c11.4-5,32-2.1,38.8,5.5C168.3,361.1,169.3,362.9,168.5,365.1z"/>
			<path class="st4" d="M259,212c-5.6,2.9-11.7,1-17.6,1.4c-5.3,0.3-10.7,0-15.9,0c7.1-2.9,14.5-0.7,21.7-1.4
				C251.1,211.8,255.1,212,259,212z"/>
			<path class="st4" d="M188,234.4h9.8c-8.5,3.6-17.5,2.5-26.5,2.9c0.9-1.7,2.6-1.4,4.2-1.5C179.4,233.9,183.9,236.2,188,234.4z"/>
			<path class="st4" d="M178.2,372.2h22.3C193.2,374.5,185.5,374.5,178.2,372.2z"/>
			<path class="st4" d="M123.9,326.2v22.3C121.6,341.3,121.6,333.5,123.9,326.2z"/>
			<path class="st4" d="M196.3,238.5c-6.8,3-13.9,0.6-20.9,1.4C182.2,236.9,189.3,239.3,196.3,238.5z"/>
			<path class="st4" d="M213,379.2c3.8,2.7,7.1,6,9.8,9.8C218.1,387.5,214.5,383.8,213,379.2z"/>
			<path class="st4" d="M208.8,228.7c-0.9,4.2-4.2,7.4-8.3,8.3C202.8,233.8,205.5,231.1,208.8,228.7z"/>
			<path class="st4" d="M158.6,259.4c-0.9,4.2-4.2,7.4-8.4,8.3C152.5,264.5,155.4,261.6,158.6,259.4z"/>
			<path class="st4" d="M200.4,372.2c4.2-3.5,7.5,0,11.2,1.4v2.8C208.3,374,204.9,371.6,200.4,372.2z"/>
			<path class="st4" d="M172.6,242.7l-5.6,4.2c0.3-2.9,2.6-5.4,5.5-5.5C172.6,241.7,172.6,242.2,172.6,242.7z"/>
			<path class="st4" d="M214.4,221.8c-0.1,2.8-1.9,4.4-4.2,5.5C210.4,224.6,212.2,223,214.4,221.8z"/>
			<path class="st4" d="M509.7,365.3c0.4,1,0.9,1.9,1.4,2.8c1.6,4.3,3.9,8.3,5.5,12.6l0,0c1.5,5,3.2,10,1.4,15.3l0,0
				c-2.1,7.4,0.5,15-1.4,22.3l0,0c-2,3.6,0.4,7.6-1.4,11.2l0,0c-0.9,1-1.5,2.3-3.2,1.4c-0.3-0.6-0.6-1.2-0.7-1.9
				c0-0.7,0.1-1.4,0.2-2.1c0.4-3.1,0.5-6.3,0.3-9.4c-0.2-3.7,0-7.5,0.4-11.3c1.2-3.3,0.9-6.7,1-10c1.7-10.1-3.7-18.2-7.4-26.8
				c-1.8-4.2-3.6-8.5-5.5-12.6c-1.6-3.1-1.6-6.8-0.2-10c5.7-14.2,13-17.8,29.3-14.2c1.8,1.6,1.4,2.2-0.9,3c-4.8,2.1-10,0.3-14.7,2.1
				c-3,1.6-6.5,2.8-6.9,6.9c-2.8,4.2-2.8,9.7,0,13.9l0,0C508,360.5,508.4,363,509.7,365.3z"/>
			<path class="st4" d="M486,263.5c11.9,6.4,25.4,3.6,37.9,6.5c6.8,1.6,10.1,5,10.5,10.8c1,15,1.1,30,1.6,45
				c-0.2,1.1-0.6,2.2-1.2,3.1c-0.8,0.4-1.7,0.3-2.2-0.5l0,0l0,0c-1.7-3.3-1.1-6.8-1.2-10.2c-0.1-10.4,0.3-20.9-1.4-31.2
				c-0.4-3.2,1.2-6.8-1.7-9.5c-9.4-3.3-19-3.7-28.7-3.8c-2.9,0-6.8,1.2-8.3-3c5-2.2,10.1-0.3,15.6-0.8c-5-0.4-10,0.3-14.6-0.8
				C489.1,268.4,485.8,268,486,263.5z"/>
			<path class="st4" d="M449.7,251.1v-2.9c2.6,7,7.7,9.4,14.9,8.6c4.5-0.5,9.1-0.4,13,2.7c-0.9,1.5-2.3,2.5-3.9,2.9
				c-8.3,0.2-16.9,2.1-25.1-1.1c-0.3-3.7,1.9-2.5,4-2.3C450.7,256.7,446.8,255.1,449.7,251.1z"/>
			<path class="st4" d="M474.9,260.6l2.9-1.3c3.1,0.5,6,2,8.3,4.2c5.9,7.4,14.4,5.1,22,6.9h-16.5
				C484.8,269.2,478.9,266.5,474.9,260.6z"/>
			<path class="st4" d="M533.3,329h1.4c0.1,4.1-2,6.1-6,7.1c-5,1.4-10,1.1-15,1.3c4.8-2.9,10.6-0.5,15.3-3.1
				c0.2-0.2,0.3-0.3,0.2-0.6c0-0.2-0.3-0.3-0.3-0.6c-0.5-1.8,1-2.3,2-3.2C531.7,329.4,532.4,329.1,533.3,329z"/>
			<path class="st4" d="M240.9,209.2c7.8-3,15.8-0.6,23.6-1.4C256.8,210.9,248.8,208.6,240.9,209.2z"/>
			<path class="st4" d="M506.9,358.3c-4.1-4.7-4-9.3,0-13.9C505.6,348.9,505.6,353.7,506.9,358.3z"/>
			<path class="st4" d="M516.7,380.5c-3-3.6-5.3-7.6-5.5-12.6l4.2,5.5L516.7,380.5z"/>
			<path class="st4" d="M456.7,252.5c5.1,0.7,10.5-1.6,15.3,1.4C467,253.2,461.6,255.4,456.7,252.5z"/>
			<path class="st4" d="M529.1,338.8c-4,2.7-8.4,0.8-12.6,1.4C520.6,337.4,525,339.3,529.1,338.8z"/>
			<path class="st4" d="M377.3,209.2c4.2,0.6,8.6-1.4,12.6,1.4h-12.6V209.2z"/>
			<path class="st4" d="M516.6,340.2l-6.9,5.5C510.2,341.7,512.7,340,516.6,340.2z"/>
			<path class="st4" d="M509.7,345.7v11.2C507.5,353.5,507.5,349.1,509.7,345.7z"/>
			<path class="st4" d="M473.4,253.8h5.5l2.8,2.8C478.8,256.6,475.8,255.7,473.4,253.8z"/>
			<path class="st4" d="M509.7,365.3c-2-1.7-3-4.3-2.8-6.9C508.9,360.1,509.9,362.6,509.7,365.3z"/>
			<path class="st4" d="M451.1,242.7c2.6,1,2.9,3.1,2.8,5.5C452.3,246.8,451.3,244.8,451.1,242.7z"/>
			<path class="st4" d="M352.2,207.9h6.9C357.3,209.8,354.1,209.8,352.2,207.9L352.2,207.9z"/>
			<path class="st4" d="M188,234.4c-3.9,2.8-8.3,0.8-12.6,1.4C179.3,233,183.8,234.9,188,234.4z"/>
			<path class="st4" d="M502.7,437.7c-9.7,1.3-19.3,4.1-29.3,4.2c-10.4,1.9-21,2.8-31.1,5.8c-13.9,4.2-27.4,1.7-40.8-1
				c-5.3-1-10.9-1-15.9-3.5c0.8-1,1.9-1.6,3.1-1.7c10.5-0.1,20.4,3.5,30.7,4.5c4.1,0.6,8.2,0.5,12.3-0.2c9.3-2.1,18.6-3.4,27.9-5.3
				c2.4-0.6,4.9-0.3,7.3-1c0.6-0.2,1.3-0.3,1.9-0.4c2.2-0.1,4.4-0.3,6.6-0.9c0.6-0.2,1.2-0.3,1.8-0.4c2.5-0.2,4.9-0.5,7.4-1.2
				c0.6-0.2,1.2-0.3,1.9-0.4c2.3-0.1,4.6-0.5,6.8-1.2c0.7-0.2,1.4-0.3,2.1-0.4c2.6-0.1,5.2-0.5,7.3,1.6
				C502.7,436.6,502.7,437.2,502.7,437.7z"/>
			<path class="st4" d="M388.5,443.2l-2.9,0.1c-15.1-1.6-30-3.6-44.6-8.3c10.9-0.5,21.1,4.2,32,4.2c2.5,1.4,5.3,0.2,7.8,0.5
				S387.6,438.8,388.5,443.2z"/>
			<path class="st4" d="M502.7,436.2h-8.4c-0.3-2.3,1.4-2.7,2.9-2.9c5.1-0.7,10-2.5,15.2-2.7l2.8-1.4
				C513.6,436.1,507.1,434.2,502.7,436.2z"/>
			<path class="st4" d="M516.6,418.2c0.7-7.4-1.6-15.1,1.4-22.3C517.4,403.3,519.5,410.9,516.6,418.2z"/>
			<path class="st4" d="M518,395.9c0.9-5.3-1.4-10.2-1.4-15.3C519.8,385.5,520.6,390.5,518,395.9z"/>
			<path class="st4" d="M515.2,429.4c0.6-3.7-1.4-7.7,1.4-11.2C516.2,421.8,518,425.9,515.2,429.4z"/>
			<path class="st4" d="M474.9,260.6l16.7,10c4,2.8,8.5,1.1,12.6,1.3c8.9,0.3,17.8,1.2,26.2,4.2c1.5,2,0.5,4.2,0.7,6.4
				c-0.9,2-0.2,4.4-1.7,6.2c-0.6,0.3-1.4,0.3-2-0.2c-1.1-1.5-1.6-3.4-1.4-5.2c0.4-4.2-1.6-5.9-5.5-6.1c-5-0.8-10-1.6-15-2.1
				c-2,0.1-4.1,0-6.1-0.1c-4.8-0.5-6.6,1.6-5.9,6.1c-0.6,7.8,1.2,15.7-1.1,23.4c-1.1,1.4-2.1,0.8-2.9-0.3c-2.3-6.8-1.4-13.8-1-20.5
				c0.5-8.2-1.6-13.9-9.8-16.5c-1.5-0.5-2.7-1.7-4.3-2.1c-3.7-1.6-7.7-1.1-11.6-1.3c-15.6-0.4-31.2,1-46.8-0.8
				c-0.7-0.3-1.3-1-1.5-1.7c3.2-4.4,7.9-2.1,12-2.8c3-0.4,8,1.2,8.6-2.3c0.8-4.4,2.4-10-2.4-13.9c-6.8-3.1-14.6-2.8-21.5-5.9
				c-1-0.5-1.7-1.1-2.4-1.9c-5.3-8-14.3-10.3-22-14.5c-3.1-1.7-6.7,0.4-10,1.3c-3.8,0.2-8.7,4.2-10.8-2.6c0.3-0.6,1.1-0.8,1.7-0.4
				l0,0c0.1,0.1,0.2,0.1,0.2,0.2c1.4,0,2.9,0.4,4.2,0c17-6.4,28.6,2.5,39.8,13.2c4.2,4.1,10.2,3.7,15.5,4.8
				c8.9,1.9,15.3,7.4,21,13.9v1c-0.2,2.2,0.4,4.3,0.2,6.6l-0.1,1C457.1,262.3,466,260.1,474.9,260.6z"/>
			<path class="st4" d="M149,270.7c4,0.1,6.7-1.4,8.8-5.1c4.7-7.8,9.9-15.2,14.9-22.9h4.1c0.3,0.3,0.4,0.6,0.3,1
				c0,0.3-0.1,0.5-0.2,0.5c-0.7,1-1.6,1.8-2.3,2.8c-3.2,4.8-6.4,9.5-9.5,14.3c-1.3,1.7-2.4,3.6-3.3,5.5c2.5,1,5.1,0.1,7.5,0.3
				c2.8,0.1,5.7-0.4,8.3,1.2c0.6,0.5,0.8,1.3,0.5,2c-1.6,1.8-4,1.9-6.1,2.6c-5,1-10.1,0.3-15.3,0.6c-2.1,0.1-5-0.2-5.5,1.9
				c-2.3,7.8-6.8,15.4-2.6,24c2.2,4.3,4.9,8.3,7.3,12.6c1.2,2.2,2.9,4.3,1.1,6.9h-1.4c-4.4-0.9-4.9-8.3-11-6.5
				c-4.1-0.2-8.1,0.5-12.2-0.6c-0.7-0.3-1.3-0.9-1.8-1.4c0-0.4,0-0.9-0.1-1.3c-0.5-1.4,0.3-1.7,1.4-2.1c2.5,0,5,0.5,7.4,0.3
				c1.9-0.2,4.5,1,5.5-1.4c1-2.3-1.1-3.7-2.3-5.4c-0.3-0.5-0.9-1-1.2-1.6c-0.3-0.5-0.7-1.1-0.9-1.7c-0.2-0.4-0.3-1-0.3-1.4
				c0.6-9,0.6-9-8.5-8.6c-1-0.3-1.8-0.8-1.4-2.1c0.3-0.3,0.8-0.9,1-0.8C143,286.9,147.7,280.9,149,270.7z"/>
			<path class="st4" d="M367.8,218.9c-0.4,0-1,0.1-1.4,0.1c-2.3,0.2-4.3-1.2-7.3-0.7c6.3,3.6,12.6,6.4,18.7,9.4
				c7.1,4.8,15.9,8,17.1,18.3c-0.2,4.7,3.6,2.7,5.9,3.4c1.4,0.3,2.9,0.6,3.3,2.3c-4.3,4.2-9.1,2.9-13.9,1.1c-2.1-3.7,0.8-9.1-4-12
				c-4.4-6-11.3-8.5-17.5-11.9c-5.4-2.9-11.5-4.6-15.9-9.3c-0.6-1.2-0.9-2.6-0.8-3.9C357.6,215.5,363.8,211.2,367.8,218.9z"/>
			<path class="st4" d="M320.2,213.5c10-1.1,20.1-4.4,29.3,2.6c0.4,0.4,0.4,1.2,0,1.7l0,0c-0.1,0.1-0.2,0.2-0.3,0.2
				c-5.5-0.7-11.2-1.7-16.8-1.2c-3.9-0.3-7.9,0.7-11.6-1.2C320,215.2,319.8,214.3,320.2,213.5C320.2,213.6,320.2,213.5,320.2,213.5z
				"/>
			<path class="st4" d="M281.2,214.9c7.8-2.5,15.8-1.2,23.8-1.4c0.3,0.7,0.3,1.5-0.3,2.1c-1.1,1-2.5,1.8-4.1,2.1
				c-6.3,0.5-12.6,1.5-18.9-0.8C281.1,216.5,280.9,215.7,281.2,214.9z"/>
			<path class="st4" d="M212.8,229.9c5.4-14.1,16.8-15.2,29.4-13.7c0.4,0.6,0.3,1.5-0.2,1.9c-11.4-0.4-20.4,4.6-28.3,12.4
				L212.8,229.9z"/>
			<path class="st4" d="M242.3,217.5v-1.2c7.4-2.3,14.9-1.2,22.3-1.2c0.3,0.6,0.2,1.5-0.3,1.9c-1.7,1.4-3.8,2.2-6,2.3
				c-1.6,0.2-3,0.2-4.6,0.3C249.9,219,245.5,220.8,242.3,217.5z"/>
			<path class="st4" d="M190.6,242.8c4.1-1.6,8.2-1.5,12.6-1.5c1.3-0.5,2.9,0.4,4-1c1.9-0.4,3.6-0.3,4.8,1.4
				c0.1,0.8-0.2,1.6-0.8,2.1c-6.5,3.6-13.2,2.8-19.9,1.1C190.6,244.5,190.3,243.5,190.6,242.8L190.6,242.8L190.6,242.8z"/>
			<path class="st4" d="M206.1,241.1c-0.9,1.6-2,0.4-3,0.2c3.3-3.7,5.5-8.3,9.6-11.3l0.5,0.3c0.3,0.6,0.5,1.2,0.4,1.9
				C212.3,236,209.6,239.1,206.1,241.1z"/>
			<path class="st4" d="M449.7,251.1c-0.5,3.6,1.9,5.5,4.9,7.9l-6.4,0.4l0,0c-1-2.7-1-5.6,0-8.3l0,0
				C448.7,251.1,449.3,251.1,449.7,251.1z"/>
			<path class="st4" d="M264.5,216.2c0-0.4,0-0.8,0.1-1.2l16.5-0.2v1.1C275.7,219.6,270.1,219.4,264.5,216.2z"/>
			<path class="st4" d="M304.9,214.9c0-0.4,0-0.9,0.1-1.3l15.2-0.1v1.2C315.2,217.8,310.1,217.6,304.9,214.9z"/>
			<path class="st4" d="M190.6,242.8v1.1c-4.1,3.1-9.7,3.1-13.9,0.1c0-0.3,0-0.8,0-1.1L190.6,242.8z"/>
			<path class="st4" d="M349.6,217.6v-1.4l2.5-0.1c1,0.6,1.7,1.8,1.6,3C351.6,220.5,350.4,219.5,349.6,217.6z"/>
			<path class="st4" d="M206.1,368.2c-2.7,1.1-5.6,1.6-8.5,1.1c-0.4-0.7-0.3-1.6,0.4-2.1c0.3-0.3,0.7-0.6,1.1-0.8
				c12.2-1.9,15-9.7,13.5-20.8c-0.8-4.3-0.4-8.8,1-13c0-1.9,4.1-3.6,0.4-5.8c-10.6,0.4-21-1.4-31.5-1.6c-4.8-0.4-10,1.1-13.9-2.8
				c-0.5-0.7-0.5-1.6,0-2.3c3.4-2.3,7-1.4,10.7-1.1c13.8,1,27.5,2.9,41.3,2.2c4.5-0.3,8.1-3.3,12.1-4.9c5.6-2.4,10.7-6.3,17-7.5
				c1.1,0.1,2.2,0.7,2.7,1.7c-0.3,3.8-3.6,4.4-6.1,5.5c-7.4,3.1-14.6,6.8-21.6,10.8c-4.9,4.6-7.5,11.2-6.9,17.9
				c0.7,9.9-0.5,19.7,0.5,29.5c2.1,3.9,5.4,7,9.3,9c26.6,8.1,53.5,14.8,80.3,22.3c3.1,0.9,6.3,1.6,9.4,2.6c4,1.4,8.1,2.3,12.3,2.8
				c0.7,0.2,1.3,0.5,1.9,1c1.1,1.9,0.3,3.5-1.1,4.8c-13.4-5.7-27.9-8.2-41.7-12.3c-19.7-5.6-39.6-10.7-59.4-16
				c-9.2-2.6-14.5-10-14.8-20.4C211.5,366.2,208.8,369,206.1,368.2z"/>
			<path class="st4" d="M512.4,430.7c-3.9,3.9-9.2,2.9-13.9,4.2c-1.5,0.4-3.2,0-4.2,1.4H493c-2.1,1.6-4.9-0.3-6.9,1.4h-1.4
				c-2.6,1.7-5.8-0.4-8.3,1.4l0,0c-2.1,1.6-4.9-0.3-6.9,1.4h-1.5c-2.1,1.6-4.9-0.3-6.9,1.4c-21.5,6.1-43,8.3-64.9,2.3
				c-2.4-0.6-4.9-0.9-7.5-0.9c-4.7-3-10.7-1.4-15.4-4.2c2.3-0.3,4.9,0.8,6.9-1.2c6.2-2.7,12,1,18.1,1.2c8.3,1.8,16.8,3,25.2,4.6
				c6,1,11.8-1.6,17.7-2.7c7.5-1.4,15-2.8,22.4-4.6c4.2-0.4,8.2-1.8,12.4-2.1c7.8-1.6,15.7-2.1,23.4-3.9c4.4,0.3,8.6-2.7,13.2-1.2
				C512.3,429.6,512.3,430.2,512.4,430.7z"/>
			<path class="st4" d="M330.2,416.9c-0.4-1.7,0.4-2.9,1.3-4.3c2.8-4.5,4.2-9.5,5.5-14.6c0.7-2.4,0.3-5.7,3.8-6.7
				c1.3,0.7,2.3,1.9,2.7,3.3c1.3,6.7-3,12.2-3.8,18.4c-0.7,7.3,1.4,9.7,10.7,12.3c2.1,0.8,4.3,0.9,6.4,1.6c0.6,0.3,1,0.7,1.4,1.2
				c0.1,0.6-0.1,1.2-0.5,1.7c-1.7,1.2-4,1-5.9,2.1l-0.9,0.3l-3-0.1c-7.4-0.7-11.8-5.5-15.6-11.2
				C331.6,419.6,330.9,418.3,330.2,416.9z"/>
			<path class="st4" d="M398.1,440.5l-18-2.6c-9.8-1.6-19.5-3-29.1-5.7l0,0c0.7-1.5,2.3-2.3,4-1.9c15.5,2.1,31.1,3.5,46.1,8.5
				C401.2,441.3,399.9,441.4,398.1,440.5z"/>
			<path class="st4" d="M332.4,420.9c4.2,5,9.8,8.3,15.6,11.2C339.4,433.1,335.3,427.8,332.4,420.9z"/>
			<path class="st4" d="M206.1,368.2c2.8,0.1,5.4-6.2,8.1-0.1c-2.1,1.3-0.4,4.3-2.6,5.5C211.5,370,207.4,370.4,206.1,368.2z"/>
			<path class="st4" d="M130.7,285.8c0.4,0.4,0.9,1,1.3,1.4c3.6,6.9,3.2,14,0.1,21l-1.4,1.4c-1-0.7-1.5-1.7-1.4-2.9
				c-1-6.9-1-13.9,0-20.8L130.7,285.8z"/>
			<path class="st4" d="M129.3,285.9v20.8c-2.9-6.8-0.6-13.9-1.3-20.8H129.3z"/>
			<path class="st4" d="M179.5,320.7l-11.2,0.3c-0.8,0.5-1.6,0.8-2.6,0.6c-2.3-0.6-4.7-0.7-6.9-0.2c-0.6,0-1.1-0.3-1.6-0.7v-1.3
				c-2.2-7.4-7.6-13.1-10.7-20c-1.8-4,0.5-22.9,3.5-25.7c1.6-1.3,3.7-1.9,5.8-1.6c5.5,0,11.2,0,16.6-0.1c2.6-1.2,5.4-0.5,8.1-1.3
				c1.6-0.4,4.1-0.3,4.2,2.1c0.1,2-2.2,2.2-3.6,2.3c-5.7,0.6-11.5,0.2-17.2,0.3c-3.7,0.1-7.4,0.3-10.2,3.2c-1.9,2.5-3.1,5.4-3.6,8.5
				c-0.9,3-1.6,6.1,0.3,9c3.8,5.8,5.7,12.6,10.3,17.9c1.9,2.6,4.8,2.3,7.4,2.8c0.7,0.1,1.3,0.3,2,0.4c6.1,1,12.4-0.9,18.4,1.2
				c0.7,0.3,1.1,1.1,1,1.9C186.2,322.2,182.9,321.6,179.5,320.7z"/>
			<path class="st4" d="M130.8,310.8l1.5,0.2c3.8,1.1,7.8,0.4,11.5,1.4c1.9,0.4,3.7,1.2,3.8,3.3c0.1,2.1-1.6,3.9-3.6,4h-0.3
				c-4.3,0.2-8.7,1-13-0.4C134.3,316.5,131.2,313.7,130.8,310.8z"/>
			<path class="st4" d="M126.7,351.4c0-9.7,0-19.5,0.1-29.3l18.1,0.1c0.3,0.7,0.1,1.6-0.6,1.9c-1.6,0.9-3.5,1.2-5.3,1.2
				c-6.9,0.1-6.9,0.1-8.3,10.6c-1.3,3.8-0.6,7.9-1,11.8c-0.1,0.8-0.3,1.5-0.5,2.2C128.7,350.8,128,351.7,126.7,351.4z"/>
			<path class="st4" d="M130.8,319.3c3.9,0,7.9,0,11.8-0.2c2,0.1,3.6-1.4,3.9-3.3c0-2-2.3-1.6-3.6-2.3c-3.4-1.7-7.4,0-10.6-2.5h13.9
				c2.4,1,5.3,1.6,5.1,5.1c-0.2,3.2-3.1,3.4-5.1,4.4c-5.1,0-10.1-0.1-15.2-0.2c-0.2,0-0.3-0.3-0.3-0.4
				C130.6,319.7,130.7,319.5,130.8,319.3z"/>
			<path class="st4" d="M144.9,323.2c0-0.3,0-0.7,0-1c4.2-0.8,8.6,1.6,12.4-1.6l1.5-0.3c2.3-0.7,4.6-0.7,6.8,0l2.8,0.5
				c0.1,0.4,0.2,0.9,0.3,1.4c0.3,0.8-0.1,1.7-0.9,2.1c-0.7,0.4-1.6,0.7-2.3,0.9C158.5,324.9,151.4,327.5,144.9,323.2z"/>
			<path class="st4" d="M146.2,320.6c5-3.2,5.2-6.4,0-9.5c6.8-1.4,6.6,5.3,9.7,8.2C153,322.1,149.4,320.2,146.2,320.6z"/>
			<path class="st4" d="M166.9,323.6l1.4-0.3c2.3,1.9,1.9,4.5,2.1,7v18.1c-1.4,8,0.4,14.4,8.1,18.4c0.3,1.3-0.4,2-1.6,2.4l-8.5-4.2
				l-1.6-4.2c-1.7-6.3-6.5-7.5-12.1-7.7c-8.9-0.2-17.8,0.8-26.7-0.5l-1.3-1.5l1.6-1.6c0.7-0.3,1.6-0.5,2.3-0.4c9,0.3,18-0.2,27,0
				c5.2,0.2,7.4-2.1,7.5-7.4C165.3,335.8,163.4,329.4,166.9,323.6z"/>
			<path class="st4" d="M176.9,369.3l1.3-1.3c6.1-3,13.3-3,19.5,0v1.3H176.9z"/>
			<path class="st4" d="M128.1,352.8c10.3,0,20.6,0.3,30.8-0.3c6.8-0.4,9.3,1.8,8,8.3c-8.3-9.6-19.5-6.4-29.9-6.8
				c-2.9-0.1-6,0-8.9-0.1C128,353.6,128,353.3,128.1,352.8z"/>
			<path class="st4" d="M532.1,330.3l-3.1,2.8H522c-14.2,0.3-18.1,3.3-21.6,16.7c-0.3,1.3-0.1,2.7,0.6,3.9
				c3.4,7.6,6.2,15.4,10.1,22.7c3.2,5.9,4.6,12.6,3.9,19.2c-1,1-0.1,3-2.1,3.4c-0.7-0.2-1.3-0.7-1.6-1.4c-1.7-5.3,0.3-11.2-2.3-16.3
				c-2.9-8.1-6.8-15.6-10-23.5c-5.4-12.9,4-27.7,17.8-28.1c2.1,0.1,4.2-0.1,6.1-0.7c1.6-0.5,3.5-0.4,4.8-1.6
				c1.6-2.8,0.4-5.7,1.1-8.6c0.4-1.8,0.1-4.8,3.6-3.4C532.4,320.5,533.1,325.5,532.1,330.3z"/>
			<path class="st4" d="M512.6,398.7h1.2c1,2.2,1,4.7,0.1,6.9c-0.1,4.2-0.2,8.2-0.3,12.4c-1,1,0,3.3-2.3,3.4c-0.7-0.3-1.3-1-1.6-1.6
				C508.3,412.6,509.2,405.2,512.6,398.7z"/>
			<path class="st4" d="M511.2,421h1.1c1,2.2,1.1,4.7,0.2,6.9l-0.2,1.4c-3.9,1.9-8.2,2.9-12.6,2.8c-0.4-0.5-0.4-1.3-0.1-1.9
				C503.8,427.2,509.8,427,511.2,421z"/>
			<path class="st4" d="M512.6,427.8c0-2.3-0.2-4.6-0.2-6.9l1.5-2.9C513.4,421.2,514.9,424.8,512.6,427.8z"/>
			<path class="st4" d="M513.9,405.6l-0.1-6.9c0.4-1,0.9-2,1.3-2.9C514.8,399,516.4,402.5,513.9,405.6z"/>
			<path class="st4" d="M532.1,330.3c-0.1-5-0.2-10-0.3-15.1c-3.7-5.1-0.4-11.3-2.7-16.7c-1.1-4.2,0-8.1,0.9-12.1
				c0.3-0.7,1-1,1.6-0.8c0.2,0.1,0.3,0.1,0.3,0.2c1.8,14.4,1.4,28.7,1.4,43.2C532.9,329.4,532.5,329.9,532.1,330.3z"/>
			<path class="st4" d="M531.9,285.9h-1.2c-0.8-0.6-1-1.7-0.4-2.5l0,0l0.2-0.2v-7.1C533.3,279,531.4,282.6,531.9,285.9z"/>
			<path class="st4" d="M476.2,439.1c2.4-2.6,5.5-1,8.3-1.4C482.1,440.1,479,438.6,476.2,439.1z"/>
			<path class="st4" d="M460.9,441.8c2-2.3,4.7-1.1,6.9-1.4C465.9,442.7,463.3,441.6,460.9,441.8z"/>
			<path class="st4" d="M485.9,437.7c2-2.3,4.7-1,6.9-1.4C491,438.5,488.4,437.4,485.9,437.7z"/>
			<path class="st4" d="M469.2,440.5c2-2.3,4.6-1,6.9-1.4C474.2,441.3,471.7,440.1,469.2,440.5z"/>
			<path class="st4" d="M476.1,263.8c12.1,3.7,16,12,14.2,24.2c-0.8,5.2-0.2,10.6-0.2,15.9c-1.4,3.1-4.2,3.3-7.1,3.3
				c-34,0.1-68.2,0.1-102.2,0c-1.4,0-2.8-0.3-4.1-0.9c-0.8-0.3-1.4-1.1-1.5-2c1.6-5,5.9-3.6,9.3-3.7c28.1-0.1,56.1,0,84.2,0
				c16.1,0,16.7-0.8,16.7-16.9c0-6.5-2.2-11.2-8.1-14c-1.5-0.6-2.8-1.6-3.8-2.9C472.3,264,475,264.6,476.1,263.8z"/>
			<path class="st4" d="M476.1,263.8l-2.7,1.2c-0.7,0.5-1.6,0.8-2.4,0.7c-16.6-0.3-33.3-0.1-50-0.2c-2.1,0-4.2,0.3-6.1,1
				c-13.2,0.8-26.5,2.4-39.8,1.9c-6.7-0.3-13.3,0.1-19.8,1.3c-1.2,0-2.4-0.3-3.6-0.8c-0.7-0.3-1.2-1-1.3-1.9c0.9-2,2.9-2.4,4.4-3.6
				c1-0.6,2.2-1.1,3.4-1.4c10.4-0.8,20.8-0.2,31.2-0.3c7.3-0.2,14.6,0.6,21.9-0.5c1.2-0.3,2.5,0.1,3.6,0.8
				c17.1,0.1,34.1,0.3,51.2,0.2C469.4,262,472.9,262.6,476.1,263.8z"/>
			<path class="st4" d="M394,246.8c-1.8-9.4-10-13-16.7-17.9c-2-2.9,0-5.7,0-8.6c5.3-3.1,10.3-2.6,15.3,0.9
				c3.8,2.6,8.1,4.3,12.1,6.8c2.4,1.4,4.5,3.4,4.7,6.5c-2.5,0.9-4.2-1.2-6.2-1.9c-4.3-2.2-8.5-4.5-12.9-6.4
				c-1.3-0.5-2.9-1.1-3.8,0.2c-1.4,1.8,0.4,2.9,1.6,3.8c5.3,4.1,9.2,9.7,11.2,16.1c0,0.7-0.1,1.4-0.4,2c-1,1.1-2.7,1.3-3.8,0.3
				C394.4,248,394.1,247.4,394,246.8L394,246.8z"/>
			<path class="st4" d="M376,305.4h105.5c2.9,0,6.1,0.4,8.7-1.4l1.3,1.4c0.2,0.9-0.3,1.8-1,2.3c-3,1.6-6.3,1-9.5,1h-92.6
				c-3.2,0-6.5-0.5-9.5,1c-7.8,5.3-16.4,2.9-24.7,2.4c-1.5-0.2-2.5-1.5-2.4-2.9c1.6-3.3,4.4-1.4,6.8-1.6
				C364.4,307.4,370.4,308.7,376,305.4z"/>
			<path class="st4" d="M433.3,241.2c5.4,1.1,3.9,5.5,4.1,8.8c0.4,10.7,0.3,10.7-10.7,10.7c-3.9,0-7.8,0.2-11.7,0.3
				c-4.3-1.4-2.9-4.6-2.4-7.5c2.5-3.2,4.3-0.2,6.4,0.8c4.8,2.3,9.4,3.6,13.9-0.8c1.6-1.6,1.7-4.2,0.4-6c-1.1-1.9-3.3-3.1-3.2-5.5
				C430.8,240.5,431.9,240.5,433.3,241.2z"/>
			<path class="st4" d="M430.3,242.7c1.8,0.9,3.3,2.3,4.2,4.2c1,2.2,1,4.8,0,6.9c-4.1,4.8-11.1,5.8-16.3,2.3
				c-1.7-1.1-3.3-2.3-4.9-3.6c-1.4,1.3-3.4,1.6-5.1,1c-1-0.3-1.8-1.3-1.8-2.4c1.1-1.4,2.8-2.2,4.5-2.3c4.9-0.8,7.5,3.8,11.7,4.9
				c1.1,0.3,2.3,1,3.4,0.6c2.1-0.7,4.8-0.5,5.1-3.7c0.2-2.8-1.6-4.2-3.9-5c-3.5-1.3-7.1-1.9-10.7-2.9c-4.8-1.4-9.3-3-12.2-7.4
				c-0.8-1.1-1-2.6-0.3-3.9c2.4-0.2,3.6,2.1,5.5,2.8l1.4,1.2c3.8,2.8,8.6,2.8,12.9,4.1C426.1,240.3,428.8,240.1,430.3,242.7z"/>
			<path class="st4" d="M377.2,220.2c3.5,2.9-1.2,5.7,0,8.6l-22.4-10.6c4.9-2.4,8.5-3.4,11.7,0.7
				C369.4,224.7,373.7,219.1,377.2,220.2z"/>
			<path class="st4" d="M527.8,288.7l1.3,0.1c1.2,7.1,1.7,14.4,1.4,21.6c-0.9,3.3-1.3,6.7-1.4,10.1c0,1.8,0.4,4.3-2.8,4.2
				c-2.7-3.1-1.6-6.9-1.8-10.5c-0.3-6.6,0.4-13.2-0.5-19.8c-1-3.2-1.7-6.4-2.1-9.8c-0.2-1.7-0.3-3.4-0.2-5.1
				c0.3-0.6,0.8-1.1,1.4-1.3C529.5,279.5,525.4,285.5,527.8,288.7z"/>
			<path class="st4" d="M491.6,306.8l-0.1-1.4c0.1-8.3,0.2-16.7,0.2-25.1c1.8-1.6,2.1-5.6,6.1-3.6c0.3,0.7,0.4,1.4,0.3,2.2
				c-2.3,6.5-1.7,13.2-1.9,19.8c-0.1,3.1,0.3,6.7-3.5,8.3L491.6,306.8z"/>
			<path class="st4" d="M497.1,277.6v-1.4c1.6-4.4,5.9-0.6,8.2-2.6c5.2,0.4,10.5,0.6,15.5,2.6c-0.4,1.4,2.5,1,1.4,2.8v0.1
				c-1.1,1.1-2.6,1.7-4.2,1.6C511.1,279.2,504,279,497.1,277.6z"/>
			<path class="st4" d="M440,253.2c1.1-1.7-1.8-5.5,2.3-5.5c3.7,0,3.6,3.6,3.4,6.4c-0.3,2.3,1.5,6.1-2.2,6.2
				C438.7,260.4,440.6,256,440,253.2z"/>
			<path class="st4" d="M430.3,242.7c-4.8-1.4-9.8-2.9-14.5-4c-2.2-0.5-4.1-0.8-4.8-3.1c7.4,2.1,15.3,2.6,22.4,5.5
				C432,241.3,430.9,241.5,430.3,242.7z"/>
			<path class="st4" d="M505.3,273.4c-2.2,2.8-6.1-0.3-8.2,2.7c-2.4,0.6-2.5,4.2-5.5,4.2c-1.2-5.9,1.4-7.8,7-6.9
				C500.9,273.5,503.1,273.6,505.3,273.4z"/>
			<path class="st4" d="M529.1,311v-22.3c0.3-1.9-0.6-4.1,1.3-5.5l0.3,2.7v12.6c0.5,4.8,1.6,9.5-0.6,14.2
				C529,312.5,528.6,312,529.1,311z"/>
			<path class="st4" d="M522.2,278.9c-1.6-1.2-2.2-2.4-1.4-2.8c5.5-0.9,7.9,1.6,6.9,7.2c-0.2,1.8-0.2,3.6,0,5.4
				C524.4,286.2,528.2,279.7,522.2,278.9z"/>
			<path class="st4" d="M408,252.5h5.2c1,2.8-0.8,6,1.6,8.5c0,0.3,0,0.6,0,1l-2.6,0.4c-1.2,0.6-1.6-0.1-2-1c0.3-2.7-0.5-5.3-2.5-7.1
				C407.5,253.5,407.6,252.9,408,252.5z"/>
			<path class="st4" d="M448.4,251v8.3C446.3,257,446.3,253.4,448.4,251z"/>
			<path class="st4" d="M376,305.4c-1,2.8-2.7,4.7-6.1,4.2c-5.8-0.7-11.8,1.4-17.4-1.4c-0.8,0.4-1.7,0.3-2.3-0.4
				c-2.7-5.5-1.1-11.4-1.5-17.1c-0.3-3.9,0.3-7.9-0.6-11.8c-1.6-2.7-4.3-2.3-6.8-2.3c-25.4,0-50.7,0.1-76.1-0.1
				c-5.5,0-7.2,2.2-7.1,7.4c0.1,7.1,0.6,14.3-0.4,21.4c-0.9,3-3.8,4.9-6.9,4.3c-5.4,2.7-11.2,4.8-16.1,8.1
				c-10.7,6.8-22.2,6.8-33.9,4.7c-6.9-1.2-14.2,1-21.1-1.6c3.3-0.7,6.9,1.3,9.9-1.5c6.8-3.6,14-2.1,21-1.3c4.6,0.6,9.2,0.2,13.5-1.3
				c7.7-2.8,14.6-6.8,21.8-10.5c2.6-1.2,4.5-3.6,5.1-6.3c1.3-7.3,0.9-14.7,0.3-22.1c-0.2-3.1-2.9-3.7-5.7-3.7
				c-6.7-0.3-13.4-0.3-20.1,0.1c-19.5,1.6-39.1,2.3-58.7,2.4c-5.2,0-9.8,2.8-14.8,2.4c1.4-5.8,6.3-5.3,10.5-5.5
				c7.1-0.3,14.2-0.1,21.3-1.6h-11.1c1.6-1.8,3.7-1.1,5.7-1.4c3.3-2.7,7.3-1.6,11-1.9c6.9,0,14,0.3,20.9-1.3c4.2-0.1,8.3,0,12.4-0.1
				c6.6,0,13.2,0.5,19.5-1.2c4.2,0.1,8.3-1,12.2,1.4c2.3,4.4,6.4,3.9,10.3,3.9c26.3,0,52.7,0.2,79.1,0.3c1.5-0.3,4.6,2.9,4.1-2
				c-0.2-1.2,1.5-2.2,3.1-1.7h2.8c1.2,9.4,0.3,18.7,0.4,28.1c0.1,3.9,0.8,7.3,4.7,9.1c2.6,1.6,5.8,1.8,8.6,0.5
				c2.8-0.6,5.3-3.6,8.6-1.4L376,305.4z"/>
			<path class="st4" d="M176.8,244l13.9-0.1c6.9,0.1,14.1,1,21-1.2c1.6-1.4,3.7-2.1,5.8-1.8c15.1,0.9,30-1.9,45.1-1.5
				c7.2-0.1,14.4,0.7,21.5-1.2c4.7-0.3,9.4-0.1,14-0.2c12.2,1,24.3-2.7,36.6-1c4.9,1.7,10,0.8,15.1,1.2c6.6,0.6,8.7,2.9,8.7,9.6
				c0,3.6,5,0.7,5.3,4c-0.9,2.1-2.8,2.3-4.6,2.5c-2.7,0.2-5.5,0.1-8.1-0.4c-4.6-1.7-9.7,0.2-14.2-2c-2.4-0.3-4.9,0-6.1-0.1h4.1
				c0.7,0,1.3,0.1,1.9,0.3c1,1.4,0.2,2.5-0.8,3.5c-0.6,0.3-1.3,0.5-1.9,0.5c-2.6-0.4-5.3-0.4-7.9-0.9c-0.7-0.1-1.3-0.3-2-0.4
				c-6.4-0.1-12.6-1.4-19.1-1.6c2.3,0.3,4.7-0.3,6.8,0.7c0.2,1.4-0.6,2.1-1.7,2.7c-3.1,0.9-6.5,1-9.6,0.2c-4.1-1.9-9.2,0.9-12.8-3
				c1.2-3.4,4.4-3.1,6.9-3.4c13.8-1.6,27.7-1.7,41.5-2.6c3.8-0.3,7.8,0.2,12.2-1.9c-2.9-2.6-5.5-2.1-8.1-1.7
				c-17.5,1.8-35.1,1.3-52.6,2c-21.6,0.9-43.4,1.3-65,2.8c-6,0.4-12,0.1-18.1,0.2c-6.8-0.2-13.4,0.3-20.2-0.4
				c-3.2-1.6-7.4-0.1-10.4-2.9C175.1,245,175.9,244.5,176.8,244z"/>
			<path class="st4" d="M174.2,245.5c3.2,0.5,6.7-1.2,9.6,1.4c-4.2,2.7-9.7,3.6-11.5,9.2c-0.3,0.6-0.7,1.2-1,1.9
				c-1.5,4.7,0.7,6.6,5.1,6.5c19.2-0.4,38.4-1,57.5-2.4c2.8-0.3,5.5-0.3,8.3-0.3c10.7,0.7,21.3-1.3,31.9-1.4c4,0,6.7-3.1,10.2-4.1
				c1.5,0,1.8,1,2,2.2c-0.3,3-2.9,3.7-5,5c1.7-1,3.3-1.4,4.6,0.7c0,0.8-0.4,1.5-1.1,1.8c-3,1.4-6.2,0.8-9.4,1
				c-6.8-0.1-13.8,0-20.6,0.3c-4.2-0.5-8.2-0.1-12.3-0.2c-6.5,1.1-13.2,0.3-19.7,1.4h-12.5c-6.9,1-14,0.3-21,1.4
				c-3.7-0.3-7.4,0.6-11.2-0.6l-9.9-0.3c-3.8-1.6-4.3-4.8-4.2-8.3L174.2,245.5z"/>
			<path class="st4" d="M132.1,308.2l-0.1-21c1-1,2.3-1.4,3.7-1.2c8.7-0.5,8.7-0.5,6.7,7.8c-0.3,1.6-0.4,3.1-0.4,4.7
				c-1.9,1.9-4.5-5.2-6.1,0.3c-0.4,1.4,0.3,2.9,1.6,3.3c0,0,0,0,0.1,0h0.1c2.8,0.6,2.5-2.8,4.2-3.7c3.7,2.3,6.9,6.1,6,9.8
				c-1,3.1-6.1,1-9.4,1.2C136.4,309.5,134,310.1,132.1,308.2z"/>
			<path class="st4" d="M164.1,260.7l4.2,8.3l-9.4,0.6C159.8,265.9,162.2,263.4,164.1,260.7z"/>
			<path class="st4" d="M178.2,269.3l11.2-0.1c0.4,0.3,0.6,0.6,0.4,0.9c-0.2,0.3-0.3,0.4-0.5,0.4l-11.1,0.1
				C178.2,270,178.2,269.7,178.2,269.3z"/>
			<path class="st4" d="M349.6,217.6l4.2,1.5c6.8,5.1,14.8,8,22.3,11.9c4.3,2,8.1,5,11.2,8.7c3.7,7.4,1.2,11.7-7.1,11.9
				c-2.8,0-5.5-0.4-8-1.4c-5.1-1.4-8.7-5.4-12.6-8.6c-3.5-2.8-6.8-4.5-11.3-4c-5.6,0.8-11.3-1.6-14.7-6.1c-2.3-2.6-4.7-5.3-8.7-4.9
				c-18-0.1-36,0-53.9,0c-2.9,0-6.1,0.4-8.7-1.4c-0.7-0.6-0.9-1.6-0.3-2.3c3.1-2.3,6.7-1.8,10-1.9c15.3-0.2,30.6,0,45.8,0.3
				c3.2-0.3,6.9,1.6,8.3-3.7c0.6-2.5,4.4-1.4,6.6-2.5C338.5,214.4,344.3,214.3,349.6,217.6z"/>
			<path class="st4" d="M359.2,252.5c1.6-0.2,3.2,0.1,4.3-1.3c1.6-2.1,3.9-1.7,6.1-1.6c1.8,0.5,3.6,0.2,5.5,0.6c4.9,1,10-1.5,14.8,1
				c4.4,1.9,9.4,1.9,13.9,0c0.7-0.8,1.8-0.9,2.6-0.2l0,0c0.1,0.1,0.2,0.1,0.2,0.2l1.5,1.4c0,0.4,0,0.9,0,1.3
				c-1.5,1.6-3.6,2.3-5.7,2.2c-12.7,0.3-25.5,0.3-38.3,0c-1.4,0-2.8-0.4-4-1c-0.9-0.3-1.4-1.3-1-2.3l0,0
				C359.1,252.6,359.2,252.5,359.2,252.5z"/>
			<path class="st4" d="M389.9,251.2l-16.7-0.3c-1.4-0.3-2.2-1-1.7-2.6c2.2,0.6,4.3,1,6.6,1.4c8.5,0.8,10.6-1.6,9-10
				C391.5,242.7,392.8,246.5,389.9,251.2z"/>
			<path class="st4" d="M406.5,251.2h-2.8l-4.2-0.3c-0.7-1-3.6,0-2.8-2.7h1.4c4-1.6,7.9-0.4,11.8,0.6l0.8,0.8
				C409.7,251.2,408.1,251,406.5,251.2z"/>
			<path class="st4" d="M396.8,248.3l2.7,2.7c-6.8,0.2-6.8,0.2-5.5-4.2C394.9,247.3,395.8,247.8,396.8,248.3z"/>
			<path class="st4" d="M332.7,215c-2.3,2.2-8.3,1.5-5.5,7.6c0.2,0.3-4.5,0.3-6.8,0.5c-3.6-1.4-7.3-0.3-10.9-0.6
				c-1.6-0.1-3.5,0-3.5-2.3c0-1.7,1.4-3.1,3.1-3.1c2.4-0.3,4.9,0,7.4-0.3c0.9-0.3,0-1.7,0.3-0.8c0,0.3,0,0.3-0.3,0.4
				c-4.8,0.1-9.6,2.8-14.3-0.2l3-1.2l15.3-0.2L332.7,215z"/>
			<path class="st4" d="M301.9,216.1h15.4v1.2c-2.7,0.2-5.4,0.3-8.1,0.5c-1.2,0.1-2.2,1-2.3,2.3c0,1.6,1.4,1.5,2.5,1.6
				c3.6,0.6,7.4-1.3,10.7,1.3l-58.5,0.1c-1.9-1.4-3.6-2.8-2.8-5.5l5.5-1.5l16.7-0.2L301.9,216.1z"/>
			<path class="st4" d="M213.3,231.8v-1.4c0.3-0.3,0.9-0.4,1.1-0.8c6.1-11.3,16.2-13.4,27.9-12l12.6,0.3c5.2,1.1,5.7,5.2,6,9.5
				c-1,3.6-3.6,6.4-5.4,9.6c-1.4,2.7-3.8,3.6-6.9,3.7c-11.3,0.5-22.5,1.6-33.9,1.4C211.3,239,214.2,235.1,213.3,231.8z"/>
			<path class="st4" d="M260.2,225.9c-1.6-2.8-1.7-6.6-5.3-8.1h4.1c0.8,1.9,2.9,3.1,2.8,5.5l-0.1,1.2c0,0.5-0.3,1-0.7,1.3
				L260.2,225.9z"/>
			<path class="st4" d="M213,241.1c11.8-0.3,23.5-0.9,35.2-1.1c3-0.1,4.5-1.7,5.8-4.1c1.9-3.4,4.2-6.7,6.2-10l0.2,0.2
				c1.3-0.6,1.7,0.3,2.1,1.2c0.4,4.2-4,6.2-4.5,10c1.3,1.7,3.8,0.8,5.2,2.3c0.4,0.4,0.4,1.1,0,1.6c-17.1,0.2-34.3,2.4-51.5,1.5v-1.2
				C211.9,241,212.5,240.8,213,241.1L213,241.1z"/>
			<path class="st4" d="M213,241.1c-0.4,0.1-0.9,0.2-1.4,0.3l-5.5-0.3l7.1-9.4C213.2,234.9,219.1,238.2,213,241.1z"/>
			<path class="st4" d="M317.3,409.9c-30.7-7.9-61.4-15.7-91.6-25.4c1.6-3.8,5.3-4.6,8.6-5.9c10.5,3.2,20.7,6.9,31.4,9.1
				c4.4,1.3,8.7,3.3,13.3,3.7c13.9,4.2,28.1,6.9,41.7,12C323.2,407.4,322.9,410,317.3,409.9z"/>
			<path class="st4" d="M224.2,325l27.9-13.9c3.6-3.3,8-5.4,12.2-7.5c5.8-2.7,11.7-4.8,17.1,0.7c0.5,3.1-0.3,6.4-2.1,9
				c-12.8,2-23.5,9.4-35.2,14.2c-3.4,1.4-6.3,3.9-10.2,4.1C230.9,328.9,226.2,329.2,224.2,325z"/>
			<path class="st4" d="M224.2,325c3.1,1.8,7.7,1.1,9.4,5.4c0.4,0.6,0.5,1.4,0.3,2.1c-4,5.4-5.5,12.2-4.2,18.8
				c1.4,6.9-0.6,14.2-0.8,21.4c-3,7.3-4.9,7.9-12,3.8c-2.7-3.5-1.1-7.5-1.2-11.3c-0.3-8.1,0-16-0.1-24.1
				C215.7,334.2,219,329.1,224.2,325z"/>
			<path class="st4" d="M197.7,368h-19.5c-8.1-3.4-11.6-9.3-9.6-18c3.6,0.3,2.8,3.8,4.2,5.7c1,3.7,3.4,6.5,6.9,6.9
				c7.8,1,15.7,1.6,23.5-0.6c4.4-1.2,6.6-4.1,6.6-8.6c-0.1-7.9,0.5-15.8-0.5-23.6c0-0.8,0.3-1.5,0.6-2.2c4.4-2.3,5,1.1,6,4.1
				c-2.8,6.8-1.8,13.9-1.1,20.6c1,8.7-2.8,12.3-10.2,14.1C202.3,367,199.9,367.5,197.7,368z"/>
			<path class="st4" d="M341.1,391.6c-1.6,5.4-3.4,10.7-5,16c-0.8,2.4-1.2,4.9-4.6,5l-1.7-0.2c-0.3-1.9,1.4-3,2.1-4.5
				c4.8-15.4,8.7-31.2,13.2-46.6c1.2-4.1,1.4-8.7,5-11.8c1.1,0,2.2,0.7,2.6,1.7c0.1,8.5-4.2,16-5.6,24.2
				C345.5,381.1,344.6,386.9,341.1,391.6z"/>
			<path class="st4" d="M210.2,327.6v1.4c-0.9,0.8-2.1,1.1-3.2,0.9c-10.2-1.9-20.7-1-30.9-2.8c-1.5-1.4-1-2.3,0.7-2.8
				s3.7,0.3,5.4-0.7c11.7,0.9,23.5,0.5,35.2,2.4C215.6,329.3,212.3,325.5,210.2,327.6z"/>
			<path class="st4" d="M217.1,376.5c0.3-0.7,0.3-2.4,1.3-1.4c4.2,5.2,6.9,2.3,9.8-1.4c2.7,0.3,4.3,2.2,5.9,4.1
				c0.3,0.5,0,1.1-0.6,1.4c-1.1,3.9-5,3.7-7.7,5.3C222.4,382.4,219.5,379.7,217.1,376.5z"/>
			<path class="st4" d="M332.8,409.8l-3,2.7c-4.3,0.3-8.7-0.5-12.5-2.6c3.6-0.7,3.8-2.9,2.7-5.8c0.1-1.8,1.4-2.2,2.9-2.1
				c1,0.2,1.8,0.9,2.2,1.9c0.1,2.6,1,4.2,4.1,4.2C330.3,408,332.8,406.6,332.8,409.8z"/>
			<path class="st4" d="M182.2,323.6c-1.7,2.4-5.2,0-6.8,2.6c-0.7,2.3-2.5,3.5-4.2,4.8c-0.9,0.3-1.9,0.1-2.5-0.6
				c-0.1-2.3-0.2-4.7-0.3-6.9c0.1-0.3,0.3-0.8,0.3-1.1L182.2,323.6z"/>
			<path class="st4" d="M264.4,305.2l-12.3,5.8l-1.4-1.3l5.5-3c0.6-0.6,1-1.4,1.6-2.1c1.2-0.9,2.5-1.5,4-1.7c0.6,0,1.2,0,1.7,0.2
				C264.3,303.6,264.9,304.1,264.4,305.2z"/>
			<path class="st4" d="M210.2,327.6c1.8-3.2,4.9-0.4,7.2-1.6c2.6,2.8-1.1,3.8-1.6,5.7C213.9,330.4,213.3,327.4,210.2,327.6z"/>
			<path class="st4" d="M398.1,440.5l2.9-1.2c3.4-1.6,6.8-0.9,10.1,0c8.9,2.6,18.4,2.5,27.2-0.2c7.4-1.1,14.5-3,21.9-3.9
				c1.1-0.2,2.3,0,3.3,0.5c0.6,0.5,0.7,1.4,0.2,2l0,0l0,0c-12.4,4-25.2,6.6-38.2,7.6C416.7,446,407,443.4,398.1,440.5z"/>
			<path class="st4" d="M463.7,437.8v-1.3c-0.1-2.8-2.9-3.9-4-6.1c-1.4-2.4-3.8-4.1-5-6.6c-0.3-1-0.1-1.9,0.4-2.7
				c0.5-0.4,1.1-0.6,1.8-0.5c3.2,1.6,5.4,4.4,7.6,7.1c2.2,4.2,5.9,5.6,10.2,6.1c0.9,0.4,1.6,1,1.4,2.3L463.7,437.8z"/>
			<path class="st4" d="M476.2,436l-1.4-1.2c0.2-3.3,2.9-2.7,4.8-3.1c1.8,0,3.6-0.3,5.3-0.9c1-0.3,2.2-0.4,3.2-0.6
				c3.9,0.3,8.1-3.1,11.8,0.6v1L476.2,436z"/>
			<path class="st4" d="M350.8,426.5c-9.4-0.7-14.1-5.5-12.6-12.6c1.9-0.6-1-5.5,3.5-3.8c0.6,9.9,7.3,12.1,15.7,13.4
				c15.8,2.5,31.7,5.1,47.5,8.4c7.8,1.6,15.5,4.3,23.6,2.9c0.8-0.2,1.6-0.3,2.3-0.3c2.2,0.4,5.1-0.4,4.9,3.4
				c-5.3,4.1-11.3,3.2-17.2,2.3c-5-0.7-9.9-2.2-14.9-2.4c-6.4-1.4-13-2.3-19.5-3.6l-1-0.3c-0.6-0.3-1.2-0.5-1.7-0.9
				c-2.3-1.4-5-0.9-7.4-1.6c-2.6-0.8-5.5-0.5-8.1-1.2c-2.7-1-5.9-0.3-8.1-2.5l0,0C355.8,426.3,352.9,428.2,350.8,426.5z"/>
			<path class="st4" d="M438.7,440.5c-6.8,2.9-14.3,3.6-21.5,1.9c-5.4-1.2-10.8-2.1-16.2-3.1c-15-2.5-30-4.8-44.9-7.5
				c-1.9-0.3-3.6-0.6-5.2,0.4c0.8-4.7,4.5-2.2,6.9-2.9c0.4-0.4,1.1-0.6,1.6-0.3c2.1,0.7,4.3,0,6.4,0.8l1.8,0.5
				c2.2,0.8,4.5,0.1,6.6,1l1.9,0.5c2.2,0.8,4.8-0.2,6.7,1.7l0,0c6.6,1.1,13.3,2.1,19.9,3.6c5.5,0.6,10.8,1.6,16.3,2.6
				c5.7,0.9,11.5,0.4,17.1-1.2C437.4,438.5,438.4,439.3,438.7,440.5z"/>
			<path class="st4" d="M341.2,409.8l-2.9,4.2c-0.3-6.8,4.7-12.6,4.2-19.5c-1.1-5.7,2.5-10.4,3.2-15.7c1.8-5.9,3.2-12,5.1-17.8
				c0.5-1.6,0.7-3.3,3-2.8c1.2,1.6,1.7,3.5,1.6,5.5c-2.5,14.5-7.2,28.6-11.3,42.8C343.9,408,342.7,409.3,341.2,409.8z"/>
			<path class="st4" d="M346.7,379.1c-1.4,5.1-2.8,10.2-4.2,15.3c-1-0.6-1.6-1.7-1.5-2.9c0.2-5.9,3.4-10.9,4.4-16.5
				C348.7,375.6,347.2,377.6,346.7,379.1z"/>
			<path class="st4" d="M359.2,429.3h-1.4v-1.4c2.8,0.4,5.9-1,8.3,1.4l-0.9,0.6C363.3,429.8,361.2,430.6,359.2,429.3z"/>
			<path class="st4" d="M350.8,426.5c2.3,0.3,5-1,6.9,1.4C355.4,427.6,352.8,428.8,350.8,426.5z"/>
			<path class="st4" d="M151.7,278.9c3.1-2.4,6.8-3.9,10.8-4.2c26.9-1,53.9-2,80.9-2.8c8.8-0.3,10,1,10,10
				c-0.2,23.7,2.9,21.3-20.2,32.9c-9.2,4.7-18.4,6.5-28.7,4.6c-4.9-1-10.1-0.2-15.2-0.2l0,0c-6.8-1.9-14,0.5-20.9-1.4l0,0
				c-2.7-1.3-6.1-0.2-8.3-2.8c-6-4.7-6.6-12.6-11.2-18.1c-1.1-3.1-1.1-6.6,0-9.8C148.8,284.2,149.2,281.1,151.7,278.9z"/>
			<path class="st4" d="M168.5,317.8c6.9,0.7,14.1-1.6,20.9,1.4C182.4,318.4,175.2,321,168.5,317.8z"/>
			<path class="st4" d="M149,287.3v9.8C146.7,294.1,146.7,290.1,149,287.3z"/>
			<path class="st4" d="M160.1,315.2c2.8,1,6,0.8,8.3,2.8C165.4,317.7,161.9,319,160.1,315.2z"/>
			<path class="st4" d="M165.6,320.4h-6.8C160.8,318.8,163.6,318.8,165.6,320.4z"/>
			<path class="st4" d="M166.9,323.6c0,7.2,0,14.4,0.1,21.6c0,2.6,0.1,5.9-3.3,5.9c-11.4-0.1-23,1.7-34.4-1c0.2-1.3,5,0,1.4-3.9
				c-3.6-3.9-0.3-9.3-0.6-13.9c-0.4-6.4,4.6-7,8.8-8.6l6-0.4L166.9,323.6z"/>
			<path class="st4" d="M139,323.6c-6.8,3.5-9.4,8.7-8.4,16.5c0.5,4.2,1.4,7.4,7.4,9.4l-8.7,0.5c-0.4-0.1-0.8-0.3-1.1-0.4v-1
				c1.6-4.1-0.5-8.6,1.2-12.6v-2.7C129.5,323.2,127.2,323.3,139,323.6z"/>
			<path class="st4" d="M129.4,336c-0.3,4.2,1.1,8.6-1.2,12.6C128.5,344.3,126.9,340,129.4,336z"/>
			<path class="st4" d="M168.6,330.4h2.6c3.1,8.1,3.1,17,0,25.1c-2.2-1.2-0.5-4.2-2.6-5.5C168.6,343.5,168.6,336.9,168.6,330.4z"/>
			<path class="st4" d="M523.7,330.6c-3.3,2.3-7.2,1.4-10.7,1.2c-5-0.3-7.1,2.2-9.4,6.2c-4.9,9-5.5,17.3-0.1,26.3
				c3,5,4.9,10.8,7.4,16.3c2.3,12.4-0.5,24.7-0.8,37c-0.1,4.1-0.1,9.4-6.6,9.4c-0.9-0.5-1.4-1.5-0.9-2.3c6.4-10.4,2.9-22.2,4.8-33.3
				c1.1-6.7-3.4-12.8-6.1-18.9c-1.1-2.8-2.5-5.5-4.1-8.1c-6.8-10.7-3.6-20.3,1.9-30c2-3.5,5.3-6,9.3-6.8c3.5-0.5,6.9-0.5,10.4,0.2
				C520.6,328.2,522.6,328.8,523.7,330.6z"/>
			<path class="st4" d="M502.7,426.5c6.9-1.6,6.7-7.4,6.9-12.6c0.6-11.1,1-22.2,1.4-33.3c2.5,5.8,1.3,12,1.6,18.1
				c-0.3,7.4-2.3,14.7-1.3,22.3c1.8,9.7-6.7,7.6-11.3,10c-4.3-1.1-8.2,1.8-12.6,1.1c-0.5-3.3,1.9-3.9,4.2-4.2
				c3.4-0.4,6.6-1.7,10-1.5L502.7,426.5z"/>
			<path class="st4" d="M529.2,312.3c2.7-4.4,0.6-9.4,1.4-13.9c2.5,5.5,0.7,11.3,1.1,16.9c-3.6,4.6,1,10.7-2.8,15.2
				C527.1,324.3,528.5,318.3,529.2,312.3z"/>
			<path class="st4" d="M529.2,312.3c0,6.1-0.1,12-0.2,18.1l-5.4,0.2c-1.5-0.3-3.2,0.2-4.2-1.5c0.3-0.5,0.9-0.9,1.4-1.2
				c1.7-0.5,3.4-1.4,4.7-2.7l0.9-0.3c3.6-4.1-0.7-9.8,2.7-13.9L529.2,312.3z"/>
			<path class="st4" d="M359.2,306.8c-5-1.2-7.4-4.4-6.9-9.5c0.8-9.8-1.7-19.7,1.4-29.4c20.3-2.3,40.9-1.1,61.3-2.8
				c16.7-1.4,33.6-0.3,50.3-0.6c2.3,0,4.6-0.6,6.8,0.6h1.4c2.3,1.4,4.8,2.8,7.1,4.2c4.3,2.4,7,7,6.9,12c0.4,20.8,0,21.4-20.9,21.4
				h-82.7c-2.7,0-5.5-1-7.9,1.4l-8.3,2.8C365,307.8,361.9,307.8,359.2,306.8z"/>
			<path class="st4" d="M355.1,264.9c-1,1.6-2.7,1.4-4.2,1.4c-4.3,1.5-7.8,4.8-12.1,6.2h-20.2c-2,0-4.5,0.6-4.7-2.6
				c-0.2-3.2,2.3-2.9,4.4-2.9c5,0,10-0.3,15.1,0.1c-7.6-0.8-15.2,0.8-22.8-0.6c-0.5-0.8-0.3-1.7,0.3-2.3l0,0l0,0
				c5.5-2.4,11.3-1,17-1.3c6.7-0.3,13.3-0.1,20,0C350.5,263.1,353.1,262.9,355.1,264.9z"/>
			<path class="st4" d="M389.6,263.4l-32.8,0.3c-4.9,0-10,2.4-14.5-1.4c5-4.1,11.2-1.9,16.7-2.8c9.1-1.7,18.4-1.5,27.5,0.5
				C387.9,260.8,389.9,261,389.6,263.4z"/>
			<path class="st4" d="M342.5,262.3c4.6,2.7,9.6,0.4,14.3,1.4l-1.8,1.1l-44.3,0.3c-1.8,0.5-3.6,0.9-2.6-2.1
				C319.6,261.6,330.9,257.5,342.5,262.3z"/>
			<path class="st4" d="M472.1,264.9H415c0.5-0.3,1.1-1.1,1.6-1.1c17.9-0.1,35.9-0.1,53.8,0C471,263.9,471.5,264.6,472.1,264.9z"/>
			<path class="st4" d="M389.6,263.4l-2.7-1.3c0-1,0.4-2,1.3-2.2c7.6-1.6,15.2-3.1,22.5,1l1.4,1.4
				C404.8,264.8,397.2,263.1,389.6,263.4z"/>
			<path class="st4" d="M341.2,271.9c0-7.4,6.2-4.2,9.8-5.5v1.4c-3.5,0.2-0.8,6.8-5.6,5.5C344.1,272,342.2,273.2,341.2,271.9z"/>
			<path class="st4" d="M421.9,255.2c-4.4-0.4-6.4-5.7-11.2-5.5l0,0c-4.1-1.4-8.7,0-12.6-2.8c-3.3-6.3-6.4-12.8-13-16.6
				c-1.8-1-3.1-3-1.6-5.3c1.2-1.8,3.7-2.3,5.5-1.1c4.9,2.4,10.2,4.3,14.5,7.8l1.3,2.8c-0.7,0.7-1.7,1-2.7,0.7
				c-0.6-0.2-1.2-0.4-1.8-0.8c-2.2-1.3-4.2-2.9-7.5-3.3c1.6,2.9,3.8,4.9,4.8,7.6c1.7,4.4,5.2,6.2,9.8,6.6c3.5,0.3,6.8,1.5,9.8,3.3
				c0.9,0.5,1.6,1.1,2.3,1.8C421,251.7,422.9,252.9,421.9,255.2z"/>
			<path class="st4" d="M398.3,246.8c4.2,1.1,8.7,0.7,12.6,2.8c-4.2,0.3-8.5-0.1-12.6-1.4C398.2,247.8,398.3,247.3,398.3,246.8z"/>
			<path class="st4" d="M350.8,308.1l1.7,0.2c0,0.4-0.1,1.2,0.1,1.4c4,2.8,20.8,1.8,24.7-1.4c0.5,0.6,0.9,1.3,1,2.1
				c-0.4,3.5-3,4.8-5.8,4.9c-8.2,0.4-16.5,1.3-24.6-2.1c-9.3-3.7-19.1-1.2-28.8-1.6c-1-0.1-1.8,0.4-2.2,1.4
				c-0.5,1.7,0.8,2.5,1.9,3.2c7.4,4.7,15.7,4.8,24.1,5.2c6.1,0.3,12.6-0.9,18,3.3c-0.5,3.6-3.5,2.9-5.7,3.3
				c-8.9,0.1-17.8,0.3-26.7-1.4c-7.5-0.9-14.6-4.2-20-9.5c-1.4-5-1-9.4,4.4-11.9c10.7-1.4,21.6-0.1,32.4-0.8
				C348.2,304.2,349.4,306.3,350.8,308.1z"/>
			<path class="st4" d="M377.4,309.7v-1.6c1.7-2.3,4.2-1.4,6.5-1.4h107.7c0.4,0.8,0.3,1.8-0.6,2.3c-3,2.1-6.4,2.4-10,2.4h-97.9
				C380.9,311.5,378.8,311.9,377.4,309.7z"/>
			<path class="st4" d="M434.4,253.8v-6.9c1.9,1.7,2.1,4.8,0.3,6.7l0,0L434.4,253.8z"/>
			<path class="st4" d="M421.9,255.2c-1-1.4-1.9-2.8-2.8-4.2c2.3-2.4,5.4,1.2,8-1.2c-3.1-3.9-6.2-2.4-9.4-0.2
				c-4.2-1.1-8.1-3-12.6-3.2c-3.6,0.1-6.9-2.3-7.9-5.8c-1.2-4.6-5.9-6.9-7.6-12.2c5.5,0.3,9.8,1.8,12.8,5.9c-6,4.5-0.7,5.7,2.5,8.3
				c0.7-3.8-4-5.1-2.5-8.3h2.8c3.8,4.8,9.4,6.3,15,7.4c2,0.4,4,1,6,1.6c4.4,1.1,8.3,3.4,6.6,8.5C431,257,426.4,257.2,421.9,255.2z"
				/>
			<path class="st4" d="M508.3,329c-11.3,6.2-15.8,20.1-10.6,31.8c2.4,5,4.7,10,7.4,14.8c7.8,13.6,2.5,28,2.6,42
				c0,3.6-2.9,6.1-5,8.8l0,0c-7.8,1.6-15.5,3.6-23.3,5.1c-10.2,1.9-16.8-3.2-16-13.3c1.2-15.2,1.2-30.3,4.3-45.3
				c4.8-14.2,6.7-28.6,2.6-43.4c-1-3.8-2.5-6.9-7.2-6.9c-6.7-0.5-13.2,0.5-19.9,1.2c-1.6,0.1-3.2-0.4-4.5-1.5
				c-0.4-3.7,2.8-3.9,4.9-4.3c5.4-1.1,10.8-1.8,16.4-2.2c5.6-0.3,10.4,1.3,13.8,6.1c0.5,0.6,0.9,1.3,1.2,2.1c3.5,10,3.9,20.4,3.1,31
				c-0.1,0.7-0.3,1.5-0.4,2.2c-1.2,4.5-0.8,9.3-2.7,13.6c-0.6,1.7-1,3.5-1.6,5.2c-3.3,14.3-2.2,29-4.6,43.3
				c-0.2,1.4,0.3,2.9,1.1,3.9c0.7,0.8,1.5,1.5,2.3,2.1c6.1,2.2,12,0.3,17.8-1.2c1-0.3,2-0.4,3-0.5c2.3-0.2,4.8,0.1,6.8-1.7
				c2.2-1.5,3.6-3.7,3.8-6.3c2-16.7,2.5-33.2-7.4-48.1c-7.7-11.8-5-23.3,1.2-34.7c2.3-4.6,6.8-7.8,12-8.3
				c12.4-1.8,14.2-4.2,11.8-16.4c-1.7-8.3,0.7-17.1-2.6-25.4c2.2-5.4,3.5-0.9,5,0.4c0.5,3.2,1,6.5,1.4,9.8c1.5,9.6,0.5,19.4,0.5,29
				c0,4.7-3.7,5.9-7.7,6.4C514.6,328.7,511.4,327.5,508.3,329z"/>
			<path class="st4" d="M508.3,329c1-1.2,2.3-1.3,3.7-1.4c12.1-0.9,13.1-1.8,13-14.1v-20.8c3,7.1,0.7,14.5,1.4,21.6
				c0.3,3.5,0,6.9,0,10.4l0,0c-1,2.4-3.4,3.2-5.5,4.2h-1.4C515.7,329.1,512,329,508.3,329z"/>
			<path class="st4" d="M523.5,283.1c-1.6,0-2.1-3-4.2-1.5c-0.5,0.4-1.2,0.4-1.7,0c-0.6-0.9-0.4-2.1,0.3-2.8h4.2
				C522.7,280.3,523.1,281.7,523.5,283.1z"/>
			<path class="st4" d="M518,278.9l0.1,2.6c-2.8,2.3-5.7,0.3-8.6,0.1c-9.3-1.7-10.5-0.7-10.6,8.7c-0.1,5.7,0.7,11.6-1.9,17.1
				c-0.4,1-1.2,1.9-2.2,2.5c-1,0.5-2.2,0.5-3.2,0c-0.6-0.4-0.7-1.2-0.3-1.8l0.1-0.1c0-0.4,0-1,0-1.4c3.6-1.6,2.8-4.8,2.9-7.7
				c0.3-7.3-1.1-14.7,2.8-21.5C504.3,275.5,511.1,278.1,518,278.9z"/>
			<path class="st4" d="M410.8,260.9c-8,0.1-15.9-1.1-23.8,1.2c-5.3-2.3-10.8-1.4-16.2-1.2c-9.4,0.3-18.9,0.9-28.2,1.4l-34.7,1.4
				c-6.2,2.9-12.6,2.1-19.1,0.8c-1.5-1-2.2-2.8-1.8-4.6c0.2-0.9,0.5-1.6,1-2.3c4.1-2.4,8.7-1.4,13-1.9c3.1,0.3,6.3,0.1,9.5,0.1
				c5-1.6,10.2-1.3,15.3-1.4c2.8,0.4,5.5-0.6,8.3,0.7h1.4c3.6-2.8,8.2-1.3,12.2-2.5c1.2-0.2,2.3-0.1,3.5,0.3c2.6,0.5,5.4-0.5,8,0.7
				h48.8C412.8,254.6,413.2,257.2,410.8,260.9z"/>
			<path class="st4" d="M341.2,271.9c1.5,0,3.1-0.3,4.1,1.3c-28.1,0-56.1,0-84.2,0.1c-2.3,0-4.6,0.3-6.7-1.2
				c-2.6-1.9-0.7-2.9,0.5-4.2l1-0.7c6.7-1.6,13.6-0.1,20.3-1.5c4.2,0.3,8.3,0,12.4-0.7c7.3,0.4,14.6-1.2,21.7,1.3h24.9v1.6h-16.5
				c-1.6,0-3.7-0.2-3.6,2.2c0.1,2.3,2.2,2,3.7,2C326.3,271.9,333.7,271.9,341.2,271.9z"/>
			<path class="st4" d="M257.6,305.4l-1.4,1.4c0-8.8,0.3-17.6,0-26.5c-0.1-4.2,1.2-5.7,5.5-5.6c27.9,0.2,55.6,0.1,83.4,0
				c2.4,0,4.7,0.1,5.7,2.8c-1,0.9-2.3,1.2-3.7,1c-28.6-0.5-57.1-1-85.6,0.3c-3.1,2.5-1.5,6.1-1.9,9.1
				C258.9,293.7,261.3,299.8,257.6,305.4z"/>
			<path class="st4" d="M348.2,277.5h2.6v30.7c-2.1,0.3-2.6-1.9-4-2.7c-1.2-0.3-2.2-1.2-2.6-2.3c-1.1-7.4-1.3-15-0.3-22.4
				c0.3-0.8,0.6-1.5,1.1-2.1C345.9,277.8,347,277.5,348.2,277.5z"/>
			<path class="st4" d="M189.3,270.4c0-0.4,0-0.9,0.1-1.2c6.8-2.3,13.9-1.2,20.9-1.3c0.4,0.3,0.6,0.5,0.4,0.9s-0.3,0.4-0.4,0.4
				C203.3,270.8,196.3,270.6,189.3,270.4z"/>
			<path class="st4" d="M222.8,267.8c6.4-2.2,13-1.4,19.6-1.2c0.4,0.3,0.5,0.5,0.4,0.8c-0.1,0.3-0.3,0.3-0.4,0.3
				c-6.4,2.3-13.1,1.3-19.6,1.4c-0.4-0.3-0.5-0.6-0.3-0.9C222.6,268,222.6,267.8,222.8,267.8z"/>
			<path class="st4" d="M242.3,267.7c0-0.3,0-0.8,0-1.1l12.6-0.2c0.4,0.3,0.6,0.6,0.4,0.9s-0.3,0.4-0.5,0.4l0.1,0.2L242.3,267.7z"/>
			<path class="st4" d="M222.8,267.8v1.2l-12.5,0.1c0-0.4,0-0.9,0-1.3H222.8z"/>
			<path class="st4" d="M359.2,306.8h8.3C365.2,308.8,361.7,308.8,359.2,306.8z"/>
			<path class="st4" d="M204.7,246.8c30.2-0.5,60.5-2,90.8-3.3c15.6-0.7,31.4,1,46.9-2.3c0.3,0,0.4,0,0.7,0c3.9,0,9.5-0.4,9.8,4.1
				c0.3,4.5-5.9,3.7-9,4c-12.6,1-25.4,1.3-38,1.6c-6,0.1-11.8,1-17.5,2.8c-0.4,0.6-1,1.1-1.8,1.4c-1.6,0-4,1.7-4.4-1.6
				c1-3,0.4-4.8-3.4-4.7c-11.8,0.6-23.6-1.1-35.4,1.1c-3,0.4-6.1,0.5-9,0.3c-16.1-1-32,2-48,1.3c-1.2-0.1-2.3,0.1-3.5,0.4
				c-3.5,1.5-7.7,3.3-6.9,7.4c0.7,3.6,5.2,2.3,8,2c22.2-1.5,44.3-2,66.6-2.9c6.7-0.3,13.3-1.4,20.1-1.1c2.5,0.1,5.2-0.3,6.9,2.2
				c-0.3,1.4-1.3,1.7-2.6,1.7c-19.1,1-38.2,2.3-57.3,2.6c-13.4,0.2-26.7,2.1-40.1,1.6c-8.7-0.3-10-2.5-6.1-10.5l0,0
				c3.6-5.8,8.7-8.1,15.7-7.8C192.8,247.8,198.8,248.4,204.7,246.8z"/>
			<path class="st4" d="M371.5,248.3l1.7,2.6c-1.2,1.7-2.2,1.4-3.2-0.2c-3.8-1.3-7.4-3.4-10.3-6.2c-2.8-4.2-6.8-5.5-11.9-5.4
				c-4.1,0.2-8.2,0.7-12.3-0.5l-37.8,1.1c-0.4-0.7-0.3-1.6,0.4-2.1c4.2-2.9,9.2-2.3,13.9-2.5c6.7-0.2,13.3,0.3,19.9-0.3
				c0.4-4.4-4.6-5.2-5.5-8.6c-0.2-0.6,0-1.3,0.4-1.7c0.9,0.2,2.2,0.1,2.6,0.7c6.2,8,13.8,12.1,24.5,10.8c3.9-0.4,6.5,4.8,10,6.9
				C366.8,244.6,369.2,246.4,371.5,248.3z"/>
			<path class="st4" d="M335.6,238.6c4.2,0.2,8.3,0.1,12.5-0.2c5.8-0.7,10.3,1.2,13.6,5.9c-0.1,3.5-0.2,6.8-5.2,5.4
				c1.6-7.1-0.3-9.4-7.5-9.8C344.4,239.6,339.9,241.2,335.6,238.6z"/>
			<path class="st4" d="M204.7,246.8c-4,2.8-8.6,1.5-12.7,1.2c-8.1-0.4-15.2,0.7-20.6,7.1c1.8-6.3,6.5-8.3,12.6-8.3H204.7z"/>
			<path class="st4" d="M263.1,241.2V240c0.8-1.2,1.9-2.1,3.2-2.5c0.7-0.3,1.4-0.4,2.1-0.5c5.1,0,10.3-1.2,15.3,1
				c0.6,0.4,0.9,1.3,0.4,1.9l0,0l0,0C277.2,242.2,270.1,241.1,263.1,241.2z"/>
			<path class="st4" d="M356.5,249.6c3.9,0.3,3.6-3.5,5.3-5.4c2.8,2.2,6.2,3.5,8.3,6.4l-6.6,0.5
				C361.3,250.2,358.2,252.6,356.5,249.6z"/>
			<path class="st4" d="M325.8,255.3c-5,2.2-10.2,1.2-15.3,1.1c-0.4-0.3-0.5-0.5-0.4-0.8s0.3-0.3,0.4-0.3l1.6-1.4
				c4.6-1.4,9.1-1,13.8-0.3v0.3c0.4,0.3,0.6,0.6,0.4,0.9C326.1,255.1,325.9,255.3,325.8,255.3z"/>
			<path class="st4" d="M325.7,253.7l-13.8,0.3h-8.1C311.3,252.9,318.5,251.2,325.7,253.7z"/>
			<path class="st4" d="M348.4,253.9c-4.1,2.3-8.6,0.9-12.8,1.2l1.6-2.7c1.3-1.2,2.8-0.7,4.2-0.5C343.5,253,346.5,251.5,348.4,253.9
				z"/>
			<path class="st4" d="M286.8,253.8h1.4c4.2,0.7,8.6-1.4,12.6,1.4l-0.8,0.7c-3.6,1.6-7.7,0.1-11.4,1.4c-0.7,0.2-1.5,0-2-0.5
				C285.9,255.8,286,254.6,286.8,253.8z"/>
			<path class="st4" d="M341.2,252.5H337l-1.5-0.1c-0.4-0.3-0.6-0.6-0.4-0.9c0.2-0.3,0.3-0.4,0.4-0.4c5,0.6,10.3-1.4,15.2,1.2
				l-0.9,0.7C347,253,344.1,253.7,341.2,252.5z"/>
			<path class="st4" d="M284.1,239.8v-1.2c4.2-3,9.7-3,13.9-0.1v1.2L284.1,239.8z"/>
			<path class="st4" d="M310.4,255.2v1.2l-9.7,0.3c-0.4-0.3-0.6-0.6-0.4-1c0.2-0.3,0.3-0.4,0.5-0.4l-0.1-0.2L310.4,255.2z"/>
			<path class="st4" d="M335.6,251.1v1.4h-6.8v-1.4H335.6z"/>
			<path class="st4" d="M325.8,255.3v-1.4c2.8,0.3,5.9-1.4,8.3,1.2L325.8,255.3z"/>
			<path class="st4" d="M359.2,253.8l-8.3,0.2c-0.4-0.3-0.6-0.6-0.4-1c0.2-0.3,0.3-0.4,0.5-0.4l-0.1-0.3l8.3,0.2
				C359.2,252.9,359.2,253.3,359.2,253.8z"/>
			<path class="st4" d="M286.8,253.8v2.8c-0.3,0.3-0.7,0.4-1,0.3l0,0c-0.1-0.1-0.2-0.2-0.2-0.2c-7.8,8.3-18.6,6.2-28,6.6
				c-18.2,0.6-36.4,2-54.6,2.2c-9.2,0-18.4,1-27.6,1c-2.5,0-5.5,0.5-6.4-2.6c-0.9-3.1-1.4-6.5,2.4-8.5c-2.3,8.9-1.8,10,7.2,9.7
				c25.2-0.8,50.5-1.2,75.6-3.1c7.6-0.6,15.7,0.8,23.1-2.4c0.9-2.6,2.3-4.7,5.5-4.2L286.8,253.8z"/>
			<path class="st4" d="M254.7,267.7v-1.3c6.8-2.2,13.9-1.3,20.9-1.3c0.4,0.3,0.5,0.6,0.4,0.9c-0.1,0.3-0.3,0.4-0.4,0.4
				C268.8,268.5,261.7,267.6,254.7,267.7z"/>
			<path class="st4" d="M275.7,266.4v-1.3l9.6-0.2c1.8-1.4-1.6-5.3,2.7-5.4l0.3,3.9c0.8,0.7,0.8,1.8,0.1,2.6l0,0
				c-0.1,0.1-0.2,0.2-0.3,0.2L275.7,266.4z"/>
			<path class="st4" d="M288,259.6c-2,1.3-0.3,4.3-2.7,5.4c0.1-0.4,0.1-1,0.1-1.4c-1.1-1.1-1.2-2.9-0.1-4.2l0.2-2.8h1.3l1.4,0.2
				c0.5,0.3,0.7,0.6,0.5,1c-0.2,0.3-0.3,0.5-0.4,0.5C288.2,258.6,288.2,259.1,288,259.6z"/>
			<path class="st4" d="M285.4,259.5c0,1.4,0,2.8,0.1,4.2H280L285.4,259.5z"/>
			<path class="st4" d="M142,298.4c-0.3,2.8,0.8,6.8-3.7,6.7c-3.3,0-4-3.4-4.5-6.1c-0.5-2.2,0.7-4.3,2.7-5.1
				C140.4,292.4,139.6,297.6,142,298.4L142,298.4z"/>
			<path class="st4" d="M339.2,217.7c2.9,0.6,5.8,1.5,8.5,2.6c10.6,5.3,20.9,10.8,31.4,16.3c3.6,1.9,6.5,5.1,4.7,8.8
				c-2.2,4.4-6.2,2.4-9.6,0.5c-3.5-1.8-6.7-4.2-9.5-6.9c-3.8-4.2-9.3-6.4-14.9-6.1c-6.2,0.5-12.1-2.8-14.9-8.3
				C331.9,219.4,335.6,218.9,339.2,217.7z"/>
			<path class="st4" d="M327.2,224.6v1.3c-1.2,1.4-2.9,2.1-4.8,2.1c-17.8,0.1-35.6,0-53.4,0c-2.4-0.2-4.9,0.6-7.3-0.5l-1.4-1.4
				l1.2-1.6L327.2,224.6z"/>
			<path class="st4" d="M232.4,237.1h-6.9c-2.3,0-5.3,0.5-6.5-2.6c-1-2.7,0.4-5,1.9-7c1.6-2.3,3.7-4.6,6.5-4.9
				c7.5-1,15.1-1.6,22.6-1.8c4.4,0,5.9,3.3,4.4,7.4c-2.2,6-7.1,8.2-12.9,8.9c-3,0.2-6.1,0.2-9-0.1L232.4,237.1L232.4,237.1z"/>
			<path class="st4" d="M261.7,227.4c1.6-1.2,3.6-1.6,5.5-1.3c-3.3,6.9-3.3,6.9-1.3,12.4l0,0c-3.6,1.1-7.4,1.1-11,0L261.7,227.4z"/>
			<path class="st4" d="M254.9,238.4h11l-2.8,1.4C260.4,239.2,257.2,241.2,254.9,238.4z"/>
			<path class="st4" d="M322.9,402.7l-2.9,1.4c-14-2.9-27.8-7.1-41.6-11.2c-0.4-0.6-0.3-1.4,0.3-1.8l0,0l0,0
				c2.8-1.6,5.5-0.4,8.1,0.3c8.7,2.5,17.4,4.8,26.2,7.2c6.4,1.7,8.5,0.5,10.2-5.8c3.5-12.5,7-25,10.7-37.4c1.6-5.5,0.3-9.8-4.5-12.6
				c-15.9-9.5-32.6-17.6-49.2-26c-4.1-2.1-8.1-0.8-12,1.2c-8.7,4.4-17.4,8.7-26.5,12.6c-2.2,0.9-4.1,2.3-6.5,2.2
				c-0.7-0.1-1.3-0.5-1.7-1c0-0.4,0.1-0.8,0.2-1.2c9.5-4.5,19.1-8.9,28.5-13.7c5.5-2.9,11.2-5.1,17.6-4.5c6.8-0.1,12,4.2,17.5,7.3
				c12.3,6.8,25.3,12.3,37.1,19.8c1.7,1.3,3.1,2.9,4.2,4.8c1.8,2.8,2.3,6.1,1.5,9.3c-4.2,15.4-8.4,30.8-13.2,46.1
				C326.2,401.2,324.7,402.4,322.9,402.7z"/>
			<path class="st4" d="M233.4,379.2c0.1-0.3,0.2-0.7,0.2-1c0.3-0.7,1-1.1,1.7-1.2c9.2,2.9,18.4,5.4,27.6,8c1.8,0.3,3.5,1.2,4.7,2.7
				c-0.1,1.3-0.5,2.2-2,1.5C254.5,387.1,243.5,384.6,233.4,379.2z"/>
			<path class="st4" d="M265.6,389.1l1.7-1.2c4.5-1,8.7-1,11.2,3.8v1.3C273.8,393.1,269.8,390.8,265.6,389.1z"/>
			<path class="st4" d="M334.1,340.3l-54.3-28.1c-1.2-2.4-0.5-5.3,1.6-6.9c1.5-0.7,2.9,0,4.3,0.3c1.5,0.5,2.9,1.1,4.2,1.8
				c0.9,0.3,1.7,0.8,2.5,1.2c9.7,4.2,17.8,11.2,27.5,15.3c2.3,1,4.4,2.4,6.9,2.6c1,0.3,1.8,0.8,2.5,1.4c2.2,1.7,4.5,3.2,7.1,4.2
				c2,1.1,4.2,1.9,4.9,4.4C340.2,339.3,337.1,340.9,334.1,340.3z"/>
			<path class="st4" d="M285.6,306.5c-1.6,0.3-3.1-0.2-4.2-1.3c-5.6-4.6-11.3-2.6-17,0l-1.3-1.2c-0.2-3.2,2.4-3.5,4.5-4.3
				c4.1-0.6,8.2-0.6,12.3,0c2.8,0.9,5.5,1.8,7.1,4.5C287.3,305.5,286.7,306.1,285.6,306.5z"/>
			<path class="st4" d="M218.5,365.9c4.4-8.6-1.8-17.9,1.4-26.9c0.3-1.1,0.6-2.3,1-3.3c1-2.1,2.2-5.2,4.5-4.4c2.9,1,1,3.8,0.3,5.9
				c-3.1,9.8-0.9,19.8-1.6,29.6c-0.2,2.1,1.3,5.8-1.6,5.9S219.1,369,218.5,365.9z"/>
			<path class="st4" d="M233.6,378.2c-2.2-1-4.1-2.5-5.5-4.5c0-8.2,1-16.7-0.3-24.8c-1.3-6.4,1-13,5.8-17.3l0.4,0.4
				c1.8,5.1-2.8,9-2.5,14c0.6,10.6-1,21.2,2.4,31.6L233.6,378.2z"/>
			<path class="st4" d="M171.2,355.5v-25c0.1-2.8,2.4-3.1,4.2-4.2c11.7-0.2,23.4-0.1,34.8,2.8c2.9,9.3,1.7,18.9,0.9,28.1
				c-0.6,6.1-6.8,7.2-11.8,7.8c-6,0.7-12.1,0.7-18.1,0C175.8,364.5,171.6,361.8,171.2,355.5z"/>
			<path class="st4" d="M325.7,400c4-14.9,7.9-29.8,12.1-44.6c1.2-4.1,1.5-7.5-0.9-11.2c0.7-5.2,4.4-6.1,8.7-6.1
				c4,2.9,7.6,5.9,5,11.6c-6.6,18.7-10.8,38.1-16.6,57c-0.4,1-0.9,2.1-1.4,3c-1.9-1.4-3.9,0.5-5.9,0c-3.1-0.9-5.2-2.1-2.5-5.5
				c3.4,1.4,6.1,0.9,6.9-3c3.8-16.5,9.3-32.5,13-49c0.3-1.5,0.8-3.1-0.6-4.8c-2.8,16.6-7.8,32.4-12.9,48.1c-0.8,2.3-1.2,5.5-4.8,5.5
				c-0.1,0-0.3-0.3-0.3-0.5C325.7,400.5,325.7,400.2,325.7,400z"/>
			<path class="st4" d="M346.7,379.1c-0.1-1.4,0.3-3-1.2-4.1l6.7-23.8c-0.4-0.8-0.3-1.4,0.6-1.6c2.3,0.8,2.3,2.7,2.5,4.6
				c0.1,1.6-0.5,3-1.6,4.1C351.4,365.2,349,372.2,346.7,379.1z"/>
			<path class="st4" d="M352.5,350.1c-0.1,0.4-0.3,0.8-0.3,1.2l-1.4-1.5c0.2-4.7-2.8-7.8-5.5-11.1c-1.8,0.2-3.6-0.9-4.3-2.6l-5.5-3
				c-0.4-0.5-0.4-1.2,0.1-1.6l0.1-0.1c5.5-0.5,9.6,2.4,13.3,6.1c1.7,2.3,3.2,4.8,4.4,7.4C354.2,346.8,354.7,348.7,352.5,350.1z"/>
			<path class="st4" d="M325.7,400c4.7-3.1,5.5-8.7,6.3-13.2c1.6-8.3,4.8-16.3,6.8-24.6c1.1-4.9,2.7-9.8,2.3-14.9
				c-0.1-1.7-0.3-4.2,2.5-3.9c2.3,0.1,2.9,2,3,4c0.1,2.8-0.3,5.5-1,8.1c-4.2,15.3-8.1,30.7-12.2,46c-0.8,2.9-1.6,6.1-5.2,6.7
				c-2.6,0.3-3.6-1.6-3.8-3.9l-1.6-1.5L325.7,400z"/>
			<path class="st4" d="M267.3,301.1l-4.2,2.8c-0.4,0-0.9,0-1.2-0.1c-3.7-8.3-3-16.9-0.3-25.4c2.1-1.4,4.5-1,6.8-1h69.5
				c2.4,0,5.2-0.7,7.2,1.5c0.1,8.3,0.1,16.5,0.2,24.9l-0.8,0.7c-2.1,0.4-4.3,0-3.4-2.3c2.1-5-1.2-8.1-3.4-11.7
				c-1.3-2.9-4-2.8-6.5-2.8c-18.4,0.1-36.8,0.1-55.2,0.1c-2.8,0-5.6-0.2-6.9,3.2C265.3,293.8,265.4,297.3,267.3,301.1z"/>
			<path class="st4" d="M261.9,279v24.8l-4.3,1.6v-22.8c0-2.2-0.8-4.7,1.4-6.4c0.5,0.4,1.2,0.8,1.8,1
				C261.5,277.7,261.8,278.3,261.9,279z"/>
			<path class="st4" d="M438.7,440.5l-1.4-1.4c4.3-4.6,11.3-2.4,15.9-6.1c2.4-5.8-2.2-5.6-5.4-5.9c-7.9-0.4-15.8-0.1-23.6-0.2
				c-2.3,0-4.7,0.2-6.8-1.1c-1.4-0.9-2-1.9-0.3-3.1c12.7-1.2,25.5-2.4,38.2,0.8c2.2,1.6,4.3,3.3,5.2,6c0.3,2.3-0.4,4.7,0.4,6.8
				C453.7,438.5,446.3,439.9,438.7,440.5z"/>
			<path class="st4" d="M461.1,436.4c-3.9-2.1-1.3-4.5-0.4-6.8c0.6,2.5,6.5,2.6,3.1,6.9L461.1,436.4z"/>
			<path class="st4" d="M455.4,423.5l-39,0.3c-1.5,0.3-2-0.6-2.1-1.9c0.1-0.8,0.6-1.4,1.4-1.6c12.2-1.4,24.3-2.1,36.5-0.1
				c0.8-0.1,1.5-0.1,2.3,0.1l0.9,0.7L455.4,423.5z"/>
			<path class="st4" d="M480.4,433.3c-1.9,0.4-4.2-0.3-5.5,1.6c-5.6,0.9-9.4-1.4-11.3-6.8l0.9-0.5c4.8,2.7,9.9,4.7,15.7,4
				c0.3,0.3,0.6,0.7,0.6,1.1C480.6,433.1,480.5,433.3,480.4,433.3z"/>
			<path class="st4" d="M463.5,428.1c-2.5-2-5-4-6.4-7.1c0.1-2,1.7-3.6,3.7-3.6c0.8,0.1,1.5,0.3,2,1c0.8,3.1,1.9,6.2,0.9,9.6
				L463.5,428.1z"/>
			<path class="st4" d="M461.1,418.2l-3.9,2.8h-1.7l-0.2-0.2c0.4-4,2.9-7.2,3.9-10.9c0.5-0.4,1.2-0.5,1.9-0.3c1.2,1.2,2,2.8,2.3,4.5
				C463.5,415.7,462.6,417.4,461.1,418.2z"/>
			<path class="st4" d="M463.7,427.9c-0.8-3.2-1.8-6.4-1.4-9.8c0.7-12.1,1.1-24.3,2.3-36.5c0.3-3.7-0.4-8.1,4.7-9.5
				c-1.4,13.9-2.6,27.9-4.2,41.7c-1.4,13.1,3.1,17.7,15.8,15.6c7.2-1.2,14.5-2,21.7-3c-2.9,1.8-6.1,2.8-9.5,2.8
				c-2.3,0.2-4.6,0.2-5.7,2.8l-2.8,0.1c-1.4,0.9-2.8-0.3-4.2,0C474.4,432.4,468.4,432.4,463.7,427.9z"/>
			<path class="st4" d="M480.4,432.1c1.4-2.3,2.8-0.3,4.2,0c-1.1,1.6-2.7,1.3-4.2,1.2V432.1z"/>
			<path class="st4" d="M341.2,409.8c5-15.1,9.2-30.4,12.6-46c1.5-7.2,2.9-14.4,1.5-21.9c-1.1-5.8,2.1-9.5,7.6-8.7
				c9,1.3,18.1,0.5,27.1,0.9c3.8,0.2,7.7,0.4,9.8,4.1c2.4,4.1-0.9,6.9-2.8,10c-2.3,3.7-4.7,7.5-8.1,10.3c-0.7,0.3-1.5,0.5-2.3,0.4
				c-0.8-0.2-1.4-0.7-1.6-1.4c-0.4-1.4-0.2-2.9,0.8-4c1.8-1.7,3.7-3.4,4.4-5.9c0.8-1.6,1.6-3.3,2.6-4.8c-3.4-2.7-26.2-5.1-29.7-3.2
				c-1.3,0.6-2,2.1-1.6,3.5c1.5,4.7-0.2,9.2-0.2,13.8c-2.9,16.7-8.9,32.6-13.3,48.8c-2.9,10.9-2.5,12.2,8.7,14.5
				c15.4,3,30.9,5.5,46.5,8.1c1-3.8-2-6.1-1.9-9.1c-0.1-1.1,0.1-2.3,0.5-3.3c0.3-0.7,1.1-1,1.9-1c0.7,0.3,1.3,0.9,1.6,1.5
				c3,9.5,9.6,13.4,19.4,12.5c2.8-0.3,5.5-0.2,8.2,0.1c2,0.2,4.5,0.3,4.8,2.9c0.3,2.6-2.2,3-4.2,3.6c-1,0.3-2.3-0.1-3.2,0.9h-1.4
				c-4.8,2.3-9.3-0.8-13.9-1c-3.4-0.1-6.7-0.7-9.9-1.7c-18.8-3.3-37.6-6.5-56.4-9.9C340.7,422.2,340.6,416.1,341.2,409.8z"/>
			<path class="st4" d="M430.3,436.3c1.6-2.2,5-1.2,6.4-4.5c-5-2.1-10.3-0.9-15.3-1c-10.7-0.3-15.8-4.5-17.6-15.3
				c2.8-0.4,3.5,1.9,4.2,3.6c1.8,4,5.5,6.9,9.7,8c6.4,0.9,12.9,0.3,19.3,0.4c2.1-0.1,4.2,0.1,6.1,0.4c1.9,0.4,3.6,1.4,3.8,3.5
				c0.2,1.7-1.3,2.9-2.8,3.6c-2.1,1-4.2,1.7-6.3,2.8c-0.6,0.5-1.6,0.4-2.1-0.1C434.3,435.7,432.2,436.5,430.3,436.3z"/>
			<path class="st4" d="M435.9,437.5c0.4,0,0.9,0,1.3,0c2.9-2.8,7.2-2.2,10.5-3.9c2-0.7,4.1-0.9,6.1-0.5c0.3,0.3,0.5,0.7,0.5,1.1
				c-0.1,0.4-0.2,0.6-0.3,0.6c-5.2,2.9-11.2,2.9-16.7,4.2c-11.8,3-23.3,0.4-34.8-1.5c-0.5-0.3-0.7-0.6-0.5-1s0.3-0.4,0.4-0.4
				c4.7-0.6,9.3,0.6,13.7,1.7C422.9,439.8,429.3,438.9,435.9,437.5z"/>
			<path class="st4" d="M405.1,433.5c8.1-0.5,15.7,2.9,23.6,2.8C420.6,439.1,412.9,435.5,405.1,433.5z"/>
			<path class="st4" d="M402.5,436.2v1.4c-6.5-1.4-13.2-1.7-19.5-4.2C389.6,432.8,396.1,434.7,402.5,436.2z"/>
			<path class="st4" d="M376,432.1h-1.4l-0.5-0.7l0.5-0.7c2.8,0.4,5.9-1.1,8.3,1.4C380.7,433.1,378.1,433.1,376,432.1z"/>
			<path class="st4" d="M367.6,430.7h-1.4c-0.4-0.3-0.7-0.5-0.5-0.9s0.3-0.4,0.4-0.4l0.1-0.1c2.8,0.4,5.9-1,8.3,1.4v0.1
				C372.3,431.8,369.8,431.7,367.6,430.7z"/>
			<path class="st4" d="M376,432.1h6.9c0,0.4,0.1,0.9,0.1,1.3C380.6,433.2,378,434.4,376,432.1z"/>
			<path class="st4" d="M366.2,429.4v1.4c-2.3-0.3-5,1-6.9-1.4H366.2z"/>
			<path class="st4" d="M367.6,430.7h6.9c0,0.4,0,1,0.1,1.4C372.2,431.8,369.6,433,367.6,430.7z"/>
			<path class="st4" d="M416.3,427.9c-7.8-0.6-8.6-8.1-12.6-12.6l0,0c-6.4-9.2-9.3-20-13.9-30c-1.9-4.2-4.2-8.2-5.2-12.8
				c-1-5-2.2-10.1,2.4-14.2c3.3-4.4,6.7-8.7,9.8-13.3c3.7-5.5,2.3-8.3-4.4-8.8c-7.1-0.4-14.3-0.4-21.5,0c-4.5,0.3-9.3-3.7-13.2,0.3
				s0.9,8.2,0.2,12.6c-0.9,5.2-1.4,10.4-4.2,15.1v-9.9c0.6-0.6,1-1.4,1.1-2.3c0.2-2.3,0.5-4.6-0.9-6.8c-0.5-0.8-1-1.6-1.4-2.5
				c-0.3-0.7-0.3-1.4-0.4-2.1c-0.4-3.8,1.8-7.4,5.5-8.6c0.7-0.3,1.5-0.3,2.3-0.4c2.3-0.2,4.7,0,6.9,0.5c8.7,1.6,17.5,0.3,26.3,0.8
				c1.2,0,2.4,0.3,3.6,0.7c4.2,1.7,6.4,4.7,5.7,9.4c-1.6,6.2-6.3,10.7-9.8,15.8c-3.2,4.8-4,9.4-1.5,14.9
				c6.8,15.2,12.8,30.8,20.1,45.8c2.3,4.8,5.5,6.8,10.9,6.6c8.1-0.4,16.2-0.2,24.3-0.1c2,0,4.8,0,1.6,3
				C437.6,428,426.9,429.5,416.3,427.9z"/>
			<path class="st4" d="M199,316.5h-5.5c-5.5-2-11.3,0.4-16.7-1.4h-5.5c-2.1-1.7-4.8,0.3-7-1.4c-9.6-5-16.3-23.3-10.5-32
				c1.6-2.6,4.4-4.2,7.4-4.2c11.3-0.7,22.4-1.9,33.7-1.4c6.8-1.5,13.7-0.3,20.5-0.7c2.5-0.2,5,0.7,7.4-0.7h5.5
				c6.5-1.1,13.1-1.1,19.5,0l2.8,2.8c1.1,7.4,1.1,14.9,0,22.3c-9.7,10.8-22.4,15.6-36.2,18.1C209.4,315.9,204.1,318.4,199,316.5z"/>
			<path class="st4" d="M222.8,274.7c-9.2,3.1-18.6,0.5-27.9,1.4C204,273.1,213.4,275.5,222.8,274.7z"/>
			<path class="st4" d="M250.6,299.7v-22.3C252.8,284.8,252.8,292.6,250.6,299.7z"/>
			<path class="st4" d="M247.8,274.7h-19.5C234.6,272.5,241.5,272.5,247.8,274.7z"/>
			<path class="st4" d="M176.8,315.2c5.5,0.7,11.3-1.6,16.7,1.4C188,315.8,182.2,317.9,176.8,315.2z"/>
			<path class="st4" d="M199,316.5c5.1,0.7,10.5-1.6,15.3,1.4C209.3,317.2,203.9,319.4,199,316.5z"/>
			<path class="st4" d="M164.2,313.7c2.3,0.3,5-1,7,1.4C168.8,314.8,166.2,315.9,164.2,313.7z"/>
			<path class="st4" d="M147.9,329h6.2c4.8,0,7.1,2.3,7.4,7.1c0.3,4.8-0.9,8.9-6.6,9.4c-4.4,0.3-8.8,0.3-13.2,0.1
				c-5.3-0.2-8.1-3-8.1-8.3s2.6-8.2,8-8.3H147.9z"/>
			<path class="st4" d="M520.7,329l5.5-4.2C526.1,328.5,523.8,329.2,520.7,329z"/>
			<path class="st4" d="M427.7,299.7h-35.5c-8.1,0-15.9,0-23.7,3.5c-7.8,3.5-13-0.5-13.2-9.3c-0.2-5.8,0-11.6-0.1-17.4
				c-0.1-4,1.5-5.7,5.5-6.2c4.1-0.7,8.2-1,12.4-1.1c30.6,0.4,61-2.5,91.7-1.6c3.9,0,7.8,1,11.3,2.7c7.7,4.1,12,17.5,7.7,25.1
				c-1.9,3.4-4.9,4.4-8.8,4.3C459.2,299.7,443.4,299.7,427.7,299.7z"/>
			<path class="st4" d="M288.2,266.2c0-1,0-1.8,0.1-2.8l19.5,0.3l2.9,1.4c-0.2,0.3-0.3,0.8-0.4,1.1L288.2,266.2z"/>
			<path class="st4" d="M417.7,249.7c-0.3-3.3,1.4-4.4,4.6-4.2c2.9,0.2,5.9,0.6,6.8,3.6c0.9,3-1.1,4.7-4.2,4c-2-0.5-3.9-1.2-5.7-2
				C418.7,250.6,418.1,250.1,417.7,249.7z"/>
			<path class="st4" d="M491.5,308.1v1.4c-1,2.4-3.1,2.9-5.4,3.2c-31,0.3-61.9,0-92.9,0.2c-3.2-0.2-6.5-0.1-9.7,0.4
				c-3.7,1.6-7,4-11.1,4.8c-9.5,0.8-18.9,0.8-27.9-3.6c-6.1-2.9-12.7-1.6-19.2-1.5c-0.9,0-1.9,0.2-2.3,1.2c-0.3,1.4,0.7,2.2,1.7,2.6
				c2.1,1,4.3,1.6,6.7,1.8c21.7,0.3,43.3,3.8,65,2.9c8.9,2.3,18.3,0.6,27.3,2.5c4.9,1,9.5-3.2,14.7-2.1h4.2
				c-1.4,5.5-6.3,6.3-10.7,7.1c-5.3,1-10.7,1-15.9,0c-3.8-0.8-7.7-1-11.6-1c-12.7,0.8-25.4-1.8-38.1-1.5c-2.1,0.3-4.2-0.4-5.7-1.9
				c-11-1-22-1.8-33-2.8c-4.5-0.4-8.2-3-11.9-5.4c-1.6-1-2.8-2.6-2.1-4.7s2.7-2.5,4.6-2.4c11.6,1,23.3-2.1,34.8,3.3
				c6,2.8,13.7,1.1,20.6,0.3c2-0.1,3.6-1.6,3.8-3.6c35.1-0.1,70.1-0.2,105.3-0.3C485.6,309.2,488.6,308.7,491.5,308.1z"/>
			<path class="st4" d="M360.6,324.9c21.6,1,43.3,1.8,64.9,2.8c6.2,0.4,12.5-1.6,17.2-5.5c6.9-1.2,13.9-1.7,20.9-1.4
				c0.3,2.8-1.8,3.3-3.6,4.2c-4.3,0.8-8.5,2.2-12.9,2c-1,0-2.2-0.2-2.7,0.3c-8.9,8.7-19.9,4.2-30.1,4.8c-2.4-0.8-5-1.1-7.5-1
				c-15.1,0.9-30-1.8-45.1-1.6c-2.6,0-5.8,0.7-6.8-3.2C356.8,326.1,359.2,326.9,360.6,324.9z"/>
			<path class="st4" d="M354.9,326.3c1.5,1.6,3.4,1.1,5.2,1.2c16,0.5,32.1,1,48.1,1.6c2.3-0.2,4.6,0.3,6.7,1.4
				c0.4,0.6,0.3,1.5-0.3,1.9l0,0l-0.1,0.1c-0.7,0.4-1.4,0.7-2.2,0.9c-3.9,0.5-8,0.4-11.8-0.3c-3.1-0.9-6.3-1.1-9.5-0.7
				c-11.7,0.8-23.3-1.6-35-1c-8-0.7-15.8-2.5-23.8-1.7c-1.1,0.2-2.3-0.1-3.2-0.7l-1.7-1.5c-0.7-0.5-0.8-1.6-0.3-2.3
				c0.1-0.1,0.2-0.2,0.3-0.3C336.4,326.1,345.7,326.5,354.9,326.3z"/>
			<path class="st4" d="M291,309.4l-1.4-1c-0.9-1-0.8-2.6,0.3-3.6c8.3-2.8,17.2-1.8,25.8-2.5c9-0.8,18.4-1.6,27.1,2.3
				c0.9,0.3,1.9,0,2.5-0.8h0.1l1.6,1.6c-6.7,2.8-13.6,0.8-20.4,1.3c-4.8,0.3-9.7,0.2-14.5,0.2c-6,3.2-12.6,1.2-18.7,1.8
				C292.4,308.7,291.6,309,291,309.4z"/>
			<path class="st4" d="M291.1,307.7c6.8-2.1,13.8-0.5,20.6-0.8c-2.8,2.7-2.7,6.1-2.6,9.5C302.1,315.7,296.8,311.3,291.1,307.7z"/>
			<path class="st4" d="M291.1,307.7l18.1,8.7c5.5,3.6,11.3,7.3,18,8.6v2.5c-12.9-4.3-24.2-12-36.2-18.1
				C291,308.8,291.1,308.3,291.1,307.7z"/>
			<path class="st4" d="M402.4,234.4c1.1,1.4,2.4,2.8,3.5,4.2c1,1.4,4.2,2.7,2.3,4.8c-1.4,1.6-4.5,1.3-6.4,0.1
				c-2.8-1.7-4.5-4.8-4.5-8.1C397.4,231,400.6,235.2,402.4,234.4L402.4,234.4z"/>
			<path class="st4" d="M509.7,280.3l8.5,1.2c0.4,0.1,0.9,0.2,1.3,0.1c2.3,3.6,3.2,7.8,2.8,12c-0.8,7.2,1.4,14.3,1.4,21.5
				c0,5.7-1.4,9.2-8.2,10.3c-18.2,3-26.5,18.8-19.7,36.4c2.4,6.2,5.2,12.4,8.2,18.4c3.5,6.8,3.6,13.9,2.5,21c-0.7,3.9-1,7.8-1,11.7
				c0.3,4.9-1.1,8.7-5.5,10.9c-2.1,1.6-4.9-0.3-6.9,1.4h-2.8c-6.5,1.4-12.8,3.3-19.5,1.4l-1.4-1.4c-1.8-2.2-2.5-5-1.8-7.8
				c2-7.2,1.7-14.6,2.3-21.8c0.5-6.8,1.2-13.7,2.3-20.4c0-1.6-0.2-3.1,1.4-4.2c3.2-4.2,1.3-9.4,2.8-13.9l0,0
				c1.6-11.3,1.2-22.5-2.8-33.4l0,0c-1.2-3.4-7-4.8-5.2-8.8c2-4.3,6.9-2.1,10.7-2.3c5.3-0.3,10.7,0.3,15.3-2.9l1.4-1.4
				c3.5-5.7,2-12,2.1-18.1C498,279.9,499.4,278.6,509.7,280.3z"/>
			<path class="st4" d="M494.3,309.5c-2.4,3.8-6.4,3.9-10.3,4.2c-2.9,0.2-6,0-8.9,0c-2,0-4.6-0.8-5.8,1.2c-1.5,2.4,1.5,3.4,2.6,4.8
				c1,1,1.5,2.3,1.6,3.7c-11.2-10.5-23-4.5-34.8-1.4c-6.2,3.1-12.6,4.8-19.8,3.2c-7.1-1.6-14.7,0.1-21.9-1.8
				c-8.1-1.8-16.5,0.2-24.7-1.4c-1.4-0.1-2.8-0.2-4.2-0.5c-1.1-0.3-2.3-0.8-2.3-2.2c-0.1-1.9,1.3-2.2,2.8-2.3
				c1.5-0.1,3.3,0.4,4.7-0.8l8.3-4.2c2.4-1.3,5-0.6,7.4-0.6c30.3,0,60.6,0,90.9-0.1c2.5,0,5.1,0.7,7.4-0.7l4.2-1.4L494.3,309.5z"/>
			<path class="st4" d="M460.9,323.3l2.8-2.7c5-0.3,6.9,3.2,8.1,7.1c1.3,4.7,2.8,9.5,2.7,14.2c-0.4,10.2,0,20.8-5.2,30.2
				c-4.8,8.6-2.8,18.2-4,27.4c-0.8,6.2-0.5,12.6-2.9,18.6H461l1.1-4.3c-0.9-2.2-0.7-4.4-1-6.7c0.6-2.9,0.8-5.9,0.6-8.9
				c-0.1-3,0.1-6.1,0.5-9.1c0.8-2.9,1.1-5.9,0.9-8.9c0.3-4.5-0.8-9.2,2.8-13c2.3-2.7,1.1-6.1,2.1-9.1c0.7-7.4,2.8-14.9,0.3-22.3
				c-0.4-0.9-0.8-1.8-1-2.8C467.7,328.8,465.1,324.7,460.9,323.3z"/>
			<path class="st4" d="M472,375c-1,14.3-1.6,28.7-3.9,42.8c-0.4,2.8,1,4.8,1.1,7.4c-1.6-0.8-2.9-2-2.6-3.7
				C469.2,406.1,467.3,390.1,472,375z"/>
			<path class="st4" d="M473.5,323.5c5.5,10.7,5.4,22,2.8,33.4C476.8,345.6,475.9,334.5,473.5,323.5z"/>
			<path class="st4" d="M470.6,426.5c6.6,0.9,13-1.4,19.5-1.4C483.9,428.1,477.4,429.5,470.6,426.5z"/>
			<path class="st4" d="M476.2,356.9c-0.4,4.8,1.6,10-2.8,13.9C474.9,366.2,473.9,361.2,476.2,356.9z"/>
			<path class="st4" d="M493,425.1c2-2.3,4.6-1,6.9-1.4C498,426.1,495.3,424.9,493,425.1z"/>
			<path class="st4" d="M509.7,280.3c-10.7,0-10.9,0.5-11.3,11.4c-0.2,5.5,2.2,11.6-2.8,16.4c1.7-6.5,1.4-13.1,1.4-19.7
				C497.1,279.3,500.7,277.1,509.7,280.3z"/>
			<path class="st4" d="M288.2,258.2v-1.4c4-2.6,8.3-1.3,12.6-1.4c0,0.4-0.1,0.9-0.1,1.4C296.7,258.7,292.4,257.7,288.2,258.2z"/>
			<path class="st4" d="M350.9,252.5c0,0.4,0,1-0.1,1.4l-2.4,0.1c-2.4-0.6-5.2,0.8-7.2-1.4L350.9,252.5z"/>
			<path class="st4" d="M260.4,277.6l-1.4-1.4h82.7c2.2,0,4.7-0.8,6.5,1.3l-1.4,1.4c-2.2-1.3-4.5-0.7-6.8-0.7h-72.2
				C265.4,278.2,262.8,278.8,260.4,277.6z"/>
			<path class="st4" d="M260.4,277.6h79.9c2.3,0,4.7-0.8,6.5,1.4l-1.7,0.2h-83.2L260.4,277.6z"/>
			<path class="st4" d="M282.6,255.1l-5.5,4.2c-28,0-55.9,3.2-83.9,2.9c-4.8,0-9.5,1.6-14.5,1.2c-2.3-0.2-4.8,0.1-5.8-2.8
				c-0.9-2.6,0.6-4.3,2.3-6.1c2.9-3.5,7.2-5.3,11.6-5.1c17.8,0.5,35.7-1.1,53.4-1.7c13.9-0.5,27.8-0.6,41.7-1c1.9,0,4.8-1.1,5.5,1.4
				c0.7,2.2-2.3,2.4-3.4,3.8C283.4,253.1,283,254.1,282.6,255.1z"/>
			<path class="st4" d="M265.9,238.5c-6.1-5.4-5.9-6.7,1.3-12.4h55.9c6.1,4.1,6.1,4.7,1.7,8.3c7.1-0.7,7.1-0.7,12,1.2
				c-4,2.9-8.4,1-12.6,1.3c-8.7,0.6-17.6-0.6-26.2,1.6l-13.9,0.1C278,238.6,272,238.5,265.9,238.5z"/>
			<path class="st4" d="M336.8,235.7h-13.8c7.6-4.3,1.4-6.6,0.1-9.5l4.1-0.3C330.9,228.6,334.1,231.9,336.8,235.7z"/>
			<path class="st4" d="M347.9,230.1c-3.4-1.1-8-1-9.2-5.7c-0.7-2.8,2-2.9,3.7-2.5c4.1,0.9,8.6,1.8,10,6.2
				C353.2,230.1,350,229.9,347.9,230.1z"/>
			<path class="st4" d="M366.4,234.9c4.2-1,6.8,1.8,9.9,3.1c2.1,0.9,4.8,2.2,3.2,4.9c-1.3,2.1-3.7,1-5.5,0
				C370.7,241.2,367.8,239,366.4,234.9z"/>
			<path class="st4" d="M235.5,233c-2.3,0-4.2,0.1-6.1,0c-1.9-0.1-4.6,0.9-4.9-2.3c-0.3-2.3,1.7-3.7,3.6-4.6
				c6.4-2.9,13.2-1.7,19.7-1.1c3.3,0.3,2.7,2.9,0.8,5.1C244.8,234.7,239.6,232.3,235.5,233z"/>
			<path class="st4" d="M234,377.6c-3.4-3.1-5.1-7.7-4.4-12.3c0.3-3.9,0.3-7.8,0-11.7c-0.4-7.6-0.1-15.1,4.4-21.6
				c11.3-5.3,22.7-10.4,33.9-15.9c5.2-2.6,9.9-2.9,15.2-0.1c15.5,8.3,31.1,16.5,46.7,24.8c6.7,3.6,8.1,7.7,6,14.9
				c-3.7,12.9-7.4,25.7-11,38.6c-2,7.2-4.2,8.3-11.4,6.5c-11.6-3-22.9-7.2-34.8-9.1l-11.2-3.8C256.2,384.5,244.5,383,234,377.6z"/>
			<path class="st4" d="M341.1,336.2c1.7,0.3,3.2,1.3,4.3,2.6c-2.6,2.1-6.8,1.8-8.3,5.5l-2.9-4.1
				C336.4,338.9,338.7,337.5,341.1,336.2z"/>
			<path class="st4" d="M328.9,329.1h2.6c2.5-1.3,3.8-0.3,4.2,2.3c0,0.6-0.1,1.2-0.2,1.8C333.2,332,330.4,331.4,328.9,329.1z"/>
			<path class="st4" d="M289.6,305.3c0,1,0,2.1-0.1,3l-4-1.8l1.4-1.4C287.7,304.5,288.9,304.6,289.6,305.3z"/>
			<path class="st4" d="M289.6,305.3l-2.7-0.1l-5.9-3.8c-1.2-6.8-0.7-7.3,8.9-10.2c16.5-0.3,33.2-0.9,49.7,0.2
				c3.6,2.7,5.8,5.5,3,10.4c-1.6,2.8,1.2,1.8,2.4,2.1c-0.7,1.2-2.3,1.8-3.6,1.4c-14.3-2.6-28.6-0.6-42.9,0
				C295.7,305.4,292.7,305.3,289.6,305.3z"/>
			<path class="st4" d="M288.1,293c-3.9,1.5-7.4,3.3-6.9,8.3l-13.8-0.3c-2-1.9-5-3.2-3.9-6.9c0.8-2.5,2.5-2,4.2-1.4
				C274.5,290,281.3,289.6,288.1,293z"/>
			<path class="st4" d="M189.2,329c19.7,0.2,19.7,0.2,19.7,19.5c0,10-3.5,13.7-13.5,13.9c-22.4,0.4-21.7-0.5-21.5-20.3
				C174.1,327.2,173.2,329,189.2,329z"/>
			<path class="st4" d="M355,352.7l-1.4,1.4c0-1.4,0.3-3-1.1-4.1v-4.4c0.5-0.9,0.1-2.1,1.1-2.7l1.4,1.4
				C356,347.1,356,350.1,355,352.7z"/>
			<path class="st4" d="M335.7,331.3c-1-1.3-2.6-2.2-4.2-2.3c8.1-3,15.9-1,23.6,1.4c-0.4,1.9-2.3,2.6-3.2,4
				c-1.4,1.3-0.7,4.2-3.6,4.2C344.9,334.9,340.1,333.4,335.7,331.3z"/>
			<path class="st4" d="M348.4,338.5c1.9-1.3,0.3-4.2,2.5-5.4c2.1,1.6,1,4,1.6,6c0.3,0.9,0.6,1.7,1.1,2.4v1.4l-1.1,2.7
				C351.1,343.3,349.8,341,348.4,338.5z"/>
			<path class="st4" d="M288.1,293l-20.4-0.3c-1-4.8,0.7-6.8,5.7-6.8c20.1,0.2,40.3,0.1,60.4,0c3.9,0,6.4,1,6,5.5
				c-2.4,1.7-5.2,1.4-8,1.4L288.1,293z"/>
			<path class="st4" d="M396.8,334.6h-2.7c-0.5-0.5-0.4-1.3,0-1.8l0,0c0-0.1,0.1-0.1,0.2-0.1c2-1,4.2-1.1,6.3-0.3
				c4.7,0.8,6,4.3,6.6,8.3c0.1,4.2-3.2,6.8-4.9,10.2c-0.3,0.5-0.7,1-1,1.6c-2.3,2.5-4.2,5.3-5.9,8.1c-0.3,0.5-0.7,1-1,1.6
				c-1.3,1.6-2.9,3.1-2,5.5c0.3,0.6,0.4,1.2,0.6,1.8c6,14.3,12.1,28.5,18.3,42.7c1.5,3.4,2.5,6.8,3.6,10.4l1.6,1.3
				c9.8,2.8,19.7,0.6,29.4,1.3c2.8,0.2,5.7-0.3,8.1,1.5c3.3,2.6,5.2,5.5,0.1,8.3v-1.4c-1.6-1.4-2.3-3.3-3.8-4.8
				c-0.1-0.3-0.3-0.5-0.3-0.8c-7.4-2.9-15.2-1.7-22.5-1.1c-11,1-17.2-2.9-21-13.2c-5.2-13.9-11.4-27.3-17.4-40.8
				c-2.4-5.4-1.1-9.7,1.8-14.3c3.5-5.2,7.8-9.8,10.5-15.5C403.1,338.4,401.4,335.9,396.8,334.6z"/>
			<path class="st4" d="M413.4,332.2l1.6-0.3c7.8,0.2,15.5-1.4,23.3-0.6c1.1,4.4-3.1,3-4.8,4.4c-2.3,0.4-4.6,0.7-6.9,0.8
				c-5.8,0.4-10.6,2.4-14,7.5c-3.5,5.1-6.8,9.9-10.5,14.6c-3.8,5-4.8,10.1-2.2,16.2c5.1,11.7,10,23.4,15.2,35.1
				c2.4,5.5,6.3,8,12.5,7.9c6.9-0.1,13.9-0.7,20.8,0.5c2,0.7,4.3,0.8,5.8,2.7c-2.4,2.3-5.1,0.8-7.7,0.5c-7.5-1-15.2-0.9-22.6,0.2
				c-3,0.5-5.9,1-8.6-0.8c-6.3-9.5-9.4-20.7-14.2-30.9c-3.4-7.2-6.3-14.6-9.5-22l0,0c-1.9-3.5,2-4.6,2.8-6.9l0,0
				c2.5-3.1,4.6-6.6,6.9-9.7l0,0c3.6-4.2,6.3-9,8.3-14.1C410.2,335.2,411.6,333.5,413.4,332.2z"/>
			<path class="st4" d="M391.3,368c7.7,12.1,11.6,26.1,17.8,38.9c2.3,4.6,3.9,9.4,5.9,14c0,0.5,0,1.1-0.1,1.6
				c-6.8-9.9-10-21.5-14.9-32.3C396.7,383,392.5,376.1,391.3,368z"/>
			<path class="st4" d="M454,421c-1.9-0.3-4.1,0.6-5.5-1.4c4.9-2.3,6.2-8.1,10.4-11.3c0.2,0.1,0.3,0.2,0.5,0.3
				c0.3,0.3,0.4,0.8,0.2,1.2c0.8,4.6-1.2,8-4.3,10.9L454,421z"/>
			<path class="st4" d="M459.6,409.9c-2.7-0.3-2.3,2-2.8,3.4c-1.6,3.8-3.9,6.5-8.3,6.4c-7.4,0-14.8-0.2-22.3,0
				c-5.7,0.2-9.9-2-12.1-7.4c-5.5-12.9-10.9-25.9-16.7-38.8c-2.3-5-1.2-9.5,1.6-13.7c4.5-6.7,9-13.4,14.1-19.7
				c5.1-6.2,12.7-5.7,19.9-5.5c6.1-0.6,6.9,4,8.3,8.2c0.3,1.1,0.3,2.3,0.3,3.4c0.3,7.6,2.8,13.8,10.7,16.5c1.9,0.8,3.7,1.8,5.3,3.2
				c6,3.4,4.4,9.6,5.7,14.8c0.1,0.8,0.2,1.6,0.2,2.3c0,6.2-1.6,12.4-1.4,18.7c0.2,2.8-0.3,5.6-1.4,8.2
				C460.5,409.8,460,409.8,459.6,409.9z"/>
			<path class="st4" d="M460.9,409.8c0.1-2.8,0.1-5.5,0.2-8.3c0.4-0.4,1.2-0.3,1.6,0.1l0,0c0.1,0.1,0.1,0.2,0.2,0.3
				c0.1,1.7,0.5,3.5-0.4,5.2c-0.1,2.3-0.2,4.6-0.3,6.8C460.6,412.8,461,411.3,460.9,409.8z"/>
			<path class="st4" d="M394,344.3l-2.8,4.2c-1.3,2-2.9,3.6-4.2,5.5c-1,0.5-1.6,1.6-1.4,2.8c-3.6,7.4-2.4,14.5,1,21.8
				c4.9,10.7,9.3,21.6,14.2,32.2c1.1,2.4,0.2,5,1.6,7.3c0.3,3.1,2.2,5.5,3.6,8.2c0.6,1.2,2.3,2.3,1,3.6c-1.2,0.7-2.6,1-3.9,0.6
				c-17.8-3.1-35.8-6.3-53.6-9.6c-6.5-1.2-6.2-6-4.9-10.7c4.3-15.3,8.8-30.6,13.3-45.8c1-2.3,1.4-4.8,1.3-7.4c1.5-4.6,2.9-9,1-13.9
				c-1.3-3.2,0.4-4.8,4.2-4.9c9.3-0.5,18.3,1.6,27.5,1.6C395.3,339.6,395.4,341.8,394,344.3z"/>
			<path class="st4" d="M402.4,418.2c-6.5-14.5-13.2-28.9-19.3-43.6c-2.5-6-3.7-12.6,2.6-17.8v1.4c-4.1,11.5,2.6,20.9,6.6,30.7
				c3.2,7.8,6.3,15.8,10.1,23.4c0.7,1,0.7,2.3-0.1,3.1C402.4,416.3,402.4,417.3,402.4,418.2z"/>
			<path class="st4" d="M402.4,415.3c-5.7-13.8-11.3-27.6-17.3-41.3c-2.4-5-2.3-10.9,0.6-15.8h1.4c-4.7,11.3,2.3,20.4,6,30.2
				c3.4,9,8.6,17.3,10.7,26.8L402.4,415.3z"/>
			<path class="st4" d="M394,344.3c0.1-2.3-0.4-4.2-3.3-4.2c-8.3,0.3-16.5-2.1-24.9-1.6c-4.2,0.3-6.1,1.3-4.5,5.8
				c1.5,4.2,0.7,8.9-2.1,12.4c-0.1-4.8,2-9.4,0.2-14.3c-1.3-3.6,0.9-5.1,4.8-5.4c9.5-0.6,18.9,1.4,28.3,1.6
				C396.9,339.1,398.1,341.3,394,344.3z"/>
			<path class="st4" d="M387,354.1c0.2-2.8,2-4.3,4.2-5.5C391.2,351.4,389.3,352.9,387,354.1z"/>
			<path class="st4" d="M416.3,427.9h33.4c4.2,3.3,2.6,5.4-1.4,6.9l-11.2,2.7c0.5-3.5,3.8-2.8,5.9-3.9c1.2-0.6,3.1-0.6,2.9-2.3
				c-0.2-2.1-2.2-2-3.8-2h-20.7C419.6,429.3,417.7,429.6,416.3,427.9z"/>
			<path class="st4" d="M448.4,434.8c2.6-1.9,3.6-4.2,1.4-6.9c3.6,0.2,4.3,2.5,4.2,5.5C452.3,434.6,450.3,435,448.4,434.8z"/>
			<path class="st4" d="M401,333.2h-6.9c-3.1,1.3-6.4,0.5-9.5,0.5c-8.3-0.4-16.7-1.4-25.2-0.7l-1.4,0.1c-5.1-0.3-4.2,4.2-5.5,6.9
				c-2.3-2-1-4.7-1.4-6.9l4.2-2.8c0.4-0.2,0.9-0.5,1.3-0.5c14.9,0.3,29.9-0.2,44.7,1.8c0.5,0.3,0.6,0.7,0.4,1
				C401.4,332.8,401.2,333.2,401,333.2z"/>
			<path class="st4" d="M384.3,333.2h9.7c0,0.4,0.1,1,0.1,1.4c-9.3-0.8-18.7,1.8-27.9-1.4C372.2,332.1,378.3,332.1,384.3,333.2z"/>
			<path class="st4" d="M384.3,333.2h-18.1l-6.9-0.1C367.5,330.9,376.1,331,384.3,333.2z"/>
			<path class="st4" d="M352.2,340.2c0.1-3.7-0.5-8.1,5.5-6.9c-3.6,1.6-4.5,4.8-4.2,8.3L352.2,340.2z"/>
			<path class="st4" d="M396.8,334.6c6.2,0.3,6.8,3.6,4.2,8.3C401.8,339.1,399.7,336.6,396.8,334.6z"/>
			<path class="st4" d="M355,352.7v-8.4C357.2,346.8,357.2,350.3,355,352.7z"/>
			<path class="st4" d="M212.5,315.2c-15.8-1-30-1.8-44.3-2.9c-5.8-0.4-12.8-10.3-13.7-18.4c-1.1-10.2,1.1-12.8,11.5-13.6
				c20.9-1.6,41.9-2.7,63-2.8c4.3,0,8.7-0.9,13.1-1.3c2.6-0.4,5.2,0.9,6.4,3.2c4.2,7.8-0.3,22.5-8.3,26.2
				C230.9,310,222.3,316.9,212.5,315.2z"/>
			<path class="st4" d="M147.6,333.3h4.8c2.6,0,4.6,0.9,4.8,3.8c0.2,3.3-1.8,4.4-4.8,4.5h-8.4c-3.1,0-5.7-1.4-5.9-4.6
				c-0.3-4.1,3.2-3.6,6-3.8C145.3,333.2,146.5,333.2,147.6,333.3z"/>
			<path class="st4" d="M426.6,295.6h-38.3c-6.7,0-13.2-0.1-19.5,3.3c-6.1,3.3-9.5,0.6-9.5-6.5c0-20.9-2.2-19.1,19-19.1
				c28.5,0.2,56.9-2.3,85.4-1.5c10.5,0.3,18.3,2.4,16.9,16.5c-0.5,5.3-1.9,7.4-7.4,7.3C457.7,295.4,442.1,295.6,426.6,295.6z"/>
			<path class="st4" d="M373.2,316.5c-1.4,2.4-4.5,0.5-7.1,3.5c6.1,0.8,11.4,1.4,16.7,2.2c4.7,0.6,9.5-1.4,13.9,1.4
				c-22.3,1-44.3-2.6-66.5-2.8c-0.3,0-0.4,0-0.7,0c-4.2-1.2-10.2-1.8-9.7-6.9c0.3-4,6.1-2.5,9.7-2.8c7.2-0.7,14.4,0.6,20.9,3.7
				C357.6,318.2,365.6,316,373.2,316.5z"/>
			<path class="st4" d="M487.4,310.9c-2.3,2.3-5.3,1.3-7.9,1.3c-32.6,0.1-65.3,0.1-97.9,0c2.1-2.3,4.8-1.4,7.2-1.4
				C421.6,310.9,454.5,310.9,487.4,310.9z"/>
			<path class="st4" d="M438.7,332c-5.5-0.7-11,0.2-16.5,1c-2.3,0.3-5.1,0.9-7.3-1v-1.4c5,0,10,0.1,15.2,0c4.2-0.2,8.1,0.7,11.8-4.2
				c2.9-3.9,10.4-1,15.7-2.8c1.1-0.3,2.3-0.3,3.4-0.3c7.4,0.3,8.6,2,6.8,9.8c-3.4-1.6-4.8-6.8-9.9-4.8c-3.3,0.1-6.7-0.4-9.9,0.6
				c-4.8,0.9-2.6,5.5-4.5,8.1c-0.4,0.4-1,0.8-1.6,0.9C439.4,336.5,439.5,334,438.7,332z"/>
			<path class="st4" d="M401,333.2v-1.5l12.4,0.5c0.3,2.2-1.5,3.2-2.6,4.6c-0.7,2.2-2.3,3.9-4.3,4.7
				C404.5,338.8,405.1,334.5,401,333.2z"/>
			<path class="st4" d="M470.4,418.2c4.2-16.1,1.2-32.8,6.6-49.1c4.8-14.8,5.5-30.9-0.8-46.2c-2.4-5.8,0-7.7,5.4-7.8
				c2.5,0,5.1,0.1,7.6,0c6.1-0.4,9.8-3.9,10.7-10c0.8-5.7,2-11.4,1.4-17.2c-0.3-3.6,1.4-4.8,4.8-4.8c10.6-0.3,13.2,2,13.2,12.6
				c0.1,6.5-0.6,12.9,1.1,19.3c1,4-0.2,6.8-5.5,7.4c-19.7,2.3-30.5,22.3-22.1,40.4c2.4,5.3,4.6,10.7,7.3,15.8
				c6.5,12.5,1.2,25.5,2,38.2c0.2,2.6-2.7,3.9-5.5,4.4c-6.8,1.1-13.5,2.8-20.3,3.6C471.8,425.4,470.3,422.5,470.4,418.2z"/>
			<path class="st4" d="M443.7,316.3c-7.6,4.7-14.7,7.9-24,6.4c-10.4-1.6-21.1-1.4-31.7-2.1c-2.9-0.2-7.7,0.7-7.7-2.3
				c0-3.6,4.5-4.6,8.1-4.6c14.5,0,29.2-0.1,43.7,0C435.9,313.9,440,312.6,443.7,316.3z"/>
			<path class="st4" d="M458.1,326.2c5.7-1.4,8.7,1.3,9.6,6.8l1.5,1.4c-0.5,3.6,2.5,7.2,0.6,10.9c-0.3,0.6-1,0.9-1.7,0.8
				c-2.1-0.8-3-2.5-3.9-4.3c-0.3-3.6-3.2-4.1-6-4.7c-1-0.3-1.6-1.1-1.6-2.2C459.3,332.5,459.5,329.5,458.1,326.2z"/>
			<path class="st4" d="M469.1,345.6c1.6-3.7-2.4-7.5,0.2-11.3c4.4,8,1.4,16,0.2,24.1c-1.2-0.7-2.2-1.8-2.5-3.2
				c-0.3-1.3-0.4-2.8-0.1-4.1C467.4,349.4,467.5,347.2,469.1,345.6z"/>
			<path class="st4" d="M462.6,382l-0.3-1.6c-0.9-3.9-1-8-0.1-11.9c0.5-1,1.3-1.8,2.3-2.3c0.6-0.3,1.4-0.4,2.1-0.4
				c1,0.3,2,0.7,1.4,2.1c-4.6,3.4-2.2,8.2-2.8,12.6c-0.3,0.7-0.7,1.3-1.2,1.9C463.3,382.6,462.8,382.4,462.6,382z"/>
			<path class="st4" d="M462.6,382h1.2c1,2.2,1,4.7,0.1,6.9l-0.2,9.6c-0.8,0.9-0.3,2.2-1.3,2.9h-1.2C461.5,395,462,388.5,462.6,382z
				"/>
			<path class="st4" d="M467.8,368l-1.4-1.4c-2.1-4.1-1.1-7.7,1.6-11.2l1.4,3C468.7,361.7,470.6,365.2,467.8,368z"/>
			<path class="st4" d="M463.8,388.9c0-2.3-0.1-4.6-0.1-6.9l1.3-1.6C464.7,383.3,466.1,386.3,463.8,388.9z"/>
			<path class="st4" d="M462.3,401.5l1.3-2.9c-0.3,2.8,1.2,6-1.2,8.5C462.4,405.1,462.3,403.3,462.3,401.5z"/>
			<path class="st4" d="M260.7,249.7h15c1.6,0,3.5-0.3,3.7,2.1c0.2,1.9-1.2,2.9-2.8,3.6c-1.5,0.7-3,1.1-4.6,1.2
				c-12.6-0.5-24.9,1-37.3,1.8c-16.1,1-32.3-0.1-48.4,2.3c-3.1,0.4-8.8,2.2-9.1-3.1c-0.3-4.9,5.1-5.1,9.1-5
				c18.3,0.4,36.5-2,54.7-1.6C248.1,250.9,255.3,249.2,260.7,249.7z"/>
			<path class="st4" d="M284.5,227.4c11.2-0.8,22,2.3,33.1,1.4c1.7-0.2,4.2-0.3,4.3,2.2c0,2.2-2.5,2.6-4.2,3
				c-5.5,1.3-11.3,0.4-17.1,1.3c-9.5,1.5-19.2,1.4-28.9,1.8c-2.9,0.1-6.6,0-6.9-4c-0.3-4.2,3.4-5.2,6.6-5.5
				C275.7,227.1,280.1,227.4,284.5,227.4z"/>
			<path class="st4" d="M234,353.4c-2.5-11.4,3.6-18.7,15.1-23.1c5.5-2.3,11-4.9,16.2-8c7.4-4.1,14.5-3.6,21.7,0.5
				c12,6.6,24,12.9,36,19.4c8.1,4.4,9.5,7.3,7.2,16.2c-2.5,9.6-5.1,19.2-7.8,28.7c-2.3,8-5.2,9.7-13.2,7.5
				c-20.1-5.4-40.1-10.8-60.1-16.4C237,375.1,232.7,371.4,234,353.4z"/>
			<path class="st4" d="M313.3,301.2h-21.6c-1.9,0-4.2-0.2-4.2-2.5c0-2.3,2.4-2.8,4.2-2.8c14.4-0.2,28.7-0.2,43,0
				c1.7,0,4.2,0.5,4.2,2.8c0,2.9-2.8,2.6-4.8,2.6C327.2,301.2,320.3,301.2,313.3,301.2z"/>
			<path class="st4" d="M191.4,333.3h6.9c6.5,0.3,8.1,2.3,6.8,8.7c-0.3,1.1-0.4,2.3-0.5,3.4c-0.6,4.2,2.1,10-3,11.9
				c-6.7,2.6-14,1.4-21.1,0.5c-1.4-0.3-2.3-1.7-2.3-3.2c-0.1-6-0.1-12-0.1-18c0-2.8,1.9-3.3,4.2-3.3L191.4,333.3z"/>
			<path class="st4" d="M335.6,289.9h-64.3v-0.8h64.1C335.4,289.3,335.5,289.6,335.6,289.9z"/>
			<path class="st4" d="M406.4,341.5c1.4-1.6,2.9-3.1,4.3-4.7c-1.6,5.7-5.1,10.8-9.7,14.5C401.4,347.3,405.1,345,406.4,341.5z"/>
			<path class="st4" d="M401,351.3c-1,4-3.5,7.4-6.9,9.7C395.1,357.1,397.6,353.6,401,351.3z"/>
			<path class="st4" d="M394.1,361.1l-2.8,6.9C388.2,364.2,391.7,362.9,394.1,361.1z"/>
			<path class="st4" d="M438.7,332c2.6,0.9,2.6,3.1,2.8,5.4c1.4,1.4,1.6,3.6,0.5,5.2c-0.4,0.6-1.2,0.8-1.8,0.3l-0.2-0.1
				c-1.3-3.6-2.6-7.3-6.9-8.3C434.3,332.4,437.3,333.9,438.7,332z"/>
			<path class="st4" d="M435.3,416.7h-1.4c-15.1,0-15.1,0-21-13.9c-4-9.4-8-18.7-12-28.1c-2.3-4.7-1.8-10.3,1.4-14.4
				c4-5.5,7.8-11.4,11.9-17.1c3.6-4.9,11.9-7.7,17.4-5.6c3.5,1,5.8,4.2,5.6,7.9c0,10.6,4.4,18.1,14.5,22.1c4.8,1.9,6.6,6.1,6.1,11.3
				c-0.9,8.2-1.9,16.5-2.4,24.8c-0.7,11.2-2.5,13-13.9,13C439.4,416.7,437.4,416.7,435.3,416.7z"/>
			<path class="st4" d="M440,342.9l1.4,0.1c3.1,0,3.1,2.7,2.9,4.4c-0.8,7.2,3.2,10.9,9.1,13.6c1.7,0.6,3.2,2,3.8,3.6
				c0.1,0.7-0.1,1.5-0.6,2c-1-0.6-2-1.1-3-1.5C442.4,361.8,439.3,353.5,440,342.9z"/>
			<path class="st4" d="M456.8,366.7v-1.4c3.4-1.7,5.5-0.3,6.7,2.9c-2.1,3.9-0.7,8.2-1.2,12.3C459.7,376.1,462.6,369.6,456.8,366.7z
				"/>
			<path class="st4" d="M334.6,313.7h1.9c3.6,0.3,7.5-1.3,10.2,2.4c0.3,0.4,0.3,1.6,0.1,1.8c-3.5,2.6-7.4,1-11.3,1.1
				c-0.4,0-1-0.2-1.3-0.4c-2.8-1.7-9.1,0.9-8.7-3S331.9,314.8,334.6,313.7z"/>
			<path class="st4" d="M463.4,368.2l-6.7-2.9c-1-0.9-2.1-1.6-3.3-2.3c-7.4-2.9-12-7.5-10.7-16.2c0.3-1.4-0.2-2.9-1.3-3.7v-5.5h1.1
				l1,0.3c0.9,0.6,1.6,1.6,1.8,2.6c0.7,2.7,0.3,5.5,1.3,8.1c0.2,5.1,2.9,8,7.4,10.3c3.9,2,9.5,2.2,10.9,7.8
				C464.5,367.1,463.9,367.6,463.4,368.2z"/>
			<path class="st4" d="M442.6,337.4c2.1-3-3.4-9.3,4.2-10c1.3-0.7,2.5-0.9,3.1,0.9c-4.3,4.5-0.4,7.3,2.1,10.4
				c0.3,1.3-0.4,2.7-1.6,3.2c-3.6,0.3-5-2.9-7.4-4.7L442.6,337.4z"/>
			<path class="st4" d="M449.7,329c-0.7-1-1.8-1.6-2.9-1.5c3.6-2.2,7.5-1,11.3-1.3c5.3,4.8,5.2,5.3-1.4,8.3l-0.6-0.8
				c-0.8-3-3.6-3.1-5.8-4.2C450.2,329.4,450,329.2,449.7,329z"/>
			<path class="st4" d="M449.7,341.5l1.6-2.5c1-4,4.4-2.3,6.8-2.9c4.2-0.6,7.9-0.6,6.8,5.5c-1.6,1.1-2-4.2-4-0.7
				c-1.1,0-2.3,0-3.5,0.2c-2.3,0.3-4.2,2.2-4.7,4.5c-0.4,2.6,1.5,3.6,3.4,4.6c1.4,0.8,2.9,1.3,3.8,2.9c0.1,0.7-0.2,1.4-0.8,1.8
				c-5.4,2.3-8.7-0.4-11.3-4.8C445.9,346.8,445.6,343.6,449.7,341.5z"/>
			<path class="st4" d="M458.2,336.1l-6.8,2.9c-1.6-2.3-5.9-1.6-5.7-5.7c-0.2-2.2,1.5-4.1,3.6-4.2c0.2,0,0.3,0,0.4,0l0,0
				c0.2,4.6,4.1,4.3,6.9,5.5l0,0C457.2,335.1,457.7,335.6,458.2,336.1z"/>
			<path class="st4" d="M461.1,340.1c2.8-3.7,2.5,1.1,3.9,1.4l3,4.2c-0.1,0.3-0.3,0.5-0.4,0.9c-2.2,1.8-4,0.9-5.7-0.7
				C461.3,344,459.1,342.3,461.1,340.1z"/>
			<path class="st4" d="M469.1,345.6c0.2,2,0.6,4.1-1,5.8c-0.9-0.1-1.6-0.7-2-1.6c-0.3-1.6,1.1-2.7,1.6-4.1l0.4-0.2
				C468.4,345.7,468.7,345.7,469.1,345.6z"/>
			<path class="st4" d="M466.7,350.1l1.4,1.4v4.1l-1.6,11.2h-1.4c-3.6-3.4-8.3-5-12.7-6.8c-5.2-2.2-7.8-5.3-6.9-10.9
				c-1.4-2.8,0.3-5.8-1.1-8.6c-0.4-1-0.9-1.9-1.3-2.9c2.8,0.5,4.7,2.4,6.7,4.2c-3.6,7.6-0.1,12.1,9.8,12.7
				C462.6,354.1,463.8,350.6,466.7,350.1z"/>
			<path class="st4" d="M305.4,232.4c-10.7,2.3-21.8,2.3-32.7,3.3c-2.4,0.3-5.9,0-6-3.1c0-2.4,3.2-3.6,5.3-3.6
				c11.2,0.3,22.3,1,33.3,1.6C305.4,231.2,305.4,231.8,305.4,232.4z"/>
			<path class="st4" d="M238,353.4c-2.9-10.6,3.4-17.1,14-21c3.6-1.2,6.8-2.8,10-4.8c13.9-9.4,25-0.7,36.6,5.3
				c7.2,3.7,14.1,8.1,21.6,11.3c6.8,2.9,8.2,7.9,6.8,13.9c-2.3,9.4-5.3,18.6-7.9,28c-1.4,5.2-4.8,6.3-9.5,5
				c-19.1-5.2-38.4-10.2-57.4-15.5C238,371.7,238,371.5,238,353.4z"/>
			<path class="st4" d="M436,412.6c-14.5,0-14.4,0-19.8-13.9c-3.2-8.1-6.8-16.3-10.6-24.2c-2.3-4.8-2.2-8.7,1-12.9
				c3.9-5.1,7.7-10.4,11.5-15.6c3.1-4.2,8-3.8,12-3.2c3.5,0.5,2.7,4.7,2.9,7.7c0.8,8.6,4.2,15.7,12.7,19c5.4,2.1,6.8,5.8,6.8,11.3
				c0.2,8.6-2.1,17-1.6,25.5c0.2,3.8-2.3,6-6.1,6.1C441.9,412.7,439,412.6,436,412.6z"/>
			<path class="st4" d="M444.4,340.2c2.3,2.6,1,5.7,1.1,8.6C443.6,346.1,444.3,343.1,444.4,340.2z"/>
			<path class="st4" d="M456.8,334.6c-2.5,0-5,2.8-7.4,0c-1.6-2-0.3-3.7,0.4-5.5C452.7,330,459.6,326.2,456.8,334.6z"/>
			<path class="st4" d="M461.1,340.1c-0.6,2.3,2.9,3.4,1.6,5.8c2.1,1.1,2.9,3.8,1.6,5.9l0,0l-0.1,0.2c-1.1,2.2-2.8,2-4.7,1
				c-1-0.3-2.2-0.7-3.3-1c-3.6-1-7-3.1-5.5-6.9C452.2,340.8,455.3,336.7,461.1,340.1z"/>
			<path class="st4" d="M459.5,352.9c6-0.2,3.9-3.8,3-6.9c1.6-0.1,3.4,1.3,5,0l-1,4.2c-2,2.1-2.2,7.3-7.2,4.2
				C459.5,353.8,459.5,353.3,459.5,352.9z"/>
			<path class="st4" d="M275.3,324.7c2.1,0.4,4.2,1.1,6.1,1.9c12.9,6.8,25.8,13.6,38.6,20.5c4.3,2.3,6.3,5.3,4.5,10.7
				c-2.9,8.9-4.9,18.3-7.5,27.4c-1,3.4-2.5,5.4-7,4c-21.2-6.1-42.7-12-64-17.8c-1.6-0.3-3-1-4.2-2.1c-5.5-5.5-2.2-27.6,4.8-31.2
				s14-7,21.1-10.6C270.1,326.3,272.8,325.6,275.3,324.7z"/>
		</g>
	</g>
</g>
</svg>
