<?xml version="1.0" encoding="utf-8"?>
<!-- Generator: Adobe Illustrator 23.0.4, SVG Export Plug-In . SVG Version: 6.00 Build 0)  -->
<svg version="1.1" id="Layer_1" xmlns="http://www.w3.org/2000/svg" xmlns:xlink="http://www.w3.org/1999/xlink" x="0px" y="0px"
	 viewBox="0 0 658.4 658.4" style="enable-background:new 0 0 658.4 658.4;" xml:space="preserve">
<style type="text/css">
	.st0{fill:url(#SVGID_1_);}
	.st1{display:none;fill:url(#SVGID_2_);}
	.st2{display:none;fill:url(#SVGID_3_);}
	.st3{display:none;fill:url(#SVGID_4_);}
	.st4{display:none;fill:url(#SVGID_5_);}
	.st5{fill:#00FF0C;stroke:#000000;stroke-miterlimit:10;}
</style>
<g>
	<g id="Layer_1-2">
		
			<radialGradient id="SVGID_1_" cx="345.28" cy="250.75" r="484.41" gradientTransform="matrix(1 0 0 1 0 -132)" gradientUnits="userSpaceOnUse">
			<stop  offset="0.41" style="stop-color:#FF3FD5"/>
			<stop  offset="0.5" style="stop-color:#FB3DD1"/>
			<stop  offset="0.6" style="stop-color:#F038C3"/>
			<stop  offset="0.7" style="stop-color:#DD2EAD"/>
			<stop  offset="0.8" style="stop-color:#C3218F"/>
			<stop  offset="0.91" style="stop-color:#A11168"/>
			<stop  offset="1" style="stop-color:#7F0040"/>
		</radialGradient>
		<circle class="st0" cx="329.2" cy="329.2" r="329.2"/>
		
			<linearGradient id="SVGID_2_" gradientUnits="userSpaceOnUse" x1="329.2" y1="644.38" x2="329.2" y2="169.12" gradientTransform="matrix(1 0 0 1 0 -132)">
			<stop  offset="0.36" style="stop-color:#000000"/>
			<stop  offset="0.45" style="stop-color:#040203"/>
			<stop  offset="0.53" style="stop-color:#0F090E"/>
			<stop  offset="0.61" style="stop-color:#22141F"/>
			<stop  offset="0.69" style="stop-color:#3D2338"/>
			<stop  offset="0.76" style="stop-color:#5F3757"/>
			<stop  offset="0.84" style="stop-color:#8A507E"/>
			<stop  offset="0.91" style="stop-color:#BC6DAC"/>
			<stop  offset="0.99" style="stop-color:#F48EE0"/>
			<stop  offset="1" style="stop-color:#FF94EA"/>
		</linearGradient>
		<ellipse class="st1" cx="329.2" cy="158.9" rx="210.9" ry="138.6"/>
		
			<linearGradient id="SVGID_3_" gradientUnits="userSpaceOnUse" x1="722.6221" y1="173.1369" x2="722.6221" y2="-74.4331" gradientTransform="matrix(0.9767 0.2147 -0.2147 0.9767 -309.3401 -27.8835)">
			<stop  offset="0.36" style="stop-color:#000000"/>
			<stop  offset="0.45" style="stop-color:#040203"/>
			<stop  offset="0.53" style="stop-color:#0F090E"/>
			<stop  offset="0.61" style="stop-color:#22141F"/>
			<stop  offset="0.69" style="stop-color:#3D2338"/>
			<stop  offset="0.76" style="stop-color:#5F3757"/>
			<stop  offset="0.84" style="stop-color:#8A507E"/>
			<stop  offset="0.91" style="stop-color:#BC6DAC"/>
			<stop  offset="0.99" style="stop-color:#F48EE0"/>
			<stop  offset="1" style="stop-color:#FF94EA"/>
		</linearGradient>
		<path class="st2" d="M291.5,93C300,54,355,33,414.3,46s100.3,55.2,91.8,94.1c-8.6,39-63.5,60-122.8,47S282.9,131.9,291.5,93z"/>
		
			<linearGradient id="SVGID_4_" gradientUnits="userSpaceOnUse" x1="488.476" y1="252.5206" x2="564.7859" y2="300.6606" gradientTransform="matrix(1 0 0 1 0 -132)">
			<stop  offset="0" style="stop-color:#000000"/>
			<stop  offset="0.1428" style="stop-color:#040203"/>
			<stop  offset="0.2706" style="stop-color:#0E080D"/>
			<stop  offset="0.3928" style="stop-color:#21131E"/>
			<stop  offset="0.5116" style="stop-color:#3B2236"/>
			<stop  offset="0.6278" style="stop-color:#5C3554"/>
			<stop  offset="0.7422" style="stop-color:#844D7A"/>
			<stop  offset="0.855" style="stop-color:#B569A6"/>
			<stop  offset="0.964" style="stop-color:#EB89D8"/>
			<stop  offset="1" style="stop-color:#FF94EA"/>
		</linearGradient>
		<path class="st3" d="M569.9,155.3c0,14.6-11.8,26.3-26.4,26.3c-14.6,0-26.3-11.8-26.3-26.4s11.8-26.3,26.4-26.3l0,0
			C558.1,128.9,569.9,140.7,569.9,155.3L569.9,155.3z"/>
		
			<linearGradient id="SVGID_5_" gradientUnits="userSpaceOnUse" x1="383.627" y1="474.2941" x2="414.573" y2="615.0059" gradientTransform="matrix(1 0 0 -1 0 660)">
			<stop  offset="4.975120e-03" style="stop-color:#000000"/>
			<stop  offset="0.1421" style="stop-color:#040203"/>
			<stop  offset="0.2709" style="stop-color:#0F090C"/>
			<stop  offset="0.3965" style="stop-color:#22151B"/>
			<stop  offset="0.52" style="stop-color:#3D2630"/>
			<stop  offset="0.6421" style="stop-color:#5F3C4B"/>
			<stop  offset="0.7632" style="stop-color:#89566D"/>
			<stop  offset="0.8816" style="stop-color:#BB7594"/>
			<stop  offset="0.9984" style="stop-color:#F398C0"/>
			<stop  offset="1" style="stop-color:#F499C1"/>
		</linearGradient>
		<path class="st4" d="M506.1,138.9c-8.5,38.9-63.4,59.8-122.5,46.8s-100.1-55-91.5-93.9C300.7,53,355.5,32,414.6,45
			S514.7,100,506.1,138.9z"/>
		<g id="Layer_1-2-2">
			<path class="st5" d="M606.7,336.3l3.4,4.6c0.7,0.9,0.7,2.1,1.2,3.1c4.4,7.2,3.8,13.9-2.4,19.7c-4.2,4.1-8.6,8-12.7,12.2
				c-2.8,3.1-6.3,5.5-10.1,7.2c-2.8,1-5.5,2.2-8.1,3.8c-7.1,4.5-14.8,4.2-22.7,3.1c-1.7-0.2-3.4-0.4-5-0.8c-3.8-0.9-5.7,0.7-6.4,4.4
				c-1.5,7.4-4.7,10.1-12,10.1h-44.3c-3,0.2-6-0.7-8.5-2.6c-3.4-2.6-7.6-4.6-10.6-7.5c-10.3-10.4-23.3-6.4-35.4-7
				c-2.4-0.1-3,1.8-3.6,3.7c-0.8,3.2-2.3,6-5.4,7.6c-5.4,3.5-11.4,4.3-17.6,5.4c-24.2,4.1-48.4,1.1-72.6,2c-13,0.4-26-1.8-38.9-3.1
				c-28.7-2.9-56.8-9.3-85.1-14c-21.8-3.6-43.7-6-65.6-9.1c-18.5-2.7-37-5-55.6-7.5c-11.6-1.6-23.2-3.1-34.1-7.8
				c-1.8-0.1-3.4-0.9-4.6-2.3c-3.1-2.2-6.1-4.6-5.6-9c0.3-2.9,0.9-5.6,4.7-5.7c0.3,0.6,0.5,1.2,0.4,1.9c-1.8,5.9-1.1,7.9,4.2,10.6
				c8.2,4,17.1,6.5,26.1,7.5c19.4,2.4,38.7,5.1,58,7.7c20.3,2.7,40.5,5.5,60.8,8.2c19,2.5,37.6,6.8,56.5,9.7
				c19.3,3,38.5,5.8,57.9,7.9c22.6,2.4,45.1,1.3,67.6,2c11.3,0.3,22.2-2.1,33.3-3.8c4.8-0.7,9.3-3.1,11.1-8.6c1.5-4.7,5-6.9,10-7
				c6.4-0.2,12.9,0.4,19.3-0.7c2.9-0.5,5.5,0.9,8,2.5c5.2,3.5,10.3,7.1,15.3,10.9c3.8,2.9,8.4,4.5,13.2,4.4c13.1-0.1,26.2,0,39.3,0
				c7,0,8.4-1.3,10-8.2c1.1-4.8,3.5-6.7,8.5-6.4c3.6,0.2,7.2,0.7,10.7,1.5c4.7,1.1,9.5,0.5,13.8-1.7c13.7-5.3,25.2-13.3,34-25.2
				c3.1-4.2,4-7.8,1.7-12.4c-1.3-2.5-2.9-4.9-3.3-7.8C605.5,338.3,605.9,337.1,606.7,336.3z"/>
			<path class="st5" d="M606.7,336.3v3.4c-3.8-0.3-3.5-4.4-5.8-6.1c-4.5-7.3-8.4-15-11.4-23c-2.2-7.4-4.7-14.5-10.8-19.7
				c-0.5-0.2-0.9-0.5-1.4-0.7c-3.4-1.6-7.2-2.1-10.9-3c-0.5-0.1-1-0.3-1.5-0.5c-1.9-1-4-1.5-6.2-1.4c-3.1-0.2-6.1-1-8.8-2.3
				c-5-3.1-10.8-2.4-16.1-2.9c-6.8-0.6-13.6-1.4-20.4-1.6c-9.5-0.3-18.9,0-28.4-0.8c-13.6-1.2-27.2,0.4-40.8,1.9
				c-0.6,0.3-1.2,0.5-1.8,0.7c-1.3,0.3-2.6,0.6-3.9,0.8c-9.1,1.9-12.7-0.6-13.7-9.8c-0.4-3.9-1.3-7.5-5.7-8.8
				c-2.5-0.6-4.9-1.6-7.1-2.8c-24.4-4.9-49-2.1-73.6-2.7c-5.8-0.1-11.7-0.8-17.5,0.6c-10,2.7-20.3,2.3-30.4,3.6
				c-20.5,2.7-40.8,6.3-61.1,10.3c-20.7,4-41.5,6.7-62.4,9.4c-11.8,1.5-23.6,3.6-35.5,4.6c-1.6,0.1-3.3-0.2-4.7-1
				c-1.3-2.1,0.4-2.4,1.7-2.8c1.6-0.5,3.2-0.3,4.8-0.7c0.6-0.2,1.1-0.4,1.7-0.5c5.1-0.1,10.1-1.3,15.2-1.7c0.5-0.2,1.1-0.3,1.6-0.4
				c2.4-0.5,4.9-0.1,7.2-0.9c0.5-0.2,1.1-0.3,1.6-0.4c5.2-0.2,10.2-1.2,15.3-1.9c0.6-0.1,1.2-0.3,1.8-0.3c5.5-0.4,11-1.2,16.5-2.2
				c16.7-2.4,33.2-5.4,49.8-8.6c16-3,31.9-5.9,47.9-8.2c9-1.3,18-1.7,27-2.6c22.4-2.3,44.8-1.1,67.2-1.1c10.6,0,21,2.3,31.4,4.6
				c7.6,1.7,11.1,6.5,11.1,14.3c0,4.4,1.6,6.1,6.1,6.2c3.8,0.1,6.9-2.1,10.5-2.3c22.5-1.1,45-2.4,67.5-0.4
				c6.4,0.6,12.8,1.1,19.2,1.1c10.2,0.1,19.9,2.5,29.5,5.4c4.7,1.4,9.3,3,14.1,4.1c4.9,0.9,9.1,4.2,11.2,8.8
				c5.4,11.5,11.2,22.8,16.6,34.4C604.4,331.1,606.3,333.4,606.7,336.3z"/>
			<path class="st5" d="M603.3,328.4c-5.3-5.6-7.3-13.2-10.9-19.8c-2.4-4.5-4.4-9.2-6.5-13.9c-1.8-4.3-5.7-7.4-10.3-8.3
				c-12-2.6-23.3-7.6-35.6-9c-5.6-0.6-11.3-0.7-16.9-1.2c-19.6-1.9-39.4-2.2-59.1-1c-8.3,0.5-16.9-0.2-25.3,2.6
				c-8.1,2.8-10.7,0.1-11.2-8.7c-0.4-6.2-6.6-11.3-14.1-12.7c-26.3-4.8-52.9-4-79.3-3.1c-23.7,0.9-47.3,4.1-70.7,8.1
				c-21.4,3.6-42.5,8.6-64.1,11.1c-1.9,0.2-3.7,0.7-5.5,1.1c-2.5,1.1-5,0.4-7.6,0.5c-0.5-0.2-0.8-0.8-0.6-1.3v-0.1
				c0-0.1,0.1-0.1,0.1-0.2h1.1c1.7-1.4,4,0.3,5.7-1.1h2.3c2.5-1.5,5.5,0.4,8-1.1h1.1c1.7-1.3,4,0.3,5.7-1.1l43.3-8
				c2.1-1.4,4.7,0.3,6.8-1.1h1.1c1.7-1.4,4,0.3,5.7-1.1h1.1c1.7-1.4,4,0.3,5.7-1.1h1.1c1.7-1.4,4,0.3,5.7-1.1h1.1
				c1.7-1.4,4,0.3,5.7-1.1h2.3c2.9-1.5,6.2,0.4,9.1-1.1h2.3c3.3-1.5,7,0.4,10.3-1.1h2.3c3.3-1.5,7,0.4,10.3-1.1h1.1
				c1.4-0.9,2.9-0.5,4.4-0.5h63c1.5,0,3-0.4,4.4,0.5c1.7,1,3.7,1.4,5.7,1.1c2.9,1.6,6.2-0.4,9.1,1.1c3.2,2.3,7.4,0.5,10.7,3
				c4.1,3,7.6,6,7.6,11.8c0,6.7,2.4,9.2,8.6,6.6c9-3.8,18.1-2.4,27.1-2.9c13.4-0.7,26.9-0.5,40.4-0.1c24.8,0.8,49.2,3.8,72.7,12.4
				c3.3,1,6.1,3.2,7.7,6.2c5.2,10.5,10.4,21,15.8,31.5C603.1,324.6,603.5,326.5,603.3,328.4z"/>
			<path class="st5" d="M54.7,363.7c6.3,0.5,11.8,4,18,4.8c13.3,1.6,26.5,3.6,39.8,5.5c18.7,2.6,37.3,5.4,56,7.7s37,4.7,55.4,8.2
				c21.5,4.1,43.1,7.7,64.6,11.2c8.5,1.4,17.3,1.8,25.9,2.6c24.4,2.2,48.9,1,73.4,1c12.5,0,24.8-1.8,36.5-6.7
				c-2.8,3.8-7.2,5-11.4,5.6c-29.6,4.3-59.4,2.9-89.1,2c-24.4-0.7-48.6-5-72.8-9.4c-24.6-4.6-49.2-9.3-74.1-12
				c-24.3-2.7-48.5-6.7-72.7-10c-14.9-2-30.1-2.5-44.5-7.8C57.8,365.6,55.9,365.4,54.7,363.7z"/>
			<path class="st5" d="M185.9,272.4v1.1c-2.4,3.5-6.4,0.4-9.1,2.3l0,0c-5.7,0.9-11.4,1.3-17.1,2.3l0,0c-2.5,1.5-5.5-0.4-8,1.1l0,0
				c-5.7,0.9-11.4,1.3-17.1,2.3l0,0c-8.7,1.1-17,3.8-25.7,4.4c-12.4,1.5-24.8,3-37.2,5.2c-6.9,1.1-13.6,3.5-19.6,7.1
				c-5.6,3.6-5.9,6.3-1.7,11.4c1,1.1,2.3,2.2,1,3.9c-9.1-3-10.8-9.7-3.9-16c7.2-6.5,16.4-8.6,25.4-10.1c21-3.4,42-6.5,63.1-9
				C152.6,276.6,169.1,273.3,185.9,272.4z"/>
			<path class="st5" d="M51.3,313.5c-0.1-0.9-0.6-1.7-1.3-2.3c-6.2-5.6-6-9.6,1.2-14.2c6.8-4.2,14.4-6.8,22.4-7.7
				c11.6-1.6,23-4.2,34.8-4.3c0.1,0.3,0.2,0.6,0.3,0.9c-0.3,0.6-0.7,1.1-1.3,1.4c-10.7,2.7-21.7,3.1-32.5,5
				c-7.1,1.2-14,3.4-20.5,6.6c-2.4,1.2-5.5,2.6-5,6.2c0.5,3.3,3.4,4.1,6.2,5c4.7,1.5,9.4,0.8,14.1,1c2.7,0.1,5.3-0.2,8,0.4
				c2,0.5,4.4,0.8,4.8,3.3c0.4,2.1-1.2,3.4-2.8,4.6c-1.2,0.9-2.5,1.7-3.7,2.7c-4.3,3.4-4.4,6.5-0.8,10.5c2.3,2.5,5.3,3.6,8.1,5.2
				c2.2,1.2,4.7,2.5,3.9,5.6s-3.8,2.7-6.2,2.7c-9.9-0.1-19.7,0.2-29.3,2.6c-0.9,0.2-1.9,0-2.6-0.7v-1.1c5-5.4,11.8-3.4,18-4.5
				c3.5-0.6,7.2,0.5,11-1c-1-2.3-3-3.2-4.7-4.6c-6-5.1-6.7-10.5-1.5-16.6c2.7-3,1.5-4-1.6-4.6c-1.5,0.1-3,0-4.5-0.2
				c-4.1-0.7-8.3,0-12.3-1.5C52.8,313.5,52,313.5,51.3,313.5z"/>
			<path class="st5" d="M70.7,314.6h4c0.9,0,2.2-0.1,2.3,1.1c-0.1,0.9-0.6,1.7-1.3,2.3c-8.8,8.9-8.2,13.6,2.8,20.3
				c1.3,0.8,3.2,1.5,2.8,3.1c-0.6,2.2-2.8,1.6-4.4,1.6c-7,0.4-14-0.7-21,1c-2.4,0.6-4.6,1.4-6.8,2.4c-5.2,4.5-5,7.1,1.1,14.8
				c-4.1-0.8-7-4.5-6.8-8.7c0-4.5,2.9-7.5,6.8-8.9c6.6-2.4,13.7-2.7,20.6-2.9c1.2,0,2.9,0.6,3.6-0.9c0.8-1.7-1.1-2-2-2.8
				c-6-5.1-6.8-10.5-2.2-16.8c1.2-1.7,1.5-2.9,0.4-4.6c-0.4-0.2-0.5-0.5-0.4-0.8S70.5,314.6,70.7,314.6z"/>
			<path class="st5" d="M555.4,389.9c9.2,0.7,18-0.2,26-5.5c1.4-1,3.1-1.4,4.8-1.3C576.9,389.6,567,393.8,555.4,389.9z"/>
			<path class="st5" d="M609,363.7c0-2.6,2.5-3.6,3.4-5.7c1.7-3.4,1.6-7.5-0.2-10.8c-1-2-2.3-3.9-2-6.3
				C617.1,350.9,616.8,357.5,609,363.7z"/>
			<path class="st5" d="M70.7,314.6v1.1c-4.6-0.6-9.3,1.2-13.7-1.1c3-0.9,6.1-0.9,9.1,0H70.7z"/>
			<path class="st5" d="M66.1,314.6H57c-1.2,0-2.6,0.2-3.4-1.1C57.7,314.1,62.1,312.3,66.1,314.6z"/>
			<path class="st5" d="M203,270.2c-2.4,2.2-5.3,0.7-8,1.1C197.4,269.2,200.3,270.6,203,270.2z"/>
			<path class="st5" d="M260,259.9c-2,2.1-4.6,0.8-6.9,1.1C255.1,259,257.7,260.3,260,259.9z"/>
			<path class="st5" d="M209.8,269c-1.6,1.9-3.8,0.9-5.7,1.1C205.7,268.3,207.9,269.3,209.8,269z"/>
			<path class="st5" d="M192.7,271.3c-1.6,1.9-3.8,0.9-5.7,1.1C188.6,270.6,190.8,271.6,192.7,271.3z"/>
			<path class="st5" d="M49,347.8c10.6-3.5,21.5-3.5,32.5-3.5c1.7,0,4.2,1.1,4.8-1.6c0.5-2.4-2-2.9-3.6-3.8c-3.2-1.7-6.5-3-9-5.8
				c-4.3-4.9-3.8-8.8,1.5-12.8c2.3-1.7,7-2.6,6-5.7c-1-3-5.5-2.1-8.7-2.3c-6-0.2-12.1,0.6-18.1-1.1c-3.6-1-6.7-2.8-7.2-6.4
				c-0.5-3.4,2.4-5.2,5.1-6.8c8.5-4.9,17.9-6.9,27.4-8.2s19-2.5,28.5-3.7c1.8-1.7,4.2-0.8,6.2-1.6c4-0.2,8-2.1,12-0.6h4.6
				c-0.4,3.1-2.9,2.4-4.8,2.7c-16.6,2.7-33.3,4.3-50,6.8c-7.7,1.2-15.1,3.6-22,7.2c-2.7,1.6-4.9,3.5-1.7,6.6L54,308
				c1.8,1,3.8,0.7,5.7,1c0.6,0.1,1.2,0.2,1.8,0.4c6.9,0.8,13.9,0,20.8,0.5c2.3,0.1,4.7,0.5,5.7,2.9s-0.8,3.8-2.2,5.4
				c-2,1.7-4.3,3.1-6.8,4.1c-4,1.3-6.3,3.4-3.5,7.9c0.3,0.4,0.6,0.8,0.9,1.2c2.3,3.4,6.1,4.2,9.4,5.9c2.8,1.7,7.2,3,6.3,7
				s-5.5,3.9-9.1,4c-8.3,0.3-16.6-0.3-24.8,0.3c-0.2,0.1-0.3,0.1-0.5,0.2c-2.5,0.5-5.7,0.6-6.5,3.4c-0.9,3.3,2.8,3.9,4.5,5.6
				c10.1,4.7,21,6.5,31.9,7.8c15.6,1.8,31.2,4,46.8,6.1c18.4,2.5,36.7,5.2,55.1,7.5c19.8,2.4,39.2,6.5,58.8,9.8
				c21.1,3.5,42.2,6.7,63.5,9c26.5,2.8,53,1.6,79.6,1.5c8.1-0.2,16.2-1.5,24-3.9c3.9-1.1,6.7-3.3,8-7.3c1.8-5.7,6-7.8,11.8-7.9
				c6.4-0.1,12.9,0.6,19.3-0.8c2.9-0.6,5.5,0.7,8,2.4c6.9,5,14.1,9.6,21,14.5c1.2,0.6,2.4,1.1,3.6,1.6c15.2,1.1,30.5,0.4,45.8,0.3
				c2.4-0.9,4.4-2.5,5.7-4.7c1.1-1.8,0.6-3.8,1.1-5.7c0.4-1.9,1.8-3.3,3.7-3.9c2.8-0.4,5.7-0.5,8.5-0.3c2.9,0.5,5.9,1.1,8.8,1.5
				c2.4,0.7,4.8,1.1,7.2,0.1c1.5-0.7,3.2-1.1,4.9-1.2c0.9,0,1.7,0.5,2.3,1.1c-7,5.9-14.8,2.9-22.3,1.8c-8.5-1.2-8.9-1.3-11,7.1
				c-1.1,4.4-4,7.1-8.5,7.1c-15.2,0.1-30.4,0.1-45.6,0c-6.8-0.1-11.1-5.4-16.3-8.6c-3.4-2.1-6.4-4.8-9.6-7c-2.6-2-5.9-2.7-9-2
				c-5.8,1.4-11.7,0.4-17.6,0.5c-4.1,0.1-7.1,1.6-8.1,5.7c-1.6,6.7-7,9-12.5,10.1c-27.8,5.6-56,4.5-83.9,3.1
				c-23-1.1-45.9-3.9-68.4-8.4c-25-4.9-50.2-8.9-75.3-12.6c-21.3-3.2-42.7-5.2-64-8.3c-18.1-2.7-36.4-4-54.3-8c-5.6-1.1-11-3-16-5.7
				C46.1,356.6,45.4,353.5,49,347.8z"/>
			<path class="st5" d="M574.8,385.4h-2.3c0-3,2.6-3.6,4.6-4.2c11.4-4.2,19.5-12.7,27.5-21.2c2.5-2.7,5.4-5.5,3.4-9.9
				c-1.6-3.6-3.6-7.1-5.2-10.7c-0.9-2-2.4-4-0.5-6.3c1.5,2.3,3,4.6,4.6,6.8c8.9,17.1,6.4,14.3-4.3,27.7
				C595.2,376.3,585.4,381.6,574.8,385.4z"/>
			<path class="st5" d="M53.5,308.9c-2.6-0.3-4.2-1.7-4.5-4.3s1.8-4,3.9-5.1c9.9-5,20.4-7.5,31.4-8.9c15.6-2,31.3-3.2,46.8-6.8
				c10.6-1.3,21.3-2.6,31.9-4c13-1.7,26.1-3.2,39.1-5.2c11.2-1.7,22.2-4.2,33.4-6c22.3-3.6,44.3-8.8,67-10c6-0.4,11.9-1.5,17.9-2.3
				c1-0.5,2.2-0.7,3.3-0.5c23.4,0,46.9-0.2,70.3,0.1c6.6,0.1,13.2,2.4,19.9,2.7c1.6,1.5,3.7,1.8,5.7,2.3c4,2.3,6.4,6.6,6.3,11.2
				c0.2,7.3,2.9,9.6,10.2,8.8c2.2-0.4,4.3-1,6.4-1.7c6.6-3.2,13.7-1.1,20.5-1.7c0.7,0,1.3,0.4,1.6,1c0.2,0.6,0.2,1.3,0,1.9
				c-1.4,2.3-3.6,2.5-5.9,2.4c-1.8,0-3.5-0.9-5.3-0.9c-2.6-0.1-5.3-0.4-7.8,1.1c-8.8,4.3-18,1.9-27.1,2c-0.9,0-2.1-0.6-2.1-1.5
				c0-2.3,2.1-2.8,3.5-4c4.8-10.8,0.3-15.9-11.1-16.9c-3.4-0.1-6.9,0.3-10.1-1.4c-2.4-1.3-5-0.8-7.6-0.9h-64.4
				c-2.3-0.2-4.6,0.1-6.7,0.7c-26.1,2-52,5.7-77.6,11c-35.2,7.2-70.9,10.8-106.5,15.9c-21,3-42.1,5.1-63,8.9
				c-5.2,1.1-10.3,2.7-15.2,4.8c-2.1,0.8-5.1,1.8-2.9,5.2C55.1,308,54.5,308.6,53.5,308.9z"/>
			<path class="st5" d="M602.1,333c0.5,6.4,5.6,11,6.8,17.1c0.8,1.3,0.7,2.2-1,2.6c-5.5-4.3-7.2-11-9.9-16.9
				c-5.9-13-12.7-25.5-18.8-38.3c-1-2.5-3.3-4.3-6-4.6c-8.7-1.1-16.5-5.3-24.8-7.8c-0.8-1.5,0.2-2,1.3-2.5h0.8l9.1,1.1
				c1.8,1,3.9,1.3,5.7,2.3l0,0c4.1,1.5,8.5,2,12.5,3.4l0,0c7.1,5.1,8.7,13.5,12.5,20.5C593.8,318.1,597.6,325.7,602.1,333z"/>
			<path class="st5" d="M464.1,278.1c-7.2,0.2-14.5-0.6-21.7,1.1c1.3-1.4,3.1-2.3,5-2.3c23.6-1.8,47.3-0.1,70.9,0.1
				c8.5,0.2,16.9,1,25.3,2.3c2.4,0.3,6-0.5,7.1,3.2l0,0c-5.9,2-11.5-0.7-17.3-1.1c-12.6-0.9-25.2-2.1-37.9-1.9
				c-8.1,0.1-16.3,0-24.5,0C468.7,279.8,466.2,280.1,464.1,278.1z"/>
			<path class="st5" d="M442.5,279.3c-3.4,2.8-7.4,2.5-11.3,2.2c-3.4-0.3-5.9-2.5-5.7-5.8c0.3-5.5-1.8-10.8-5.9-14.6
				c5.2,1.1,6.4,5.4,6.8,9.7c1,9.3,2.9,10.9,12.1,8.9C439.9,279.4,441.2,279.3,442.5,279.3z"/>
			<path class="st5" d="M590.8,310.1c-4.8-6.5-6.6-14.8-12.5-20.5c2.3,0.2,4.3,1.7,5.2,3.8C586,298.9,590,303.8,590.8,310.1z"/>
			<path class="st5" d="M126.5,283.8l-12.5,1.1c-1.8,0.8-3.9,0.8-5.7,0l0,0c8.6-2.2,17.4-3.3,26.2-3.4
				C132.4,284.2,128.7,281.3,126.5,283.8z"/>
			<path class="st5" d="M134.5,281.6c5.5-2,11.3-2.4,17.1-2.3C146.1,281.3,140.3,281.7,134.5,281.6z"/>
			<path class="st5" d="M159.6,278.1c5.6-2,11.3-2.4,17.1-2.3C171.2,277.9,165.4,278.3,159.6,278.1z"/>
			<path class="st5" d="M176.7,275.9c2.6-2.4,6.5,0,9.1-2.3h8C188.3,275.6,182.5,276,176.7,275.9z"/>
			<path class="st5" d="M578.2,289.5c-4.4-0.3-8.7-1-12.5-3.4C570.1,286.5,574.4,287.2,578.2,289.5z"/>
			<path class="st5" d="M151.6,279.3c2.4-2.2,5.3-0.7,8-1.1C157.2,280.4,154.3,278.9,151.6,279.3z"/>
			<path class="st5" d="M565.7,286.1c-2.2,0.2-4.3-0.6-5.7-2.3C562.1,283.6,564.3,284.5,565.7,286.1z"/>
			<path class="st5" d="M108.3,285.1h5.7c-1.6,1.9-3.8,0.9-5.7,1.1C108.3,285.8,108.3,285.4,108.3,285.1z"/>
			<path class="st5" d="M483.5,398c-6.5-3-11.9-7.7-17.8-11.7c-4.8-3.3-8.9-6.2-15.5-4.6c-5.2,1.3-11,0.3-16.5,0.3
				c-3.7,0-7.4,1-8.2,4.8c-2.2,10.3-10.5,10.9-18.2,12.3c-23.3,4.1-46.9,2.5-70.4,2.1c-23-0.3-45.9-3.2-68.6-7
				c-26.4-4.4-52.6-10.1-79.2-13.4c-23.9-3-47.8-6.8-71.7-10c-16.5-2.1-33.1-3.4-49.2-7.1c-5.1-1.1-10.4-2.2-14.7-5.6
				c0.8-1.1,2-1.8,3.4-1.8c28.2,8.7,57.8,9.6,86.7,14c28,4.3,56.4,6.9,84.2,12.4c2.7,0.1,5.2,1.1,7.8,1.5
				c21.8,3.4,43.5,7.7,65.5,10.3c24.4,2.8,48.7,3.3,73.1,3.1c1.7,0.1,3.4-0.1,5-0.6c2-0.5,4.1-0.7,6.2-0.4c9.3,1.1,18-3.1,27.3-2.7
				c2.9,0.1,5.7-1.7,7.8-4c0.4-0.7,0.6-1.4,0.7-2.1c1.1-9.5,1.1-9.4,11-9.5c6.4-0.1,12.8,0.7,19.1-0.6c1.8-0.5,3.7-0.5,5.5-0.7
				c4.8,0.2,7.7,3.8,11.1,6.3c6.2,4.5,13.4,7.7,18.1,14.1C485.7,398.6,484.8,398.8,483.5,398z"/>
			<path class="st5" d="M607.9,352.3c0.8-0.5,1.2-1.4,1.1-2.3c3.2,4.9-0.8,7.8-3.4,10.6c-8.3,9.3-17.3,18-29.4,22.4
				c-1.3,0.7-2.6,1.4-3.8,2.4l-4.6,1.1c-2.2,0.9-4.6,0.9-6.8,0c-3.1,0.2-6.2-0.2-9.1-1.1c-3-0.9-6.2-0.9-9.1,0
				c-1.4,0.5-2.4,1.9-2.3,3.4c-1.4,1.7,0.2,4-1.1,5.7c-1.1,1.9-2.6,3.5-4.6,4.6c-6.2,1.1-12.5,0.3-18.7,0.5
				c-1.2-0.4-1.3-1.3-1.1-2.4c3.7-3.6,8.3-1.7,12.5-1.9c8-0.3,8-0.1,8.2-8.2c0.2-7.6,1.5-8.8,8.8-7.7c5.2,0.8,10.6,1.2,15.7,2.4
				s9.1-0.2,13.6-2.1c13.3-5.5,23.5-14.5,31.9-25.7C606.3,353.3,607.1,352.7,607.9,352.3z"/>
			<path class="st5" d="M55.8,356.9c-0.5,0.8-1.4,1.2-2.3,1.1c-1.5-1.9-5.3-2.6-4.2-5.9s4-4.9,7.6-4.5c8.6-1.2,17.2-0.3,25.8-0.5
				c2.4,0,4.9-0.3,7.2-1.1c3.8-1.5,4-2.7,0.9-5.4c-1.9-1.6-4.2-2.4-6.5-3.3c-3.6-1-7.2-2.1-9.1-5.8c0.4-0.3,1-0.6,1.5-0.8
				c7.2,2.1,14.3,4.7,20.5,9c1.6,3.9,2.7,7.7-2.2,10.3c-10.5,0.7-20.9,0.1-31.4,0.3c-1.8,0-3.7,0.2-5.5,0.6
				C52.5,352.1,52.5,352.1,55.8,356.9z"/>
			<path class="st5" d="M84.3,337.5c4.3,0.7,10,1.6,9.7,6.5c-0.3,4.2-6.2,3.6-9.9,3.7c-9,0.2-18.1,0-27.1,0
				c5.6-2.5,11.5-0.6,17.2-1.1c4.5-0.4,9.1,0.7,13.5-0.6c1.4-0.4,3.5-0.2,3.8-2s-1.7-2.8-2.9-3.8S85.7,338.4,84.3,337.5z"/>
			<path class="st5" d="M515.5,399.1h19.4c-0.9,1.2-2.3,1.1-3.6,1.1h-41.8c-1.3,0-2.7,0.1-3.6-1.1c1.1-1,2.5-1.6,4-1.5
				c6.4-0.1,12.8-0.1,19.3,0C511.4,397.5,513.7,397.4,515.5,399.1z"/>
			<path class="st5" d="M84.3,318.1c0.5-1.9,3.9-2.7,2.7-5c-1.1-2.1-3.9-1.7-6.2-1.8c-6.8-0.5-13.8,1.4-20.5-1.1
				c2.4-2.3,5.4-1.5,8.1-1.6c5.5-0.1,11-0.1,16.5,0c0.7,0,1.3,0.1,2,0.3c2.4,1,4.8,2,4.9,5.2c-0.2,0.9-0.6,1.7-1.3,2.4
				C88.7,317.8,87,319.7,84.3,318.1z"/>
			<path class="st5" d="M86.6,310.1H59.2c-1.7-1.4-4,0.2-5.7-1.1l0,0l1.1-1.1c0.6-0.7,1.5-1.2,2.5-1.1c9.6,1.7,19.4-0.3,29,1.7
				C86.7,308.7,86.9,309.5,86.6,310.1z"/>
			<path class="st5" d="M84.3,318.1l5.7-2.3c0.9,0.2,1.5,1,1.4,1.9c-3.4,3.3-7.3,5.4-12.2,4.5l-0.6-0.6
				C80.1,319.7,82.4,319.3,84.3,318.1z"/>
			<path class="st5" d="M75.2,330.7c-3.4-0.7-2.4-3.4-2-5.4c0.5-2.8,2.7-3.9,5.5-3.7l0,0c0.4,0.4,0.5,0.9,0.3,1.4
				C77.2,325.2,75.9,327.8,75.2,330.7z"/>
			<path class="st5" d="M75.2,330.7c-1.9-4,0.3-6.2,3.4-8c0.4,0.3,0.6,0.8,0.6,1.3c-0.4,2.1-1.5,4-1.3,6.3c-0.2,0.8-1,1-1.6,1.4
				h-1.1V330.7z"/>
			<path class="st5" d="M542.8,385.4c2.8-1.7,6.3-1.7,9.1,0H542.8z"/>
			<path class="st5" d="M489.2,399.1h-3.4c-0.9,0.1-1.8-0.4-2.3-1.1c0.9,0.1,1.8-0.4,2.3-1.1c0.9-1,2.4-1.1,3.4-0.4
				C489.9,397.2,489.9,398.3,489.2,399.1z"/>
			<path class="st5" d="M561.1,386.5h6.9C566,388.3,563.1,388.3,561.1,386.5z"/>
			<path class="st5" d="M53.5,308.9c1.9,0.3,4.1-0.8,5.7,1.1C57.3,309.9,55.1,310.9,53.5,308.9z"/>
			<path class="st5" d="M539.4,394.5c0.3-1.9-0.7-4.1,1.1-5.7C540.3,390.7,541.3,392.9,539.4,394.5z"/>
			<path class="st5" d="M86.6,309c-10.7-0.2-21.3,0.4-31.9-1.1c-5.5-3.1-5.6-3.3-0.2-6.2c9.8-5.4,20.6-7.1,31.5-8.6
				c15.7-2.1,31.4-4.1,47.1-6.2c13.4-1.8,26.9-3.4,40.3-5.3c16.8-2.3,33.6-4.4,50.3-7.4c22.3-4.1,44.6-8.2,66.9-11.8
				c9.8-1.6,19.9-1.8,29.9-2.5c1.7-1.3,4,0.3,5.7-1.1h1.1c0.8,1.3,3.5-0.5,3.4,2.1c-4.9,3.1-10.7,2.1-16,2.5
				c-18.9,1.5-37.5,4.3-56.1,7.5c-2.3,0.4-4.5,0.6-6.7,1.1c-3.2,0.8-6.6,0.7-10.1,1.7c4.2,1.4,7.9,3.2,12,4.2
				c14.9,4,30.3,5.2,45.6,3.4c5.5-0.6,11-0.7,16.5-0.1c0.7,0.8,0.7,2,0,2.9c-3,1.8-6.6,1.9-9.9,2.1c-11.1,0.5-22.3,2.4-33.4,0
				c-2.1-0.7-4.2-1-6.4-1c-1.2,0-2.4-0.1-3.6-0.2c-0.6-0.1-1.2-0.2-1.7-0.4c-3.4-0.9-6.9-2-10.4-2.8c-13.7-6.8-27.8-4.6-42.1-2.2
				c-30,5.3-60.3,8.5-90.5,12.7c-16,2.3-31.9,3.8-47.8,6.8c-4.6,1.3-9.1,2.9-13.4,4.9c5.1,2,9.5,0.9,13.8,1.1
				c3.4,0.2,6.8-0.2,10.3,0.4c4.7,1.8,9.8-0.3,14.5,1.6c0.6,0.3,0.9,1,0.8,1.7c-0.4,0.6-0.9,1-1.6,1.2C91.8,310.7,89,310.4,86.6,309
				z"/>
			<path class="st5" d="M422,280.4c-1.5,1-3.5,1.1-5,3.6c10-1.1,19.7,2,29-2.5c2.5-1.4,5.5,0.3,8-1.1l4.6,1.1
				c0.4,0.5,0.3,1.2-0.2,1.6l0,0l-0.1,0.1c-3.5,1.9-7.4,0.6-11.1,1.2c-4.6,2.3-7.9,6.3-11.9,9.5c-1.9,1.6-1.5,3.7-1,5.8
				c4,16,8.1,31.9,11.9,47.9c0.6,2.5,1.6,4.2,4.5,4.2s4.1-1.8,4.6-4.2c1.2-5.6,3.5-10.8,6.8-15.5c3.4-4.8,8.3-5.4,13-1.7
				c0.1,0.6-0.1,1.2-0.4,1.7l-0.5,0.3c-2.8,1.8-6.8-0.1-9.1,3.5c-3.9,5.9-5.6,12.5-6.7,19.1c-0.6,3.8,3.2,6.5,6.5,7.7
				c11.6,4.5,23,10.1,36.1,6.5c2.3-0.6,4.9-0.2,7.4-0.2c8,0,9-1,9.2-9.2c3.5-1,4.6-0.4,4.6,3.1c0,2.1-1.4,4.6,1.7,5.7
				c2.3,1.1,5.5,1.7,4.3,5.6c-1.1,2.4-2.8,4.5-3.7,6.9c-0.5,1.5-1.4,2.9-2.5,4.1c-2.1,1.9-4.4,3.5-6.8,4.9
				c-10.4,6.3-20.3,1.8-30.1-1.7c-1.7-0.8-3.1-2.2-3.7-4c-0.8-2.1-1.9-4.1-2.7-6.2c-1.9-4.9-5-8.1-10.3-9.3c-4.2-1-8.1-3.2-11.3-6.2
				c-3-1.1-2-6.5-6.4-6.2c-3.4-0.3-6.4-1-7.9-4.6c-4.9-17.7-9.1-35.5-13.6-53.3c-0.6-2.5-0.5-4.9,1.5-6.8c1.4-1.7,4-2.4,4.3-5
				c-9.2,0-18.4-1.3-27.5,1.4c-5.2,1.4-10.7,0.4-15-2.7c-0.3-0.5-0.3-1.2-0.1-1.8c3.6-2,7.1,0.1,10.7,0c4.2,1.1,7.5-1.6,11.2-2.8
				c2.3-0.7,4.3-2.4,6.9-2.3C421.6,279,422.3,279.3,422,280.4z"/>
			<path class="st5" d="M464.1,278.1c29,0.2,58-1.4,86.7,4.6c-0.5,0.8-1.4,1.2-2.3,1.1c-1.7,1.6-3.8,1.5-5.9,1
				c-11.4-1.6-22.9-2.5-34.4-2.9c-8.9-0.2-17.8,0.4-26.6-0.3c-3.4-1.2-7-0.7-10.5-0.8c-2.4-0.1-4.9,0.3-6.9-1.6
				C464.2,278.9,464.1,278.6,464.1,278.1z"/>
			<path class="st5" d="M330.7,259.9c-1.2,0-2.6,0.2-3.4-1.1h64.9c0.4,1.7-0.7,2.5-2,3.2c-5.8,0.9-11.7,0.9-17.6,0.2
				c-9.4-1.5-18.9-0.3-28.4-0.7c-3.2-0.1-6.5,0-9.7-0.1C333.2,261.5,331.8,261,330.7,259.9z"/>
			<path class="st5" d="M422,280.4l-1.2-1.1c-1.5-1.4-1.5-3.3-1.6-5.2c-0.4-6.4-2.7-8.6-9.2-9.2c-3.3-0.3-6.8,0.8-9.8-1.4
				c-0.5-2.3,1.2-1.8,2.4-1.9c2.2-0.3,4.5,0.5,6.6-0.5C423.5,263.6,425,267.2,422,280.4z"/>
			<path class="st5" d="M458.5,282.7v-1.1c2,0.2,4-0.2,5.7-1.1c1.1-0.5,1.4,0.3,1.5,1.1c-1.3,3.1-3.7,5.6-5.7,8.3
				c-2.7,3.7-3,7.1,0.6,10.4c3.2,0.7,6.5,0,9.6,0.5c1.8,0.2,4.4-0.3,4.1,3c-5.2,2.2-10.5,1.1-15.8,0.8c-4.8-3.7-6-8.3-3.9-14.6
				C455.5,287.3,458.6,285.9,458.5,282.7z"/>
			<path class="st5" d="M409.4,261.1c-2.6,2.6-6.5-0.4-9.1,2.2c0.6,3.2,1,6.3-0.9,9.2c-3,0.1-2.4-2.4-2.8-4c-0.1-1.2-0.1-2.5,0-3.7
				c0-1.2,0.2-2.5,0.5-3.6c0.4-0.9,1-1.5,2.1-1.2C402.4,261.9,406,260.8,409.4,261.1z"/>
			<path class="st5" d="M465.3,281.6l-1.1-1.1v-1.2c5.7,0.6,11.5-1.3,17.1,1.1c-4.4,3.1-9.5,0.8-14.2,1.8
				C466.4,282.2,465.7,282,465.3,281.6z"/>
			<path class="st5" d="M399.1,259.9l-1.2,1.2c-1.7,1.5-4.2,1.7-6.2,0.6l-0.6-0.7l1.1-2.2C394.5,259.1,397.1,257.9,399.1,259.9z"/>
			<path class="st5" d="M453.9,280.5c-2.4,2.1-5.3,0.7-8,1.1C448.3,279.5,451.2,280.9,453.9,280.5z"/>
			<path class="st5" d="M542.8,283.8h5.7c8.7,2,16.6,7,25.6,7.7c3.7,0.3,5.2,2.3,6.5,5.1c9,18.6,18.1,37.1,27.2,55.6
				c-4.8,9.6-12.6,16.4-21.1,22.3c-4.9,3.4-10.8,5.5-16.2,8.2c-2.5,1.3-5.5,1.6-8.2,0.9c-7-1.2-14.2-1.9-21.2-3.2
				c-3.1-0.5-4,0.3-4.2,3.3c-0.9,12.8-1,12.8-13.7,12.8h-8c-8.7,1.8-17.6,1.8-26.2,0h-3.4c-7.9-5.5-15.9-11-23.8-16.4
				c-1.5-1.1-3.2-2-4.8-2.9c-2.6,0.3-4-1.7-5.8-2.9c-4-5-3.9-6.6,0.2-10c1.4,1.2,1.3,3,1.7,4.6c3.5,5.1,9.3,7.4,13.9,11.1
				c2.9,2.3,6.2,4.1,9.1,6.4c3.7,2.5,7.2,5.4,11.5,7c10.9,0.7,21.9,0.1,32.8,0.3c2.2,0,4.5-0.1,6.7,0c2.2-0.2,4.7,0.8,6.5-1.4
				c1.3-3.1,0.5-6.3,0.7-9.5c0.2-2.8,0.5-5.4,3.9-5.9c6.8,0.6,13.5,1.6,20.2,2.9c5.2,0.8,10.6,0.1,15.4-2.1
				c10.8-4.5,20.2-11.9,27.2-21.3c-6.9-1.2-13.5,0.3-19-0.8c1.6,0,3.1,0.7,4.1,1.8c0.7,1.3,0.1,2.1-0.8,2.9
				c-2.7,0.8-4.9-0.7-7.3-1.5c-1.7-0.9-4-0.8-4.9-3c-0.2-1.6,0-3.1,1.8-3.7c7.4-1.1,14.8-0.1,22.1-0.5c2-0.1,4,0.4,6.4-0.1
				c0-2.7-2.4-4.4-2.9-6.8c-6.7-15.5-14.4-30.5-22.1-45.5c-1.1-3.7-4.1-4.6-7.6-5.3s-3.8,0.7-3.5,3.3c-0.5,1.3-1.3,2.4-2.3,3.3
				c-3.9,3-7.7,6.3-11.1,9.9c-0.4,0.4-0.8,0.7-1.3,1c-3.5,2-5.2,5.2-5.9,9c-0.3,1.7-0.1,3.8-2.2,4.8c-1.3-0.3-1.7-1.4-2.1-2.4
				c-0.6-1.5-1.1-2.9-3.2-2.4c-1.5,0.4-2,1.6-2.3,2.9c-1,3.9-0.4,7.9-0.7,11.8c-0.2,2.3,0.7,5.1-2.6,6.1c-1.1-1-1.9-2.3-2.2-3.8
				c-0.6-3-0.5-6,0.2-9c0.5-2.2,0.5-4.5,0.2-6.7c-0.2-1.1-0.5-2.4-1.9-2.4s-1.6,1.4-1.6,2.5c0.1,3,0.1,6-0.1,9
				c-0.2,1.8,0.3,4.4-2.8,4.6c-2.3-3.1-0.6-6.9-2-10.1c-0.3-3.2-1.2-6.3-0.2-9.5c2.2-1.7,4.7-1.1,7.2-1.3c9.1,2,15.9-2.2,21.9-8.4
				c1.9-2.1,4-4,6.2-5.7c1.8-1.3,4-2.5,3.3-5.3c-0.7-2.6-2.7-4.6-5.3-5.4c-4.3-1.5-8.9-1.5-13.1-3.4c-0.5-0.3-0.8-0.8-1-1.3
				C542.7,284.4,542.8,284.2,542.8,283.8z"/>
			<path class="st5" d="M55.8,356.9c-1.8-1.3-5.4-1.5-4.8-4.5c0.6-2.8,3.8-2.3,6.2-2.5c1.5-0.2,2.9-0.6,4.3-1
				c0.6,0.5,1.5,0.7,1.5,1.7c-0.2,0.5-0.5,1-1,1.2c-1.8,0.8-3.9,0.6-6.3,1.3c5.1,2.7,10.3,3.7,15.2,5.3c13.4,2.7,27,3.9,40.5,5.8
				c15.5,2.1,31.1,4.1,46.7,6.2c18.6,2.5,37.2,4.6,55.6,7.8c5.2,0.9,10.5,1.1,15.4,3.6c0.8,1.2,0,1.8-0.9,2.4
				c-22-4.3-44.3-6.7-66.5-10c-18.6-2.7-37.4-4.4-56.1-7.2C88.8,364.5,71.6,364.1,55.8,356.9z"/>
			<path class="st5" d="M379.8,398c-1.7,1.8-3.9,1-5.9,1.1c-13.5,0.1-27,0.8-40.4-0.1c-21-1.5-42.1-3.1-62.9-7.1
				c-10.4-2-20.8-3.5-31.2-5.3c-1.5-0.2-2.9-0.8-4.4-1.1c-0.6-0.7-0.9-1.7-0.7-2.6c1.1-2.6,3.6-3.3,5.9-3.9c6.4-1.6,12.6-4,18.9-6
				c2.7-0.7,5.6-0.3,8.2-1.3c2.9-0.4,5.8-0.6,8.7-0.4c1.9,0.4,4.2,0,4.7,2.7c-3.5,2.6-7.8,2.1-11.8,2.7c-5,0.8-10.1,1.1-14.8,2.9
				c-4.8,1.4-9.4,3.6-14.6,3.7c4.8,0.9,9.8,1.7,14.8,2.4c13.5,1.5,26.7,4.9,40.3,6.2c17.1,1.6,34.2,3.3,51.3,3.8
				c8.8,1.6,17.7,0.3,26.5,0.8C374.9,396.5,377.7,395.8,379.8,398z"/>
			<path class="st5" d="M452.7,378.5c-6.8,2.4-13.7,0.9-20.6,1.1c-8.5,0.3-8.5,0.1-9,8.4c-0.1,1.1-0.1,2.3-1.1,3
				c-0.9-0.2-1.6-0.8-2-1.6c-0.2-0.5-0.3-1.1-0.5-1.6c-0.8-3.3,1.4-7.8-2.5-9.8c-5.2-2.7-10.5-6.1-17-4.1c-1.8,0.5-3.8,0.4-5.5-0.3
				c-0.9-0.5-1.6-1.1-0.9-2.3c5.2-2.6,10.7-4.3,16.2-1.3c12.7,7.1,26.3,8.1,40.4,6.5c0.8-0.1,1.5,0,2.2,0.4c0.5,0.2,0.7,0.8,0.5,1.3
				l0,0L452.7,378.5z"/>
			<path class="st5" d="M420.9,390l1.1,1.1c-3.8,3.1-8.5,4.7-13.4,4.7c-9.6,0.4-19,3.3-28.8,2.2c-9.6,0-19.3,0-28.9-0.1
				c-1.8,0-3.8,0.6-5.3-1.1c2.1-2.2,4.9-1.7,7.5-1.7h34.2c7.9,0,7.9-0.1,9.8-7.7c0.3-0.6,0.8-1,1.4-1.1c0.2,0,0.4,0.1,0.5,0.2
				c2.3,2.1,1.3,7.4,6.8,6.6c3.5-0.5,7.1,0,10.4-1.8C417.5,390.3,419.2,389.9,420.9,390z"/>
			<path class="st5" d="M452.7,378.5v-1.1c-0.9-0.9-0.9-2.3,0-3.2l0.1-0.1l4.4,3.4C456,379.1,454.2,378.4,452.7,378.5z"/>
			<path class="st5" d="M234.9,383.1v2.4l-6.8-1.1l1.1-1.1C230.8,381.6,233.3,381.6,234.9,383.1z"/>
			<path class="st5" d="M489.3,396.8h26.2v2.3h-26.2V396.8z"/>
			<path class="st5" d="M96.9,348.9c-0.8-2.6,1.3-5.3,0-7.9c3.6-1.8,6.6,1.5,10,1.3c13.9,1.4,27.7,2.8,41.6,3.9
				c2,0.2,4.2-0.2,5.7,1.9c-1.3,3-4,2.4-6.3,2.4c-7.1,0.1-14.2,0-21.3,0.1h-23.2C101.1,350.5,98.7,350.8,96.9,348.9z"/>
			<path class="st5" d="M96.9,348.9l29.5,0.1c-1,3.8-4.2,2.6-6.6,2.6c-15.9,0.2-31.8,0.1-47.7,0.1c-3.2-0.3-6.7,0.8-9.5-1.6
				l-1.1-1.1L96.9,348.9z"/>
			<path class="st5" d="M105.9,343.3c-3.4,0.6-5.9-1.9-9-2.3l-20.5-9.2l1.1-1c0.7-0.7,1.8-0.9,2.7-0.5c9.7,4.1,19.7,7.9,29.4,12.1
				C108.9,344.5,107.4,343.8,105.9,343.3z"/>
			<path class="st5" d="M86.6,309h8c3.2,1.3,3.3,3.8,2.5,6.7c-1.6,1.9-3.4,3-5.9,1.3l-1.1-1.1l1.1-1.1c1.6-3.6-1.7-3.4-3.4-4.6h-1.2
				C86.6,309.8,86.6,309.4,86.6,309z"/>
			<path class="st5" d="M87.8,310.1c2.9,0.2,6,0.3,3.4,4.6C91.4,312.1,88.9,311.7,87.8,310.1z"/>
			<path class="st5" d="M91.2,317c2.1,0.1,4.2-0.7,5.7-2.3c2.5-2.6,5.8-3.5,9.2-3.8c1.8,0.2,3.9-0.1,4.6,2.3
				c-7.2,3.4-14.8,5.8-22.2,8.7c-3.3,0.6-6,4.2-9.9,2.1c0-0.4,0-0.9-0.1-1.3c0-0.4,0-0.8,0-1.1C83.3,321.5,87.4,319.5,91.2,317z"/>
			<path class="st5" d="M78.7,323.9c3.4-0.1,6-2.3,9.1-3.5c0.6,0.7,0.9,1.7,0.7,2.6c-4.1,5.7-3.7,6,2.8,9.3c12.3,6.2,25.7,7.1,39,8
				c5.3,0.4,10.5,1.3,15.7,1.7c3.9,1.3,8,0.2,11.9,1.1c2,0.8,4.4,0.5,6.2,2c0.9,2.3-1.1,2.7-2.4,3.4c-0.7,0.2-1.3,0.2-2,0.1
				c-14.4-3-29.2-3.2-43.8-4.9c-2.2-0.3-4.6-0.2-6.5-1.6c-7,0.2-12.5-3.9-18.7-6.1c-4.4-1.6-8.7-3.6-13.1-5.4
				C75.4,328,77,325.9,78.7,323.9z"/>
			<path class="st5" d="M252,280.5l9.2,3.3c1.9,5.7-2,8.1-6.1,10.4c-15,2.5-30.2,4-45.2,6.2c-8.8,3.7-18.2,3.1-27.4,4.4
				c-13.8,1.8-27.7,0.4-41.4,1.4c-16.7,1.2-33.3,0.7-50,0.6c-5.7,0-11.2-1.5-16.9-1.3c-2.3,0-4.2-1-4.6-3.4
				c-0.4-2.7,1.9-3.7,3.8-4.1c6.1-1.3,12.3-2.4,18.5-3c33.4-4.2,66.8-8.9,100.2-13.2c9.6-1.2,19.1-2.6,28.6-4.6
				c7.8-1.8,15.9-1.2,23.4,1.8C246.4,280,248.9,281.9,252,280.5z"/>
			<path class="st5" d="M397.9,264.5v3.4c-1.1,1.6-0.2,3.4-0.6,5.1c-1.5,4.7-5.7,5.5-9.7,6.5c-10.5,0.6-21.1,0.1-31.6,0.3h-2
				c-2.2-0.2-4.4,0-6.5,0.6c-2.2,0.4-4.3,0.5-6.5,0.5c-2.2-0.1-4.4,0.2-6.5,0.8c-4.1,0.1-8.1,1.5-12.3,1.4c-2.3,0-4.6,0.1-6.4-1.5
				c-12.5,1.7-25.1,3.1-37.8,1.9c-8.7-0.8-17.7-0.8-26.1-4.2c-2.2-2.4-2.1-5.1-1.1-7.9c10.1-2.9,20.5-3.9,30.9-5.6
				c15.4-2.4,30.9-4,46.5-4.7c0.9-0.2,1.7-0.6,2.5-1.1h3.4c9,1.3,18,0.2,27,0.6c3.9,0.2,7.9-0.6,11.8,0.5h18.2v0.1
				C393.6,261.9,396.4,261.9,397.9,264.5z"/>
			<path class="st5" d="M252,280.5c-1.4,1.6-3.1,1.2-4.7,0.4c-12-6.2-24.3-3.3-36.7-1.4c-15.1,2.3-30.2,4.5-45.3,6.6
				c-19,2.7-38,5.3-57.1,7.8c-9.6,1.3-19.1,2.3-28.7,3.7c-3.4,0.5-8.9,0.6-8.9,4.1c-0.1,3.9,5.1,2.4,8.1,2.7
				c19.6,1.7,39.4,1.7,59,0.1c8.1-0.6,16.3-0.1,24.5-0.2c13.4-0.1,26.7-1.8,40-3.5c2.6-0.3,5-1.5,7.6-2.2c0.4,0.4,0.5,1.1,0.3,1.6
				c-0.5,1.4-1.7,2.5-3.1,2.9c-2.1,0.3-4.3,0.8-6.4,1.3c-11.8,0.7-23.6,2.9-35.5,2.6c-7.7,0.4-15.5-0.9-23.2,0.9
				c-20.3,0.8-40.7,0.4-61-1.3l-11.5-0.1c-5.2-1.9-5.9-4-1.1-9c20-2.7,40-5.4,59.9-8.2c21.1-2.9,42.1-6.2,63.3-8.8
				c12.6-1.5,25-3.8,37.4-5.9c2.5-0.3,4.9,0,7.3,0.9C241.5,277.4,246.5,279.8,252,280.5z"/>
			<path class="st5" d="M403.7,285.1c-3.9,0.4-7.6-0.6-11.4-1.1c-2.2,2-5,1.5-7.6,1.5H336c-13.2,0.6-26.2,2.6-39.3,3.9
				c-9.4,1-18.7,2.6-28.1,2.8c-6.6,0.6-5.2-4.8-6.3-8.4h3.4c1.7,1.3,4-0.2,5.7,1c14.8,1.7,29.6,0,44.4-1.2
				c7.4-2.6,15.2-2.2,22.8-3.1c6.4-0.9,12.8-1.5,19.2-1.7c1.7-0.4,3.4-0.4,5.1,0c11.3,0.8,22.6,0,33.9,0
				C400,280.1,403.1,281.1,403.7,285.1z"/>
			<path class="st5" d="M106,312.4c-3.3-0.4-5.7,2.6-9,2.4c-0.2-2.1-1-4.1-2.3-5.7c0.4,0,0.7,0,1.1,0c2.8-1.9,5.9-1,8.9-1.1
				c6.6-0.1,13.2-0.1,19.9,0c2,0,4.3-0.7,5.7,1.6c-5.9,3.5-12.3,3.1-18.8,2.8C109.6,312.2,107.8,311.4,106,312.4z"/>
			<path class="st5" d="M81,306.8l61.6-0.1c1.8-0.9,3.7-0.5,5.6-0.3c0.7,0.7,0.8,1.9,0.2,2.7c-2.3,0.9-4.7,0.1-7.1,0.3
				c-15.1-2-30.4-0.3-45.5-1.6C90.8,307.2,85.7,309.2,81,306.8z"/>
			<path class="st5" d="M68.3,297.7c-1.3,3.2-3.7,6.6,1.1,9c-5.2-0.2-10.5,1-15.9-2C57.8,300.3,63.8,300.5,68.3,297.7z"/>
			<path class="st5" d="M250.8,271.3c1.9,2.4,0,5.4,1.1,7.9l-15-5.6C241.4,272.1,246.1,271.3,250.8,271.3z"/>
			<path class="st5" d="M358.1,279.4c-4.5,2.5-9.5,1.1-14.3,1.9c-9.2,1.6-18.6,1.8-28,2.5v-2.1c6.5,0.6,12.9-1.4,19.4-1.2
				c1.7-1.3,4,0.3,5.7-1.1h6.8c1.7-1.3,4,0.3,5.7-1.1h1.1C355.6,279.3,357.2,278.2,358.1,279.4z"/>
			<path class="st5" d="M95.8,307.9h46.8c-3,3.5-7.8,4.3-12.6,2.2c-3.5-2.1-7.3-0.9-11-1c-7.7-0.2-15.4-0.1-23.2-0.1
				C95.7,308.6,95.8,308.2,95.8,307.9z"/>
			<path class="st5" d="M262.3,283.9c1.5,1.6,4.5,2.4,2.2,5.8c-0.8,1.1,1.5,0.7,2.4,1c-2.6,4.4-6.6,2.5-10.3,2.1
				c2.4-2.5,4-5.6,4.6-9C261.5,283.8,261.9,283.8,262.3,283.9z"/>
			<path class="st5" d="M271.5,285c-1.9-0.2-4.1,0.8-5.7-1C267.7,284.1,269.8,283.2,271.5,285z"/>
			<path class="st5" d="M452.8,374.2c0,1.1-0.1,2.2-0.1,3.3c-9.1,2.2-18.4,1.2-27.5,0.8c-4-0.2-8.1-2.9-11.7-5.2
				c-6.6-4.2-13.3-2.4-20-1.3c-1.6,2.3-4,2.6-6.6,2.6c-15.7,0-31.5,0.8-47.2-0.2c-13.9-0.9-27.8-2.7-41.7-4.6
				c-14.8-1.9-29.6-3.2-44.5-5.4c-1.7-0.2-3.4-0.2-4.8-1.4c-1.1-1.5,0.7-1.5,1.1-2.3c-4.3,1.6-8.1,0.1-11.8-1.7
				c-1.1-0.6-2.4-1.5-2.1-3c0.4-1.3,1.5-2.3,2.9-2.4c2.4-0.5,4.8-1.5,7.2-0.9c2.7,0.8,4.7-0.3,6.9-1.4c7.9-0.7,15.9-0.7,23.8-0.1
				c8.4,1.1,16.9,1.2,25.4,0.1c2.1-0.3,4.2-0.5,6.4-0.4h38.2c18.1-0.1,36.3,0,54.4,0c5.7,0.9,10.5-1.5,15.2-4.2
				c3.9-1.4,5.4-4,5.3-8.2c-0.3-9.8,0.2-19.5-0.3-29.3c0.1-0.7,0.6-1.2,1.3-1.4c3.9,0.8,4.4,3.9,4.4,7c0,8.7,0.1,17.5-0.1,26.2
				c-0.1,3.4-1.3,6.5-4.1,8.4c-5.7,3.8-11.7,7.1-18.9,7c-34.5-0.8-69.1,1.8-103.6,1.1c-13.2-0.2-26.5,0-39.8,0.5
				c10.8,2.8,21.9,4.1,32.9,5.3c16.9,1.9,33.8,4.4,50.8,5.4c16.4,1,33.1,2,49.4-1.3c8.6-1.8,17.5-0.7,25.3,3.3
				c5.1,2.5,10.7,3.9,16.4,4.1c9.9,0.5,12.1-3.7,9.1-14.6c-0.5-1.9-2.6-3.3-2.6-5.6c0.1-1.1,0.8-2,1.9-2.3c2,2.7,5.1,2.6,8,3.4
				c2.1,3,2.4,6.1,0,9.1C448.9,368.4,449,371.5,452.8,374.2z"/>
			<path class="st5" d="M443.6,352.3l-1.1,1.1c-2.9-0.1-3-2.6-3.4-4.5c-2.7-11.2-5.9-22.3-8.2-33.6c0.1-2.9-0.6-5.9-2.1-8.4
				c-1-2.2-1.5-4.6-1.4-7c-0.3-3,0.8-6.1-0.9-8.9c-3.1-2-6.5-2.3-10-2.3c-1.9-0.2-3.9,0.1-5.6,0.8c-2.2,0.9-4.4,1.5-6.8,1
				c-2-0.5-4-0.8-6-0.9c-0.6-0.1-1.2-0.2-1.8-0.4c-3.1-0.9-6.3-0.3-9.5-0.4h-47c-3.5,0.1-7.1-0.5-10.6,0.5c-0.6,0.2-1.2,0.3-1.8,0.4
				c-2.9,0.4-6-0.2-8.9,0.8c-0.6,0.2-1.1,0.3-1.7,0.4c-2.9,0.4-5.8-0.2-8.6,0.8c-0.6,0.2-1.1,0.3-1.7,0.4c-2.5,0.3-5.2,0-7.7,0.9
				c-1.1,0.3-2.3,0.4-3.4,0.5c-2.3-0.2-4.7,0.1-6.9,0.8c-0.6,0.2-1.2,0.3-1.8,0.3c-6.6-0.4-13,2.4-19.6,1.9
				c-1.5-0.6-3.3-0.8-3.8-2.8c7.3-2.8,15.1-2.5,22.6-3.4c16.6-2.1,33.4-3.9,50.1-5.6h50.7c1.9,0,3.8-0.4,5.6,0.5
				c6.1,1.4,11.8,2.8,18.5,0.9c8.6-2.4,17.9-0.9,26.9-0.6c1.3,0,1,1.2,0.2,2c-3.1,0-7.1-1.1-5.7,4.6c-2.5,1.9-2.4,4.2-1.7,7
				C435,316.7,439.3,334.5,443.6,352.3z"/>
			<path class="st5" d="M517.8,359.1c3.1,6.1,0.2,11.3-6.3,11.5c-4.7,0.1-9.4,0.1-14.1,0.7c-14.3,1.8-27-3.2-38.6-11.2
				c-2.7-1.9-3.1-4.4-1.7-7.5c1.9-4.3,2.4-9,4.2-13.4c2.7-6.3,6.7-8.5,13.1-7.4c1.2-0.6,2.7-0.4,3.8,0.5c9.3,5.8,19.7,9.7,28.2,16.9
				c3.5,3.3,7.6,5.8,11,9.3C517.5,358.7,517.6,358.9,517.8,359.1z"/>
			<path class="st5" d="M456.1,289.5c-3,4.9-0.5,9.3,1.2,13.7c0.3,0.3,0.3,0.9,0,1.2l0,0c-0.1,0.1-0.2,0.1-0.3,0.2
				c-5.3-1.3-5-5.9-5.7-9.9c-0.4-2.5,1.1-5.9-1.9-7.2s-5,1.9-7.4,3.4c-4.6,3-5.7,7.4-4.6,12.4c3,12.9,6,25.8,9.6,38.6
				c0.6,2,0.7,4.6,3.4,4.6s3.1-2.5,3.8-4.4c1.3-3.8,3.2-7.3,5.5-10.5c1.4-1.9,2.9-4,5.2-4.1c7.9-0.3,9.5-5.3,9.4-11.8
				c0.8-1.9,0.2-4.6,2.7-5.7c3.8,3.1,1.5,7.5,2.3,11.2c0.2,2,1,4,0.9,6.1c-0.1,4.9-1.4,5.7-6,3.4c-6.8-2.4-8.8-1.5-12.2,3.7
				c-3,4.6-5,9.8-5.9,15.2c-0.7,4.2-3.3,3.8-6.2,4c-3.4,0.2-4.6-1.4-5.3-4.5c-3.9-16.5-8-33-12.2-49.5c-0.7-2.9-0.8-5,1.7-6.9
				c4-3.1,7.8-6.5,11.7-9.8c1.2,0.6,2.6,0.8,3.9,0.5C454.6,282.8,456.6,284.9,456.1,289.5z"/>
			<path class="st5" d="M528,395.6h-6.8c-4.7-3.8-3.3-7.6,0-11.4l2.2-3.4c1.3-2.2,3.7-3.9,3.5-6.9c2-3.9-2.6-2.9-3.5-4.6
				c-3.3-8.7-2.7-10.6,5.1-16.1c6.3-0.7,12.6-0.6,18.9,0.2c0.7,3.4,5.6,6.2,1.6,10.3c-1.8,2.1-3.8,4.2-2.3,7.3
				c0.8,6.3,0.7,6.3-7.2,7.3c-3.3-0.2-3.4,1.9-3.6,4.4c-0.3,3.9,1.1,8-1,11.7c-2-1.8-0.4-3.9-0.6-5.9s0-3.9-0.2-5.8
				c-0.3-0.7-1,0.5-0.4,0c0.3-0.2,0.5-0.1,0.5,0.2C534.9,391.8,534.5,392.5,528,395.6z"/>
			<path class="st5" d="M475.6,387.7c-8.1-5.5-16.4-10.8-24-17.1c1.1-3.4-0.4-8.6,5.6-9c2.6,1.5,4.6,4.3,7.6,4.8
				c10,1.5,14.5,8.3,17.5,16.9C481,386.1,479,388,475.6,387.7z"/>
			<path class="st5" d="M521.1,379.7c-3.7,8.4-11.7,11-19.1,10.5c-14.1-0.9-18.1-4.9-22.5-17.3h36
				C519.8,373.2,521.7,375.4,521.1,379.7z"/>
			<path class="st5" d="M475.6,387.7l6.8-4.5c0,1.8,1.1,3.3,2.8,3.9c9.1,2.1,17.9,8.1,27.6,2.4c0.9-0.4,1.8-0.6,2.7-0.8
				c2.7,0.7,2.5,3.3,2.3,4.9c-0.3,2.3-2.8,1.3-4.3,1.3c-9.2-0.2-18.5,0.7-27.7-0.5L475.6,387.7z"/>
			<path class="st5" d="M403.7,285.1l-5.7-4.6c-1.4-2.9-0.6-5.5,1.1-8c0.5-3-1-6.3,1.1-9.1c4.6,0.4,9.1-0.8,13.6,0.7
				s8.4,3.6,7.1,9.7c-0.2,1.9-0.2,3.8,0,5.7C415.2,281.6,410.3,285.8,403.7,285.1z"/>
			<path class="st5" d="M474.4,330.7c3.9,1.7,5.1,0,4.6-3.7c-0.3-1.8-0.7-3.6-1-5.5c0.8-0.7,0.2-2.3,1.6-2.6c0.5,0.1,1,0.4,1.3,0.8
				c0.3,0.5,0.5,1,0.5,1.6c-1.9,9.8,3.7,14.4,11.9,17.1c0.5,0.2,1,0.5,1.4,0.9c5.3,4.6,12.1,5.5,18.4,7.8c0.4,0.4,0.6,0.9,0.5,1.5
				c-0.2,0.5-0.6,0.9-1.1,1.1c-1.7,0.5-3.6,0.7-5.4,0.4h-0.8l-31.9-18.2L474.4,330.7z"/>
			<path class="st5" d="M526.9,354.6c0,0.7,0.3,1.9,0.1,2c-5.7,2.5-5.5,6.3-2.6,10.8c0.9,1.4,0.6,1.9-0.9,2.1
				c-3.7,0.2-4.6-1.6-3.2-4.7c1.2-2.8,1.3-5.1-2.5-5.6l0,0c-1.5-1.1-3.8-2.1-3.2-4.1c0.7-2.4,3.4-1.9,5.4-1.9
				C522.3,353.1,524.9,352.6,526.9,354.6z"/>
			<path class="st5" d="M485.8,394.6h31c-0.5-2.1-0.9-3.9-1.3-5.8l5.7-4.6c-2.3,3.8-2,7.6,0,11.4h-30.1
				C489.3,395.6,487.3,396.2,485.8,394.6z"/>
			<path class="st5" d="M392.3,285h-56.9c-0.4-0.2-0.5-0.4-0.4-0.7c0.1-0.2,0.3-0.4,0.4-0.4h57C392.3,284.3,392.3,284.6,392.3,285z"
				/>
			<path class="st5" d="M457.2,361.5c-3.9,1.8-4.2,5.7-5.6,9c0-1.9,0-3.8-0.1-5.6v-9.2c1.3-1.1,2.8-1.9,3,0.6
				S456.1,359.9,457.2,361.5z"/>
			<path class="st5" d="M521.1,379.7c-1.1-2.9-2.3-5.7-5.6-6.8c0.9-0.2,1.8-0.5,2.5-1c2.4-2.3,5-1,6.6,0.4c2,1.7-1.1,3-1.7,4.6
				C522.5,378,521.9,378.9,521.1,379.7z"/>
			<path class="st5" d="M456.1,289.5c-0.6-6.4-6.4-5-10.1-6.7l12.5-0.1c1.6,0.3,2.7,0.9,1.3,2.6
				C458.6,286.7,457.3,288.1,456.1,289.5z"/>
			<path class="st5" d="M432.2,291.8l-3-5.4c3.2-0.2,6-1.2,8.7,0.8C436,288.8,434.1,290.3,432.2,291.8z"/>
			<path class="st5" d="M526.9,374.1c1.5,3.7-1.1,5.1-3.6,6.8C523.7,378.1,525.6,376.2,526.9,374.1z"/>
			<path class="st5" d="M508.6,280.5c11.5,0.7,23,0.5,34.2,3.4l0,0c-1.8,1.6-3.9,1.5-6.1,1.6c-12.9,0.1-25.7-1.9-38.6-1.2
				c-1.3,0.1-2.7-0.2-3.9-0.8c-0.6-0.3-1-1-0.8-1.8C498.5,279.9,503.7,282.1,508.6,280.5z"/>
			<path class="st5" d="M508.6,280.5c-4.8,2.4-9.9,0.4-14.8,1.1c-5.4,3-11.3,1.1-16.9,1.6c-3.4-0.5-7.3,1-10.4-1.7
				c4.8-2.4,9.9-0.4,14.8-1.1L508.6,280.5z"/>
			<path class="st5" d="M372.9,261h-33.5c-1.8,0-3.8,0.6-5.3-1.1h33.5C369.4,260,371.4,259.4,372.9,261z"/>
			<path class="st5" d="M476.7,281.7h17.1v1.1c-0.5,0.5-1.3,0.7-2,0.3c0.1,1,0.8,0.2,1.1,0.2c15.4-0.6,30.7,1,46,1.8
				c6.3,0.3,12.3,2.1,18.2,4.1c4.7,1.6,5.8,7,2.5,10.6c-4.6,5-10,9.3-15.2,13.6c-0.7,0.7-1.6,1.1-2.5,1.1
				c-12.8-0.5-26.7,4.4-37.2-7.7c-1.4-1.9-3.5-3-5.8-3.3c-6.7,0.3-13.5,0-20.2,0.3c-0.6,0.1-1.2,0.2-1.8,0.3
				c-0.9,0.1-1.8-0.2-2.5-0.9c-3-2.3-6.4-0.6-9.6-1.1c-2.1-0.3-4.5,0.8-6.3-1.1c1.8-1.8,4-0.5,6-0.5c10.3-0.1,20.7,0,31-0.1
				c-9.9,0.1-19.7,0-29.6,0c-7.2,0-9.7-4.8-6-11c2.5-4.3,5.9-7.3,11.3-7.2C473,282.2,474.9,282.7,476.7,281.7z"/>
			<path class="st5" d="M476.7,281.7c-2.5,2.1-5.8,1.1-8.6,2c-3.9,1.1-6.9,4.1-8.1,8c-1.7,5,0.7,8.2,6,8.2c10.4,0.1,20.7,0,31.1,1.1
				h-38.6c-3.3-7.9-2-11.6,6.8-19.4h1.2L476.7,281.7z"/>
			<path class="st5" d="M474.3,303.2h2.3c2,2.2,2,4.5,0.1,6.8c-0.3,1.9,0.7,4.1-1.1,5.7c-0.1-0.1-0.4-0.2-0.4-0.3
				c-1.6-8.4-7.8-9.8-14.9-9.7c-1.2,0-2.3-0.5-3-1.4v-1.1H474.3z"/>
			<path class="st5" d="M399.1,272.4c0.4,2.8-0.4,5.4-1.1,8h-30c-1.8,0-3.8,0.6-5.4-1c6.5-1.3,13.1-0.2,19.7-0.6
				c2.6-0.1,5.3,0.5,7.8-0.6c3.5-0.4,6.1-1.8,6.7-5.7c0.2-1.6-0.5-3.4,1.1-4.6C398.2,269.5,397.5,271.3,399.1,272.4z"/>
			<path class="st5" d="M397.9,264.5l-6.8-3.4h6.8V264.5z"/>
			<path class="st5" d="M539.5,378.5c3.8-1.3,8.8-1.8,5.7-8c1.3-0.7,2.6-0.1,3.8,0.4c13.2,5.2,28.2,1.4,37.3-9.4
				c0.9-0.9,1-2.4,0.1-3.3l0,0l-0.1-0.1l-9-2.5c0-0.3,0.1-0.6,0.1-0.9h24c0.9,0,2-0.3,2.5,0.8c0.6,1.3-0.7,2-1.4,2.8
				c-8.2,9.7-18.5,17.4-30.2,22.3c-7.5,3.1-14.4,0.4-21.6,0C546.9,380.1,543.2,379.4,539.5,378.5z"/>
			<path class="st5" d="M480.1,319.3l-1.1-0.1c-1.1-1.7-0.4-3.5-0.5-5.3c0.8-4,0.7-8.6,6.1-9.7c1.6-0.2,3.1-0.6,4.6-1.3
				c0.7-0.2,1.5-0.2,2.2,0c1.2,0.8,2.6,1.3,4,1.4c3.9,0.2,6.6,2.5,9.2,5.1c1.9,1.8,3.3,4.3,6.3,4.6c3.4,0.3,6.8,1.1,10.2,0.2
				c3.4,1,7.4-2,10.3,1.6h-8.1c-1.4,3.2-4.1,1.7-7,1.6c3.8,0.5,6.6,1.4,7.2,5.4c1.1,7.4,2.8,14.8-1.2,22c-0.6,0.8-1.4,1.4-2.3,1.7
				c-9.7,1.5-18.2-1.7-26.2-6.7l0,0C484,336.4,479.3,329.7,480.1,319.3z"/>
			<path class="st5" d="M579.4,298.7c8.7,14.7,15.3,30.4,22.7,45.7c-0.3,3.3,0.3,7-3.3,9l-25.1,0.1c-1.5,1.5-3.4,1.4-5.3,1.5
				c-1.8,0.1-3.6-0.1-5.2-0.7c-1.6-3.4,0.8-6,2.8-7.7c1.1-1,0.2-2.1,1.1-2.6c4.4-1.5,9.1-2.2,13.7-2c1.7,0.5,2.7,1.5,1.7,3.4
				c-1.8,3.4,0.5,3.9,3,4.2c0.8,0.1-0.2,0.1,0.6,0c3.9-0.2,8.7,1.7,11.2-1.8s-0.9-7.1-2.5-10.4c-5.2-10.9-10.8-21.7-16.3-32.5
				c-1.4-2.8-2.5-6.9-6.3-6.4s-5.1,4-5.3,7.7c-0.1,1.2-0.2,2.7-2,3c-2.5-1.8-2-4.3-1.6-6.8c0.2-0.9,0.6-1.8,1.1-2.6l2.3-2.3
				C571,292.4,574.5,292.7,579.4,298.7z"/>
			<path class="st5" d="M531.4,315.8c-3.7-2.3-7.7-0.6-11.5-1.1c-4.5,1.5-8.5,0.2-12.2-2.3c-3.5-2.3-6.4-5.3-8.7-8.8
				c-0.1-0.6,0.1-1.1,0.5-1.5c3.7,0.8,6.4,3.4,8.8,6c3.3,3.5,7.9,5.5,12.7,5.4c4.9,0,9.8,0.3,14.7,0.9c7.1,1,11.8-4.6,16.5-8.8
				c3.5-3.2,9.4-5.9,7.5-12.3c-1.7-5.7-7.7-5-12-5.9c-7-1.4-14.2-1.6-21.3-2.5c-12.6-1.5-25.4-1-39.1-1.1c2.8-1.6,4.7-0.9,6.6-1.1
				c14.5-0.7,28.8,1.1,43.3,1.1c1.7,1.3,4-0.2,5.8,1.1c4.8,1.1,9.5,2.3,14.3,3.1c4.2,0.8,6,4.2,7,7.5c0.8,2.8-2.6,4.2-4.7,5.7
				c-3.5,2.5-6.8,5.4-9.6,8.7C544.6,316.2,538.3,316.2,531.4,315.8z"/>
			<path class="st5" d="M520,345.4l1.1-1.1c1.1-0.6,2.1-1.8,3.4-1.9c3.1,0.2,6.4,1.4,9.1-1.4c2.2-4.5,0.5-9.2,1.1-13.8
				c0.2-2.6,0.6-5.2,1.4-7.7c1-2.5,3.6-1.5,5.5-1.3c2.9,0.2,1.8,2.7,2.1,4.4c-1.3,2.5,1.2,5.1,0,7.7c-0.7,2.5-1.5,4.8-4,6.5
				c-3.7,2.4-3.2,5.4,1.1,7.2c1.3,0.6,3.1,0.6,3.2,2.6c-1,1.1-2.3,1.8-3.7,2.1c-2.3,0.6-4.7,0.4-7,1.3c-2.1,0.4-4.2,0.5-6.3,0.2
				c-2.5-0.9-5.4-0.6-7.9-1.9C517.9,346.9,519.1,346.2,520,345.4z"/>
			<path class="st5" d="M562.2,353.4l5.8,0.2c0.8,0.8,1.6,1.5,1.4,2.8c-4.9,4.4-11.4,5.8-16.9,9.1c-4.3,2.6-4.3,2.6,0.2,5.4
				c10,2.6,18.8,0.2,26.6-6.2c2-1.4,4.2-2.5,5.7-4.6l1.1-2.1c2.7,0.5,4.9,1.4,1.7,4.2c-7.5,6.5-15.4,11.6-25.8,13.1
				c-6.8,1-11.6-2.3-17-4.8c-2.1-3.2,0.7-4.8,2.3-6.7c5-3.6,10.7-5.9,15.6-8.2c-4.6,0.4-9.5,1.7-14.4-1h-33.3
				c-0.2,2.4,2.1,2.9,2.4,4.6c-4.5-2-8.4-5.2-11.4-9.1l0,0c16.4,3.5,33,1,49.4,1.7C558.1,351.8,560.4,351.6,562.2,353.4z"/>
			<path class="st5" d="M542.8,330.6c0.5-2.7-0.8-5.6,1.1-8l1,2.3c2.3,1.6,0.3,4.4,2,6.7c2.6-4.9,2.5-10,3.4-14.9
				c0.4-2.5,0.6-4.9,2.8-6.6l0,0c3-1.6,5.8-3.7,9.4-3.1c1.6,0.7,1.7,2.8,3.3,3.5c0.4,0.4,0.7,0.8,1,1.3c4.2,7.8,8.6,15.4,13,23
				c1.3,1.8,2.2,3.9,2.6,6.2c0.1,0.9-0.3,1.7-0.9,2.3c-5,0.6-10,0.5-14.8,2.3c-1.3,1-3,1.4-4.6,1.2c-1.2-0.4-2.5-0.7-2.4-2.4
				c3.9-2.7,8.6-2.1,12.9-3c5.1-1.4,5.1-1.4,2.1-6.6c-3.5-6.6-7.3-12.9-11.1-19.3c-1.3-1.5-1.8-3.8-4.7-3.1c-3.6,0.8-3.2,3.8-4,6.2
				c-0.1,4-1.3,7.9-1.5,11.9c-0.1,1.3-0.5,2.6-1.2,3.8c-1.7,2.6-5,3.8-8,2.9C540.8,335.9,542.5,332.9,542.8,330.6z"/>
			<path class="st5" d="M525.8,335.3c2.2-4.9,0.7-10,1-15.1c0.1-1.7-0.6-3.5,2.2-3.3c2.2,0.2,5-0.6,4.8,3c-0.3,5.8-0.7,11.7-1,17.5
				c0.7,2.1,1.2,4.4-1.1,5.5c-2,0.9-4.3,0.5-5.9-1C523.9,340.1,524.1,337.6,525.8,335.3z"/>
			<path class="st5" d="M580.5,365c-6.5,7.5-20.5,10.8-28.6,6.8c-1.3-2.1-1.3-4.8,0-6.9c5.1-4.1,11.8-5.4,17.2-9.1
				c1.1-1.2,3-1.3,4.2-0.2l0,0c0.1,0.1,0.2,0.2,0.2,0.2c1.1,1.7,3.6,0.4,4.6,2.2C580.8,359.8,582.9,361.6,580.5,365z"/>
			<path class="st5" d="M553.1,310.1c-1.1,6.5-2.3,12.9-3.3,19.4c-0.4,2.5-0.8,4.9-3.8,4.3c-3.2-0.6-1.6-3.1-1.2-5
				c0.2-1.3,0.2-2.6,0.3-3.9C545.5,318.8,545.8,312.5,553.1,310.1z"/>
			<path class="st5" d="M524.7,343.2l-3.4,1.1c3.3-6,2.5-12.5,2-19c-0.4-4.9-3.3-8-9-7.6c3.1-1.3,6.5,0,9.1-1.9
				c1.9,2.8,1.1,6.1,1.3,9.1C525.5,330.9,525.5,337.1,524.7,343.2z"/>
			<path class="st5" d="M563.4,307.9l-10.3,2.2c3-4.4,7-7.5,11.4-10.3v2.3C563.1,303.9,564.8,306.2,563.4,307.9z"/>
			<path class="st5" d="M579.4,298.7c-3.9-3.6-8-5.1-12.6-1.1c-0.5-1.8-1-3.5-1.5-5.3C574.1,291.7,577.4,293.2,579.4,298.7z"/>
			<path class="st5" d="M524.7,343.2V325c2.3,3.2,0.5,6.9,1.1,10.3c0.1,0.7,0.1,1.5,0,2.2c-0.6,3.3,1,4.9,4.2,4.9
				c3.7,0,2.1-3.1,2.7-4.9c1.3,0.9,1,2.3,1.1,3.5C532.1,347.6,528,343.6,524.7,343.2z"/>
			<path class="st5" d="M598.8,353.4l3.3-9c0.5,3.1,3.6,5.1,3.8,8.5C603.5,354,601.1,353.3,598.8,353.4z"/>
			<path class="st5" d="M528,395.6c4.4-3.4,7.4-7.5,6.8-13.5v12.4C532.9,396.6,530.3,395.3,528,395.6z"/>
			<path class="st5" d="M580.5,365c0.4-2.7-0.7-4.9-2.3-7l6.8,2.1C585.4,363.5,582.8,364.1,580.5,365z"/>
			<path class="st5" d="M573.6,355.8h-4.5c-0.8-0.4-1.3-1.3-1.1-2.2h5.6C573.9,354.3,574.9,355.1,573.6,355.8z"/>
			<path class="st5" d="M542.9,285c-2-0.2-4.1,0.8-5.8-1.1h5.7C542.9,284.3,542.9,284.6,542.9,285z"/>
			<path class="st5" d="M234.9,383.1l-5.7,0.1c-9.9-2.9-20.1-4.2-30.3-5.7c-15.6-2.3-31.3-4.2-47-6.2c-13.2-1.7-26.5-3.2-39.7-5.3
				c-14.2-2.4-28.8-2.4-42.7-6.7c-1.4-1.4-3.7-2.3-2.9-4.9c0.9-3,3.6-2.9,6-3.6h2c22.2,0,44.5,0.2,66.7-0.6
				c10.4,0.3,20.7-1,31.1-0.4c0.7,0,1.3,0.1,2,0.3c4.6,1.5,9.2,0.6,13.8,0.8c3.9,0.1,7.8-0.2,11.7,0.3c2.1,0.5,4.2,0.9,6.3,1.2
				c3.8,1.8,6.2,6.5,11.3,6c14.4,1.3,28.6,4.4,42.9,6.1c2.6,3.7,3.9,7.2-1.5,9.6c-5.5,2.8-11.5,4.3-17.4,6
				C239.2,380.7,236.6,381,234.9,383.1z"/>
			<path class="st5" d="M71.8,351.2c-4.4,1.6-5.6,4.2-2.3,8c-5.7-1.1-11.4-2.4-16.2-6.2c3-2,6.2-1.8,9.4-1.8
				C65.6,350.3,68.8,350.3,71.8,351.2z"/>
			<path class="st5" d="M71.8,351.2h-9.1c0-0.4,0.1-0.7,0.1-1.1h9.1c0.4,0.2,0.5,0.5,0.4,0.7S72.1,351.2,71.8,351.2L71.8,351.2z"/>
			<path class="st5" d="M398,386.5c0,10.3,0,10.3-10.6,10.3h-41.9c-28.7-0.2-57.3-3.2-85.4-9c-2.4-0.5-5,0.7-7.1-1.3
				c-2.5-2.7-2.6-5.3,0-8c8.7-4,18.1-3.7,27.4-4.6c1.4-1.6,3.5-2.4,5.6-2.2c9.4,0.8,18.9,0.6,28.2,2c10.1,1.4,20.2,1.8,30.4,3.1
				c13.3,1.7,26.8,1.5,40.2,1.3c1.3,0,2.6-0.3,3.9-0.7C397.5,376.6,399.6,378.7,398,386.5z"/>
			<path class="st5" d="M388.9,378.6c-0.6,0.3-1.3,1-2,1c-15.3,0.2-30.6,0.4-45.8-1.8c-9.5-1.4-19.1-1.8-28.7-2.6
				c-8.6-0.7-17.2-1.4-25.9-1.9c-2.1,0.1-4.1,0.3-6.1,0.7c-1.2-1.6-3-0.9-4.6-1.1c0.7-3.1,3.4-2.6,5.5-2.7c15-0.6,29.8,1.4,44.7,3
				c3,0.3,6,0.3,9,0.6c11,1.7,22.1,1.8,33.2,2.5c4.5,1.4,9.1,0.6,13.6,0.8C384.3,377.1,386.9,376.5,388.9,378.6z"/>
			<path class="st5" d="M335.3,375.1c-16.9-0.5-33.6-4.1-50.6-3.4c-2.9,0.1-6.1-0.9-8.8,1.1l-9,0.1c-1.1,0.7-2.4,0.7-2.4-0.8
				c-0.1-2.2,0.1-4.6,2.4-5.7c1.3-0.7,2.9-0.3,4.3-0.4c21.2,2.2,42.5,4.4,63.7,7.4c0.6,0.3,0.8,0.9,0.6,1.5L335.3,375.1z"/>
			<path class="st5" d="M253.1,378.6c-0.8,2.6-0.8,5.4,0,8c-5.1,0.2-10-1.1-15.6-2.6C242.7,380.8,248.1,380.1,253.1,378.6z"/>
			<path class="st5" d="M270.3,367.1c-3.9,0.5-5.2,2.6-3.4,5.7c-2.4,2.1-5.3,0.7-8,1.1c0.5-2.4,5.9-4.2,0.9-7.4l1.4-0.6
				C264.5,364.4,267.6,364.3,270.3,367.1z"/>
			<path class="st5" d="M270.3,367.1c-2.8-2.1-6.1-0.7-9.1-1.1c-7.2-2.2-14.7-2-22-3.4c-7.5-1.4-15.2-1.2-22.6-3.4
				c0.6-1.1,1.7-1.9,3-2.1c4.1,0.1,8.1,0.4,12.1,1c5.6,1,11.2,2.3,16.8,3.4c7.2,2.2,14.7,2.3,22.1,3.3c15.1,2.1,30.2,3.7,45.3,5.6
				c24.1,3.1,48.3,2.5,72.5,2.4c1.7-0.2,3.4-0.5,5-1l1.1,1.1c-0.3,2.3-2.2,2.6-3.8,2.6c-18.5,0-37.1,1.1-55.6-1.5
				c-19.2-2.3-38.4-4.5-57.6-6.7C275.2,367.2,272.8,367.1,270.3,367.1z"/>
			<path class="st5" d="M420.9,390c-5.3,4.9-11.9,5-18.5,4.5c-5.8-0.5-2.2-5.3-3.3-7.9s-1.2-5.2-1.8-7.9c-0.3-2.6,1.8-4,2.9-5.9
				c4-1.4,18.6,2.3,20,5.5C421.8,381.9,420.5,386.1,420.9,390z"/>
			<path class="st5" d="M400.3,372.8c0.7,2.3-1.2,3.2-2.3,4.6c-9.8,0.8-19.7,0.8-29.5,0c-11.1,0.1-22.2-0.7-33.1-2.4v-1.1
				c17.6,0,35.2,0,52.9-0.1c2.2,0,4.6,0.8,6.5-1.1h5.5V372.8z"/>
			<path class="st5" d="M368.4,377.5H398c0.1,3.1,1.7,5.9,1.1,9.1H398c-0.6-5.5-2.3-9.7-9.1-8C382.1,377.9,375.1,379.9,368.4,377.5z
				"/>
			<path class="st5" d="M71.8,351.1V350h48.8c2,0,4.2,0.8,5.9-1c7.3,0,14.7,0,22-0.1c1.8,0,3.8,0.7,5.3-1c2.7-1.8,5.1,0.5,7.7,0.5
				c1.8-0.4,3.6-0.9,5.4,1.7c-8.8,1.6-17.3-0.4-25.5,1.1L71.8,351.1z"/>
			<path class="st5" d="M160.8,348.9c-2.3-0.4-4.6-1.6-7-1c-15.6-0.1-30.9-3-46.5-3.7c-0.5,0-0.9-0.6-1.4-0.9
				c1.2-0.1,2.6,0.2,3.4-1.1c16.3,1.5,32.5,3.1,48.8,4.6c0.9,0.2,1.8,0.6,2.6,1c0.4,0.2,0.5,0.5,0.4,0.7S160.9,348.9,160.8,348.9z"
				/>
			<path class="st5" d="M87.8,322.7v-2.2c7.8-1.6,14.4-7.2,22.8-7c6.8-2.6,14-2.1,21.1-2.8c6.7-0.7,13.4-0.9,19.9-2.8
				c5.7-1,11.4-1.4,17.2-1.1c14.5-1,29-2,43.4-4.6c4.5-0.8,8.7-0.5,12.4,2.6c0.5,0.5,0.8,1.2,0.8,1.9c0,0.7-0.4,1.3-1,1.7
				c-6,0.7-11.8-1.1-17.9-0.3c-14.8,2-29.6,3.1-44.6,4.5c-13,1.2-26,2.6-39,3.6c-9.7,0.7-19.2,2-28.1,6.1
				C92.5,323.2,90.2,324.6,87.8,322.7z"/>
			<path class="st5" d="M151.7,309c-3.9,2.5-8.4,1.1-12.5,1.8c-9.5,1.5-19.1,1.9-28.6,2.7c-1.2-1.6-3-0.9-4.6-1.1
				c7.9-1.8,15.9-2.1,23.9-2.3c4.3,0.1,8.6-0.6,12.6-2.3c2-0.2,4,0.2,5.7,1.1C149.1,308,150.6,308,151.7,309
				C151.6,308.9,151.6,308.9,151.7,309L151.7,309z"/>
			<path class="st5" d="M87.8,322.7c3,0.4,5.6-1.4,8-2.6c6.9-3.4,14.4-4.6,21.8-5.3c18.4-1.8,36.8-3,55.1-4.7
				c13.3-1.2,26.5-2.9,39.8-4.3c4.2-0.5,8,2.1,12.2,2.1c5.5-0.7,11-1,16.6-1.1c2.4-0.1,5,0.8,5.9,3.5c0.8,2.4-0.5,4.4-2,6.1
				c-2.4,2.6-4.6,5.5-6.5,8.5c-2,3.6-0.4,6.4,2,9s5.6,4.9,7.3,8.4c1,3,0.4,5.6-3.1,5.8c-6.2,0.3-12.4,1.2-18.5-0.6
				c0.7-3,0.7-3,4-3.3c3.9-0.4,7.9,0.5,11.8-0.7c-0.4-2.8-2.6-4-4.1-5.6c-6.6-7.1-6.9-11.8-1-19.6c1.1-1.5,3.4-2.7,2.6-4.7
				c-1-2.5-3.6-1.6-5.6-1.6c-5.5,0.1-11-0.6-16.3-1.9c-7.1-1.8-14.3,0.5-21.5,1.1c-14.5,1.2-29.1,2.4-43.6,4
				c-14.8,1.7-29.8,2.4-44.6,4.6c-5.7,0.9-10.8,3.6-16.1,5.6c-1.1,0.5-2.7,1-2.6,2.6c0.1,1.1,1.4,1.8,2.4,2.2
				c7.8,3.3,15.6,6.6,24.4,7c13,0.7,26,2.6,39.1,3.5c1.3,0.1,3.8-0.1,2.9,2.8c-4,0.2-8.1,0.8-12.1-0.3c-13.1-1.1-26.2-1.8-39.3-3.7
				c-7.2-1.1-14-4.6-20.5-8C81.9,329.1,82.4,327.1,87.8,322.7z"/>
			<path class="st5" d="M225.8,346.6c5.4,0,10.9-0.3,16.3,0.1c5,0.4,5.9-1.6,4.2-5.8c2.9-0.2,4.2,1.5,4.1,4.1s-1.9,3.6-4.1,4
				c-2.3,0.3-4.6,0.4-6.8,0.3c-7.2,0-14.3,0.2-21.4,1.8s-14.3-0.6-21.5-1.1c-6.4-0.4-12.8-0.8-19.2-1.8c-1.3,0-2.7-0.1-4-0.4
				c-2.9-1.4-6.6,0.2-9.2-2.3c-1.9-0.3-4.1,0.7-5.7-1.1l0.8-0.7c3.6-1.6,7.4-0.6,11.1-0.9c11.3,0.8,22.5,1.8,33.7,3.1
				c5.4,0.6,10.9,0.6,16.4-0.1C222.4,345.4,224.2,345.2,225.8,346.6z"/>
			<path class="st5" d="M160.8,348.9v-1.1l1.1-0.1c1-0.7,2.2-0.5,3.3-1c1.7-0.2,3.4-0.2,5.1,0c0.8,0.2,1.6,0.7,2.2,1.3
				c0.7,0.9,1.4,1.8,0.9,3h-31.9c5.4-2.4,11-0.6,16.5-1.1c2.4-0.2,4.8,0,7.6,0C164,348.1,162.2,349.3,160.8,348.9z"/>
			<path class="st5" d="M145.9,343.2h12.5l0.4,0.6l-0.4,0.6l0,0C154.4,343.8,149.9,345.6,145.9,343.2z"/>
			<path class="st5" d="M165.3,347.7h-3.4l2.3-2.3c3,0.5,6.3-1.1,9.1,1.1C170.8,348.3,167.8,346.1,165.3,347.7z"/>
			<path class="st5" d="M83.8,301.3c4.9-3.7,10.6-3.9,16-4.7c24.1-3.4,48.3-6,72.4-9.5c18.6-2.7,37.4-5,55.9-8.5
				c8.5-1.6,16.6,3,24.3,6.7c3,1.5,1.2,3.2-0.9,3.8c-4.6,1.1-9.2,2-13.8,2.6c-7.5,1-15,1.6-22.5,2.5c-1.5,0.1-3,0.5-4.3,1.2
				c-7.8,5-16.7,4.4-25.2,5.5c-13,1.8-26.2,0.3-39.2,1.4c-16.5,1.4-33,0.3-49.5,1C92.3,303.5,88.2,301.9,83.8,301.3z"/>
			<path class="st5" d="M335.3,283.9c0,0.3,0,0.7,0,1c-9.3,1.1-18.6,2.3-28,3.5c-14.6,2-29.5,2.3-44,5.7c-6.8,3.3-14.3,2.5-21.4,3.8
				c-1.8,0.3-3.8,0.1-5.6,0.7c-8.2,1-16.3,2.4-24.5,3c-1-0.1-1.9-0.8-2.1-1.8c0-0.4,0.1-0.7,0.1-1.1c13.1-1.8,26.3-3.6,39.5-5.4
				c2.4-0.3,4.9-0.3,7.3-0.5c3.1-2.1,7.2,0.3,10.3-2.1c13-0.5,25.8-2.7,38.7-4C315.5,285.8,325.4,284.9,335.3,283.9z"/>
			<path class="st5" d="M289.6,266.7h1.1c3.3-1.5,7,0.4,10.3-1.1l0,0c4.1-1.5,8.5,0.5,12.5-1.1h1.1c3.7-1.6,7.7,0.5,11.4-1.1l0,0
				c3.3-1.1,6.7-0.5,10.1-0.5c16.1-0.1,32.1,0,48.2,0c1.9,0,3.8-0.5,5.6,0.5l0,0c1.8,0.8,3.6,1.5,4.6,3.4v4.6c-1.7,3.1-4.4,4-8,4.1
				c-10.3,0.1-20.5-0.8-30.8,0.5h-1.1c-4.1,1.5-8.5-0.5-12.5,1.1l0,0c-4.1,1.5-8.5-0.5-12.5,1.1l0,0c-4.1,1.5-8.5-0.5-12.5,1.1l0,0
				c-4.1,1.5-8.5-0.5-12.5,1.1l0,0c-10.2,0.9-20.6,0.9-30.8,0l0,0c-2.9-1.6-6.2,0.4-9.1-1.1h-1.1c-1-1-2.6-0.3-3.6-1.1
				c-1.3-1-3-1.8-2.5-3.9c0.4-1.6,1.8-2,3.3-2.5c2.8-0.9,5.8-0.7,8.6-1.7l0,0c2.1-1.4,4.8,0.3,6.9-1.1l0,0c2.1-1.4,4.7,0.3,6.8-1.1
				l0,0C284.9,266.5,287.5,268.3,289.6,266.7z"/>
			<path class="st5" d="M390,263.3h-63.9c1.1-1.4,2.7-1.1,4.2-1.1h55.5C387.3,262.2,388.9,261.9,390,263.3z"/>
			<path class="st5" d="M355.8,275.9c2.3-2.1,5-1,7.6-1.1c7-0.2,14-0.3,21,0c4,0.2,7.4-0.7,10.3-3.5c-0.5,3.9-3.2,4.6-6.5,4.6
				C377.3,275.9,366.5,275.9,355.8,275.9z"/>
			<path class="st5" d="M391.1,278.2c-4.6,2.4-9.6,0.8-14.4,1.1s-9.4,0.1-14.1,0.1h-4.5c-1.2-0.1-2.6,0.2-3.4-1.1l34.2-0.1
				C389.5,277.6,390.5,277.6,391.1,278.2L391.1,278.2L391.1,278.2z"/>
			<path class="st5" d="M269.1,270.2c-1.9,2-4.6,0.9-6.8,2c-1.4,0.7-3.8,0.1-4.1,2.2s1.5,3.1,3.4,3.8c0.6,0.3,1.3,0.7,1.8,1.1
				c-1.1,0.1-2.3,0-3.4-0.2c-1.9-0.6-4.4-1.1-4.4-3.7s2.1-3.6,4.6-4.2C263.1,270.4,266.1,270,269.1,270.2z"/>
			<path class="st5" d="M273.7,280.4h30.8c-7.6,2.5-15.5,0.7-23.3,1.1C278.7,281.7,275.9,282.6,273.7,280.4z"/>
			<path class="st5" d="M391.1,278.2h-2.2c3.1-1.3,6.2-2.4,7.9-5.6C397.6,277.1,395.6,278.9,391.1,278.2z"/>
			<path class="st5" d="M342.1,277c4-2.4,8.4-0.5,12.5-1.1C350.7,278.3,346.3,276.5,342.1,277z"/>
			<path class="st5" d="M329.6,278.1c4-2.4,8.4-0.5,12.5-1.1C338.1,279.5,333.7,277.6,329.6,278.1z"/>
			<path class="st5" d="M313.6,264.5c-4,2.4-8.4,0.6-12.5,1.1C305,263.2,309.5,265.1,313.6,264.5z"/>
			<path class="st5" d="M317,279.3c4-2.4,8.4-0.6,12.5-1.1C325.6,280.6,321.2,278.8,317,279.3z"/>
			<path class="st5" d="M304.5,280.4c4-2.4,8.4-0.6,12.5-1.1C313,281.8,308.6,279.9,304.5,280.4z"/>
			<path class="st5" d="M326.1,263.3c-3.6,2.3-7.6,0.6-11.4,1.1C318.4,262.2,322.4,263.9,326.1,263.3z"/>
			<path class="st5" d="M301,265.6c-3.2,2.3-6.9,0.6-10.3,1.1C294,264.5,297.6,266.1,301,265.6z"/>
			<path class="st5" d="M264.5,279.3c3,0.5,6.3-1.1,9.1,1.1C270.7,280,267.4,281.6,264.5,279.3z"/>
			<path class="st5" d="M289.6,266.7c-2,2-4.6,0.8-6.8,1.1C284.8,265.9,287.4,267.1,289.6,266.7z"/>
			<path class="st5" d="M282.8,267.9c-2,2.1-4.6,0.8-6.9,1.1C278,267,280.5,268.3,282.8,267.9z"/>
			<path class="st5" d="M276,269c-2,2.1-4.6,0.8-6.8,1.1C271.1,268.2,273.7,269.4,276,269z"/>
			<path class="st5" d="M394.6,266.7l-4.6-3.4C392.5,263.3,394.4,263.8,394.6,266.7z"/>
			<path class="st5" d="M341,279.3c-1.6,1.9-3.8,0.9-5.7,1.1C336.9,278.6,339,279.6,341,279.3z"/>
			<path class="st5" d="M353.5,278.2c-1.6,1.9-3.8,0.9-5.7,1.1C349.4,277.5,351.6,278.4,353.5,278.2z"/>
			<path class="st5" d="M209.8,299.8l1.2,1.1c5.2,0,10.9-2.6,14.9,3.1c0.2,1-0.1,1.7-1.3,1.5c-8-4.5-16.3-1-24.4-0.7
				c-10.5,0.4-21,1.9-31.5,2.9c-1-1-2.5-0.2-3.6-0.9c-0.3-0.4-0.2-1,0.2-1.3c12.2,0.5,24.3-2.4,36.5-2.4c1.7-1.2,4,0.3,5.7-1.1
				L209.8,299.8z"/>
			<path class="st5" d="M165.4,305.6v1.1c-5.7,0.6-11.4,2.4-17.1,0.1l-5.7-0.1C150,304.2,157.8,306.2,165.4,305.6z"/>
			<path class="st5" d="M207.5,302.1c-1.6,1.8-3.8,0.9-5.7,1.1C203.4,301.4,205.6,302.4,207.5,302.1z"/>
			<path class="st5" d="M148.2,306.8l17.1-0.1c1.2,0.1,2.6-0.2,3.4,1.1l-17.1,1.2l-3.4-0.1C148.2,308.2,148.2,307.5,148.2,306.8z"/>
			<path class="st5" d="M338.7,287.3h49c2.9,1.6,6.2-0.4,9.1,1.1h1.1c1.7,1.4,4-0.2,5.7,1.1c2.4,0.4,4.6-0.7,6.9-1.1
				c1.7-1.3,4,0.3,5.7-1.1c3.9-0.1,7.8,0.7,11.4,2.3c1.5,3.3-0.4,7,1.1,10.3c0,2.4-0.2,4.7,1.1,6.9c0.9,2.6,1.3,5.4,2.3,8
				c3.1,13,5.4,26.2,10.3,38.8c2.4,4.6,5.3,8.8,4.8,14.7c-0.4,5.3-2.8,7.6-7.5,8.1c-6.5,0.6-13.3,0.3-18.9-3
				c-11.2-6.6-22.5-4.9-34.5-3.4c-14.5,1.8-29.2,1.3-43.8,0.2c-12.5-0.9-25.1-2.6-37.6-4.1c-15.2-1.7-30.4-3-45.4-6.1
				c-1.5-0.3-3.5-0.3-4.5-2.3c1.5-2.3,3.9-1.9,6-1.9c5.5,0,11-0.1,16.5,0c42.3,0.9,84.6-1.6,127-1.1c6.8,0.1,12.3-3.5,17.7-6.9
				c2.5-1.6,3-4.6,3-7.6c-0.1-8.6-0.1-17.1,0-25.7c0-2.9-0.7-5.2-3.4-6.5c-1.1,0.3-1.5-0.4-1.7-1.3c0.1-0.6,0.3-1.1,0.8-1.4
				c2.8-0.4,5.3-0.2,4.6-4.9c-1.7-9.9-3.1-11-15.2-8.4c-0.6,0.2-1.2,0.3-1.9,0.4c-19.7-1.3-39.4-0.7-59.1-1.1
				c-18.7-0.3-37,2.8-55.4,5.2c5.4,0.6,10.8,0.9,16.2,0.8c27,0,53.9,0.1,80.9-0.1c6.1,0,12.1,1.2,18.1,1.4c1.9,0,3.7,1,4.7,2.6
				c0.5,1.5-0.6,1.7-1.6,2.1c-0.7,0.1-1.3,0.1-2,0c-3-0.8-6-0.5-9-0.5c-18.1-0.2-36.3,0.4-54.4-0.3c-2.5-0.7-5.2-1-7.9-0.9
				c-17.2,0-34.5-0.1-51.7,0c-5.3-0.1-10.6-0.5-15.8-1.3c-1.4-0.2-3.3-0.2-3.5-2c-0.3-2.1,1.8-2.1,3.1-2.5
				c5.3-1.5,10.8-1.6,16.1-2.7h1.1c2.1-1.4,4.8,0.3,6.8-1.1h3.4c2.5-1.5,5.5,0.4,8-1.1h1.1c2.9-1.5,6.2,0.4,9.1-1.1h1.1
				c2.9-1.5,6.2,0.4,9.1-1.1h1.1C331.7,287,335.4,288.9,338.7,287.3z"/>
			<path class="st5" d="M410.6,302.1h1.1c3.2,1.1,6.8,1.6,9.1,4.6l1.2,1.1v1.1c-2.9,1.7-5.1-0.2-7.4-1.4c-3.7-2-7.8-2.9-12-2.8
				c-15.3,0.2-30.6,0-46,0.1h-37c-10.2,0.2-20.3-0.6-30.5,0.5c-1,0.2-2.1,0.2-3.1,0c-2.9-0.8-5.9-0.4-8.9-0.6
				c-2.1-0.1-4.6,0.4-5.9-2.1c1.4-2.5,3.8-1.9,6-1.9c20.7,0.2,41.4,0.4,62.1-0.1c2.5-0.3,4.9-0.8,7.3,0.2h55.9
				C405.1,302.5,408,300.7,410.6,302.1z"/>
			<path class="st5" d="M356.9,303.3c16.4,0,32.9,0,49.3-0.1c6.1,0,10.2,4.8,15.8,5.7c2.3,4.9,0.8,10,1.1,15s-0.2,9.8,0.1,14.7
				c0.4,5.3-1.8,8.2-6.9,9.1c-1.4,0.2-1.5-0.6-1.2-1.6c3.7-3,4.6-7.1,4.2-11.6s0-9.1-0.1-13.6c0-9-3.6-12.9-12.7-13.7
				c-2.8-0.3-5.7-0.1-8.4,0.6c-0.6,0.2-1.3,0.3-1.9,0.4c-3.3,0.1-6.6,0.8-9.6-1.1c-0.2-0.8-0.2-1.5,0.7-1.8
				c-0.5-0.2-0.9,0.2-1.4,0.3c-8.6,1.1-17.2,0.5-25.9,0.3C358.7,305.8,356.9,305.4,356.9,303.3z"/>
			<path class="st5" d="M302.2,352.3c-8.3,1.8-16.8,1.8-25.1,0c0.1-0.6-0.1-1.1-0.6-1.5c-7.7-1.7-15.6-3-22.7-6.6
				c-5.3-2.9-10.1-6.6-14.1-11c-1.7-2-3.7-3.9-2.9-6.9c4-5.2,6.9-11.6,13.8-13.9c3.7-1.7,7.5-3.4,11.7-3.3c1.1,0.3,2.3,0.6,2.4,2.1
				c-4.2,2.9-9.5,3.6-13.8,6.3c-1.5,0.7-3,1.6-4.3,2.7c-6.2,5.9-6.2,8.5,0.2,14.2c5.6,5,12.5,7.8,19.7,9.7c5.3,1.4,10.6,2.6,16,4.1
				c4.4,1.2,9-0.1,13.5,1C298,350.2,300.5,350.6,302.2,352.3z"/>
			<path class="st5" d="M402.5,352.3h-55.8c0.9-3.5,4.4-2.3,6.5-3.6c10.6-2.7,21.3-1,32-1.5c3.1,0.6,6.7-0.7,10.1,2.6
				c-5.6,1.5-10.4,0.5-15.2,1c5.7-0.5,11.4,0.7,17-1c1-0.1,2,0,3,0.1C401.2,350.2,402.7,350.4,402.5,352.3z"/>
			<path class="st5" d="M248.6,361.5c-5.8,0-11.6,0.1-17.1-2.3c-1.4-1-3.9-0.9-3.9-3.3c0-2.9,2.4-3.9,4.7-4.7
				c4.6-0.8,9.3-0.3,14-0.4c2,0.1,4.2-0.2,5.7,1.6c-0.6,3.2-3.1,2.5-4.9,1.8c-3.8-1.3-6.7,1.1-10.3,1.4c3.7,3.8,8.2,4.4,12.9,4.8
				c0.4,0,0.8,0.1,1.1,0.2C250.5,361.9,249.4,361.2,248.6,361.5z"/>
			<path class="st5" d="M352.4,350c-1.4,2.1-4.3,0.2-5.7,2.2l-38.8,0.1c-0.7-0.8-0.6-2,0.2-2.7l0.2-0.1c5.6-2.1,11.4-0.4,17.1-1.2
				c6.8-0.1,13.5-0.1,20.2,0C347.9,348.3,350.5,348.1,352.4,350z"/>
			<path class="st5" d="M252,352.4l-5.6-0.1c0.4-3,2.9-2.5,4.7-2.6c3.7-0.3,7.5,0,11.2-0.2c5.4-0.1,10.8-0.1,16,1.8l-1.1,1.1
				L252,352.4z"/>
			<path class="st5" d="M402.5,352.3c-0.4-0.8-1.3-1.2-2.2-1.1c-0.2-0.8,0.1-1.7,0.9-1.8c4.7-0.7,9.1-2.9,14-2.8l1.1,1.1
				C412.2,351,407.8,353,402.5,352.3z"/>
			<path class="st5" d="M307.9,350.1v2.3h-5.7c-2.2-0.1-4.6,0.4-5.7-2.3C299.9,347.7,304.5,347.7,307.9,350.1z"/>
			<path class="st5" d="M339.8,301c-1.7,1.9-3.9,1.1-5.9,1.1c-18.9,0.1-37.8,0-56.7,0.1c-2,0-4.2-0.7-5.9,1.1
				c-2.1,2.2-4.9,1.5-7.5,1.6c-3.9,0.2-8-0.5-11.9,0.8c-5.4,0.5-10.8,0.9-16.1-0.2c-2.7-2.3-0.4-2.8,1.2-3.1c2-0.3,4.1,0.6,5.6,0.5
				c-3.2-0.4-3.2-0.4-3.5-4.6c0-0.5-0.8,0.1-1.1,0.1c-0.7,0.1-1.5-0.2-2-0.8c9-2.3,18.2-2.8,27.4-3.4c1.3,0.1,2.6-0.2,3.4,1.1
				c-0.8,2-2.5,2.3-4.3,2.6c-2.6,0-5.2,0.4-7.6,1.4c4.2,0.8,7.9,0.1,11.6,0.2c16.3,1.8,32.6,0.7,48.9,1.1
				C323.6,300.7,331.7,299.7,339.8,301z"/>
			<path class="st5" d="M339.8,301h-75.3c-0.6-0.4-1.3-0.7-2.1-0.6c-1.3,0-2.8,0.2-2.9-1.7s1.9-1.4,2.7-2.3c1.6,0.1,3.2-0.3,4.6-1.1
				c6.8-0.4,13.5-2.9,20.5-2.3c-5.9,2.5-12.5,1.6-18.5,5.3c4.6,0.5,9.2,1.5,13.9,1.5c19.4,0.2,38.7,0.1,58,0.1c2,0,4.2-0.7,5.9,1.1
				H339.8z"/>
			<path class="st5" d="M428.8,299.9c-2.3-3.2-0.6-6.8-1.1-10.3C430,292.8,428.3,296.5,428.8,299.9z"/>
			<path class="st5" d="M338.7,287.3c-3.2,2.3-6.8,0.6-10.3,1.1C331.6,286.1,335.3,287.8,338.7,287.3z"/>
			<path class="st5" d="M432.2,314.7c-1.7-2.3-2.5-5.1-2.3-8C431.7,309,432.5,311.8,432.2,314.7z"/>
			<path class="st5" d="M396.9,288.4c-3-0.5-6.3,1.1-9.1-1.1C390.8,287.8,394,286.1,396.9,288.4z"/>
			<path class="st5" d="M327.3,288.4c-2.8,2.3-6.1,0.6-9.1,1.1C321,287.3,324.3,288.9,327.3,288.4z"/>
			<path class="st5" d="M317,289.5c-2.8,2.3-6.1,0.6-9.1,1.1C310.7,288.4,314,290.1,317,289.5z"/>
			<path class="st5" d="M306.8,290.7c-2.4,2.2-5.3,0.7-8,1.1C301.2,289.7,304.1,291.2,306.8,290.7z"/>
			<path class="st5" d="M295.4,291.9c-2,2-4.6,0.8-6.9,1.1C290.5,290.9,293.1,292.2,295.4,291.9z"/>
			<path class="st5" d="M416.3,287.3c-1.6,1.9-3.8,0.9-5.7,1.1C412.1,286.6,414.3,287.6,416.3,287.3z"/>
			<path class="st5" d="M403.7,289.5c-1.9-0.2-4.1,0.7-5.7-1.1C399.9,288.7,402.1,287.7,403.7,289.5z"/>
			<path class="st5" d="M494.8,368.3c-8.2,1.2-17.4-1.3-26.4-5.3c-4.3-1.9-9-4.4-8.5-9.5c0.6-6.5,2-13.4,8-17.5
				c2.2-1.5,5.2-1.1,7.7,0c13,6.3,25.7,13,36,23.4c1.6,1.6,3.4,3.3,2.4,5.9s-3.4,3.2-6.1,3.2C504.1,368.3,500.3,368.3,494.8,368.3z"
				/>
			<path class="st5" d="M457.3,304.4h5.1c10,0.1,11.5,1.4,13.1,11.4c0,9.7-0.1,9.4-9.8,12.8c-5.3,1.8-6.9,7.2-9.2,11.8
				c-1.6,3.2-1,8.5-6.1,8.3s-4.4-5.6-5.3-8.9c-3.3-12.2-6.4-24.4-9.2-36.8c-1.7-7.3,5.2-16.7,12.5-17.8c3.3-0.5,4.4,1.3,4.5,4.3
				c0.1,3.2-0.5,6.4,0.6,9.6C454.2,301.4,455,303.4,457.3,304.4z"/>
			<path class="st5" d="M479,313.5v5.7c0.1,0.9-0.4,1.8-1.1,2.3c-0.6-3.8,1-7.8-1.1-11.4l-0.1-6.8h0.1c0.5-0.4,1.2-0.3,1.6,0.1l0,0
				l0,0C480.4,306.7,479.7,310.1,479,313.5z"/>
			<path class="st5" d="M526.2,392.3c-4.8,0-5.7-1.5-3.6-6.2c1.3-2.9,3.8-4.7,5.4-7.2c2.4-3.7,3.2-7.3-0.6-10.6
				c-2.7-2.3-3.6-5.1-2.3-8.1c1.1-2.8,4.3-2.8,6.8-3.1c2.1-0.3,4.2-0.2,6.2,0.1c7.6,1.2,5.9,1.1,5,8.4c-0.8,6.8-2.5,10.7-8.8,13.3
				c-2.8,1.1-1.7,4.7-1.7,7.3C532.7,390.3,530.8,392.4,526.2,392.3z"/>
			<path class="st5" d="M548.6,354.7h17c-5.8,3.6-11.3,7.8-18.1,9.2c1.3-2.5,4.7-5.3-0.8-7.1C546.2,356.7,546.4,356.3,548.6,354.7z"
				/>
			<path class="st5" d="M461.5,368.3c5.1,2,11.5,2.3,14.4,8.6c0.6,1.4,1.4,2.9,0.2,4.2s-2.8,0.7-4.2,0c-4.8-2.3-9.1-5.5-12.7-9.4
				c-0.8-0.8-2-1.6-1.1-2.9S460.1,368.4,461.5,368.3z"/>
			<path class="st5" d="M504.5,387.9c-5-0.3-9.9-1.4-14.5-3.3c-2.5-0.8-4-3.1-3.8-5.7c0.4-2.9,2.8-3.7,5.5-3.7h21
				c2.1,0,4.3,0,4.9,2.7c0.7,2.3-0.3,4.7-2.4,5.9C511.4,385.8,507.8,388.4,504.5,387.9z"/>
			<path class="st5" d="M407.4,282.7c-6,0.1-7-3-7.1-6.7c-0.2-6.6,3.4-11.6,8.2-11.4s10.8,4.6,11,8.2
				C419.8,277.3,412.4,282.8,407.4,282.7z"/>
			<path class="st5" d="M562.3,345.5h4.6c-1.4,2.7-1,6.5-4.6,7.9c-13.4,0-26.9-0.1-40.3,0.1c-5.5,0.1-10.8-0.2-15.5-3.5
				c1.6-2,3.7-0.9,5.7-1c2.7,0.3,5.5-0.8,8.2-0.1c2.2-0.1,4.4,0.1,6.5,0.6h6.6c2.6-1,5.5,0,8-1.4c2.7-0.2,5.1-1.6,7.8-1.8
				c1.7,0,3.4-0.2,5-0.7c1.1-0.3,2.2-0.4,3.3-0.4C559.2,345.1,560.7,346.8,562.3,345.5z"/>
			<path class="st5" d="M520,345.4l-1.1,2.2c-1.9,1.7-3.8,1.4-5.7,0c-7.1-1-14.1-2.3-19.4-8C502.1,343.7,510.6,346.9,520,345.4z"/>
			<path class="st5" d="M480.1,319.3c0-0.2,0-0.4,0.1-0.5c0.2-0.2,0.5-0.4,0.7-0.5c-1.6,10.7,4.4,16.9,12.9,21.6
				c-3.9-0.8-7.1-3.2-10.7-4.9c-2.1-1-3.3-3.2-3-5.5C480.2,326.1,480.1,322.6,480.1,319.3z"/>
			<path class="st5" d="M513.2,347.7h5.7c2.7,0.2,5.5-0.3,8,1.1c0.4,0.2,0.5,0.5,0.4,0.7s-0.2,0.4-0.4,0.4h-6.8
				c-2.1-1.4-4.8,0.4-6.9-1.1V347.7z"/>
			<path class="st5" d="M513.2,348.9c2.3,0.5,4.9-0.8,6.9,1.1c-2.7-0.3-5.6,1-8-1C512.5,348.9,512.8,348.9,513.2,348.9z"/>
			<path class="st5" d="M479,285c22.5,1.8,45.3,0.6,67.7,4.6c3.8,0.7,9.2,0,10.6,4.8c1.3,4.4-3.5,6.3-6.1,8.8
				c-5.7,5.4-11.4,11.1-20.8,8.1c-2.9-0.9-6.4-0.2-9.6-0.2c-4,0-7.4-1.1-10.1-4.2c-6.1-6.9-13.5-10.5-23.1-9.6
				c-6.8,0.6-13.7,0.1-20.5,0.1c-1.9,0-4,0.2-4.9-2s-0.2-4.3,1.5-6.2C468,284.7,473.5,285.2,479,285z"/>
			<path class="st5" d="M477.9,303.3h-1.1c5.4-2.5,11-0.6,16.6-1.1c2.1-0.1,4.1-0.1,6.2,0c0,0.4,0.1,0.8,0.1,1.2
				c-1.3,1.4-2.9,1-4.5,1.1c-1.3,0.1-2.6-0.2-3.6-1h-2.3c-1.1,0.7-2.4,1-3.7,1C482.9,304.2,480.2,305.5,477.9,303.3z"/>
			<path class="st5" d="M520,331.1c1.1,14.2-3.8,13.1-13.3,10.8c-6.8-1.6-12.5-5.6-18.1-9.2c-4.7-3-7.2-17.1-4.6-22.1
				c1.9-3.6,10.1-4.1,14.4-0.7c5.7,4.6,10.9,9.6,18.5,11.6C522.4,322.8,519.2,328.3,520,331.1z"/>
			<path class="st5" d="M495,303.4h4.6c2.4,2.9,4.6,5.8,7.8,7.9c1,1,3,1.2,2.4,3.4c-3.4,0.4-4.3-2.8-6.2-4.5
				c-2.6-2.2-4.9-4.8-8.7-4.6c-0.6-0.5-0.7-1.4-0.2-2l0,0C494.8,303.5,494.9,303.4,495,303.4z"/>
			<path class="st5" d="M477.9,303.3h8c0.6,0.5,0.7,1.4,0.2,2c-0.1,0.1-0.1,0.1-0.2,0.2c-5.9-0.5-4.6,5.2-6.8,8
				C478.7,310.1,478.3,306.7,477.9,303.3z"/>
			<path class="st5" d="M509.8,314.6l-2.4-3.4c3.9,2.1,7.7,4.6,12.5,3.5C516.5,316.7,513.2,316.1,509.8,314.6z"/>
			<path class="st5" d="M495,303.4v2.1c-1.6,0-3.3,0.1-3.4-2.2L495,303.4z"/>
			<path class="st5" d="M485.8,305.5v-2.1h3.4C488.7,304.8,487.3,305.6,485.8,305.5z"/>
			<path class="st5" d="M581.6,343.2c0-0.8,0-1.5,0.1-2.3c0.7-1,0.2-1.9-0.2-2.6c-5.2-9-9.7-18.5-15.8-27l0,0
				c-0.6-0.6-0.7-1.6-0.1-2.2l0,0l0.1-0.1c0-1.7,0-3.4,0-5.1c0.2-3.7,2.8-6,5.7-7.1c3.3-1.3,5.4,1.5,6.7,4
				c7,13.7,13.9,27.3,20.5,41.1c3,6.4,1,9.1-6.1,9.3h-3.4C579.4,351.1,578.9,350.6,581.6,343.2z"/>
			<path class="st5" d="M565.7,308.9v2.3c-1.4-0.5-2.3-1.9-2.3-3.4c0.3-1.9-0.8-4.1,1.1-5.8C564.9,304.4,563.6,307,565.7,308.9z"/>
			<path class="st5" d="M573.7,342.1c-4.4,1.4-9,2.2-13.7,2.3c-0.7,0.8-1.7,1.4-2.8,1.6c-1.6,0-3.3,0.2-4.9,0.6
				c-1.1,0.1-2.2,0.3-3.3,0.6c-1.7-0.3-3.5,1-5-0.6c-3.2-1.8-8.7-1-8-7.2c0.2-1.5,0.3-3.6,1.9-3.7c3.5-0.1,3.6-3.1,4.9-5.1
				c0.9,1.6-1.9,5.2,2.3,5c3.1-0.1,6.7-0.4,6.8-5c0-4.7,0.8-9.3,2.3-13.8c3.7-5.3,4.9-5.6,10.3-2.3c4.2,6.2,8,12.7,11.4,19.4
				C576.2,337.1,575.8,339.8,573.7,342.1z"/>
			<path class="st5" d="M541.7,348.9c-2.5,1.8-5.3,1-8,1.1c-0.4-0.2-0.5-0.5-0.4-0.7s0.3-0.4,0.4-0.4c2-1.9,4.6-0.8,6.8-1.1
				C541.8,347.2,541.9,347.8,541.7,348.9z"/>
			<path class="st5" d="M541.7,348.9l-1.1-1.1c0.8-1.3,2.2-1,3.4-1.1h5.7c0.2,0.2,0.4,0.5,0.3,0.8c-0.1,0.2-0.2,0.4-0.3,0.4
				C547,347.7,544.5,349.5,541.7,348.9z"/>
			<path class="st5" d="M533.7,348.9v1.1h-6.8v-1.1H533.7z"/>
			<path class="st5" d="M552,364.8v6.9c-2.5-0.3-4.8-1.9-4.9-4S550,365.3,552,364.8z"/>
			<path class="st5" d="M565.7,311.2c1.4,0.7,2.8,1.1,3.6,2.6c4.6,8.5,9.3,16.9,13.9,25.4c1,1.7,0.8,2.6-1.4,1.6
				C576.7,330.8,569.8,321.8,565.7,311.2z"/>
			<path class="st5" d="M564.5,314.7c-4-1.9-7.3-0.5-10.3,2.3c-0.5-3.7,1.2-5.5,4.7-6.4C563,309.5,563.2,312.6,564.5,314.7z"/>
			<path class="st5" d="M573.7,342.1c-0.2-2.9,1.4-5.3,2.2-8c0.4,0.6,0.9,1.2,1.3,1.9c0.9,1.6,2.8,3.1,1.7,5
				S575.5,341.8,573.7,342.1z"/>
			<path class="st5" d="M557.7,345.4c0.5-0.8,1.4-1.3,2.3-1.1c0.5,0.8,1.4,1.2,2.3,1.1c-1.3,1.5-3,1-4.6,1c-0.4-0.2-0.5-0.5-0.4-0.7
				C557.4,345.6,557.5,345.5,557.7,345.4z"/>
			<path class="st5" d="M563.4,361.4c3.7-3.1,7.7-4.9,12.2-1.8c2.6,1.8,3.6,4,0.8,6.4c-5.3,4.6-11.7,5.7-18.4,5.4
				c-1.8-0.2-3.2-1.5-3.5-3.3c-0.5-1.8,0.8-2.8,2-3.7c1.3-1.1,2.9-1.8,4.6-1.9c0.9,1.9-1.2,2.9-1.4,4.9c2.6,0.8,5.3,0.8,7.8-0.1
				c1.1-0.4,2.3-0.9,3.5-1.4c1.3-0.6,3.3-1.4,2.6-2.9c-1.2-2.4-3.8-1.3-5.9-1c-0.5,0.2-1,0.3-1.5,0.3
				C565.2,362.6,564.1,362.2,563.4,361.4z"/>
			<path class="st5" d="M568,368.3c-0.7,0.9-1.9,1.4-3,1.1c-2.5-0.3-5.9,1.3-7.3-1.1s2.8-3.4,3.4-5.7l2.3-1.1h3.4
				c0.5,2.7-2.7,2.6-3.3,4.7C564.4,367.8,567,366.5,568,368.3z"/>
			<path class="st5" d="M111.9,352.2c25.6,0.8,51.2,1.4,76.8,1.5c6.8,0,14,0.5,20.4,5.4c6.7,5,15.7,3.2,23.6,4.6
				c6.5,1.1,13.1,1.6,19.6,2.7c2,0.3,5,0.4,5.2,3.5c0.2,2.7-2.4,3.2-4.2,4c-11.8,5.1-23.6,8-36.8,4.6c-15-3.9-30.5-4.6-45.8-6.8
				c-18.9-2.7-37.6-5.4-56.6-7.7c-11.4-1.4-22.8-2.9-34.2-5c-2.8-0.5-7.5-0.4-7.2-3.7s4.8-1.5,7.4-1.9
				C90.6,351.9,101.3,352.4,111.9,352.2z"/>
			<path class="st5" d="M218.9,358.1c-0.5,0.7-1.4,1.2-2.3,1.1c-5.2,1.4-7.3-2.9-10.3-5.7c-1.7-1.4-4,0.2-5.7-1.1h-12.5
				c-0.4-0.5-0.4-1.2,0.1-1.6l0,0h0.1c1.3-1,2.9-1.6,4.5-1.6c6,1.8,12.4,0.6,18.6,2c3.4,0.8,7,0,10.6-1c6.8-2,13.8-1.5,20.7-0.3
				c0.4,3.2-2.1,1.9-3.3,1.9c-4.5,0-9,0-13.3,1.5c-3.9,1.1-7.7,3.6-12.2,2.3C215.3,356.9,217.8,356.4,218.9,358.1z"/>
			<path class="st5" d="M191.5,350.1c-0.9,1.3-2.2,1-3.4,1.1c-4.5,0.8-9.1,0.8-13.6,0l-1.1-0.1l-1.1-2.2
				C178.8,346.3,185.2,348.6,191.5,350.1z"/>
			<path class="st5" d="M174.5,351.3h13.6l0.1,1.1C183.6,351.8,178.9,353.5,174.5,351.3z"/>
			<path class="st5" d="M200.7,352.4c1.9,0.2,4.1-0.7,5.7,1.1C204.5,353.2,202.3,354.2,200.7,352.4z"/>
			<path class="st5" d="M358,393.3c-30.5,0.6-60.7-2.7-90.8-8c-1.3-0.2-2.6-0.6-3.8-1c-1.5-0.4-3.2-0.7-2.9-2.8
				c0.2-1.5,1.7-1.8,3.1-2c12.5-1.8,25-3.3,37.8-1.4c10.1,1.5,20.3,1.5,30.5,2.6c18.3,1.9,36.6,2.7,55,2.3c3.4,0,6.5,1.5,6.2,5.1
				c-0.2,3.8-3.8,5-7.2,5.1C376.6,393.5,367.3,393.3,358,393.3z"/>
			<path class="st5" d="M218.9,358.1c-0.9,0-1.9,0-2.8-0.1c-2.4-0.4-5.9-0.5-5.4-3.4c0.4-2.3,3.5-0.9,5.4-0.3c3.4,1.1,5.6-1.8,8.6-2
				c2.2-0.8,4.6-0.7,6.8,0.1c-3.8,2.3-3.7,4.6,0,6.9C227.3,359.4,223,359,218.9,358.1z"/>
			<path class="st5" d="M408.7,391.1c-4.8-0.1-7.4-3.5-7.2-9.4c0.1-3.4,1.5-6.1,5.1-6.3c4.8-0.3,11.9,5.6,11.6,9.2
				S413.4,391.2,408.7,391.1z"/>
			<path class="st5" d="M250.9,313.5c-6.8,1.8-8.8,8.8-13.7,12.6c-0.3-0.3-0.4-0.5-0.3-0.8s0.2-0.4,0.3-0.4c1.3-3.9,4-6.7,6.7-9.6
				c1.3-1.4,2.9-2.7,2.2-4.9s-3-2-4.8-2.5c-2-0.5-4.1,0-6.1,0.6c-3.6,0.9-7.1,0.3-10.6-0.8v-1.1c4.2-3.1,9-0.6,13.4-1.5
				c4-0.5,8-0.1,11.9-0.2h1.6C252.7,308,252,310.8,250.9,313.5z"/>
			<path class="st5" d="M238.4,305.6c-4.4,2.3-9.1,0.5-13.7,1.1v-1.1l1.1-1.1c0.7-0.7,1.6-1,2.6-0.9
				C231.8,303.9,235.1,304.6,238.4,305.6z"/>
			<path class="st5" d="M225.8,346.6c-16.7,3-33.2-0.7-49.7-2.2c-2.1-0.2-4.1-0.1-6.2-0.1c-3.7-1.6-7.7,0.4-11.4-1.1l0,0
				c-5.5-2.1-11.4-1.4-17.2-2.2c-11.6-1.5-23.3-2-34.8-3.6c-6.2-0.9-11.8-3.9-17.4-6.7c-3.5-1.8-3.1-4.2,0.2-5.7
				c7.9-3.6,16-7.1,24.7-7.9c19.4-1.5,38.7-3.6,58-5.5c12.6-1.3,25.2-2.4,37.8-3.4c9.6-0.8,18.9,3.3,28.7,2.3
				c3.3-0.3,3.9,2.5,2.6,5.3c-0.5,0.8-1.1,1.5-1.8,2.1c-7,8.2-6.8,12,0.8,19.9c1.9,1.9,5.8,3.6,4.6,6.5s-5.1,0.9-7.8,1.4
				C233.2,346.1,229.3,344.4,225.8,346.6z"/>
			<path class="st5" d="M237.2,324.9v1.1c0.9,6.1,6.2,8.7,10.1,12.3c2,1.9,4.7,3.1,7,4.7c0.6,4.1-1.1,6.6-5.2,7.4
				c-2.1-0.3-4.3,1.4-6.3-0.5c-8,0.6-15.8-0.6-23.9,1.9c-7.2,2.2-15.2-0.7-22.9-1.4c-1.5-0.1-3-0.3-4.5-0.4l-19.4-1.2l-1.1-1.1
				c1.7-1.4,4,0.3,5.7-1.1c11.4,1.1,22.8,2.1,34.2,3.2c2.1,0.2,4.4,0.7,6.2,0c8.8-3,17.9-1.8,27-2.1c2,0,4.5,0.5,5.3-2.1
				s-1.2-3.5-3-4.7c-3.3-2.3-6.1-5.1-8.5-8.3C236.1,330.5,234.8,327.7,237.2,324.9z"/>
			<path class="st5" d="M158.5,343.2c3.8,0.5,7.8-1.1,11.4,1.1h-11.4C158.5,344,158.5,343.6,158.5,343.2z"/>
			<path class="st5" d="M176.7,346.6c-1.6,1.9-3.8,0.8-5.7,1.1h-5.6c2.4-2.1,5.3-0.7,8-1.1H176.7z"/>
			<path class="st5" d="M118.3,298.3c8.6-2.6,16.7-2.8,24.7-4c12.3-2,24.6-3.5,37-5.1c16.6-2.1,33.3-4.2,49.8-7.4
				c3.5-0.7,7,1.2,10.5,2.2c1.1,0.3,2.3,0.8,2.2,2.2s-1.5,1.8-2.5,2c-4.1,0.7-8.2,0.8-12.4,1.4c-8.4,1.2-16.7,1.4-24.5,6
				c-3.6,2.1-8.9,2-13.4,2c-10.9,0-21.7,2.3-32.7,1.4c-10.7-0.8-21.5,1.8-32.3,0.9C122.9,299.7,121,300.5,118.3,298.3z"/>
			<path class="st5" d="M228.1,304.5h-2.4c-4.3-3.7-9.9-2.4-14.8-3.4c8.2-2.3,16.6-3,25.1-3.4h4c-1.9,6.8,4.6,3.2,6.3,5.2
				c-3.7,1.5-8-1-11.4,1.5C232.8,305.4,230.3,305.4,228.1,304.5z"/>
			<path class="st5" d="M354,265.7h31c2.6,0,6-0.2,6,3.5c0,4-3.5,3.4-6,3.2c-21.5-1-42.8,1.6-64,3.7c-14.2,1.4-28.3,1.9-42.5,2.3
				c-3.5,0.1-7.1-1-10.6-1.7c-0.7-0.2-1.2-0.8-1.4-1.5c0-1.1,1-1.5,2-1.7c5.5-1.1,11-2.7,16.6-3.3
				C309.2,267.9,333.3,264.3,354,265.7z"/>
			<path class="st5" d="M279.8,359.4c1.3-2,3-1.3,4.4-1.3c38.3-0.4,76.6-0.9,115-1.1c6.8,0,13.5-1.6,19.6-4.6c6-3,8.7-7.5,8.9-13.9
				c0.1-4.8-0.1-9.5,0.1-14.2c0.1-1.9-1.3-5,1.4-5.3c2.4-0.3,2.4,3.1,2.9,4.9c2.5,8.9,5,17.9,6.9,26.9c1.1,5.5,6.2,8.9,6.5,14.9
				c0.2,5-1.5,8.1-6.4,8.4c-6.3,0.4-12.5-0.1-18.2-3c-8.5-4.5-17.2-6.1-26.9-3.9c-11.6,2.6-23.4,0.9-35.1,1.2
				c-21.4,0.7-42.5-2.9-63.7-5.5C289.8,362.2,284.6,362.1,279.8,359.4z"/>
			<path class="st5" d="M414,302.1c-5.7-4-12.4-3.1-18.6-3.2c-32.3-0.4-64.6-0.2-97-0.2c-3.8,0-7.6-0.7-11.1-2
				c4.3-3.2,9-2.9,13.2-3.5c30.9-4.7,62-4,93.1-3.4c5.6,0.1,11.3,0.9,17,0.9c-1.3,4.2-4.9,4-7.9,3.5c-22.7-3.8-45.5-1.4-68.2-1.6
				c-7.3-0.1-14.7,1.6-21.9,3c27.6,0.7,55.1,0.4,82.7,0.4c8,0,16,0.4,23.2,4.3c1.4,0.8,3.1,2.3,4.6,0.7c1.2-1.3,0.7-3.3,0.5-4.9
				c-0.2-2.2-1.6-3.3-3.8-3.6c-3.1-0.5-6.5,0.8-9.3-1.7c3.9-2.4,8.1-1,12.1-0.9c2.5,0.1,3.8,2.3,3.8,4.9c-0.1,1.7,0,3.4,0.2,5.1
				c1.1,7,0.8,7.4-5.9,5.7C418.2,305.4,415.7,304.2,414,302.1z"/>
			<path class="st5" d="M414,302.1l6.8,3.4v1.1c-3.4-0.8-6.5-2.4-9.1-4.6L414,302.1z"/>
			<path class="st5" d="M410.6,302.1c-2.7-0.4-5.6,1-8-1.1C405.2,301.4,408.1,300,410.6,302.1z"/>
			<path class="st5" d="M356.9,303.3c3.1,2.1,6.6,0.9,10,1c8.4,0.2,16.9,0.1,26,0.1c-2.3,2-4.9,0.3-6.3,2.3c-4,3.2-8.8,2-13.1,1.6
				c-16.2-1.5-32.4-0.5-48.6-0.9c-2.1-0.4-4.4,0-5.8-2.1c-0.3-0.7-0.2-1.4,0.3-2H356.9z"/>
			<path class="st5" d="M250.9,313.5c0.1-2.7-1.4-5.6,1.1-7.9c4.2-2.4,8.8-0.7,13.3-1.2c4.3-0.2,8.7,0.4,13-0.4
				c2.6,0,5.3-0.6,7.9,0.4h2.4c2.6-1,5.2-0.5,7.8-0.2c0.4,0.5,0.4,1.3-0.1,1.8c-3.1,1.9-6.5,0.9-9.8,1.1c-3.6-0.4-7.1,0.6-10.6,1.5
				c-4.5,1.1-9.1,1.6-13.8,1.6C258.2,310.4,254.6,312.2,250.9,313.5z"/>
			<path class="st5" d="M265.6,305.5l-13.6,0.1v-0.2c-0.4-0.2-0.6-0.5-0.4-0.7s0.3-0.4,0.4-0.4c6.4-2.3,12.9-0.5,19.4-1.1
				c4.9,0.7,10-1.3,14.8,1.1l-7.9,0.1C274.1,305.8,269.7,304.1,265.6,305.5z"/>
			<path class="st5" d="M296.5,304.5l-7.9-0.1c3.8-2.4,8.1-0.9,12.1-1c6.2-0.3,12.4,0,18.7,0v1.1c-2.8,2.4-6.1,1.3-9.2,1.6
				C305.5,305.5,300.7,307.3,296.5,304.5z"/>
			<path class="st5" d="M323.9,305.6c20.9-0.1,41.8,0,62.7,1.1l10.3,0.1c4.4,4.7,7.1,10,5.6,16.7s0.2,13.6-1.5,20.3
				c-1,3.8-2.1,5.8-6.5,4.8c-2.9-0.7-6-0.7-8.9,0.3c-11,0.4-22.1-0.8-33.1,1.1l-27.4-0.1c-11.8-1.1-23.7-0.2-35.5-0.6
				c-2.6-0.1-5.3,0.6-7.8-0.5c-9.4-2-18.9-3.7-27.6-8.1c-2.4-1.2-4.6-2.6-6.8-4.1c-9.7-7.5-8.6-15.4,2.9-20.5
				c4.6-2.1,8.9-5,14.3-4.9c6.7-3.2,14-3.9,21.3-4.6c3.7-0.3,7.5,0.6,11.2-0.7c7.3-0.7,14.6-0.7,22-0.1
				C320.6,306,322.3,306.5,323.9,305.6z"/>
			<path class="st5" d="M415.1,346.6c-4.3,3.6-10,2.8-14.8,4.6H398c1.6-5.4,3.5-10.7,3.4-16.5c0.1-4.6-0.4-9.1,0.6-13.5
				c1.2-5.6-3.5-9.4-4.1-14.4c6.8-2.7,17-0.7,21.7,4.1c1.2,1.2,1.2,2.7,1.2,4.2c0,8.4-0.3,16.7,0.1,25
				C421.1,344.6,417.7,345.1,415.1,346.6z"/>
			<path class="st5" d="M397.9,306.8c6.5,8.7,4.4,18.7,4.6,28.4c-3.4-1-1.3-3.7-1.5-5.5c-0.3-2.3-0.6-4.8,0.4-7
				c1.3-6.1-3.3-10.6-4.6-16C397.2,306.7,397.6,306.7,397.9,306.8z"/>
			<path class="st5" d="M249.8,350c3-1.3,3-4.6,4.6-6.8c7.6,3.5,16.1,4.4,24,7.1c0.1,0,0.2,0.3,0.2,0.5c-0.1,0.2-0.1,0.3-0.3,0.5
				l-16-0.1C258.2,349.7,253.8,351.6,249.8,350z"/>
			<path class="st5" d="M296.5,306.7c-1.5,1.7-3.5,1.2-5.3,1.1c-9.1-0.6-17.9,1.5-26.7,3.4c-0.5-0.8-1.4-1.2-2.3-1.1
				c7.9-2,15.9-4,24.1-4.5C289.6,307,293.2,305.2,296.5,306.7z"/>
			<path class="st5" d="M281.6,348.9h38c1.8,0,3.8-0.6,5.4,1.1l-17.1,0.1h-11.4C291.6,349.4,286.4,351.4,281.6,348.9z"/>
			<path class="st5" d="M401.4,322.6c0.6,4.1-1.2,8.5,1.1,12.5c-0.6,5.6-1.4,11.1-4.5,16h-20.4v-0.9h15.5c0-0.5,0-0.9,0.1-1.4h-7.8
				c3.1-2.3,6.6-0.8,9.9-1c2.5-0.1,3.4-0.9,3.9-3.5c0.8-5.2,1.2-10.5,1.1-15.8C400.4,326.6,399.6,324.4,401.4,322.6z"/>
			<path class="st5" d="M249.8,350c4.2,0.6,8.5-1.1,12.5,1.1c-5.3,0.6-10.8-1.1-16,1.1h-14.8l-6.9-0.1c3.6-2.1,7.6-0.5,11.3-1
				c2.3-0.3,4.8,0.9,6.9-1.1H249.8z"/>
			<path class="st5" d="M262.3,296.4c-4.9,4.4,2.1,2.7,2.3,4.6h-10.7c-0.9,0-2.1,0.2-2.3-1c-0.3-1.4,0.8-2,1.9-2.2
				C256.4,297.2,259.2,296,262.3,296.4z"/>
			<path class="st5" d="M252,304.4v1.1l-13.7,0.1c-3.4-0.5-7,1.1-10.3-1.1l6.7-0.2L252,304.4z"/>
			<path class="st5" d="M494.8,366c-8.1,1-16.8-1.8-25.5-5.2c-5.3-2.1-7-5.4-6.2-10.5c0.4-2.4,1.1-4.8,2.2-7
				c2.9-6.5,5.1-7.2,11.4-4.1c11,5.4,22,11,30.9,19.6c1.5,1.4,3.7,2.6,3,5.1c-1,2.9-3.7,2.1-5.8,2.1
				C501.9,366.1,499.1,366,494.8,366z"/>
			<path class="st5" d="M473.2,319.2c0.2,2.8-0.9,5.2-3.7,5.6c-7.8,1.1-11.6,6.4-14.6,12.9c-0.4,1-1,2.1-1.5,3
				c-0.8,1.4-1.1,3.6-3.4,3.2c-1.8-0.3-1.9-2.3-2.3-3.6c-2.6-9.9-5.1-19.8-7.6-29.7c-0.6-2.4-1.1-4.8-1.7-7.2
				c-1.2-5.1,2-11.5,6.8-13.4c2.5-1,4.6-0.3,5,2.8c0.2,1.3,0,2.7,0.1,4c0.5,7.4,4.4,11.2,11.7,11
				C472.3,307.5,471.5,308.5,473.2,319.2z"/>
			<path class="st5" d="M541.5,363.8c-1.1,2.1-0.9,4.4-1,6.7c0,2.4-1.8,4.4-4.2,4.6c-2.5,0.4-4.4-0.4-5-3.3
				c-0.6-2.2-1.9-4.2-3.7-5.7c-0.8-0.8-1.8-2-1.6-2.8c1.4-6.1,6.5-3.7,10.3-4.1C539.5,358.9,542.1,359.6,541.5,363.8z"/>
			<path class="st5" d="M531.4,385.5c-0.3,2.6-2.2,4.8-4.8,5.4c-1.2,0.4-2.5-0.3-2.9-1.5l0,0c-0.1-0.4-0.1-0.7-0.1-1.1
				c0.3-2.7,1.6-5.2,4.4-6C530.2,381.7,531.2,383.3,531.4,385.5z"/>
			<path class="st5" d="M502.2,376.4c3,0,6.1-0.1,9.1,0c1.6,0.1,2.9,1.1,3.5,2.5c0.9,1.8-0.8,2.8-1.8,3.7c-5.1,4.9-19.2,4.4-23.5-1
				c-2.8-3.6,0.4-4.8,3-5.1C495.8,376.2,499,376.1,502.2,376.4L502.2,376.4z"/>
			<path class="st5" d="M402.6,273.8c0.5-3,1.3-6.7,6.4-6.9c3.6-0.1,8.3,3.7,8.3,6.5c-0.1,3.3-5.6,7.1-10.4,7.1
				C403.4,280.4,402.4,279.2,402.6,273.8z"/>
			<path class="st5" d="M549.7,347.7v-1.1c0.5-0.8,1.4-1.2,2.3-1.1c0.6,0.8,1.8,0.3,2.3,1.1C553.1,348.2,551.3,347.6,549.7,347.7z"
				/>
			<path class="st5" d="M554.3,346.7c-0.9,0.1-1.8-0.4-2.3-1.1l5.7-0.1v1.1L554.3,346.7z"/>
			<path class="st5" d="M490.8,289.6c19.3,0.2,38.5,0.8,57.6,4.3c1.6,0.3,3.8,0,4.2,2.2s-1.5,2.8-3,3.7c-0.3,0.2-0.8,0.3-1,0.6
				c-8.2,11-19.4,7.4-30.1,6.4c-3.7-0.3-6.4-2.4-8.6-5.1c-4.9-6-11.1-8-18.6-7.7c-7,0.3-14.1,0.1-21.1,0c-1.4,0-3.4,0.5-3.5-1.8
				s1.8-2.7,3.6-2.7C477.2,289.5,484,289.6,490.8,289.6z"/>
			<path class="st5" d="M590.1,348.9c-3.8,0.2-7.4,0-5.2-6.1c0.9-2.6-0.2-5.2-1.5-7.6c-4.4-7.7-8.7-15.5-13.1-23.3
				c-0.9-1.6-2-3.2-2.7-5c-1.5-3.5,0.5-6,3.1-7.6c3-1.7,5.1,0.3,6.4,2.9c6.7,13.6,13.4,27.3,19.9,41
				C598.9,347.5,597.1,348.9,590.1,348.9z"/>
			<path class="st5" d="M544.5,343.3c-1.2,0-2.4-0.1-3.6-0.2c-1.1-0.2-2.3-0.8-2.1-2.3c0.1-1.2,1.1-2.1,2.3-2c1.3-0.1,2.7-0.1,4-0.1
				c5.1-0.1,8.3-3,9.1-8.1c0.5-3.7,1.2-7.4,2.2-11.1c1.2-4.2,4.6-5.1,7-1.7c3.3,4.6,6.2,9.5,8.7,14.6c2,4.3-0.1,7.7-4.6,8.4
				C559.7,341.8,552,342.5,544.5,343.3z"/>
			<path class="st5" d="M568,368.3c-2.5-0.5-6.5,1.4-7.1-1.1c-0.8-3.4,4.3-3.3,6-5.7c0.6-0.5,1.4-0.7,2.2-0.5
				c1.8,0.2,4.1-0.9,5.1,1.3c1.1,2.5-1,3.7-2.7,5L568,368.3z"/>
			<path class="st5" d="M571.4,367.1c0.5-1.6,3.2-2.8,1.7-4.8s-4.2-0.6-6.3-0.9c0.7-0.9,1.9-1.3,3-1.1c2.1,0.1,5-0.8,5.7,2.1
				S574,366.7,571.4,367.1z"/>
			<path class="st5" d="M92.4,356.2c15-1.9,30.2-2.2,45.2-0.9c8.1,0.7,16.3,0.3,24.5,0.4c12.1,0.2,24.3-0.6,36.4,1.1
				c1.7,0.2,3.6,0.3,4.8,1.5c7.7,7,17.6,5.9,26.8,7.6c5.2,1,10.5,1.3,15.7,2.1c1.7,0.3,4.4-0.2,4.6,2.4s-2.7,2.7-4.5,3.6
				c-9.6,4.7-19.5,4.3-29.8,2c-15.1-3.4-30.6-4.6-45.9-6.6c-11.4-1.5-22.8-2.9-34.2-4.6c-12.7-2-25.5-2.9-38.1-5.6
				C96,358.8,94.1,358.9,92.4,356.2z"/>
			<path class="st5" d="M388,388.8c-36.3-0.2-72.7,1.9-108.9-5.3c2.7-2.7,9-3.3,15.8-2.6c12,1.3,24.1,1.9,36,3.4
				c18.5,2.4,37,2.2,55.6,2.3c0.5,0.1,1,0.3,1.5,0.6C388.1,387.7,388,388.3,388,388.8z"/>
			<path class="st5" d="M409.5,388.8c-4.4,0.1-5.5-2.8-5.7-6.2c-0.2-2.9,1.4-4.3,4.2-4c3.5,0.5,7,1.6,7,5.9
				C414.9,387.6,412.4,388.9,409.5,388.8z"/>
			<path class="st5" d="M104.9,334.1c-2.8-0.2-5-2.7-8-2.3c-3.7-4.9-3.7-4.9,2.2-7.9c6.6-4,14.2-3.8,21.5-4.5
				c19.3-2,38.6-3.7,58-5.6c11.6-1.1,23.2-2.8,34.9-3c7.2-0.1,14,3.2,21.2,3.1c1.8,0,2.4,1.7,1.4,3.4c-0.9,1.5-2,2.8-2.8,4.3
				c-3.3,5.5-2.2,10.4,2,15c1.2,1.3,3.2,2.6,2.3,4.8c-1,2.4-3.6,1.8-5.6,1.7c-8.3-0.6-16.4,2.4-24.8,1.3
				c-14.4-1.9-28.9-2.9-43.3-4.2c-11.4-1.1-22.8-2.7-34.4-2.9c-0.6-0.2-1.2-0.4-1.8-0.5c-3.7-0.9-7.4-0.1-11.1-0.5
				c-0.6-0.1-1.2-0.3-1.8-0.6C111.6,334.5,107.9,336.1,104.9,334.1z"/>
			<path class="st5" d="M232.6,321.5c-0.6-2.7,4.3-3.9,2.4-6.2c-1-1.2-4.4-0.2-6.5-0.8c-14-4.5-27.9-1.5-41.9,0
				c-13.7,1.5-27.4,2.4-41.2,3.6c-12.5,1.1-25.2,2.2-37.7,3.6c-3.3,0.4-6.4,2.1-9.7,3.2c-0.8,0.6-1.9,0.8-2.9,0.5l-0.6-0.5
				c8-5.3,17.4-5.8,26.5-6.8c15.3-1.6,30.7-3.1,46.1-4.5c14.6-1.3,29.3-2.2,43.9-3.6c8.4-0.8,16.2,3.4,24.7,2.5
				c3.1-0.3,3,2.3,1.8,4.4c-1.4,2.4-3.3,4.6-4.9,6.8c-0.6-0.6-0.7-1.6-0.1-2.2l0,0H232.6z"/>
			<path class="st5" d="M232.6,321.5v2.3c-0.7,5.7,0.8,10.5,5.4,14.1c1.4,1.1,3.2,2.5,2.1,4.8s-3.2,1.5-5.1,1.7
				c-24.2,2.3-48.1-0.5-72.1-3.3c-10.1-1.2-20.3-1.7-30.4-2.4c-1.7,0-3.4-0.4-4.9-1.1c-0.3-0.2-0.4-0.5-0.3-0.8
				c0.1-0.2,0.2-0.4,0.3-0.4c16.6,0.4,32.9,2.8,49.4,4.3c18.8,1.7,37.7,4.1,56.6,1.4c1.1-0.2,2.7,0.2,2.8-1.1
				c0.1-0.9-0.9-1.9-1.6-2.8C230.9,333,227.5,327.9,232.6,321.5z"/>
			<path class="st5" d="M127.7,336.3v1.1c-7.3,0.1-14.6,0-21.7-2.3c3-0.9,6.1-0.9,9.1,0h1.1C119.9,336.8,124,334.8,127.7,336.3z"/>
			<path class="st5" d="M94.6,330.7c-2.2,0-4.6-0.2-4.3-3.1c0.2-2.5,2.4-2.6,4.3-2.6l0,0C94,326.8,94,328.8,94.6,330.7z"/>
			<path class="st5" d="M94.6,330.7c-1.8-1.9-1.9-3.8,0-5.7H98c-4,1.7-1.8,4.4-1.1,6.8C95.9,331.9,95.1,331.5,94.6,330.7z"/>
			<path class="st5" d="M115.1,335.2H106l-1.1-1.1C108.3,334.6,111.9,332.9,115.1,335.2z"/>
			<path class="st5" d="M313.5,360.6c0.9-0.2,1.7-0.2,2.6-0.3c28.8,0.1,57.6-2.1,86.4-1.1c8.7,0.3,15.6-3.7,22.4-8.2
				c3.5-2.4,5-6,5.1-10.3v-8.8c3.8,3.4,3.4,7.4,4.4,10.8c1.8,6.3,3,12.7,6.9,18.4c4.1,5.9,1.1,10.2-5.9,10.7
				c-5.8,0.5-11-1.5-15.8-3.9c-9.1-4.6-18.1-5.1-27.9-3.2c-14.2,2.8-28.7,1.1-43.1,1.1c-11.8,0-23.5-2.2-35.1-3.8
				C313.5,361.6,313.5,361.1,313.5,360.6z"/>
			<path class="st5" d="M410.6,290.7h5.7c8.5,0,10.3,2.1,9.1,10.7c-0.3,2.6-1.4,3.7-3.7,2.3c-12-7.7-25.5-6-38.7-6
				c-21.9-0.1-43.7,0-65.6,0c-3.9,0.1-7.7-0.7-11.2-2.3c10-2.6,20.2-4.1,30.5-4.4c17.3-0.5,34.6-0.2,51.9,0
				c4.2,0.1,8.3,0.6,12.3,1.6C404.2,293.5,407.8,292.8,410.6,290.7z"/>
			<path class="st5" d="M296.5,306.7c-3.4-0.5-7,1.1-10.3-1.1l10.2-0.1c4.5-1.4,9.2,0.5,13.7-1.1h9.1c1.2,1.6,3,0.9,4.6,1.1
				c-5.8,2.4-11.9,0.6-17.8,1.1C302.9,306.9,299.7,306.7,296.5,306.7z"/>
			<path class="st5" d="M310.1,304.4c-4.4,2.3-9.1,0.7-13.7,1.1v-1L310.1,304.4z"/>
			<path class="st5" d="M265.6,305.5c4-2.3,8.4-0.6,12.6-1C274.1,306.7,269.8,305.1,265.6,305.5z"/>
			<path class="st5" d="M332.7,345.5h-43c-11.2,0-21.6-3.4-31.9-7.4c-3.2-1.3-6-3.3-8.3-5.9c-4.8-5-4.2-8.5,1.8-12.1
				c8.2-4.8,17.4-6.5,26.5-7.6c16.6-1.8,33.2-2.6,49.9-2.4h54.8c11.2,0,14.4,3.2,14.4,14.6c0,3.8,0.2,7.6-0.1,11.4
				c-0.5,6-2.8,7.8-8.7,8.2C368.2,345.9,348.3,345.4,332.7,345.5z"/>
			<path class="st5" d="M417.3,328.9c-0.8,3.7,2.1,9.1-2.8,13.3c-2.1,1.8-4.3,2.7-6.7,1.9c-2.8-0.8-1.7-3.5-1.7-5.4
				c-0.2-7.1,0.9-14.2,0.1-21.4c-0.3-2.5-1.5-6.8,2.7-6.8c4,0,7.9,2.3,8.4,7C417.6,320.9,417.3,324.4,417.3,328.9z"/>
			<path class="st5" d="M494.3,363.7c-8.5,1.1-16.8-3-25.4-5.8c-2.7-0.9-3.8-3-3.6-5.8c0.4-3.4,1.3-6.7,2.9-9.7
				c0.7-2.1,3-3.2,5.1-2.5l0,0c0.4,0.1,0.8,0.3,1.1,0.6c9.8,6,20.6,10.4,29.4,18c1.2,1.1,3.4,2,2.7,3.9s-2.9,1.2-4.6,1.3
				C499.7,363.8,497.4,363.7,494.3,363.7z"/>
			<path class="st5" d="M533.2,360.3c2.8,0.1,6.3,0.4,5.5,4.2c-0.5,2.6,1.3,6.4-2.6,7.9c-1,0.4-7.9-7.4-7.9-8.9
				C528.3,360.1,530.9,360.4,533.2,360.3z"/>
			<path class="st5" d="M501.9,378.6h7.4c1.1,0,2.4,0.2,2.5,1.7c0.1,1.2-0.7,2.3-1.8,2.6c-5.6,2.4-11.1,1.7-16.4-1
				c-0.8-0.4-1.7-1-1.5-2.1s1.4-1.1,2.3-1.1C496.9,378.5,499.4,378.6,501.9,378.6z"/>
			<path class="st5" d="M408.5,278.1c-3.1-0.2-3.8-1.9-3.6-4.3c0.2-3.2,2.1-4.8,5.2-4.7c2.6,0,4.9,1.4,4.7,3.9
				C414.6,276.6,411.2,277.4,408.5,278.1z"/>
			<path class="st5" d="M572.3,301.3c1.6,0.3,2.9,1.4,3.4,2.9c6.2,12.7,12.4,25.4,18.6,38.2c0.9,1.9,0.9,3.5-1.3,4
				c-2,0.4-5.3,1.5-5.5-1.9c-0.7-12.9-10.1-21.7-14.9-32.5c-0.8-1.9-2.1-3.6-3-5.5C568.4,303.7,570.2,302.4,572.3,301.3z"/>
			<path class="st5" d="M559,339.7c-4.4,0.5-5.4-1.1-4-5.3c1.1-3.6,2-7.3,2.5-11c0.3-1.7,0.4-3.5,2.5-3.9c1.8-0.3,2.6,1,3.4,2.4
				c2,3.4,4.4,6.7,6,10.3c1.4,3.1,1.2,6.2-3.4,6.5C563.8,338.8,561.6,340.3,559,339.7z"/>
			<path class="st5" d="M240.1,370.5c-5.7,6-12.2,4.5-18.4,3.3c-23.5-4.6-47.3-7.1-71-10.2c-7.8-1-15.5-2.4-24.1-3.8
				c3.7-2.9,7.3-2.2,10.4-1.7c12.9,2,25.8,0.5,38.6,1c7.4,0.3,14.7-0.5,22.1,1c3.1,0.6,5.7,1,8,3.4c2.6,2.6,6.3,3.3,9.9,3.7
				C223.8,368.3,231.9,369.4,240.1,370.5z"/>
			<path class="st5" d="M413.6,384.2c-0.5,1.9-2.2,3.2-4.2,3c-2.1,0-3.2-1.8-3.4-3.9s1.1-2.5,2.9-2.5
				C411.1,380.8,413,382.2,413.6,384.2z"/>
			<path class="st5" d="M127.7,336.3c-3.8-0.5-7.8,1.1-11.4-1.1C120.1,335.7,124.1,334,127.7,336.3z"/>
			<path class="st5" d="M433.2,369.4c-7.2,0.7-12.9-3.5-19.2-5.8c-2.8-1-2.7-3,0-4.4c3.3-1.8,6.7-3.4,10.1-5.1
				c2.6-1.3,4.9-2.8,5.8-5.8c0.4-1.1,0.8-2.3,2.1-2.3s1.8,1.3,2.1,2.4c1.3,5.3,2.9,10.3,6.6,14.7c2.6,3.1,0.4,6.2-4,6.4
				C435.5,369.5,434.4,369.4,433.2,369.4z"/>
			<path class="st5" d="M327.2,295.1c3.9-2.1,8.2-3.3,12.6-3.3h45.6c2.6,0.1,5.3,0.5,7.8,1.1c6.8,1.6,14,1.4,20.7-0.7
				c6.7-2,9.2,0,9.1,5.1c0,3.6-1.9,4.6-4.7,3c-7.1-4.1-14.8-3.9-22.7-3.9c-12.2,0.1-24.3,0.2-36.5,0
				C348.6,296.2,337.9,295.6,327.2,295.1z"/>
			<path class="st5" d="M339.5,314.6c18.1,0,32.5,0.1,46.9,0c3.6,0,5.4,0.9,6.2,4.8c0.9,4.5,1.1,9,0.5,13.5c-1,7.3-2.1,8-9.6,8
				c-30.3,0-60.6,2.4-90.9,1c-13.5-0.6-27.1-2.8-38.7-10.9c-4.3-3-3.9-5.8,0.8-8.3c8.7-4.6,18.4-5.8,27.8-6.8
				C302.6,313.9,322.9,314.8,339.5,314.6z"/>
			<path class="st5" d="M409.4,327.5v-9.6c0-1.3-0.1-2.9,1.8-2.9c1.3-0.1,2.4,0.9,2.5,2.2l0,0c0,0.1,0,0.2,0,0.3
				c0.1,6.6,0.1,13.2-0.1,19.8c0,1.5-1.4,3.1-2.9,3c-2.1-0.2-1.3-2.4-1.4-3.7C409.3,333.6,409.4,330.5,409.4,327.5z"/>
			<path class="st5" d="M567.8,333.6c-1.1,3.4-4.1,3.4-6.5,3.7c-2.6,0.4-4.3-1.7-3.3-3.8c1.3-3-0.8-8.8,3.7-8.8
				C565.4,324.8,565.6,330.6,567.8,333.6z"/>
			<path class="st5" d="M411,295.1c3.2-0.8,5.1-1.3,7-1.8c1.4-0.5,3,0.1,3.5,1.5l0,0c0,0.1,0.1,0.2,0.1,0.4c0.4,1.2,0.7,2.8-0.3,3.8
				c-1.2,1.2-2.4-0.2-3.5-0.6C416,297.5,414.1,296.6,411,295.1z"/>
		</g>
	</g>
</g>
</svg>
