<?xml version="1.0" encoding="utf-8"?>
<!-- Generator: Adobe Illustrator 23.0.4, SVG Export Plug-In . SVG Version: 6.00 Build 0)  -->
<svg version="1.1" id="Layer_1" xmlns="http://www.w3.org/2000/svg" xmlns:xlink="http://www.w3.org/1999/xlink" x="0px" y="0px"
	 viewBox="0 0 658.4 658.4" style="enable-background:new 0 0 658.4 658.4;" xml:space="preserve">
<style type="text/css">
	.st0{fill:url(#SVGID_1_);}
	.st1{display:none;fill:url(#SVGID_2_);}
	.st2{display:none;fill:url(#SVGID_3_);}
	.st3{display:none;fill:url(#SVGID_4_);}
	.st4{fill:#FF1E00;stroke:#000000;stroke-miterlimit:10;}
</style>
<g>
	<g>
		<g id="Layer_1-2">
			
				<radialGradient id="SVGID_1_" cx="345.28" cy="250.75" r="484.41" gradientTransform="matrix(1 0 0 1 0 -132)" gradientUnits="userSpaceOnUse">
				<stop  offset="0.41" style="stop-color:#FFC400"/>
				<stop  offset="0.52" style="stop-color:#FBC000"/>
				<stop  offset="0.65" style="stop-color:#EEB200"/>
				<stop  offset="0.77" style="stop-color:#D99C00"/>
				<stop  offset="0.9" style="stop-color:#BB7E00"/>
				<stop  offset="1" style="stop-color:#A16300"/>
			</radialGradient>
			<circle class="st0" cx="329.2" cy="329.2" r="329.2"/>
			
				<linearGradient id="SVGID_2_" gradientUnits="userSpaceOnUse" x1="329.2" y1="644.38" x2="329.2" y2="169.12" gradientTransform="matrix(1 0 0 1 0 -132)">
				<stop  offset="0.36" style="stop-color:#000000"/>
				<stop  offset="0.45" style="stop-color:#040302"/>
				<stop  offset="0.53" style="stop-color:#0F0C08"/>
				<stop  offset="0.61" style="stop-color:#221C11"/>
				<stop  offset="0.69" style="stop-color:#3D321E"/>
				<stop  offset="0.76" style="stop-color:#5F4E2F"/>
				<stop  offset="0.84" style="stop-color:#8A7145"/>
				<stop  offset="0.91" style="stop-color:#BC9A5D"/>
				<stop  offset="0.99" style="stop-color:#F4C87A"/>
				<stop  offset="1" style="stop-color:#FFD17F"/>
			</linearGradient>
			<ellipse class="st1" cx="329.2" cy="158.9" rx="210.9" ry="138.6"/>
			
				<linearGradient id="SVGID_3_" gradientUnits="userSpaceOnUse" x1="722.442" y1="173.3669" x2="722.442" y2="-74.2031" gradientTransform="matrix(0.9767 0.2147 -0.2147 0.9767 -309.1148 -28.0695)">
				<stop  offset="0.36" style="stop-color:#000000"/>
				<stop  offset="0.45" style="stop-color:#040302"/>
				<stop  offset="0.53" style="stop-color:#0F0C08"/>
				<stop  offset="0.61" style="stop-color:#221C11"/>
				<stop  offset="0.69" style="stop-color:#3D321E"/>
				<stop  offset="0.76" style="stop-color:#5F4E2F"/>
				<stop  offset="0.84" style="stop-color:#8A7145"/>
				<stop  offset="0.91" style="stop-color:#BC9A5D"/>
				<stop  offset="0.99" style="stop-color:#F4C87A"/>
				<stop  offset="1" style="stop-color:#FFD17F"/>
			</linearGradient>
			<path class="st2" d="M291.5,93C300,54,355,33,414.3,46s100.3,55.2,91.8,94.1c-8.6,39-63.5,60-122.8,47S282.9,131.9,291.5,93z"/>
			
				<linearGradient id="SVGID_4_" gradientUnits="userSpaceOnUse" x1="488.476" y1="252.5206" x2="564.7859" y2="300.6606" gradientTransform="matrix(1 0 0 1 0 -132)">
				<stop  offset="0.36" style="stop-color:#000000"/>
				<stop  offset="0.45" style="stop-color:#040302"/>
				<stop  offset="0.53" style="stop-color:#0F0C08"/>
				<stop  offset="0.61" style="stop-color:#221C11"/>
				<stop  offset="0.69" style="stop-color:#3D321E"/>
				<stop  offset="0.76" style="stop-color:#5F4E2F"/>
				<stop  offset="0.84" style="stop-color:#8A7145"/>
				<stop  offset="0.91" style="stop-color:#BC9A5D"/>
				<stop  offset="0.99" style="stop-color:#F4C87A"/>
				<stop  offset="1" style="stop-color:#FFD17F"/>
			</linearGradient>
			<path class="st3" d="M569.9,155.3c0,14.6-11.8,26.3-26.4,26.3c-14.6,0-26.3-11.8-26.3-26.4s11.8-26.3,26.4-26.3l0,0
				C558.1,128.9,569.9,140.7,569.9,155.3L569.9,155.3z"/>
			<g id="Layer_1-2-2">
				<path class="st4" d="M599.7,300.7c6.6,10.3,12.9,20.6,14.6,33.1c2.1,14.9-5.4,24.7-15.9,34c-7.3,6.5-14.7,8.2-23.8,7.6
					c-14.2-1-28.5-1.5-42.8-2.2c-3.9-0.2-7.5-2.3-9.5-5.7c-2.5-4-4.9-8.1-7.2-12.2c-2.2-4-5.2-6.1-10-6.4c-5.4-0.4-10.7-1.2-16-2.2
					c-4.8-0.8-9.3,2.5-10,7.3c-0.2,1-0.1,2,0,3c1.9,11.7,1,23.4-0.5,34.9c-1.4,10.2-11.9,18.1-22.4,18.1h-33.1
					c-13.8,0-24-10.2-24-24.1c0-9.5-0.1-18.9,0-28.4c0-4.1-1.5-6.5-5.6-7.5c-2.9-0.8-5.6-1.8-8.3-3.1c-2.2-1.1-4.8-1.4-7.2-0.7
					c-12,3.8-24.3,1.1-36.5,1.8c-3.4,0.2-5.9-2.2-7.5-5c-1.5-2.7-3.6-3.4-6.5-3.3c-5.6,0.1-11.2,0.1-16.8,0c-1.8-0.1-3.5,0.3-5.1,1
					c-11.4,6.3-22.8,6.5-34.2-0.1c-1.8-1-3.7-0.8-5.6-0.9H154c-3.1,0-6,0.3-8.2,2.7c-1.6,1.8-3.9,1.9-5.8,2.1
					c-6.9,0.7-13.9,1-20.8-0.6c-1.2-0.2-2.3-1-2.8-2.1c0.6-0.6,1.4-0.8,2.3-0.7c1.6,0.3,3.2,0.5,4.9,0.9c5.4,0.5,10.9,1.2,16.3-0.6
					c7.4-5.3,15.8-5.5,24.5-5.4c33.1,0.2,66.1,0.1,99.2,0.1c4.2,0.1,8.3,1,12,2.9c8.3,3.9,17.9,3.9,26.2,0c3.6-1.7,7-3.1,11-2.9
					c2.3,0.2,4.5,0.2,6.8,0c7.8-0.7,15,0,19.8,7.4c1.8,0.8,3.7,1.1,5.6,1c11.1-0.5,22.2,0.7,33.4-1.8c7.8-1.7,15.2,2.8,22.1,6.7
					c2.3,1.4,2.2,4.2,2.2,6.7V385c0.1,12.3,8.1,20.4,20.2,20.4H457c9.9-0.3,17.9-8.2,18.4-18.1c0.2-9.8,0.2-19.6,0-29.4
					c-0.1-5.1,2.2-9.1,4.9-13c2-2.8,5.2-2.8,8.1-2.4c6.9,1,13.8,2.3,20.7,3.3c4.5,0.7,7.4,3.9,9.4,7.7c1.9,3.5,3.9,7,6,10.5
					s5.1,5.5,9,5.5c16.3-0.2,32.4,2.4,48.7,2.3c3.9,0.1,7.6-1.4,10.3-4.2c4.5-4.4,9.5-8.2,13.8-12.9c1.4-1.6,3.3-3.1,3.3-5.2
					c-0.1-9.6,2.2-19.4-2.9-28.8c-3.1-5.6-6.5-11.2-7.9-17.6C598.8,302.2,599.1,301.4,599.7,300.7z"/>
				<path class="st4" d="M599.7,300.7v2.1c-3.2,0.3-4-2.5-5.2-4.4c-3-4.7-6.1-9.4-8.8-14.3c-2.6-4.7-6.5-6.5-11.7-6.2
					c-4.4,0.2-8.8,0-13.1,0c-3.2,0.2-6.3-1.2-8.2-3.8c-2.4-3-5.6-5.4-9.2-6.8c-10.6-4.8-20.5-11.2-32.3-13.5
					c-12.8-2.5-25.3-1.8-37.9,0.9c-1.2,0.2-2.4,0.3-3.7,0.3c-15.5,1.6-31.1,2.8-45.5,9.3c-13.5,6.2-27.5,5.6-41.7,5.3
					c-1.2,0-2.5-0.3-3.5-1c-11.3-7.4-23.8-3.3-35.9-3.9c-2.5-0.1-4.9,1.4-6,3.7c-1.9,3.6-5,4.6-8.8,4.5c-6.3-0.1-12.6,0-18.9,0
					c-2.1,0.1-4.2-0.2-6.2-1.1c-9.9-4.8-19.8-4.6-29.7,0.1c-2,0.8-4.1,1.2-6.2,1c-38.3,0-76.6-0.1-115,0.1c-4.5,0-7.8-2.9-12-3.1
					c-4.9-0.1-9.8,0-14.7-0.1c-1.9-0.1-3.9,0.2-5.6,1c-11.3,5.9-23.3,2.5-35,2.8c-2.2-0.1-4.2-1.2-5.3-3.1c-2.2-3.5-5.3-4-9-3.9
					c-5.4,0.2-10.8,0-16.3,0.1c-4.9,0-6.5,1.4-7,6.4c-0.1,1-0.1,2.1-0.1,3.1v57.2c0,7.9,2.1,10.1,9.9,9.9c6.4-0.1,12.9,0.9,19.3-0.8
					c6.5-8.3,15.6-6.5,24.3-6.5c4.8,0,9.7-0.7,14.4,1.2c0.8,0.3,1.6,0.8,2.2,1.4c0.8,0.9,1.4,1.8,1,3.1h-2.1
					c-1.9-1.5-4.3-2.3-6.8-2.1c-7.2,0.2-14.3,0.1-21.5,0c-2.9,0-5,0.7-6.5,3.4c-1.7,3-4.5,4.1-8,4c-6.8-0.1-13.7,0-20.5,0
					c-5.9-0.1-9.1-2.6-9.1-8.5c-0.2-22.6-0.2-45.2,0-67.7c0-4.3,2.5-7.1,7.5-7.9c8.1-1.3,16.3-1.2,24.4,0.1c2.6,0.4,4.7,1.1,6,3.5
					c1.7,3.1,4.4,4.1,7.9,3.9c5.3-0.2,10.5-0.2,15.8,0c4.5,0.2,8.7-0.3,12.4-3.1c1.1-0.9,2.6-1.2,4-1c9.2,0.7,18.9-2.3,27.5,3.7
					c1.2,0.9,3.4,0.5,5.1,0.5h110.8c3.3,0,6.2-0.4,8.8-2.6c1.7-1.3,3.8-1.9,5.9-1.7c5.1,0.1,10.2,0.1,15.2,0
					c3.3-0.1,6.3,0.3,8.8,2.5c1.6,1.3,3.7,2,5.8,1.7c4.5-0.1,9.1-0.2,13.7,0c5.1,0.2,9.8,0.3,11.9-5.9c0.7-2,3.2-2.6,5.4-2.6h31.5
					c1,0,2.1,0.3,3,0.8c11.7,6.4,24.5,4.7,36.2,2c15.5-3.5,30.3-10.3,46.4-11.8c12.4-1.1,24.6-5.1,37.1-4.5
					c12.3,0.5,24.5,2,35.4,9.1c6.2,4,12.8,7.2,19.8,9.6c2.1,1.4,3.9,3.2,5.2,5.2c0.4,1,1.1,1.7,2.1,2.1c6,1.2,12,0.2,18,0.6
					c2,0.1,4.2-0.5,6.1,0.5c7.6,6,10.5,15.3,16.1,22.7C598.6,299,599.1,299.9,599.7,300.7z"/>
				<path class="st4" d="M581.9,275.5h-19.3c-1.7,0-3.5,0.6-4.9-1.1H577C578.7,274.5,580.5,273.9,581.9,275.5z"/>
				<path class="st4" d="M555.6,272.3c-2.1-1.3-3.9-3.1-5.3-5.2C553.1,267.5,555.2,269.6,555.6,272.3z"/>
				<path class="st4" d="M470.5,253.4c4.8-0.7,9.6-1.5,14.4-2.1c15.8-2.3,31.8,0.6,45.9,8.2c8.5,4.6,18.5,7,24.5,15.6
					c1,1.5,3.1,1.5,4.9,1.5c3.5,0,7.1,0.4,10.5-0.1c9.3-1.4,14.6,3.1,18.7,10.8c2.9,5.5,5.8,11.1,10.3,15.6
					c2.5,5.6,4.5,11.5,7.6,16.6c3.8,6.1,3.5,12.5,4.1,19.1c0.8,9.4-1.7,16.7-9.3,22.4c-4,3-7.5,6.7-11.3,10.1
					c-1.7,1.5-4,2.3-6.2,2.3c-17.5,0.4-34.8-2.5-52.2-2.3c-4.5,0-7.6-3-9.8-6.9c-12-21.2-6.8-14.7-29.2-19.2
					c-0.7-0.1-1.4-0.1-2.1-0.2c-9.2-1.8-14.5,2.5-14.6,12c-0.1,10.1,0,20.3,0,30.5c0,10.4-9.4,19.8-19.7,19.8h-35.7
					c-11.1-0.2-20-9.2-20.2-20.3c-0.1-10.3-0.1-20.6,0-31c0.1-3.6-1-5.9-4.8-7c-4.3-1.3-8.5-3-12.8-4.6c-3.2-1.2-6.1,0.2-9.2,0.7
					c-11.7,1.9-23.6,1.9-35.3,0.1c-0.2-1.2,0.7-1.7,1.5-2.1c8-0.9,16-0.2,24-0.4c1.9,0.1,3.8,0,5.7-0.3c1.1-0.4,2.2-0.8,3.4-1.2
					c0.6-0.2,1.2-0.3,1.8-0.4c8.8-0.7,16.4,2.9,23.9,6.5c3.8,1.8,5.1,5.5,5.1,9.6c0,8.4,0.6,16.8-0.1,25.1
					c-1,9.8,3.3,16.4,10.9,21.5c0.6,0.2,1.1,0.4,1.6,0.7c14.6,1,29.3,0.3,44,0.3c0.7-0.2,1.5-0.6,2.1-1c1-0.7,1.9-1.5,2.8-2.4
					c2.5-2.5,4.8-5.3,6.6-8.4c0.2-0.5,0.4-0.9,0.6-1.4c0.5-1.5,0.5-3.1,1-4.6c0.5-11.4,0-22.7,0.2-34c0.1-2.1,0.9-4.1,2.3-5.7
					c0.7-0.9,1.3-1.8,2-2.7c2-2.5,4.5-4,7.7-3.4c7.7,1.5,15.6,2.2,23.3,3.8c3.9,0.7,7.2,3,9.1,6.5c2.5,4.2,4.8,8.5,7.3,12.7
					c1.2,2.3,3.6,3.9,6.3,4c13.1,0.6,26.3,0.8,39.2,2.5c11.3,1.5,19.8-1.2,26.6-10c1.5-1.9,3.8-3,5.6-4.7c3.5-3.4,4.7-7.3,5.2-12.1
					c1.4-13.3-4.5-24.2-10.5-35c-4.5-8.1-9.6-15.8-14.5-23.7c-0.8-1.6-2.1-2.9-3.6-3.6c-5.3-1.4-10.9-0.6-16.4-0.6
					c-4.7,0-8.9-0.8-12.4-4c-0.5-0.1-1-0.2-1.4-0.5c-0.8-0.9-1.5-2-1.9-3.1c-2.8-3.1-6.9-3.9-10.2-6c-12.5-7.6-26.5-12.1-41.1-13.2
					c-2-0.7-4.1-0.7-6.1,0.1c-6.8,0.9-13.3,3.1-20.3,2.3C469.9,255,469.9,254.1,470.5,253.4z"/>
				<path class="st4" d="M340.2,343.8l-1,1c-1.1,0-2.3-0.3-2.6-1.4c-2-5.9-6.7-6.3-11.9-6c-4.5,0.2-9.1,0.1-13.7,0
					c-2.3-0.1-4.5,0.5-6.5,1.6c-10.8,5.7-21.5,5.8-32.1-0.3c-1.9-1-4-1.4-6-1.3c-37.6,0-75.2,0.1-112.8-0.1c-5.6,0-8.8,4.8-13.9,5.4
					c-5.6,0.8-11.2,0.8-16.8,0c-1.4-0.2-3.2,0.5-4.2-1l-1-2.1c0.6-0.6,1.4-0.8,2.2-0.7c1.6,0.3,3.2,0.5,4.8,0.9
					c5,0.6,9.9,0.9,14.8-0.3c1.4-0.5,2.8-1.2,4.2-1.7c2.9-2,6.4-3,9.9-2.9c39.2,0.1,78.4-0.1,117.7,0.1c2.4,0,4.5,1.3,5.7,3.4
					c3.9,2.4,8.1,1,12.2,1.1c5,0.1,10.5,1.5,14.5-3.4c10.5-1.3,21.2-1.2,31.7,0.1c1,0.1,1.7,1.1,2.3,2c-0.5,0.5,0.3-0.3,0.3,0.4
					c0,0.5,0.4,0.6,0.4,0.3c-0.5-1.5-0.1-3.4-2.8-3.5c-10.4-0.2-20.8,0-31.2-0.1c-2.6,0-2.3,2.2-3.5,3.2c-7.6,1.9-15.2,1-22.8,0.5
					c-1.6-1.1-1.6-2.6-1-4.3c0.3-0.5,0.9-0.8,1.5-0.7c5.3,3.3,11.2,1.9,16.9,1.7c2.6-0.1,2.5-2.4,2.7-4.4c0.3-2.9-0.7-6,1.2-8.6
					c0.5-0.3,1.2-0.3,1.6,0.1c2.8,7.9,2.8,7.9,11.9,7.9c6.1,0,12.2-0.2,18.3,0.1c4.4,0.2,7.1-1.1,7.1-5.9c0.1-0.7,0.3-1.4,0.8-1.9
					c0.4-0.5,1.1-0.6,1.6-0.4c2.5,4,1,8.5,1.2,12.7c0.1,3.5,0.9,4.6,4.9,4.2c9-0.7,18-1.3,27,0.5c0.5,0.3,0.7,0.9,0.5,1.4l-0.1,0.1
					c-0.4,0.7-1.3,1.1-2.1,1c-8.4,1.1-17,0.2-25.4,0.5C344.3,343.4,342.2,342.7,340.2,343.8z"/>
				<path class="st4" d="M122.7,342.7h16.8C134.1,344.5,128.2,344.5,122.7,342.7z"/>
				<path class="st4" d="M119.6,339.6h-2.1l-1-1c-3.2-2-6.6-1.6-10.1-1.6c-5.4,0-10.8,0.2-16.1-0.1c-4.7-0.3-8.5,0.6-10.7,5.2
					c-0.5,0.7-1.2,1.3-2,1.7c-8.4,2.1-17,1.2-25.5,0.6c-4-0.3-6-3.9-6-8c0-21-0.1-41.9,0-62.9c0-6.5,2.3-8.4,8.6-8.5
					c6.1,0,12.2,0.1,18.3-0.1c3.2-0.1,5.6,0.8,7.1,3.4c1.9,3.5,4.9,4.1,8.4,4c5.6-0.1,11.2-0.1,16.8,0c5,0.2,9.7-0.1,14-3
					c1.7-1,3.6-1.4,5.5-1.2c5.3,0.1,10.5,0,15.8,0c0.4,0.4,0.3,1.1-0.1,1.4c0,0-0.1,0-0.1,0.1l-0.1,0.1c-4.1,1.8-8.5,0.6-12.8,0.9
					c-2.4,0.1-4.9-0.2-6.8,1.7c-0.4,0.4-0.9,0.8-1.4,1.1c-3.4,1.8-7.2,2.6-11,2.5c-5.5-0.1-11.1-0.2-16.6,0
					c-6.1,0.3-11.3-0.9-15.2-5.9c-8-0.8-16.1-0.5-24.2-0.2c-0.7,0,0.2,0-0.5,0.2c-0.2,0,0,0.4,0.4,0.7c0.5,1.3,0.7,2.8,0.6,4.2
					c0,20.9,0.2,41.8-0.1,62.7c0,1-0.4,2.1,0.1,3.1c7.4,1,15,1,22.4-0.1c0.7-0.6,1.3-1,2-1.7c2.6-3.8,6.2-5.2,10.8-5
					c7.7,0.2,15.3,0,23,0.1c3.4,0,6.6,0.6,8.6,3.8C119.8,338.4,119.8,339.1,119.6,339.6z"/>
				<path class="st4" d="M140.6,269.2v-1c13,5.7,26.8,2.8,40.2,3c28.9,0.4,57.8,0.1,86.6,0.1c2.6-0.1,5.1-0.7,7.4-1.8
					c9.2-3.6,18.6-4.2,27.8,0.3c1.7,0.9,3.5,1.5,5.5,1.5c7.4-0.1,14.7-0.1,22.1,0c2.6,0,4.4-0.7,5.4-3.1c1.7-4.3,5.4-5.2,9.4-5.2
					c7.7-0.1,15.4,0,23.1,0c2.6-0.2,5.3,0.5,7.5,2c4.2,3.3,9,2.9,13.9,3.4c14.6,1.4,27.8-2.9,41.2-7.9c12.8-4.8,26.4-5.8,39.9-7v2.1
					c-0.9,0.9-2.1,1.4-3.4,1.4c-17.5,1.1-34.6,5-50.8,11.6c-11,4.4-22.3,3.3-33.6,2.8c-0.5,0-1-0.2-1.5-0.5
					c-9.2-6-19.5-4.2-29.5-4.4c-2.6,0-5.3,0-7.9,0s-4.5,0.7-5.7,3c-2.2,4.2-5.9,5.5-10.5,5.4c-4.9-0.1-9.8-0.2-14.7,0
					c-4.5,0.2-8.5-1.3-12.6-2.7c-7.6-2.6-15.8-2.6-23.5,0c-1.1,0.7-2.3,1.2-3.6,1.4c-26.1,0.4-52.1,0.1-78.2,0.2
					c-15.9,0-31.9,0.2-47.8-0.1c-1.7-0.2-3.3-0.8-4.8-1.7C141.6,271.2,140.1,270.9,140.6,269.2z"/>
				<path class="st4" d="M77.5,343.8c2.7-6.1,7.3-8.1,13.9-7.5c6.2,0.6,12.6,0.1,18.8,0.1c2.3,0,4.6,0.1,6.2,2.1
					c-9.8-2-19.7-0.6-29.5-1c-2.6-0.1-4.2,1.4-5.6,3.2C80.3,342.1,79.7,343.8,77.5,343.8z"/>
				<path class="st4" d="M580.8,279.7c2.7-0.1,3.4,2.3,4.4,4c7.8,13.2,16.5,25.8,22.5,40c5.9,14,2.4,26.3-8,37
					c-8.9,9.2-17.9,12.1-30.1,10.5c-12.6-1.6-25.3-1.6-38-2.3c-2.7-0.1-5.1-1.6-6.4-4c-1.2-2.1-2.9-4.1-3.6-6.3
					c-3.6-10.6-11.7-14.2-22-14.9c-3.5-0.2-7.1-0.3-10.3-1.4c-4.2-1.4-7.4-0.4-10.4,2.5c-0.1-0.2-0.3-0.5-0.5-0.7
					c0.1-4.2,3.5-4.6,6.4-5.5c10.3,1.3,20.5,2.6,30.6,4.9c0.5,0.2,0.9,0.5,1.3,0.9c1.4,2.7,2.5,5.6,4.3,8c1.7,2.6,2.8,5.6,4.7,8.1
					c1.5,4.6,4.6,6,9.5,6c7.3,0,14.6,1.1,21.9,0.9c9.8,1.2,19.6,0.8,26.1,1.6c-5.8-0.4-14.8-0.9-24-1.2c-7.9-0.8-15.8-0.9-23.7-1.3
					c-5-0.2-8.2-1.4-9.9-6.1c-1.9-2.6-2.9-5.7-4.8-8.3c-1.6-2.3-2.8-4.9-3.6-7.5c0.9-2,2-0.9,3.1-0.1c2.5,3.6,4.5,7.5,6.6,11.2
					c2.4,4.2,5.5,7.2,10.6,7.2c4.5,0.8,9.1,0.2,13.7,0.4c1.2,0,2.4,0.1,3.5,0.4c4.7,1.2,9.5,0.4,14.2,0.6c2-0.1,4.1,0.1,6.1,0.4
					c3.2,0.8,6.3,1.4,9.5-0.2c4.8-3.2,8.6-7.7,13-11.4c7.8-6.5,7.6-14.9,5-23c-4.7-14.7-13.6-27.5-21.7-40.5
					c-1.8-3.1-5.3-4.9-8.8-4.5c-3.1,0.2-6.3,0.2-9.5,0c-2.6-0.2-5.2,0.6-7.2,2.3c-3,2.6-7,3.1-10.7,3.8c-5.6,1.1-11.3,2.3-16.9,3.4
					c-1.9,0.4-4,0.6-5.4,1.8c-5.5,4.8-12.1,4.7-18.8,4.5c-6.3-0.2-12.6,0.2-18.9-0.2c-0.6-0.1-1.2-0.3-1.7-0.5c-1-0.9-3-1.5-1.3-3.4
					c9.1-1.7,18.3-0.5,27.5-0.7c3.5-0.1,6.5-0.6,8.9-3.3c7.7-4.6,16.8-4.1,25.1-6.3c3.6-0.9,7.7-1,9.4-5.2c4.4-1.9,9-0.7,13.5-1
					c4.7-0.3,9.5,0.4,14.1-0.4L580.8,279.7z"/>
				<path class="st4" d="M516.7,344.8l-32.6-5.2c-2.5,1-6.9,0-5.2,5.2l0,0c0.1,0.8-0.3,1.7-1,2.1c-3.1,1.1-3.2,3.6-3.2,6.3
					c-0.2,12.3,0.6,24.6-0.5,36.9c0,0.7-0.2,1.4-0.5,2l0,0c-1.2,1.4-1.9,3.5-4.4,3.1c-0.3-0.5-0.5-1.1-0.4-1.7
					c1-2.8,1.5-5.7,1.4-8.7c-0.2-23.4,0.1-46.8-0.2-70.2c0-3.4,2.2-7.2-0.1-10.1c-3.4-4-7.9-7-12.9-8.5c-12.4-0.1-24.8-0.5-37.2,0.2
					c-3.1,1.5-5.7,3.9-8.4,6.1c-2.8,2-4.1,5.4-3.5,8.8v76.5c-0.1,1.9,0.4,3.8,1.5,5.4c0.8,1.1,1.4,2.5-0.2,3.6
					c-3.8-1.2-4.8-4.1-4.8-7.7v-32c0-7.7-0.3-8.2-7.6-11c-3.9-1.5-7.9-2.8-11.8-4.2c-1.5-0.5-3.6-0.6-3.7-3c2.1-1.8,4.3-0.7,6.4,0.1
					c3.6,1.2,7.3,2.4,10.9,3.8c4.3,1.6,5.2,1,5.3-3.7c0.2-9.5,0-18.9,0.1-28.3c0-2.1-0.2-4.2,0.6-6.2c5.8-7.8,12.5-13.8,23.3-12.2
					c1.5,0.1,3.1,0.1,4.6-0.1c9.9,0.3,19.8-1,29.5,1.7c1.3,0.8,2.8,1.5,4.2,2.1c6.6,3.4,9.7,8.2,9.2,16c-0.5,9.6-0.2,19.2-0.1,28.8
					c0-11.9,0-23.8,0-35.6c0-6.6-0.2-7-6.6-8.6c-1.8-0.5-3.7-1.2-5.4-1.9c-7.7-3.1-16-2.9-23.9-4.4c-3.6-0.7-7.2-1.1-10.8-1.6
					c-9.7-1.2-19.4-2.4-28.7-5.8c-2.8-2.9-2.8-5.6,0.4-7.9c-4,0.8-8.6,0.2-13.1,0.4c-2.1,0.1-3,0.5-2.8,3
					c0.9,16.9,0.2,33.8,0.4,50.7c0.1,3.6-1.8,6.3-3.1,9.3c-1.4,2.7-4.8,2-6.7,3.8h-1V341c-0.5-2.8,1.9-3.8,3.2-5.4
					c1.5-1.8,3.8-3.1,3.7-5.9c-0.1-14.5-0.1-29,0-43.5c0-4.2-0.7-7.9-3.9-11c-1.2-1.1-2.9-2.9-1.6-4.5c1-1.4,2.9,0.3,4.4,0.4
					c12.3,0.7,24.7,2.5,36.7-2.4c17.3-7.1,35.3-10.6,53.8-11.9c4.9-1,9.8-1.7,14.7-2.1c0.9,0.2,1.5,1,1.6,1.9
					c-1.8,2.9-5,2.1-7.6,2.6c-3.2,0.6-6.5,1.1-9.8,1.5c-1.1,0.1-2.2,0.3-3.3,0.7c-3.9,0.2-7.8,1.3-11.7,1.5
					c-16,1.4-30.6,8.1-45.8,12.9c-0.3,0.1-0.6,0.2-0.9,0.4c-1.6,0.8-4.6,0.6-4.5,2.5c0.1,2.4,3.1,1.8,4.9,2.3
					c7.7,1.7,15.4,2.9,23.3,3.5c1.1,0.3,2.2,0.6,3.4,0.6c10.9,1.4,21.8,2.8,32.2,6.5c11.4,4,23.1,4.5,35.1,4.1
					c5.7-0.2,11.5,0.7,16.5-3c0.5,0,0.8,0.5,0.7,0.9l0,0c0,0.2-0.1,0.3-0.2,0.4c-1.8,3.2-4.5,4.3-8.2,4.2c-9.9-0.2-19.8,0-29.7,0
					c-1.8,1-1.7,2.9-1.7,4.6c0,9.6,0.1,19.2,0,28.8c-0.1,3.5,1.1,5.2,4.7,5.2c9.2,2.5,18.8,2.9,28.1,4.9
					C514.2,341.7,516.7,341.6,516.7,344.8z"/>
				<path class="st4" d="M381.2,338.6c6.3,3.8,13.4,5.6,20.3,7.8c3.1,1,4,2.2,4,5.4c-0.2,12.2,0,24.4-0.1,36.6c0,3.7,1,6.4,4.4,8.1
					c0.8-0.3,1.3,0.2,1.7,0.8c0.9,2.4,3.5,3.7,4,6.4c0,0.5-0.3,0.9-0.6,1.2c-2.8-2.6-5.7-5.1-8.3-7.9c-2.3-2.4-3.5-5.7-3.3-9
					c0.2-10.3,0-20.6,0.1-31c0.1-4.9-1.8-8.2-6.3-9.8c-7.2-2.6-14.2-6.2-22.2-5.3C376.1,339,378.4,338.2,381.2,338.6L381.2,338.6z"
					/>
				<path class="st4" d="M485.2,254.5c-4.8,1.4-9.8,1.5-14.7,2.1c-1.3,0.4-2.8,1.5-3.1-1h3.1c6.9-1.5,13.9-2.5,21-3.1
					c1.7-0.8,3.6-0.8,5.2,0c18.9-0.2,34.4,9.2,50.4,17.4c1,0.5,3,0.4,2.1,2.6c-2.2,1.5-4,0-5.8-0.9c-5-2.4-10.1-4.8-15-7.5
					c-12.2-6.9-25.5-9-39.3-8.4C487.8,255.6,486.4,255.3,485.2,254.5z"/>
				<path class="st4" d="M485.2,254.5c9.6-2,18.9,0.5,28.3,2c5.9,0.9,10.7,4.1,15.9,6.5c6.7,3,12.9,7,19.8,9.5c0.4,1,0.7,2.1,1,3.1
					c-0.5,0.3-1,0.4-1.6,0.2c-5.9-3-12-5.6-17.7-9c-10.6-6.4-22.3-8.7-34.3-10.1c-2.8-0.3-5.6,0.5-8.3,0c-0.8-0.2-1.6-0.6-2.2-1.2
					C485.9,255.2,485.6,254.9,485.2,254.5z"/>
				<path class="st4" d="M414.8,403.7c-1-2.4-4.2-3.3-4.2-6.4c3.2-0.4,4.5,3,7.1,3.6c14.5,0.4,29,0.4,43.5,0c3.2-1.2,4-5.9,8.2-5.7
					l0.1,0.1c1.3,3.3-2.5,4-3.1,6.3c-0.4,1-1.1,1.7-2.1,2.1c-1.5,0.8-3.3,1.2-5,1h-39.4C418.1,404.9,416.3,404.5,414.8,403.7z"/>
				<path class="st4" d="M549.4,275.5h2c1.3,1,1.5,2.6,1.8,4.2c0.1,0.8-0.2,1.5-0.7,2.1c0.5,3.6-1.5,4.6-4.7,5.4
					c-9.6,2.1-19.6,2.7-28.9,6.2v-1c1.6-3.8,5.2-3.6,8.3-4.2c5.1-0.9,10.2-2,15.2-3c6.3-1.1,6.3-1.1,6.2-7.9
					C548.6,276.7,548.9,276,549.4,275.5z"/>
				<path class="st4" d="M473.6,392.1c0-13.5,0.1-27.1,0-40.6c0-3.2,0.6-5.1,4.3-4.5c-0.6,1.5-2.2,2.4-2.1,4.2
					c-1.2,7.9-0.2,15.9-0.5,23.9c-0.2,4.3,0.6,8.6-0.5,12.9C474.6,389.4,475.2,391,473.6,392.1z"/>
				<path class="st4" d="M414.8,403.7h49.4l-1,1c-6.6,1.1-13.2,0.5-19.7,0.4c-9.2,0-18.4,0.7-27.6-0.4h-1
					C414.8,404.3,414.8,404,414.8,403.7z"/>
				<path class="st4" d="M415.9,404.7h47.3c-0.9,1.1-2.1,1-3.3,1h-40.6C418,405.8,416.7,405.9,415.9,404.7z"/>
				<path class="st4" d="M552.4,279.8c-1.5-1.1-0.9-2.8-1-4.2c0.2-0.7,0.2-2.2,1.3-0.6c2.3,3.3,5.5,3.6,9.2,3.8
					c6.3,0.3,12.8-1.4,19,1l0,0c-2.5,1.8-5.4,1.1-8.1,1C565.9,280.3,559.1,281.9,552.4,279.8z"/>
				<path class="st4" d="M474.7,387.9v-31.4c0-1.8-0.7-3.9,1-5.4v31.4C475.7,384.4,476.4,386.4,474.7,387.9z"/>
				<path class="st4" d="M340.2,343.8c1.7-1.9,3.9-1,5.9-1c8.5-0.1,17.1,0,25.6,0c-2.1,2-4.7,1-7,1
					C356.6,343.9,348.4,343.8,340.2,343.8z"/>
				<path class="st4" d="M466.3,401.6c-0.1-2.7,3.3-3.6,3.1-6.3l4.2-3.1C472.2,395.9,469.6,399.2,466.3,401.6z"/>
				<path class="st4" d="M496.8,252.4h-5.3c1.4-1.4,3.6-1.5,5.1-0.2L496.8,252.4z"/>
				<path class="st4" d="M278.2,334.3h-1c-3.2,0.8-6.5,1.1-9.8,1H153.3c-3.3,0-6.6-0.9-9.9-0.4c-0.7,0-1.3-0.2-1.9-0.5
					c-2.4-4.8-1.4-9.8-0.9-14.7c0.2-0.6,0.5-1.1,1-1.5c0.9-0.2,1.8,0.1,2.4,0.7c0.5,0.4,0.9,0.7,1.4,1c7.9,0.5,15.8,0.2,23.6,0.1
					c35.1,0,70.1,0.2,105.2-0.1c0.5-0.3,1-0.6,1.5-1c0.6-0.6,1.6-1,2.5-0.8c0.5,0.4,0.9,0.9,1.1,1.4
					C279.6,324.7,280.9,329.6,278.2,334.3z"/>
				<path class="st4" d="M339.1,322.8c0.1,11.6,1,9.2-9.2,9.4c-7.8,0.1-15.7-0.3-23.5,0.1c-5.1,0.3-7-1.5-6.2-6.4
					c0.1-1,0.1-2.1,0.1-3.1c1.3-1.5,3.1-1.5,4.8-1.5c9.7-0.1,19.4-0.1,29.2,0C336,321.3,337.8,321.3,339.1,322.8z"/>
				<path class="st4" d="M278.2,334.3v-15.8c-2.3-3.3-1.5-7-1-10.6c0.3-2.5,2.3-3.3,4.6-3.4c4.7-0.2,9.5-0.2,14.1,0
					c3.1,0.1,4.8,1.8,4.8,4.9c0.1,3.8,0.4,7.7-0.3,11.5c-0.3,0.6-0.6,1.3-1,1.8c-0.5,4.8,2.2,10.9-1.3,13.9c-3.1,2.7-9,0.8-13.7,0.7
					C282,337.4,278.3,339.2,278.2,334.3z"/>
				<path class="st4" d="M142.6,334.3c1-1.3,2.5-1,3.9-1c40.7,2.2,81.5,0.3,122.2,1c2.8,0,5.7-2.6,8.5,0v4.2c-0.4,0.4-0.7,0.5-1,0
					c-1.5-0.6-2.4-2.3-4.2-2.1c-1.6-1-3.4-0.5-5.1-0.5h-114c-3,0-6-0.1-8.3,2.3c-0.5,0.4-1.2,0.6-1.8,0.6
					C141.6,337.5,141.5,335.6,142.6,334.3z"/>
				<path class="st4" d="M382.2,331.2l-8.4,9.4l-16.7,0.1c-2.8,0-5.6-0.1-8.4,0c-8.5,0.4-8.5,0.4-8.5-8.5c0-3.1,0-6.3-0.1-9.5
					c-0.4-0.5-0.8-1.1-1-1.6c-0.9-6.7-0.2-13.4-0.4-20.2v-2c0.1-8.9-0.2-17.7,0.1-26.6c0.1-4.7,1.2-5.4,6.2-4.9
					c1,0.6,1.3,1.8,0.7,2.7l0,0c-0.1,0.1-0.2,0.3-0.3,0.4c-3,3.1-2.7,7-2.7,10.8v48.9c0,7.5,0.4,7.8,7.6,7.8c4.2,0,8.4-0.4,12.6,0.1
					c6.8,0.7,11.9-1.7,15.6-7.4C380.1,328.6,381.2,328.4,382.2,331.2z"/>
				<path class="st4" d="M142.7,338.5c2.7-2.6,5.8-3.2,9.5-3.2c37.9,0.1,75.8,0.1,113.8,0.1c2,0,4.2-0.8,6,1H159.7
					c-5.9,0-11.8-0.4-17,3.1c-0.2-0.2-0.3-0.4-0.2-0.7C142.5,338.7,142.6,338.5,142.7,338.5z"/>
				<path class="st4" d="M276.1,338.6h19.3c1.7,0,3.5,0.6,4.9-1c0.9-1.7,2.7-2.8,4.7-2.6h28.6c3.2,0,5.1,1,3.5,4.7
					c-2-2.5-4.6-3.3-7.9-3.1c-5.9,0.2-11.9,0.1-17.9,0c-3.9-0.1-7.7-0.1-10.6,3.1c-1,1.1-2.5,1-3.9,1h-16.3
					C278.7,340.7,277,340.5,276.1,338.6z"/>
				<path class="st4" d="M337.1,339.6c0.2-3.1-1.4-4.2-4.4-4.2c-8.7,0.1-17.3,0.1-26,0c-2.4,0-4.3,1.2-6.3,2.1c-0.2-3,0.3-3.9,4-3.6
					c9.2,0.7,18.5,0.5,27.7,0.4c7.4,0,7.4-0.2,6.9,7.4C337.6,341.6,337.6,340.4,337.1,339.6z"/>
				<path class="st4" d="M142.7,338.5v1l-3.1,1c-5.2,0.8-10.5,0.8-15.8,0c-1.4-0.1-3.1,0.5-4.2-1v-1l0.7-0.7
					C127.8,337,135.3,335.9,142.7,338.5L142.7,338.5z"/>
				<path class="st4" d="M340.2,321.8c0,0.3,0,0.7,0,1l-1,0.1h-39.9v-1c0.5-0.4,1.1-0.8,1.7-1c12.5-0.7,25-0.7,37.6,0
					C339.1,321,339.6,321.3,340.2,321.8z"/>
				<path class="st4" d="M123.8,340.7h15.8C134.4,342.3,128.9,342.3,123.8,340.7z"/>
				<path class="st4" d="M51.3,269.2c0.2-2,1.8-1,2.7-1c7.9-0.1,15.8-0.1,23.6-0.1c2,6.5,2.2,6.7,8.9,6.8c8.5,0.1,17,0.1,25.5,0
					c2.7,0,5.6,0,7.6-2.6v-1c7.6-1.7,15.5-1.7,23.1,0l0,0c1.3,2.3,3.3,2.8,5.8,2.8h122.8c2.4,0,4.5-0.3,5.7-2.8
					c7.5-1.5,14.9-1.8,22.3,0.2c0.3,0.6,0,1.4-0.7,1.6l0,0c-1.5,0.6-3.1,0.9-4.8,0.8c-2.4,0.1-4.9,0.1-7.4,0.1
					c-6.4,0-6.6,0.2-6.7,6.9v12.6c0.2,1.9-0.2,3.9-1,5.6c-0.3,0.5-0.9,0.8-1.5,0.9c-1-0.7-1.6-1.9-1.5-3.2c0.5-5-2.4-5.4-6.2-5
					H149.3c-3.4-0.5-5.6,0.4-5.2,4.5c0.2,1.4-0.3,2.8-1.4,3.7c-0.6,0.1-1.3-0.2-1.6-0.8c-1.9-6.2-0.6-12.5-0.9-18.8
					s-0.4-6.7-6.5-6.7c-12.8,0-11.4-1.1-11.6,11.5c-0.1,4.7,1,9.5-1,14c-0.4,0.5-1.1,0.7-1.7,0.4c-0.3-0.4-0.6-0.8-0.8-1.3
					c-1-2,0.4-4.9-1.8-6.2s-4.8-0.5-7.2-0.6c-8,0-16,0.1-24-0.1c-4.2-0.1-7.3,0.4-6.8,5.6c0,0.9-0.4,1.7-1,2.3
					c-0.5,0.4-1.3,0.3-1.7-0.2c-2-3.5-1-7.4-1-11.2c-0.2-5,0-10-0.1-15c-0.3-2.7-2.3-2.5-4.2-2.6c-4.5-0.1-9,0-13.5,0
					C55.1,270.6,53,270.8,51.3,269.2z"/>
				<path class="st4" d="M51.3,269.2h20.3c2.4,0,4.7,0,4.9,3.1c-0.7,1.4-1.2,3.2-3.3,1.5c-4.8-3.7-10.4-1.9-15.8-1.9
					c-2.3,0-3.6,1.7-3.6,4.2c-0.1,18.9-0.1,37.8,0,56.7c0,2.5,1,4.3,3.7,4c5.5-0.6,11.4,2.2,16.6-2.1c1.7-1.4,2.6,0.7,3.2,2.2
					c0.2,2.7-1.2,4.5-3.8,4.6c-6.8,0.3-13.5,0.3-20.3,0c-0.9,0.2-1.8-0.5-2-1.4c0-0.2,0-0.3,0-0.5C51.2,316.1,51.3,292.7,51.3,269.2
					z"/>
				<path class="st4" d="M49,270.6v68.6h-0.5v-68.8L49,270.6z"/>
				<path class="st4" d="M119.6,338.5c-2.8-2.3-6.5-3.5-10.2-3.2c-7,0.3-14,0.4-20.9,0c-4.9-0.3-8.4,1.3-10.9,5.4
					c-0.7-2.2-0.9-4.5-0.6-6.8c1.1-1.8,2.8-1.8,4.6-1.7c11.3,0.9,22.6,0.9,33.9,0c1.8-0.1,3.5-0.2,4.7,1.5
					C120.9,335.3,120.7,337.2,119.6,338.5L119.6,338.5z"/>
				<path class="st4" d="M119.6,272.4c0.3,2.6-1.2,3.2-3.5,3.2c-11.7-0.1-23.4,0-35,0c-6.1,0-2.6-4.8-3.5-7.4
					c2.6,5.2,6.9,6.7,12.4,6.3C99.9,273.8,109.9,276,119.6,272.4z"/>
				<path class="st4" d="M142.7,271.3h-23.1c2.2-2.7,5.2-2.1,8.1-2.1h12.9L142.7,271.3z"/>
				<path class="st4" d="M77.5,334.3v6.3l-1,1c-8.7,0.8-17.5,0.8-26.3,0c-0.1-0.8,0.3-1.7,1-2.1c7.6,2.2,15.3,0.7,22.9,0.8
					c2.1,0,2.4-2.1,2.3-4c-0.5-0.6-0.6-1.4-0.3-2.1C76.6,334,77.2,334,77.5,334.3z"/>
				<path class="st4" d="M50.2,341.7h26.3C67.8,343.4,58.9,343.4,50.2,341.7z"/>
				<path class="st4" d="M299.3,272.3c-5.1-2.3-10.6-0.5-15.8-1c-2.1-0.2-4.2,0-6.3,0c-0.2,0.3-0.6,0.3-0.9,0.1l-0.1-0.1
					c0.9-1.9,2.6-2.1,4.4-2.1h16.2c0.9-0.1,1.7,0,2.5,0.4c10.1,7,21.4,2.7,32.1,3.6c2.3,0.2,4.2-1.5,5.1-3.9
					c1.3-3.5,3.9-4.5,7.4-4.3c5.9,0.2,11.9,0.1,17.9,0c6,0.1,11.9,1.2,17.5,3.3c11.8,4.1,24.4,3.4,36.3-1.2
					c16.7-6.4,33.8-10.7,51.7-11.6c0.8,1.2,2,1,3.1,1c-7.1,2.1-14.6,2.7-21.9,3.5c-12.8,1.5-24.2,7.7-36.5,10.7
					c-12,3-24.3,1.7-37,0.5c9.1,4.9,7,13.6,7.1,21.5V331c-0.8,0.2-1-2.4-2.1-0.4c-3.7,6.9-9.4,9.7-17.3,8.9
					c-5.1-0.4-10.1-0.4-15.2,0c-4.3,0.2-6.3-1.9-6.3-5.8c-0.1-19.2,0-38.5-0.1-57.7c0-3.7,3.3-5.1,4.3-8c8.2-1.2,16.4-0.1,24.2-0.6
					h-26c-1.9,0-4-0.3-4.1,2.5c-2,4.4-5.5,5.9-10.2,5.8c-7-0.2-14,0-20.9,0c-2.8,0-5.6-0.4-8-2.1C300,273.4,299.6,272.9,299.3,272.3
					z"/>
				<path class="st4" d="M276.1,271.3h1c0.4,3.1-0.8,4.3-4.1,4.3c-42.1-0.1-84.3-0.1-126.4,0c-3.3,0-4.4-1.2-4-4.3
					c0.8-0.1,1.7,0.3,2.1,1c1.1,0.8,2.3,0.7,3.5,1c15.5,0.2,31,0,46.5,0.1h2c24.6,0,49.1,0.1,73.7-0.1c1.2-0.3,2.5-0.2,3.6-1
					L276.1,271.3z"/>
				<path class="st4" d="M274,272.3c-0.4,0.7-1.3,1.1-2.1,1c-1.8,0.9-3.8,0.5-5.6,0.5c-21.5,0-42.9,0-64.4,0c-1.9,0-3.8-0.5-5.6,0.5
					h-1.1c-5.5-1.1-11.1-0.3-16.6-0.5c-10.6-0.4-21.2,0.6-31.7-0.5c-0.9,0.1-1.7-0.3-2.1-1H274z"/>
				<path class="st4" d="M484.2,299.7H511c1.5,0,3.6,0.2,4.6-0.6c9.3-7.5,21-6.5,31.6-9.6c3.2-0.9,6.4-1.5,8.8-4.2
					c1.8-2,4.3-1.1,6.4-1.4c12.2-2.1,19.8,2.5,25.2,13.9c4.8,9.8,10.9,19,15.3,29.1s2.9,19.9-4.9,27.6c-4.1,4.1-8.1,8.2-13,11.4
					c-3.1,0.8-6.4,0.8-9.5,0h-6.3c-4.8-1.5-9.9,0.4-14.7-1h-3.2c-4.8-1.5-9.9,0.4-14.7-1c-3.2,0.4-5.8-0.4-7.8-3.1
					c-3.7-4.8-6.7-10.1-9-15.8c-2.8-4.1-7.5-3.4-11.4-4c-7.2-1.2-14.3-2.3-21.5-3.5c-6.4-1-8-3-8-9.3c-0.1-7.1,0.1-14.3-0.1-21.4
					C478.8,302.7,480.3,300.4,484.2,299.7z"/>
				<path class="st4" d="M484.2,299.7c-3.3,2-4.5,4.7-4.3,8.7c0.4,6.6,0.2,13.2,0,19.8c-0.1,4.9,2.1,7.4,6.8,8.1
					c9.4,1.4,18.8,3,28.2,4.2c2.8,0.4,4.6,1.4,5,4.3c-0.7-0.1-1.4-1.2-2.1,0c-0.4,0.5-0.7,0.5-1,0l0,0c-2.7-3.6-7-2.1-10.5-3
					c-7.3-1.9-15-1.6-22.1-4.3c-4.4-0.6-5.9-3.3-5.8-7.5c0.2-8.5,0-17,0.1-25.5c0-2.9,0.5-5.8,4.7-4.8L484.2,299.7z"/>
				<path class="st4" d="M483.1,299.7c-3.5,0.5-4.2,3-4.2,6c0.1,7.5,0.2,14.9-0.1,22.4c-0.1,4.4,1,7.7,5.3,9.5
					c-4.9,0.8-6.6-1-6.4-6.3c0.4-10.3,0.2-20.6,0-31c0-2.7,0.7-3.5,3.2-2.7L483.1,299.7z"/>
				<path class="st4" d="M552.4,279.8h28.4c1,3.1-1.5,2.1-2.7,2.1c-8.6,0.1-17.1,0-25.7,0V279.8z"/>
				<path class="st4" d="M559.8,367c7.3,0.1,14.5,0.9,21.8,1.3c3.9,0.2,6-1.2,8.7-3c-1.4,3.6-4,5.5-7.9,4.8
					c-7.2-1.4-14.5-0.9-21.8-1c-1.1,0.1-2.1-0.3-2.8-1C558.1,367.2,559.3,367.7,559.8,367z"/>
				<path class="st4" d="M559.8,367c-0.4,0.7-1.3,1.1-2.1,1c-8.9,0.4-17.7-0.5-26.5-1c-4.8-0.3-4.8-4.3-6-7.4l0,0
					c5.2,10.4,15.5,5,23.3,7.2C552,367.7,556,366.9,559.8,367z"/>
				<path class="st4" d="M606,351.1c2.2-11.3,2.3-22.4-4.3-32.6c8.6,8.9,6.3,19.9,6.3,30.4C607.8,349.9,607.1,350.8,606,351.1
					L606,351.1z"/>
				<path class="st4" d="M606.1,351.2c-3.7,4.5-7.9,8.6-12.6,12.1C597.3,358.9,600.4,353.7,606.1,351.2L606.1,351.2z"/>
				<path class="st4" d="M478.9,344.8c-2.1-5.6-1.9-5.8,5.2-5.2C482.2,341.2,479,341.4,478.9,344.8z"/>
				<path class="st4" d="M554.6,364.8c4.9,0.5,9.9-1.1,14.7,1C564.4,365.3,559.3,367,554.6,364.8z"/>
				<path class="st4" d="M536.7,363.8c4.9,0.5,10-1.1,14.7,1C546.5,364.3,541.5,366,536.7,363.8z"/>
				<path class="st4" d="M594.5,303.9c2.6,2.3,4.5,4.9,4.9,8.4C597.5,309.6,595,307.3,594.5,303.9L594.5,303.9z"/>
				<path class="st4" d="M591.3,298.6c-2.6-2.1-4.5-5.1-5.2-8.4l0,0C588.7,292.4,590.5,295.3,591.3,298.6z"/>
				<path class="st4" d="M516.7,344.8h1.1c1,2.5,2.8,4.6,3.2,7.4l0,0C518.3,350.4,517.5,347.7,516.7,344.8z"/>
				<path class="st4" d="M520.9,352.2c2.6,1.8,3.5,4.5,4.2,7.4l0,0C522.5,357.8,521.7,355,520.9,352.2z"/>
				<path class="st4" d="M575.6,365.9h9.5C582.1,367.5,578.5,367.5,575.6,365.9z"/>
				<path class="st4" d="M586.1,290.2c-1.8-0.9-2.4-2.5-3.2-5.3C584.7,286.1,585.9,288.1,586.1,290.2L586.1,290.2z"/>
				<path class="st4" d="M594.5,303.9c-2.1-1.1-2.8-3.1-3.2-5.2l0,0C593.4,299.8,594.1,301.7,594.5,303.9z"/>
				<path class="st4" d="M406.4,389v-79.8c2.3-4.8,2.8-4.9,7.8-2.1c0.6,0.5,1.1,1.1,1.4,1.8c0.4,1.8,1.3,3.4,2.5,4.8
					c-1.8,1.7-0.9,3.4,0.2,5c-1.6,1.4-1.7,2.8,0,4.2c-1,1.7-1.8,3.4,0,5.1c-1,1.4-2.4,2.5-2.6,4.4c-1.5,2.9,2.5,3,2.6,5
					c-0.8,1.3-2.2,2.3-2.5,4c-0.2,0.6-0.3,1.3-0.4,1.9c0,1.4,1.3,1.8,1.9,2.8c0,1.9-1.3,3.3-1.5,5.1c-0.5,1.5-0.5,3.2,0.1,4.7
					c0.3,1.7,0.1,3.4-0.4,5.1c-0.2,1.4-0.1,2.9,0.4,4.3c0.3,1.5,0.3,3,0,4.5c-0.6,1.6-0.6,3.4,0,5c0.3,1.5,0.3,3,0,4.5
					c-0.6,1.6-0.6,3.4,0,5c0.4,1.5,0.3,3.2-0.3,4.6c-0.2,0.5-0.6,0.9-1,1.2C411.5,392.2,408.6,393.2,406.4,389z"/>
				<path class="st4" d="M381.2,338.6c-0.3-1-2.5-1.6-0.8-2.9c3.4-2.5,2.9-6,2.9-9.5v-43.4c0-3.1,0.7-6.4-4.1-9.1h23.7
					c-4.2,1.9-4.7,4.7-2.8,8.1c0.3,0.7,0.1,1-0.6,1.3c-2.2-0.3-3-2.3-4.3-3.6c-1.5-1.5-3.1-2.9-5.5-2.1s-2.9,2.9-2.9,5.1
					c-0.1,6.3,0,12.6,0,18.8c0,9.8-0.1,19.5,0,29.3c0.1,4.9,7.1,10.4,11.8,9c2.8-0.8,3-3.5,3-6c0.1-8.4-0.1-16.8,0.2-25.1
					c0.1-2.7-0.2-5.8,3.2-7c1,0.7,0.9,1.5,0.3,2.3c0,12.4-0.2,24.8,0.1,37.2c0.1,4.9-1.7,5.2-5.5,3.6
					C393.8,342.1,387.7,339.7,381.2,338.6L381.2,338.6z"/>
				<path class="st4" d="M469.4,395.2c-2.6,1.6-4.2,4.2-6.2,6.4c-1.6,0.8-3.3,0.5-5.4,0.1c0.7-2.3,3.1-4.3,1.5-6.9
					c0-1.1,0.6-2,1.6-2.5c1.4-0.8,1.9-1.4,0.1-2.5c-1.9-0.9-2.6-3.2-1.7-5.1l0,0c0.1-0.1,0.1-0.2,0.2-0.3c1.2-2.3,3.3-2.1,5.4-1.3
					c1.2,0.7,1.6,2.2,2.9,3c1.7-1.2,1.2-2.9,1.2-4.3c0-22.5,0-45,0-67.5c0-2,1-4.9-2.8-5c-0.5,0-1-0.3-1.4-0.6
					c-1.3-3-6.2-2.6-6.4-6.7c1-2.6-2-5-0.5-7.6c1,0.5,2.2,1,3.3,1.6c6.8,3.7,11.4,7.2,10.9,17.2c-1.4,25-0.3,50.2-0.1,75.3
					C472,391.4,469.5,392.8,469.4,395.2z"/>
				<path class="st4" d="M457.9,294.4c0.2,2.5,3.6,4.5,1,7.4c-0.5,4-3.4,5.7-8.2,4.2c-2-0.6-4-0.7-6-0.2c-4.5,0.7-9.5,2.2-13.5-1.4
					c-1.4-1.3-0.9,0.2-1.3,0.4c-4,2.6-8.2,1.9-11.5-1.7c-1.7-2.2-1.9-5.3-0.6-7.7c1.4-1.5,3.3-1,4.9-1
					C434.6,294.4,446.2,294.4,457.9,294.4z"/>
				<path class="st4" d="M463.2,293.3c13.6,2.3,13.6,2.3,13.6,15.6v33.6c-0.1,1.2-0.3,2.8-1.8,2.7c-1.8-0.1-1.3-1.8-1.3-2.9
					c0-9.5-0.6-18.9,0.1-28.4c0.6-8.2-1.3-14.3-9.2-17.7c-0.9-0.5-1.7-1.2-2.4-1.9C461.9,293.4,462.1,293,463.2,293.3z"/>
				<path class="st4" d="M543,286c-5.7,2.5-12,2.5-18,4c-2.2,0.5-4.3,1.3-6.2,2.4c-3.4,3.8-7.8,4-12.7,4.3c-17,1-33.2-1.7-49.3-6.9
					c-7.4-2.4-15.3-2.9-23-3.8c0-2.2,1.8-2,3.2-2.3c13.9,0.8,27,5.2,40.4,8.6c1.7,0.5,3.4,0.7,5.1,1.1c9.6,0.9,19.2,1,28.8,0.1
					c8.9-6.6,19.4-8.2,30.1-9.3C542.2,284.5,542.8,285.2,543,286z"/>
				<path class="st4" d="M400.1,282.9v-1l28.4,5.2c-0.1,0.1-0.2,0.3-0.4,0.3c-0.2,0-0.3,0-0.5,0c2.3,1.4,3,3.8,4,6
					c-11.1-2.2-19.1,3-26.3,10.5v-2.1c0.6-4.9,5.7-5.7,8.1-9c1.5-1.3,3.6-1.8,5-3.2c-1.4-1.2-3-1-4.5-1.2
					C409.3,286.6,403.7,287.4,400.1,282.9z"/>
				<path class="st4" d="M431.7,293.3c-3.1-0.7-1.9-5.4-5.4-5.7c0.5-0.9,1.5-0.5,2.2-0.6c11.7,1.3,23.5,2.1,34.7,6.3l-1,1
					c-5-2.1-10.3-0.8-15.4-1S436.7,293.3,431.7,293.3z"/>
				<path class="st4" d="M407.5,274.4c13.3-4.9,26.4-10.7,40.6-12.6c1.9-0.3,3.8-0.7,5.6-1c1.2,1.2,3.3-0.4,4.4,1.3
					c-0.7,2.2-2.6,2-4.3,2.1c-13.4,1.2-25.6,6.3-38.2,10.5c-2.3,0.8-4.3,2.4-5.4,4.6c-2,1.3-2.7-0.1-3.5-1.5
					C406.6,276.7,406.9,275.5,407.5,274.4z"/>
				<path class="st4" d="M406.4,389c2.5,2.4,4.9,2.3,7.4,0c1.2,1.7,2.8,3.1,4.6,4.2c1.4,2.6-1.2,5.9,2.4,7.8c-2,1.5-3.5,1.4-4.9,0.6
					l-5.2-4.3l-0.9-0.9C409.5,393.5,405.6,392.3,406.4,389z"/>
				<path class="st4" d="M417.9,295.4c0.8,2-0.6,4.5,1,6.3c0.5,4-3.5,4.2-5.2,6.3c-2.9-2.9-5.2-2.2-7.3,1c-0.8-4.8,3.2-6.6,5.8-9.2
					C414,298.2,415.9,296.7,417.9,295.4z"/>
				<path class="st4" d="M407.5,276.6c-0.1,1.4,0.8,2.7,2.1,3.1c5.2,0,10.1,2,15.3,2.1c1.8,0.5,3.7,0.8,5.6,0.8
					c0.8,0.1,1.6,0.5,2.2,1c0.3,1,0.1,1.6-1,1.3c-8.6,0.2-16.8-2-25.2-3.2C406.1,279.9,403.9,277.6,407.5,276.6z"/>
				<path class="st4" d="M486.3,255.6h2.1c0.8,1.2,3.2-0.5,3.2,1.8c-6.3,3-13.1,3.1-19.9,3.7c-1.4-0.3-3.2-0.1-3.3-2.4
					C474.4,257.6,480.5,257.8,486.3,255.6z"/>
				<path class="st4" d="M407.5,276.6c-2.2,1.3,0.4,3.7-1,5.2c-0.5-0.2-0.9-0.4-1.4-0.6c-1.9-0.5-4.5-0.5-4.4-3.3
					c0.1-2.3,2.8-2,4.4-2.7c0.8-0.3,1.6-0.5,2.5-0.7C408.6,275.2,407.6,275.8,407.5,276.6z"/>
				<path class="st4" d="M457.9,261.9c-1.4-0.2-3.1,0.5-4.2-1c4.2,0.2,8.3-1.7,12.6-1.1c1.4-0.1,1.5,0.5,0.9,1.5
					C464.2,263.1,461.2,264.2,457.9,261.9z"/>
				<path class="st4" d="M467.3,260.8l-1-1.1c0.5-0.7,1.3-1.1,2.1-1c0.8,1.2,2,1,3.1,1C470.8,262.5,469.1,261.9,467.3,260.8z"/>
				<path class="st4" d="M431.6,285l1-1c1.8-1,3.4-1.7,4.2,1c-1.1,0-2.4-0.2-3.1,1C432.9,286.1,432,285.7,431.6,285z"/>
				<path class="st4" d="M491.5,256.6c-1.1,0-2.4,0.2-3.2-1c14.6-0.4,28.7,1.7,41.5,9.2c6.4,3.8,13.8,5.7,19.5,10.8
					c0,0.5,0.1,1,0.2,1.5c2.2,8.3,1.9,8.8-6.6,9l-1-1c6.4-4.9,6.3-7.6-1-11.5c-13.2-7-26.6-13.8-42-14.7
					C496.4,258.7,493.7,258.4,491.5,256.6z"/>
				<path class="st4" d="M415.8,401.6h4.5c-5-2.6-2.2-5.7-2.4-8.4c1.1-0.6,2,0.4,3.1,0.2c3-1.1,6.1,0.8,9-0.6
					c5.3-1.3,10.7-1.5,16.1-0.5c2.9,0.5,5.5-0.7,8.3-0.5c2.6,0.2,4.8,0.6,5.6,3.5c3.1,2.5,2.4,4.4-2.1,6.1l5.2,0.3
					c-0.9,1.1-2.1,1-3.3,1h-40.7C418,402.6,416.7,402.7,415.8,401.6z"/>
				<path class="st4" d="M340.2,321.8l-1-0.1c-12.9-0.8-25.8-0.8-38.7,0h-1.1c0-3.8-0.2-7.6,0-11.5c0.2-3.5-1.2-4.6-4.6-4.4
					c-4,0.2-8,0.2-12,0c-3.3-0.2-4.9,0.8-4.6,4.3c0.2,2.8,0,5.5,0,8.3h-1c-0.3-0.6-0.3,0.3-0.3-0.4c-0.8-6.8-5.5-6.7-10.9-6.6
					c-37.1,0.2-74.1,0.2-111.2,0c-5.8,0-10.9-0.2-12.2,7h-0.9c-1.8-1.7-1.4-4-1.5-6.1c-0.1-1.6,0.4-3.4-1.2-4.6
					c-5.2-0.7-10.5-0.7-15.8,0.1c-1.9,1.9-0.9,4.2-1,6.4c-0.2,2.5,0.4,5.2-1.3,7.5c-0.5,0.4-1.2,0.6-1.8,0.6
					c-11.2-0.5-22.3-0.1-33.4-0.2c-2.2,0-4.6,0.3-6.6-1c-0.5-0.4-0.7-1.1-0.5-1.7c2-1.8,4.3-1.3,6.6-1.3c8.6,0,17.2,0.1,25.7-0.1
					c2.7-0.1,7.2,2,7.2-3.4c0-5.1-4.4-2.9-6.8-2.9c-7.7-0.3-15.4-0.1-23.1-0.1s-7.7,0-10.1,6.7c-0.5,0.5-1.2,0.5-1.8,0.1
					c-2.1-5.8-1.7-11.6-0.3-17.4c0.3-0.5,1-0.8,1.6-0.6c1.3,6.3,5.9,6.3,11,6.2c7.8-0.2,15.6-0.3,23.4,0c4.1,0.2,6.1-1.4,6.7-5.2
					c0.2-0.5,0.7-0.9,1.2-1.2c1.5,0,2.1,1.7,3.5,1.9c5.2,0.3,10.4,0.3,15.6,0c1.4-0.3,2-2,3.6-1.8c0.5,0.4,0.9,0.8,1.1,1.4
					c0.6,3.9,2.9,4.8,6.6,4.8c39.8-0.1,79.6-0.1,119.4,0c3.8,0,5.6-2,7.8-4.2c7.1-0.2,14.2-0.3,21.3,0.2c0.6,0.2,1.2,0.4,1.7,0.8
					c1.8,2.5,4.1,3.3,7.1,3.1c7.6-0.2,15.3-0.4,22.9,0c4.6,0.3,7.2-1,8.1-5.6c0.3-0.5,1-0.7,1.6-0.4
					C340.2,307.7,340.2,314.7,340.2,321.8z"/>
				<path class="st4" d="M142.6,318.6c0.4-9.2-1.7-8.4,8.3-8.4h118c9.9,0,8-0.9,8.3,8.4l-1.1,1c-1.8,1.4-4,1.1-6.1,1.1H149.8
					c-2.1,0-4.2,0.4-6.1-1.1C143.4,319.3,143,318.9,142.6,318.6z"/>
				<path class="st4" d="M275.1,322.8c4,1.7,2.1,5.1,1.9,7.6c-0.2,2.7-3,1.7-4.7,1.7c-41.5,0.1-83.1,0.1-124.6,0
					c-1.7,0-4.5,1-4.7-1.8c-0.2-2.5-2.1-6,1.9-7.6c1.8,0.9,3.8,0.5,5.7,0.5c37.6,0,75.3,0,112.9,0.1c1.8,0,4.2-1.3,5.6,1.3
					c-2.2,2.5-5.2,1.6-7.9,1.6c-35.4,0.1-70.9,0-106.3,0.1c-2,0-5.1-1.6-5.8,2.3c1.5,1.4,3.3,1,5,1c37.5,0,74.9,0,112.3-0.1
					c2,0,5.8,1.8,5.5-3c-0.4-0.4-0.7-0.8-1-1.3C270.7,321.8,274,324.3,275.1,322.8z"/>
				<path class="st4" d="M140.6,306c2.2,4,0.5,8.4,1,12.6v15.8c1,2.3,0.5,3.7-2.3,3.7h-16.6c-2.6,0-2.7-1.6-2.6-3.5
					c-0.8-4.3-2.1-8.7,0.5-12.8c0.6-5.3-1.2-10.6,1-15.8c0.8,0.8,1.1,1.9,0.8,3c0.5-1.6,2.2-2.6,3.9-2.4c4.1,0.2,8.4-1,12.3,0.9
					C140.3,308.3,139.7,306.2,140.6,306z"/>
				<path class="st4" d="M276.1,320.6c0.1,2-1.4,1-2.1,1c-42.7,0.1-85.5,0.1-128.2,0c-0.7,0-1.3-0.1-2-0.2c-0.1,0-0.2-0.2-0.2-0.4
					c0-0.2,0.1-0.3,0.2-0.5c1.3-0.7,2.7-0.5,4.1-0.5H272C273.4,320.2,274.8,319.9,276.1,320.6z"/>
				<path class="st4" d="M268.8,324.9c-1.7-1.8-4-1-6-1c-37.3-0.1-74.7-0.1-112-0.1c-2,0-4.2,0.8-6-1h130.3c-0.9,1.6-3.3,0.4-4.2,2
					C270.3,325.4,269.4,325.4,268.8,324.9z"/>
				<path class="st4" d="M276.1,320.6H143.8v-1h132.3C276.1,320,276.1,320.3,276.1,320.6z"/>
				<path class="st4" d="M120.6,334.3c-0.1,2.1,0.7,3.2,3,3.2c5-0.1,10-0.1,15.1,0c2.3,0,3.1-1,3-3.2h1v4.2h-23.1v-4.2
					C119.9,333.8,120.3,333.8,120.6,334.3z"/>
				<path class="st4" d="M319.4,330c-3.8,0-7.6,0.1-11.5-0.1c-1.4-0.1-3.5-0.6-3.1-2.7c0.2-1.8,2.2-2.5,3.6-2.2
					c7.3,1.3,14.8,1.3,22.2-0.1c1.7-0.4,3.4,0.7,3.8,2.4c0,0.1,0,0.2,0.1,0.4c0.1,1.9-2,2.2-3.5,2.3
					C327.1,330.2,323.3,330.1,319.4,330L319.4,330z"/>
				<path class="st4" d="M280.3,321.3c0-1.2,0.1-2.5,0-3.7c-0.8-10.5,4.2-10,12.1-9.4c3.1,0.3,4.4,3.3,4.6,6.2
					c0.2,4.7,0.2,9.4,0,14.1c-0.3,5.5-2.9,7-10,6.8c-4.8-0.2-6.9-2.7-6.8-7.4C280.4,325.8,280.3,323.6,280.3,321.3z"/>
				<path class="st4" d="M339.2,270.3c-0.1-2.1,0.7-3.1,3-3.1c9.8,0.1,19.5,0,29.3,1h-26c-3.9-0.6-5.5,0.7-5.4,5
					c0.3,8.8,0.1,17.7,0,26.5c-0.5,0.3-1.2,0.1-1.5-0.4c-2.1-7.5-2.1-7.5-10.6-7.5c-9,0-18-0.2-27,0.2c-3.4-0.8-3.1-3-2.1-5.5
					c0.4-0.4,1-0.7,1.5-0.5c0.8,0.4,1.4,1,2.1,1.5c9.1,0.9,18.2,0.1,27.3,0.4c2.4,0.1,4.9-0.4,7.3,0.6c0.6,0.3,1,0.2,0.3,0
					c-0.1,0-0.1-0.3-0.1-0.5c-0.1-0.8-0.1-1.7,0-2.5c0.7-6.3,0.7-6.3-5.2-6.3h-26.2c-1.9,0-3.9,0.2-5.7-0.7
					c-1.7-1.4-1.6-2.6,0.3-3.6c10.2,0.5,20.4,0.1,30.6,0.4C334.9,275.2,337.8,274.2,339.2,270.3z"/>
				<path class="st4" d="M339.1,299.6h1c0,0.3,0,0.7,0,1l-1,0.1c-0.7,0.8-1.7,1.2-2.8,1.3c-11.9-0.1-23.8,0.7-35.6-0.4
					c-1.7-0.9-2-1.9-0.1-2.9c12.1-1.2,24.2-0.5,36.3-0.3C337.8,298.6,338.5,299,339.1,299.6z"/>
				<path class="st4" d="M300.4,321.7c1-1.4,2.5-1,3.9-1h31c1.4,0,2.9-0.3,3.9,1H300.4z"/>
				<path class="st4" d="M147.9,290.3h123c5.9,2.1,6.8,5.6,2.6,10.5c-1.7,0.3-3.5,0.5-5.3,0.4H151.6c-1.8,0.1-3.5,0-5.3-0.3
					C142.5,296.5,143,293,147.9,290.3z"/>
				<path class="st4" d="M76.5,300.7v17.9c2.2,5,2.2,10.7,0,15.8v2.1c-0.5-0.4-1-0.7-1.6-1.1c-5.5,6.8-12.9,2-19.3,2.9
					c-2,0.3-3.3-2.2-3.3-4.6v-58.2c0-4,2.8-5.2,5.9-5c5.6,0.4,12-2.3,16.7,3.1c0,0,1-0.8,1.5-1.2v27.3c0.4,0.2,0.5,0.5,0.4,0.7
					S76.6,300.7,76.5,300.7z"/>
				<path class="st4" d="M142.7,286c-0.1-8.4-0.1-8.4,8.4-8.4c41,0,82.1-0.1,123.1-0.3c2.6,0,3,0.9,3,3s0,3.8,0,5.8
					c-1.9,1.7-4.2,1.5-6.5,1.5H149.2C146.9,287.5,144.6,287.7,142.7,286z"/>
				<path class="st4" d="M142.7,286h134.5v2.1c-1.3,0.8-2.7,0.5-4.1,0.5H146.8c-1.4,0-2.8,0.3-4.1-0.5V286z"/>
				<path class="st4" d="M278.2,299.7c0-7.8,0.1-15.6,0-23.4c0-2.9,0.9-4.1,3.9-4c4,0.2,8,0.1,12,0.1c3.4,1.9,4.8,4.8,4.6,8.6
					c-0.3,4.9-0.2,9.7-0.1,14.6c0.1,6.3-1.5,7.7-7.7,7.7c-4.3,0-8.8,0.9-12-3.3L278.2,299.7z"/>
				<path class="st4" d="M77.6,299.7c-0.1-11.6-1-9.3,9.2-9.4c8.9-0.1,17.8,0.3,26.6-0.1c5.2-0.2,7,1.5,6.2,6.4
					c-0.1,1-0.1,2.1-0.1,3.1c-1.5,1.5-3.4,1.5-5.4,1.5c-10.4,0-20.8,0-31.2,0C81,301.1,79.1,301.1,77.6,299.7z"/>
				<path class="st4" d="M121.7,303.9c-1.3-0.7-1-2-1-3.1c-0.4-0.2-0.5-0.5-0.4-0.7s0.2-0.4,0.4-0.4c0-7.7,0.2-15.3,0-23
					c-0.1-3.5,1.2-4.6,4.6-4.4c5.2,0.4,11.8-2.1,15.2,0.9s1,9.8,1.2,15c0.2,3.8,0.1,7.7,0.1,11.5c0.4,0.2,0.5,0.5,0.4,0.7
					s-0.3,0.3-0.4,0.3c-0.1,1.2,0.2,2.4-1.1,3.1c-1.5-1.6-1.4-3.8-2.1-5.7c-0.9-6.3,0.1-12.6-0.6-18.9c-0.4-1.2-1.2-2.1-2.3-2.8
					c-2.9-1.1-6-1.1-8.9,0c-1.1,0.7-1.9,1.7-2.4,2.8c-0.7,6.3,0.3,12.6-0.6,18.9C123.2,300.1,123.2,302.3,121.7,303.9z"/>
				<path class="st4" d="M77.5,286c0-8.4,0-8.4,8.2-8.4c8.5,0,17.1-0.1,25.6,0c8.9,0.1,8.2-1.7,8.2,8.4c-1.5,1.4-3.5,1.5-5.4,1.5
					H83.5C81.4,287.6,79.3,287.1,77.5,286z"/>
				<path class="st4" d="M141.7,300.7c0-0.3,0-0.7,0-1h1.1c0.5-0.6,1.4-0.6,2-0.1l0,0l0.1,0.1h130.3c0.6-0.5,1.4-0.5,2,0l0,0l1,0.1
					h0.1c0.2,0.6,0,1.3-0.6,1.6c-1.6,0.7-3.3,1-5.1,0.9c-41.1-0.1-82.2,0-123.3-0.1c-2.3,0-4.6,0.4-6.4-1.4L141.7,300.7z"/>
				<path class="st4" d="M142.7,288.2h134.4c-1.6,1.7-3.6,1-5.4,1c-41.2,0-82.3,0-123.5,0C146.3,289.1,144.3,289.8,142.7,288.2z"/>
				<path class="st4" d="M77.5,286h42v2.1c-13.7,0.8-27.3,0.8-41-0.1L77.5,286z"/>
				<path class="st4" d="M278.2,300.8v-1.1c1.5-1.9,1.5-1.9,2.1-0.5c1.7,3.4,7.4,5,13.1,3.5c3.9-1,3.8-4,3.7-7.1s0-6,0-8.9
					c0-5,0.9-10.2-3.1-14.4h4.2c0.7,4.5,1.8,8.8,1,13.6c-1,5.8,1,11.9,0,17.9c-7-0.4-14,1.2-21-0.9c-0.6-0.5-0.6-1.4-0.1-2
					L278.2,300.8z"/>
				<path class="st4" d="M299.2,303.8c-2-5.7-0.6-11.6-0.9-17.4c-0.2-4.7-0.1-9.3-0.1-14h2.2c0.8,0.9,0.8,2.3,0,3.1
					c-1,0.7-1.1,1.4,0,2.1c1.9,2.8,2.1,5.6,0,8.4c-1.5,1.3-1.6,3.5-0.4,5l0,0c0.1,0.1,0.2,0.2,0.3,0.3c2.2,2.8,2,5.6,0.1,8.4
					c-0.8,0.4-0.7,0.8,0,1.2c0.8,0.9,0.8,2.2,0,3.1l-0.1,0.1L299.2,303.8z"/>
				<path class="st4" d="M120.6,299.7c0,0.3,0,0.7,0,1l-1.1,0.1c-1.3,1.1-3.1,1.6-4.8,1.5c-10.7-0.1-21.5-0.1-32.2,0
					c-1.7,0.2-3.5-0.3-4.8-1.5l-1.1-0.1c0-0.3,0-0.7,0-1H120.6L120.6,299.7z"/>
				<path class="st4" d="M78.6,288.1l41,0.1c-0.6,0.3-1.2,0.9-1.8,0.9c-12.9,0.1-25.8,0.1-38.6,0.1c-0.2,0-0.4-0.1-0.4-0.2
					C78.7,288.7,78.6,288.4,78.6,288.1z"/>
				<path class="st4" d="M277.1,299.6h-2c-0.4-0.5-1.3-1.4-1.2-1.5c3.3-4.3-0.4-5.9-3-7.8C277.4,290.2,277.4,290.2,277.1,299.6z"/>
				<path class="st4" d="M144.8,299.6h-2c0-1.4,0-2.7-0.1-4.1c-0.6-4.1,0.9-6.1,5.3-5.2C143.8,292.4,145.8,296.5,144.8,299.6z"/>
				<path class="st4" d="M76.5,334.3v-15.8h1c0.6,0.1,1,0.5,1.1,1v1c5.4,1.3,11,0.3,16.5,0.6c8.1,0.4,16.3-0.6,24.4,0.5h1.2v12.6h-1
					c-2.7-2.5-5.2,0.2-8,0.1c-10.6-0.7-21.3,1-31.8-1c-0.9-0.1-1.8,0.2-2.3,0.9h-0.5L76.5,334.3z"/>
				<path class="st4" d="M343.4,304.9v-25.2c0-6.3,1.2-7.4,7.3-7.4h15.2c7.5,0.1,12.1,4.6,12.1,12c0.1,13.6,0.1,27.3,0,40.9
					c0,7.2-4.8,12-12.1,12.2c-5.3,0.1-10.5-0.2-15.8,0.1s-6.8-2.3-6.8-6.9C343.4,322.1,343.4,313.5,343.4,304.9z"/>
				<path class="st4" d="M300.3,275.5v-3.1c2.7,1.6,5.9,2.4,9,2.1c4.9-0.2,9.8-0.1,14.7,0c5.5,0,11.1,0.9,15.2-4.2
					c0.6,3.9-0.7,5.5-5,5.4C322.9,275.3,311.6,275.5,300.3,275.5z"/>
				<path class="st4" d="M196.3,274.4c1.6-1.7,3.6-1,5.4-1c23.4,0,46.8,0,70.2,0c-1.6,1.7-3.6,1-5.4,1
					C243.1,274.5,219.7,274.5,196.3,274.4z"/>
				<path class="st4" d="M146.9,273.4h42.9c1.8,0,3.9-0.7,5.4,1.1h-42.9C150.5,274.4,148.4,275.1,146.9,273.4z"/>
				<path class="st4" d="M550.3,291.2c6.2-5.7,13.6-7.1,21.7-6.3c3.4,0.3,5.9,1.5,7.8,4.4c7.7,11.9,15.7,23.8,20.8,36.9
					c4.5,11.5,3.5,21.5-7.2,30.8c-10,8.7-20.1,6.8-30.8,6.1c-8.5-0.6-17.1,0-25.6-1.3c-4.3-0.7-13.3-10-12.8-14.1
					c0.3-2.1,1.5-1.4,2.6-0.6c2.9,2.2,5.9,4.3,8.7,6.7c3.7,3.1,7.9,4.6,12.6,3.5c7.5-1.6,14.9-3.4,22.4-5.2c7.8-2,9.8-4.8,10.3-13.5
					c0.1-3.8,0.4-7.7,0.9-11.5c1-5.9-0.6-10.9-5.1-15.6c-6.2-6.6-13.2-11.1-22.1-12.7c-0.2-0.6,0-1.2,0.5-1.5c6.2-2,11.4,0.8,16,4.2
					c3.9,3,7.4,6.5,10.4,10.3c3.7,4.3,4.4,9.5,3.9,14.9c-0.4,4.7-0.8,9.5-1.2,14.1c-0.8,8.9-4.3,12.6-12.9,14.7
					c-4.9,1.2-9.9,2.3-15.1,3.5c7.5,1.1,15,1.6,22.5,1.5c3.9,0.1,7.7-1.4,10.4-4.1c1.5-1.5,2.9-3.1,4.5-4.4
					c7.7-6.3,7.2-14.5,4.5-22.5c-4.6-13.5-12.9-25.2-20.4-37.2c-1.4-2.3-3.9-3.7-6.6-3.5c-5.4,0-10.9-0.9-15.3,3.7
					c-1.3,1.3-3.3,1.5-4.9,0.5C550.3,292.4,550.1,291.7,550.3,291.2z"/>
				<path class="st4" d="M550.3,291.2v1.1l-0.5,0.5c-2.8,1-5.8,1.7-8.8,1.9c2.4,0.1,4.1,0.4,5.8,0.7c0.5,0.1,1,0.2,1.4,0.3
					c1.8,0.8,3.9,0.4,5.7,1.3l0.5,0.5v1c-3.3,0.1-6.6-0.3-9.8-1c-7.5-1.6-13.5,2.7-19.8,5.4c-7.4,3.2-14.5,7-21.6,10.7
					c-6.8,3.5-7.3,7.3-1.6,12.4c3.2,2.9,6.8,5.4,10.1,8.2c0.9,0.8,2,1.7,1,3.1c-0.7,0.9-1.8,1.2-2.8,0.9c-7.7-1.3-15.4-2.6-23.1-3.8
					c-4.1-0.7-6-3-6-7.1c0.1-6.3,0-12.6,0-18.9c0-4.7,1.9-7.1,7-6.7c4.9,0.3,9.8-0.1,14.7,0.1c7.1,0.3,14.1-1.3,20.3-4.8
					C531.2,292.6,541,292.2,550.3,291.2z"/>
				<path class="st4" d="M501,317.5c11.9-6.9,24.3-13,37.1-18.2c2.8-1.1,5.2-0.2,7.6,0.4c6.8,1.9,14.4,0.6,20.5,5.1
					c-0.4,0.5-0.8,0.8-1.4,1c-5.4,0.4-10.5-1.6-15.8-2c-6.1-1.8-11.8-1.9-17.4,1.9c-4.3,2.9-9.5,4.4-13.8,7.4
					c-0.8,0.6-1.8,1.1-2.8,1.4c-3,0.7-5.9,1.9-8.6,3.3c-1.7,0.8-3.3,1.9-5.3,1c-0.4-0.3-0.5-0.8-0.2-1.1l0,0
					C500.8,317.7,500.9,317.6,501,317.5z"/>
				<path class="st4" d="M577.7,316.5c4.4,4.9,1.3,10.6,1.8,16c0.1,1.3-0.7,2.7-0.7,4.1c0.1,14.6-4.1,12.2-13.1,14.6
					c-5,1.3-10.2,2.5-15.2,3.6c-3.2,0.7-6.5,1.4-9.6-0.5c0.3-0.5,0.8-0.9,1.3-1.1c8.7-2.8,17.6-4.3,26.5-6.4c4.7-1,6.5-3,6.7-8
					c0.4-7,0.6-13.9,1.2-20.9C576.8,317.4,577.2,316.8,577.7,316.5z"/>
				<path class="st4" d="M526.2,343.8l-1-1c-4.3-2.6-7.7-6.4-11.6-9.5c-4.5-3.2-8.7-6.7-12.6-10.5c-0.5-0.5-0.6-1.3-0.4-2
					c1.9-1.3,3,0.6,4.4,1c0.4,0.2,0.8,0.5,1.1,0.8c1.3,1.3,2.7,2.5,4.3,3.5c0.6,0.4,1.1,0.8,1.6,1.3c1.3,1.5,2.8,2.8,4.5,3.8
					c0.4,0.2,0.7,0.5,1,0.8c1.2,1.3,2.6,2.4,4.1,3.3c0.4,0.2,0.7,0.5,1,0.8c1.2,1.2,2.5,2.4,3.9,3.4c0.3,0.3,0.6,0.6,0.9,0.9
					c0.1,0.4,0.2,0.8,0.1,1.3C527.4,342.6,526.9,343.3,526.2,343.8z"/>
				<path class="st4" d="M526.2,343.8c-0.1-0.8,0.3-1.7,1-2.1c5.1,0.8,7.8,5.3,11.9,7.8c1.4,1.4,3.5,2.2,2.9,4.8h-1.1
					C535.1,352,531.3,347,526.2,343.8z"/>
				<path class="st4" d="M577.7,316.5v1c-5.8-2.2-10.4-6.8-12.6-12.6h1.1C570.4,308.3,574.3,312.2,577.7,316.5z"/>
				<path class="st4" d="M513.6,333.3c4.7,2.1,8,6,11.6,9.5C520,341.1,516.8,337.3,513.6,333.3z"/>
				<path class="st4" d="M501,320.7v2.1c-1.5-1.3-1.6-3.5-0.3-5l0,0l0.3-0.3v1c0.6,0.5,0.7,1.4,0.2,2l0,0L501,320.7z"/>
				<path class="st4" d="M420,395.3l-2.1-2.1c-3.1,0.4-4.7-0.9-4.2-4.2h1c2.1-1.7,2-3.5,0-5.2c-1.5-1.4-1.5-2.8,0-4.3
					c2.1-1.7,2-3.5,0-5.2c-1.5-1.4-1.5-2.8,0-4.2c2-1.7,2.1-3.5,0-5.2c-1.6-1-0.9-2.8-1-4.2c2.6-1.3,3.8-2.8,1-5.2
					c-1.5-1.4-1.5-2.8,0-4.3c1.5-1.4,2.5-3,2.1-5.3c-2.3,0.2-3.4-0.8-3.1-3.1c0.9-0.2,1.8-0.1,2.6,0.3c14.8,0.5,29.7,0.7,44.5-0.1
					c0.8-0.4,1.3-1,2.1-1.5c0.5-0.2,1.1-0.1,1.6,0.1c2.4,2.5,1.7,4.3-1.3,5.6c-3.4,2.8,0.8,2.7,1.5,3.9c1.4,1.6,1.7,3.1,0.1,4.8
					c-3.6,1.3-3.9,2.8-0.2,4.5c1.2,1,1.7,2.7,1,4.2c-0.7,1.7-7.3,2-1.1,5.3c1.5,1.6,1.6,3.1,0.1,4.8c-5.9,2.9-0.4,3.6,1,5.2
					c0.7,1.8,0.3,3.1-1.5,4c-1.8,0.2-4-0.6-4.2,2.4c-0.1,2.4,1.3,2.9,3.3,2.9c0.9-0.1,1.7,0.5,1.8,1.4v0.1c0.1,1.1-0.6,2.1-1.6,2.4
					c-1.4,0.5-3.3,0.1-3.4,2.4c-1.2-1.8-3.4-2.6-5.5-2.1c-7.9,1.3-16-1.6-23.8,1c-0.3,0.1-0.8-0.6-1.2-0.9
					C426.6,394.9,422.6,391.9,420,395.3z"/>
				<path class="st4" d="M418,328c-0.8-1.7-4-0.2-4-2.6s3.1-0.9,4-2.6c-1.1-1.2-1.1-3,0-4.2c-0.8-1.7-4-0.2-4-2.6s3.2-0.9,4-2.6
					l0.5-0.5c0.6-0.4,1.4-0.6,2.1-0.6c2.3-0.7,5.4,1.4,6.9-1.9c-2.1-1.6-4.3-0.8-6.5-0.5c-0.5,0.2-1,0.3-1.5,0.4
					c-0.8,0.1-1.6,0.1-2.4,0c-0.9-0.1-1.6-0.8-1.7-1.7c-0.1-1,0.5-1.9,1.5-2.1c14.9-0.5,29.9-0.2,44.8-0.1c0.6,0.1,1.1,0.3,1.5,0.6
					c1,1.6-0.6,2.2-1.2,3.1s-0.4,2,0.3,2.8c1.4,1,3.8,1,3.8,3.5s-2.6,2.3-3.8,3.5c-0.5,0.7-0.5,1.7,0.1,2.4c5.2,3,5.2,3.9-0.2,7.4
					c-0.6,1-0.8,2.3-1.3,3.4c-1,1.2-2,1.5-3.1,0.1c-0.3-2.4-0.8-4.3-3.9-4.5c-3.5-0.2-3.8,2.3-4.7,4.5c-1.1,1.2-2.2,1.2-3.2-0.1
					c-0.8-1.6-0.8-4-3.6-3.4c-3.4,0.7-7.9-1.8-9.8,3.4c-1,1.2-2.1,1.4-3.2,0.2c-1.1-1,0.1-3.7-2.6-3.7s-5,0.8-5.9,3.7
					c-1.4,1.3-2.5,0.9-3.4-0.6C416.6,330.9,416.9,329.2,418,328z"/>
				<path class="st4" d="M408.5,348.5v-35.6c0-1.8-0.4-4.6,2.4-4.2c2.4,0.4,1.7,2.8,1.3,4.8c-0.9,4-0.1,8.2,0,12.2
					c0.1,12.2-0.2,24.5-0.1,36.7c0,7.2-0.5,14.6,0.4,21.9c0.2,1.8,0.6,4-1.6,4.2c-2.4,0.3-2.3-2.1-2.3-3.8
					C408.5,372.6,408.5,360.5,408.5,348.5z"/>
				<path class="st4" d="M463.2,341.7v2c-4.4,1.1-9,0.5-13.4,0.5c-11.6-0.1-23.2,0.5-34.8-0.3l-1.1-1.2l1-1c1.5-1,1.8-3,3.2-4.2
					c-1.1-1.7-6.7-0.8-3.2-5.3c0.4-0.3,0.9-0.3,1.3,0c0.4,0.6,0.9,1.2,1.5,1.7c14.5-0.1,29,0.5,43.4-0.3c0.6-0.6,1.2-1.1,1.9-1.6
					c0.5-0.2,1.1-0.2,1.6,0c3.8,3.8,0,4.9-2.3,6.4C461.3,339.9,462.7,340.7,463.2,341.7z"/>
				<path class="st4" d="M463.2,308.1v-1c-9.2-1.2-18.4-0.5-27.6-0.5c-6.5,0-13.1-0.8-19.7,0.5v2c-0.2,0.3-0.5,0.4-0.8,0.2l0,0
					c-0.1-0.1-0.1-0.1-0.2-0.2l-1-1.1c-0.5-4,5-3,5.3-6.3c1.2,2.4,2.9,4.1,5.7,3.1c5.7-2,11.5,1.2,17-0.1c4.5-1,8.6,0.1,12.8,0.2
					c2.3,0,4.2-0.3,4.4-3.2c1.2,1.5,1.8,3.5,4.5,3.3c1.9-0.2,1.8,1.6,1.8,3c-0.5,0.6-1.4,0.6-2,0.1H463.2z"/>
				<path class="st4" d="M414.9,355.4c2.1-0.2,3.3,0.5,3.1,2.9c-0.2,3.1-2.5,2.1-4.2,2.3C414.7,359,415,357.2,414.9,355.4z"/>
				<path class="st4" d="M414.8,374.3c2.1-0.2,3.3,0.5,3.1,2.9s-1.5,2.4-3.1,2.3V374.3z"/>
				<path class="st4" d="M414.9,364.9c1.7-0.1,3.1,0.1,3.1,2.3s-1.1,3-3.1,2.9C414.8,368.3,414.8,366.6,414.9,364.9z"/>
				<path class="st4" d="M414.8,383.7c2-0.2,3.3,0.4,3.2,2.8s-1.5,2.4-3.2,2.3C414.8,387.2,414.8,385.5,414.8,383.7z"/>
				<path class="st4" d="M416.9,345.9c1.7,2.7,2.4,5-2.1,5.3C414.4,349.2,415.2,347.1,416.9,345.9z"/>
				<path class="st4" d="M418,318.6v4.2c-1.4-0.1-2.9,0.1-3-1.8C414.8,318.7,416.3,318.6,418,318.6z"/>
				<path class="st4" d="M415.8,332.3h-1c-0.1-2.2-0.2-4.5,3.2-4.2v4.2c-0.5,0.6-1.4,0.6-2,0.1C415.9,332.3,415.9,332.3,415.8,332.3
					z"/>
				<path class="st4" d="M418,337.5c0.1,2.3,0.3,4.6-3.2,4.2C414.7,339.4,414.7,337.2,418,337.5z"/>
				<path class="st4" d="M414.8,309.1c0.3,0,0.7,0,1,0l2.1,0.1c1.1,1.2,1.1,3,0,4.2l0,0C414.6,313.7,414.8,311.4,414.8,309.1z"/>
				<path class="st4" d="M413.8,293.4c-1.8,3.8-6.4,4.9-8.4,8.4c-2.1,1.8-2.1,4.2-2.1,6.7c0,8.2,0.1,16.4,0,24.6
					c-0.1,3.6,0.3,8-4.9,8.4c-5.5,0.4-12.9-4.6-12.9-8.6c-0.1-17.3-0.1-34.6,0-51.8c-0.1-2.4,1.4-4.5,3.7-5.1c2.2-0.8,4.6-0.2,6,1.6
					c1.6,1.8,3.2,3.6,4.8,5.4c4.8,1.9,9.7,3.3,14.7,4.2C418.5,289.5,418.5,289.5,413.8,293.4z"/>
				<path class="st4" d="M460,337.5c1.1-2,7.5,0.2,4.2-5.3c-0.5-2.3-2.5-3-4.2-4.2c0.2-0.3,0.5-0.5,0.7-0.7c1.3-1,4.2,0.6,4.2-2
					s-2.9-1-4.2-2c-0.3-0.2-0.5-0.5-0.7-0.7c0.2-2.3,4.7,1.2,3.6-2.6c-0.4-1.5-2.8,0-3.6-1.5c0.2-0.3,0.5-0.5,0.7-0.7
					c1.3-1,4.2,0.6,4.2-2s-2.9-1-4.2-2c-0.3-0.2-0.5-0.5-0.7-0.7c1.8-0.9,3.7-1.8,4.5-3.9l0.7-0.3c1.5-0.7,1.6-3.7,3.9-2.5
					c1.9,1,1.3,3.1,1.3,4.8v72.5c0,2.1,1,5.3-2.1,5.6c-2.8,0.3-2.9-2.9-3.5-5c-0.1-0.3-0.5-0.5-0.7-0.8c0.8-1.3,1.1-2.7,1-4.2
					c-2.3-1.4-2.2-3.2-1-5.2c0.9-1.2,0.9-3,0-4.2c-1.1-2.1-1.2-3.9,1-5.2c0.1-1.5-0.3-2.9-1-4.2c-0.9-1.7-1.6-3.5,0-5.2
					c1.9-1.4,0.6-2.8,0-4.2c-0.6-1.8-2.5-3.1-2.1-5.3c3.7,0.1,3.5-1.8,2.1-4.2C463,340.1,461.6,338.7,460,337.5z"/>
				<path class="st4" d="M463.2,308.1h2.1v1c-1.7,1.1-3.5,1.5-5.2,0.1C460.7,307.9,462,308.1,463.2,308.1z"/>
				<path class="st4" d="M438.9,296.5h14.7c2,0,4.3,0.2,4,2.9s-2.7,4.3-5,3.1c-3.9-2.1-7.2-1.4-10.9,0.1c-2,0.7-4.2,0.6-6.2-0.2
					c-3.2-1.4-6.1-2.2-9.4-0.1c-1.9,1.2-3.7-0.2-5.2-1.5c-0.9-0.7-1-1.9-0.4-2.9c1-1.6,2.6-1.5,4.2-1.5h14.2V296.5z"/>
				<path class="st4" d="M491.5,256.6c19.3,0.8,36.6,7.6,53,17.4c2.7,1.6,4.2,3.8,3.5,6.9s-3.1,4-6,4c-10.1,2.3-20.9,2.3-29.4,9.5
					c-10.1,0.8-20.3,0.8-30.5,0c-9.2-0.9-17.7-4.8-26.7-6.6c-6.1-1.2-12.3-2-18.4-2.9c-1.1-1.5-2.8-0.9-4.2-1h-2.1
					c-1.6-1.3-3.7,0.2-5.2-1c-5.5,0-10.9-0.4-15.8-3.1c-0.2-4.1,2.7-5.3,5.8-6.3c13.5-4.5,26.8-10,41.3-10.7c0.4,0,0.8-0.6,1.3-0.9
					c3.2,0.5,6.3-0.8,9.5-1c1.5-0.1,3.1,0.5,4.2-1C478.4,259.4,485,258.4,491.5,256.6z"/>
				<path class="st4" d="M482.1,294.4h30.5c-2.2,2-5,1-7.5,1C497.4,295,489.6,296.8,482.1,294.4z"/>
				<path class="st4" d="M413.8,293.4c0.7-2,4.9-3.5,1-6.3c1.2,0.2,2.4,0.4,3.5,0.8c1,0.3,2.2,0.7,2.1,2c-0.1,1-1.1,1.1-1.9,1.5
					C416.9,291.9,415.3,292.7,413.8,293.4z"/>
				<path class="st4" d="M425.3,282.9c1.8,0.2,3.8-0.7,5.2,1C428.8,283.7,426.8,284.6,425.3,282.9z"/>
				<path class="st4" d="M433.7,396.3c1.4-1.6,3.2-0.9,4.9-1.1c4.9-0.4,9.7,3.2,14.8,0.2c1.5-0.7,3.3,0,4,1.5v0.1
					c0.1,0.3,0.2,0.7,0.2,1c0,2.6-2.6,2.9-4.3,2.3c-5.2-1.9-10.2,0.8-15.4,0.1C436.6,399.1,431.4,401.5,433.7,396.3z"/>
				<path class="st4" d="M433.7,396.3c-0.8,3.6,3,2.6,4.2,4.2c-4.4-0.2-8.8-1.2-13.2-0.1c-1.7,0.4-4.5,0.4-4.1-2.3
					c0.4-2.6,3-3.1,5.4-2.7S430.8,398.5,433.7,396.3z"/>
				<path class="st4" d="M420,395.3c2.4-4.2,6.3-1.2,9.5-2.1c-0.5,2.8-2.4,0.8-3.6,1C423.9,394.4,421.9,394.2,420,395.3z"/>
				<path class="st4" d="M278.2,300.8v2.1c-0.5,4.9-3.7,5.3-8,5.2c-40.1-0.2-80.2-0.1-120.3-0.1c-7.4,0-7.4,0-7.2-7.4L278.2,300.8z"
					/>
				<path class="st4" d="M78.6,319.6l-1.1-1c0.3-9.4-1.5-8.4,8.3-8.4s19.6,0.2,29.3-0.1c4-0.1,4.5,1.6,4.6,5s-0.9,4.7-4.4,4.6
					C103,319.5,90.8,319.6,78.6,319.6z"/>
				<path class="st4" d="M77.6,300.8h41.8c0.3,7.4,0.3,7.4-7.1,7.3H84.8C77.4,308.1,77.4,308.1,77.6,300.8z"/>
				<path class="st4" d="M319.2,319.6c-5.1,0-10.1-0.1-15.2,0c-3.8,0.2-3.7-2.1-3.7-4.7s-0.3-4.9,3.6-4.8c10.5,0.2,21,0.1,31.5,0
					c3,0,4,1.1,3.9,4c-0.1,2.7,0.2,5.5-3.8,5.5C330,319.6,324.6,319.6,319.2,319.6z"/>
				<path class="st4" d="M300.2,303.9c0-1,0.1-2.1,0.1-3.2H339c0.2,7.3,0.2,7.3-7.1,7.3c-9.2,0-18.4-0.1-27.6,0.1
					C301,308.2,299.9,307,300.2,303.9z"/>
				<path class="st4" d="M119.5,321.7H79.1c-0.2,0-0.4-0.1-0.4-0.2c-0.1-0.3-0.1-0.6-0.1-0.9c11.8,0,23.7,0,35.5,0.1
					C115.9,320.7,117.9,320,119.5,321.7z"/>
				<path class="st4" d="M121.7,303.9c0.2-1.8-0.7-3.8,1.1-5.2c5.6,4.1,11.2,4.1,16.8,0c1.7,1.5,0.8,3.5,1,5.2H121.7z"/>
				<path class="st4" d="M140.6,306v4.3c-6-5.1-14.7-4.6-18.9,1.2V306H140.6z"/>
				<path class="st4" d="M209.8,317.5h-57.2c-1.6,0.1-3.1,0-4.7-0.3c-1.3-0.3-2.1-1.4-2-2.7c0-1.1,0.6-2.1,1.6-2.5
					c1.6-1,3.4-0.8,5.1-0.8h114.9c1.1-0.1,2.1,0,3.1,0.2c1.7,0.4,3.5,1,3.3,3.4s-1.8,2.8-3.8,2.8L209.8,317.5L209.8,317.5z"/>
				<path class="st4" d="M268.8,324.9h3.1c1,1,3,1.6,1.8,3.5c-1,1.5-2,0.4-2.9-0.3c-2.2-1-4.5-0.6-6.7-0.6h0.4
					c2.6,0,5.3-0.4,7.5,1.7c-0.2,2-1.7,1.4-2.8,1.4H148.3c-0.5-0.1-1-0.2-1.5-0.5c-2.5-5,0.7-5.2,4.3-5.2h78.7
					C242.9,324.9,255.8,324.9,268.8,324.9z"/>
				<path class="st4" d="M271.9,329.1c3.2-1.4,0.4-2.8,0-4.2c1.8,0.1,3.1,0.9,3,2.9c-0.2,1.6-1.4,2.9-3.1,3.2
					c-1.4,0.2-2.8,0.3-4.2,0.2H152.3c-1.8,0-3.9,0.7-5.4-1h119.6C268.3,330.1,270.4,330.8,271.9,329.1z"/>
				<path class="st4" d="M123.8,321v-3.7c0-7.6,4.2-10.5,11.5-8c2.1,0.7,3.4,2.7,3.1,4.8v15.1c0,5-3.6,5.1-7.4,5.1s-7.2,0-7.3-5.1
					C123.7,326.6,123.8,323.7,123.8,321z"/>
				<path class="st4" d="M295,321.2c0,1.7-0.1,3.5,0,5.2c0.3,4.4-1,7-6.1,6.9c-5.4-0.1-6.5-1.1-6.5-7c0-3.8,0.1-7.7,0-11.6
					c-0.2-4.6,2.7-5.7,6.4-5.7s6.5,1.2,6.3,5.8C294.9,317,295,319.1,295,321.2z"/>
				<path class="st4" d="M300.3,299.6c0-2.8,0-5.6-0.1-8.4c2.1-1.9,4.7-0.9,7-0.9c8.6-0.1,17.1,0.2,25.7-0.2
					c5.1-0.2,7.1,1.4,6.3,6.4c-0.1,1-0.1,2.1-0.1,3.1H300.3z"/>
				<path class="st4" d="M300.3,286v-8.4l35.7-0.2c3.6,0,4.3,2.7,2.2,8.7c-1.2,1-2.8,1.4-4.4,1.4c-9.7,0.1-19.4,0.1-29.1,0
					C303.1,287.5,301.6,287,300.3,286L300.3,286z"/>
				<path class="st4" d="M300.3,286l37.8,0.1v2c-12.6,0.8-25.2,0.8-37.8,0V286z"/>
				<path class="st4" d="M300.3,288.2l37.8-0.1c0.4,1.1-0.5,1-1,1c-11.5,0-22.9,0-34.4,0C301.9,289,301.1,288.7,300.3,288.2z"/>
				<path class="st4" d="M209.9,292.3h56.2c1.4,0,2.8,0,4.2,0.1c1.3,0,2.4,0.9,2.5,2.2c0.2,1.6-1.1,2.2-2.2,2.5
					c-1.5,0.3-3.1,0.5-4.6,0.5H152c-2.1-0.1-4.8-0.2-4.8-2.8c0-2.9,2.9-2.4,4.9-2.4C171.4,292.3,190.6,292.3,209.9,292.3z"/>
				<path class="st4" d="M54.4,304.2c0-8.6,0.1-17.1-0.1-25.7c-0.1-4.1,1.9-5.8,5.6-6c2.3-0.2,4.5-0.2,6.8,0
					c4.1,0.3,6.5,2.6,6.5,6.7c0.1,17.1,0.1,34.3,0,51.4c0,3.9-1.8,5.9-6.2,6c-12.6,0.1-12.6,0.3-12.6-12.5L54.4,304.2z"/>
				<path class="st4" d="M210.2,278.7h59.9c2.3,0,4.5,0.8,4.5,3.3c0,2.1-2.1,3-4.2,3H152.8c-2.9,0-7.2,0.9-7.2-3
					c0-4.4,4.6-3.2,7.5-3.2C172,278.6,191.1,278.7,210.2,278.7z"/>
				<path class="st4" d="M295,287.9v6.3c-0.1,4.2-2.3,6.5-6.5,6.5s-6.4-1.9-6.1-6.5c0.3-4.2,0-8.4,0.1-12.6s2.7-5.1,6.3-5.1
					s6.2,0.9,6.3,5.1C295,283.7,295,285.8,295,287.9z"/>
				<path class="st4" d="M98.4,297.6H84.8c-1.8,0-3.8-0.3-3.8-2.5s1.8-2.7,3.7-2.7h27.7c1.8,0,3.8,0.3,3.8,2.5s-1.8,2.7-3.7,2.7
					H98.4z"/>
				<path class="st4" d="M123.8,277.6l2.1-2.1c3.5-0.8,7.1-0.8,10.5,0c1,0.4,1.7,1.1,2.1,2.1c1.1,6.4,0.4,12.9,0.4,19.3
					c0,3.8-2.9,5.5-8,5.4c-4.8-0.1-7.5-1.8-7.5-5.4C123.3,290.5,122.6,284,123.8,277.6z"/>
				<path class="st4" d="M123.8,277.6c0,5.8-0.1,11.5,0,17.3c0.1,4.5,2.7,6.9,7.4,6.9s7.3-2.4,7.4-6.9c0.1-5.8,0-11.6,0-17.3
					c2.4,6.9,0.4,14,1,21c-1.1,4.7-5,4.2-8.4,4.2s-7.3,0.6-8.4-4.2C123.4,291.6,121.4,284.6,123.8,277.6z"/>
				<path class="st4" d="M136.4,275.5h-10.5C129.2,273.9,133.1,273.9,136.4,275.5z"/>
				<path class="st4" d="M98.7,278.7h13c2.1,0,4,0.9,4.2,3s-2.1,2.9-3.7,3c-9.2,0.2-18.4,0.2-27.6-0.1c-1.5,0-3.8-0.8-3.5-3.1
					c0.3-1.8,2-2.8,3.9-2.8C89.6,278.7,94.1,278.7,98.7,278.7z"/>
				<path class="st4" d="M98,332.2c-5.4,0-10.8-0.2-16.2,0.1c-3.7,0.2-4.4-1.4-4.3-4.7c0.1-2.9,0.1-5,4.1-4.9
					c11.3,0.2,22.7,0.2,34.1,0c4-0.1,4,2,4.1,4.9c0.1,3.2-0.7,4.8-4.3,4.7C109.6,332.1,103.8,332.2,98,332.2z"/>
				<path class="st4" d="M548.3,296.5h-1c-0.6-0.7-2.2-0.3-2.2-1.7c0-1.1,0.9-1.7,2-1.9s2.4,0.3,3.4-0.6l0,0c1.7,0,3.7,0.3,4.9-1.3
					c5.2-6.8,12.6-4,19-3.6c4.9,0.3,6.1,6.3,8.4,10c6,9.5,12,19.1,16.2,29.7c3.9,9.6,1.9,17.9-4.2,25.8c-8.6,11.1-19.9,9.1-31,8.2
					c-3.8-0.3-7.9,0.2-12.1-1c2.1-3.3,5.3-2.8,7.7-3.5c5.2-1.4,10.7-1.9,15.8-3.5c6.1-1.9,7.3-7.6,7.8-13c0.4-4.1,0.4-8.3,1-12.5
					c1-7.3-1.2-13.4-6.8-18.8c-6.5-6.3-12.8-11.8-22.5-11.2l0,0C552.6,296.2,550.2,297.8,548.3,296.5z"/>
				<path class="st4" d="M507.6,335.3c-7.3-0.5-14.6-1.6-21.7-3.5c-1.6-0.4-1.7-2-1.7-3.5c0-7,0.1-14,0-21c0-2.9,1.3-3.5,3.8-3.5
					c7.4,0.1,14.7,0,22,0c4.3,0,8.2-0.6,11.4-4c1.8-1.9,4.3-3,8.4-1.5c-9.2,4.5-17.5,8.8-25.9,12.7c-3.8,1.7-7.3,3.4-8.1,7.9
					s2.2,6.9,5.5,9.2c2.3,1.8,4.5,3.8,6.6,5.8L507.6,335.3z"/>
				<path class="st4" d="M550.4,292.3c-0.7,1-1.8,0.9-2.8,1.1c-3.1,0.6-1.3,1.9-0.4,3.1c-2.3,0.2-4.7-0.4-6.7-1.6
					C543.4,293,546.9,292,550.4,292.3z"/>
				<path class="st4" d="M548.3,296.5c2.1,0.3,4.5-0.8,6.3,1C552.5,297.2,550.1,298.4,548.3,296.5z"/>
				<path class="st4" d="M565,304.9c3.8,4.6,8,8.8,12.6,12.6c0.7,8.4-1,16.6-1.1,24.9c0,2.4-1,4.1-3.8,4.7
					c-10.3,2.2-20.5,4.8-30.8,7.2l-3.2-4.2l0.6-0.5c5.8,2,11.3-0.4,16.8-1.4c3.6-0.6,7.1-1.8,10.7-2.5c6-1.2,6.9-2.1,7.2-8.3
					c0.2-4.4,0.2-8.7,1-13c0.6-2.8-0.4-5.7-2.6-7.5c-2.9-2.6-5.4-5.5-8.3-8c-1.7-1.6-4.1-2.2-6.3-1.5c-1.9,0.8-1,3.1-0.8,4.8
					c1.2,7.3-2.8,11.5-8.4,14.8c-3.3,0.5-6.5,1.1-9.7-0.6c0.3-4.3,3.8-2.1,5.9-2.9c6.8-2.2,9-5.5,7.8-12.1c-0.3-1.7-0.3-3.5-1.1-5
					c-0.8-1.2-2.4-1.2-3.4-2.1c-0.3-0.4-0.3-0.9,0-1.3C554,302.5,559.4,304.7,565,304.9z"/>
				<path class="st4" d="M514.8,313.3c0.8,0.1,1.6-0.2,2-0.9c6.3-2.8,12.4-6,18.5-9.1c2.4-1.2,4.8-2,7.4-0.9
					c0.5,0.2,0.7,0.7,0.7,1.2c-0.4,0.8-1.1,1.4-2,1.6c-6,1.5-8.6,5.4-8.1,11.6c-0.8,1.8-2.4,3-4.3,3.4c-4.5-1.4-8.7-3.8-13.7-3.8
					C513.5,316.3,512.6,314.8,514.8,313.3z"/>
				<path class="st4" d="M514.8,313.3c-0.8,1.5-0.4,2.4,1.3,2.1c5.2-0.9,9.2,1.8,13.2,4.2c4.7,1.5,9.4,3.3,14.5,3.1
					c1.1,0,2.5,0.5,2.3,2.1c-2.5,0.4-5.2-0.9-7.4,1c-0.7,0.8-1.8,1.1-2.9,0.8c-1-0.3-2-0.6-2.9-1.1c-2.5-1.3-4.8-2.8-7-4.5
					c-5-4.1-10.6-3.6-16.3-2.8c-2.5,0.3-4.7,1.4-4.5,4.6c-1.8,0.2-2.7-1.5-4.2-2.1v-2.1C505.8,317.5,509.7,313.9,514.8,313.3z"/>
				<path class="st4" d="M543,302.9c-4.4-0.9-8,1.4-11.7,3.1c-4.8,2.2-9.2,5.5-14.5,6.4c6.7-4.8,14.2-7.9,21.7-11.2
					c2.9-1.3,6.7,0.1,9.8,1.6v1C546.3,304.8,544.6,304.1,543,302.9z"/>
				<path class="st4" d="M505.2,322.8c-1.3-1.8-2.5-3.4,0.7-4.6c6.5-2.5,13-3.2,19.2,0.8c2.9,1.9,5.6,3.9,8.4,5.9
					c0.1,1.8-1.1,1.3-2,1c-1.7-0.4-3-1.6-4.6-2.2c-1.7-0.9-3.2-1.9-4.7-3.1c-1.4-1-3-0.8-4.5-0.9c-0.7,0.1,0.2,0-0.5,0
					c-1.9,0.1-4.3-0.1-4.9,2.1c-0.5,1.8,1.5,3.1,2.9,4c6.5,4.5,12,10.1,18.2,14.8c2.2,1.7,4.5,3.4,5.6,6c0.1,0.8-0.5,1.5-1.2,1.6
					c-4.1-1.8-7.1-5.2-10.6-7.9l0,0c-1.9-1.2-3.3-3-5.3-4.2l0,0c-1.9-1.2-3.3-3.1-5.2-4.2l0,0c-1.9-1.2-3.3-3.1-5.2-4.2l-1-1
					c-1.9-1.2-3.3-3.1-5.3-4.3L505.2,322.8z"/>
				<path class="st4" d="M527.2,340.6c4.2,1.4,6.8,5.2,10.5,7.4c0.8,0.5,1.6,0.9,1.1,2.1h-0.1c-4.6-1.8-7.5-5.9-11.5-8.4V340.6z"/>
				<path class="st4" d="M505.2,322.8c2.6,0.3,4,2.2,5.3,4.3C507.8,326.7,506.4,324.8,505.2,322.8z"/>
				<path class="st4" d="M516.7,332.2c2.7,0.3,4,2.2,5.2,4.2C519.4,336.2,518,334.2,516.7,332.2z"/>
				<path class="st4" d="M511.5,328c2.7,0.3,4,2.2,5.3,4.2C514.1,332,512.8,330,511.5,328z"/>
				<path class="st4" d="M522,336.4c2.7,0.3,4,2.2,5.3,4.2C524.6,340.4,523.3,338.4,522,336.4z"/>
				<path class="st4" d="M415.8,362.3h46.6v0.9h-46.5L415.8,362.3z"/>
				<path class="st4" d="M415.8,381.1h46.6v1h-46.6C415.8,381.7,415.8,381.4,415.8,381.1z"/>
				<path class="st4" d="M462.4,353.9h-46.6v-0.8h46.6V353.9z"/>
				<path class="st4" d="M415.8,390.4h46.7v1h-46.6C415.8,391.1,415.8,390.8,415.8,390.4z"/>
				<path class="st4" d="M462.4,372.9h-45.8v-1h45.9C462.4,372.2,462.4,372.5,462.4,372.9z"/>
				<path class="st4" d="M440.1,383.7c2,1.1,6.7-2.2,6.9,2.2c0.2,5-4.6,2.5-7.4,3c-1.7,0.2-3.5,0.2-5.2,0c-2,0-2.8-0.9-2.8-2.9
					s1.2-2.4,2.8-2.3L440.1,383.7z"/>
				<path class="st4" d="M439.5,360.6h-4.7c-1.8,0-3.1-0.3-3.1-2.5s1-2.8,2.9-2.7h9.5c2.1,0,3.4,1,3.2,3.1s-2,2-3.5,2
					S440.9,360.6,439.5,360.6z"/>
				<path class="st4" d="M438.8,351.2c-2-1.3-7,2.6-6.9-2.8c0.1-4.4,4.6-1.8,7.1-2.4c1.4-0.1,2.8-0.1,4.2,0c2.1,0,4,0.4,4,3
					s-2.2,2.2-3.8,2.2C442,351.2,440.6,351.2,438.8,351.2z"/>
				<path class="st4" d="M439.4,370.1h-4.6c-1.8,0-3.1-0.3-3.2-2.5s1-2.8,2.9-2.8h9.3c1.7,0,3.2,0.5,3.3,2.5
					c0.1,2.3-1.6,2.8-3.6,2.8H439.4z"/>
				<path class="st4" d="M439,379.7c-2.2-1.5-7.3,2.4-7.1-3c0.1-4.4,4.7-2.4,7.1-2.2c2.8,0.1,8-2.4,7.9,2.6
					C446.8,381.5,441.8,378.6,439,379.7z"/>
				<path class="st4" d="M453.6,374.2c1.9,0.6,5.1-1.2,5.2,2.5c0.1,4.2-3.3,2.6-5.4,2.7s-5,1.2-4.9-2.6S451.7,374.7,453.6,374.2z"/>
				<path class="st4" d="M453.8,364.8c2,0.4,5.2-1,5,2.8c-0.3,4-3.6,2.2-5.7,2.4c-1.8,0.2-4.6,1-4.6-2.4
					C448.5,363.3,451.9,365.4,453.8,364.8z"/>
				<path class="st4" d="M425.2,351.2c-2-0.5-5.1,1.1-5.1-2.7s3.1-2.5,5.1-2.6c2.2-0.1,5.1-0.6,5.2,2.7
					C430.4,352.5,427.1,350.6,425.2,351.2z"/>
				<path class="st4" d="M453.8,351.3c-1.8-0.7-5,1.3-5.2-2.5s2.8-2.8,4.8-2.8c2.3,0,5.5-0.8,5.4,3
					C458.6,352.4,455.6,350.7,453.8,351.3z"/>
				<path class="st4" d="M453.5,360.7c-2.1-0.4-5.2,1-5-2.9s3.3-2.2,5.2-2.4c2.2-0.2,5.1-0.5,5,2.9
					C458.6,362.2,455.3,360,453.5,360.7z"/>
				<path class="st4" d="M453.2,389c-1.8-0.4-4.6,1-4.6-2.5c0-4.2,3.4-2.6,5.5-2.7c1.8-0.1,4.8-1.2,4.8,2.2
					C458.7,389.8,455.4,388.7,453.2,389z"/>
				<path class="st4" d="M425,389c-2-0.4-5,1-4.9-2.8c0.1-3.4,2.8-2.4,4.6-2.5c2.4-0.1,5.5-0.5,5.3,3.1
					C429.9,389.9,426.9,388.6,425,389z"/>
				<path class="st4" d="M414.9,343.9l48.2-0.2c-0.8,1.2-2.1,1-3.3,1h-42C416.8,345,415.7,344.7,414.9,343.9z"/>
				<path class="st4" d="M424.3,360.6c-1.7-0.2-4.4,0.7-4.1-2.7c0.3-4,3.5-2.3,5.6-2.5c1.6-0.1,4.2-0.9,4.1,2.2
					C429.7,361.4,426.8,360.6,424.3,360.6z"/>
				<path class="st4" d="M424.6,364.7c1.9,0.5,4.7-1,4.9,2.5c0.2,3.9-2.8,2.8-4.9,2.8s-4.6,0.9-4.6-2.6S422.9,365.2,424.6,364.7z"/>
				<path class="st4" d="M424.7,379.5c-2-0.2-4.7,0.7-4.5-2.8s2.8-2.4,4.7-2.4s4.6-1,4.7,2.4C429.6,380.6,426.5,379.1,424.7,379.5z"
					/>
				<path class="st4" d="M465.3,364.8c-1.5,1.5-0.3,3.6-1,5.3c-2,0-4.5,0.5-4.2-2.9C460.4,363.5,463.4,365.3,465.3,364.8z"/>
				<path class="st4" d="M464.2,374.3c0.8,1.7-0.5,3.8,1,5.2c-1.9-0.6-4.9,1.3-5.3-2.4C459.7,373.9,462.2,374.3,464.2,374.3z"/>
				<path class="st4" d="M464.2,355.4v5.2c-2-0.1-4.4,0.5-4.2-2.9C460.2,354.7,462.4,355.6,464.2,355.4z"/>
				<path class="st4" d="M462.1,345.9c1.4,1.5,3.3,2.7,2.1,5.3c-1.5-0.3-3.7,0.8-4.1-1.8C459.8,347.8,459.8,346.1,462.1,345.9z"/>
				<path class="st4" d="M460,337.5c3.4-0.6,4.6,1,4.2,4.2h-1C459.9,342,459.9,339.8,460,337.5z"/>
				<path class="st4" d="M415.8,332.3h2.1c0.7,1.1,1.5,1,2.1,0c2.8-2.1,6.7-2.1,9.5,0c0.8,1.1,1.5,1,2.2-0.1
					c4.6-2.4,10.1-2.4,14.6,0.1c0.8,1.1,1.5,1,2.1,0c3.1-2,6.3-2.2,9.5,0.1c0.8,1.1,1.5,1.1,2.1-0.1c0.9-0.8,2.3-0.8,3.1,0.1v2.1
					c-11.6,1-23.2,0.3-34.9,0.4c-4.1,0-8.3,0.7-12.4-0.5L415.8,332.3z"/>
				<path class="st4" d="M446.3,332.2h-14.6c-0.5-3.1,0.8-4.5,4-4.2c2.1,0.3,4.2,0.3,6.3,0C445.7,327.2,447.1,328.6,446.3,332.2z"/>
				<path class="st4" d="M446.3,309.2c0.4,3-0.6,4.6-4,4.2c-2.2-0.2-4.5-0.2-6.7,0c-3.3,0.3-4.4-1.2-4-4.2
					C436.5,308.3,441.5,308.3,446.3,309.2z"/>
				<path class="st4" d="M439.1,323.2c-2.5-1.5-7.1,1.7-7-2.6c0.1-4,4.5-1.9,6.9-1.9s6.9-2,7,1.8C446,325.4,441,321.2,439.1,323.2z"
					/>
				<path class="st4" d="M457.9,332.3l-9.5-0.1c0.3-1.7-1-4.3,1.6-4.9s5.3-1,7.6,0.5C459.4,328.9,459.4,330.7,457.9,332.3z"/>
				<path class="st4" d="M461.9,325.7h-45.8v-0.5h45.7C461.9,325.4,461.9,325.5,461.9,325.7z"/>
				<ellipse class="st4" cx="439" cy="316" rx="32.6" ry="0.3"/>
				<path class="st4" d="M415.9,307.1c-0.3-1.6,1-1,1.6-1h42.3c1.2,0,2.5-0.2,3.3,1H415.9z"/>
				<path class="st4" d="M457.9,309.1c1.8,3.1,1.5,5-2.7,4.3c-2.8-0.5-7.4,1.8-6.7-4.2C451.5,308.3,454.8,308.3,457.9,309.1z"/>
				<path class="st4" d="M453.8,318.5c1.8,0.6,5-1,4.8,2.3s-3.5,1.8-5.5,2c-1.6,0.1-4.5,1-4.5-1.9
					C448.7,317.1,452,319.2,453.8,318.5z"/>
				<path class="st4" d="M429.5,332.2H420c-0.6-6.5,4.4-3.8,7.2-4.2C431.4,327.3,428.8,330.8,429.5,332.2z"/>
				<path class="st4" d="M425,322.9c-1.7-0.6-4.8,1.2-4.7-2.4c0.1-3,2.9-1.9,4.6-1.9s4.4-1,4.5,2S426.7,322.4,425,322.9z"/>
				<path class="st4" d="M429.5,309.1c0.4,2.9-0.5,4.6-3.8,4.3c-1.9-0.2-3.8-0.1-5.6-0.1c-1.1-1.2-1.1-3,0-4.2l0,0
					C423.2,308.3,426.4,308.3,429.5,309.1z"/>
				<path class="st4" d="M460,309.2l5.2-0.1c-0.4,3.1-1.5,5.2-5.3,4.2C460,311.9,460,310.6,460,309.2z"/>
				<path class="st4" d="M460,318.6c1.4,0.8,4.4-2,4.5,2.1s-3,1.3-4.4,2.1C460,321.3,460,320,460,318.6z"/>
				<path class="st4" d="M463.2,332.3l-3.2-0.1v-4.1c3.2-0.3,5.9-0.3,4.2,4.2H463.2L463.2,332.3z"/>
				<path class="st4" d="M446.3,309.2h-14.7C436.4,307.4,441.6,307.4,446.3,309.2z"/>
				<path class="st4" d="M429.5,309.1H420C423,307.4,426.6,307.4,429.5,309.1z"/>
				<path class="st4" d="M457.9,309.1l-9.5,0.1C451.3,307.4,455,307.4,457.9,309.1z"/>
				<path class="st4" d="M420.1,309.1v4.2H418v-4.2H420.1z"/>
				<path class="st4" d="M438.8,342c-2.3-1.4-7,2-7-2.9c0.1-4.6,4.6-2.4,7-2.4s7-2.1,7.2,2.2C446.3,344.3,441.2,340.4,438.8,342z"/>
				<path class="st4" d="M454.1,341.9c-2.1-0.8-5.6,1.4-5.6-2.7s3.4-2.3,5.5-2.6c2.6-0.3,5.1,0.1,4.8,3.6
					C458.5,344.1,455.4,340.5,454.1,341.9z"/>
				<path class="st4" d="M415.8,334.3l47.3,0.1c-0.6,0.3-1.2,0.9-1.8,0.9c-15,0.1-30,0.1-45,0.1c-0.1,0-0.4-0.1-0.4-0.2
					C415.9,334.9,415.8,334.6,415.8,334.3z"/>
				<path class="st4" d="M424.9,341.7c-1.7-0.5-4.5,1-4.7-2.4c-0.2-3.8,2.8-2.8,4.8-2.8s4.6-0.8,4.6,2.5S426.8,341.5,424.9,341.7z"
					/>
				<path class="st4" d="M387.5,307.1c0-7.9,0-15.8,0-23.6c0-2.5,0.4-4.7,2.8-5.6s4,1.3,4.9,3c2.9,5.5,8.4,5.7,13.3,7
					c1.5,0.4,3.3,0.2,3.9,2.1c0.6,2.1-1,3.5-2.4,4.2c-9,4.5-9.5,13-9.9,21.4c-0.3,6.3-0.2,12.6,0,18.9c0.1,3.8-1.5,4.5-4.8,3.7
					c-6.5-1.6-7.8-3.2-7.8-10.1S387.5,314.1,387.5,307.1z"/>
				<path class="st4" d="M438.7,301.7c-1.5-0.5-4.5-0.7-4.1-2.7c0.5-2.5,3.5-1.2,5.5-1.4c1.3-0.1,3.4-0.2,3.3,1.6
					C443.2,301.4,441,301.8,438.7,301.7z"/>
				<path class="st4" d="M424.3,272.3c10.4-5.3,21.9-6.6,33.2-8.4c10.6-1.7,21.2-3.6,31.9-5c9.4-1.1,18.9,0.3,27.7,3.9
					c9.8,3.9,20,7.6,28.1,14.7c1.3,3.2-0.4,4.3-3.2,4.9c-7,1.6-14.1,2.7-21,4.5l0,0c-1.8,0.3-3.3,2.4-5.5,0.9
					c0.5-3.9,3.9-4.2,6.6-4.9c4.2-1,8.6-1.6,12.8-2.6c1.6-0.4,3.5-0.2,5-2.2c-4.3-3.1-9.5-4.4-13.9-7.1c-11.2-6.8-24.4-9.5-37.3-7.6
					c-19.9,2.6-39.9,4.2-59.2,10.5c-2.1,0.7-4.2,1.8-6.6,0.9C420.7,272.8,423.8,273.2,424.3,272.3z"/>
				<path class="st4" d="M424.3,272.3l-2.1,2.1l-0.5,0.7c-0.6,0.6-1.8,0.8-1.9,1.7c-0.1,1.6,1.3,1.3,2.2,1.4
					c19.7,2.1,39.2,6,58.2,11.6c9.5,2.8,19.4,1,29.1,0.9c1.2,0,2.4-0.4,3.6,0.1l0.6,0.6c-1.3,1.4-3.2,2.2-5.1,2.1
					c-14.8,0.2-29.6,0.5-43.9-4.9c-11.8-4.4-24.5-4.9-36.8-6.7c-4.1-0.6-8.2-1.3-12.3-2c-1.4-0.2-3-0.2-3.3-2s1.4-2.3,2.6-2.8
					C417.9,274,420.9,272.4,424.3,272.3z"/>
				<path class="st4" d="M520.9,287.1c6.4-3.1,13.6-3.4,20.3-5.1c2.7-0.7,4-1.6,3.8-4.4c2.1,3.1,0.8,4.8-2.4,5.5
					C535.5,284.6,528.4,286.7,520.9,287.1z"/>
				<path class="st4" d="M515.7,288.1l5.2-1c-2.2,1.9-4.7,3.3-7.3,4.2l0,0c-0.6-1-0.1-1.8,0.3-2.6
					C514.4,288.2,514.9,287.7,515.7,288.1z"/>
				<path class="st4" d="M209.4,306h-57.8c-1.4,0-3.8,0.9-4-1.1c-0.2-2.5,2.4-2,4-2h116.6c1.6,0,4.2-0.5,4,2c-0.1,2-2.6,1.1-4,1.1
					C248.6,306,229,306,209.4,306z"/>
				<path class="st4" d="M114.3,312.3c1.5,0.2,3.1,0.6,2.7,2.4s-2.1,3-3.9,2.8H84.3c-1.7,0-3.2-0.5-3.5-2.5
					c-0.4-1.4,0.4-2.9,1.8-3.3c0.2-0.1,0.4-0.1,0.7-0.1C93.6,311.3,104,310.1,114.3,312.3c-2.2,2-4.9,1.4-7.5,1.5
					c-6.9,0.2-13.8-0.2-20.6,0.7c7.9,0.5,15.9,0.6,23.9,0.4C111.9,314.7,113.6,314.2,114.3,312.3z"/>
				<path class="st4" d="M98.5,302.8h13.6c1.3,0,2.6,0.4,2.8,1.8c0.2,1.9-1.3,2.3-2.8,2.3H86c-1.5,0-3.6-0.4-3.6-2.2
					c0-2.1,2.1-1.9,3.6-1.9L98.5,302.8z"/>
				<path class="st4" d="M305.6,312.3c2.8-2.1,6.1-0.9,9.1-1c5.8-0.2,11.5-0.1,17.2,0c1.9,0,4,0.6,4,3.2s-1.9,3-4,3h-24.6
					c-2.1,0-4-0.8-4.4-2.9C302.4,312.8,304.1,312.4,305.6,312.3c0.9,2.1,2.8,2.5,4.7,2.6c6.5,0.3,12.9,0.1,19.4-0.5
					c-5.5-0.8-11.1-0.5-16.6-0.6C310.5,313.7,307.8,314.3,305.6,312.3z"/>
				<path class="st4" d="M319.8,302.8h11.6c1.4,0,3.1,0.1,3.1,2c0,1.5-1.6,2-2.7,2c-8,0.1-16,0.1-24.1,0c-1.1,0-2.7-0.5-2.6-2
					c0.1-1.8,1.8-1.9,3.1-1.9C312.1,302.8,315.9,302.8,319.8,302.8z"/>
				<path class="st4" d="M210,316.5h-56.2c-1.4,0-2.8,0-4.2-0.1c-1.1-0.1-2.1-0.5-2.2-1.8s1.2-1.7,2.1-1.9c1.5-0.3,3.1-0.4,4.7-0.4
					h113.5c2,0,4.5,0.4,4.4,2.6s-2.7,1.6-4.3,1.6C248.5,316.5,229.3,316.5,210,316.5z"/>
				<path class="st4" d="M271.9,329.1H150.2c-0.7,0-1.5-0.1-1.6-1c-0.2-0.8,0.3-1.6,1.1-1.8l0,0c0.1,0,0.1,0,0.2,0
					c1.4-0.2,2.8-0.3,4.2-0.3h111.8C268.3,326,271.4,325.1,271.9,329.1z"/>
				<path class="st4" d="M126.9,321.8c0-2.1,0.1-4.2,0-6.3c-0.1-3.1,1.4-4.4,4.4-4.3s4,1.4,4,4.2c-0.1,4.4,0,8.7,0,13.1
					c0,3-1.8,3.8-4.4,3.8s-4-1-4-3.7C127,326.3,126.9,324.1,126.9,321.8z"/>
				<path class="st4" d="M284.6,321.2V315c0-3,1.8-3.8,4.4-3.7s4,1,4,3.7c0,3.6-0.1,7.3,0,10.9c0.1,3.2-0.4,5.3-4.4,5.5
					c-4.4,0.2-4.1-2.5-4-5.4V321.2L284.6,321.2z"/>
				<path class="st4" d="M319.8,297.6h-12.6c-1.9,0-3.7-0.5-3.6-2.8c0.1-2,1.7-2.4,3.4-2.4h25.1c1.9,0,3.7,0.5,3.6,2.8
					s-2.1,2.5-3.9,2.5C327.8,297.6,323.8,297.6,319.8,297.6z"/>
				<path class="st4" d="M319.7,285h-12.5c-2.1,0-4.2-0.8-4.3-2.9c-0.1-2.5,2.1-3.3,4.4-3.4h25.1c2,0,3.5,0.7,3.6,2.9
					c0.1,2.5-1.4,3.4-3.6,3.4C328,285,323.9,285,319.7,285z"/>
				<path class="st4" d="M210,279.7c18.9,0,37.8,0,56.6,0.1c1.7,0,5-1.4,4.8,2c-0.1,2.8-3.1,2.1-5.1,2.1H153.6
					c-1.4,0-2.8-0.1-4.2-0.4c-0.9-0.2-2.2-0.6-2-2s1.2-1.6,2.3-1.7c1.4-0.1,2.8-0.1,4.2-0.1H210z"/>
				<path class="st4" d="M98.9,293.4H111c1.1,0,2.8-0.4,2.8,1.4c0,1-1.2,1.6-2.4,1.6H85.6c-0.9,0-1.9-0.3-2-1.3
					c-0.2-1.4,1-1.7,2.1-1.7C90.1,293.4,94.5,293.4,98.9,293.4L98.9,293.4z"/>
				<path class="st4" d="M137.4,288.3c0,1.6-0.1,3.2,0,4.7c0.3,4.5-1.4,6.8-6.3,6.8s-6.6-2-6.4-6.6c0.2-3.8,0-7.6,0-11.5
					c0-4.2,2.6-5.1,6.2-5.1s6.3,0.8,6.3,5C137.5,283.8,137.4,286.1,137.4,288.3z"/>
				<path class="st4" d="M97.9,330.1H85.8c-1.8,0-3.8-0.2-3.8-2.5c0-2.1,2.4-2.4,3.6-2.2c8.6,0.9,17.4,0.9,26,0
					c1.2-0.1,3.6,0.1,3.5,2.3c-0.1,1.9-2.1,2.3-3.6,2.4C107,330.2,102.4,330.1,97.9,330.1C97.9,330.1,97.9,330.1,97.9,330.1z"/>
				<path class="st4" d="M538.8,350.1l-1-2.1l1-1c9.2,1.8,17.9-1,26.7-3.1c4.4-1,6.5-3.8,6.6-8.2c0-3.3,0.2-6.6,0.8-9.9
					c0.8-4.4-5.8-13.3-10.3-14.5c-2.5-0.7-3.2,0.9-3.3,2.8c0,2.8-0.5,5.6-1.5,8.2c-6.3,9-18.7,11.1-27.7,4.8c-1.1-0.7-2-1.6-2.9-2.5
					c-0.3-0.5-0.2-1.2,0.1-1.6c2.5-0.4,3.5,3.4,6.3,2.1c0.8-0.1,1.7,0.3,2.1,1c4.5,0.9,9.2,0.9,13.7,0c0.2-0.3,0.3-0.7,0.5-0.9
					c6.3-4.2,6.9-10.4,5.5-17c-0.6-3,0.3-3.1,2.8-2.9c6.3,0.4,9.2,5.5,13.5,8.9c5.3,4.1,5.5,8.9,4.1,14.8c-1,4.3,0,9-1,13.5
					c-0.6,2.5-1.5,3.4-3.8,3.9c-8.3,1.8-16.6,3.7-24.8,5.9C543.1,352.8,541.3,350.4,538.8,350.1z"/>
				<path class="st4" d="M546.2,324.9c-1.4-1.5-3.2-1-4.8-0.9c-4.5,0.6-8.9-1-12-4.3l3.2-3.3c2-0.6,3.1,1.1,4.5,1.9
					c4.4,2.2,9.2,1.4,13-2.4c0.2-0.4,0.4-0.9,0.6-1.3c1.1-3.1-2.1-6-0.8-9.1c0.4-0.8,1.5-1.2,2.3-0.7c0.1,0.1,0.2,0.1,0.3,0.2
					C556.4,315.7,554.8,320.9,546.2,324.9z"/>
				<path class="st4" d="M549.3,325.9c-4.4,2.1-9,0.8-13.6,0.9c-0.1,0-0.2-0.2-0.2-0.4c0-0.2,0.1-0.3,0.2-0.5H549.3z"/>
				<path class="st4" d="M552.5,304.9c-0.9-0.1-1.7,0.4-2.2,1.1c-2.9,0.8-5.2-0.3-7.3-2.2v-0.9c1.8-0.2,3.6,0.1,5.2,0.9
					C549.7,304,551.4,303.4,552.5,304.9z"/>
				<path class="st4" d="M543,303.8c2.6,0.3,5.1,1,7.3,2.2c0.1,3.1,3.8,5.9,1.1,9.5c-1.2-1.1-1.9-2.5-2.2-4.1c-1.8-6.4-9-5.9-13-1.4
					c-2.4,2.7-0.4,6.3,3.7,7.2s7.7-1.2,11.5-1.7c-2.5,5.4-10.5,7.2-15.8,3.5c-1.1-0.8-2.1-1.7-3.2-2.6
					C531.4,308.3,533.7,305.7,543,303.8z"/>
				<path class="st4" d="M530.4,313.1c0,1.6,0,3.4-2.3,3.3c-2,0.1-3.7-1.5-3.8-3.6c-0.1-1.9,1.5-2.8,3.2-3
					C529.6,309.6,530.5,311,530.4,313.1z"/>
				<path class="st4" d="M527.2,322.8v1c-1.9,1.4-3.3-0.1-4.8-0.8c-2.1-1.1-4.7-1.2-6.8-0.2c4.2,5.9,10.1,9.5,15.4,13.7
					c15.3,12.1,10.4,11.7,29.3,7.2c9.5-2.2,10.5-3.4,10.8-13.4c0.2-5.8,0-11-5.3-15c-3.9-3-3.6-3.3-5.1,1.4c-0.7,2.1-0.5,5.2-4.1,5
					c0.7-2.7,1.1-5.4,1.2-8.2c0.3-4.4,2.6-5.4,6.3-3.3c7.3,4.1,10.3,10.3,9.3,18.9c0,0.2,0,0.4,0,0.5c1.5,15.3-4.2,14.9-16.1,17.4
					c-6.3,1.3-12.4,3.9-18.6-0.1c-8.2-6.7-16.5-13.3-24.7-20.1c-1.8-1.5-4.7-3.2-3.3-5.9c1.2-2.5,4.4-2.4,7-2.4
					c1.6,1.3,3.7-0.2,5.3,1L527.2,322.8z"/>
				<path class="st4" d="M523,319.7c-1.8-0.3-3.8,0.6-5.2-1C519.6,318.8,521.6,317.9,523,319.7z"/>
				<path class="st4" d="M515.7,288.1l-1,1c-1.7,1.3-3.7,2-5.9,2c-14.4,0.3-28.8,0.8-42.7-4.3c-11.3-4.2-23.3-5.2-35.2-6.6
					c-2.9-0.3-5.7-1.2-8.7-1.3c-1.3,0.1-2.4-0.9-2.5-2.2c-0.1-1.7,1.6-1.5,2.5-2.2l0,0c9.5-2,18.5-5.8,28.3-6.9
					c14.8-1.6,29.4-5.6,44.4-5.7c10.5,0,20.7,1.5,30,7.1c4.8,2.8,10.1,4.8,15.1,7.2c1.2,0.6,2.7,1.1,2.8,2.8c0,2.1-1.9,1.7-3.1,2
					c-4.9,1-9.9,2-14.8,3C521.5,284.6,517.9,284.8,515.7,288.1z"/>
				<path class="st4" d="M422.2,274.4c-3.1,2.8-0.8,3.7,1.6,4.1c4.9,1,9.9,1.7,14.9,2.1c12.9,0.5,24.9,4.8,37,8.2
					c6.3,1.8,12.4,1.4,18.6,1.3c6.8,0,13.6,1,20.3-1l-1,2.1c-16.1,2.6-32.5,1.3-48-3.9c-13.9-4.7-28.6-5.6-43.1-7.7
					c-2.3-0.3-5.8,0.2-6-2.5C416.5,275,419.8,274.5,422.2,274.4z"/>
				<path class="st4" d="M114.3,312.3c1.4,2.6,0.6,4.1-2.3,4.2c-8.9,0.1-17.8,0-26.7,0c-1.4,0-3.2-0.1-3-2c0.1-1.6,1.9-2,3.2-2.1
					c4-0.1,8-0.1,12-0.1H114.3z"/>
				<path class="st4" d="M305.6,312.3h24c1.8,0,3.9-0.1,4,2.2c0.1,2.8-2.4,1.9-3.9,1.9c-7,0.1-13.9,0.1-20.9,0
					C306,316.4,303.7,316,305.6,312.3L305.6,312.3z"/>
				<path class="st4" d="M319.8,293.4h10.5c1.2,0,2.8,0.1,2.8,1.6c0,1.2-1.4,1.5-2.4,1.5h-22c-1.2,0-2.7-0.4-2.4-2
					c0.2-1.4,1.6-1,2.6-1C312.5,293.3,316.2,293.4,319.8,293.4z"/>
				<path class="st4" d="M318.9,283.9h-11.1c-1.5,0-3-0.4-2.9-2.3c0.1-1.5,1.5-1.9,2.8-1.9h22.6c1.4,0,3,0.2,3.1,2s-1.6,2.1-3,2.1
					C326.6,283.9,322.7,283.9,318.9,283.9z"/>
				<path class="st4" d="M135.3,288.8v5.8c0.1,2.9-1.4,4-4.2,4s-4.3-1-4.2-4c0-4,0-8,0-12c0-2.9,1.3-4,4.2-4s4.3,1,4.2,4
					C135.3,284.7,135.3,286.8,135.3,288.8z"/>
				<path class="st4" d="M556.7,321.7c2.7-1.7,2.9-4.6,3.2-7.4c0.2-3.5,1.9-3.9,4.4-2.3c7.7,4.6,11.3,21.6,6.2,28.9
					c-1.1,1.6-2.8,2.7-4.7,3c-5.5,1.1-10.8,2.6-16.2,3.8c-2.8,0.6-5.7,0.8-8.1-1.1c-8.5-6.9-17-13.8-25.4-20.9c-1.1-1-2.8-2-2.1-3.9
					s2.7-0.9,4.2-1.2c3.7-0.7,6,2.5,9.2,3.2c4.8,3.8,10.9,5.7,17,5.2C549.4,328.9,554.1,326.1,556.7,321.7z"/>
				<path class="st4" d="M551.5,315.4c-3.5,4-8.1,3.3-12.6,3.1c-2.5-0.1-4.7-2-5.1-4.5c-0.7-2.7,0.4-4.9,3-6.5
					C544.3,302.8,550.6,304.9,551.5,315.4L551.5,315.4z"/>
				<path class="st4" d="M547.4,346.4c-5.6,0.6-8.2-4-11.8-6.5c-5.8-4.1-11.1-8.9-16.6-13.4c-0.9-0.7-2.4-1.5-1.6-2.9
					c0.7-1.2,2.2-0.8,3.3-0.6c2.1,0.4,3.7,1.9,5.3,3.2c9.2,7.7,27.4,7.8,33.3-4.4c0.3-0.6,0.8-1.1,1.2-1.7c1-2-0.7-6,3.8-5.4
					c2.7,0.4,7.2,7,7,9.8c-0.1,0.9-0.6,1.6-0.7,2.5c-0.7,4.7,1.8,11.4-2.7,13.7C561.8,344,554.3,344.6,547.4,346.4z"/>
				<path class="st4" d="M542.6,315.5c-2.4-0.2-4.4-1-4.3-3.1c0.1-2.4,2.2-3.2,4.5-3.1c2.1,0.1,4,1,4,3.1
					C546.7,314.7,544.5,315.4,542.6,315.5z"/>
			</g>
		</g>
	</g>
</g>
</svg>
