<?xml version="1.0" encoding="utf-8"?>
<!-- Generator: Adobe Illustrator 23.0.4, SVG Export Plug-In . SVG Version: 6.00 Build 0)  -->
<svg version="1.1" id="Layer_1" xmlns="http://www.w3.org/2000/svg" xmlns:xlink="http://www.w3.org/1999/xlink" x="0px" y="0px"
	 viewBox="0 0 658.4 658.4" style="enable-background:new 0 0 658.4 658.4;" xml:space="preserve">
<style type="text/css">
	.st0{fill:url(#SVGID_1_);}
	.st1{display:none;fill:url(#SVGID_2_);}
	.st2{display:none;fill:url(#SVGID_3_);}
	.st3{display:none;fill:url(#SVGID_4_);}
	.st4{fill:#00CFFF;stroke:#000000;stroke-miterlimit:10;}
</style>
<g>
	<g>
		<g id="Layer_1-2">
			
				<radialGradient id="SVGID_1_" cx="345.28" cy="250.75" r="484.41" gradientTransform="matrix(1 0 0 1 0 -132)" gradientUnits="userSpaceOnUse">
				<stop  offset="0.41" style="stop-color:#E90006"/>
				<stop  offset="0.52" style="stop-color:#E50006"/>
				<stop  offset="0.63" style="stop-color:#D70006"/>
				<stop  offset="0.76" style="stop-color:#C10005"/>
				<stop  offset="0.88" style="stop-color:#A30004"/>
				<stop  offset="1" style="stop-color:#7F0003"/>
			</radialGradient>
			<circle class="st0" cx="329.2" cy="329.2" r="329.2"/>
			
				<linearGradient id="SVGID_2_" gradientUnits="userSpaceOnUse" x1="329.2" y1="644.38" x2="329.2" y2="169.12" gradientTransform="matrix(1 0 0 1 0 -132)">
				<stop  offset="0.36" style="stop-color:#000000"/>
				<stop  offset="0.45" style="stop-color:#040203"/>
				<stop  offset="0.53" style="stop-color:#0F0A0A"/>
				<stop  offset="0.61" style="stop-color:#221717"/>
				<stop  offset="0.69" style="stop-color:#3D2929"/>
				<stop  offset="0.76" style="stop-color:#5F4040"/>
				<stop  offset="0.84" style="stop-color:#8A5C5D"/>
				<stop  offset="0.91" style="stop-color:#BC7D7F"/>
				<stop  offset="0.99" style="stop-color:#F4A3A5"/>
				<stop  offset="1" style="stop-color:#FFAAAC"/>
			</linearGradient>
			<ellipse class="st1" cx="329.2" cy="158.9" rx="210.9" ry="138.6"/>
			
				<linearGradient id="SVGID_3_" gradientUnits="userSpaceOnUse" x1="722.462" y1="173.3469" x2="722.462" y2="-74.2331" gradientTransform="matrix(0.9767 0.2147 -0.2147 0.9767 -309.1387 -28.0542)">
				<stop  offset="0.36" style="stop-color:#000000"/>
				<stop  offset="0.45" style="stop-color:#040203"/>
				<stop  offset="0.53" style="stop-color:#0F0A0A"/>
				<stop  offset="0.61" style="stop-color:#221717"/>
				<stop  offset="0.69" style="stop-color:#3D2929"/>
				<stop  offset="0.76" style="stop-color:#5F4040"/>
				<stop  offset="0.84" style="stop-color:#8A5C5D"/>
				<stop  offset="0.91" style="stop-color:#BC7D7F"/>
				<stop  offset="0.99" style="stop-color:#F4A3A5"/>
				<stop  offset="1" style="stop-color:#FFAAAC"/>
			</linearGradient>
			<path class="st2" d="M291.5,93C300,54,355,33,414.3,46s100.3,55.2,91.8,94.1c-8.6,39-63.5,60-122.8,47S282.9,131.9,291.5,93z"/>
			
				<linearGradient id="SVGID_4_" gradientUnits="userSpaceOnUse" x1="488.476" y1="252.5206" x2="564.7859" y2="300.6606" gradientTransform="matrix(1 0 0 1 0 -132)">
				<stop  offset="0.36" style="stop-color:#000000"/>
				<stop  offset="0.45" style="stop-color:#040203"/>
				<stop  offset="0.53" style="stop-color:#0F0A0A"/>
				<stop  offset="0.61" style="stop-color:#221717"/>
				<stop  offset="0.69" style="stop-color:#3D2929"/>
				<stop  offset="0.76" style="stop-color:#5F4040"/>
				<stop  offset="0.84" style="stop-color:#8A5C5D"/>
				<stop  offset="0.91" style="stop-color:#BC7D7F"/>
				<stop  offset="0.99" style="stop-color:#F4A3A5"/>
				<stop  offset="1" style="stop-color:#FFAAAC"/>
			</linearGradient>
			<path class="st3" d="M569.9,155.3c0,14.6-11.8,26.3-26.4,26.3c-14.6,0-26.3-11.8-26.3-26.4s11.8-26.3,26.4-26.3l0,0
				C558.1,128.9,569.9,140.7,569.9,155.3L569.9,155.3z"/>
			<g id="Layer_1-2-2">
				<path class="st4" d="M428.2,220.3c1.1,1.5,2.8,0.9,4.3,1.1c1.8,0.9,2.5,2.6,3.2,4.3l0,0c1.3,2-0.3,4.4,1.1,6.4l0,0
					c3.1,1.5,6.5-0.3,9.6,1.1c0.8,1.2,2,1,3.2,1.1c0.4,0.5,0.3,1.1-0.2,1.5l0,0c-1.3,0.7-2.8,0.9-4.3,0.4c-0.8-0.3-1.7-0.4-2.6-0.4
					c-7.2-0.5-7.2-0.5-9.7-7.6c-0.3-1-1.1-1.9-2-2.4c-0.8-0.4-1.5-0.9-2.3-1.4c-0.8-0.3-1.7-0.4-2.6-0.4c-27.1-0.1-54.3-0.1-81.4,0
					c-5.3,0-6,1.1-6.5,7.4c-0.5,6-1.9,7.2-6.9,5.9c-5-4.3-12.2-3-15,3.1c-2.2,4.6-5.4,8.6-9.4,11.7c-8.5,7.2-10.6,14.9-2.6,23.9
					c1.3,1.5,2.7,3,1.7,5.2s-3,2.4-5,2.4c-19,0.1-38,0.1-57,0c-2,0.1-3.9-0.6-5.5-1.8c-2-1.6-2.7-4.3-1.9-6.7
					c0.5-2.2,2.5-3.7,4.7-3.7c4.3-0.3,8.4-0.6,12.4,1.7c7.6,4.3,16,2.2,24,1.9c2.7-0.1,4.1-2.6,4.2-5.4c0.2-11,0.1-22,0-33.1
					c0-3.2-1.8-5.1-5-5c-8.1,0.2-16.4-1.3-24.3,1.8c-3.2,0.3-6.4,0.4-9.6,0.2c-50.5,0.1-101.1-0.1-151.5,0.1
					c-0.6,0.1-1.1,0.2-1.7,0.4c-1.9,0.4-4.2,0.2-5,2.8c-0.2,0.5-0.4,1-0.5,1.6c0,9.7-0.5,19.4,0.3,29.1c1.1,1.6,2.7,2.9,4.5,3.5
					c17.2,0.4,34.4,0,51.5,0.2c2.8,0,5.7-0.3,8.3,1.1c0.6,0.3,1.1,0.7,1.5,1.3c1.1,2.1,1.2,4.5,0.4,6.7c-0.4,0.9-1.2,1.6-2.1,1.9
					c-2.9,0.7-5.8,0.4-8.7,0.5h-30.1c-2.1,0.1-4.3-0.5-6.4,0.5c-1.2,0.9-2.2,2.1-2.8,3.5c-1.1,3.7,0.1,7.6-0.8,11.3
					c-0.2,0.6-0.5,1.1-0.9,1.5s-0.9,0.7-1.5,0.9c-2.8,0.8-5.9-0.1-8.5,1.5c-3,1.1-3.7,3.4-3.6,6.3c0.4,12.8-0.8,25.7,0.7,38.6
					c0.1,1.4-0.1,2.8-0.6,4.2c-0.1,0.8-0.3,1.7-0.6,2.5c-0.3,0.7-0.7,1.4-1.1,2.1c-1.3,3-0.8,6.1-0.4,9.2c0.3,0.9,0.7,1.7,1.2,2.5
					c0.7,1,1.6,1.8,2.7,2.4c0.7,0.5,1.5,0.7,2.4,0.9c50.8,0.2,101.5,0,152.2,0.1c3.5,0,7.1-0.1,10.7,0.1c0.7,0,1.3,0.2,2,0.3
					c7.3,4.1,15.2,2.7,22.9,2.6c3.6-0.1,4.4-3,4.5-6.1c0-5.9,0-11.7,0-17.5c-0.1-1.8,0-3.6,0.2-5.3c0.9-5.9,2.2-6.5,6.9-3
					c3.1,2.3,6.6,2.2,10.2,2.2c13.4,0,13.2,0,13.4,13.6c0.1,9-1.1,18,1.2,27c0.1,0.5-0.3,1-0.6,1.4c-2.9-1.3-3.3-3.8-3.2-6.7
					c0.1-8.5,0-17.1,0-25.6c0-7.2,0-7-7-7.3c-5.1-0.2-10.3,1.2-15.2-1.4c-1.6-0.9-2,0.3-2.4,1.7c-1.4,5.3-1.6,10.9-0.5,16.4
					c2,11.1-1.6,14.2-12.6,13.7c-14.4-0.7-28.5-4.1-43.2-3.9c-46,0.8-92.1,0.3-138.1,0.3c-7.8,0-10.4-2.7-10.5-10.5
					c0-4.4-0.4-8.9,1.7-13.1c1.5-3.1-0.6-5.9-0.6-8.9c0.1-10.7,0-21.4,0.1-32c0.1-7.5,2.8-10.2,10.4-10.2c3.9,0,5.6-1.6,5.5-5.3
					v-3.7c0-7.3,2.8-10.1,10.3-10.2c11.4-0.1,22.8,0,34.2,0c1.4,0,2.9,0,4.3-0.1c1.1-0.1,2.1-0.7,2.1-2s-1-1.9-2.1-2
					c-1.4-0.1-2.8-0.2-4.3-0.1H92.3c-9.5,0.1-11.9-2.4-11.9-11.9c0-7.5-0.1-14.9,0-22.4c0.1-6.4,3.1-9.3,9.5-9.3h153.5
					c3.7-0.1,7.4-0.8,10.9-2.1c8.3-2.5,16.9-1.4,25.3-0.6c3,0.4,5.3,2.9,5.3,5.9c0.3,12.4,0.7,24.8-0.2,37.3c-0.3,4.7-4,5.8-8.5,8.5
					h22.3c2.5,0,2.6-1.3,1.6-3.1c-0.3-0.5-0.6-0.9-0.8-1.4c-6.6-10.9-3.7-21.7,7.5-28.2c1.6-0.9,3.1-1.8,3.8-3.5
					c4.6-10.9,9.4-13.6,20.5-11.8c1.8,1.3,2.5,0.5,2.7-1.3c0.2-1.3-0.4-2.8,0.5-4c-0.4-5.5,4.4-4.9,7.5-6.4c1.1-0.8,2.4-0.5,3.6-0.5
					h79.2C425.8,219.8,427.1,219.6,428.2,220.3z"/>
				<path class="st4" d="M559.5,406c2.7,6.4,5.5,12.7,7.9,19.2c1.9,5.4,0.2,9.1-5.1,10.2c-7.9,1.6-15.8,3.7-24,3.9
					c-5.6,0.1-8.5-2-10.4-6.9c-4.3-11.5-9-22.8-13-34.3c-1.6-4.6-4-6.1-8.9-6.1c-11.5,0-23.1,1.2-34.5-0.9c-1.1-0.2-2.4,0-3.1-0.5
					c-9.8-7.5-21-2.4-31.4-3.7c-2.4-0.3-3,1.7-3.3,3.9c-1.1,8.6-2.6,9.4-11.1,10c-32.3,2.1-64.6,0.4-96.9,0.9c-2,0-4.3,0.8-6.1-1.1
					c2.2-2.1,5-1.5,7.6-1.5c26.5-0.1,53.1,0,79.7,0c2.5,0.2,5,0,7.4-0.4c4-1.9,8.5-1.5,12.8-2c1.5-0.6,2.4-2.1,2.2-3.6
					c0.2-2.8,0.5-5.6,2.3-7.9c6.1-3.2,31.2-2.9,36.8,0.7c2,1.2,4.3,1.7,6.6,1.6c10.1,0,20.3-0.1,30.4,0c8,0.1,10.2,1.7,13.2,9.1
					c4.3,11.1,8.4,22.2,12.9,33.3c2.7,6.6,3.9,7.2,10.9,5.9c5.9-1.1,11.9-2.1,17.7-3.7c3.6-1,5.6-3.1,3.9-7.1
					c-0.2-0.5-0.4-1-0.6-1.5c-0.4-2-1.3-3.8-2.6-5.3c-1.7-2.2-2.8-4.8-3.2-7.6c0-1.9-0.8-3.8-2.1-5.2c-1.7-2.2-2.8-4.9-3.2-7.6
					c-0.1-2-0.9-3.9-2.3-5.3c-2.6-4.2-4.4-8.7-5.4-13.6c-0.2-2.2-0.1-4.5,0.2-6.6c0.8-2.8,3.3-3.3,5.6-4.3c5-2.1,10.4-3.4,14.6-7.1
					c0.8-0.9,1.6-1.8,2.3-2.8c1.1-1.5,1-3.6-0.2-4.9c-0.3-0.4-0.5-0.8-0.8-1.2c-0.5-0.9-0.8-1.8-0.9-2.8c-0.1-0.8,0.2-1.5,0.7-2.1
					c2-0.6,2.4,1.3,3.4,2.2c5.9,6.9,0.4,15.9-7.5,18.1l0,0c-3.2,1.4-6.5,2.7-9.8,3.9c-3.8,1.4-4.8,4-3.4,7.5
					c1.8,4.8,3.6,9.5,5.7,14.1l0,0C556,397.5,557.5,401.8,559.5,406z"/>
				<path class="st4" d="M569.1,349.5l-3.2-2.1c-2.2-0.3-3.2-2.1-4.3-3.7c-3.2-4.7-6.9-9-10-13.8s-7.4-6.7-13.1-6.6
					c-20.4,0.1-40.9,0.4-61.4-0.1c-10.1-0.1-20.2-1.5-29.9-4.3c-3.2-0.9-6.3-0.7-9.5-1.1c-1.5-0.2-3.5-0.3-3.5-2.5s2-2.1,3.6-2.4
					c1.9-0.2,3.9-0.2,5.9-0.1h115.8c2.6,0,5.3,0.3,7.9-0.6c4.8-0.5,6.6-3.4,6.5-8c-0.1-3.7,0.1-7.5,0-11.1c-0.1-5.3-0.8-6-6.3-6.1
					c-9-0.2-18,0.4-27-0.3c-1.3-0.3-2.4-1.1-3.1-2.1c-0.9-2.1-1-4.5-0.3-6.7c0.3-0.6,0.7-1.1,1.2-1.5c6.2-1.7,12.6-0.5,18.9-0.8
					c4-0.2,8.1,0.1,12.1-0.2c3.1-0.7,4.8-2.6,4.9-5.8c0.1-0.5,0.2-1,0.3-1.5c0.9-4,0.6-8,0.3-12c-0.2-0.5-0.4-0.9-0.6-1.4
					c-0.9-1.9-2.5-2.5-4.4-2.8c-31.2-0.2-62.3,0-93.5-0.1c-2.1,0-4.3,0.1-6.4,0c-6.2-0.3-8.2-3-7.3-9.4c0.3-0.6,1-0.9,1.7-0.6l0,0
					l0,0c0,2.4,0.1,4.7,2.1,6.4c1.8,1.1,3.8,0.5,5.7,0.5c31.8,0,63.5,0,95.2,0c1.9,0,3.9-0.5,5.7,0.5l4.3,4.3c0.8,5.3,0.8,10.7,0,16
					c-0.6,3.5-1.9,6.8-5.3,8.5c-9.2,1.2-18.4,0.2-27.6,0.5c-2.5,0.1-5.3-0.3-4.4,3.8l0,0c7,1.2,14,0.2,21,0.6
					c2.6,0.1,5.3-0.6,7.8,0.5c7.2,2,8,3,8.5,10.7c-1.5,5.3,0.4,10.8-1.1,16l0,0c-1.8,5.2-6.1,5.9-10.7,5.9
					c-30.4,0-60.8,0.1-91.2-0.1c-5.7,0-11.2,1.4-16.9,1.2c3,0,6.2-0.4,8.9,1.6c2.9,0.8,5.9,1.2,8.9,1.1c19.3,0,38.6,0.2,57.9-0.1
					c9.9-0.2,17.9,1.5,23,11.2C560,337.3,565.6,342.7,569.1,349.5z"/>
				<path class="st4" d="M415.4,399.6c-1.8,1.9-4,1.1-6,1.1c-30,0.1-60,0.1-90,0c-5.6-0.9-3.9-6-5.1-9.3c-0.6-1.7-0.1-3.9-1.2-5.6
					c-3.6-7.9-1.7-16.4-2.1-24.5c-0.2-3.2-0.2-6.4,0-9.6c0.4-4.8-1.2-7-6.3-6.4c-2.5,0.3-5,0-7.5,0.1c-5,0.2-9.5-0.8-12.3-6.4
					c-3,8-1.4,15.6-1.8,23c-0.1,2.5,0,5,0,7.5s-1.1,5.1-3.6,5.2c-8.5,0.2-17.3,2.9-25.2-2.7c0.6-0.7,1.5-1.1,2.4-1.1
					c7.3,0.6,14.5,1.5,21.8,0.4c2-2,1.8-4.5,1.9-7c0.1-7.6,0.2-15.3,0.2-22.9c-0.1-1.6,0-3.2,0.3-4.8c0.4-1.9,1.3-3.4,3.3-3.7
					c1.8-0.4,3.5,0.7,3.9,2.5c0,0.1,0,0.2,0,0.3c0.8,6.3,5.2,6,9.8,6c15.4-0.1,15.4,0.1,15.5,15.4c0,7.5-0.5,14.9,0.4,22.3
					c1.8,4.4,4.2,8.5,4.1,13.6c-0.1,2.2,1.2,4.3,3.4,5c12.2,0.7,24.4,0.2,36.6,0.3c16.8,0.1,33.6,0,50.4,0
					C410.8,398.1,413.4,397.6,415.4,399.6z"/>
				<path class="st4" d="M466.6,318.5c-5-0.7-10.5,1.7-16.5-3.2h114.5c4.9,0,9.1-0.9,11.9-5.3c-0.2,5.9-4.8,6.1-8.7,6.3
					c-6,0.4-12.1,0.1-18.1,0.1c-26.5,0-52.9,0-79.4,0.1C469.3,316.5,465.9,314.2,466.6,318.5z"/>
				<path class="st4" d="M573.4,249.1H472.7c-2,0-4.3,0.8-6.1-1.1h100.7C569.3,248.1,571.6,247.3,573.4,249.1z"/>
				<path class="st4" d="M428.2,220.3h-86.4c1.4-1.6,3.3-1.1,5-1.1h76.5C424.9,219.3,426.8,218.7,428.2,220.3z"/>
				<path class="st4" d="M554.2,393.2c-3.8-4.8-5-10.8-7.1-16.4c-1.1-2.9,1.2-4.7,3.1-5.4c3.7-1.4,7.3-3.6,11.4-3.9
					c-1.6,1.8-3.8,2.4-5.9,3.2c-7.8,2.9-8.3,4.3-5.1,12.1C551.9,386.3,554,389.4,554.2,393.2z"/>
				<path class="st4" d="M540.3,282.2c-2.5-4.5,1.1-4.2,3.6-4.3c9.5-0.1,19,0,28.4,0c-3.2,2.1-6.8,0.9-10.2,1
					c-5.6,0.2-11.2,0.1-16.8,0C542.9,279,540.5,279,540.3,282.2z"/>
				<path class="st4" d="M561.6,367.6c1.2-0.8,2.3-1.5,3.5-2.3c5.3-3.4,6.4-7.7,4-15.9c3.5,2.4,4,5.8,2.7,9.4
					C570,363.5,567.4,367.5,561.6,367.6z"/>
				<path class="st4" d="M569.1,283.3h-23.9c-1.7,0-3.6,0.6-5-1.1H564C565.8,282.3,567.7,281.7,569.1,283.3z"/>
				<path class="st4" d="M559.5,406c-2.8-3.8-4.6-8.2-5.3-12.8C556.9,397,558.8,401.4,559.5,406z"/>
				<path class="st4" d="M449.6,235.3v-1.1c3.3,2.1,7.7,1.3,10.7,4.3l-0.6,0.6C455.8,239.1,451.8,239.7,449.6,235.3z"/>
				<path class="st4" d="M334.3,226.7c0.2,1.7,0.1,3.5-0.1,5.2c-0.7,3.3-2,1.9-3.1,0.1C334.7,231.8,332.2,227.9,334.3,226.7z"/>
				<path class="st4" d="M446.4,233.1c-3.2-0.5-6.6,1.1-9.6-1.1C439.9,232.5,443.4,231,446.4,233.1z"/>
				<path class="st4" d="M436.8,232.1c-1.9-1.9-0.7-4.3-1.1-6.4C437.6,227.5,436.4,230,436.8,232.1z"/>
				<path class="st4" d="M464.5,241.7h-1.1c-2.4,0.3-3.4-0.8-3.2-3.2l0.1-0.1C462.4,238.6,463.6,240,464.5,241.7z"/>
				<path class="st4" d="M435.7,225.7l-3.2-4.3C435.2,221.6,435.8,223.4,435.7,225.7z"/>
				<path class="st4" d="M97.4,299.3l1-0.1l0.5,0.9c-0.3,2.5-2.3,2.2-4,2.2c50.8-0.2,101.7-0.3,152.5-0.2c2.8,0,5.7-0.8,8.1,1.5
					c-1.3,3.4-4.4,2.5-6.8,2.5c-17.6,0.1-35.2,0-52.8,0H97.2c-7.6,0-7.8,0.3-7.8,7.8v23.5c-0.2,2.9,1.1,4.3,4.1,4.1
					c2-0.1,3.9,0,5.9,0H246c4.2,0,8.3,1,12,3c5.3,2.9,11.7,1.3,17.7,0.8c1.5-0.9,1.5-2.5,2.1-3.9c0.4-1,0.8-2.4,2.5-1.4
					c1,3,1.5,5.9-0.9,8.6c-3.7,2.5-8.5-0.3-12.2,2.4c-1.1,1-2.3,1.5-3.6,0.3c-2.7-2.9-7.5-0.9-10-4.3c-1.9-1.9-4.3-1.5-6.6-1.5
					c-30-0.1-60-0.1-90,0c-1.1,0-2.1,0-3.2,0.1c-1.8,0.2-3.2,0.9-2.9,3c0.3,1.9,1.7,1.8,3.2,1.7c25.9-0.8,51.8-0.2,77.7-0.4
					c7.3-0.2,14.5-0.1,21.8,0.5c1-0.2,2.1,0,3,0.4c1,0.7,1.4,1.5,0.4,2.5c-2.8,2.3-6.1,1.7-9.2,1.7c-49.2,0-98.5,0-147.7,0h-5.3
					c-6.2,0.1-6.3,0.2-6.6,6.7c0,1,0,2-0.2,3c-0.1,0.7-0.3,1.3-0.6,1.9c-0.3,0.6-1,1-1.6,0.8c-3.2-5.9-2.3-13.6,1.9-16.7
					c14-1,28-0.2,42.1-0.5c4.3-0.1,8.5,0.3,12.8-0.4c2.1-0.3,4.2-0.6,2.5-3.6c-1.9-1.4-4.1-0.9-6.2-1H94.1c-7.9,0-8.4-0.5-8.5-8.5
					c-0.1-8.5,0-17.1,0-25.6c0,8.5-0.1,16.9,0,25.4s0.6,8.8,8.7,8.9h38.4c1.1,0,2.1-0.1,3.2,0c2.1,0.2,5.2-0.3,5.2,2.3
					c0,3.4-3.4,2.3-5.4,2.3c-15.6,0.2-31.3-0.1-47,0.2c-1.8-0.1-3.2,2.3-5.3,1c1.9-3.6-0.1-7.2-0.1-10.9c0-11.2,0.2-22.3-0.1-33.5
					c-0.1-4.1,1.3-6.4,5.4-6.9C91.6,299,94.7,300.8,97.4,299.3z"/>
				<path class="st4" d="M85.6,270.5l-2-1.2c-0.9-11-0.9-22.1,0-33.1l0,0c1.1-2.4,3.3-2.7,5.7-2.8c2.5-0.4,5-0.5,7.5-0.3h148.5
					c2.3,0.1,4.7,0.1,7-0.2c1.7-1,3.6-1.6,5.6-1.9c6.9,0,13.8-0.3,20.6,0.1c0.9,0.4,1.9,0.8,1.4,2.1c-4.9,2.6-10.1,1.1-15.1,1.2
					c-4,0.1-7.7,0.4-11,2.9c-2.8,0.7-5.6,0.4-8.5,0.5c-50,0-100,0-150.1,0c-2.6,0-5.4-0.8-7.4,1.8c-1.5,7.9-0.5,15.9-0.5,23.9
					c0,3.6,3.1,3.2,5.6,3.2h51.7c2.4,0,5-0.5,7.2,1.3c-0.9,3.8-4,2.7-6.3,2.7c-19.3,0.1-38.6,0.1-57.8,0.1
					C87,270.9,86.3,270.8,85.6,270.5z"/>
				<path class="st4" d="M257.5,232.1c-1.5-0.1-3,0.3-4.3,1.1l-0.4-0.6l0.4-0.5c8.5-4.1,17.4-1.9,26.1-1.6c2.8,0.1,3.8,2.9,3.8,5.6
					v33.6c0,4.4-2.4,7.4-6.8,7.1c-8.6-0.4-17.6,2.3-25.8-3.5c-2.8-2-7.3-0.8-11-0.4c-1.6,0.2-2.1,1.6-2.2,3.2c-0.1,2-0.1,3.9,2.1,5
					c1.6,0.8,3.4,1.1,5.1,1.1h55.9c1.7,0,3.8,0.5,4.6-1.6c0.6-1.4-0.8-2.2-1.6-3.1c-11.1-11-5.1-21.2,4.1-28.1
					c2.9-2.1,4.9-4.1,6-7.5c2.1-6.1,7.4-9.2,13.6-8.8c2.2,0.1,3.8,0.8,4.1,3.2c-0.4,0.3-0.9,0.4-1.4,0.4c-6.3-1.9-11-0.1-13.4,5.8
					c-1.5,4-4.2,7.4-7.8,9.7c-3.6,2.1-6.1,5.6-7.1,9.6c-0.1,0.5-0.2,1-0.4,1.4c-1.5,4.7,0.4,8.3,3.8,11.4c0.5,0.5,1.1,1,1.5,1.5
					c1,1.1,2.1,2.1,3.3,2.9c1.6,1.7,2.1,3.3,0,5c-0.5,0.3-1.1,0.5-1.8,0.6c-13.3,0.4-26.5,0.1-39.8,0.2h-26c-3,0-6.6,0.3-7.7-3.2
					s-1.9-7.7,2-10.7c4.3-1.5,8.7-0.6,13.1-0.7c2,0.1,3.6,1.2,5.3,2.1l1.4,0.7c1.2,0.5,2.4,0.8,3.6,1.1c5.2,0.4,10.5,0.4,15.7,0
					c0.9-0.3,1.8-0.7,2.6-1.1c1-0.7,1.7-1.7,2-2.8c0.1-0.5,0.3-1,0.5-1.5c0.3-4.8,0.1-9.6,0.1-14.4c-0.2-6.2,0.5-12.4-0.4-18.6
					c-0.5-0.8-0.6-1.7-0.2-2.6l-1.1-1C271.8,231.2,264.6,231.2,257.5,232.1z"/>
				<path class="st4" d="M430.3,223.5l1.1,1.1c0.4,0.4,0.4,1.1,0,1.5l0,0c-0.9,0.8-2,1.3-3.2,1.3c-0.6,0-1.2-0.1-1.9-0.2
					c-26.5-0.2-53,0-79.5-0.1c-4.1,0-5.8,1.4-5.8,5.6c0,3,1.2,6.5-1.8,9c-2.7-1.4-2.1-4-2.4-6.2c0.1-13.1,0.9-12.6,13.4-12.5
					c24.8,0.1,49.6,0,74.4,0C426.5,223.1,428.5,222.6,430.3,223.5z"/>
				<path class="st4" d="M83.6,351.6l4.2-1.1l0.4,0.5l-0.4,0.6c-3.9,5.1-2.3,10.5-1.1,16c0.6-0.4,1.3-0.5,2-0.5
					c52.3,0.2,104.6,0,156.9,0.2c2.6,0,6.2-1.6,7.6,2.6c-1.9,1.4-4.1,0.9-6.2,0.9H92.3c-2.3,0-4.6,0.2-6.8-1l-2.1-2.2
					c-1.4-4.6-1.8-9.2,0-13.9L83.6,351.6z"/>
				<path class="st4" d="M99.5,285.4l2.2-3.2c2.2-1.1,4.6-0.3,6.8-0.5h31.3c3,0.2,6-0.4,8.9,0.4c0,2.5-1.9,2.3-3.4,2.2
					c-13-0.7-26.1-0.4-36-0.5c12.8-0.9,28.8,1.5,44.7-0.4c1,0,1.9,0.2,2.9,0.4c4.4,0.7,9-1.2,13.2,1.4c0.3,0.6,0.2,1.3-0.4,1.7
					c-2.3,1.4-4.8,1-7.2,1h-51c-5.8,0-5.8,0.2-6.2,6c-0.1,2.7,1.2,7-2.2,7c-3,0-1.6-4.4-1.8-6.9c-0.2-2.2,0-4.5-0.2-6.7
					c-0.3-0.7-0.9,0.4-0.3,0c0.2-0.1,0.3,0,0.3,0.4c0.3,3.2,0.1,6.4,0.1,9.5c0,1.6-0.5,2.9-2.6,2l-0.2-0.1c0-0.4,0.1-0.7,0.1-1.1
					C100,294.1,98.1,289.6,99.5,285.4z"/>
				<path class="st4" d="M155,284.4c-5.9,1.5-11.8,0.9-17.9,0.4c-8.7-0.7-17.4-0.3-26.1-0.4c-2.5,0.2-5-0.2-7.3-1.1h39.2
					c1.8,0,3.9,0.8,5.5-1.1c-0.3-0.3-0.4-0.5-0.2-0.7s0.2-0.3,0.4-0.3l1.1-1.1c1.4-2.1,1.6-4.3-0.1-6.4l0,0c-1-1.1-2.4-1.9-3.9-2.1
					c-17.5-0.2-34.9,0-52.4-0.1c-2.2,0-4.6,0.6-6.6-1.1c1.5-1.7,3.7-1.1,5.5-1.1c18,0,36.1,0,54.1-0.1c1.9,0,3.9,0.7,5.5-1
					c1.5-0.7,2.7,0,3.7,1.1c1.1,2,0.7,4.3,1.5,6.3c0.2,1.1,0.2,2.2,0,3.3C156.3,280.9,156.7,283,155,284.4z"/>
				<path class="st4" d="M85.6,369.8h167.6c1.8-0.4,3.3-0.3,3.2,2.1h-3.2c-1.8-1-3.8-0.5-5.7-0.5c-51.6-0.1-103.3-0.1-155-0.1
					c-1.9,0-3.9,0.5-5.8-0.5L85.6,369.8z"/>
				<path class="st4" d="M86.7,370.8h161c1.9,0,4-0.7,5.5,1.1H92.3C90.4,371.9,88.3,372.5,86.7,370.8z"/>
				<path class="st4" d="M253.2,233.1c-1.6,1.7-3.7,1.1-5.5,1.1H87.8c-0.3-0.2-0.5-0.5-0.3-0.7s0.2-0.4,0.3-0.4h1.1
					c1.5-0.9,3.1-0.5,4.7-0.5h154.9C250.1,232.7,251.7,232.3,253.2,233.1L253.2,233.1z"/>
				<path class="st4" d="M253.2,233.1H88.9c1.8-1.8,4-1,6.1-1c52.8-0.1,105.5-0.1,158.3-0.1C253.2,232.4,253.2,232.8,253.2,233.1z"
					/>
				<path class="st4" d="M460.2,238.5c0.7,1.4,1.8,2.5,3.2,3.2c0.3,8,0.8,8.5,8.6,8.5h94.2c2,0,4.3-0.8,6.1,1l-0.8,0.7
					c-1.6,0.7-3.4,1-5.2,0.8c-33.3,0-66.6,0.1-99.9-0.1c-4-0.3-5.4-2.8-5.6-6.4c0-4.1-3-5.2-6.1-6.2s-7.1-1.1-9.6-4l0.2-0.8l4.3,0.1
					C452.8,237.5,456.5,237.8,460.2,238.5z"/>
				<path class="st4" d="M430.3,223.5h-79.8c-13,0-13,0-13,12.9c0.3,1.3,0,2.6-1,3.5c-2.5,1.3-4.6,0.6-6.4-1.4
					c-0.1-0.2-0.2-0.4-0.4-0.7c-0.2-0.5-0.1-1,0.2-1.5h1.1c3.1,2,4.6,0.5,5.1-2.5c0.2-1.8,0.2-3.6,0.2-5.3c0.1-3.8,2.1-6,6-6
					c28.5-0.1,57.1-0.1,85.6,0C428.8,222.7,429.6,223,430.3,223.5z"/>
				<path class="st4" d="M147.6,271.6c1-0.1,2,0.6,2.1,1.6c0,0.2,0,0.3,0,0.5c-2.7-0.8-5.5-1.2-8.4-1.1c-16.4,0.1-32.7,0.1-49.1,0
					c-1.9,0-3.9,0.6-5.6-1c1.7-1,3.5-0.5,5.2-0.5c16.9,0,33.7,0,50.5,0C144.1,271.1,145.9,270.6,147.6,271.6z"/>
				<path class="st4" d="M247,280.3c-2.7-0.9-7.4,1.5-7.3-3.1s4.6-2.1,7.2-2.4c2.9-0.3,6.7,0.8,6.4,3.8S249,279.3,247,280.3z"/>
				<path class="st4" d="M147.6,271.6H86.7l-1.1-1.1l1.1-0.1c18.4,0,36.9,0,55.3,0.1C143.9,270.6,146,269.9,147.6,271.6z"/>
				<path class="st4" d="M83.5,236.4v33.1c-1.6-1.1-1.1-2.9-1.1-4.4c0-8.1,0-16.2,0-24.2C82.5,239.2,82.1,237.5,83.5,236.4z"/>
				<path class="st4" d="M140.1,282.2h-32c-0.3-0.2-0.4-0.5-0.3-0.7s0.2-0.3,0.3-0.3h32c0.4,0.2,0.5,0.5,0.4,0.7
					S140.2,282.2,140.1,282.2z"/>
				<path class="st4" d="M431.4,225.7v-1.1c2.8,0.4,3.3,2.7,3.1,4.8c-0.4,4.2,1.5,5.3,5.3,4.9c1.8-0.2,3.9-0.7,5.5,1l0,0
					c-3.1,1.7-6.7,2.4-10.2,2.1c-0.8-0.2-1.6-0.7-2.1-1.4c-1.1-2.1-0.6-4.6-1.1-6.8c-0.1-0.4-0.3-0.9-0.4-1.4
					C431.4,227.1,431.3,226.4,431.4,225.7z"/>
				<path class="st4" d="M83.5,353.7v13.9c-0.8-0.4-1.2-1.3-1.1-2.1c-0.8-3.5-0.8-7.2,0-10.7L83.5,353.7z"/>
				<path class="st4" d="M149.7,273.7c3.4,2.1,3.2,4.3,0.1,6.4C149.7,278,149.7,275.9,149.7,273.7z"/>
				<path class="st4" d="M99.5,285.4c-0.5,4.3,1.2,8.7-1.1,12.8C99,294,97.4,289.5,99.5,285.4z"/>
				<path class="st4" d="M82.5,354.8v10.7C80.8,362.1,80.8,358.2,82.5,354.8z"/>
				<path class="st4" d="M140.1,282.2v-1.1h8.5c0,0.3-0.1,0.7-0.1,1L140.1,282.2z"/>
				<path class="st4" d="M97.4,299.3c-2.6,2.1-5.7,0.6-8.5,1.1C91.5,298.3,94.6,299.8,97.4,299.3z"/>
				<path class="st4" d="M87.8,233.1v1.1c-1.8-0.1-2.8,1.6-4.3,2.1C83.7,233.6,85.5,233.1,87.8,233.1z"/>
				<path class="st4" d="M108.1,281.2v1.1h-6.4C103.5,280.3,105.9,281.5,108.1,281.2z"/>
				<path class="st4" d="M430.4,394.3c0.1,1.4-0.8,2.7-2.1,3.2l-0.6-0.3c-0.4-0.2-0.9-0.4-1.3-0.5c-5.2,0.1-10.3,0.1-15.5,0.2h-83.6
					c-2.3,0-4.6,0.3-6.7-1.1c-2.5-4.3-1.9-8.8-0.5-13.2c0.8-0.8,1.8-1.2,2.8-1.4c33.8-0.4,67.5-0.1,101.3-0.1c1.1,0,2.1,0.1,3.1,0.5
					c0.9,0.3,1.5,1.2,1.5,2.2c-1.6,2.3-1,5-1.1,6.9c0.4-1.2-0.3-3.2,0.3-4.9c1.1-0.6,1.5,0.1,2,0.9
					C430.5,389.2,428.9,391.8,430.4,394.3z"/>
				<path class="st4" d="M563.8,423.1c3.7,5.9,2.5,9.1-4.2,10.7c-6.5,1.5-13.1,2.7-19.7,4.2c-5.6,1.2-8.1-2-9.8-6.5
					c-4.4-11.6-9.1-23.1-13.2-34.7c-2-5.5-5.3-7.8-11.1-7.7c-10.7,0.2-21.3,0-32,0.1c-2.6,0-4.9-0.2-6.8-2.2c-1-1.1-2.3-1.7-3.7-1.9
					c-10.6,0.1-21.3-1.4-31.8,0.9c-0.4-0.5-0.5-1.2-0.3-1.9c1.2-1.7,3-1.7,4.7-1.8c8.8-0.1,17.5-0.1,26.3,0c2.3,0.1,4.5,0.8,6.5,2
					c2,1.4,4.4,1.2,6.7,1.2h34c2.2,0,4.6-0.4,6.6,1.5c-1.1-1.7-2-3.5-2.8-5.4c-1.1-3.8-2.6-7.5-4.3-11c-0.2-0.5-0.4-1-0.6-1.5
					c-0.4-1-0.5-2.1-0.4-3.1c0.2-0.5,0.7-0.9,1.2-1c3.8,0.8,4.6,4.1,5.8,7c6.8,17,13.2,34.1,19.9,51.1c2.8,7.2,3.4,7.5,11.1,5.9
					c13.4-2.8,12.1-2.1,7.3-13.5c-4.1-10-8.2-20-12.4-30c-1.7-4.1-3.4-8.3-2.9-12.9c0.4-2.9,0.3-6.2,4-7.4c0.5,0.1,1,0.5,1.1,1.1
					c0.4,1.3-1.2,3.1,1.1,3.9c0.4,2.1,1,4.3-0.8,6.1c-1.6,0.5-1.2-1-1.6-1.7c0,1,0.3,2,1,2.8c0.3,0.4,0.5,0.9,0.6,1.3
					c1.3,3.9,2.9,7.8,4.7,11.5c0.3,0.4,0.5,0.8,0.7,1.3c1.3,3.9,3,7.6,4.6,11.3c0.3,0.4,0.5,0.8,0.7,1.2c0.4,1.6,1,3.1,1.8,4.6
					c0.2,0.4,0.4,0.9,0.5,1.3c1.4,4.1,3,8.1,5,11.9c0.2,0.5,0.4,1,0.6,1.5c1.7,6.7,1.7,6.6-5.1,7.9c-6.5,1.3-13,2.2-19.4,4.1
					c-2.1,0.5-2.9-0.8-3.5-2.4c-1-1.8-1.2-3.9-2.4-5.7c-1.2-2.8-1.8-5.8-3.1-8.4c-0.8-1.8-1.2-3.8-2.3-5.5c-1.5-4.6-3.4-8.9-5-13.4
					c-0.8-0.9-0.5-2.2-1.4-3.1c0.8,1,0.6,2.5,1.6,3.4c1.4,4.6,3.3,9,5,13.4c0.9,1.8,1.2,3.8,2.3,5.5c1.2,2.7,1.8,5.7,3.1,8.4
					c0.9,1.8,1.2,3.8,2.2,5.5c0.4,2.2,1.7,2.9,3.8,2.4c6.6-1.8,13.4-2.9,20.1-4.2c2.4-0.5,6.3,0,4.9-4.8
					C562.5,425.1,562.9,423.9,563.8,423.1z"/>
				<path class="st4" d="M568.1,313.2c-1.8,1.7-4,1-6.1,1c-40.3,0-80.7,0.1-121,0.1c-1.9,0-3.8-0.4-5.9,0.7c0.5,0.6,0.8,1.2,1.1,1.2
					c28.1,5.4,56.6,6.4,85,5.5c6-0.2,12.1,0.2,18.1-0.1s10.2,2.3,13.5,7c4.4,6.2,8.8,12.4,13.2,18.7v2.1c-2.6,0.3-3.2-2-4.2-3.4
					c-3.6-5.3-7.7-10.2-11.2-15.5c-1.3-2.3-3.5-4.1-6-5c-23.5-1.9-47-1.1-70.4-1.2c-3,0-6,0.2-8.9-1c-0.6-0.1-1.2-0.2-1.9-0.4
					c-3.9-1.5-8-0.3-12-1.1c-4.1-2-8.4-1.8-12.7-1.9c-2.8,0-5.7,0.1-6.9-3.3c-0.2-3.2,1.7-4.4,4.5-4.8c1.8-0.2,3.6-0.2,5.3-0.2H560
					C562.7,311.7,565.7,311,568.1,313.2z"/>
				<path class="st4" d="M415.4,399.6h-90c-2,0-4.3,0.8-6.1-1.1l0.8-0.7c2.4-1.1,4.9-0.8,7.3-0.8c26,0,52.1-0.1,78.1,0
					c5.7,0,11.3-0.8,17-0.7c1.9,0,3.9-0.4,5.6,1.1l0,0C424.2,399.9,419.5,397.5,415.4,399.6z"/>
				<path class="st4" d="M542.5,376.2c1.9-2,0.7-4.4,1-6.5c1-3.3,4.6-1.7,6.5-3.5c0.4-0.2,0.9-0.4,1.3-0.5c2.3-0.7,4.4-1.6,6.5-2.8
					c0.4-0.2,0.9-0.4,1.3-0.6c2.3-0.3,4.3-2.7,6.9-1.1c-3.3,4.9-9.2,5.1-13.9,7.6c-2.1,1.1-4.8,1-6.5,3c-0.9,2.4-0.9,5.1,0,7.5
					c1.3,4.5,2.6,8.9,5.3,12.8c0.5,0.8,0.7,1.8,0.6,2.7c-0.2,0.4-0.6,0.7-1.1,0.8c-1.9-1-1.7-3.1-2.7-4.6l0,0
					c-1.9-4.3-3.4-8.6-5.3-12.8l0,0c-0.5-0.6-0.5-1.4,0-2H542.5z"/>
				<path class="st4" d="M546.7,324.9c6.7,5.2,10.2,13.1,15.5,19.4c1.4,1.6,2.5,3.4,3.8,5.1l1.1,2.2c-2.1,1.3-3.4-0.3-4.8-1.4
					c-2.1-2.4-4-5-5.5-7.9c-1.4-2.7-3.2-5.2-5.4-7.3c-1.9-2.4-4.3-4.4-5.2-7.5c-0.2-0.7-0.2-1.4,0-2.1L546.7,324.9z"/>
				<path class="st4" d="M563.8,423.1v3.2c-2.8-0.1-1.9-3-3.2-4.3l0,0c-1.9-4.3-3.4-8.6-5.3-12.8l0,0c-0.9-1.7-1.2-3.7-2.1-5.3l0,0
					c-0.5-2.9-3.7-5.1-2.2-8.5l0,0c2.1-0.7,1.2,1.7,2.1,2.1c0.8,2.6,1.1,5.4,3.2,7.5c0.9,1.7,1.2,3.7,2.1,5.3
					c0.8,2.6,1.1,5.4,3.2,7.5C562.5,419.5,562.7,421.5,563.8,423.1L563.8,423.1z"/>
				<path class="st4" d="M562.7,349.5c1.5,0.6,2.4,2.4,4.3,2.2v1c2.8,1.8,0.8,4.3,1.1,6.4l-2,2.1c-2.7,0.1-4.7,2.6-7.6,2.1
					C562.5,359.5,565.3,355.3,562.7,349.5z"/>
				<path class="st4" d="M431.4,384.7v1.2l-1.1,8.5c-2.1-2.2-0.7-5-1.1-7.5C430,386.1,429.4,384.1,431.4,384.7z"/>
				<path class="st4" d="M568,359.1c-1.7-1.9,0.7-4.5-1.1-6.4C570.5,354.3,569.5,356.6,568,359.1z"/>
				<path class="st4" d="M545.6,379.4c-1.7-2.2-1.7-5.3,0-7.5C545.6,374.4,545.6,376.9,545.6,379.4z"/>
				<path class="st4" d="M563.8,423.1c-1.6-1.3-2.4-3.3-2.1-5.3C563.2,419.1,564,421.1,563.8,423.1z"/>
				<path class="st4" d="M558.4,410.3c-1.5-1.3-2.3-3.3-2.1-5.3C557.8,406.3,558.6,408.3,558.4,410.3z"/>
				<path class="st4" d="M553.1,397.5l-2.1-2.1v-3.2C552.5,393.5,553.3,395.5,553.1,397.5z"/>
				<path class="st4" d="M572.3,251.3c1.7-0.1,3.1,1.1,3.2,2.8l0,0c0,0.1,0,0.3,0,0.4c-0.1,0.5-0.3,0.9-0.5,1.4
					c-0.9,4.3,0.4,8.6-0.9,12.9c-0.1,0.5-0.3,0.6,0.1,0.6c0.1,0,0.2-0.2,0.4-0.3c0.3-0.1,0.7,0,0.9,0.4l0,0c0.2,3.2-0.5,5.9-4.3,6.4
					l-0.5-0.5c-0.3-0.4-0.5-0.9-0.8-1.3c-2.4,1.8-5.1,1.1-7.7,1.1c-6.5,0.1-13-0.1-19.5,0.1c-2.1,0-5.5-1.3-5.9,1.7
					c-0.4,3.3-2.3,7.4,2,10c8.6,0.5,17.2,0,25.8,0.2c2.2,0,4.6-0.3,6.6,1.2c0.4,0.5,0.4,1.4-0.2,1.8l0,0c-1.9,1.3-4.1,1.1-6.2,1.1
					H467c-2.1,0-4.3,0.2-6.2-0.8c-0.9-0.6-1.2-1.8-0.8-2.7c2.6-2,5.8-1.5,8.7-1.5c19.2-0.1,38.3,0,57.5,0c5.7,0,8-3.6,6-8.9
					c-1-2.5-3.1-1.9-5-1.9c-10.8-0.1-21.6,0-32.5,0h-27.8c-2.3,0-4.6,0.4-6.7-1.1c-0.7-0.8-0.7-2,0-2.8c2.4-1.8,5.1-1.2,7.8-1.2
					c31.3,0,62.6,0,93.9-0.1c2.5,0,6.3,1.3,7.1-1.8c1-3.8,2.4-8.3-1.3-11.9c-2.5-0.4-5-0.5-7.5-0.3c-32.1-0.1-64.1,0.1-96.2-0.1
					c-1.1-0.1-2.1-0.5-2.9-1.2c-0.3-0.6-0.1-1.4,0.5-1.8c2-1,4.2-0.5,6.3-0.5c34.1-0.1,68.3,0.2,102.4-0.2
					C571.2,252.1,571.8,251.8,572.3,251.3L572.3,251.3z"/>
				<path class="st4" d="M568.1,313.2H438.7c-3,0-6.4-0.5-6.2,4.3c-2.6-2.8-2.2-5.1,1.1-5.8c1.6-0.2,3.2-0.2,4.8-0.1h125.8
					c1.8,0.1,3.5,0,5.2-0.3c-1.9,0.5-3.9,0.2-5.9,0.2c-42,0-84,0-125.9,0c-2.8,0-5.6,1.1-8.4-0.2c-0.4-2.4,1.5-2.4,3-2.6
					c2.1-0.2,4.3-0.3,6.4-0.2c42.7,0,85.3,0.1,128-0.1c0.6,0,1.2-0.1,1.7-0.2c1-0.1,2.1,0.1,3-0.5c2.2-6,1.8-12.1,0.9-18.2
					c-0.3-0.8-1-1.4-1.8-1.7c-8.4-0.3-16.8,0-25.2-0.2c-1.8,0-4.4,1.1-5.1-2c9.5,0,19.1,0.1,28.6-0.1c4.7-0.1,6.9,1.8,6.7,6.6
					c-0.2,4.6,0.1,9.2-0.1,13.8S573.5,313.6,568.1,313.2z"/>
				<path class="st4" d="M540.3,285.5c6.1,2.3,12.5,0.4,18.7,1.1c4.5,0.5,9.1-1.2,13.4,1.1c-9.5,1.2-19,0.2-28.5,0.5
					c-2.2,0.1-4.6-0.6-6.8,0.5c-1.8-1.7-3.2-12.4-1.6-14c0.6-0.6,1.5-0.9,2.3-0.9c11.1,0,22.2,0.1,33.3,0.2c0.1,0,0.2,0.2,0.2,0.4
					c0,0.2-0.1,0.3-0.2,0.5c-2,1.6-4.4,1-6.7,1.1c-8,0.1-15.9-0.1-23.9,0.1c-0.9,0.1-1.8,0.4-2.5,1.1c0,0.3,0,0.7-0.1,1
					c-1.4,2.1-1.6,4.3,0.1,6.3C538.9,284.7,539.6,285.1,540.3,285.5z"/>
				<path class="st4" d="M538.2,277c0.3-0.4,0.7-0.8,1-1.2c10.7-0.8,21.3-0.8,32,0l0,0c-2.5,2-5.4,0.9-8.2,1
					C554.8,277,546.5,277,538.2,277z"/>
				<path class="st4" d="M575.5,269.4h-1.1c-0.8-4.9-0.8-10,0-14.9h1.1c0.8,4.6,0.8,9.3,0,13.9C575.5,268.7,575.5,269.1,575.5,269.4
					z"/>
				<path class="st4" d="M538.2,284.3c-3.3-2.1-3.1-4.2-0.1-6.3C538.2,280.1,538.2,282.2,538.2,284.3z"/>
				<path class="st4" d="M256.4,371.9l-3.2-2.1c-1.8-1.8-4-1.1-6-1.1c-51.1,0-102.2-0.1-153.3-0.1c-2,0-4.3,0.8-6.1-1
					c1.8-2,4.3-1.5,6.5-1.5c51.7,0,103.4,0,155.1,0c2.3,0,4.6-0.1,6.8,0.9c0.6,0.2,1.2,0.5,1.7,0.9c2.1,2.1,5.1,1.2,7.6,1.9
					c2.9,0.9,6,0.3,8.9,0.6c1.8,0.2,4.1-0.4,4.4,2.5C271.4,373.6,263.8,373.2,256.4,371.9z"/>
				<path class="st4" d="M278.8,373c-2.4-2.1-5.3-0.7-8-1.1c-2-0.3-4.2,0.7-5.9-1.1c2.2-2.4,5.4-0.9,7.9-2c4.2-0.1,3.4-3.6,4-6
					c0.9-3,0.1-6.2,0.9-9.3c2.1-5.4,3.4-10.8,1.9-16.8c-0.7-2.6,0.9-5.3,3.5-6c0.3-0.1,0.6-0.1,0.9-0.1c3.2-0.4,4.7,1.8,5.5,4.6
					c0.2,1,0.4,2,0.8,3c0.6,0.7,1.2,1.3,1.9,1.8c4.7,1.1,9.5,0.2,14.2,0.6c5.2,0.5,6.8,2,7.9,7.4c0.1,8.7,0.1,17.3,0,26
					c0,2.2,0.4,4.7-1.5,6.5c-2.1-3.6-0.8-7.6-1-11.4c-0.3-6.4-0.3-12.8,0-19.2c0.2-5-2.3-6.7-6.7-6.7c-3.7,0-7.5-0.1-11.2,0
					c-3.9,0.1-6.6-0.9-6.8-5.5c-0.1-1.8-0.5-4-2.7-3.9c-2.7,0.1-2.5,2.5-2.5,4.5v28.3C282,369.1,282.4,372,278.8,373z"/>
				<path class="st4" d="M312.9,380.5v-33.2c0.9-1.2,1.8-1.9,2.9-0.2c1.5,9.3,0.3,18.6,0.7,27.9c0.1,2.4-0.5,5,2.1,6.6
					c2.4,4.3,0.5,9,1.2,13.5c0.2,0.6,0.3,1.2,0.3,1.8c-0.1,0.6-0.4,1.2-0.8,1.6l0,0c-1.8-0.8-2.9-2.7-2.7-4.7
					C316.8,388.9,314.7,384.8,312.9,380.5z"/>
				<path class="st4" d="M277.8,363.3c-0.3,3,1.3,7.2-4.4,6.5c-5.3,0.8-10.7,0.8-15.9-0.1v-1c-2.2-2-4.9-1.7-7.6-1.7H92.4
					c-1.9,0-3.9,0.6-5.7-0.6c0-0.3,0-0.7,0-1c1.3-1,2.8-1.7,4.4-2.3c1.9-0.3,3.9-0.4,5.8-0.3h150.9c3.8,0,7.5,0.1,10.8,2
					c3.3,1.7,6.9,1.1,10.4,1.2c3.1,0.1,5.1-0.6,5-4.4s-1.1-5.6-5.1-5.6c-4.9,0-9.9-0.2-14.8,0.1h-155c-2.7,0-5.8-0.8-8,1.7
					c-1.1,1.6-0.6,3.7-1.8,5.2c-0.7,0.7-1.8,0.8-2.5,0.1c-0.2-9.6-0.2-9.6,9.4-9.6h152.9c2.8,0.1,5.7-0.3,8.4-1.2
					c6.7-1,13.4-2.4,20.3-0.4C278.8,355.9,278.4,359.6,277.8,363.3z"/>
				<path class="st4" d="M277.9,346.2c-8,1-16.2,3.8-23.5-2.3c-1.8-1.5-4.1-0.8-6.2-0.8c-51.5,0-103,0-154.6,0.1
					c-4.1,0-6.6-0.6-5.7-5.4c0.8-0.6,1.9-0.7,2.8-0.3c2.7,2.3,6,1.9,9.2,1.9h144c4.9,0,9.5,0.4,13.9,2.8c4.1,2.2,8.7,1.6,13.1,1.3
					c3.1-0.2,4.2-2.6,4.3-5.2c0.2-9.8,0.3-19.5,0-29.3c-0.1-3.2-1.8-5.2-5.5-5s-7.5-0.4-11,1.2c-1.2,0.3-2.4-0.4-2.7-1.6l0,0
					c0-0.2-0.1-0.4-0.1-0.6c-0.1-0.7,0.1-1.4,0.4-2c0.6-0.9,1.5-1.5,2.5-1.8c4.9-0.7,9.9-0.3,14.9-0.3c4,0,5.8,2.1,5.7,6
					C279,318.7,280.2,332.5,277.9,346.2z"/>
				<path class="st4" d="M256.4,302.5c-0.1,0.9,0.3,1.7,1.1,2.1c0.1,2.7-1.8,3.2-3.8,3.5c-2.1,0.2-4.3,0.3-6.4,0.2H99.5
					c-6.2,0.2-8,1.9-8.1,7.9c-0.1,5.2,0,10.3-0.1,15.5c0,2.1,0.3,4.3-1.5,6h-2.1c0-9.1,0.2-18.1-0.1-27.2c-0.2-4.6,1.1-6,5.9-6
					c51.9,0.2,103.8,0.1,155.7,0.1c2,0,4.3,0.8,6.1-1.1C255.1,302.6,255.5,302.2,256.4,302.5z"/>
				<path class="st4" d="M254.3,351.6c-2.7,2.1-5.4-0.1-8.1-0.1c-29.1,0.2-58.2,0.1-87.4,0.1c-1.2-0.1-2.5,0-3.7,0.2
					c-3,0.8-6.1,2.1-6.5-3s2.9-4.7,6.3-4.7h71.4c7.6,0,15.3,0.1,22.9,0c2.7,0,4.9,0.6,6.2,3.2C255.8,349,254.4,350.1,254.3,351.6z"
					/>
				<path class="st4" d="M256.4,302.5l-1.1,1.1H87.4c2-2.6,4.3-1.9,6.4-2.1c1.8-0.2,4.1,0.8,4.7-2.1c2.9-0.6,2-2.9,2-4.7
					c0.1-2.6,0-5.3,0.4-7.9c1.8,4.4-0.7,9.5,2.9,14.9c0-4.3,0.2-7.2-0.1-10.1c-0.4-4.1,1.2-5.1,5.1-5.1c20.4,0.2,40.8,0,61.2,0
					c1.1-0.9,2.5-1.4,3.9-1.4c8.3-0.1,16.5-0.2,24.8,0c1.1,0,2.1,0.3,3,0.9c0.6,0.4,0.7,1.2,0.2,1.8l0,0l0,0
					c-2.4,1.7-5.1,1.2-7.7,1.2c-26.9,0.1-53.7,0.2-80.4,0.1c-6.1,0-7.8,1.8-7.3,7c0,2.6,2.1,4.7,4.7,4.8c1.2,0.1,2.5,0.1,3.7,0.1
					h131c1.6,0.1,3.2,0,4.8-0.3c1.3-0.5,2.6-1,3.9-1.4c1.8-0.4,2.7,0.1,1.8,2.1C256.4,301.8,256.4,302.2,256.4,302.5z"/>
				<path class="st4" d="M87.8,350.5c1.6-1.7,3.7-1.1,5.5-1.1c14,0,28,0,42.1-0.1c1.6,0,3.5,0.7,5.3-1.1c-1.7-1.6-3.7-1-5.4-1.1
					c-14,0-28.1-0.2-42.1,0.1c-5.2,0.1-7.7-1.8-8.1-6.7c-1-11.4-0.3-22.7-0.4-34h2.1v19.2c0,4.6,0.2,9.3-0.1,13.9
					c-0.2,3.6,1.2,4.5,4.7,4.5c16.9-0.1,33.8-0.1,50.6,0c1.9,0,3.9-0.8,5.5,1.1c-2.1,1.7-4.5,0.4-6.7,0.4c-15.7,0.1-31.4,0.1-45.9,0
					c-2,0.1-0.9,1.1-1.2,0.4c-0.1-0.3,0-0.4,0.3-0.4c15.8,0.1,31.6,0,47.4,0c1.8,0,3.7,0,3.8,2.6s-1.6,2.8-3.6,2.7
					c-17.6,0-35.1,0.1-52.7-0.1c-0.4-0.1-0.7-0.2-1-0.4L87.8,350.5z"/>
				<path class="st4" d="M86.8,366.5c54.7,0,109.5,0,164.2,0.1c2.4,0,5.1-0.9,6.5,2.2c-2-0.6-4.1-1-6.2-1.2
					c-54.5,0.1-109,0.1-163.5,0.1l-1.1-0.1C86.7,367.2,86.7,366.8,86.8,366.5z"/>
				<path class="st4" d="M87.8,350.6c13.5,0,27,0.3,40.5-0.2c5.3-0.2,11.1,2.6,15.9-1.9c-4.8-4.8-10.8-1.9-16.2-2.1
					c-12.2-0.5-24.4-0.2-36.7-1.2h56.1c0.9,4.9-0.2,6.8-6.1,6.6c-17.8-0.6-35.7-0.2-53.5-0.2C87.8,351.3,87.8,350.9,87.8,350.6z"/>
				<path class="st4" d="M277.9,346.2c0-13.6-0.2-27.2,0-40.8c0-3.9-1-5.3-5-5.1c-5.1,0.3-10.2,0.1-15.4,0.2
					c-0.1-1.6,1.1-2.2,2.3-2.4c6.3-0.5,12.5-0.9,18.8,0.2c0.8,0.2,1.6,0.8,2,1.5c1.7,8.5,0.6,17.1,0.7,25.7c-0.3,1.5-0.4,3-0.2,4.5
					c-0.6,3.2-0.3,6.6-1.2,9.8C277.7,341.5,279.9,344.6,277.9,346.2z"/>
				<path class="st4" d="M279.9,339.9l0.1-10.7c3.1-2.3,6.9-2.6,9.3-0.2c2.9,3,2.4,7.1,0.2,10.8c-1.4-1.1-1-2.5-1.1-3.9
					c-0.1-2.4-1.2-4.4-3.6-4.4c-2.7,0-3.8,2.1-3.9,4.7c-0.1,5.1,0.4,10.2-1.1,15.1c-0.3,0.8-0.7,1.6-1.1,2.3
					c-0.6-0.5-0.6-1.3-0.9-1.9c-0.1-0.5-0.1-1-0.1-1.4c0.1-0.7,0.5-1.4,1-1.9C280.5,345.8,279.8,342.8,279.9,339.9z"/>
				<path class="st4" d="M278.8,350.6l-0.1,1.1c-0.2,0.4-0.6,0.8-1,1.1l-20.3-0.1l-1.1-1.1c2.1-3.3,4.8-2.4,7.6-0.9
					c0.8,1.1,1.6,0.9,2.1-0.2C270.2,348.9,274.8,349,278.8,350.6z"/>
				<path class="st4" d="M263.9,350.7c-2.5,0.2-5.2-1-7.6,0.9l-2,0.1c-2.1-2,0.7-2.9,1.1-4.3c2.1,1.5,4.6,1,7,1.1
					C263.7,348.5,265.6,348.4,263.9,350.7z"/>
				<path class="st4" d="M278.8,350.6l-12.7-0.2c0.6-3.2,3.2-1.8,5-1.9c2.6-0.2,5.2,0,7.7,0C278.8,349.2,278.8,349.9,278.8,350.6z"
					/>
				<path class="st4" d="M86.8,363.4h2.1c0.9-0.2,1.3,0.1,1.1,1.1c-0.7,1.3-2,1.1-3.2,1.1C86.8,364.8,86.8,364.1,86.8,363.4z"/>
				<path class="st4" d="M155,269.4l-3.2-1.1c-20.4,0-40.7-0.1-61.1,0.1c-3.9,0-5.3-1-5.2-5c0.3-8.3,0.1-16.6,0.1-25
					c0.6-0.3,1.4,0,1.7,0.6l0,0l0,0c1.8,7.6,0.3,15.4,0.9,23c0.1,2.4,1.4,3.5,3.7,3.6c1.8,0.1,3.6,0,5.3,0h145
					c2.8,0,5.7-0.1,8.5,0.1c1.4,0.1,2.6,0.8,3.5,1.9l0.3,0.9c-0.1,0.6-0.6,1.2-1.2,1.3c-7.3-0.2-14.7-0.5-22,0.3
					c-22.8,1.2-45.7,0.3-68.5,0.5C160.2,270.7,157.6,270.2,155,269.4z"/>
				<path class="st4" d="M86.6,238.4c-0.3,0-0.6,0-0.9,0c0.8-3.6,3.7-2,5.7-2c53.1-0.1,106.1-0.1,159.1-0.1h3.8
					c0.3,0.6,0.1,1.4-0.6,1.8l0,0c-2.1,1.1-4.5,0.8-6.8,0.8H91.4C89.8,239.1,88.2,238.9,86.6,238.4z"/>
				<path class="st4" d="M254.3,237.4v-1.1c1.3-2.5,3.4-3.2,6.1-3.2c6.5,0.1,13,0,19.5,0l1.1,1.1c0.3,0.6,0.4,1.2,0.1,1.9
					c-0.3,11.8-0.1,23.7-0.1,35.5c-0.4,1-1.2,1.8-2.1,2.1c-7.7,1.6-15.7,1.6-23.5,0l0,0c-1.1-1.2-2.5-2.4-1.1-4.3l0,0
					c7.3,0.6,14.7,1.4,22,0c2.3-4.5,0.6-9.4,1.1-14c0.2-2.3,0-4.6,0-6.9c0.1-13,0.1-13-13-12.9c-2.6,0-5.3-0.3-7.6,1.6l-0.8,0.4
					C255.4,237.8,254.8,237.7,254.3,237.4z"/>
				<path class="st4" d="M257.5,232.1c7-1.8,14.3-1.8,21.3,0H257.5z"/>
				<path class="st4" d="M254.3,269.4c0.4,1.4,0.7,2.9,1.1,4.3c-1.9,0.2-2.8-1.5-4.3-2.1c-4.6-0.9-9.3-0.9-13.9,0
					c-3.7,2.7-2.4,6.6-1.7,9.7s4.2,1.9,6.5,2c8.7,0.1,17.4,0,26.1,0c12.1,1.2,24.3,0.2,36.4,0.5c1.7,0,3.5,0.5,5.2-0.5l0,0
					c0.9-0.6,1.7-0.7,2.4,0.2c0,1.3-0.8,2.5-2.1,2.9c-6,1.1-12.2,0.2-18.2,0.5h-53.5c-1.9,0-3.9,0.1-5.6-1.1
					c-0.5-0.4-0.9-0.8-1.1-1.4c-0.1-0.5-0.1-1.1,0.1-1.6c1.6-3.5,1.1-7.2,0.6-10.8c-0.3-0.4-0.5-0.8-0.6-1.3s0-1,0.3-1.4
					C239.4,267.6,246.8,268,254.3,269.4z"/>
				<path class="st4" d="M330.1,236.4v1.1c-0.4,0.3-0.9,0.4-1.4,0.4c-3.6-0.2-7.1-0.3-9.3,3.2c-0.4,0.9-0.9,1.7-1.3,2.6
					c-1,3-0.1,6.8-3.9,8.4c-2.9,1.8-6,3.1-7.9,6.1c-1.4,1.4-2.1,3.4-4,4.3c-0.7,0.3-1.6,0.1-2.1-0.5c0.5-5.3,4.1-8.8,8-11.2
					c3.2-1.8,5.6-4.8,6.6-8.4c1.5-5.1,5.6-7.1,10.3-8C327.1,233.9,329,234.1,330.1,236.4z"/>
				<path class="st4" d="M309.8,283.3c-0.6,0.3-1.2,1-1.8,1c-12.7,0.1-25.4,0.1-38,0c-0.6,0-1.2-0.6-1.8-0.9L309.8,283.3z"/>
				<path class="st4" d="M280.9,271.6c-1.4-1.1-1.1-2.5-1.1-3.9v-28.5c0-1.4-0.3-2.9,1.1-3.9c1.1,6.4,0.2,12.8,0.5,19.1
					c-0.3,5.3,0.6,10.8-0.5,16.1C281,270.9,281,271.2,280.9,271.6z"/>
				<path class="st4" d="M255.3,273.7h23.5c-0.4,0.7-1.2,1.2-2.1,1.1c-6,0.8-12.1,0.8-18.1,0C257.4,274.7,256.1,275,255.3,273.7z"/>
				<path class="st4" d="M304.5,275.9c-4-3.4-7-7.2-4.3-12.8c1.8,1.5,1.8,3.8,2.8,5.7c0.5,1.1,1,2.1,1.7,3.1
					c0.2,0.4,0.4,0.9,0.6,1.3C305.5,274.2,305.2,275.2,304.5,275.9z"/>
				<path class="st4" d="M281,254.5v-20.3c2.3,6.7,0.5,13.5,1.1,20.3C281.7,255,281.3,255,281,254.5z"/>
				<path class="st4" d="M258.5,274.8h18.1C270.7,276.4,264.5,276.4,258.5,274.8z"/>
				<path class="st4" d="M281,254.5h1.1c-0.6,5.3,1.2,10.8-1.1,16V254.5z"/>
				<path class="st4" d="M304.5,275.9l-0.1-3.2c3.5,0.3,6.7,2.1,8.8,4.9c-0.1,0.5-0.5,0.9-1,1.1c-2.5,0.4-4.6-0.8-6.8-1.8
					L304.5,275.9z"/>
				<path class="st4" d="M237.2,271.5c4.5-1.7,9.4-1.7,13.9,0H237.2z"/>
				<path class="st4" d="M305.5,276.9l7.5,1.1c0.3,0.4,0.4,0.8,0.3,1.3c-0.3,0.6-0.9,1.1-1.5,1.3c-1.1-0.2-2.1-0.7-3-1.5
					C307.2,279.2,305.9,278.3,305.5,276.9z"/>
				<path class="st4" d="M302.3,269.5c-1.4-1.8-2.2-4.1-2.1-6.5v-1h2.1c0.8,2,1.1,4.2,0.8,6.4C302.9,268.8,302.7,269.2,302.3,269.5z
					"/>
				<path class="st4" d="M308.7,279.1l3.2,1.1c0.9,0.8,1,2.1,0.2,3c-0.1,0.1-0.1,0.1-0.2,0.2h-2.1
					C311.1,281.5,309.3,280.4,308.7,279.1z"/>
				<path class="st4" d="M338.6,241.7c2.3-3.8,0.8-7.9,1-11.9c0.2-2.8,0.7-4.2,3.9-4.2c27.3,0.1,54.5,0,81.8,0
					c1.1-0.2,2.2,0.2,2.9,1c-2,2.1-4.6,1.6-7,1.6c-13.2,0.1-26.4,0-39.6,0c-11.4,0-22.7,0.1-34.1-0.1c-3.9-0.1-5.3,1.2-5.3,5.2
					c0.2,8.9,0.1,17.8,0,26.7c0,2.3,0.3,4.6-0.9,6.8c-0.3,0.6-1,0.9-1.7,0.7c-2.4-2.9-1.3-6.4-1.5-9.6c-0.2-3.7,0-7.4,0-11.1
					c0.1-1.5-0.1-2.9,0-4.4L338.6,241.7z"/>
				<path class="st4" d="M431.4,225.7l1.1,1.1c-0.7,2,0.3,4.1,0,6.1c-0.7,4.8,1.8,5.9,5.9,4.9c2.5-0.9,5.7-3.6,6,2
					c-1.7,1.4-2,3.2-2,5.2v42c-0.1,2,0.5,3.9,1.7,5.4c-1.9,3.6-2.6,3.5-6.3-0.6c-2-1.1-4.2-0.4-6.2-1c-0.5-0.2-1-0.4-1.5-0.8
					c-0.5-0.7-0.6-1.6-0.2-2.4c0.3-0.4,0.8-0.7,1.3-0.9c2.2-1.2,5,0.9,7-1.3c0.4-12.6-0.1-25.2,0.2-37.7c0.1-4.7-1.8-6-6-5.2
					c-0.6,0-1.2,0-1.8-0.2c-0.5-0.3-1-0.7-1.2-1.2s-0.4-1.1-0.5-1.7c-0.2-3.9-0.2-7.8,0.1-11.7l0.2-0.8
					C429.7,225.9,430.6,225.5,431.4,225.7z"/>
				<path class="st4" d="M381.3,226.8l46.8-0.2l1.2,0.1l0,0c0.7,1.7,0.8,3.7,0.1,5.4c-0.6,0.3-1.3,0.2-1.8-0.1
					c-2.7-2.3-6-2.8-9.4-2.8c-9.9,0-19.8,0-29.7,0c-2.3,0-4.6,0.3-6.8-0.8C381.2,228.2,381,227.5,381.3,226.8L381.3,226.8z"/>
				<path class="st4" d="M329,237.4h1.1c1.5,2.6,3.6,3.5,6.4,2.1c0.4-1.1,0.7-2.1,1.1-3.1c1.7,1.5,0.8,3.5,1.1,5.3l0.1,0.1
					c-2.1,1.9-4.6,1.6-7,1.2C328.4,242.4,327.1,240.6,329,237.4z"/>
				<path class="st4" d="M156.1,279.1v-3.3c-0.3-5.1,0.3-5.8,5.3-5.8H224c2.8,0,6-0.5,7.3,2.8c1.4,3.6,1.4,7.3-1.3,10.5
					c-0.9,1.1-1.9,2.1-3.1,2.9c-7,1.6-14.2,1.3-21.1,0.5c-10.1-1.1-20.1-0.4-30.2-0.8c-1.9-0.1-3.9,0.5-5.7-0.5H156
					c0-1.1-0.1-2.3-0.3-3.4C155.4,281.1,155.5,279.9,156.1,279.1z"/>
				<path class="st4" d="M170,285.5l57.6-0.1c1.2-1,2.8-1.4,4.3-0.9c7.7,2.1,15.6,0.5,23.5,1.1c0.3,0.6,0.1,1.3-0.4,1.6l0,0h-0.1
					c-5.9,1.7-12,0.4-17.9,0.8h-28.3c-2.3,0-4.7,0.3-6.6-1.4l-32-0.1C170,286.1,170,285.8,170,285.5z"/>
				<path class="st4" d="M156.1,279.1c-0.2,2.4,0.8,4,3.3,4.5c-0.8,1.4-2.8,0.4-3.3,1.8l-1.1-1C155.3,282.6,154.3,280.6,156.1,279.1
					z"/>
				<path class="st4" d="M231.9,284.4c-1.2,1.5-2.8,0.9-4.3,0.9c0.6-3.1,4-5,3.4-9s-1.8-5.9-5.8-5.9h-63.4c-3.6,0-5.7,1.5-5.7,5.3
					c-1.9-1.9-0.7-4.3-1.1-6.4c2.7-2.5,5.3,0.1,8.1,0.1c20.6-0.2,41.2-0.2,61.8,0c2.4,0,4.7-2.4,7-0.1c0,0.4,0,0.8,0.1,1.2
					c1.5,4,1.5,8.5,0,12.5C231.9,283.6,231.9,284,231.9,284.4z"/>
				<path class="st4" d="M572.3,252.4c-1.8,1.8-4,1-6.1,1c-35,0.1-69.9,0.1-104.9,0.1c-2.2-0.1-1.8-1.8-1.9-3.2
					c0.9-1.8-0.2-4.9,3-5.4c0.3,2.5-1.1,5.9,3.2,6.4c1.8,1.1,3.8,0.5,5.7,0.5c31.8,0,63.5,0,95.2,0
					C568.4,251.9,570.4,251.3,572.3,252.4z"/>
				<path class="st4" d="M572.3,252.4c-33.5,0-67.1,0-100.6-0.1c-2,0-4.3,0.8-6.1-1.1h106.7V252.4z"/>
				<path class="st4" d="M462.3,244.9c-2,1.3-0.1,4-2.1,5.3c-1.3-0.9-1.3-2.5-1.9-3.8c-0.3-0.9-0.8-1.7-1.4-2.4
					c-2.9-2.8-6.8-2.7-10.3-3.8c-0.5-1.4-1.9,0-2.6-0.8c-1.8-4.4-3.5-0.9-5.3,0.1c-0.9-1.7-4.3-0.1-4.3-3.1c3.6,0.1,7-1.7,10.7-1.1
					c3,1.9,6.3,2.5,9.7,3.4S461.7,240.7,462.3,244.9z"/>
				<path class="st4" d="M336.4,239.5c-3,1.9-5.3,1.9-6.4-2.1C331.9,238.8,333.9,240,336.4,239.5z"/>
				<path class="st4" d="M434.6,236.4c0.9,1.8,4.3,0.1,4.3,3.1c-8,0.1-9.8-3.4-6.4-12.7v1.1c1.4,2.4-0.4,5.1,1.1,7.5
					C433.9,235.6,434.3,236,434.6,236.4z"/>
				<path class="st4" d="M433.5,235.3c-2-2.3-0.7-5-1.1-7.5C434.5,230.1,433.2,232.8,433.5,235.3z"/>
				<path class="st4" d="M374.9,385.7h42.7c2.3,0,5.9-1.1,6,2.4c0.1,3.7-3.5,3.9-6.4,3.9c-12.8,0.1-25.6,0-38.4,0l-47,0.1h-3.2
					c-2.3,0-4.7-0.8-4.5-3.4s2.5-3.1,4.8-3.1h9.6L374.9,385.7z"/>
				<path class="st4" d="M318.5,382.5c-3.6,0.4-3.4-2-3.4-4.4v-31.8c-1.2-1.3-1.3-3-1.5-4.6c-0.1-0.8-0.2-1.7-0.3-2.5
					c0.6-4.3-0.1-8.6,0.8-12.9c0.2-0.6,0.6-1.1,1.1-1.5h1c0.5,0.4,0.9,1,1.1,1.6c0.9,11.8,0.2,23.6,0.4,35.5c0,4.1,0.1,8.1-0.1,12.2
					c-0.2,3.6,1.1,5.4,4.8,4.9c44.4,0,88.9,0,133.3,0.1c2.7,0,6.2-1.4,7.8,2.5c-2.2,1.8-4.8,1.1-7.2,1c-42.7-0.7-85.3-0.5-127.9-0.5
					c-1.9,0-3.9-0.4-5.8,0.4l-2.2,0.1C319.8,382.2,319.1,382.2,318.5,382.5z"/>
				<path class="st4" d="M319.4,398.5v-1.1c1.3-1.2,3-1.1,4.5-1.1c11.4,0.3,22.7-0.6,34-0.5h54c5.4,0.3,10.9-0.6,16.3,0.5v1
					C392,399.6,355.7,398.2,319.4,398.5z"/>
				<path class="st4" d="M322.7,382.5c1.8-1.8,4.1-0.9,6.1-1c44.9-0.1,89.8-0.1,134.7,0c0.5-4.8-1.4-9.6,0.3-14.4
					c0.3-0.5,0.8-0.9,1.3-0.9c0.9,0.1,1.6,0.7,2,1.5c0.2,0.6,0.3,1.2,0.2,1.8c-0.4,4.3,2.6,8.9-1,13c-12.6,0.9-25.3,1-38,0.1
					L322.7,382.5z"/>
				<path class="st4" d="M357.8,396.4c-12.8,0.2-25.6,1.7-38.4,1.1v-1.1c0.3-0.4,0.6-0.8,1.1-1.1l37.4,0.1c0.3,0.2,0.4,0.5,0.3,0.7
					S357.9,396.4,357.8,396.4z"/>
				<path class="st4" d="M357.8,396.4v-1h54.3c0.4,0.2,0.5,0.4,0.4,0.6s-0.2,0.3-0.4,0.3L357.8,396.4z"/>
				<path class="st4" d="M428.3,382.6h32.2c2.1,0,4.3,0.1,6.1-1.1c1.1,0.4,2.1,1.2,2.6,2.3c0.2,0.7,0.1,1.5-0.5,2
					c-2.7-1.6-5.9-2.4-9.1-2.1c-7.8,0.1-15.5,0-23.3,0.1c-1.7,0-3.6-0.6-5,1.1l-2,2.1l-1.1-1.1c-0.3-0.2-0.4-0.4-0.3-0.6
					s0.2-0.3,0.3-0.3L428.3,382.6z"/>
				<path class="st4" d="M412.2,396.4v-1c4.8-0.1,9.6-0.1,14.4-0.4c1.3-0.1,1.5,0.4,1.7,1.4H412.2z"/>
				<path class="st4" d="M320.4,395.4l-1.1,1.1c-0.5-4.6,1.1-9.4-0.9-13.9c0.7-1.2,1.4-0.9,2,0.1V395.4z"/>
				<path class="st4" d="M428.2,384.8c0,0.3,0,0.7,0,1v6.1C427.4,389.5,426.4,387.1,428.2,384.8z"/>
				<path class="st4" d="M542.4,365.5c-4.3,4-4,9-2.2,13.7c5.5,14.2,11.2,28.4,17.1,42.4c1.7,4.1,0.6,6.1-3.3,7.1
					c-4.3,1.2-8.6,2.1-12.9,2.8c-4.2,0.5-5.7-3-7-6.1c-6.2-16-12.2-32.1-18.6-48c-1.7-4.3-2.1-9.5-7.2-11.7
					c-11.8,1-23.7,0.5-35.5,0.2c-4.7-0.1-6.2-2.8-6.6-9.7c0-6.7-0.1-13.5,0-20.2c0.1-6.4,2.1-8.6,8.5-9c6.2-0.4,12.4-0.2,18.6-0.1
					c14.3,0.3,28.6-0.5,43,0.7c6.8,0.6,11.4,2.9,14.8,8.5c3.6,5.5,7.7,10.6,11.1,16.2c2.2,3.8,1.3,6.1-1.9,8.5c-3.3,2.4-7,4.1-11,5
					c-1.8,0.2-3.7,0.2-5.5,0.5C543.3,366.1,542.8,365.9,542.4,365.5z"/>
				<path class="st4" d="M466.6,368.5v-0.8c-0.3-0.6-0.1-1.4,0.5-1.7l0,0c13.7-0.4,27.4-1.4,41,0.6c0.7,0.5,1.2,1.3,1.1,2.2
					c-0.8,0.7-1.5,1.4-2.1,2.3c-1.2,2.5-0.5,5.1-0.6,7.6c-0.1,2,0,4.2-1.9,5.6c-6.4,1.6-12.9,0.6-19.3,0.6c-1.4,0-2.8-0.8-3.4-2.1
					c-1.1-2.5-0.8-5.2-0.6-7.7c0.3-3.8-1-5.6-5-5.1c-1.6,0.1-3.1-0.1-4.7-0.5c-1-0.2-2-0.3-3-0.1C467.8,369.5,467,369.1,466.6,368.5
					z"/>
				<path class="st4" d="M542.4,365.5c0.4,0,0.7,0,1.1,0c1.6-1.2,3.8,0.2,5.3-1.1c3.8-1.6,8.1-2.1,11.4-5.1c2.3-2.1,3.1-4,1-6.8
					c-3.6-4.8-6.8-9.8-10.2-14.8c-0.8-1.1-0.5-1.9,0.6-2.5c2.8,1.5,3.6,4.7,5.8,6.7l5.3,7.5c0.2,0.8,0.5,1.7,0.9,2.4
					c3.3,4.9,3,6.6-2.1,9.5c-1,0.6-2,1.3-3,2l0,0c-2.5,1-5,2.1-7.5,3.2l0,0c-2.8,1.1-5.7,1.8-8.5,0
					C542.4,366.2,542.4,365.9,542.4,365.5z"/>
				<path class="st4" d="M508.3,366.5l-41.6,0.1c-1.6-3.8-3.3-7.6,1.1-10.8c0.2,7.9,0.9,8.5,8.4,8.5h25.9c2.1,0,4.3-0.1,6.2,1.1
					C508.3,365.8,508.3,366.2,508.3,366.5z"/>
				<path class="st4" d="M468.7,368.8c0.4-0.8,1.3-1.2,2.2-1.1c1.1,3.8,0.3,7.7,0.4,11.6c0.1,3.2,1.4,4.8,4.8,5
					c11.8,0.5,23.6,1.1,35.4-0.3c0.3-0.3,0.6-0.7,0.8-1.1c0.2-0.7,0.4-1.3,0.8-1.9l0.5-0.5c2.5,2.7,2.8,6.2,4,9.7
					c-1.7-3.2-4.2-3.5-7.3-3.4c-12,0.2-24,0.1-36.1,0c-1.9,0-3.9,0.7-5.5-1.1l-0.1-2.1C467.3,378.6,466.8,373.7,468.7,368.8z"/>
				<path class="st4" d="M560.5,422c1.1,1.4,2.1,2.9,3.2,4.3c0.8,4.1-2.1,4.7-5,5.2c-7.2,1.5-14.5,2.9-21.7,4.3
					c-0.3-0.2-0.5-0.4-0.3-0.6s0.2-0.3,0.3-0.3c5.6-1.6,11.2-2.8,16.9-3.8C561.9,429.5,561.8,429.4,560.5,422z"/>
				<path class="st4" d="M506.2,368.7l3.2,0.1c0,0.3,0,0.6,0,0.9c0.6,1.8,1.8,3.5,1.7,5.5c-0.7,1.6-2.5,2.5-4.3,2
					c-1.9-0.5-1-2.6-1.1-4.1S505.2,370.1,506.2,368.7z"/>
				<path class="st4" d="M521.1,399.6c2.8,4.2,4.6,8.9,5.3,13.9l0,0C523.6,409.3,521.8,404.6,521.1,399.6z"/>
				<path class="st4" d="M542.4,378.3c2.8,3.8,4.6,8.2,5.3,12.8C545,387.3,543.1,382.9,542.4,378.3z"/>
				<path class="st4" d="M550.9,395.4c-0.3,3.1,2.6,5.3,2.2,8.5c-2.8-3.8-4.6-8.2-5.3-12.8L550.9,395.4z"/>
				<path class="st4" d="M542.4,366.5h8.5c-1.8,2.9-5.4,1.2-7.5,3.1C540.5,369.5,543,367.5,542.4,366.5z"/>
				<path class="st4" d="M555.2,409.2c2.8,3.8,4.6,8.2,5.3,12.8C557.8,418.2,555.9,413.8,555.2,409.2z"/>
				<path class="st4" d="M510.4,375l-1.1-5.3c2.5,3,4,6.8,4.3,10.7l0,0C510.1,380.1,510.9,377.2,510.4,375z"/>
				<path class="st4" d="M531.7,427.4c-2.2-2.4-2.9-5.4-3.2-8.5l0,0C530.8,421.2,531.4,424.2,531.7,427.4z"/>
				<path class="st4" d="M542.5,376.2v2.1c-1.9-1.9-0.9-4.2-1-6.8C543,373.2,542.1,374.8,542.5,376.2z"/>
				<path class="st4" d="M526.4,413.5c1.5,1.3,2.3,3.3,2.1,5.3l0,0C527,417.5,526.2,415.5,526.4,413.5z"/>
				<path class="st4" d="M553.1,403.9c1.5,1.3,2.3,3.3,2.1,5.3C553.7,407.9,552.9,405.9,553.1,403.9z"/>
				<path class="st4" d="M521.1,399.6c-1.2-1.2-2.3-2.5-1.8-4.5C521,396.3,521.1,398,521.1,399.6z"/>
				<path class="st4" d="M533.9,432.7c-1.5-1.3-2.3-3.3-2.1-5.3l0,0C533.3,428.7,534.1,430.7,533.9,432.7z"/>
				<path class="st4" d="M537.1,434.9v1c-2.5,0.4-3.4-0.8-3.2-3.1l0,0C535,433.4,535.4,435,537.1,434.9z"/>
				<path class="st4" d="M429.3,311h140.6v1.2H437.2c-3.3,0-7.7-0.5-4.8,5.3c3.1,1.8,6.5,1.1,9.7,1c3.3-0.2,6.6,0.5,9.5,2.2
					c3.8,1.5,7.9-0.4,11.7,1.1h1.1c0.3,0.5,0.2,1.3-0.4,1.6l0,0l0,0c-5.9,1.1-11.9,2.3-17.4-1.3c-3.7-1.8-7.7-0.9-11.5-0.9
					c-8.1,0.1-9.6-1.7-7.5-9.7C428,310.9,428.7,310.7,429.3,311z"/>
				<path class="st4" d="M464.5,322.8v-1.1c2.9,0.8,5.9,1.2,8.9,1.1c15.4-0.1,30.8-0.1,46.2,0c8.3,0.1,16.5,0.6,24.8,1.1
					c0.8,0.2,1.6,0.6,2.3,1.1c-1.7,1.6-3.9,1.5-6,1.5H521c-16.5,0-33,0.1-49.5-0.1C468.8,326.3,465.1,327.3,464.5,322.8z"/>
				<path class="st4" d="M463.5,321.7c-3.9-0.5-8,1.2-11.7-1.1C455.6,321.2,459.7,319.5,463.5,321.7z"/>
				<path class="st4" d="M550.9,366.5c2-2,4.7-3.1,7.5-3.2C556.4,365.3,553.7,366.5,550.9,366.5z"/>
				<path class="st4" d="M467.7,355.9c-2.2,3.4-0.6,7.2-1.1,10.8v1.1l-1.1-1.1c-2.6-4.4-1.2-9.1-1.1-13.6c1.5-5.9,0.7-11.9,0.7-17.8
					c0-4.9,1.6-8.1,6.4-9.5c16.3-0.1,32.6,0,48.9,0h22.1c1.6,0,3.1,0.5,4.3,1.6l5.3,7.5c0.3,0.2,0.4,0.5,0.3,0.7s-0.2,0.4-0.4,0.4
					c-0.7,0.5-1.1,1.3-1.1,2.1c-4.5-10-13.9-9.2-22.3-9.4c-17.6-0.5-35.2-0.2-52.8-0.1c-7.2,0-8.2,1.2-8.1,8.5
					C467.7,343,467.7,349.5,467.7,355.9z"/>
				<path class="st4" d="M546.7,327.1c-8.5-1.5-17.1-0.9-25.7-1.1c-0.3-0.2-0.5-0.4-0.3-0.6s0.2-0.3,0.3-0.3l25.6-0.1
					C546.7,325.6,546.7,326.4,546.7,327.1z"/>
				<path class="st4" d="M552,335.6v-1.1c2.6,1.8,4.5,4.4,5.4,7.5C554.7,340.6,553.2,338.2,552,335.6z"/>
				<path class="st4" d="M460.2,273.7c22.7,0,45.5,0.1,68.2-0.1c4,0,5.7,0.7,5.5,5.2c-0.3,8.8,0,8.8-8.9,8.8h-64.9
					C458,283.2,458,278.1,460.2,273.7z"/>
				<path class="st4" d="M463.4,254.5H569c-0.3,2.6-2.6,2.7-4.4,3.3c-27.7,0.6-55.3,0.1-83,0.2c-4.6,0.2-9.3,0.1-13.9-0.2
					C466,257.3,463.8,257.1,463.4,254.5z"/>
				<path class="st4" d="M463.4,254.5l3.2,2.1c-0.4,0.8-0.9,1.5-1.4,2.2c-3.5,6-1.2,10.1,5.6,10.1c29.3,0.1,58.7,0.1,88,0
					c3.2,0,7.1,1.2,9.2-2.6s-0.2-6.7-2-9.8l3.2-2.1c3.8,1,2,4.1,2.1,6.2c0.2,10.9,0,10.9-10.8,10.9H460.3
					c-2.8-5.1-1.5-10.4-0.9-15.7c0.1-0.9,1-1.5,1.9-1.4l0,0L463.4,254.5z"/>
				<path class="st4" d="M460.2,289.6l111,0.1c2,2.5,2.1,6.1,0,8.6c-0.3,0-0.9,0-1-0.2c-2.5-6.2-7.7-6-13.2-6
					c-30.1,0.1-60.2,0.1-90.3-0.1c-3.6,0-7.3,2.3-10.8-0.4C456.2,288.7,458.1,288.8,460.2,289.6z"/>
				<path class="st4" d="M460.2,289.6l-4.3,1.2c-2.7,2.8-5.6,3.3-8.8,0.9c0.9-2.8,3.6-2.9,5.6-3.1c4-0.5,4.9-2.6,4.8-6.2
					c-0.1-9.9-0.1-19.9,0-29.8c0-2.2-0.5-4.7,1.5-6.5c1.5,1.1,0.8,2.8,1.1,4.3c0,1.2-0.2,2.4,1,3.2v1c-2.1,5.6-0.5,11.4-1.1,17.1
					v17.9H460.2z"/>
				<path class="st4" d="M537.1,288.6c1.6-1.7,3.7-1,5.5-1.1c9.9-0.1,19.8,0,29.7,0c0.4,0.4,0.7,0.7,1.1,1.1
					c0.6,1.6,1.3,3.2-0.7,4.5c-1.9-1.1-0.1-3.3-1.5-4.5H537.1z"/>
				<path class="st4" d="M571.2,275.8h-32c2.5-2,5.4-0.9,8.2-1c8-0.2,15.9,0,23.9,0C571.2,275.1,571.2,275.5,571.2,275.8z"/>
				<path class="st4" d="M571.2,288.6c1.6,1.1,0.9,2.8,1.1,4.3c2.1,5.7,0.8,11.4,0,17.1c-0.8,0.1-1.7-0.3-2.1-1.1
					c-0.3-1.4-0.4-2.8-0.4-4.1c0.1-2.3-0.4-4.7,1.4-6.6v-8.5C571.2,289.3,571.2,289,571.2,288.6z"/>
				<path class="st4" d="M574.4,254.5c0,5,0,10,0.1,14.9l-0.2,2C573.8,265.8,572.3,260.1,574.4,254.5z"/>
				<path class="st4" d="M571.2,305.7c0,1.2,0.2,2.5-1,3.2L569,309c-1.9,0.8-3.9,0.4-5.8,0.4H429.1c-0.7-0.1-1.2-0.7-1.4-1.4
					c-0.1-1.2,0.1-2.5,0.5-3.7c0.7-2,2-2.7,3.4-0.7c1.8,2.6,4.4,2.6,7.1,2.6c40.6,0,81.3-0.1,121.9,0.2c5.1,0,6.9-3,8.9-6.4
					C571.6,301.8,569.9,304.1,571.2,305.7z"/>
				<path class="st4" d="M428.2,308.9l130.1,0.1c3.6,0,7.1,0,10.7,0.1c-1.8,1.7-4.1,0.9-6.1,0.9c-42.5,0-85,0.1-127.5,0.1
					c-2,0-4.3-0.8-6.1,1l-1.1,0.1C427.7,310.5,427.7,309.5,428.2,308.9z"/>
				<path class="st4" d="M572.3,310c0-5.7,0-11.4,0-17.1c1.5-1.1,0.9-2.8,1.1-4.3C575.4,295.7,575,303.2,572.3,310z"/>
				<path class="st4" d="M257.5,369.7l15.9,0.1c-2.6,2-5.7,0.5-8.5,1.1C262.5,370.3,259.7,371.9,257.5,369.7z"/>
				<path class="st4" d="M314,339.8l1.1,1.2c-2.6,2.3-5.5,0.4-8.2,0.4c-5.5,0-10.9,0.7-16.4-0.5l-1.1-1.1v-1.1c0-9.8,0-9.8-9.5-9.6
					c-1.1-0.6-1.2-1.4-0.2-2.1c8.2-1.3,8.1-1.3,8.2-9.9c0.1-10-0.5-20.1,0.4-30.1c0.3-0.6,0.6-1.1,1.1-1.6h2.1
					c0.4,0.5,0.6,1.1,0.6,1.8c-0.3,15.1-0.1,30.2-0.1,45.3c0,2.3-0.8,5.3,3,5.7c5.1,0.2,10.2,0,15.3,0.2
					C311.8,338.3,313.1,338.8,314,339.8z"/>
				<path class="st4" d="M290.6,340.9l24.5,0.1v5.2l-2.1,1.1c0-4.8-3.5-5-6.9-5.3C300.9,341.5,295.6,343.2,290.6,340.9z"/>
				<path class="st4" d="M277.7,352.7l1-1.1c0,0.7,0.1,1.4,0.1,2.1c-0.5,3.2,1.1,6.6-1.1,9.6C277.8,359.8,277.8,356.2,277.7,352.7z"
					/>
				<path class="st4" d="M255.4,354.8c5.2-0.8,10.5,0,15.7,0s4.4,3.9,4.6,7.1c0.2,3.4-0.5,6.1-4.7,5.7c-3.8-0.4-7.7,1.2-11.3-1.1
					c-0.3-0.4-0.3-1,0.1-1.3l0,0l0.1-0.1c3-0.9,5.9,0.3,8.9,0c2.7-0.2,4.4-1.2,4.3-4.1c-0.1-2.7-1.8-3.7-4.2-3.6
					c-4.2,0-8.4-0.6-12.6,0.7c-0.6,0.2-1.2,0.3-1.9,0.3c-52.2,0.2-104.4,0.1-156.6,0.1c-1.9,0-4,0.2-5.6-1.3
					c-0.3-1.1,0.2-1.6,1.3-1.7c1.6-0.1,3.2,0,4.8,0h151.4C251.6,355.3,253.5,355.8,255.4,354.8z"/>
				<path class="st4" d="M259.6,365.5v1.1c-4.6-2.2-9.6-2.1-14.5-2.1H90l-1.1-1.1V358c0.6-0.3,1.4-0.2,1.8,0.4
					c2.1,3.8,5.8,3.5,9.4,3.5h147c2.1,0,4.3-0.1,6.4,0.1C256.1,362.2,258.5,362.7,259.6,365.5z"/>
				<path class="st4" d="M90,358h-1.1c1.1-3.7,4.2-3.2,7-3.2h159.5c-2,1.9-4.4,1-6.6,1c-50.2,0.1-100.4,0.1-150.6,0.1
					c-2,0-4.3-0.8-6.1,1C91.7,357.9,91.1,358.5,90,358z"/>
				<path class="st4" d="M89.9,337.7v-21.8c0-7.1,2.1-9.1,9.2-9.1h151.2c2.5,0,5.5,1.1,7.1-2.1c4.9-3.8,10.6-2.2,15.9-1.8
					c2.8,0.2,3.1,3.8,3.1,6.1c0.2,10,0.2,19.9,0,29.9c-0.1,4-2.1,6.5-6.7,6.4c-5.3-0.2-10.6,0.4-15.4-2.9c-2.3-1.6-5.4-1.4-8.3-1.4
					c-49.6,0.1-99.2,0.1-148.7,0C94.5,340.9,91.2,341.7,89.9,337.7z"/>
				<path class="st4" d="M279.9,300.4c-7.4-1.9-15.1-1.9-22.4,0l-1.1,1c-1.4-3.7-2.8,1.4-4.3,0c-0.9,0.6-1.7,0.8-2.3-0.3
					c2.9-3.8,7.4-6.2,12.2-6.4c4.3-0.2,8.5-0.2,12.8,0c5.6,0.3,8.3,3,8.7,8.7c0.4,5.5-0.4,11,1.1,16.5c1.6-3,1.1-6.4,1.2-9.7
					s-0.2-6.8,0.1-10.1c0.3-3.6-1.2-7-0.7-10.5c0.6-0.3,1.2-0.4,1.9-0.2c1.7,1.1,1.9,2.9,1.9,4.7c0,8.8,0.1,17.7-0.1,26.5
					c-0.1,2.6,0.3,6.3-3.9,6.2c-4,0-4.5-3.1-4.6-6.4C280.2,313.8,281.1,307.1,279.9,300.4z"/>
				<path class="st4" d="M154,347.3c1.4-1.6,3.3-1.1,5-1.1h86.9c1.2,0,2.5,0,3.7,0.1c1.1,0.1,2.1,0.7,2.1,2s-1,1.9-2.1,2
					c-1.2,0.1-2.5,0.2-3.7,0.1H159c-1.7,0-3.6,0.6-5-1.1c2-1.7,4.4-1.1,6.6-1.1c26.8-0.1,53.6-0.1,80.4,0h-80.9
					C158,348.4,155.8,349,154,347.3z"/>
				<path class="st4" d="M154,347.3h95.3v2.1H154C152.9,348.8,152.9,348,154,347.3z"/>
				<path class="st4" d="M250,301.4h2.1c-1.6,1.7-3.7,1.1-5.5,1.1c-44.3,0-88.6,0-132.8,0c-8.1,0-9-1.1-9-8.7c0-5.1,2.5-6.3,7-6.3
					c30.1,0.1,60.1,0,90.1,0c8.4-1.2,16.8-0.2,25.2-0.5c3.3-0.1,6.7,0.6,9.9-0.5l18.2-0.1c10-1.1,20.1-0.2,30.1-0.5
					c1.5,0.1,3.4,0.1,1,2c-1,0.8,0.8,1.2-0.1,1.7h-1.1c-1.5,1.4-3.6,1.9-5.5,1.3c-6.2-1.3-12.4-0.7-18.6-0.7c-48,0-95.9,0-143.9,0
					c-2-0.1-3.9,0-5.9,0.1c-2.9,0.4-3.7,2.3-3.7,5c-0.3,2.2,1.3,4.2,3.5,4.5l0,0h0.2c1.8,0.2,3.6,0.2,5.3,0.1h125.9
					C245,299.9,247.8,299.2,250,301.4z"/>
				<path class="st4" d="M237.2,286.5c-1.8,1.8-4,1-6,1c-9.7,0.1-19.4,0-29.1,0v-1H237.2z"/>
				<path class="st4" d="M286.3,289.7l-2.3-1.8c1.1-0.6,2.6-0.1,3.4-1.4c0.7-0.6,1.4-0.8,2,0.1c0,11.3,0,22.7,0,34
					c0,8.1-1.6,9.2-9.7,6.4c0-8.9,0.1-17.8,0.1-26.7c2.2,5.1,0.5,10.4,1,15.6c0.2,2.1-0.1,4.3,0.2,6.4c0.3,1.8,1.7,3.3,3.6,3.4
					c2.1,0.3,2.9-1.3,3-2.9c1.1-10.4,1.1-20.8,0-31.2C287.7,291.1,286.8,290.4,286.3,289.7z"/>
				<path class="st4" d="M254.3,268.4l-2.2-1.1c-1.9-1-3.8-0.5-5.8-0.5c-50.6-0.1-101.2-0.1-151.8,0c-3.8,0-6.8-0.4-7.2-5
					c-0.3-5.5-0.2-11-0.1-16.5c0.1-5.2,1.5-6.6,6.5-7.2c1.8-0.1,3.6-0.2,5.3-0.1h150.5c1.9,0,3.9,0.5,5.7-0.5l0,0
					c5.9-4.4,12.5-2.7,18.9-2.1c3.1,0.3,3.5,3,3.5,5.6v23.9c0,4.4-2.2,6.4-6.7,6.2c-3.2-0.2-6.4-0.2-9.6,0
					C258.5,271.3,256.4,270.1,254.3,268.4z"/>
				<path class="st4" d="M255.3,237.4c-1.8,1.9-4,1.1-6.1,1.1c-50,0-99.9,0-149.9,0c-10.2,0-11.6,1.4-11.6,11.7V262
					c-0.2,0.3-0.6,0.4-0.9,0.2c-0.1-0.1-0.2-0.1-0.2-0.2l-0.1-23.5c1.8-1.8,4-1,6.1-1c53.8-0.1,107.7-0.1,161.5-0.1
					C254.6,237.4,255,237.4,255.3,237.4z"/>
				<path class="st4" d="M86.8,262h1.1c1.4,3.7,4.1,4.4,7.9,4.4c50.1-0.1,100.2-0.1,150.3,0c2,0,4.3-0.8,6.1,1
					c-53.3,0-106.7,0-160.2,0.1C87.6,267.4,86.2,266.1,86.8,262z"/>
				<path class="st4" d="M254.3,268.4c5.5,3.3,11.7,1.9,17.6,2.1c3.5,0.1,4.3-2.6,4.8-5.3c0.4-0.3,1-0.3,1.3,0.1
					c0.1,0.1,0.1,0.2,0.2,0.2c0,2,0.6,4.1-0.4,6c-5.6,0-11.2-0.1-16.7,0.1c-2.4,0.1-4.8-0.6-6.7-2.2
					C254.3,269.1,254.3,268.7,254.3,268.4z"/>
				<path class="st4" d="M277.7,265.2h-1c0-8-0.1-16,0-23.9c0.1-4.3-2.3-5.7-5.9-5.9c-5.3-0.4-10.6-0.3-15.6,2.1
					c1.2-2.6,3.3-3.4,6.1-3.2c4.3,0.2,8.5,0.2,12.8,0c3.9-0.3,5,1.3,4.7,4.9c-0.3,3-0.1,6-0.1,9
					C277.3,253.7,279.3,259.6,277.7,265.2z"/>
				<path class="st4" d="M277.7,265.2c0.6-5.7-1.1-11.5,1.1-17.1c0,6.4,0,12.7,0,19c0,1.5,0.5,3.2-1.1,4.4
					C277.7,269.4,277.7,267.3,277.7,265.2z"/>
				<path class="st4" d="M291.6,286.5v-1l19.3-0.1c3.2-1.3,4.7-3.2,2.1-6.4v-1l0,0c2.6-8.7,2.6-18,0-26.7c4.7-1.2,2.1-6.1,4.3-8.5
					c1.9,1.9,1.4,4.3,1.4,6.5c0.1,10.7,0,21.3,0,31.9c0,2.8,0.5,5.3,2.9,7c2.2,1.5,4,1.4,4.6-1.6c0.3-13.6,0-27.2,0.1-40.8
					c0-6,0-6-8.1-5c2-3.9,7.3-5.5,10.7-3.2c-0.4,3,0.5,4.7,3.9,4.3c1.9-0.1,3.8-0.1,5.7,0l1,3.2c-0.4,0.3-0.9,0.5-1.4,0.5
					c-1.2-0.1-2.4-0.1-3.6-0.3c-3.4-0.5-4.6,1.1-4.1,4.3v32.2c0.6,4.8,1.1,5.1,7.1,3.3c1.3-3.8,0.3-7.7,0.6-11.5
					c0.2-2.2-0.4-4.6,1.5-6.4h1c3.1,6.7,1.3,13.6,1.1,20.5c-0.4,1.2-1.3,2.2-2.5,2.7c-3.1,1.4-6.9-0.6-9.8,2.1
					c-0.7,0.6-1.5,0.9-2.4,1.1c-4,0-7.6-1-10.5-4.1c-1.4-1.6-3.4-1.6-5.4-1.6h-13.7C295.5,287.9,293.3,288.3,291.6,286.5z"/>
				<path class="st4" d="M289.4,286.6l-2-0.1l-32-0.1v-1h34.1C289.5,285.9,289.5,286.2,289.4,286.6z"/>
				<path class="st4" d="M313,279c3-0.1,3.4,1.8,3.1,4.1c-0.4,3.7-3.3,1.9-5.2,2.3c0.3-0.7,0.7-1.4,1-2.1v-3.2
					C312.3,279.7,312.7,279.4,313,279z"/>
				<path class="st4" d="M232.9,270.5c1.7,4.1,1.7,8.7,0,12.7C232.1,279.1,232.1,274.7,232.9,270.5z"/>
				<path class="st4" d="M232.9,270.5v12.7c-0.3,0-0.7,0-1-0.1v-12.6C232.2,270.5,232.6,270.5,232.9,270.5z"/>
				<path class="st4" d="M313,251.3c2.6-0.3,3.3,1.1,3.2,3.5c-0.1,6.5-0.1,13.1,0,19.6c0,2.4-0.6,3.8-3.2,3.5l-8.5-5.3l0,0
					c-0.3-0.4-0.5-0.8-0.5-1.3c-1.8-4.8-1-9.4,1.6-13.7C306.7,254,310.3,253.2,313,251.3z"/>
				<path class="st4" d="M318.3,240.7c0.7-0.6,1.4-1.1,2.1-1.5c6.3-3.1,7.5-2.4,7.4,4.6c-0.6,1.1-1.4,1.8-2.7,1.1
					c-2.2-1.7-4.1-1.9-4.2,1.5c-0.3,11.9-0.2,23.7,0,35.6c0.1,3.1,1.6,4.3,4.5,2.2c3-0.5,1.3,2.5,2.5,3.3c0.3,3.2-1.7,3.6-4,3.2
					c-3.9-0.7-6.5-3.1-6.6-7.1c-0.2-8.7-0.1-17.4,0-26v-14.9C317.6,242,317.9,241.4,318.3,240.7z"/>
				<path class="st4" d="M305.5,257.7c0.1,0.1,0.4,0.3,0.4,0.3c-1.9,4.3-2.4,9-1.4,13.5c-1.7-0.4-1.3-2.2-2.1-3.2
					c-0.1-2.1-0.8-4.3,0-6.4C303.2,260.4,303.6,258.5,305.5,257.7z"/>
				<path class="st4" d="M302.3,268.3l2.1,3.2v1.1c-1.3-0.5-2.2-1.8-2.1-3.2C302.3,269,302.3,268.7,302.3,268.3z"/>
				<path class="st4" d="M340.6,288.5v-21.2c0-12,0.1-24.1,0-36.1c0-3.5,1.1-4.6,4.6-4.5c12,0.2,24,0.1,36.1,0.1v1
					c-1.9,1.9-4.3,1.5-6.5,1.5c-7.6,0.1-15.3-0.1-22.9,0.1c-6.8,0.1-8.5,1.9-8.5,8.6c-0.1,14.2-0.1,28.5,0,42.7
					c0,6.4,1.1,7.5,7.5,7.5c23.1,0.1,46.2,0.1,69.4,0c5.9,0,6.6-0.8,6.6-7c0.1-14,0-28.1,0-42.1c0-2.4-0.6-5,1.5-7h1.1
					c1.4,2.4-0.3,5.1,1,7.5v1.1c1.1,15,0.1,30,0.6,45.1c0,0.7-0.2,1.3-0.5,1.9v2.1c-1.2,3.5-4.3,2.5-6.6,2.5
					c-23.9,0.1-47.8,0.1-71.6,0c-3.7,0-7.5,0.7-11-0.9C340.2,290.8,340,289.6,340.6,288.5C340.6,288.6,340.6,288.6,340.6,288.5z"/>
				<path class="st4" d="M339.7,267.3c-0.6,6.7,1.3,13.6-1.1,20.3c-1.1-1.3-1.6-3-1.5-4.7c0-11.4-0.1-22.9,0-34.3
					c-0.1-1.4,0.5-2.7,1.5-3.7l1,0.1C339.6,252.4,339.7,259.8,339.7,267.3z"/>
				<path class="st4" d="M571.2,305.7c-1.7-1-0.4-3.1-1.9-4.7c0.3,5.9-2.9,6.9-7.7,6.9c-41.3-0.1-82.6-0.1-123.9,0
					c-3.6,0-6.6-0.4-7.8-4.7c-1.1,1.6,0,3.6-1.7,4.6c-2.6-3.9-1.3-8.2-1.2-12.3c1.8-3.1,4.7-4.3,8-4.7c1.3-0.2,2.8,0.2,3.8-1.1
					c1.8,1.1,0.7,6.7,5.3,3.2c0.8-1.2,1.8-1.8,3.3-1.1c2.9,0.2,5.8-0.2,8.5-1.1c2.7,2.6,5.3-0.1,8.1-0.1c33.1,0.2,66.2,0.2,99.2,0
					c5.6,0,6.4,3.8,7.9,7.5C571.2,300.7,571.2,303.2,571.2,305.7z"/>
				<path class="st4" d="M428.2,294v17.1c0,8.5,0,8.5,8.4,8.5c3.6,0.1,7.5-1.1,10.9,0.9c-0.3,1-1.1,1.8-2.1,2.1
					c-1.5,0.5-3.2,0.6-4.8,0.4H325.9c-1.4,0.1-2.9,0-4.2-0.5c-0.7-0.3-1.2-0.7-1.6-1.3c-0.2-0.7-0.1-1.4,0.2-2
					c0.6-0.3,1.3-0.5,2-0.4c33.1,0.3,66.2,0.1,99.4,0.1c0.7,0,1.4-0.1,2.1-0.3c1.2-0.5,1.9-1.7,1.8-3c0.1-5.8,0.1-11.7,0-17.5
					c0-2.6-1.4-3.8-4-3.9h-8.5c-23.9-0.1-47.8,0.3-71.7-0.2c-0.6-0.1-1.2-0.4-1.7-0.8c-0.7-1.2-1.1-2.3,0.9-2.6h84.7
					c1.7,0,3.6,0.6,5-1.1h1.1C432.8,293,430,293.1,428.2,294z"/>
				<path class="st4" d="M447.5,291.8l-3.3,1.1c-2.7,0.2-3.2-1.3-3.2-3.6c0.1-15.8,0-31.5,0-47.3c0-2.3,0.1-4.1,3.2-2.6
					c0.8,0.1,1.6-1.1,2.3,0.2c0.7,1.2,3.1-0.5,3.3,1.9c-5.9,2-6.4,6.5-6.2,11.8c0.3,9.6,0,19.2,0.1,28.8c0,2.9-0.1,6,4.1,6
					s7.7-2.3,7.8-6c0.4-8.9,1.5-17.7,1.2-26.6c-0.2-4-0.1-7.8-3.4-10.8c-0.7-0.5-0.8-1.4-0.3-2.1c0.1-0.1,0.1-0.2,0.2-0.2
					c1.9-0.6,3.6-0.5,4.8,1.3c0.8,0.5,1.3,1.4,1.3,2.3c0,12-0.3,24.1,0,36.1c0.1,4.9-0.8,7.8-6.4,7.9
					C451.1,290.1,448.9,290.2,447.5,291.8z"/>
				<path class="st4" d="M431.3,241.6c7.1-2.4,8.6-1.4,8.6,5.8V282c0,1.9,0.8,4-1,5.5c-1.6-1.2-3.4-0.3-5-0.6
					c-2.5-0.4-3.3-2.2-3.5-4.5c-0.1-11.7,0-23.5,0-35.2C430.4,245.3,430.1,243.4,431.3,241.6z"/>
				<path class="st4" d="M431.3,241.6c0.1,14.3,0.1,28.5,0.2,42.8c0.7,0.9,0.7,2.2-0.1,3.1h-1c0-0.4,0-0.7,0-1.1
					c-1.1-11.7-0.3-23.6-0.5-35.4c-0.1-3.1-0.6-6.3,0.5-9.4C430.7,241.7,431,241.7,431.3,241.6z"/>
				<path class="st4" d="M430.4,241.7v44.8c-1.1-0.9-1.1-2.1-1.1-3.4V244c0-1.2-0.1-2.5,1-3.4C430.3,241,430.4,241.3,430.4,241.7z"
					/>
				<path class="st4" d="M428.2,294c1.1-1.5,3.5-1.9,3.2-4.3h7.4c-0.1,0.7-0.2,1.4-0.2,2.1C434.7,290.5,431.9,294.4,428.2,294z"/>
				<path class="st4" d="M431.4,287.6c0-1.1,0.1-2.1,0.1-3.1c1.6,1.8,3.4,2.9,5.9,1.5s1.1,1,1.5,1.6H431.4z"/>
				<path class="st4" d="M430.3,239.5c-2-2.3-0.6-5-1-7.5v-5.3C431.5,230.8,429.9,235.3,430.3,239.5z"/>
				<path class="st4" d="M428.3,232.1v50.6c0,6.1-1,7.1-7.2,7.1h-71.4c-6.3,0-7.9-1.6-7.9-7.8v-44.7c0-7.1,2-9.2,9.1-9.3
					c10.1-0.1,20.3,0,30.4,0c12.8,0,25.6-0.1,38.3,0.1C423,227.9,426.9,227.4,428.3,232.1z"/>
				<path class="st4" d="M193.2,282.3h-29.9c-3.5,0-5.9-1-6.1-4.9c-0.3-4.3,2.4-5.7,6-5.7c20.3-0.1,40.5-0.1,60.8,0
					c3.6,0,5.9,1.9,5.7,5.6s-2.2,5.2-6,5.1C213.4,282.1,203.3,282.3,193.2,282.3z"/>
				<path class="st4" d="M449.5,240.7c-1.1-0.1-2.4,0.2-3.1-1.1c4.4,0.1,8.6,0.3,11.6,4.1l-4.1-1.1
					C452.4,242.1,450.3,242.9,449.5,240.7z"/>
				<path class="st4" d="M320.4,319.6v1c-0.3,0.3-0.6,0.6-1.1,0.7c-1.3,0.2-2.4,1-3,2.1c-0.4,0.5-0.8,1-1.3,1.5v1.1
					c-1.7,2-1,4.4-1.1,6.6c-0.2,3.8-1.9,6-5.8,6.1c-3.7,0.1-7.5,0.2-11.2,0c-3.4-0.2-5.3-2.1-5.3-5.4c-0.1-13.5-0.1-27,0-40.4
					c0.1-3.4,2.1-5.2,5.5-5.2c5.1-0.1,10.3,0,15.4,0c2,0,3.9,0.8,5.2,2.3c2.6,2.8,6.4,3.9,10.1,3l1.1-1.1c0.5-0.6,1.2-0.9,2-1
					c1.7-0.1,3.4-0.1,5.1,0c0.5,0,0.9,0.1,1.4,0.3c0.8,0.4,1.5,1,2.1,1.7l0,0c1.8,1.1,3.8,0.5,5.7,0.5c24.3,0,48.6,0,73,0
					c7.3,0,8.2,1,8.2,8.3c0,3.7,0,7.5,0,11.2c-0.1,5.3-1.2,6.6-6.6,6.6c-17.4,0.1-34.8,0-52.2,0C352,319.6,336.2,319.5,320.4,319.6z
					"/>
				<path class="st4" d="M327.9,292.9c-3.7,2.4-6.6,0.6-9.6-1.5c-7.2-5.2-15.3-2.4-23.1-2.1c-1.9,0.1-2.6,2.6-2.6,4.7
					c0,12.8,0,25.5,0,38.3c0,3.8,1.8,5.5,5.5,5.5h3.2c10.5,0,10.5,0,11.5-10.1c0.2-1.7,0.5-2.3,2.1-1.6c-0.4,4.6,1.1,9.4-1.1,13.9
					h-3.2c-5.3-0.9-10.7-0.9-16,0c-2.8,0.2-4.3-1-4.3-4c0-15.7,0-31.4,0.1-47.1c0.2-0.8,0.5-1.6,1-2.3c5.1,0,10.3,0.1,15.4,0
					c4.8-0.1,9.4-0.4,12.9,4.1C321.7,292.9,325.4,291.7,327.9,292.9z"/>
				<path class="st4" d="M464.6,366.5c0.2,4-0.6,8.1,0.6,12.1c0.4,1.5-0.5,2.3-1.7,2.9c-2-1.9-4.4-1-6.6-1
					c-45.1-0.1-90.2-0.1-135.3-0.1c-0.3-0.6-0.1-1.4,0.5-1.7l0,0c2.7-1.3,5.6-0.8,8.4-0.8c41.1,0,82.1,0,123.2,0
					c6.6,0,7.3-0.7,8.2-7c0.1-5.8-0.1-11.6,0.1-17.5c0.1-2-0.4-4.4,2.5-5.1C465.8,354.3,465,360.4,464.6,366.5z"/>
				<path class="st4" d="M321.5,379.4v1.1c-4,0.6-5.8-0.7-5.3-5.1s0.1-8.7,0.1-13.1c1.1-1.2,1-2.6,1-4V329c0.2-1.4-0.2-2.9-0.9-4
					h-0.3c1.8-3.3,3.2-1.7,4.3,0.5c0.8,1.6,0.5,3.5,0.5,5.2v28.1c0.1,1.1,0.4,2.2,0.9,3.2c0.1,0.5,0.1,1.1-0.1,1.5
					C317.4,369,317.4,372.5,321.5,379.4z"/>
				<path class="st4" d="M316.3,324.9c2.3,0.3,2,2.1,2,3.6v30.1c0,1.6,0.2,3.3-2.1,3.6C316.3,349.8,316.3,337.3,316.3,324.9z"/>
				<path class="st4" d="M319.5,361.1c0-11,0-22-0.1-33.1c0-2,0.8-5.3-3.3-3.2h-0.9v-2.1c1.2-1.1,3.1-1,4.3-2.1
					c0.3,0,0.7-0.1,1.1-0.1v1.1c0.9,0.9,1.4,2.1,1.4,3.3c-0.1,11.4,0.5,22.8-0.3,34.3C321.2,360.3,320.8,361.3,319.5,361.1z"/>
				<path class="st4" d="M464.6,366.5c0-6,0-12-0.1-18.1c-2.5-7.4-1.9-14.8-0.4-22.2c0.4-0.5,1.2-0.6,1.7-0.2l0,0l0.1,0.1
					c0.3,8.9,0.6,17.7-0.3,26.5v13.9L464.6,366.5L464.6,366.5z"/>
				<path class="st4" d="M468.7,368.8v14.8c-1.4,0-2-0.8-2-2.1c1.1-4.3-2.1-8.7,0-13L468.7,368.8z"/>
				<path class="st4" d="M504.3,330.3c10.6,0.1,23.2-0.3,35.8,1c2.1,0.2,3.8,0.7,5,2.5c4.3,5.9,8.4,11.8,12.7,17.7
					c2.8,3.8,1.8,6.2-2.3,7.7c-2.4,1.1-4.9,2-7.5,2.8c-10.2,2.6-13.8,9.3-9.8,19.5c4.3,11.1,9,22,13.6,32.9
					c5,11.9,4.9,11.5-7.6,14.2c-5.5,1.2-7.2-1.1-8.9-5.4c-6.8-17.9-13.9-35.7-20.7-53.6c-1.9-5.1-5-7.7-10.8-7.5
					c-9.1,0.3-18.1-0.2-27.2,0.2c-4.8,0.2-6.6-2.1-6.8-6.1c-0.3-7.1-0.2-14.2-0.1-21.3c0-3.7,2.5-4.7,5.8-4.7
					C484.6,330.3,493.5,330.3,504.3,330.3z"/>
				<path class="st4" d="M548.8,364.4c-1.5,1.7-3.5,0.8-5.3,1.1C545,363.8,547,364.6,548.8,364.4z"/>
				<path class="st4" d="M513.8,383.5c1.4,2.5-0.6,2.2-1.9,2.2h-38.2c-2,0-3.7-0.7-3.6-2.9c0.2-5.1-1.2-10.2,1-15.2
					c1.1,0.3,2.3,0.7,3.5,1.1c2.7,0.9,6.4-1.9,8,1.1c1.2,2.1,0.3,5.5,0.3,8.2c0,1.2,0,2.5-0.1,3.7c-1.1,2.5,0.7,2.7,2.3,2.6
					c7.5-0.3,15.1,0.9,22.5-0.8C509.6,383.1,511.7,383.1,513.8,383.5z"/>
				<path class="st4" d="M494.2,382.5h-0.5c-8.8,0-11.1-3.2-8.9-11.7c0.5-1.9,1.6-2.1,3.1-2.1h9.1c7,0,6.7,0,7.2,7.2
					c0.4,5.4-1.2,7.6-6.7,6.7C496.4,382.5,495.3,382.4,494.2,382.5z"/>
				<path class="st4" d="M510.4,375c1.6,1.5,1.1,4.1,3.1,5.3v2.1c-2.6,2.5-5.6,1.5-8.5,1.1c0.6-5-1.2-10.1,1.1-14.9v7.5L510.4,375z"
					/>
				<path class="st4" d="M505,383.6c2.8-0.6,5.8,0.3,8.5-1.1c0.1,0.3,0.1,0.6,0.2,0.9c-1.7,1.9-4,1.1-6,1.1c-8,0.1-15.9,0-23.9,0.1
					c-3.2,0-3.5-1-1.3-3.2c0.4,2.6,2.4,2,4.1,2.1C492.7,383.6,498.9,383.6,505,383.6z"/>
				<path class="st4" d="M465.6,326h-1.1c-0.8,0-1.6-0.1-2.3-0.3c-0.3,0-0.7-0.1-1.1-0.2c-9.4-0.9-9.4-0.9-12.5,7
					c-0.5,0.3-1.2,0.2-1.6-0.2c-1.7-3.5-1.3-7-0.6-10.7l1.1-1c1.7,2.8,4.5,2.1,7,2.1h10c1.2,2.8,3.8,2.1,6,2.1
					c16.8,0,33.7,0.1,50.5,0.1v1l-50.1,0.1C469.4,327.3,467.1,327.3,465.6,326z"/>
				<path class="st4" d="M465.6,326h5.3c-5.5,3.1-4,8.4-4.3,13.2c-0.3,4.5,1.2,9.1-1,13.4C465.6,343.8,465.6,334.9,465.6,326z"/>
				<path class="st4" d="M530.6,278l0.1,2.1c0.1,1.6,0,3-2,3.3c-0.6-0.4-1.1-1.1-1.4-1.8c-0.5-0.9-1.3-1.6-2.3-1.9
					c-18.7-0.3-37.4-0.2-56.1,0c-0.8,0.3-1.5,0.6-2.2,1.1c-0.7,0.7-1.6,1.4-2.4,2c-0.5,0.1-1.1,0.1-1.6-0.1
					c-1.1-0.9-1.3-2.5-0.4-3.6l0,0c1-1.8,2.3-3.1,4.5-3.2c20.1,0,40.3-0.1,60.4,0C528.8,276.1,529.7,277.1,530.6,278z"/>
				<path class="st4" d="M465.6,276.9l-3.2,2.1c-0.2-3.5,2.1-4.3,4.8-4.3c19.8-0.1,39.7,0,59.5,0c2.2,0,3.8,0.7,3.9,3.2
					c-0.9,0.1-1.7-0.3-2.1-1.1c-0.9-0.8-2-0.6-3-0.6h-56.8C467.6,276.2,466.5,276.4,465.6,276.9z"/>
				<path class="st4" d="M462.4,279c0.1,1.2-0.2,2.4,1.1,3.2c2.4,2,5.3,1.6,8.1,1.6h51c2.4,0,5-0.4,7.1,1.5
					c-1.2,1.5-2.9,1.1-4.4,1.1h-57.4C462.3,286.5,460.7,284.3,462.4,279z"/>
				<path class="st4" d="M529.6,285.4h-60.5c-2.4,0-5.2,0.5-5.6-3.2h1.1c1-0.1,1.9,0.1,2.8,0.4c17.6,0.5,35.2,0,52.9,0.2
					c2.5-0.1,4.9,0,7.4,0.2l1,0.2l2.1-3.2C532.7,282.4,529.9,283.6,529.6,285.4z"/>
				<path class="st4" d="M565.9,256.6c5.2,1.5,4.7,5.7,4,9.5s-4,4.4-7.4,4.4c-31.2,0-62.4,0-93.6,0c-3.1,0-6.1-0.4-6.4-4
					s-1.9-8.5,4.1-9.9H565.9z"/>
				<path class="st4" d="M294.8,339.9c5.2-1.7,10.8-1.7,16,0H294.8z"/>
				<path class="st4" d="M90,358l2-1.1h164.4c-0.4,2.8-2.7,2.4-4.5,2.6c-2.5,0.2-5,0.2-7.5,0H101.6c-1.4-0.1-2.9,0-4.3,0.4
					c8.9-0.6,17.3-0.3,25.6-0.3h111.9c9.6,0,19.1,0.3,28.4,3.6c2.7,1,6.4,2.3,7.8-2.3c-0.1-0.8-0.6-1.5-1.3-1.9
					c-2.5-1.2-5.2-0.5-7.9-0.7c-1.9-0.1-3.9,0.1-5.5-1.5c4.9-2.1,10.1-1.2,15-0.7c2.9,0.3,3.4,3.2,3.1,5.9c0,2.4-1.9,4.3-4.3,4.3
					l0,0H270c-3.5,0.4-7.1,0-10.4-1c-2.8-1.6-5.9-2.4-9.1-2.2c-51.1,0.1-102.2,0.1-153.2,0.1C93.4,363.4,89.9,363.2,90,358z"/>
				<path class="st4" d="M175.8,309h74.7c3.3,0,6.3-0.3,9-2.5c3.4-2.8,7.5-1.9,11.3-1.7c2.3,0.1,2.7,2,2.7,3.9v29.9
					c0,2.4-1,3.9-3.1,4.2c-3.3,0.4-7,1.2-10-0.5c-6-3.5-12.5-3.5-19.1-3.5c-47.1,0.1-94.2,0.1-141.4,0c-7.8,0-7.9-0.1-7.9-8.2
					c0-5,0.2-10-0.1-14.9c-0.2-5.2,2-6.8,7-6.8C124.6,309,150.2,309,175.8,309z"/>
				<path class="st4" d="M250,301.4H114.1c-3.5,0-7.5,0.4-8.1-4.7c-0.8-6,1-8.1,7.2-8.1c53.1,0,106.2,0,159.3,0.1
					c4.3,0,8.5,0.6,12.7,1c1.6,2.6,2.3,5.6,2.1,8.6c-0.2,6.9,0,13.9-0.1,20.8c0,1.9-0.3,4.4-2.7,4.4c-2.7,0-2.5-2.5-2.5-4.5v-16.5
					c-0.1-4-2.2-6.3-6.3-6.4C266.8,296,257.5,294.8,250,301.4z"/>
				<path class="st4" d="M174.8,240.7H250c3.2,0.2,6.4-0.5,9.2-2c3.8-2.1,8-1.4,12-1c3.1,0.3,4.1,2.8,4.3,5.8
					c0.4,6.9-0.5,13.8-1.1,20.7c-0.2,2.1-1.5,3.9-3.6,4c-4.5,0.1-9.3,1.3-13.5-1.5c-3.4-2.2-7.2-2.7-11.2-2.7
					c-49.4,0.1-98.8,0.1-148.2,0c-7.4,0-8-0.6-8-7.8c0-16.6-1.1-15.6,15.6-15.5C128.6,240.7,151.7,240.7,174.8,240.7z"/>
				<path class="st4" d="M338.6,248v35.3c-0.7,2.4-1.9,3.8-4.8,3.8s-4-1.4-4.8-3.8V248c0.7-2.3,1.9-3.8,4.8-3.8
					S337.8,245.7,338.6,248z"/>
				<path class="st4" d="M327.9,287.6c-0.7-1.1-1.4-2.1-2.1-3.2c-1.4-1.4-1.4-3.1-1.4-4.9c-0.1-9.9-0.1-19.8,0-29.7
					c0-1.8,0-3.6,1.5-4.9l2.1-1.1C327.9,258.4,327.9,273,327.9,287.6z"/>
				<path class="st4" d="M329,283.4c4,4.4,5.6,4.4,9.6,0v4.2c-1.9-0.1-3.8-0.1-5.7,0.1C329.5,288,328.6,286.3,329,283.4z"/>
				<path class="st4" d="M338.6,248c-4-4.4-5.6-4.4-9.6,0c0.5-4.8,3.1-5.6,9.6-3.2C338.6,245.9,338.6,247,338.6,248z"/>
				<path class="st4" d="M331.1,291.8H329c2.4-4.3,6.4-1.1,9.6-2.1c0.8,1.2,0.9,2.1-1.1,2.1C335.5,291,333.1,291,331.1,291.8z"/>
				<path class="st4" d="M337.5,291.8c0.8-0.4,1.2-1.3,1.1-2.1l2.1-1.2c0,0.8,0,1.5,0.1,2.2c-0.8,0.4-1.2,1.3-1.1,2.1
					C338.8,293,338,292.6,337.5,291.8z"/>
				<path class="st4" d="M313.1,265.2c-0.8,2.4,1.3,6.5-2.2,6.8c-3.3,0.2-5.2-3.5-5.2-6.8s2.1-6.8,4.9-6.7
					C314.8,258.5,312.2,262.9,313.1,265.2z"/>
				<path class="st4" d="M325.8,244.9v39.5c-0.3,2-1.2,3.6-3.5,2.9c-1.9-0.6-3.2-2.5-3-4.5V246c0-1.8,0.1-3.7,2.4-4.1
					S325.5,242.4,325.8,244.9z"/>
				<path class="st4" d="M499.7,305.7h-61.8c-4,0-6.6-1.1-6.5-5.7c0.1-5.3,2.3-6.7,6.8-4c2.2,1.2,4.8,1.4,7.1,0.5
					c10.5-3,21.1-3.9,32-3.8c27.7,0.3,55.4,0.1,83.1,0.1c6.5,0,7.9,1.5,7.5,7.8c-0.3,4.3-2.8,5.1-6.5,5.1
					C540.9,305.7,520.3,305.7,499.7,305.7z"/>
				<path class="st4" d="M446.4,321.6c2.1,3.4,0.5,7.2,1.1,10.8c1.8,5,0.2,10.1,0.3,15.2c0.2,15,1.2,14.1-14.2,14.1h-105
					c-2.8,0-5.8,0.6-8.2-1.5v-38.4L446.4,321.6z"/>
				<path class="st4" d="M320.4,319.6c1.7-1.9,4-1.1,6-1.1c30.3,0,60.7,0,91,0c8.2,0,8.5-0.4,8.6-8.8v-4.8
					c0-10.4-0.5-10.9-10.7-10.9h-69.7c-2,0-4.3,0.8-6-1.1c27.3,0,54.6,0.1,82-0.1c4.5,0,5.9,1.2,5.6,5.7c-0.4,6-0.1,12.1-0.1,18.1
					c0,1.7,0.5,3.7-2.1,4.1c-1.8-1-3.8-0.5-5.8-0.5c-30.7-0.1-61.4-0.1-92-0.1c-1.9,0-3.9,0.5-5.8-0.5
					C321.2,319.6,320.8,319.6,320.4,319.6z"/>
				<path class="st4" d="M321.5,319.6h98c1.9,0,4-0.7,5.5,1h-98.5C324.8,320.6,322.9,321.2,321.5,319.6z"/>
				<path class="st4" d="M449.5,240.7l4.4,2c4.1,4.3,4.2,9.6,4.3,15.2c0.2,8.5-1.2,17-1.3,25.5c0,3.7-4.3,6.3-9.5,6.3
					c-4.3,0-5.5-2.4-5.4-6.2c0.1-10.5,0.2-21,0-31.5C441.9,246.2,442.4,241.4,449.5,240.7z"/>
				<path class="st4" d="M436.8,283.3c-3.3,3.6-4.1-0.1-4.1-1.9c-0.2-11.2-0.2-22.3-0.1-33.5c-0.2-1.8,1.2-3.5,3-3.6l0,0h0.1
					c1.5-0.1,2,1.3,2,2.6c-0.1,11.9-0.2,23.7-0.3,35.6C437.4,282.8,437,283,436.8,283.3c-1.7-1.9-1.5-4.3-1.5-6.5v-24.7
					c-0.1,8.4-0.1,16.9-0.1,25.3C435.1,279.5,434.9,281.7,436.8,283.3z"/>
				<path class="st4" d="M385.2,287.6c-11.5,0-23.1-0.1-34.6,0c-4.8,0.1-6.7-1.8-6.6-6.6c0.1-14.9,0.1-29.9,0-44.8
					c0-4.5,2.1-6.2,6.1-6.2c23.6-0.1,47.3-0.1,70.9,0c4.2,0,6.2,2.1,6.2,6.2V281c0,4.5-1.8,6.8-6.7,6.7
					C408.6,287.4,396.9,287.6,385.2,287.6z"/>
				<path class="st4" d="M192.9,280.1h-28.8c-1.9,0-4.4,0.2-4.6-2.4c-0.2-2.8,2-4,4.6-4h58.6c2.4,0,4.5,1,4.3,3.6
					c-0.1,2.4-2.1,2.8-4.4,2.8C212.8,280.1,202.9,280.1,192.9,280.1z"/>
				<path class="st4" d="M371.1,316.4h-45.3c-2.3-0.1-4.6,0.2-6.8,1c-4.6,1.9-8,4.5-7.2,10.2c0.4,2.8,0.4,6.5-2.7,7.4
					c-4.2,1.3-8.8,1.3-13-0.3c-1.4-0.6-1.2-2.4-1.2-3.8v-35.8c0-3.1,1.3-4.6,4.5-4.5c6.8,0.4,13.8-1.4,20,3.5
					c3.4,2.6,7.8,2.4,11.6,0.3c2.4-1.3,4.6-1.5,6.9,0.1s5,1.5,7.7,1.5h70.9c6.9,0,7.6,0.7,7.6,7.7c-0.1,14.3,1.8,12.5-12.3,12.6
					C398.2,316.5,384.6,316.4,371.1,316.4z"/>
				<path class="st4" d="M319.4,320.7c-0.3,2.9-2.6,1.9-4.3,2.1C316.1,321.2,317.2,319.8,319.4,320.7z"/>
				<path class="st4" d="M331.1,291.8c1.8-1.6,4.6-1.6,6.4,0H331.1z"/>
				<path class="st4" d="M321.5,379.4c-6.2-3.9-6.2-12.7,0-16c2.4-2.1,5.4-1.5,8.2-1.5c38.2-0.1,76.4,0,114.6-0.1
					c0.6,0,1.1-0.1,1.7-0.2c1.3-0.4,2.1-1.6,2.1-3c0-2,0.2-3.9,0.6-5.8c1-7.9-0.1-15.8,0.9-23.6c0.9-4.7,4.5-4.4,7.8-4
					c3.7,0.3,5.5,3.1,5.8,6.5c0.4,4.9,0.1,9.9,0.1,14.8c-0.8,8.1-0.8,16.3,0,24.5c-0.5,7.6-1.4,8.5-8.9,8.5L321.5,379.4L321.5,379.4
					z"/>
				<path class="st4" d="M463.4,370.8c-2.3-5.4-0.5-11.1-1-16.6c-0.2-2.6,0-5.3,0-7.9c0.8-5.5,0.8-11.1,0.1-16.6
					c-0.2-1.8-0.6-3.5,1-4.8l1,1.2v22.4c-2.3,5.4-0.5,11.1-1,16.6C463.3,366.9,463.4,368.9,463.4,370.8z"/>
				<path class="st4" d="M320.5,360.1c40.3,0,80.6,0,120.9,0.1c4,0,5.2-1.1,5.1-5.1c-0.1-7.6-0.8-15.2,1-22.8h1
					c2.4,6.7,0.8,13.5,0.9,20.3c0,1.4-0.3,2.8-0.3,4.2c-0.4,1.9-0.5,3.8-1.6,5.4l0,0c-1.3,0.8-2.8,0.5-4.1,0.5H325.7
					c-1.4,0-2.9,0.3-4.2-0.5c-0.8,0.1-1.7-0.4-2-1.2C319.8,360.8,320.1,360.5,320.5,360.1z"/>
				<path class="st4" d="M321.5,362.3h125.9c-1.6,1.7-3.7,1.1-5.5,1.1H321.5C321.5,363,321.5,362.6,321.5,362.3z"/>
				<path class="st4" d="M473.1,376.7c0.3-2.2,0.4-5,4-4.8c3.1,0.2,3.4,2.7,3.3,5.1s-0.6,5.1-3.4,5.2
					C473.8,382.4,473,379.7,473.1,376.7z"/>
				<path class="st4" d="M494.3,369.7c3.7,0.2,8.3-1,8.6,5c0.3,4.8-1.9,5.8-10.5,5.8c-4.3,0-6.9-1.4-6.5-6.1
					C486.3,368.9,490.6,369.8,494.3,369.7z"/>
				<path class="st4" d="M448.5,358v-25.6c0.3-9.4-1.6-8.5,8.5-8.5c2.2,0,4.6-0.9,6.6,0.9c0,5.5,0,11-0.1,16.4c0,1.7,0.6,3.6-1.1,5
					c0-4.6,0.2-9.2-0.1-13.8c-0.2-2.9-1.5-5.7-4.7-6.3c-2.7-0.5-5.8-0.6-6.9,3c-1.2,6.1-0.2,12.2-0.5,18.3c-0.1,2.1,0.5,4.3-0.5,6.2
					v6.4C447.6,360.2,447.8,359.2,448.5,358z"/>
				<path class="st4" d="M465.6,280.1l1.1-1.1c2.7-1.1,5.6-0.5,8.4-0.5c15.8-0.1,31.5-0.1,47.2,0c1.7,0,3.5-0.5,5.2,0.5
					c0.7,0.4,1.2,1.3,1.1,2.1c-1.2,2.4-3.4,2.1-5.5,2.1h-51.9C468.8,283.2,465.8,284,465.6,280.1z"/>
				<path class="st4" d="M465.6,280.1c1,2.2,3,2.1,5,2.1h52.9c1.8,0.1,3.5-0.3,5.1-1.1v2.1l0,0c-1.7,1-3.5,0.5-5.2,0.5h-52.6
					c-1.7,0-3.5,0.4-5.2-0.5l-1.1-1.1C464.4,281.4,464.8,280.6,465.6,280.1z"/>
				<path class="st4" d="M465.6,276.9c1.2-1.5,2.9-1.1,4.5-1.1h54.1c1.5,0,3.2-0.5,4.4,1.1H465.6z"/>
				<path class="st4" d="M527.5,279h-60.8c1.1-1.3,2.5-1.1,3.9-1.1h53C525,278,526.4,277.7,527.5,279z"/>
				<path class="st4" d="M465.6,283.3h63c-1.1,1.4-2.5,1.1-3.9,1.1h-55.2C468.1,284.4,466.6,284.6,465.6,283.3z"/>
				<path class="st4" d="M516.1,257.7h44.8c5.9,0,8.5,1.8,8.1,5.9c-0.4,4.7-3.7,5.8-7.9,5.8c-30-0.1-60.1,0-90.1,0
					c-3.6,0-7.3-0.1-7.5-5.3c-0.2-4.5,1.7-6.4,6.3-6.4C485.2,257.8,500.6,257.7,516.1,257.7z"/>
				<path class="st4" d="M256.4,356.9c5,0.5,10.1-1.2,14.9,1.1c-3.5,2.8-7.9,0.4-11.6,1.9c4.5,3.1,8.1,2.9,12.7-0.9
					c2.5,3.9,0.2,5.6-3.2,6.3c-2.1,0.4-4.3,0.2-6.3-0.5c-8.8-3.4-17.9-3.6-27.1-3.6H112.6c-5.3,0-10.7-0.7-15.9,0.9
					c-1.6,0.5-4,0.5-4.1-2c-0.1-2.1,2-2,3.6-2.1h153.6C252,358,254.5,358.9,256.4,356.9z"/>
				<path class="st4" d="M272.4,359.1c-1,4.2-4.9,5.7-10.9,4c-2.2-0.5-4.1-1.6-5.6-3.3c5-3,10.3-1.3,15.4-1.8L272.4,359.1z"/>
				<path class="st4" d="M180.7,298.3h-68.8c-2.3,0-3.7-1.1-3.7-3.5c-0.1-2.7,1.1-4,3.8-4c14.9,0.5,29.9-1.1,44.7,0.9
					c1.8,0.2,3.6,0.2,5.3,0.1h115.8c1.4,0,2.9-0.1,4.3,0c1.9,0.2,3,1.3,2.5,3.2c-0.6,2.4-2.1,0.9-3.3,0.6c-9.5-2.4-19-3.9-28.1,1.6
					c-1.9,1.2-4.1,1-6.2,1L180.7,298.3z"/>
				<path class="st4" d="M331.1,265.6c0-5,0-10,0-14.9c0-2.2,0.5-4.1,3-4.3s3.1,2.1,3.1,3.6c0.2,10.5,0.2,20.9,0,31.4
					c0,1.8-1.1,4.1-3.7,3.7s-2.3-2.7-2.4-4.7C331.1,275.5,331.1,270.5,331.1,265.6z"/>
				<path class="st4" d="M324.7,265v16.5c0,1.6-0.1,3.6-2.4,3.4c-1.7-0.2-1.9-1.9-1.9-3.4v-34.1c0-1.5,0.2-3.1,2.1-3.1
					s2.1,1.6,2.1,3.1C324.7,253.3,324.7,259.1,324.7,265z"/>
				<path class="st4" d="M383.9,323.9h53.4c6.1,0,7,1,7.1,7.2c0,6.9-0.1,13.9,0,20.8c0.1,4.3-1.7,6.2-6,6.2
					c-36.2-0.1-72.5-0.1-108.8,0c-5,0-7-2.4-6.9-7.2c0.1-6.6,0-13.1,0-19.7c0.1-5.6,1.6-7.2,7.5-7.2
					C348,323.9,365.9,323.9,383.9,323.9z"/>
				<path class="st4" d="M444.2,265.5v-15.9c0-2.6-0.4-6,3.6-5.6c3.4,0.3,7.8,0.6,8,5.3c0.3,10.8,0.3,21.6-0.1,32.4
					c-0.1,4.4-3.2,6.4-7.8,6c-4.8-0.4-3.7-3.9-3.7-6.7C444.1,275.8,444.2,270.6,444.2,265.5z"/>
				<path class="st4" d="M436.8,283.3c-2.9-0.2-3.2-2.2-3.2-4.5v-28.2c0-1.6-0.2-4,1.6-3.9c2.7,0,1.5,2.7,1.5,4.3
					C436.8,261.7,436.7,272.5,436.8,283.3L436.8,283.3z"/>
				<path class="st4" d="M389.9,377.2h-64c-5.9,0-8.8-4.5-6.2-9.8c1.2-2.5,3.5-2,5.6-2H440c9.3,0,11.7-2.4,11.7-11.6v-19.7
					c0-3,0.5-6.2,4-6.6s4.5,2.5,5,5.6c1.3,7.6,0.4,15.2,0.6,22.9c0.2,5.1-0.2,10.3,0.1,15.5c0.2,4.4-1.5,5.9-5.9,5.9
					C433.7,377.1,411.8,377.2,389.9,377.2z"/>
				<path class="st4" d="M449.6,353.8c0-6.5-0.1-13.1,0-19.6c0-1.7-0.6-3.6,1.1-5v19.6C450.6,350.5,451.1,352.3,449.6,353.8z"/>
				<path class="st4" d="M448.5,358c-0.1,0.9,0.3,1.7,1.1,2.1c-0.3,1-1.1,1.8-2.1,2.1C447.6,360.8,447,359.1,448.5,358z"/>
				<path class="st4" d="M493.7,379.4c-2.8,0.4-5.9-0.1-6.3-4c-0.3-2.7,1.9-4.3,4.4-4.4c3.5-0.2,7.8-1.4,9.6,3.3
					C502.5,377.4,499.6,379.4,493.7,379.4z"/>
				<path class="st4" d="M515.7,267.3h-44.2c-2.6,0-5.7,0.6-5.9-3.5c-0.2-4.5,3.1-4,5.9-4H561c2.6,0,5.7-0.7,5.9,3.5
					c0.2,4.5-3.1,4-5.9,4H515.7z"/>
				<path class="st4" d="M335.4,265.9v14.3c0,1,0.2,2.4-1.2,2.5c-1.3,0.1-1.8-1.1-1.8-2.1c-0.1-9.9-0.1-19.8,0-29.7
					c0-0.9,0.4-1.9,1.4-2c1.4-0.1,1.7,1.1,1.7,2.2L335.4,265.9L335.4,265.9z"/>
				<path class="st4" d="M323.1,246.7v35.9H322v-35.9H323.1z"/>
				<path class="st4" d="M384.3,327c17.6,0,35.2,0.1,52.8-0.1c4.1,0,5.3,1.3,5.1,5.2c-0.3,6,0,12.1-0.1,18.1c0,3.5-0.9,5.8-5.4,4.8
					c-3.4-0.7-7.1-0.3-10.7-0.3h-89.5c-10.7,0-10.7,0-10.7-10.7c0-3.7,0.3-7.5-0.1-11.2c-0.5-4.6,1-6.1,5.9-6
					C349.1,327.2,366.7,327,384.3,327z"/>
				<path class="st4" d="M389.7,375.1h-62.3c-2.5,0-5.9,1.3-6-3.6s3.1-3.8,5.8-3.8h111.9c12,0,14.7-2.8,14.7-14.7v-19.2
					c0-1.6-0.2-3.6,1.8-4c2.4-0.4,2.7,1.9,3.2,3.5c0.3,1.2,0.4,2.4,0.3,3.7c0,10.8-0.3,21.7,0.1,32.5c0.2,5-1.7,5.8-6.1,5.8
					C432,375,410.9,375.1,389.7,375.1z"/>
				<path class="st4" d="M494.6,377.3c-2-0.4-5,0.7-5-2.4c0.1-2.5,2.9-2,4.7-1.9s4.9-0.8,4.8,2.3
					C499.1,377.9,496.2,376.9,494.6,377.3z"/>
			</g>
		</g>
	</g>
</g>
</svg>
