<?xml version="1.0" encoding="utf-8"?>
<!-- Generator: Adobe Illustrator 23.0.4, SVG Export Plug-In . SVG Version: 6.00 Build 0)  -->
<svg version="1.1" id="Layer_1" xmlns="http://www.w3.org/2000/svg" xmlns:xlink="http://www.w3.org/1999/xlink" x="0px" y="0px"
	 viewBox="0 0 658.4 658.4" style="enable-background:new 0 0 658.4 658.4;" xml:space="preserve">
<style type="text/css">
	.st0{fill:url(#SVGID_1_);}
	.st1{stroke:#FFFFFF;stroke-miterlimit:10;}
</style>
<g>
	<g id="Layer_1-2">
		
			<radialGradient id="SVGID_1_" cx="345.28" cy="166.75" r="484.41" gradientTransform="matrix(1 0 0 1 0 -48)" gradientUnits="userSpaceOnUse">
			<stop  offset="0.66" style="stop-color:#F6AACB"/>
			<stop  offset="1" style="stop-color:#EE4599"/>
		</radialGradient>
		<circle class="st0" cx="329.2" cy="329.2" r="329.2"/>
		<g id="Layer_2-2">
			<g id="Layer_1-2-2">
				<path class="st1" d="M353.6,274.8c10.1,0.6,19.9,2.4,29.9,3.9c15,2.1,30.1,4.2,45.1,6.1c15.3,1.9,30.5,3.7,45.8,5.4
					c9.3,1,18.6,1.2,27.9,2.5c30.3,4,60.7,1.3,91,2.2c6.5,0.2,10.5,4.3,10.5,10.8v17.1c0,7.8-2.9,10.7-10.7,10.8
					c-15.1,0.1-30.2,0-45.4,0c-7.6,0-8.1,0.6-4.6,7c3.6,6.6,0.8,12.9-0.3,19.3s-2.7,12.9-4.3,19.3c-1.2,4.9-4.3,8-9.5,8.8
					c-12.7,1.8-25.3,3.9-38.1,4.4c-0.3-0.6-0.2-1.4,0.4-1.8c7-3.2,14.7-2.9,22.1-4c4.1-0.6,8.4-1,12.6-1.5c6.3-0.7,8.4-3.1,10-9.3
					c2-8,2.9-16.3,5.1-24.4c1.1-4.2-0.5-8-2.3-11.7c-2.9-6-1.3-8.7,5.3-8.8c13.1-0.1,26.2,0,39.3,0h5c9-0.3,11.4-2.3,12.6-11.1
					c0.7-4.8,0.5-9.6-0.6-14.3c-1.4-5.5-2.5-6.8-8.2-6.8c-12.5-0.1-25.1-0.3-37.6,0c-18.3,0.4-36.5-0.5-54.7-2.6
					c-8.9-1.2-17.9-2.1-26.8-2.9c-18.5-1.6-36.9-3.4-55.3-6.1c-17.2-2.6-34.6-4.8-51.8-7.2c-2.7-0.4-5.4-1-8.2-1.4
					C355.8,278.1,353.6,277.6,353.6,274.8z"/>
				<path class="st1" d="M490.8,391.1v1.1c-8.5,2.5-16.6,2.4-24.6-2.3c-12.7-7.4-25.6-14.2-38.4-21.5c-3.8-2.2-7.3-1.2-11.1-0.7
					c-6.5,1-13.1,1.5-19.7,1.6c-15.3,0.1-26.5,10.6-39.9,15.4c-14,5-27.4,5.6-41.3,1.4c-1.4-0.4-2.8-1.1-4.2-1.4
					c-10.3-2.4-19.3-7-26-15.5c-2.4-3-5.6-4.5-9.2-2.2c-8.2,5.2-16.6,4.2-25.4,2.2c-15.7-3.6-31.5-6.6-47.2-10
					c-1.7-0.4-3.3-0.6-4.1-2.3c1.9-1.5,4.1-0.1,6.1-0.4c7.4,0.1,14.5,2.2,21.7,3.7c9.7,2,19.5,3.8,29.2,5.7
					c5.4,1.3,11.1,0.8,16.2-1.6c7.4-3.5,10.6-2.9,16.2,3c11.4,11.9,25.9,16.2,41.7,16.8c7.1,0.2,14.4,1.3,21.3-1.5
					c9.5-3.5,19-6.9,27.5-12.6c6-4,12.9-3.7,19.6-4.6c3.8-0.2,7.6,0.5,11.4-0.5c0.6-0.2,1.2-0.3,1.8-0.4c4.8-0.4,9.7-0.3,14.5,0.1
					c12.5,6.1,24.5,13.1,36.7,19.9c2.6,1.7,5.5,3,8.4,4.1c0.8,0.1,1.5,0.4,2.2,0.7c0.7,0.3,1.4,0.6,2,1c2.3,1.1,4.6,0.8,7,0.1
					c0.5-0.2,1-0.3,1.5-0.4C486.7,389.7,489,389.2,490.8,391.1z"/>
				<path class="st1" d="M353.6,274.8c6.1,4.2,13.4,3.2,20.1,4.3c17.5,2.9,35.1,5.3,52.6,7.5c11.4,1.5,22.9,2.4,34.4,3.7
					c13,1.5,26.1,2,39.1,4.4c-1.3,1.5-3,1.4-4.7,1.5c-14.7-0.2-29.2-2.7-43.9-3.8c-16.1-1.2-32.1-4-48-6.3
					c-15.1-2.2-30.3-3.6-45.3-6.4c-7.1-1.3-13-6-20.1-7.5c-6.9-1.5-13.5-3.3-20.6-1.7c-3.5,0.8-7.4,0.4-11.1,0.2
					c-11.4-0.6-22.8,1.1-34.2,1.2c-4.7,0-8.9,2.2-13.2,3.9c-13.3,5.4-26.7,10.6-40,16c-3.2,1.4-6.7,2.1-10.2,2.1H99
					c-1.8,0-3.7,0.1-5.4-0.7c-1-0.5-2.1-1.1-0.8-2.4c2.3-1,4.7-0.6,7.1-0.6c37.2-0.1,74.5,0.2,111.8-0.2c16.4-5.6,32.2-12.5,48.2-19
					c7.1-2.9,14.3-2.9,21.6-3.5c8.6-1.1,17.2-0.3,25.8-0.5c2,0.1,4,0,6-0.3c0.6-0.2,1.3-0.3,2-0.3c5.4-0.4,10.8-1.6,16.1,0.5
					C339,269,346.9,270.1,353.6,274.8z"/>
				<path class="st1" d="M205.3,357.9l-5.5-1.1c-8-3.5-14.8-8.7-21.3-14.3c-2.5-2.1-4.7-3.5-8.2-3.5c-24.3,0.2-48.7,0.2-73,0
					c-3.8,0-6.1,1.2-7.9,4.6c-3.1,5.8-7.1,7.1-12.7,3.5s-12.5-5.5-15.3-12.5l0.7-0.3c2.1,0.4,3.5,2,5.3,3c3.9,2.6,7.5,5.5,11.9,7.4
					c2,0.7,3.9,1.1,5.3-1c0.8-1.3,1.8-2.5,2.9-3.6c1.8-1.4,3.2-3.2,5.3-4.2c0.6-0.2,1.2-0.4,1.9-0.5c25.9-0.3,51.8-0.1,77.7-0.1
					c2.2-0.1,4.4,0.7,6,2.2c7.2,7.1,15.8,12.2,24.5,17.2C204,355.3,205.6,355.9,205.3,357.9z"/>
				<path class="st1" d="M213,290.3c-1.8,1.9-4.2,1.1-6.3,1.1c-38.1,0.1-76.2,0.1-114.4,0c-4.9,1.5-5.2-3.4-7.6-5.5
					c-2.3-3.1-4.8-2.2-7.4-0.4c-3,1.8-5.8,3.8-8.8,5.6c-2.5,0.9-4.5,2.8-5.7,5.2c-2,2.9-4.2,5.7-5.2,9.1c0.5,6.8-1.6,13.7,0.9,20.4
					c0.9,2.2,2.6,4.1,3.3,6.4c0.2,0.8-0.1,1.6-0.6,2.2l0,0c-4.4-3.5-6.9-7.8-6.7-13.6c0.3-9.1-1.2-18.3,5.5-26.2
					c5.1-6,11.6-10.6,18.9-13.4c3.5-1.5,7.6-0.3,9.6,2.9l3.6,4.9c1.9,1.1,4,0.5,6,0.5H207C209,289.8,211.1,289.3,213,290.3z"/>
				<path class="st1" d="M213,290.3H98.6c-2.1,0-4.4,0.8-6.3-1.1c33.7,0,67.4-0.4,101,0.2c12.8,0.3,25.5-2.1,37.2-7.3
					c9.9-4.3,20-8,29.9-12.3c6.5-2.8,13.2-3,20-2.8c0.4,0.2,0.5,0.5,0.4,0.7s-0.2,0.4-0.4,0.4c-19,0.5-34.8,10.7-52,16.6
					C223.3,286.6,218.6,289.6,213,290.3z"/>
				<path class="st1" d="M280.5,268.2v-1.1h2.2c10.3-0.9,20.7-0.9,31,0c-2.6,2.1-5.6,1-8.5,1C297,268.3,288.8,268.2,280.5,268.2z"/>
				<path class="st1" d="M313.8,267.1h-31c2.6-2.2,5.6-1,8.5-1c7.9-0.2,15.8-0.1,23.6-0.1c0.4,0.2,0.5,0.5,0.4,0.7s-0.2,0.4-0.4,0.4
					H313.8z"/>
				<path class="st1" d="M314.8,267.1V266h2.2c4.4-0.9,8.9-0.9,13.3,0l1.1,1.1H314.8z"/>
				<path class="st1" d="M330.3,266H317C321.3,264.2,326.1,264.2,330.3,266z"/>
				<path class="st1" d="M495.3,294.8h4.4c31.2,3.3,62.5,2,93.8,2.2c4.8,0,7.3,2.4,8.1,7.2c0.9,4.5,1.2,9.1,1,13.7
					c-0.5,11.4-3.8,14.5-15.3,14.5h-43.2c-6.5,0-7.4,1.4-3.9,7c4.9,7.6,1.1,15,0,22.4c-0.8,4.7-2.2,9.3-2.8,14
					c-0.8,6.2-4.2,9.8-10.1,10.6c-9.8,1.4-19.6,2.4-29.4,3.6c-2.4,0.3-4.7,0.7-7,1.1h-7.8c-0.4-0.5-0.3-1.2,0.2-1.5
					c0.7-0.5,1.6-0.8,2.4-0.9c2.3,0,4.6-0.3,6.8-0.9c11.1-2.1,22.5-2.9,33.6-4.7c3.5-0.6,6.6-1.9,7.5-5.5c2.4-9.4,4.6-18.8,5.5-28.5
					c0.2-1.3,0-2.6-0.6-3.8c-0.9-3-2.7-5.5-3.8-8.4c-1-6.3,0.5-8.1,7.3-8.2c15.3-0.2,30.5-0.1,45.8-0.1c2.2,0,4.5,0.3,6.8-0.3
					c1.2-0.5,2.1-1.4,2.7-2.6c0.6-1.2,1.1-2.5,1.4-3.8c0.4-5.8,0.4-11.7,0-17.5c-1.3-4.6-4.9-4.9-8.8-4.9h-65.3
					c-8.9,0-17.5-2.4-26.3-2.5C496.9,297.2,495.3,296.8,495.3,294.8z"/>
				<path class="st1" d="M205.3,357.9c-6.9-4.4-13.8-8.9-20.8-13.1c-3.8-2.2-5.5-7-10.2-8c-5.9-1.3-11.8-0.2-17.7-0.6
					c-1.9-0.1-4,0.8-5.6-0.8c0.4-2.2,2.4-2,3.9-2.2c2.2-0.2,4.4,0,6.6-0.1c9.4-0.6,17.4,0.6,25,8c9.6,9.3,22,13.9,35.6,15.6
					c11.6,1.5,23,4.5,34.5,6.8c3.8,0.9,7.7,0.8,11.4-0.2c10.6-6.1,18.6-2.8,26.6,5.6c8.3,8.6,19.9,11.6,31.5,12.6
					c9.3,0.9,19.1,1.7,28.2-2.4c0.7-0.2,1.5-0.1,2.1,0.3c0.4,2.1,0.4,2.1-3.9,3.9c-1.5,1.3-3.5,2.1-5.5,2.1
					c-16.8,1.4-33-0.6-48.3-8.2c-4.9-2.4-8.2-6.8-12-10.5c-2.8-2.8-6.1-4.7-9.9-2.6c-10.4,6-20.9,2.9-31.6,1
					C231.9,362.8,218.8,358.8,205.3,357.9z"/>
				<path class="st1" d="M352.5,383.3l4.4-3.3c0.5-1.6,1.8-2.9,3.5-3.3c7.4-2.8,14.5-6.3,21.1-10.6c4.1-2.7,9.2-2.5,13.9-2.9
					c7.9-0.6,15.7-1.3,23.5-2.2c3.1-0.4,6.3-0.5,9.2,1c14.2,7.3,28.2,15.1,42,23.1c1,0.5,1.8,1.3,2.3,2.3c0.4,0.8,0.2,1.8-0.4,2.5
					c-9.6-3.3-17.8-9.5-26.7-14.2c-6-3.1-12.3-5.7-17.6-10.1c-5.5-1.5-11.1-0.7-16.6,0l0,0c-4,1.5-8.2-0.5-12.2,1.1
					c-7.6,0.6-14.9,1.6-21.8,6.1C369.6,377.8,361.3,381.3,352.5,383.3z"/>
				<path class="st1" d="M472,389.9v-2.2c4.3-1.8,9-0.6,13.5-1.2c12.9-1.7,25.9-3.3,38.8-4.8c1-0.1,2.3,0.4,2.7-1.1
					c0.7-2,2.7-2,4.2-2.9c3.9-7.1,3.5-15.2,5.8-22.7c1-3.5,0.2-7.4,2.6-10.5c2.8,4.6,0.4,9.3-0.2,13.9s-2.4,8.9-2.8,13.4
					c-0.7,8.4-4.7,12.6-13.1,13.4c-10.5,1-21,2.4-31.6,3.6c-2,1.4-4.6-0.3-6.6,1.1h-2.2c-3,1.8-5.9,1.4-8.9,0L472,389.9z"/>
				<path class="st1" d="M411.1,365.6c5.5-1,11.1-3.3,16.6,0H411.1z"/>
				<path class="st1" d="M398.9,366.7c3.9-2.4,8.1-0.5,12.2-1.1C407.3,367.9,403,366.1,398.9,366.7z"/>
				<path class="st1" d="M474.2,390h8.9v1.1c-2.5,0.8-5.2,0.8-7.8,0C475,390.7,474.6,390.3,474.2,390z"/>
				<path class="st1" d="M475.3,391.1h7.8C480.8,392.8,477.6,392.8,475.3,391.1z"/>
				<path class="st1" d="M495.3,294.8c4.5,2.5,9.6,0.9,14.5,1.9c7.1,1.5,14.5,1.5,21.9,1.5c19.9-0.2,39.8,0,59.7-0.1
					c4.8,0,8.3,1.4,9.1,6.6c-0.6,0.4-1.3,0.4-1.9,0c-2.7-3.2-6.2-4.1-10.4-4c-20.5,0.1-41,0.1-61.4,0c-15.7,0-31.1-2.6-46.7-4
					c-12.3-1.1-24.5-2.2-36.8-3.6c-17.7-2.1-35.4-4.5-53-7.1c-8.2-1.2-16.4-2.5-24.6-3.2c-2.6-1-5.5-0.8-8.2-1.3
					c-4-1-7.6-3.2-11.5-4.7c-14.3-6.4-29.5-5.4-44.5-4.4c-7.8,0.5-15.4,0.5-23.1,0.5c-5.7,0.1-11.3,1.2-16.6,3.4
					c-15.5,6.1-30.9,12.6-46.6,18.6c-18.1,0.6-36.1,0.2-54.2,0.2c-22.7,0-45.4,0.1-68-0.1c-0.6,0-1.2-0.1-1.8-0.3
					c-2.4-0.8-3.9-3-5.9-4.4c-0.6-0.5-1.2-1-1.7-1.6c-1.6-1.8-3.4-1.8-5.3-0.5c-4.1,3.3-9.2,5.4-12.7,9.5c-2.1,2.3-3.6,5.1-4.5,8.1
					c-0.6,5.9-0.6,11.8,0.1,17.7c3,9.3,10.5,14,18.7,18c2.8,0.3,4.4-1.5,5.8-3.5c2.1-3.3,5.9-5.2,9.9-5h49.2c2,0,4.1-0.2,5.5,1.9
					c-1.4,2.4-3.6,1.2-5.5,1.2c-15.6,0.1-31.3,0-46.9,0.1c-1.8,0-3.7-0.5-5.4,0.5l0,0c-1.8,1.1-3.3,2.6-4.4,4.4
					c-0.7,1.1-1.5,2.2-2.2,3.3c-2,1.4-4.2,2.4-6.6,1.1c-4.9-1.3-8.6-4.4-12.2-7.8c-2.2-1.5-4.1-3.4-5.5-5.5
					c-1.4-1.6-3.1-3.2-3.3-5.5c-1.7-3.2-2-7-0.8-10.5c1.3-3.8-2.2-7.7-0.2-11.7c0.8-3.5,2.8-6.6,5.5-8.8c1.5-2.2,3.4-4.1,5.5-5.5
					c2.7-2.3,5.6-4.1,8.8-5.5c3-2.2,5.9-2.3,8.9,0c2.1,2.3,2.7,6.2,6.6,6.6c1.8,1.9,4.2,1,6.3,1c32.8,0,65.6-0.3,98.4,0.2
					c11.2,0.2,22.3-2.1,32.5-6.7c11.2-5,22.7-9.5,34.2-13.8c8.8-3.3,18.2-1.8,27.2-2.8c10.4-1.1,20.9,0.3,31.4-1.1
					c8.3-1.1,16.7,1.5,23.9,5.3c10.5,5.5,21.8,5.8,33,7.7c12.1,2,24.2,3.4,36.4,5.1c14,1.9,27.9,4,41.9,5
					C470.1,292.4,482.6,294.7,495.3,294.8z"/>
				<path class="st1" d="M92.3,336.8c1.6-1.8,3.8-1.1,5.7-1.1c15.4,0,30.8,0,46.2-0.1c1.9,0,4.1,0.7,5.7-1c0.3-0.3,0.8-0.3,1.1,0
					c0,0,0,0,0,0l0,0c5.2,2.3,10.7,0.5,16,1.1c2.4,0.3,5.1-1,7.3,1.1L92.3,336.8z"/>
				<path class="st1" d="M61.3,332.4c2.3,1.4,4.2,3.3,5.5,5.5c-2.6,0.1-3.5-2.5-5.5-3.3C61.3,333.9,61.3,333.1,61.3,332.4z"/>
				<path class="st1" d="M87.9,341.2c0.1-2.4,2-4.3,4.4-4.4C91.3,338.7,89.8,340.2,87.9,341.2z"/>
				<path class="st1" d="M79,345.7c2.3,0.4,4.4-0.7,6.6-1.1C83.9,347.4,81.6,347.5,79,345.7z"/>
				<path class="st1" d="M56.9,304.7c1.4,7.3-0.4,14.8,1.1,22.1c-0.5-0.7-1.5-1.4-1.5-2.2C56.1,318,55.3,311.3,56.9,304.7z"/>
				<path class="st1" d="M85.7,284.8c-2.8-1.2-6-1.2-8.9,0C79.8,281.5,82.8,281.5,85.7,284.8z"/>
				<path class="st1" d="M68,290.3c-1.4,2.3-3.3,4.2-5.5,5.5C62.8,293,65.1,290.7,68,290.3z"/>
				<path class="st1" d="M364.6,281.5c12.9,0.4,25.5,3.1,38.1,4.8c13.4,1.7,26.8,3.6,40.2,5.2c13.3,1.6,26.5,3.3,39.9,4.3
					c18.6,1.4,37.2,4.2,56,3.6c17.1-0.5,34.3,0,51.4-0.2c4.3,0,7.5,1.3,9.1,5.5c0.9,6.2,0.9,12.6,0,18.8c-0.4,1.1-0.8,2.2-1.2,3.3
					c-0.7,0.3-1.4,0-1.8-0.6c-1.7-5.5-0.6-11.3-0.8-16.9s-0.5-6.3-6.4-6.3c-24.4-0.1-48.8,0-73.2,0c-1.7,0-3.3-0.1-5-0.4
					c-4.9-1.4-10.1-0.5-15.1-1.8c-15.2-1.2-30.3-2.9-45.5-4.3c-26-2.4-51.7-7.2-77.6-10.3c-3.3-0.2-6.6-0.8-9.7-1.9
					c-1.4-1.3-0.9-2.1,0.6-2.7L364.6,281.5z"/>
				<path class="st1" d="M597.1,326.9h1c-0.4,1-1.1,1.8-2.2,2.2c-2.2,1.1-4.6,0.3-6.9,0.5h-47.9c-6.9,0-8.1,2.1-4.9,8.3
					c1.7,1.8,2.9,4.1,3.3,6.6c-0.3,11-3.5,21.4-5.7,32c-0.2,0.9,0,2.8-2.1,2.3c-1.5-1.6-1.1-3.3-0.7-5.2c1.1-5.5,1.9-11.2,3.4-16.7
					c1.8-6.5,1.7-12.5-2.6-18.2c-1.8-2.3-3.1-5-4.7-7.4c-0.4-0.5-0.7-1.1-0.9-1.7c-0.6-1.8-0.7-3.3,1.6-4c14.9-1,29.9-0.2,44.8-0.4
					c6.1-0.1,12.2,0,18.2,0C593,325.3,595.4,325.2,597.1,326.9z"/>
				<path class="st1" d="M536.2,337.9c-3-1.6-2.6-4.3-1.9-6.7c0.8-2.8,3.5-2.1,5.6-2.1h49.4c0.4,0.2,0.5,0.5,0.4,0.7
					s-0.2,0.4-0.4,0.4h-47.2C535.1,330.2,534.5,331.1,536.2,337.9z"/>
				<path class="st1" d="M599.3,323.5v-18.8h1.1C599.8,311,601.8,317.4,599.3,323.5z"/>
				<path class="st1" d="M485.3,390c1.9-2,4.4-0.8,6.6-1.1C490,390.9,487.5,389.6,485.3,390z"/>
				<path class="st1" d="M589.3,330.2v-1.1h6.6C594,331.1,591.6,329.9,589.3,330.2z"/>
				<path class="st1" d="M527.4,381.1c0.5-0.1,1.1,0,1.6,0.1c1.5,0.8,0.2,1-0.3,1.1c-4.1,0.7-8.2,1.6-12.3,2.1
					c-10.8,1.3-21.7,2-32.5,3.9c-4.2,0.7-7.9-0.1-11.9-0.5c-14.1-7.8-28.3-15.5-42.3-23.4c-3.4-1.8-7.3-2.5-11.2-1.9
					c-9.8,1-19.6,2.2-29.4,3.1c-2.9,0.2-5.6,0.6-7.8,2.3c-7.4,5.7-16.4,8-24.5,12.2c-10.1,4.3-20.8,4.1-31.3,3.1
					c-11.1-1-22.5-4-30.6-11.8s-15.5-13.4-26.6-6.8c-1.2,0.8-2.2,0.7-2.5-0.9c4.9-3.9,10.1-7.2,16.6-7.6c3,1.4,5.6,3.3,7.8,5.8
					c14.9,16.9,34.8,20.4,55.2,17.2c12.4-1.8,24.1-7.2,33.6-15.5c4-2.4,8.6-1.9,12.9-2.4c10.2-1.3,20.5-1.6,30.6-3.3
					c3.9-0.7,7.1,1.5,10.3,3.3c11.3,6.5,23.2,12.2,34,19.3c8.2,5.4,16.5,4.9,25.3,3.4c10.1-1.7,20.4-2.3,30.5-3.9
					C524.4,379.4,526.1,379.9,527.4,381.1z"/>
				<path class="st1" d="M266.1,363.5c0.5,0.7,1.4,1.1,2.2,1c-5.5,2.7-11.2,0.7-16.6-0.3c-14.6-2.7-29.2-5.5-43.6-8.8
					c-10.1-2.3-18.1-8.9-25.6-15.7c-4-3.6-7.8-5.6-13.3-5.3c-6.1,0.4-12.2,0.1-18.3,0.1h-1.1c-18,0-36,0.1-54-0.1
					c-4.3-0.1-7.2,1.2-9.5,5c-1.8,3-4.4,5.7-8.5,2.9c0.5-0.8,1.3-1.5,2.3-1.8c2.6-0.8,2.9-3.1,3.6-5.2c0.3-1.4,1.1-2.7,2.2-3.7
					c0.6-0.3,1.2-0.6,1.9-0.7c30-0.3,60-0.3,90,0c2.5,0.4,4.1,2.1,5.4,4c1.3,1.9,3.2,3.4,5.4,4.2c4.2,2.7,8.3,5.4,12.4,8.3
					c2.8,3,6.7,3.6,10.5,4.3c17.2,3.3,34.3,7.4,51.6,10.5C264.1,362.4,265.2,362.8,266.1,363.5z"/>
				<path class="st1" d="M188.6,340.1c-5.4,0.2-6.2-4.7-8.9-7.8c-0.9-0.8-2.6-0.6-3.2-2s-1.9-2.9-1.5-4.8c0.6-1.2,1.7-2.1,3-2.3
					c2.9-0.5,5.9-0.7,8.9-0.5h327.8c3.1,0,6.3-0.3,9.3,0.7c1.5,0.7,2.5,1.6,2.2,3.4l1,3.3c-7.4-3.1-13.6,1.5-20.2,3.3
					c-14.8,5.1-29.9,9.5-44.7,14.5c-7.8,2.3-15.5,4.5-23,7.2c-2.7,0.9-5.6,1.4-8.3,3c1.6,1.8,3.8,2.2,5.5,3.5
					c11.1,5.7,22.1,11.7,32.8,18.2c5.3,3.2,10.6,3.6,16.4,2.9c12.4-1.6,24.7-3.5,37.2-4.4c3.6-0.3,5.6-1.8,6.3-5.5
					c1.2-6.9,2.5-13.7,4.1-20.5c1-3.8,0.2-7-1.8-10.4s-6.2-6.6-4.5-11.7c6.8,8,12.3,16.1,8.5,27.7c-2.2,6.7-2.8,14-4.1,21l-4.4,2.2
					c-13.6,1.5-27.4,2.2-40.8,4.9c-8.9,1.8-15.3-1.7-22.1-5.5c-11.4-6.4-22.9-12.5-34-19.4c-5.3-3.3-10.3-1.3-15.4-0.9
					c-10,0.8-20,2-30,3.1c-2,0.2-3.9,0.7-5.9,1.1l-0.3-0.8c0-1.5,1.1-2.8,2.5-3.2c8.9-1.5,17.9-2.4,26.9-2.8
					c12.6-0.5,24-5.2,35.8-8.9c16-5,32-9.8,47.8-15.5c6.6-2,13.2-4.7,19-5.6c-0.8,0-2.7,0.5-4.7,0.5c-5.5,0.1-11.1-0.2-16.6,0.2
					c-99.9-0.2-199.7,0-299.5-0.1c-2.6,0-5.3-0.7-8,0c-0.5,2.3,1.3,3.5,2,5C185,336.1,188.5,337,188.6,340.1z"/>
				<path class="st1" d="M84.6,288.1l1.1,1.1c1.1,1.8,2.6,3.4,4.4,4.4l0,0c1.3,0.9,2.8,0.6,4.3,0.6H212c1.4,0,2.9,0.4,4.3-0.6
					c17.1-8.1,34.8-14.7,52.4-21.3c1.4-0.5,2.8-0.8,4.3-0.8c17.3,0.7,34.5-1.8,51.8-1.2c7.7,0.2,15.2,2.1,22.1,5.5
					c0.2,1.3-0.7,1.7-1.7,2.1c-3,0.4-5.8-0.6-8.6-1.5c-6.5-2.1-13.3-2.6-20-1.6c-8.9,1.2-18,0.3-27,0.4c-2.8,0-5.5-0.2-8.2,0.8
					c-16.4-0.9-30,8-44.6,13.1c-6.3,2-12.4,4.7-18.2,8c-2,1-4.2,1.5-6.4,1.4c-40.2,0.1-80.4,0.1-120.7,0c-6.8,0-8.4-2-8.7-9.8
					c0.2-0.6,0.8-0.9,1.4-0.7c0,0,0,0,0,0C84.4,288,84.5,288,84.6,288.1z"/>
				<path class="st1" d="M216.3,293.6c-1.6,1.8-3.8,1.1-5.7,1.1c-38.3,0-76.5,0-114.8,0c-1.9,0-4.1,0.7-5.7-1.1H216.3z"/>
				<path class="st1" d="M80.1,341.3c-0.5,0.8-1.3,1.2-2.2,1.1c-7.5-4.3-15.2-8.4-17.7-17.7c0.4-0.4,0.9-0.5,1.4-0.6
					c0.8,0,1.5,0.4,1.9,1c3.5,6,9.1,9.8,14.8,13.5C79.4,339.2,80,340.2,80.1,341.3z"/>
				<path class="st1" d="M60.2,304.7c1.7-6.5,6.2-10.5,11.8-13.7c2.1-1.2,3.9-2.7,5.9-4c1.1-0.8,2-0.6,2.6,0.7c0,0.4,0,0.8-0.3,1
					c-6.6,5-12.8,10.5-18.5,16.5C61.1,305.2,60.6,305.1,60.2,304.7z"/>
				<path class="st1" d="M345.8,277.1c0.4-0.4,0.8-0.8,1.1-1.1c3.5,1.1,6.9,2.6,10,4.4l-0.6,0.6c-3.2,1.4-5.8-1-8.7-1.5
					C346.6,278.9,345.5,278.6,345.8,277.1z"/>
				<path class="st1" d="M80.1,288.1c-0.5-0.7-1.3-1.2-2.2-1.1c2.6-1.8,4.9-1.8,6.6,1.1h-1.1C82.4,288.3,81.2,288.3,80.1,288.1z"/>
				<path class="st1" d="M356.9,280.4c2.6,0.4,5.4-1,7.8,1.1l0,0C362,281.8,358.9,284.9,356.9,280.4z"/>
				<path class="st1" d="M90.1,293.6c-2.4-0.1-4.3-2-4.4-4.4C87.6,290.3,89.1,291.8,90.1,293.6z"/>
				<path class="st1" d="M526.3,326.9l-1.2-2.2c2.1-2.1,4.8-1.6,7.3-1.7c17.3,0,34.7,0,52,0c2.8,0,6.6,1,7.9-2.3
					c1.6-4.4,1.6-9.2-0.1-13.5c-0.5-1.4-2.1-1.4-3.3-1.6c-2.6-0.3-5.2-0.4-7.7-0.3H90.9c-2.4,0-4.8,0.3-7.1-0.5
					c-1.5-0.4-2.4-1.8-2.1-3.3c0.1-0.7,0.6-1.3,1.2-1.7c0.7-0.2,1.4-0.2,2.1-0.1c40.4,0.1,80.9,0,121.3,0c2.2,0.1,4.4-0.2,6.5-1
					c0.7-0.1,1.4-0.1,2,0.2c5.1,1.6,10.4,0.7,15.6,0.7c32,0.3,64-0.2,96,0.3c1.6,0.4,3.2,0.4,4.9,0.2c3.3-0.6,6.6-0.1,10-0.5
					c22.5,0.3,45.1-0.1,67.6,0c7.8,0.6,15.6-0.1,23.4,0c19.5-0.1,39.1-0.1,58.6,0.5c1.8-0.8,3.9,0.1,5.6-1c4.7,1.8,9.8,0,14.5,2.1
					c-1.5,0.7-3.3,0.9-4.9,0.6c2.2-0.2,5.7,0.6,9.2-0.4c25.4,0,50.8,0,76.2-0.1c4.8,0,6.1,1.8,5.9,6.2c-0.3,6.4,0,12.9,0,19.3
					L526.3,326.9z"/>
				<path class="st1" d="M496.3,299.2c-1.2,1.6-3,0.9-4.5,1.1c-10.8,1.3-21.5-0.5-32.3-1c-7.5-0.4-15-1.3-22.4-2.3
					c-7.8-1.6-16-1.5-23.8-3.4c-17.6-2.7-35.2-4.9-52.9-7.4c-3.9-0.5-8.1,0-11.4-2.9c-0.1-1.7,1.2-2.1,2.4-2.5
					c3.7,0.4,7.3,1.1,11,1.8c6,2.1,12.5,2.3,18.7,3.2c17.5,2.7,35,5,52.5,7.4c6.6,0.9,13.4,1.9,20.1,2.5
					C467.9,297,482.1,298.1,496.3,299.2z"/>
				<path class="st1" d="M362.4,282.6c-3.8,0.4-7.4-0.6-11.1-1.1c-1.5,0.6-3.3,1.3-4.4-0.3c-1-1.3,0-2.4,1.2-3.1
					c3,0.4,5.5,2.9,8.9,2.2c2.3,2.1,5.2,0.7,7.8,1.1C364.2,282.2,363.3,282.7,362.4,282.6z"/>
				<path class="st1" d="M515.1,301.5c-3.5,2.1-7.2,0.7-11.8,1c3-1.7,5.3-0.7,7.5-1.1L515.1,301.5z"/>
				<path class="st1" d="M379.1,364.5c-2.3,3.4-5.6,5.9-9.5,7c-5.4,1.9-10.4,4.5-15.7,6.5c-14.4,5.3-28.4,3.5-42.9-0.8
					c-11.2-3.3-18-11.3-26.1-18.3c-0.3-1,0.3-1.4,1.1-1.6c3.5,0.5,5,3.7,7.5,5.6c5.2,7.1,12.9,9.8,20.9,12
					c13.6,5.2,27.1,5.6,40.6-0.6c7-3.2,14.6-5,20.9-9.8C376.8,363.7,378.1,363.7,379.1,364.5L379.1,364.5z"/>
				<path class="st1" d="M266.1,363.5c-6,1.3-11.4-1.3-17-2.4c-14.1-2.7-28.1-5.8-42.2-8.7c-3-0.6-5.6-1.6-7.1-4.5
					c4.7-0.8,8.8,1.8,13.1,2.7c14.9,3,30,5.7,44.8,9.1c5.9,1.4,10.8-0.5,15.9-2.8c3-1.3,5.6-3.6,9.2-3.1c1.4,1,2.8,2,0,3
					C276.5,357.3,272,362.1,266.1,363.5z"/>
				<path class="st1" d="M282.8,356.8c1.2-0.8,1.1-1.5,0-2.3c0.9-3.3,3.5-2.2,5.7-2.1c3,1,6,0.5,9.1,0.7c2,0.1,4.5-0.4,5.4,2.4
					c-1.9,2.2-4.5,1.5-6.9,1.7c-3.3,0.2-6.7-0.9-10,0.7l-1.1,1.1L282.8,356.8z"/>
				<path class="st1" d="M288.3,353.5c-1.9,0.2-4-0.7-5.6,1c-0.2,0-0.4,0-0.5,0.1c-14,10.2-28.8,6.3-43.6,2.8
					c-10.3-2.4-20.8-4.3-31.3-6.2c-2.9-0.5-4.6-3.1-7.5-3.3c-4-2.2-8.1-4.4-11.2-7.8c-1.8-1.9-4.4-2.9-5.4-5.5
					c-1.5-4.2,0.1-6.7,4.4-7.7h303.3c1.8,1,4.5,1,4.9,3.7s-2.6,2.6-3.8,4c-15.1,6.2-30.9,10.4-46.4,15.3c-9.6,3-18.8,7.6-29,8.4
					c-12.2,1-24.1,3.3-36.4,2.8l-0.7-0.5c-0.6-0.9-1.1-1.9-1.4-2.9c-3.5-9.4-3.5-9.5-13.2-8.2c-3.2,0.3-6.5,0.9-9.6,1.7
					c-1.8,0.3-3.7,0.4-5.5,0.4c-9.5,1.8-19.2,2.6-28.9,2.3c-1.8,0-3.7,0.3-5.4,0.8C306.3,355.7,297.4,353.6,288.3,353.5z"/>
				<path class="st1" d="M82.4,300.3v3.3c0.1,0.9-0.2,1.8-0.8,2.5c-5.3,5.9-4.2,11.7,0.2,17.5c0.5,0.8,1,1.6,1.5,2.5
					c0.6,1.2,1.3,2.5,2.1,3.6c0.4,0.8,1,1.6,0.4,2.6l0,0c-0.6,1-1.2,1.9-2.5,1.1c-2.6-3.3-4.4-7.2-6.5-10.8
					c-0.6-1.3-1.4-2.6-2.4-3.7c-2.5-2.4-5.9-3.1-8.6-1.3c-2.6,1.8-1.3,4.8,0.1,7.4c2.8,5.1,7.3,8.1,12,11.1c2.2,1.5,3.8,0.7,5.4-0.7
					c0.5-0.2,1-0.1,1.5,0.2c-0.6,2.6,0.2,6.3-4.4,5.5c-7.3-4.4-14.1-9.4-18.8-16.7c-0.3-1.8-1.5-3.7-0.1-5.5v-8.9
					c-0.5-1.8-0.5-3.7,0.1-5.5c4.7-7.3,11.5-12.3,18.8-16.7c1-0.7,2.3-0.6,3.3,0c2.5,8.9,2.5,8.9,11.6,8.9
					c33.9,0,67.8-0.1,101.6,0.1c10.9,0.1,21.1-0.5,31.3-5.7c12.3-6.2,25.5-10.4,38.2-15.5c5-2,10.2-0.6,15.3-1
					c0.3,0.5,0.2,1.2-0.2,1.6c-19.3,1.5-35.6,11.9-53.3,18c-5.2,0.6-8.4,5.9-13.9,6.1l-0.1-1.2c-4.2,0.5-8.4,0.7-12.6,0.6H91.6
					c-2.8-0.1-5.5,0-8.2,0.5L82.4,300.3c-0.4-0.3-0.6-0.6-0.6-1c-0.5-2.2,1.4-5.4-1-6.6c-2.6-1.4-4.4,1.8-6.6,2.9
					c-3.9,2-6.3,5.5-8.6,9c-1.6,2.5-2.4,5.1,0.5,6.6c2.8,1.6,6,1.9,8.3-1.3c1.9-2.7,3.2-5.8,5.3-8.4C80.3,300.8,81,299.9,82.4,300.3
					z"/>
				<path class="st1" d="M85.7,332.3l-1.1-2.1c1.9-2,4.4-1.7,6.7-1.7h79.4c2.4,0,4.8-0.2,6.8,1.6l2.2,2.3
					C148.3,332.4,117,332.4,85.7,332.3z"/>
				<path class="st1" d="M83.6,333.5l2.1-1.1c0,1.2,0.3,2.5-1,3.3h-1.1C82.9,335.1,82.9,334.1,83.6,333.5
					C83.5,333.5,83.5,333.5,83.6,333.5L83.6,333.5z"/>
				<path class="st1" d="M81.3,324.7c-1.6-2.6-3.3-5.2-4.9-7.9c-0.9-1.4-0.9-3.3,0.2-4.7c2.1-2.8,2.8-6.4,5.8-8.5h411
					c31.9,0,63.8,0.1,95.7-0.1c4.4,0,6.5,1,6,5.8c-0.3,3.5-0.3,7,0,10.5c0.3,4-1.4,5-5.1,4.9c-21.6-0.1-43.2,0-64.7,0H176.5
					c-2.2,1.5-4.8,1.5-7.4,1.5H88.7C86.1,326.2,83.5,326.2,81.3,324.7z"/>
				<path class="st1" d="M527.4,330.2c0.6,4.4,3.5,7.8,5.8,11.1c2.3,3.1,3,7,2,10.7c-1.8,7.9-3.1,15.8-4.5,23.7
					c-0.7,4-4.2,4-6.9,4.1c-15,0.8-29.7,3.9-44.7,5c-1.2,0.2-2.5,0.1-3.7-0.5l-39.9-22.1c-0.6-3.3,0-6.1,3.3-7.8
					c7.4-3.7,15.5-5.4,23.2-7.8c3.3-0.5,6.6,1.3,8,4.3c0.6,11.3,6.8,18.8,18,22c1.4,0.4,2.9,0.2,4.3-0.4c5.7-2.2,11.4-4.3,16.9-6.8
					c5.2-2.3,7.9-10.3,5.1-15.4c-2-3.7-4.4-7.2-6.5-10.9c-1.5-2.4-1.1-4.8-0.5-7.3c4.2-2.6,9.2-3.1,13.7-5.1
					C524.5,325.6,525.3,329.2,527.4,330.2L527.4,330.2z"/>
				<path class="st1" d="M379,364.5c-9.3,6.6-20.1,10.9-30.8,13.9c-11.4,3.2-23.5,3.9-34.6-2.8c-3.2-2.2-7.1-2.7-10.6-4.2
					c-3.7-1.7-6.8-4.4-9-7.8c-2.1-3.1-1.2-6.3,2.3-6.7c11.8-1.4,23.6-4,35.2,1.1c3,1.2,5.9,3,9.3,2.8c1.9,0,3.9,0,5.8-0.1
					c2.7-0.6,5.5-0.8,8-1.7c3.2-1.1,5.9-2.5,3.6-6.7c-1-1.8-0.1-2.7,1.9-2.7c0.7,0-0.2,0.1,0.6,0c13.9-2.3,13.9-2.3,19.4,11.6l0,0
					C379.8,362.3,379.4,363.4,379,364.5z"/>
				<path class="st1" d="M507.4,332.4c2.4,1.9-0.6,4.6,1.1,6.6c-0.9,1.8-2.7,2.3-4.4,2.9c-9.5,3.3-19,6.3-28.5,9.5
					c-1.8,0.6-3.8,1.5-5.7-0.1l-7.7-4.4C477,341.5,492.2,336.8,507.4,332.4z"/>
				<path class="st1" d="M177.5,330.1l-93,0.1l-2.1-3.2c1.7-1.6,3.8-1.2,5.8-1.2h81.3c2,0,4.1-0.4,5.9,1
					C176.7,327.3,177.6,328.6,177.5,330.1z"/>
				<path class="st1" d="M175.4,326.8L82.5,327l-1.2-2.3h95.2L175.4,326.8z"/>
				<path class="st1" d="M491.9,334.6c4.4-3.2,2.3-5.6-1.1-7.8h24.2c0.1,0.3,0.2,0.6,0.2,0.9L491.9,334.6z"/>
				<path class="st1" d="M438.8,354.5c-2.5,2-1.5,5.5-3.3,7.8l-7.7-3.9C431.1,356.3,434.9,355,438.8,354.5z"/>
				<path class="st1" d="M187.5,326.9c-3.2,1.6-4,4.4-4.4,7.7c-1.5-2.2-3.2-4.3-3.9-7.2C182.2,326.3,184.9,327.1,187.5,326.9z"/>
				<path class="st1" d="M281.6,275.9v-1.1c0.5-0.3,0.9-0.9,1.4-0.9c20.2,1.5,40.8-4.8,60.6,2.9c0.7,0.2,1.5,0.3,2.2,0.2
					c0.5,0.7,1.3,1.2,2.2,1.1c-2.1,4.2,1.4,3.1,3.3,3.3c-0.5,0.8-1.3,1.2-2.2,1.1c-5.5,2.9-10.1,7.2-13.2,12.6
					c-1.5,2.3-2.8,4.9-5.5,6.1c-0.7,1.1-1.5,1.4-2.3,0.1c2.1-6.8,6.6-12.2,11.2-17.4c1-1.3,2.6-2,3.4-3.9c-2.5-1-5.2-1.9-7.8-2.6
					c-13.3-2-26.7-1.2-40-0.5C290.4,277.4,285.8,278.9,281.6,275.9z"/>
				<path class="st1" d="M61.3,310.3c1.6,2.7,1.6,6.1,0,8.9C59.6,316.4,59.6,313,61.3,310.3z"/>
				<path class="st1" d="M281.6,275.9c15.1-0.9,30.3-1.3,45.4-1.1c3.5-0.2,6.9,0.6,10,2.2c3.1,1.8,3.6,4.5,3.2,7.8
					c-4.8,5-7.7,11.4-12.1,16.7h-98.6c-5-2.3-5.2-2.9-2.2-7.7c10.2-5.5,21.4-8.6,31.9-13.4C266.2,276.9,273.9,275.4,281.6,275.9z"/>
				<path class="st1" d="M334.8,294.8c3.7-5.3,6.6-11.5,14.4-12.2c6.6,2.3,13.5,2.2,20.2,3.2c14.4,2.2,28.8,4,43.2,6
					c0.3,0,0.5,0.5,0.8,0.7c2.9,1,5.8,1.8,8.8,2.4c1.5,0.2,2.7,1.5,2.7,3c0,2-1.6,2.1-3,2.5c-4.2,1.2-8.7-0.5-12.9,1h-68.6
					C336.9,300.5,334.6,298.6,334.8,294.8z"/>
				<path class="st1" d="M83.4,300.3c0.9-2,2.7-2.2,4.6-2.2h123.1c1.1-0.2,2.2,0.2,2.9,1.1c-2,1.6-4.5,2.4-7.1,2.3
					c-39.5-0.1-78.9-0.1-118.4-0.1C86.8,301.4,84.8,302,83.4,300.3z"/>
				<path class="st1" d="M436.6,295.8c15.1,0.8,30.2,2.5,45.2,4.2c3.3,0.4,6.6,0.2,9.9,0.3c-1.6,1.8-3.8,1-5.7,1
					c-18,0-35.9,0-53.9,0C432.9,298.9,430.9,294.3,436.6,295.8z"/>
				<path class="st1" d="M436.6,295.8c-1,0.4-3.1-0.6-2.5,1.6s-1.1,2.8-2,4h-23.2c3.3-2.2,7.1-0.4,10.5-1.2c1.6-0.4,4.2-0.2,4.4-2.3
					s-2.3-1.9-3.8-2.4c-2.2-0.8-4.4-1.3-6.7-1.9c-0.1,0-0.2-0.3-0.2-0.4s0.2-0.3,0.2-0.5C421.1,294,429,293.5,436.6,295.8z"/>
				<path class="st1" d="M227.3,293.6c-0.5,3-1.6,6.1,2.2,7.8c-5.1-0.5-10.4,1.1-15.4-1C218.6,298.2,221.8,293.7,227.3,293.6z"/>
				<path class="st1" d="M334.8,294.8c1.2,2.7,3.1,5,5.5,6.6l-9.8-0.1L334.8,294.8z"/>
				<path class="st1" d="M331.5,358.9c-10.4-4-21.1-1.6-31.7-2.1c-2.2-0.1-4.6,0.7-5.5,2.9s0.7,3.9,2,5.4c3.3,4,8,5.7,12.6,7.5
					c1.7,0.7,4.4,0.1,4.9,2.9c-8.5-1.4-16-4.6-21-12.2c-2.9-5-2.8-5.4,2.2-7.8h7.8c5.4-3.2,11.5-0.8,17.2-2.1c1.5-0.2,3-0.2,4.4,0h5
					c1.6,0,3.7-0.4,4.4,1.4S332.9,357.9,331.5,358.9z"/>
				<path class="st1" d="M294.9,355.7c-3.3,1.9-3.5,4.6-2.2,7.8l-6.6-5.5c-0.3-1.1-0.8-2.2,1.1-2.2L294.9,355.7z"/>
				<path class="st1" d="M324.8,354.5c-7.4,0.5-14.8-0.9-22.1,1.1c-2.5-2.1-5.5-0.6-8.3-1.1c-2-0.3-4.3,0.8-6.1-1.1h27.6
					C318.9,353.3,322.1,351.2,324.8,354.5z"/>
				<path class="st1" d="M336.5,330.2h139.4c2.6,0,6.6-1.1,7.1,2c0.4,2.4-3.6,3-6,3.8l-50.9,16.6c-12.2,4-25,3.2-37.5,5
					c-3.5,0.5-6.1-2.6-7.6-6.2c-3.2-8-4.5-8-12.9-7.2c-16.8,1.6-33.3,5.5-50.3,4.9c-10.6-0.4-21.2,1.4-31.9,1.2
					c-5.5-0.1-10.6,3-15.4,5.5c-3.9,2.1-8.5,2.8-12.9,1.8c-15.1-3-30.1-6.5-45.2-9.3c-8.9-1.6-14.9-7.7-22.1-11.9
					c-1.3-0.8-1.9-2.4-1.4-3.9c0.4-1.7,1.7-2.3,3.3-2.4s3,0,4.4,0L336.5,330.2z"/>
				<path class="st1" d="M324.8,354.5c-2.7-2.1-5.9-0.5-8.9-1.1c0.6-0.3,1.3-1,1.9-1c10.9,0.2,21.8-0.5,32.6-2.2
					c1.8,0.6,3.6,1.1,5.4-0.1c5.5-2.5,11.7-1.5,17.5-3.1c2.1-0.5,2.8,1.4,3.4,2.9c1.5,3.7,3.2,7.3,3.5,11.4c-2.5-2-2.9-5.1-3.7-7.8
					c-1.3-4.6-4.4-5.1-8-4.2c-3.2,0.6-6.4,1-9.6,1.1c0.4,2.2,3.5,3.4,2,6s-4.2,4-7.1,4.7c-2.3,0.6-4.6,0.9-6.9,1.3
					c-0.6-0.5-1.5-0.7-1.3-1.8c2.5-2.8,6.1-1.9,9.1-3.2c1-0.4,2.3-0.8,2.2-2.1s-1.6-1.3-2.6-1.3c-6,0-12.3-0.9-17.7,3.3
					c1.7,2.5,5.2,0.8,6.3,3.5c-0.2,1.5-1.8,0.8-2.4,1.6c-3.2-0.1-6.4-1.3-8.9-3.3l1.5-4.4C330,354.5,327.4,354.5,324.8,354.5z"/>
				<path class="st1" d="M355.8,350c-1.7,2.2-3.6,1.4-5.4,0.1L355.8,350z"/>
				<path class="st1" d="M83.6,333.5v2.2c-0.9,4.4-2.8,4.4-6.2,1.9c-4.8-3.6-9.8-6.8-13-12.3c-2.3-4-2.2-8.2,0.8-9.6
					c2.5-1.2,7.8-1.9,10.2,2.2C78.2,323,81.8,327.8,83.6,333.5z"/>
				<path class="st1" d="M82.4,300.3c-3.1,3.2-4.7,7.4-7.2,11.1c-2.7,4-6.7,2.6-10,1.6c-2.3-0.9-3.5-3.5-2.6-5.8c0,0,0,0,0,0
					c0.1-0.2,0.2-0.5,0.3-0.7c2.3-3.9,4.2-8.2,8.5-10.7c2.1-1.2,3.9-2.8,6-4c1.4-0.8,2.7-3,4.2-1.9s2,3.5,1.8,5.5
					C83.2,297.1,82.8,298.7,82.4,300.3L82.4,300.3z"/>
				<path class="st1" d="M337.2,307h244.5c7.4,0,10.2,2.3,9.8,8c-0.3,3.9-2.4,6.4-6.3,6.3c-21.2-0.5-42.4,1.3-63.5-0.9
					c-1.7-0.1-3.3-0.1-5-0.1c-110.7,0-221.3-0.5-332,0.3c-30.8,0.2-61.5,0.2-92.3,0.7c-6.5,0.1-11.1-2.7-11.2-6.6
					c-0.2-4.7,4.3-7.8,11.3-7.8L337.2,307z"/>
				<path class="st1" d="M457.9,351.4c5.3-0.5,7,1.6,7.8,4.8c2,8,5.5,14.6,13.6,18.1c2.1,0.9,5.5,2.5,3.9,5.4
					c-1.5,2.6-5.2,1.9-7.6,0.8c-6-2.8-11.8-6-17.5-9.2c-4.6-2.6-9.2-5.3-13.8-8c-1.6-0.9-3.3-2-3.1-4.1s1.8-3,3.7-3.6
					C449.8,354.1,454.6,352.4,457.9,351.4z"/>
				<path class="st1" d="M506.3,378.9c-0.9,0.1-1.9,0.1-2.8,0c-1.9-0.4-5,1.1-5.3-1.1s2.4-3.7,4.8-4.5c3-1,5.8-2.2,8.6-3.7
					c7.1-4,9.8-13.6,6-21.1c-1.2-2.3-2.5-4.5-3.9-6.6c-2-2.8-3-5.7-0.6-8.5s8.8-2.8,11.1,0c5,6,10.3,12,7.8,21
					c-1.3,4.7-1.4,9.8-2.6,14.6c-1.1,4.1-3,7.9-8.3,8.3C515.9,377.6,510.9,379.2,506.3,378.9z"/>
				<path class="st1" d="M469.8,351.3l38.7-12.3c2.4,2.3,3.7,5.4,5.4,8.2c5.8,9.1,3.2,17.3-6.8,21.3c-1.4,0.5-2.8,1-4.1,1.6
					c-14.6,6.1-14.6,6.1-27.9-2.2C471.5,365.4,468.3,355.6,469.8,351.3z"/>
				<path class="st1" d="M314.6,359c6.3-0.6,12.6,1.1,17.8,4.6c9.9,6.6,25.2,2.9,32.5-6.4c1.8-2.3,3.9-3.8,6.5-1.6s2.7,5,0.4,7.8
					c-0.3,0.4-0.7,0.8-1.2,1.1c-9.9,4.3-19.3,9.9-30.3,11.1c-11.7,1.3-22.6-1.7-33.2-6.1c-1.9-0.7-3.7-1.7-5.2-3
					c-1.5-1.4-4.3-2.6-3.3-5.2c0.9-2.4,3.5-2.2,5.8-2.2L314.6,359z"/>
				<path class="st1" d="M340.3,362.2c0.5-0.8,1.3-1.2,2.2-1.1c0.8-0.9,2.2-0.9,3.1-0.1c0,0,0,0,0,0c0,0,0.1,0.1,0.1,0.1l1.1,1.1
					H340.3z"/>
				<path class="st1" d="M340.2,284.7c-1.1-2.6-2.2-5.1-3.2-7.7c0.7,0.1,1.4,0.3,2.1,0.5c1.8,1.2,5.2-0.5,5.8,1.9
					C345.4,282.2,341.8,282.9,340.2,284.7z"/>
				<path class="st1" d="M281.2,298.1h-37c-2.7,0-6.7,0.2-7.2-2.3c-0.5-2.9,3.5-3.5,6-4.5c4.2-1.4,8.2-3.1,12.2-5
					c11.1-6,23.2-6.3,35.2-6.9c10.2-0.6,20.5,0.7,30.8-1c4.4-0.7,10-0.7,12.6,3.4c3,4.4-2.9,6.8-4.4,10.2c-2.1,4.7-6.1,6.3-11.3,6.2
					C305.9,297.9,293.5,298.1,281.2,298.1z"/>
				<path class="st1" d="M399.6,296c-4.6,1.2-8,2.1-11.7,2c-13.1-0.1-26.2,0-39.3,0c-3.1,0-7.2,1.1-7.9-3.7c-0.4-2.6,5.7-7.6,9-7
					c15.3,2.7,30.9,3.4,46.1,7C397.1,294.8,398.4,295.4,399.6,296z"/>
				<path class="st1" d="M331.5,333.5h131.6c1,0,2.5-0.3,2.7,1.1s-1,1.8-2.1,2.1c-14.9,4-29.1,10.3-44.2,13.6
					c-9.9,2.1-19.9,2.6-30,3.1c-3.1,0.2-4.4-1.2-5.5-4.1c-3.2-8-6.3-10.1-14.8-9.2c-13.3,1.4-26.4,3.9-39.7,5
					c-10.1,0.9-20.2,0.5-30.4,0.4c-8.5-0.1-17.2,0.2-24.6,4.6c-9,5.3-17.8,3.8-27.1,1.7c-11.6-2.7-23.2-5.2-35-7.2
					c-5.9-1-10.4-4.5-15.1-7.6c-0.7-0.5-1.2-1.3-1.3-2.2c0-0.9,1.2-1.3,2.1-1.4c1.5-0.1,2.9,0,4.4,0L331.5,333.5z"/>
				<path class="st1" d="M345.8,361.1h-3.2c-1.5-1.6-3.5-0.9-5.2-1.1c-1.3-0.1-2.8-0.3-3.2-1.7c-0.5-1.8,1-2.7,2.2-3.4
					c3.6-1.9,7.6-2.8,11.6-2.7h7.2c1.8,0,4.2,0.2,4.4,2.2s-2,3.6-3.9,4.1C352.4,359.6,348.9,359.5,345.8,361.1z"/>
				<path class="st1" d="M77.9,328.7c0,1.5-0.2,3-2.1,3.3c-2.5,0.4-8.5-5.8-8.8-9c-0.2-2.1,0.6-3.6,2.9-3.8
					C72.9,318.9,77.7,324.6,77.9,328.7z"/>
				<path class="st1" d="M78.9,300.9c-0.7,4.1-3.3,7.6-7,9.6c-1.4,0.7-2.7,1.1-4.1,0s-2.4-2.5-1.9-4.3c1.4-4.6,3.6-8.6,8.5-10.1
					C77,295.4,79.3,295.7,78.9,300.9z"/>
				<path class="st1" d="M467.1,369c0.3,2.1-1,2.4-2.3,1.7c-5.7-2.9-11.4-5.9-16.9-9.1c-1.7-1-1.1-2.8,0.5-3.4
					c3.4-1.4,6.8-2.5,10.4-3.5c1.3-0.3,2.7,0.4,3.1,1.7C463.6,360.6,465.3,364.9,467.1,369z"/>
				<path class="st1" d="M504.8,376.7c1.1-3.2,3.5-3.6,5.4-4.6c10.1-5.3,13.5-15.5,8.3-25.5c-1.1-2.1-2.4-4.1-3.6-6.2
					s-2.5-4.3,0.4-6.1c2.6-1.7,5.1-2.7,7.9,0c8.3,7.8,8.5,17.1,6.3,27.3c-3.1,14-4.4,15.2-19.2,15.2L504.8,376.7z"/>
				<path class="st1" d="M490.8,373.3c-7.6,0-20.4-12-20.6-18.3c0-2,1.4-2.3,2.8-2.8c10.5-3.5,20.9-7,31.4-10.5
					c1.3-0.4,2.8-0.9,3.7,0c3.7,3.6,7.5,8.1,7.5,13c0,4.6-1.3,10.1-7.8,12C501.8,368.4,495.9,371.3,490.8,373.3z"/>
				<path class="st1" d="M339.3,370.4c-12,2.4-21.9-0.7-31.6-4.8c-0.8-0.4-2-0.5-2-1.6c0-1.4,1.3-1.8,2.4-1.7
					c7.1,0.5,14.8-2.2,20.9,4.1C331.3,369,335.3,368.4,339.3,370.4z"/>
				<path class="st1" d="M70.5,309.1c-2.4,0.1-2.8-1.5-2.5-3.3c0.6-3.6,3.6-5.4,6.2-7.3c1-0.7,2.1-0.2,2.5,1.2
					C77.5,302.2,73,309,70.5,309.1z"/>
				<path class="st1" d="M512.3,374.1c2.4-4,6.1-6,8-9.8c4-8,2.6-15.2-2.6-22.1c-1.7-2.2-3.9-4.6-0.3-6.9c3.2-2,5.2,0.4,6.9,2.6
					c4.9,6.2,6.3,14.4,3.7,21.8c-0.5,1.6-0.9,3.2-1.2,4.8C524.3,374.6,523.6,375.1,512.3,374.1z"/>
				<path class="st1" d="M509.7,349c4.2,4.9,4.3,8,0.4,12.3c-5.5,6.1-18.4,10-24.9,7.4c-1.7-0.7-3.5-1.2-4.3-3.1l0.6-0.5
					c2.1-0.6,3.9,0.6,5.7,1.4c2.6,1.1,5.5,0.8,7.8-0.8c4.1-2.5,9-3.4,12.7-6.6c3.5-2.6,0.8-6.4,1.6-9.5L509.7,349z"/>
				<path class="st1" d="M480.9,365.6c-4-1-5.5-3.5-5.6-7.6c-0.1-4.3,2.9-5,5.9-5.9c6.8-2.2,13.5-4.5,20.3-6.8
					c3.8-1.2,6.9-0.8,8.2,3.7l0,0c-10.4-2.3-19.1,3.2-28.3,6.2c-2.8,0.9-4.4,3.4-1.8,6.5C480.4,362.8,481.6,363.9,480.9,365.6
					L480.9,365.6z"/>
				<path class="st1" d="M508.5,360.1c-3.9,3.3-8.9,4.3-13.3,6.6c-6.1,2.2-11.1,0.1-15.5-3.9c-3.7-3.4-3.4-6.5,1.2-8.3
					c6.8-2.6,13.7-4.8,20.7-6.9c2.6-0.8,5.4,0.1,6.9,2.4C510.8,353.2,511,356.7,508.5,360.1z"/>
				<path class="st1" d="M508.5,360.1c0.4-2,1.1-4,1-5.9c-0.3-4.4-4.3-7-8.7-5.7c-6.1,1.9-12.3,3.9-18.3,6.1c-5.5,2-5.7,4.7-1.3,8.6
					c4.1,3.5,9,3.8,14,3.5c-5.2,4.5-9.6-0.2-14.4-1.1c-0.7-0.9-1.3-1.7-2-2.5c-3.3-3.8-3.1-7.3,1.4-9.1c6.9-2.8,14.1-4.9,21.2-7
					c2.9-0.8,6-0.1,8.1,2.1C510.1,352.8,512.9,356.8,508.5,360.1z"/>
				<path class="st1" d="M492,364.9c-1.6-0.2-3.2-0.6-4.7-1.1c-2.4-1.1-6-1.7-5.8-4.9c0.1-2.8,3.8-2.2,5.8-3.2c4.4-2.2,9.4-3,14-4.7
					c2.5-0.9,4.4-0.5,5.6,1.7s1.1,4.8-1.1,6.4C501.5,362,496.5,363.3,492,364.9z"/>
			</g>
		</g>
	</g>
</g>
</svg>
