<?xml version="1.0" encoding="utf-8"?>
<!-- Generator: Adobe Illustrator 23.0.4, SVG Export Plug-In . SVG Version: 6.00 Build 0)  -->
<svg version="1.1" id="Layer_1" xmlns="http://www.w3.org/2000/svg" xmlns:xlink="http://www.w3.org/1999/xlink" x="0px" y="0px"
	 viewBox="0 0 658.4 658.4" style="enable-background:new 0 0 658.4 658.4;" xml:space="preserve">
<style type="text/css">
	.st0{fill:url(#SVGID_1_);}
	.st1{fill:#FFC829;stroke:#FFFFFF;stroke-width:0.5;stroke-miterlimit:10;}
</style>
<title>Asset 10</title>
<radialGradient id="SVGID_1_" cx="345.28" cy="166.75" r="484.41" gradientTransform="matrix(1 0 0 1 0 -48)" gradientUnits="userSpaceOnUse">
	<stop  offset="0.66" style="stop-color:#6FBE44"/>
	<stop  offset="1" style="stop-color:#096A37"/>
</radialGradient>
<circle class="st0" cx="329.2" cy="329.2" r="329.2"/>
<g>
	<g id="Layer_1-2">
		<path class="st1" d="M199.9,339.3c-2.9,0.4-4.4-1.7-6-3.5c-2.4-2.6-5-4.3-8.7-3.9c-4.5-1.5-9.2,0.4-13.7-1.1
			c-3.2-0.5-4.6-3-6.3-5.3c-0.7-1.3-1.8-2.4-3.2-3.2l0,0c-0.9-0.7-2-0.5-3-0.5c-20.3,0-40.6,0.1-60.9-0.1c-3.8,0-6.5,2.6-9.8,3.2
			c-8.1,1.4-16.2-0.1-24.2-0.4l0,0c-7.3-1.3-14.9,0.5-22.1-2.1c-4.8-2.3-6.8-8.3-5.1-15.9c1-4,2.9-6.7,7.5-7.6
			c7.9-1.5,15.9-1.6,23.9-2.7c4.5-0.7,9.1-0.3,13.5-1.4c3.5-0.8,6.6-0.3,8.9,1.6c3.3,2.8,6.9,2.9,10.7,2.9c18.8-0.1,37.5-0.1,56.3,0
			c3.2,0,5.6-0.3,7.5-3.4c2.2-3.7,6-5,10.4-5.1c22.8-0.3,45.5-0.3,68.3-1.2c9.6-0.4,19.2-0.8,28.8-0.9c3,0,4.9-0.8,3.8-4.4
			c-1.1-3.2-0.6-6.6-0.4-9.9c0.7-9.4,4-12,15.3-12c23,0,46,0,68.9,0c0.9-0.5,1.8-0.9,2.3,0.6c-2.2,3.3-5.7,3-9,3
			c-21.8,0.1-43.6,0-65.3,0.1c-3.3,0-7-0.4-7.8,4.2c0.3,5.3,0.3,10.5,0.2,15.8c-0.1,4-2.1,6.2-6.2,6.2c-9.1,0.2-18.2,1.2-27.3,1.2
			c-22.6,0.1-45.2,1.3-67.8,1.1c-4.7-0.1-9.5,0.6-12.4,5.4c-1.3,1.9-3.6,3-5.9,2.8c-22.3,0-44.6,0.3-66.9-0.2
			c-0.4,0-0.7-0.1-1.1-0.2c-5.2-4.3-11.1-4.1-17.4-3.2c-8.5,1.1-17,2-25.6,2.7c-7.7,0.6-11,4.6-9.5,11.7c0.8,3.6,2.7,6.2,6.6,6.3
			c11.7,0.4,23.4,2,35.1,2.2c1.6,0,3.3,0.4,4.7-0.4c7.1-3.8,14.8-2.7,22.2-2.8c16.2-0.1,32.3,0,48.5-0.1c4.5,0,8.1,0.9,10.8,5
			c3,4.6,8.3,4.3,12.9,4.4c6.2,0,11.9,0.4,16.2,5.6c1.2,1.5,3.3,1.7,5.3,2c13.2,1.9,26.5,2.7,39.7,4.2c15.8,1.7,31.6,3.2,47.5,4.9
			c10.8,1.2,21.6,2,32.3,3.5c4.2,0.6,5.9,2.7,4.8,6.9c-0.5,3.3-2.6,5.6-4.8,7.8c-1.3,0.9-2.5,2.2-4.4,1.5c-0.5-0.7-0.4-1.6,0.2-2.2
			c1.3-2.2,2.6-4.4,4-6.5c0.9-1.3,1.9-2.5,0.2-4c-2.7-1.4-5.8,0.3-8.4-1.1h-2.1c-2.7-1.5-5.8,0.3-8.4-1.1h-2.1
			c-2.7-1.5-5.8,0.3-8.4-1.1h-1.1c-3-1.5-6.4,0.3-9.5-1.1l0,0c-3-1.4-6.4,0.3-9.5-1.1h-2.1c-2.7-1.5-5.8,0.3-8.4-1.1H261
			c-3-1.4-6.4,0.3-9.5-1.1h-2.1c-2.7-1.5-5.8,0.3-8.4-1.1h-1.1c-3-1.4-6.4,0.3-9.5-1.1h-2.1c-2.7-1.5-5.8,0.3-8.4-1.1h-1.1
			c-3-1.4-6.4,0.3-9.5-1.1h-2.1C205,338.9,202.3,340.7,199.9,339.3z"/>
		<path class="st1" d="M362.3,262.4h-2.1c3.1-2.7,7-2.9,10.8-3.2c5.9-0.4,11.8-0.8,17.5-3c7.9-3.1,15.9-0.4,23.8,0.2
			c11.6,0.9,23.2,2.5,34.8,3.8c5.4,0.6,10.7,1.2,16,2.2c4.2,0.8,6.2,3.8,6.9,8.2c0.7,5.3,0.7,10.7-0.1,16.1
			c-0.6,5.5-5.3,7.3-9.7,10.4c5.3,1.9,8.7,5,10.5,9.8c0.4,1.2,1.7,1.9,3,1.7c5.9-0.3,11.8,0.2,17.8-0.5c9.8-1.1,19.6-1.1,29.4-0.1
			c13.5,1.3,27,2.7,40.4,5.1c9.7,1.8,19.1-0.7,28.7-0.3c5.2,0.2,8.7,1.6,10.8,6.6c6.8,16.3,13.9,32.5,20.5,48.8
			c3.2,7.9-0.3,12.3-11.1,15.4c-0.4-0.4-0.5-0.9-0.5-1.4c1.6-2.9,5.6-2.6,7.3-5.5c2.3-2.4,2.1-5.1,1-7.8
			c-6.2-15.4-12.9-30.7-19.2-46.1c-1.9-4.6-5-6.9-10.1-6.3c-19.5,2.3-38.7-1.7-58-3.7c-14.4-2.6-28.9-1.9-43.3-1.1
			c-3.1,0.7-6.3,0.2-9.4,0.5c-5.3,0.4-9.2-1.1-11.6-6.1c-1-2.1-3-3.4-5-4.4c-1.4-1.1-3.2-1.1-4.8-1.7c-1.1-0.5-2.3-1-2.4-2.4
			c-0.1-1.4,1-2.1,2.1-2.6c1.4-0.7,2.9-1.1,4.2-1.8c2.7-1.8,4.9-4.2,6.5-7c1.1-5,0.4-10,0.4-14.9c0.1-2-1.1-3.8-3-4.4
			c-1-0.4-2-0.9-2.9-1.5c-7.1-2.6-14.8-2.4-22.3-2.9c-0.6-0.1-1.1-0.2-1.7-0.4c-13.3-1.8-26.7-2.6-40-4.5c-1.6-0.2-3.2,0-4.6,0.6
			c-8.7,3.7-18.2,3-27.3,4.7C364.2,263.3,363.1,263.1,362.3,262.4z"/>
		<path class="st1" d="M609.9,382.5v1.1l-1.4,0.7c-11.6,5.8-16,4.7-23.7-5.5c-2.9-3.9-6.6-7.3-9.3-11.3c-4.7-6.8-11.3-6.6-18.2-5.9
			c-9.9,1.1-19.7,1.9-29.6,3c-13.2,1.4-26.5,0.8-39.8,1.1c-5.4,0.1-10.5,2.6-16,2c-0.4-0.4-0.4-1-0.2-1.5c1.3-1.7,3.2-1.8,5.1-2
			c0.5-0.1,1.1-0.1,1.6-0.1c1.8-0.5,3.7-0.8,5.6-0.9c2.3,0.1,4.6-0.2,6.8-0.9c8.5-0.5,17.1-0.1,25.6-0.3c3-0.1,6,0.4,8.9-0.5
			c1.1-0.3,2.3-0.4,3.5-0.4c3.1-0.2,6.2,0.4,9.3-0.6c1.1-0.3,2.2-0.4,3.4-0.4c2.8-0.1,5.6,0.3,8.3-0.6c1.1-0.3,2.2-0.4,3.4-0.4
			c3.3-0.2,6.7,0.4,10-0.5c0.8-0.2,1.6-0.4,2.5-0.4c1.4-0.1,2.7,0.1,4,0.5c7.2,5.1,12.2,12.3,18,18.8c1.2,1.3,2.3,2.6,3.4,3.9
			c3.3,3.7,7,4.7,11.7,2.5C604.8,382.7,607.1,380.9,609.9,382.5z"/>
		<path class="st1" d="M318,362.5c0,0.7,0,1.5,0,2.2c0.6,0.6,0.7,1.5,0.5,2.3c-2.3,4.3-5.4,8.1-7.9,12.3c-3.2,5.3-2.2,8.4,3.8,10.1
			c10.9,3.3,21.9,6,32.8,9.3c7.1,2.1,10.6-2.4,14-7.2c1.8-1.5,3.4-3.3,4.7-5.3c0.9-1.3,1.6-3.2,3.8-2.6c-2.6,7-7.4,12.6-12.3,18
			c-1.8,2-4.5,2.5-7.3,1.7c-12.6-3.6-25.3-6.9-37.9-10.6c-7.4-2.2-9.8-7.2-5.9-13.6C309.7,373.4,313.2,367.4,318,362.5z"/>
		<path class="st1" d="M369.6,383.6c-3.3,2-3.7,6.7-7.4,8.4c-1.5-2.1,0.2-3.7,1.2-5.2c4.7-7.2,9.5-14.3,14.3-21.5
			c2.6-4,6-5.4,10.8-4.4c9.9,2.2,19.8,4.8,29.5,7.6c1.7,0.5,4,0.9,3,3.8c-4.4,0-8.3-1.6-12.4-2.8c-2.8-0.8-5.7-1.2-8.4-1.8
			c-4.2-1.1-8.3-2.1-12.5-3.2c-4-0.9-6.6,1-8.6,4.2c-0.8,1.9-1.9,3.7-3.2,5.3C373.8,377.2,371.7,380.4,369.6,383.6z"/>
		<path class="st1" d="M400.2,367.8c7.5-0.7,13.9,3.7,21.1,4.1c3.4-1.9,6.4,0.3,9.5,1.1c2.7,1.2,5.7,1.2,8.4,0
			c8-2.4,15.7-6,24.2-6.7c2.8-0.4,5.8-1.9,8.4,0.6c0,0.3,0,0.7,0,1c-9.9,1.3-19.4,4.3-28.8,7.5c-5.3,1.8-11,1.8-16.3-0.1
			C418,372.3,408.8,371.3,400.2,367.8z"/>
		<path class="st1" d="M64,324.5c7.1,0.1,14.9,2.2,21.2,0c11.9-4.1,23.8-2.9,35.7-3.2c11.9-0.3,23.8-0.1,35.7,0
			c1.8,0,3.9-0.7,5.4,1.1c-17.3,0-34.7,0.2-52-0.1c-8,0-15.9,1.1-23.6,3.3C79.3,327.6,71.5,325.9,64,324.5z"/>
		<path class="st1" d="M41.9,322.4c7.4,1.3,14.9,0.2,22.1,2.1C56.6,324.2,49,325.8,41.9,322.4z"/>
		<path class="st1" d="M171.5,330.9c4.6,0.6,9.3-1.3,13.7,1.1C180.6,331.3,175.9,333.2,171.5,330.9z"/>
		<path class="st1" d="M272.6,346.7c3.2,0.4,6.5-1.1,9.5,1.1C279,347.3,275.6,348.7,272.6,346.7z"/>
		<path class="st1" d="M209.4,340.4c3.2,0.4,6.5-1.1,9.5,1.1C215.8,341,212.4,342.4,209.4,340.4z"/>
		<path class="st1" d="M230.5,342.5c3.2,0.4,6.5-1.1,9.5,1.1C236.8,343.1,233.5,344.5,230.5,342.5z"/>
		<path class="st1" d="M251.6,344.6c3.2,0.4,6.5-1.1,9.5,1.1C257.9,345.2,254.6,346.6,251.6,344.6z"/>
		<path class="st1" d="M282.2,347.7c3.2,0.5,6.5-1.1,9.5,1.1C288.5,348.3,285.1,349.8,282.2,347.7z"/>
		<path class="st1" d="M313.7,350.9c2.8,0.4,5.9-1.1,8.4,1.1C319.4,351.5,316.4,353,313.7,350.9z"/>
		<path class="st1" d="M303.2,349.9c2.8,0.4,5.9-1.1,8.4,1.1C308.9,350.5,305.8,351.9,303.2,349.9z"/>
		<path class="st1" d="M292.7,348.8c2.8,0.4,5.9-1.1,8.4,1.1C298.3,349.4,295.3,350.9,292.7,348.8z"/>
		<path class="st1" d="M262.1,345.6c2.8,0.5,5.8-1.1,8.4,1.1C267.8,346.2,264.7,347.7,262.1,345.6z"/>
		<path class="st1" d="M241.1,343.5c2.8,0.4,5.8-1.1,8.4,1.1C246.7,344.1,243.6,345.6,241.1,343.5z"/>
		<path class="st1" d="M220,341.4c2.8,0.5,5.8-1.1,8.4,1.1C225.6,342,222.6,343.5,220,341.4z"/>
		<path class="st1" d="M375.9,374.1c0.3-2.2,1.7-3.7,3.2-5.3C379.4,371.1,378.1,373.2,375.9,374.1z"/>
		<path class="st1" d="M199.9,339.3c2.5,0.4,5.2-1,7.4,1.1C204.9,340,202.2,341.3,199.9,339.3z"/>
		<path class="st1" d="M162,322.4c1.6-0.1,3,1.1,3.2,2.7c0,0.1,0,0.3,0,0.4C163.8,324.9,162.7,323.8,162,322.4z"/>
		<path class="st1" d="M325.4,356.2c1.6-4.3,0.7-6.2-4.4-6.6c-16.9-1.4-33.6-3.3-50.5-5.1c-19.2-2-38.5-4.2-57.7-6.1
			c-3.5-0.3-6.9-0.7-10.4-1.1c-3-0.1-5.8-1.5-7.7-3.8c-2-2.8-5.3-4.2-8.7-3.7c-4.4,0.4-8.7-0.4-13-1c-3.4-0.4-5.1-2.9-6.7-5.4
			c-1.3-2.1-3.6-3.4-6.1-3.2c-21.2,0.1-42.4-0.2-63.7,0.2c-6.4,0.1-12.4,3.9-19.4,3.2c-10.2-1.2-20.5-1.5-30.8-2.2
			c-4.9-0.4-6.8-3.8-7.5-8.1c-0.9-5.9,1.2-10.1,5.2-11.9s8-1.1,11.9-1.6c9.3-1.3,18.7-1.9,28.1-2.7c3.4-0.5,6.7,1.2,8.4,4.2
			c0.3,0.3,0.3,0.9,0,1.2c-0.1,0.1-0.1,0.1-0.2,0.1c-1.4,0.1-2.7-0.2-3.9-1c-1.8-1.1-3.9-1.6-6-1.3c-11.6,0.9-23.1,2.4-34.7,3.6
			c-1.7,0.1-3.4,0.9-4.6,2.2c-1.5,3.1-1.4,6.8,0.2,9.9c3,2.9,7,2.5,10.4,2.5c9.8,0.2,19.4,1.8,29.2,1.4c2.6,0,5.2-0.7,7.4-2.1
			c2.4-1.3,5.1-1.1,7.7-1.1c20,0,40,0.1,60-0.1c5.7-0.1,9.9,1.7,12.8,6.5c3.7,4,8.7,3.2,13.3,3.2s9.2,0.1,12.5,4.1
			c2.3,3.6,6.1,3.9,9.7,4.2c12.5,1.1,24.9,2.7,37.4,3.6c2.2,0.7,4.5,0.9,6.7,0.8c1.4,0,2.8,0.1,4.2,0.4c2.1,0.8,4.4,0.6,6.6,0.7
			c1.2,0,2.3,0.2,3.4,0.4c6.4,0.7,12.8,1.4,19.2,1.9c2.5,0.9,5,0.7,7.6,0.7c1.4,0,2.8,0.1,4.2,0.4c1.8,0.6,3.7,0.8,5.6,0.7
			c1.4,0,2.7,0.1,4.1,0.4c2.1,0.6,4.3,0.8,6.4,0.6c1.4,0,2.7,0.1,4.1,0.4c2.1,0.8,4.3,0.6,6.5,0.8c1.7,0.2,3.4,0.8,5,1.5
			C330.9,352.5,330.3,355.4,325.4,356.2z"/>
		<path class="st1" d="M92.4,302.5c0-0.4,0-0.8,0-1.2c22.5,0,45,0,67.4,0.1c2.2,0,4.5,0,5.6-2.1c2.8-5.8,8.1-5.9,13.4-6.3
			c2.8-0.2,5.6,0,8.4,0c24.4-0.4,48.7-0.6,73.1-1.2c5-0.1,10.1-1.1,15.2-0.9c1.7,0,3.4-0.7,3.3-2.6c-0.1-6.1,1.1-12.2-0.8-18.3
			c2.5-4,6-5.1,10.7-5c21.7,0.2,43.4,0.1,65.1,0.1c1.6,0,3.3,0.5,4.7-0.2c7.8-3.8,16.3-3.3,24.6-4.5c0.9,0,1.7-0.2,2.6-0.5
			c7.3-4,14.9-2.5,22.5-1.2c0.8,0.5,1.2,1.6,0.8,2.5c-3,2.9-6.2,1.1-9.3,0.4c-2.2-1-4.7-1.1-7-0.2c-6.2,2.8-13,4-19.8,3.7
			c-3.7-0.1-7.3,0.8-10.6,2.5c-0.6,0.2-1.2,0.4-1.8,0.4c-22.2,0.3-44.4,0.1-66.5,0.2c-2.4-0.1-4.9,0-7.3,0.3
			c-0.6,0.2-1.1,0.4-1.7,0.6c-2.9,0.9-3.3,3.4-3.4,5.8c-0.3,3.8-0.2,7.6,0.5,11.4c0.9,3.7-0.3,6.5-4.2,7.7c-0.6,0.2-1.2,0.3-1.8,0.4
			c-7.7,0.2-15.4,0.1-23.1,0.1c-1.9-0.1-3.8,0.2-5.7,0.7c-5.2,0.6-10.4,0.2-15.7,0.3c-7.4,0.3-14.9-0.8-22.3,0.7
			c-6.4,0.7-12.9,0.2-19.4,0.3c-5.4,0.1-10.8-0.4-16.2,0.3c-0.5,0.2-1.1,0.4-1.6,0.6c-2.1,0.3-3,2.2-4.2,3.6c-2,2.3-4.3,4-7.6,4
			c-16.6,0.1-33.2,0-49.8,0.1c-4.4,0-8.7,0.1-13.1-0.1C95.5,304.8,93.1,305.4,92.4,302.5z"/>
		<path class="st1" d="M408.6,259.2c-3.3-0.3-6.6-0.5-9.8-1.1c-7.2-1.2-13.5,2.7-20.4,3.7c-16.4,2.3-32.7,4.5-49.3,3.8
			c-12.4-0.5-24.9,0.1-37.3-0.2c-5.3-0.1-10,0.5-13.7,4.5c1.2-4.6,4.7-5.5,8.9-5.5c22.3,0.1,44.6,0,66.9,0c3,0,5.9-0.1,8.4-2.1
			c6.8-2.9,14.4-0.7,21.1-3.3c12.6-4.9,25-1.2,37.5-0.1c5.8,0.5,11.7,0.3,17.4,2.3c-2.9,2.4-6.3,1.6-9.5,1.1
			c-2.9-0.5-5.8-0.6-8.8-0.8c-0.6,0-1.2-0.1-1.8-0.3C415.1,259.9,411.4,261.7,408.6,259.2z"/>
		<path class="st1" d="M325.4,356.2c3.6-2,4.5-4.4,1-7.4c-0.3-0.4-0.3-1,0.1-1.4c0,0,0.1,0,0.1-0.1c4.6-1.2,4.9,2.2,5.6,5.3
			c-0.2,3.4-2.7,5.5-4.2,8.2c-4.9,6.3-8.9,13.2-13.5,19.7c-1.2,1.7-2,4.4-5.1,3.3c-1.4-2.1,0.2-3.6,1.2-5.2c2.5-4,5.3-7.8,7.8-11.8
			c0.4-1.8,1.9-2.9,2.8-4.3C322.4,360.3,325,359,325.4,356.2z"/>
		<path class="st1" d="M321.2,362.6c0.1,1.8-1.5,2.7-2.1,4.2c-0.2,0.3-0.7,0.4-1,0.1c-0.1,0-0.1-0.1-0.1-0.1c0-0.7,0.1-1.4,0.1-2
			L321.2,362.6z"/>
		<path class="st1" d="M419.1,260.3c6.4-0.5,12.6,1.7,19,1.1l0,0c8.1,1.1,16.3,1.1,24.2,3.2c0.4,0.7,1.3,1.1,2.1,1.1
			c2.6,1.6,4.1,4.5,3.7,7.6c-0.3,4.8,0.6,9.7-0.5,14.5c-2,2.3-3.6,4.8-6.3,6.3c-3.2,1.1-6.6,1.5-9.8,3.3c2.8,2.8,6.6,2.1,9.8,3
			c2.8,1.2,5.3,2.8,6.5,5.8c1.5,3.8,4.2,5.2,8.3,4.8c3.5-0.3,7-0.1,10.5-0.1c5.4-1.1,10.9-0.3,16.4-0.4c1.2,2.8-1.3,2.8-2.6,2.7
			c-8.7-0.2-17.3,1.2-26,1.2c-3.6,0.1-6.9-1.8-8.5-5c-0.8-1.5-1.5-3.2-3.2-4.1c-1.3-0.3-2.6-0.8-3.8-1.4c-1.9-1.5-4.2-1-6.4-1.4
			c-0.5-0.1-1-0.2-1.5-0.3c-2.3-0.6-4.8-0.5-7.1-1.5c-1.3-0.6-2.6-1.2-2.7-2.8s1.2-2.3,2.5-2.9c1.6-0.6,3.3-1.1,5-1.5
			c0.5-0.2,1-0.3,1.5-0.4c1.9-0.4,3.9-0.2,5.8-0.9c4-0.8,6.6-3.4,8.7-6.8c0.9-4.3,0.9-8.8,0.1-13.1c-0.6-1-1.3-2-2.2-2.8
			c-0.8-0.7-1.7-1.2-2.5-1.8c-9.6-2.6-19.5-2.5-29.3-3.7c-3.8-0.5-7.6-0.7-11.2-2C419,261.5,418.8,260.8,419.1,260.3z"/>
		<path class="st1" d="M530.9,311.9c11.5-0.1,22.9,2.2,34.2,3.7c7.6,1.1,14.9-0.9,22.4-0.8c6.7,0,10.4,2.3,12.8,8.2
			c6.2,15.4,12.6,30.6,19.1,45.9c1.5,3.7,0.9,6.7-2.1,9.4c-0.6,0.5-1.4,0.6-2.1,0.3c-0.6-1.1-0.1-1.9,0.4-2.7c1.3-1.3,1.7-3.2,1.2-5
			c-0.1-0.4-0.3-0.9-0.4-1.3c-0.4-1.5-0.9-3-1.7-4.3c-0.2-0.4-0.4-0.8-0.5-1.3c-0.7-2.2-1.7-4.4-3-6.3c-0.7-1-1.1-2.1-1.3-3.3
			c-0.2-2.6-1.4-4.8-2.6-7c-0.2-0.4-0.4-0.9-0.6-1.3c-1.6-4-2.8-8.1-5.3-11.7c-2.2-3.4-3.2-7.4-5.2-10.8c-1.1-1.8-1.9-3.7-3.9-4.8
			c-5.3-2.5-10.8-0.3-15.9,0.2c-9,0.9-17.7-1.1-26.4-1.9c-6.2-0.6-12.5-0.6-18.5-2.8c-0.5-0.4-0.9-0.8-1.1-1.4
			C530.7,312.5,530.8,312.2,530.9,311.9z"/>
		<path class="st1" d="M615.2,378.3h2.1c-1.9,2.4-5.2,2.3-7.4,4.2c-2,0.7-4,1.2-6,2c-7.6,3.2-9,3-14.7-3.2
			c-6.6-7.2-13-14.6-19.5-21.9c2.3-1.9,3.9-0.3,5.6,1.1c4.6,4.5,8.4,9.7,12.9,14.4c0.3,0.4,0.5,0.9,0.7,1.3
			c4.7,7.4,7.2,8.1,15.4,5.1C607.9,380,611.1,377.2,615.2,378.3z"/>
		<path class="st1" d="M503.5,310.9h-16.9c0.3-0.2,0.5-0.6,0.8-0.6c12-0.5,24-1.5,36,0.2c2.5,0.4,5.4-0.6,7.5,1.5l0,0
			c-2,1.8-4.5,1.4-6.9,1.3c-0.6,0-1.2-0.2-1.7-0.3c-2.9-1-5.8-0.5-8.8-0.6C510.1,311.9,506.5,313.3,503.5,310.9z"/>
		<path class="st1" d="M461.3,300.3c-3.7,0.4-7.2-0.6-10.7-1.1c-1.1-0.2-2.2-0.3-2.2-1.6c0-1,1.1-1.3,1.9-1.5
			c3.6-1.1,7.3-1.8,11.1-2.1c-1.7,2-4.9,1.2-6.6,3.3C456.1,300.3,459.6,298.2,461.3,300.3z"/>
		<path class="st1" d="M462.4,264.5c-8.1-1.2-16.3-1.1-24.2-3.2C446.4,261.3,454.6,261.3,462.4,264.5z"/>
		<path class="st1" d="M467.6,287.6c0-4-0.2-8,0.1-12c0.4-3.7-0.8-7.3-3.2-10.1c1.8-0.1,3.4,1.3,3.6,3.2
			C468.8,275,469.7,281.4,467.6,287.6z"/>
		<path class="st1" d="M575.1,361.4c-1.7-0.9-3-2.6-5.3-2l-4.1-0.1c-3.2-0.3-6.4-0.1-9.6,0.4c-1.1,0.1-2.2,0.2-3.3,0.1
			c-3.1,0.1-6.1,0.5-9.1,0.9c-0.8,0.2-1.7,0.2-2.5,0.2c-3.1,0.1-6.1,0.5-9.2,0.9c-1.1,0.2-2.3,0.2-3.4,0.2c-3.2,0.2-6.3,0.5-9.5,0.9
			c-0.9,0.1-1.8,0.1-2.7,0.1c-10.2,0.2-20.4-0.6-30.6,0.6c-0.5,0.1-1.1,0.2-1.7,0.4c-2.1,0.1-4.3-0.2-6,1.6h-1
			c-4.7-0.7-9.5,0.1-13.8,2.1c-8.5,0.4-16,4.6-24.2,6.4c-2.8,0.7-5.7,0.7-8.4,0l-9.4-2.2c-3.6-3.7-8.7-3.2-13-4.6
			c-6.9-2.3-14.2-3.3-21.3-5.3c-2.8-0.8-5.2-0.1-6.5,1.9c-6.2,9.2-13.1,18.1-18.2,28c-4.7,8.8-11.3,9.8-20.3,6.7
			c-9.2-3.3-18.8-5.2-28.2-7.9c-6.9-1.9-8.4-6.1-4.3-12.2c2.7-4,4.9-8.4,8.5-11.9h1.1c-1.5,4.5-4.8,7.8-7.2,11.7
			c-0.9,1.6-2.2,3.1-2.4,5c0.8,0.7,1.8,1.2,2.4,2.1c1.6,1.9,3.9,2.3,6,2.9c9.3,2.6,18.6,5.1,27.9,7.6c6.2,1.7,7.8,1.2,11.7-3.8
			c6.7-8.8,12.5-18.2,18.6-27.4c3.3-4.9,7.2-6.5,12.9-5.3c12.9,2.7,25.5,6.4,38.2,9.7c5.4,1.6,11.2,1.4,16.5-0.5
			c10.2-3.7,20.9-6.1,31.7-7.1c0.5-0.2,1-0.3,1.6-0.3c1.9-0.1,3.7-0.3,5.5-0.8c0.8-0.2,1.6-0.4,2.5-0.4c2.3,0,4.6-0.3,6.9-0.9
			c8.6-0.5,17.1-0.1,25.7-0.2c3-0.1,6,0.4,9-0.6c1.7-0.3,3.5-0.5,5.3-0.4c2.5,0,5.1,0.3,7.6-0.6c1.7-0.3,3.4-0.5,5.1-0.4
			c2.5,0,5,0.2,7.5-0.6c1.4-0.3,2.8-0.4,4.2-0.4c2.5,0,5,0.2,7.4-0.6c4.9-0.7,9.3-0.1,12.1,4.6C575.7,360.5,575.5,361,575.1,361.4z"
			/>
		<path class="st1" d="M484.5,363.5c2.5-2,5.4-0.9,8.1-1.1c8.2-0.2,16.4,0,24.6,0c0.3,0.2,0.5,0.5,0.3,0.7c-0.1,0.2-0.2,0.4-0.3,0.4
			h-27.4C488.1,364.3,486.1,364.3,484.5,363.5z"/>
		<path class="st1" d="M463.4,367.7c3.9-3.1,9.2-3.9,13.8-2.1c-1.8,0-3.7,0.1-5.3,1.2C468.9,366.4,466.2,367,463.4,367.7z"/>
		<path class="st1" d="M553,359.3h3.2c2.4-0.8,5-0.8,7.4,0c-3.4,2.1-7.1,0.6-10.5,1.1c-0.3-0.2-0.5-0.5-0.3-0.7
			C552.8,359.4,552.9,359.3,553,359.3z"/>
		<path class="st1" d="M528.8,361.4h3.2c2.1-0.8,4.3-0.8,6.4,0c-3,2-6.3,0.6-9.5,1.1c-0.3-0.2-0.5-0.5-0.3-0.7
			S528.6,361.4,528.8,361.4z"/>
		<path class="st1" d="M528.8,361.4v1.1h-3.2c-2.1,0.8-4.3,0.8-6.4,0C522.2,360.5,525.6,361.8,528.8,361.4z"/>
		<path class="st1" d="M538.3,361.5h-6.4c3-2,6.3-0.6,9.5-1.1c0.3,0.2,0.5,0.5,0.3,0.7c-0.1,0.2-0.2,0.3-0.3,0.3H538.3z"/>
		<path class="st1" d="M553,359.3v1.1h-3.2c-2.1,0.8-4.3,0.8-6.4,0C546.5,358.4,549.8,359.7,553,359.3z"/>
		<path class="st1" d="M563.6,359.3h-7.4c3-1.6,6.6-1.6,9.6,0H563.6z"/>
		<path class="st1" d="M543.5,360.4h6.4c-2.6,2-5.6,0.6-8.4,1.1v-1.1H543.5z"/>
		<path class="st1" d="M519.2,362.5h6.4c-2.6,2-5.6,0.6-8.4,1.1v-1.1H519.2z"/>
		<path class="st1" d="M478.1,365.6c0.8-3.2,3.4-1.7,5.3-2.1c0.3,0.2,0.5,0.5,0.3,0.7c-0.1,0.2-0.2,0.4-0.3,0.4L478.1,365.6z"/>
		<path class="st1" d="M483.4,364.6v-1.1c0.3,0,0.7,0,1.1,0h5.3C487.9,365.4,485.6,364.3,483.4,364.6z"/>
		<path class="st1" d="M430.7,374.1h8.4C436.6,375.7,433.3,375.7,430.7,374.1z"/>
		<path class="st1" d="M170.4,324.5c-3.8-6.3-9.6-6.6-16.2-6.5c-19.1,0.3-38.2,0.1-57.2,0.1c-2.3,0-4.6-0.2-6.6,1.1
			c-0.7,0.6-1.7,0.6-2.4-0.1c-0.1-0.1-0.1-0.2-0.2-0.3c-0.5-1.4-0.5-2.6,0.9-3.5c1.6-0.7,3.4-1,5.1-0.8c22.6,0,45.2-0.1,67.9,0
			c6.9,0,9.1,2.3,9.3,9C170.8,324,170.6,324.3,170.4,324.5z"/>
		<path class="st1" d="M264.2,341.4H261c-2-1.3-4.4,0.2-6.3-1.1h-4.2c-2-1.3-4.4,0.2-6.3-1.1c-14.5-0.6-28.8-2.3-43.2-4.2
			c-2.4-0.3-4.9-1.1-5.3-4.2c0.5-1.1,1.2-1.6,2.4-1.1c1.3,1.7,3.3,2,5.3,2.1c8,1.2,16.1,1.7,24.1,2.8c2.4,0.1,4.8,0,7.2,0.2
			c8.3,0.9,16.5,2.9,24.9,3c1.8,0.1,3.6,0.4,5.4,0.9c2.6,0.5,5.7-0.7,7.9,1.7C270.2,343.2,267.2,341.7,264.2,341.4z"/>
		<path class="st1" d="M162,303.6c2.9-0.4,4.4-2.8,6-4.8c1-1.3,1.7-2.7,3.6-2.7c0.4,0.5,0.6,1.2,0.5,1.9c-3.8,9.1-3.8,9.1-13.4,9.1
			c-20.8-0.1-41.6,0.3-62.5-0.2c-2.9-0.8-6-1.2-7.1-4.7l0.3-0.9l3.2,1.2c5.9,2.2,12,0.4,17.9,1.1c5.9,1.1,11.8,0.5,17.7,0.4
			C139.4,303.9,150.7,304.6,162,303.6z"/>
		<path class="st1" d="M88.2,319.3h2.1c-1.5,1.8-3.5,2.1-5.7,2.1c-12.9,0.1-25.8-1.1-38.6-2.2c-1.9-0.2-3.9-0.7-4.2-3.2l0.7-0.4
			c0.6-0.1,1.1-0.1,1.7,0c5.4-0.3,10.6,1.6,16.1,1.1c3.1,0,6.1,0,9.2,0c4.4,0.9,8.9,1.2,13.4,1.1C84.8,317.8,86.7,317.8,88.2,319.3z
			"/>
		<path class="st1" d="M41.9,305.6c3.7-5.3,9.7-3,14.6-4c8.5-1.6,17.3-1.8,26-2.7c2.8-0.3,5.2-0.1,6.9,2.4l-0.1,0.1
			c-0.4,0.4-1,0.6-1.5,0.7c-7.9,0.5-15.8,1.3-23.6,2.5c-1.7,0.3-3.4,0.2-5.1,0.4c-3,0.7-6.1,1-9.2,0.9c-2.2,0-4.3,0.1-6.5,0.3
			l-0.8-0.2C42.3,305.9,42.1,305.7,41.9,305.6z"/>
		<path class="st1" d="M264.2,341.4c2.8-0.5,5.8,0.9,8.4-1c4.9-2.8,9.8-0.5,14.6,0.1c7.9,0.9,15.8,1.7,23.8,2.6
			c2.4-0.1,4.6,1.1,7,1.1c2.9,0.3,6-0.6,8.4,1.9c0.4,0.5,0.4,1.2,0,1.7v1.1l-4.2-1.1c-2-1.3-4.4,0.2-6.3-1.1h-4.2
			c-2-1.3-4.4,0.2-6.3-1.1h-4.2c-1.6-1.3-3.7,0.2-5.3-1.1h-4.2c-2.3-1.4-5.1,0.3-7.4-1.1C277.5,343.6,270.8,342.9,264.2,341.4z"/>
		<path class="st1" d="M197.7,329.8l-2,1.1c-4.4-4.4-10.1-3-15.4-3.2c-3.6-0.1-7.4,0.4-9.9-3.2l0,0c5-1.2,10.1,0,15.2-0.4
			c3.2,0.1,6.3-0.3,9.5,0.2C198.5,324.9,199.7,326.6,197.7,329.8z"/>
		<path class="st1" d="M41.9,316.1c-1.6-3.3-1.6-7.2,0-10.5l0,0C44,308.8,44,312.9,41.9,316.1z"/>
		<path class="st1" d="M284.2,343.5c2.5,0.4,5.2-1,7.4,1.1C289.2,344.2,286.5,345.5,284.2,343.5z"/>
		<path class="st1" d="M315.8,346.7c2.1,0.3,4.5-0.9,6.3,1.1C320.1,347.4,317.7,348.5,315.8,346.7z"/>
		<path class="st1" d="M305.3,345.7c2.1,0.3,4.5-0.9,6.3,1.1C309.5,346.4,307.2,347.5,305.3,345.7z"/>
		<path class="st1" d="M254.7,340.4c2.1,0.3,4.5-0.9,6.3,1.1C258.9,341.1,256.6,342.2,254.7,340.4z"/>
		<path class="st1" d="M244.2,339.3c2.1,0.3,4.5-0.9,6.3,1.1C248.4,340.1,246.1,341.1,244.2,339.3z"/>
		<path class="st1" d="M295.8,344.6c1.8,0.2,3.8-0.7,5.3,1.1C299.3,345.4,297.3,346.2,295.8,344.6z"/>
		<path class="st1" d="M461.4,267.6c0.8-0.1,1.6,0.4,2,1.1c-0.4,0.5-0.9,0.8-1.5,1.1c-8.9,0.5-17.6-1.6-26.4-2.4
			c-1.2-0.1-2.4-0.3-3.6-0.4c-2.1-0.1-4.2,0-6.4-0.3c-10.1-1.7-20.3-2.3-30.5-3.6c-1.4-0.1-2.8,0.3-3.9,1.1c-3.8,2.1-8.2,3-12.6,2.6
			c-4.5-0.2-8.9,1.4-13.4,1.3c-1.2,0-2.2-0.7-2.8-1.7c3.6-2.9,8.1-3.4,12.3-2.9c6.5,0.7,12.2-2,18.2-3.4c2.1-0.8,4.3-0.8,6.4,0
			c3.2,0.3,6.2,1.6,9.5,1c0.5-0.4,1-0.6,1.5-0.8c1.5-0.2,3-0.2,4.4,0.2c11.4,2.7,23.2,3,34.8,4.5C453.5,265.6,457.8,265,461.4,267.6
			z"/>
		<path class="st1" d="M171.5,297.2c0-0.4,0-0.7,0-1.1c0.3,0,0.7,0,1.1,0c5.6-1.4,11.3,0.5,16.9-1.1h20c5.5-1.1,11-0.2,16.6-0.5
			c1.9-0.1,3.8,0.5,5.6-0.5h15.8c7.8-1.1,15.6-0.2,23.4-0.5c2.1-0.1,4.2,0.5,6.1-0.5h1.1c1.1-0.6,2.4-0.7,3.5-0.2
			c1,1.1,1.6,2.1,0,3.1c-8.3,1.4-16.7,0.3-25.1,0.7c-3.2,0-6.3-0.4-9.3,0.7c-4.5,0.6-9,0.2-13.5,0.3c-6.2,0-12.4,0-18.5,0
			c-6,0.2-12.1-0.7-18.1,0.6c-2.3,0.3-4.5,0.5-6.8,0.4c-4.4,0-8.8,0-13.1,0C175,298.5,173,298.8,171.5,297.2z"/>
		<path class="st1" d="M281.1,292.9H278c3.4-1.4,3.6-4,2.8-7.2c-1.1-4.5-1.1-9.3-0.1-13.8c0.4-2,0.8-4.2,3.7-4.3
			c0.4,0.4,0.5,1,0.3,1.6c-1.9,4.8-0.8,9.8-0.9,14.8c0,1.2,0.9,1.8,2,2c23.7,0.3,47.3,0,71,0.1c2.6,0,5.3-0.6,7.6,1.3
			c-1.1,3.8-4.3,2.8-6.8,2.9c-17.8,0-35.6,0.3-53.4-0.1c-0.7,0-1.4,0-2.1,0c-3.6,0.2-7.2-0.1-10.8,0c-3,0.1-6.6-1.3-8.2,2.9
			C282.8,293.7,281.7,293.3,281.1,292.9z"/>
		<path class="st1" d="M284.3,268.7c0-0.3,0-0.7,0-1.1c0.3,0,0.7,0,1.1,0c1.8-0.9,3.8-0.5,5.7-0.5c21.9,0,43.7,0,65.6-0.1
			c1.9,0,3.8,0.5,5.7-0.5l0,0c0.9-0.1,1.8,0.4,2.2,1.2c0.2,0.7-0.1,1.4-0.8,1.7c-2.2,1-4.5,0.7-6.7,0.7c-21.7,0-43.5,0-65.2,0
			C289.2,270.1,286.4,270.8,284.3,268.7z"/>
		<path class="st1" d="M362.2,266.6c-1.4,1.6-3.2,1.1-4.9,1.1c-24,0-48,0-72,0c1.8-1.7,4-1,6-1C315,266.6,338.6,266.6,362.2,266.6z"
			/>
		<path class="st1" d="M162,303.6c-1.1,1.2-2.5,1-3.9,1h-43.8c-1.4,0-2.8,0.3-3.9-1.1C127.6,303.5,144.8,303.5,162,303.6z"/>
		<path class="st1" d="M276.9,292.9c-2.8,2.1-6.1,0.9-9.1,1c-6.8,0.2-13.6,0-20.4,0c3.6-2.1,7.5-0.8,11.2-0.9
			C264.7,292.8,270.8,292.9,276.9,292.9z"/>
		<path class="st1" d="M231.6,294c-5.3,2.3-11,0.5-16.4,1.1c-1.9,0.2-3.8,0-5.8,0C216.7,292.8,224.2,294.6,231.6,294z"/>
		<path class="st1" d="M189.4,295c-5.5,2.2-11.3,0.5-16.9,1.1C178,293.9,183.8,295.6,189.4,295z"/>
		<path class="st1" d="M409.6,261.2h-0.9c0-0.7-0.1-1.3-0.1-2c3.2,0.4,6.5-1.1,9.5,1.1C415.5,262.6,412.3,259.5,409.6,261.2z"/>
		<path class="st1" d="M399.2,260.2h-6.4C394.6,258.7,397.3,258.7,399.2,260.2z"/>
		<path class="st1" d="M409.6,261.2c2.6-1.9,5.7-0.5,8.4-0.9h1.1c0,0.3,0,0.7,0,1.1c-1.7,0.8-3.6,0.8-5.3,0L409.6,261.2z"/>
		<path class="st1" d="M326.5,346.8c-2.6-1.9-5.6-1-8.5-1.4c-0.2-1.2,0.6-2.5,1.8-2.7c8.8,0.8,17.7,0.3,26.2,3.2
			c0.6,0.4,0.8,1.2,0.4,1.8c-0.1,0.1-0.2,0.2-0.3,0.3c-7.5-0.3-11.7,4.2-14.9,10.3c-0.6,1.3-1.9,2.2-3.3,2.3l-0.6-0.4l4.2-7.4
			c0-2.5,1.4-4.2,3.8-6.5C331.8,349,329.2,346.9,326.5,346.8z"/>
		<path class="st1" d="M310.6,385.7l-1.1-2.2c2.5-0.3,3-2.6,4.2-4.2c4.7-6.2,8.1-13.3,13.6-19l0.3,0.2c1.2,2.2-0.5,3.6-1.4,5.1
			c-3.3,5.1-6.7,10.1-10.1,15.2c-2.3,2.4,0.4,3.6,1.2,5.3c-0.1,0.5-0.4,1-0.8,1.2C314.1,388.3,312.3,387.1,310.6,385.7z"/>
		<path class="st1" d="M326.5,346.8h8.5c-0.4,2.6-2.2,4.2-3.5,6c-1.3-2.1-0.9-5.9-5.1-5.1C326.4,347.4,326.4,347.1,326.5,346.8z"/>
		<path class="st1" d="M522.4,311.9c0.3,0,0.7,0,1.1,0c2.3,1.4,5.1-0.3,7.4,1.1c10.9,1.4,21.8,2.7,32.7,4.2c8,1.1,15.9,0.1,23.9-1
			c2.5-0.3,4.9-0.2,6.7,2c-2.4,2.2-5.3,1.3-8,1.5c-3.3,0.2-6.6-0.4-9.9,0.7c-9.9,1.3-19.6-1.7-29.4-2.1c-19.6-2.9-39.1-5.5-59-3
			c-5.2,0.7-10.5,0.2-15.8,0.1c-5.5-0.1-7-4.5-9.1-8.4c-0.6-1.1-1.2-2.3-0.6-3.6c3,0.1,3.4,2.7,4.4,4.6c1.1,2.4,2.6,4.6,5.3,4.6
			c10.6,0.2,21.1-0.5,31.6-1.8H514C516.7,312.3,519.7,310.5,522.4,311.9z"/>
		<path class="st1" d="M462.4,303.5l1.1,2.1c0.5,0.6,0.4,1-0.3,1.4c-5-0.9-10.1-1-15.1-2c-4.8-0.5-9.7-0.3-14.2-2.7
			c0-2,1.3-1.5,2.6-1.1c-0.4-0.8-0.9-0.3-1.3-0.4c-2.1-0.3-4.6-0.6-4.4-3.2c0.2-2.4,2.5-2.9,4.7-3.2c0.4,0,0.8,0.3,1.1-0.1
			c-0.5-0.2-0.7-0.7-0.6-1.2c3.4-2.6,7.6-1.8,11.3-2.8c3.2-0.9,6.5-0.9,9.7-1.9c3.4-1.1,5.2-2.9,5.1-6.8c-0.1-4.3-0.6-8.7,0.2-13
			l1.2-0.1l2.1,2.1c0.8,5.2,0.8,10.5,0,15.7c-2.5,3.1-4.7,6.5-9.4,6.4c-2,1.2-4.4-0.4-6.4,1.1l0,0c-2.4,0.8-5.1,0.5-7.5,1.7
			c-0.9,0.5-2.1,0.9-2.1,2c-0.1,1.3,1.3,1.4,2.2,1.9c3,1.7,6.4,0.7,9.5,1.7l0,0c2.3,1.5,5.1-0.3,7.4,1.1
			C460,303.6,461.2,303.4,462.4,303.5z"/>
		<path class="st1" d="M413.9,261.3h5.3c13.1,1.4,26.1,2.8,39.2,4.2c1.5,0.2,2.8,0.3,3.1,2.1c-7.9-2.1-16.1-1.9-24.1-3.2
			C429.5,263.3,421.6,263.4,413.9,261.3z"/>
		<path class="st1" d="M451.8,301.4c-3.6,0.2-7.3-0.1-10.8-1.1c-1.4-0.4-2.9-0.9-3.2-2.3c-0.4-1.9,1.6-2,2.7-2.5
			c2.9-1.3,6-1.8,9.1-1.5c-0.7,1-1.9,0.7-2.7,1.2c-1.7,0.9-5,0.2-4.8,2.7c0.2,2,3.3,1.8,5.3,2.3C449,300.6,450.7,299.9,451.8,301.4z
			"/>
		<path class="st1" d="M465.5,286.6v-15.7C467.2,275.9,467.2,281.5,465.5,286.6z"/>
		<path class="st1" d="M459.2,302.4c-2.4-0.4-5.2,1-7.4-1.1C454.3,301.7,457,300.4,459.2,302.4z"/>
		<path class="st1" d="M449.7,294c1.9-1.9,4.2-0.8,6.4-1.1C454.2,294.7,451.9,293.7,449.7,294z"/>
		<path class="st1" d="M576.2,319.3c5.9-2.2,12-0.5,17.9-1.1c4.7,4.2,5.5,10.6,8.4,15.8c1.9,4.2,3.4,8.5,5.3,12.6l0,0
			c1,2.5,2.1,4.9,3.2,7.4c0.4,1.1,0.7,2.1,1.1,3.2c1,2.5,2.1,4.9,3.2,7.4l0,0c0.9,1.7,1.1,3.6,2.1,5.3l0,0c0.7,1.6,1.2,3.2-0.6,4.5
			c-0.8-0.1-1.6-0.5-2.2-1.1c-6.6-14.1-12.2-28.7-18.4-43c-0.3-0.8-0.6-1.6-1-2.4c-2.9-6.6-2.9-6.6-10.1-6.2c-1.2,0.1-2.5,0-3.7-0.3
			C579.7,320.6,577.5,320.9,576.2,319.3z"/>
		<path class="st1" d="M615.2,378.3c-3.9,1.6-7.7,3.2-11.6,4.7c-7.4,3-12.2,0.9-15.8-6.8c2.7-0.6,3.8,1.8,5.4,3.2
			c1.9,1.5,3.6,3.4,6.3,2.1c5.6-1.4,10.3-5.1,16.2-5.7l0.6,0.5C615.9,376.9,615.5,377.6,615.2,378.3z"/>
		<path class="st1" d="M607.8,346.7c-2.7-3.7-4.5-8.1-5.3-12.6C605.3,337.8,607.1,342.1,607.8,346.7z"/>
		<path class="st1" d="M610.9,354.1c-2-2-3.1-4.6-3.2-7.4C609.8,348.6,610.9,351.3,610.9,354.1z"/>
		<path class="st1" d="M615.2,364.6c-2-1.9-3.1-4.6-3.2-7.4C614,359.2,615.1,361.8,615.2,364.6z"/>
		<path class="st1" d="M616.2,374.1c1.5-1.1,0.9-2.8,1.1-4.2c1.8,2.5,1.6,4.6-1.1,6.3l-0.1-0.1C615.6,375.6,615.6,374.7,616.2,374.1
			C616.2,374.1,616.2,374.1,616.2,374.1z"/>
		<path class="st1" d="M530.9,313c-2.5-0.4-5.2,0.9-7.4-1.1h7.4C530.9,312.2,530.9,312.6,530.9,313z"/>
		<path class="st1" d="M617.3,369.9c-1.5-1.3-2.3-3.3-2.1-5.3C616.7,365.9,617.5,367.9,617.3,369.9z"/>
		<path class="st1" d="M599.4,382.5c-2.7,2.1-4.4-0.2-6.2-1.5s-3.6-3.2-5.4-4.8c0-0.3,0-0.6,0-1c-4-5.1-8.4-9.9-12.6-14.8
			c-3-3.8-7.1-4.5-11.6-4.2c-2.3,1.3-5.1-0.4-7.4,1.1H552c-2.3,1.3-5.1-0.4-7.4,1.1h-5.3c-2.3,1.3-5.1-0.4-7.4,1.1h-5.3
			c-2.7,1.4-5.8-0.4-8.4,1.1h-27.4c-2,1.3-4.4-0.3-6.3,1.1h-2.1c-1.6,1.2-3.7-0.3-5.3,1.1h-1.1c-2.2,0-4.8,2.3-6.3-1.3
			c8.1-2.6,16.6-4.1,25.1-4.4c10.1-0.4,20.3,0.7,30.4-0.6c2.5-0.4,5-0.5,7.5-0.4c4,0.3,7.7-1.4,11.7-1.1c5.9-0.7,11.8-1,17.7-1.7
			c4.6-0.6,9.5-1.6,13.4,2.2c0.4,0.4,0.7,0.8,1.1,1.2c1.7,2.8,3.8,5.2,6.4,7.1c0.5,0.5,1,1,1.4,1.7c1.2,2.9,3.7,4.6,5.7,6.9
			c0.3,0.4,0.6,0.7,0.9,1.1c2,2.9,4.5,5.4,7.4,7.5C598.9,381.1,599.3,381.8,599.4,382.5z"/>
		<path class="st1" d="M575.2,360.4c5.2,4,9.5,9.1,12.6,14.8c-5.1-3.7-8.4-9.2-12.6-13.8C575.1,361.1,575.1,360.7,575.2,360.4z"/>
		<path class="st1" d="M522.4,311.9c-2.8-0.4-5.8,0.9-8.4-1.1C516.8,311.3,519.8,309.8,522.4,311.9z"/>
		<path class="st1" d="M469.8,361.4c1.8,2,4.2,0.7,6.3,1.1c-4.8,1.8-9.9,1.3-14.8,2.6c-7.3,2-14.5,4-21.7,6.1c-3,0.9-6.3,0.9-9.3,0
			c-13.9-3.5-27.8-6.8-41.6-10.5c-5.2-1.4-8.4,0.1-11.4,4.6c-6.1,9.6-13,18.7-19,28.3c-2.9,4.6-6.7,5.4-11.2,4.2
			c-10.6-2.8-21.2-5.9-31.8-8.9c-1.9-0.5-4.3-0.7-4.7-3.4l6.3,1.2c4.5-0.3,8.5,1.5,12.7,2.6c6.2,1.7,12.4,3.4,18.6,5.3
			c3.3,1.5,5.4,0.4,7.3-2.7c4.9-8.1,10.8-15.4,15.3-23.8c0.8-1.4,1.7-2.7,2.8-3.8c4.2-9.1,11-9.1,19.5-6.5
			c11.7,3.5,23.6,6.2,35.4,9.4c4.7,1.3,9.3,1.5,13.8-0.6c7.9-1.6,15.2-5.7,23.4-6.1c1.2-0.5,2.5-0.7,3.8-0.6
			c0.3,0.2,0.5,0.5,0.5,0.8C469.9,361.2,469.9,361.4,469.8,361.4z"/>
		<path class="st1" d="M518.2,360.4c2.6-2.1,5.7-0.6,8.4-1.1C524.1,361.3,521,360,518.2,360.4z"/>
		<path class="st1" d="M531.9,359.3c2.2-2,4.9-0.7,7.4-1.1C537.1,360.2,534.4,359,531.9,359.3z"/>
		<path class="st1" d="M544.6,358.3c2.2-2,4.9-0.6,7.4-1.1C549.7,359.1,547,357.9,544.6,358.3z"/>
		<path class="st1" d="M556.2,357.2c2.2-2,4.9-0.7,7.4-1.1C561.3,358.1,558.6,356.8,556.2,357.2z"/>
		<path class="st1" d="M484.5,361.4c1.9-1.9,4.2-0.7,6.3-1.1C489,362.2,486.6,361.1,484.5,361.4z"/>
		<path class="st1" d="M477.1,362.5c1.5-1.8,3.5-0.8,5.3-1.1C480.9,363.1,478.9,362.3,477.1,362.5z"/>
		<path class="st1" d="M171.5,297.2h19c0.3,0.5,0.3,1.1-0.1,1.6c-0.5,0.7-1.2,1.2-2.1,1.4c-4,0.8-8.1,0.2-12.1,0.5
			c-1.4,0.1-3.4,0.1-3.4,1.8c0,2,2.1,1.4,3.3,1.4c5.8,0,11.6,0.2,17.4-0.1c16.9-0.1,33.7,0.2,50.6,0.1c31.9,0,63.8,0,95.6,0
			c2.6-0.1,5.3,0,7.9,0.2c1.4,0.2,2.6,1,3.4,2.2c1.2,3.4,1.5,6.7-0.3,9.9c-0.5,0.4-1.2,0.7-1.9,0.9c-2.3,0.3-4.5,0.4-6.8,0.3H184.8
			c-2.9,0-5.9-0.2-8.8-0.1c-1.3,0.1-3.3-0.5-3.4,1.4c-0.1,2,1.5,2.9,3.5,3c3.1,0.3,6.3-0.4,9.3,0.6c0.5,0.2,0.9,0.6,1.2,1.1
			c0.1,1.1-0.6,1.4-1.3,1.8c-5,0-10,0.7-14.8-0.9c-1.4-7.6-2.3-8.4-9.7-8.4l-72.4,0.1c-0.6-1.1-0.7-1.9,0.4-2.6
			c3.7-1.5,7.6-1.1,11.5-1.1c79.9,0,159.8,0,239.6-0.1c2.2,0,6.4,1.3,6.3-1.4c0-3.4-4.2-1.8-6.5-1.8c-80.4,0-160.8,0-241.2,0
			c-3.3,0-6.7,0.7-9.7-1.5c-0.5-0.4-0.8-1.1-0.8-1.8c2-2.2,4.3-0.6,6.5-0.4c23.1,0,46.2,0,69.2,0.2c2.7,0,4.2-0.8,5-3.5
			C169.2,300.4,170.6,298.9,171.5,297.2z"/>
		<path class="st1" d="M88.3,314l0.1,2.2c0,1.1,0,2-0.1,3.1c-6.3,0-12.6,0.4-19-1.1c-0.4-0.5-0.3-1.1,0.2-1.5c0,0,0,0,0,0
			c2.1-1.3,4.4-0.9,6.7-0.6c1.7,0.5,3.5,0.8,5.3,0.7c1.2,0.1,2.3,0,3.4-0.4c1.5-1.5,0.6-3.6,1.1-5.4c0.5-1.2,0.5-3,2.6-2.2
			C89.8,310.5,89.6,312.6,88.3,314z"/>
		<path class="st1" d="M311.7,344.4c-11.4-0.4-22.5-2.5-33.8-3.6c-1.7-0.2-3.5-0.3-5.2-0.4l-8.4-0.3c0-1.9,1.5-2.4,2.9-2.9
			c7.8,0.2,15.4,1.5,23.2,2c5.1,1.1,10.2,0.9,15.3,1.7c2,0.3,4.2,0,5.8,1.7C311.9,343.2,312,343.9,311.7,344.4z"/>
		<path class="st1" d="M227.5,336l-25.4-3c-0.3-0.5-0.2-1.2,0.4-1.6c0,0,0,0,0,0c8.7-0.8,17.5,0,25.8,2.5
			C229,334.9,228.4,335.5,227.5,336z"/>
		<path class="st1" d="M260,339.2c-8.6,0.3-16.9-1.9-25.3-3c-0.3-0.4-0.3-1.1,0.2-1.5c1.2-0.7,2.7-0.9,4-0.5
			c1.8,0.5,3.7,0.7,5.6,0.6c1.7,0,3.3,0.1,5,0.4c3.4,1.5,7.5-0.6,10.5,2.4C260.3,338.1,260.4,338.7,260,339.2z"/>
		<path class="st1" d="M202,332c0,0.3,0,0.6,0,0.9c-2.4,0.3-4.5,0.1-4.3-3.2c0.5-3-0.5-4.5-3.8-4.2c-2.9,0.2-5.8,0-8.7,0l1.1-1.1
			c2.4-2,5.3-1.2,7.9-1.4c2,0.1,4.1-0.2,6.1,0.7c1.2,0.7,1.1,1.7,0.8,2.8C199.9,328.6,200.7,330.3,202,332z"/>
		<path class="st1" d="M234.7,335.2c0,0.3,0,0.6,0,0.9l-7.2-0.2l1.1-0.9c0.6-0.6,1.4-1.1,2.3-1.2
			C232.3,333.8,233.7,333.9,234.7,335.2z"/>
		<path class="st1" d="M260,339.2c0-0.3,0-0.5,0-0.8c2.1-1.9,4.2-1.9,6.3,0l-2,1.8L260,339.2z"/>
		<path class="st1" d="M94.5,305.5l-6.2,0.1c-1.2-1.1-1.2-2.9-0.2-4.1c0.1-0.1,0.1-0.1,0.2-0.2h1.1
			C90.2,303.8,92.7,304.2,94.5,305.5z"/>
		<path class="st1" d="M42.9,305.6c2-1.2,4.2-1.1,6.4-0.9c0.5,0.5,0.6,1.4,0.3,2c-0.3,0.4-0.7,0.7-1.2,0.9c-4.4,1.4-3.8,3.9-1.6,6.8
			c3.3,0.7,6.5,0.2,9.8,0.3c1.9,0.1,3.8-0.2,5.3,1.5c0.6,1.9-1.4,1.2-2,1.9c-5.7,0.2-11.5-0.5-17-2C42.1,312.6,42.1,309,42.9,305.6z
			"/>
		<path class="st1" d="M42.9,305.6c0,3.5,0,7,0,10.5h-1c0-3.5,0-7,0-10.5H42.9z"/>
		<path class="st1" d="M59.9,318.1l2-0.9c2.5-1.8,4.9-1.9,7.4,0.1v1L59.9,318.1z"/>
		<path class="st1" d="M88.2,301.4c0,1.4,0,2.8,0,4.2c0,0.4,0.1,0.9,0.1,1.3c0.5,0.5,0.4,1.3-0.1,1.8c-0.1,0.1-0.1,0.1-0.2,0.1
			c-1.1,0.9-0.8,2.1-0.9,3.2c-2.4-0.2-2-2.1-2.4-3.6c-0.3-1.9,0.7-4.7-2.9-4.5c-3.7,0.4-7.5,0.9-11.1,1.7c-2.2,0.4-4.4,0.7-6.5-0.6
			c-0.5-0.3-0.6-1-0.3-1.5c0,0,0-0.1,0.1-0.1C72,302.2,80,300.4,88.2,301.4z"/>
		<path class="st1" d="M49.3,306.5c0-0.6,0-1.3,0-1.9l9.5-1c0.6,0.7,0.6,1.7-0.1,2.3c0,0-0.1,0-0.1,0.1
			C55.5,307.2,52.4,308,49.3,306.5z"/>
		<path class="st1" d="M58.7,305.4v-1.7l5.3-0.2c0,0.3,0,0.7,0,1C62.5,306.4,60.9,307.2,58.7,305.4z"/>
		<path class="st1" d="M311.7,344.4c0-0.2,0-0.5,0-0.7c2.4-2.1,4.9-2.1,7.4,0l-1.1,1.7C315.8,346.1,313.9,344.3,311.7,344.4z"/>
		<path class="st1" d="M364.3,268.7c0.1-0.3,0.1-0.6,0.1-0.9c4.4-1.6,9-1.8,13.6-2.1c0.3,0.5,0.3,1.1,0,1.6c-0.5,0.7-1.2,1.2-2,1.4
			c-8.4,1.1-8.8,1.6-7.7,10.2c0.1,1.1,0.4,2.1,0.5,3.2c0.8,6.6,0.8,6.6,7.7,7.5c1.6,0.2,3.2,0.3,4.1,1.9c0.2,0.6,0.1,1.1-0.1,1.7
			c-1.1,1-2.6,1.3-4,0.9c-1.9-0.5-3.8-0.7-5.8-0.7c-3.8,0.1-5.9-1.7-6.2-5.5l-81.1-0.1c-0.3-1.2,0.6-1.6,1.5-2.1
			c1.9-0.7,3.8-0.4,5.8-0.5h67.2c6.4,0,6.3,0,6.3-6.3c0-2.6-0.2-5.2-0.6-7.8C363.5,270.2,363.8,269.3,364.3,268.7z"/>
		<path class="st1" d="M380.2,292.8c0-0.3,0-0.7,0-1.1c5.1-1.3,6.5-4.8,5.9-9.8c-0.2-3.2-0.2-6.3-0.1-9.5c0-2.7-1-4.4-3.9-4.5
			c-1.5-0.2-3-0.3-4-1.5v-0.9c4.8,0.1,9.4-0.4,13.5-3.2c1-0.7,2.3-1.1,3.5-0.9c9.3,1.1,18.7,2,28,3.1c0.9,0.2,1.7,0.5,2.5,0.9
			c0.4,0.5,0.3,1.1-0.2,1.5c0,0-0.1,0.1-0.1,0.1c-2.3,1.3-4.7,0.9-7.1,0.5c-7-1.4-14.1-2.2-21.2-2.6c-6-0.3-6.8,0.7-6.8,6.4
			c0,5.4,0,10.8,0,16.2c0,2.4,0.4,4.5,2.6,5.8c0.4,0.5,0.5,1.1,0.4,1.7c-2.2,1.9-4.4,1.1-6.7,0.2
			C384.5,293.9,381.7,294.8,380.2,292.8z"/>
		<path class="st1" d="M462.3,268.7c2.3,5.6,1,11.4,0.9,17c-0.1,2.3-3.1,3.4-5.4,4c-3.4,0.9-6.8,1.3-10.2,2
			c-0.7-0.4-1.5-0.8-1.1-1.9c2.1-2.3,5.3-1.1,7.6-2.2c2.4-0.4,3.8-1.5,3.7-4.2c-0.1-1.4,0-2.8,0-4.2c0-7.6,0-7.6-7.4-8.6
			c-6.3-1.2-12.7-1.2-19-2.3c-1.5-1.1-0.8-2,0.3-2.8L462.3,268.7z"/>
		<path class="st1" d="M431.7,265.6l-1.1,1.8c-2.1,1.5-3.7,0.6-5.2-1.1c0-0.3,0-0.6,0-1L431.7,265.6z"/>
		<path class="st1" d="M255.9,295.1l26.3-0.2c1-0.8,2.2-1.3,3.5-1.3c6.1-0.3,12.2,0.6,18.3-0.6c2.3-0.5,4.7-0.6,7.1-0.1
			c2.1,0.8,4.4,0.8,6.6,0c2.1-0.3,4.3-0.7,6,1.2c0.1,0.6-0.2,1.3-0.8,1.6c-2.2,1-4.6,1.6-7.1,1.7c-18.1,0-36.2,0.4-54.3,1
			c-1.8-0.3-3.6-0.9-5.2-1.8c-0.5-0.3-0.6-1-0.3-1.5C255.9,295.2,255.9,295.1,255.9,295.1z"/>
		<path class="st1" d="M285.3,294.9h-3.1l-1.1-2c5.5-7,13.2-3.5,20-4.2c1.3,1.1,4.6-0.1,4.2,2.8c-0.3,2.7-3,2.4-5.1,2.5
			c-4.2,0.1-8.4-0.1-12.6,0.1C286.9,294.2,286,294.5,285.3,294.9z"/>
		<path class="st1" d="M190.5,298.2c0-0.3,0-0.6,0-1l6.3-0.2c6-1.2,12.1,0.5,18-0.9l18.8,0.1c0.3,0.5,0.1,1.2-0.4,1.6
			c-1.3,0.9-2.8,1.4-4.3,1.7c-11.2,0.4-22.4,0.1-33.6,0.2C193.6,299.7,191.8,299.7,190.5,298.2z"/>
		<path class="st1" d="M233.7,297.1v-0.9l13.7-0.2c2.7-0.7,5.6-0.7,8.3,0c1.4,0.2,3.1-0.4,4.2,1c-0.8,1-1.9,1.5-3.2,1.5
			c-6.8,0.2-13.6,0.3-20.4,0C235.4,298.4,234.4,298,233.7,297.1z"/>
		<path class="st1" d="M214.8,296.2c-5.9,2.1-12,0.5-18,0.9C202.8,295,208.8,296.5,214.8,296.2z"/>
		<path class="st1" d="M255.7,296.1h-8.3c2.7-1.9,5.7-0.6,8.5-0.9C255.9,295.4,255.8,295.7,255.7,296.1z"/>
		<path class="st1" d="M286.4,294c4.2-2.2,8.9-0.5,13.3-1.1c1.7-0.2,4.1,0.7,4.8-1.1c0.9-2.5-2.7-1.4-3.3-3.1
			c19.2,0,38.5,0,57.7-0.1c1.9,0,3.9,0.6,5.5-0.9c1.7,2,2.7,5,6.2,4.3c1.7,0.9,3.7-0.1,5.4,0.8h4.1c2.1,0.5,4.5-0.5,6.3,1.1
			c-0.2,2.9-2.9,2.3-4.5,3c-0.9,0.1-1.8,0.1-2.7-0.1c-13.4-2.6-26.9-2.7-40.5-2.5c-1.7,0-3.5,0.2-5.1,0.7c-3.5,0.2-7.1,1.2-10.4-1.1
			h-6.4c-1.7,0.6-3.5,0.6-5.1,0h-7.4C298.4,294.7,292.3,294.7,286.4,294z"/>
		<path class="st1" d="M284.3,286.6l-1.1,1.1c-1.2-6.4-2.9-12.9,1.1-19h80.1c0,0.7,0,1.4,0,2.1c-0.8,0.7-1.8,0.9-2.8,0.8
			c-18.2-0.8-36.4-0.2-54.6-0.3c-6.6,0-13.3-0.9-19.8,0.7c-2.2,1.9-1.1,4.4-1.3,6.7C285.5,281.4,286.3,284.2,284.3,286.6z"/>
		<path class="st1" d="M373.8,365.9l-2,2.6c-5.3,7.9-10.8,15.7-15.8,23.8c-1.9,3.1-4.1,4.5-7.6,3.2c-9.9-3.2-20-5.8-30.1-8.4
			c-0.8-2.3-3.6-3.6-3.3-6.5c3.9-6.9,9.3-12.8,12.7-20c2.5-1.5,3.9-4.1,5-6.5c2.7-5.6,6.5-7.9,12.6-6.2c9.5,0.4,18.5,3.2,27.4,6.1
			c0.9,2.6,4.5,4,3.7,7.4C376.2,363.3,374.4,364.2,373.8,365.9z"/>
		<path class="st1" d="M373.8,365.9c-0.3-2,1.6-3,1.9-4.7c0.7-4,0.7-4-3-6.1c-8.2-2.7-16.7-4.3-25.1-6.3c-0.8-0.3-1.6-0.6-2.3-1.1
			l1.1-0.9c4.5-1.4,8.4,1.1,12.6,1.6c2.9,0.4,5.7,1.4,8.6,2.1c4.7,1.2,9.5,2.4,14.2,3.5c4.7,1.2,9.5,1.8,14.1,3.4
			c4.6,1.6,7.3,0.6,8.8-4c0.4-1,0.8-1.9,1.4-2.8c1.7-2.8,2.5-6.1,4.2-9c0.8-1.2-0.4-2.6,0.4-3.9c4.1-8.2,11.8-10.5,19.9-12.5
			c10.6-2.6,20.9-6.6,31.7-8.7c1.2,0,2.2,0.8,2.5,1.9c-2.2,3.4-6.2,2.6-9.3,4c-2.1,0.9-4.4,1.2-6.5,2c-7.1,2.3-14.3,4.2-21.4,6.3
			c-4.1,1.4-9.3,1.1-10.5,6.9c-0.2,0.5-0.3,0.9-0.5,1.3c-2.4,4.7-4.7,9.4-7,14.1c-3.5,6.9-3.5,6.9,3.9,8.6
			c5.7,1.9,11.7,3.1,17.6,4.6c3.8,2.4,7.6-0.8,11.4,0.1c0.4,0.3,0.5,0.9,0.1,1.4c0,0,0,0-0.1,0.1c-3.7,2.4-7.6,2.6-11.9,1.5
			c-14.5-3.9-29.1-7.3-43.6-11.3c-4.7-1.3-7.8-0.7-9.7,4C376.5,363.6,375.3,365,373.8,365.9z"/>
		<path class="st1" d="M367.7,351.8l-21.2-5c-9-1.9-18.3-1.8-27.4-3.2h-7.4c-5.1-1.9-10.5-1.5-15.7-2.3c-1.8-0.3-3.9,0.5-5.4-1.1
			c1.5-1.7,3.8-1.4,5.7-2.1c8.5,0,17,1.6,25.5,2.1c14.6,1,29.1,3.5,43.2,7.4c3.5,0.9,4.2-1.3,5.6-3.2c3.5,0.3,2.3,2.8,2.3,4.8
			C372.1,352.4,369.3,351,367.7,351.8z"/>
		<path class="st1" d="M318,385.7l25.3,7.4c1.8,0.5,3.7,0.7,5.3,2c0.3,0.3,0.5,0.5,0.3,0.7c-0.1,0.2-0.2,0.4-0.4,0.4
			c-10.5-3.2-21.3-5.4-31.6-9.3c0-0.4,0-0.7,0-1.1c0.2-0.3,0.5-0.4,0.9-0.3C317.9,385.5,317.9,385.6,318,385.7z"/>
		<path class="st1" d="M318,385.7l-1.1,0.1c-3.9-0.5-5.1-2.1-2-5.3C316.3,382,317.4,383.7,318,385.7z"/>
		<path class="st1" d="M463.4,306.7l0.1-1.1c2.9,8,9,9.4,16.7,8.5c11.5-1.4,23.1-1.7,34.6-1.1c10.7,0.5,21.4,1.8,32,4.1
			c-0.2,0.8-0.8,1.5-1.6,1.9c-2.8,0.9-5.6-0.8-8.4-0.4c-1.8,0.1-3.6-0.1-5.4-0.5c-16.1-3.2-32.2-2.4-48.4-0.8
			c-4.6,0.3-9.1,0.4-13.7,0.1C464.2,315.6,462.6,312.7,463.4,306.7z"/>
		<path class="st1" d="M545.6,318.1l1.1-0.9c9.9-0.1,19.5,2.8,29.5,2.1c1.8,0.3,3.8-0.6,5.3,1c-1.7,2-4.1,1.4-6.3,1.6
			c-3.2,0-6.3,0-9.4,0C558.9,321,551.8,322,545.6,318.1z"/>
		<path class="st1" d="M446.5,290.8l1.1,1.1c-3.8,0.8-7.9,0.6-11.6,2.1c-2.4,1.7-5.3,1.2-7.9,1.5c-4.8,0.6-5.2,1.2-3.1,5.8
			c0,0.5-0.1,1-0.4,1.4c-2,1.1-1.9,2.9-1.9,4.8c-0.1,2.3,0.5,4.8-1.3,6.8c-0.8,0.5-1.9,0.2-2.5-0.6c-0.1-0.1-0.1-0.3-0.2-0.4
			c-0.2-3.6,0.2-7.3,0.1-10.9c-0.1-5.9-0.1-5.9-6.1-5.9H410c-2.2,0.2-4.6-0.6-6.7,0.9c-1.5,4.9-0.5,9.8-0.6,14.8
			c0.1,0.6,0,1.1-0.3,1.6c-0.6,0.8-1.6,1-2.4,0.4c-0.2-0.1-0.4-0.3-0.5-0.5c-1.3-2.7-0.7-5.5-0.8-8.3c0.2-2.6,0.1-5-3.4-5.3
			c-3-1.2-6.7,0.7-9.3-2.3c-0.2-0.5-0.2-1-0.1-1.5c3.4-2.2,6.5,1.3,9.6,0.2c-0.8-0.3-2.6,1-2.9-1.3c0-0.4,0-0.7,0-1.1
			c0.9-1.1,2.3-1.7,3.7-1.5c7.6,0.4,15-1.1,22.5-1.1c7.2,0,14.3-1,21.4-1.8C442.6,289.5,444.7,289.1,446.5,290.8z"/>
		<path class="st1" d="M424.4,301.4c-1.5-1.2-3.8-1.6-3.2-4.5c0.6-2.6,2.9-2.4,4.4-2.6c3.4-0.3,6.8-0.5,10.3-0.4c0.5,0,1,0,1.5,0.2
			c1.5,0.7,0.3,0.7-0.3,0.9c-0.2,0-0.3,0-0.5,0.1c-1.8,0.8-5.1,0.4-5.1,2.6c0.1,2.4,3.4,2.2,5.5,3c-1,1.1-2.2,0.4-3.3,0.7
			C431,303.4,427.2,303.4,424.4,301.4z"/>
		<path class="st1" d="M463.4,306.7c1.7,3.3,0.6,8.1,5.4,9.6c1.2,1.1,3.5-0.8,4.3,1.5c-2.9,2.7-5.7,2.3-8.5-0.2
			c-1.5-1.4-1.5-3.5-2.4-5.2c-1-4.1-4.2-5.1-7.8-5.5c-2.3-0.2-4.9,0.5-6.8-1.6c-0.3-1.1,0.4-1.4,1.1-1.8
			C453.4,305.3,459,303.3,463.4,306.7z"/>
		<path class="st1" d="M448.6,303.6l-1.1,1c-5.4,3.3-10.9-0.1-16.3-0.2c-2.2,0-5,0.1-6.7-2.2c0-0.3,0-0.5,0-0.8h9.5
			C438.7,303,443.7,303.2,448.6,303.6z"/>
		<path class="st1" d="M575.3,320.4l6.2-0.1c1.2,0,2.6,0.4,3.6,0c6.7-2.8,9.1,1.1,11.2,6.5c6.1,15.5,12.6,30.9,19,46.4
			c0.1,1.3-0.7,2.5-1.9,2.8c-4.9,2.1-9.6,5-15.1,5.6c-4.2-1.4-6.8-4.5-8.4-8.5c1.4-0.5,2.9,0.1,3.6,1.4c3.2,4.5,6.9,3.8,10.9,1.6
			c1.1-0.6,2.1-1.1,3.2-1.7c3.7-1,5.1-3,2.9-6.6c-5.3-12.6-10.5-25.2-15.8-37.8c-3.2-7.7-3.2-7.6-11.6-7.2c-2.8,0.1-5.5,1.6-8.3,0.5
			c-0.5-0.2-0.9-0.6-1.1-1.2C573.7,321,574.6,320.8,575.3,320.4z"/>
		<path class="st1" d="M598.3,381.5c5.4-3.3,12.2-3.9,17-8.4l0.9,1.1l-0.1,2c-5.6,2-10.8,5.3-16.8,6.4L598.3,381.5z"/>
		<path class="st1" d="M574.1,322.4c4.8-0.3,9.7-0.4,14.5-1.2c3.2-0.5,4.1,0.7,5.2,3.4c5.9,14.5,12,28.9,18.1,43.4
			c0.3,3.1-1.3,6-4,7.4c-0.1,0.1-0.2,0.3-0.3,0.4c-6.8,5.4-12.6,3.6-17.6-2.7l0,0c-1.7-2.9-4.8-4.6-6.3-7.7l-0.8-0.7
			c-2-2.7-4.7-4.7-6.6-7.4l0,0c-0.9-2-3.3-3-3.8-5.3c0.1-0.5,0.3-1,0.7-1.3c4.2-0.7,5.5,3,7.8,5.1c4,5.1,8.3,10,12.8,14.6
			c1.2,1.3,2.5,2.5,3.9,3.5c7.8,1.3,11.5-2.6,8.6-9.6c-4.7-11.3-9.3-22.7-14.4-33.9c-1.7-3.8-4.3-5.4-8.8-4.8
			c-10.5,1.4-21,0.5-31.4-1c-9.5-1.3-19.1-2.1-28.6-3.8c-3.6-0.7-6.8,1.1-10.1,1.9c-0.4-0.4-0.7-1-0.8-1.6c0.1-2.9,2-3.8,4.5-4.1
			c2.2-0.3,4.5-0.2,6.8-0.3c2.9-0.1,5.8,0.2,8.6,1.1c1.8,0.2,3.5-0.1,5.3,0.2c9.8,1.3,19.6,2.7,29.5,3.5
			C569.3,321.6,571.8,320.8,574.1,322.4z"/>
		<path class="st1" d="M469.8,361.4c0-0.3,0-0.7,0-1c0.1-2.2,1.9-2.3,3.3-2.4c7.9-0.9,15.7-2.7,23.7-2.2c1.7-0.1,3.6,0.6,4.7-1.4
			c1.1-1.6,0.5-4.2,2.8-5c0.5,0,1,0.1,1.4,0.3c1.6,1.9-1.8,7.1,4.1,6.1c5.2,0.8,10.3-1.6,15.5-0.1c0.5,0.3,0.7,1,0.3,1.5
			c0,0,0,0,0,0c-0.6,0.3-1.2,0.9-1.8,0.9C505.7,358.1,487.6,358.1,469.8,361.4z"/>
		<path class="st1" d="M573,352.1c0.8,1.9,3.3,2.8,3.2,5.2c-2.8-3.2-6.5-3.6-10.4-3.2c-7.1,0.7-14.1,1.3-21.2,2
			c-0.3-0.6-0.2-1.3,0.2-1.7c5.6-2.9,11.8-2,17.7-2.6C565.9,351.5,569.6,349.4,573,352.1z"/>
		<path class="st1" d="M544.6,355.1c0,0.3,0,0.6,0,0.9l-11.6,1.1c-0.3-0.6-0.2-1.2,0.3-1.6C537,353.2,540.7,352.8,544.6,355.1z"/>
		<path class="st1" d="M583.5,365.4c2.5,2.3,5.5,4.1,6.3,7.7C587.2,371,584.3,369.1,583.5,365.4z"/>
		<path class="st1" d="M576.2,357.2c2.8,1.9,5.3,4.1,6.6,7.4C579.8,362.8,577.2,360.7,576.2,357.2z"/>
		<path class="st1" d="M533,356.1v1l-7.4,0.2c0-0.3,0-0.6,0-0.9C528,354.2,530.5,354.3,533,356.1z"/>
		<path class="st1" d="M504.4,349.8c-1.8,1.4-0.2,4-1.9,5.5c-0.5,0.4-0.3-1.5-0.9-0.3c-0.7,1.4-2.4,1.3-3.4,2.2
			c-9.6-0.1-19.2,1-28.5,3.2l-3.1,1.1c-2.9-0.2-5.6,0.7-8.4,0.7c-3-0.3-5.4-2.6-6-5.5c-0.8-3.2,0.7-6.1,1.3-9.2
			c0.4-2.2,1.2-4.5-1.4-6c-0.4-0.3-0.8-0.6-1.1-0.9c-4.5-3.2-2.6-8.4-3.9-12.6c0.1-1.6,1.6-2.9,1.6-4.6l15.8-5.1
			c-0.5-0.6-0.4-1.1,0.2-1.4c2.5,1.7,5.7,1.8,8.3,0.3c9.4-0.7,18.8-1.7,28.3-1.6c6.7,1.1,7.1,1.4,8,8.3c0,2.4-0.5,4.8,0,7.2
			c0,0.5-0.1,1.1-0.3,1.6c-1.6,3.8-1.6,8-2.7,12C505.9,346.4,506.1,348.5,504.4,349.8z"/>
		<path class="st1" d="M348.6,396.1c0-0.4,0-0.7,0-1.1c3.2,0.8,5-0.5,6.8-3.2c5.4-7.8,9.8-16.4,16.3-23.4
			c-4.6,9.9-11.8,18.3-17.5,27.5C352.7,398.6,350.5,396.2,348.6,396.1z"/>
		<path class="st1" d="M458,361.3c2.9,1.2,5.8-2.4,8.7,0.1l-24.3,6.4c0-0.3,0-0.7,0-1C446.8,362.9,452.3,361.8,458,361.3z"/>
		<path class="st1" d="M88.1,308.8l0.3-1.9c2.2,0.4,4.5,0.6,6.8,0.7c83.4,0,166.8,0,250.1-0.1c3.7,0,3.3,1.6,3.4,3.9
			c0.1,3.1-1.1,3.5-3.8,2.9c-1.9-0.3-3.8-0.3-5.8-0.2H176.9c-26.5,0-52.9,0.1-79.4-0.1c-3.1,0-6.2,1.6-9.3,0
			C88.2,312.2,88.1,310.5,88.1,308.8z"/>
		<path class="st1" d="M348.5,305.5H244.1c-10.5-0.6-21-0.9-31.4-1.1c-2.4,0-6.3,1.1-6.2-2.7c0.1-3,3.7-2.5,6.1-2.4
			c8.6,0.4,17.1-1.1,25.7-1.1c1.9,0,3.9-0.4,5.7,0.7c0.9,1.4-0.2,2-1.1,2.3c-4.4,0.9-8.9,1.1-13.3,0.5c10.5,1.1,22.8-0.4,35.1,0.8
			c2.4,0.6,4.9,0.8,7.3,0.6c23.3,0,46.6,0,69.9,0.1C344.2,303.1,347.2,302.1,348.5,305.5z"/>
		<path class="st1" d="M244.2,299.3c-12.5-0.4-24.8,0.9-37.5,1.7c1.3,3.2,3.3,2.5,4.9,2.4c9.9-0.5,19.8,1.8,29.7,1.1
			c1.1-0.2,2.1,0.2,2.9,0.9h-51.6c-0.5-0.4-1.2-0.7-1.9-0.9c-1.5-0.3-2.9-0.7-2.6-2.5s1.9-2.2,3.6-2.2c4.4,0,8.8,0,12.7,0
			c-4.7-0.3-9.9,0.6-15-0.6l1.2-1l40-0.1c6.1-0.3,12.2-1.7,18.2,0.8C247.3,300.6,245.8,300.5,244.2,299.3z"/>
		<path class="st1" d="M183,316.2l166.5-0.1c0.3,0.6,0.2,1.3-0.4,1.6c-0.1,0-0.1,0.1-0.2,0.1c-2.5,1.2-5.2,0.8-7.8,0.8
			c-37,0-74,0.2-111-0.1c-12.3-0.1-24.5,1.2-36.7,1.2c-3.7-0.3-7.5-0.3-11.2,0c0.4,1.2,2.9,1.1,1.6,3.1c-1.6,0.2-3.1,0.2-4.7,0
			c-2-0.3-4.6-0.4-4.6-3.2c0-2.4,2.4-2.6,4.2-3C180.3,316.5,181.7,317,183,316.2z"/>
		<path class="st1" d="M189.3,299.2H206c0,0.4,0,0.8,0,1.1c-4,0-8-0.1-12,0c-1.8,0-4.4-0.8-5,1.6c-0.6,2.4,2.7,0.8,3.2,2.5
			c0.1,0.3,0.2,0.7,0.3,1.1c-6.3,0-12.6,0.1-18.8,0.1c-1.3,0-3.9,0.9-3.8-1.2c0.1-2.2,0.9-5,4.2-5L189.3,299.2z"/>
		<path class="st1" d="M348.5,305.5c-1.6-1.6-3.6-0.9-5.5-0.9c-24.2,0-48.5,0-72.8-0.1c-2,0-4.2,0.8-6-1.1l0.8-0.7
			c2.3-1.1,4.8-0.8,7.2-0.8c16.6,0,33.1,0,49.7,0c8.8,0.1,17.6-0.1,26.3,0.1c0.6,0.1,1.3,0.2,1.9,0.5c1.2,0.6,1.7,2.1,1.2,3.3
			c-0.1,0.3-0.3,0.5-0.5,0.7L348.5,305.5z"/>
		<path class="st1" d="M183,316.2c-0.1,0.1-0.2,0.3-0.4,0.4c-2.3,1.4-7.4-0.2-6.8,3.5c0.5,3.2,5.3,2.2,8.3,2.3
			c2.3-1.8,4.6-1.7,7.1-0.5c0.5,0.4,0.7,1.1,0.4,1.7c-1.8,0.6-3.7,0.6-5.4-0.1c-3.5,0-6.9-0.1-10.4,0c-1.9,0.2-3.7-0.9-4.6-2.6
			c-2.2-3.8-1.6-5.3,2.9-4.8C177.1,316.4,180.1,316.2,183,316.2z"/>
		<path class="st1" d="M350.7,306.6c0-0.7,0-1.4,0-2.1c1.3-0.4,2.1,0.3,2.8,1.3c0.2,0.5,0.4,1.1,0.5,1.7c-0.3,3.2,1.6,7.3-3.4,8.7
			C350.6,313,350.6,309.8,350.7,306.6z"/>
		<path class="st1" d="M350.6,316.1c3.2-2.6,1.8-6.3,2.2-9.6c0.4-0.3,1-0.2,1.4,0.1c0.3,0.4,0.5,0.9,0.7,1.4
			c0.2,1.7,0.3,3.5,0.3,5.3c0,0.5,0,1-0.1,1.5c-0.1,0.5-0.2,1-0.3,1.5c-0.4,1.3-1.5,2.3-2.8,2.6c-0.8,0.1-1.6,0-2.3-0.5
			c-0.3-0.4-0.4-1-0.1-1.4c0-0.3,0-0.7,0-1L350.6,316.1z"/>
		<path class="st1" d="M186.2,323.5l5.3-0.1c1.4-0.8,2.7-1.3,3.2,1.1h-8.3C186.3,324.2,186.2,323.8,186.2,323.5z"/>
		<path class="st1" d="M58.7,305.4c1.9,0.7,3.5-0.8,5.3-0.9c6.5,0.8,12.6-2.2,19-1.9c1.5,1.4,2.6,3.2,3.2,5.1
			c0.3,1.5-0.3,3.2,1.1,4.3c-0.5,2,1.1,4.4-1.1,6.1c-1.1-1-0.8-2.3-0.7-3.5c-0.4,2.4-2.4,2.6-4.1,3.2c-1.6-0.1-3.2,0.4-4.7-0.4h-7.3
			l-7.4-0.1c-3.4-1.9-7-0.7-10.5-1.1c-2.1-0.3-4.5,0.7-6.4-1c0.2-0.7,1.7-0.6,1-1.9c-1.9-3.6-0.3-5.5,3.3-6.4v-0.3L58.7,305.4z"/>
		<path class="st1" d="M81.9,317.2c1.1-1.4,3-1.7,4.2-3.2v4.1H82c-0.4-0.2-0.6-0.4-0.4-0.6C81.7,317.3,81.8,317.2,81.9,317.2z"/>
		<path class="st1" d="M81.9,317.2c0,0.3,0,0.6,0.1,0.9c-1.9,0.1-3.8,0.6-5.4-0.9L81.9,317.2z"/>
		<path class="st1" d="M295.9,339.3c-1.5,1.8-3.6,0.7-5.4,1.1l-24.2-2H260c-3.2-2.5-7.4,0-10.7-2.2c1.3-1.6,3.3-1.3,5-1.9
			c1.2-0.3,2.5-0.4,3.8-0.2c0.5,0.1,1,0.2,1.5,0.3c2.2,0.7,4.4,0.3,6.6,0.6c0.5,0.1,1,0.2,1.5,0.3c1.9,0.7,4,0.5,6,0.6
			c0.8,0.1,1.6,0.2,2.3,0.4c2,0.5,4.1,0.7,6.2,0.6c1.4,0,2.7,0.1,4,0.4c1.8,0.5,3.8,0.7,5.7,0.6C293.4,338,294.8,338.1,295.9,339.3z
			"/>
		<path class="st1" d="M230.5,334.9l-2.1,0.1c-8.6-2.3-17.6-2.2-26.3-3.1c-4.4-0.5-3.4-3-2-5.6c4.6-1.9,9.4-1.1,14.2-0.9
			c3.5,1.2,7.1,0.7,10.7,0.8c1.7-0.1,3.3,0.1,4.9,0.7c0.2,2.1,0.2,2.1-2.3,3.7c1.1,1.5,2.9,0.8,4,1.6
			C234.5,334.4,231.5,334.3,230.5,334.9z"/>
		<path class="st1" d="M230.5,334.9c0.1-0.7,1.9-1.1,0.6-1.8c-0.9-0.5-2.4,0-3.6-0.3s-3.1-0.5-2.9-2.4c0.2-1.4,1.6-1.6,2.9-1.6
			c1.1,0,2.1,0,2.8-1c3.9-2.9,8.4-1.7,12.6-1.4c6.3,0.4,12.8,0.6,19.1,1.5c2.4,2.4,0,2.8-1.5,3.1c-3.1,0.6-6.3,0.2-9.4,0.3
			c-3.3,0.1-6.6-0.2-10.1,0.5c4.2,1.1,8.3,1.6,12.3,2.3c0.5,0.2,0.9,0.5,1.3,1c-1.5,1.8-3.6,0.7-5.4,1.1l-5.2-0.2
			c-1.7-1.1-3.7,0.2-5.4-0.9l-4.1,0.1L230.5,334.9z"/>
		<path class="st1" d="M238.8,335.2c1.8,0.1,3.8-0.7,5.4,0.9C242.4,336,240.4,336.7,238.8,335.2z"/>
		<path class="st1" d="M214.7,326.8l-14.7-0.4l1-1.7c1.5-1.8,3.4-1.5,5.4-1.2c4,1.2,8,0.4,12,0.6c2.2,0.1,4.6-0.3,6.6,1.1
			c0.5,0.4,0.6,1.2,0.2,1.7C221.7,327.4,218.2,327.3,214.7,326.8z"/>
		<path class="st1" d="M206.2,324.6l-5.2,0.1l-6.3-0.2c-0.8-1.2-2-0.9-3.2-1c0-0.3,0-0.7,0-1.1c1.1-1.3,2.6-1.3,4.1-1.3
			c0.9,0,1.8,0.1,2.6,0.4c2.9,0.9,5.8,0.4,8.7,0.5c3.4,0.4,7-1.1,10.1,1.5C213.7,326.7,209.8,324.7,206.2,324.6z"/>
		<path class="st1" d="M49.2,306.8c-3.4,2.2-4.6,4.6-0.8,7.7c-1.1,1.1-2.3,0.4-3.4,0.6C42.9,308,43.5,306.7,49.2,306.8z"/>
		<path class="st1" d="M86.1,307.7c-0.7-1.9-3.9-2.3-3.2-5.1C87.7,302,85.8,305.5,86.1,307.7z"/>
		<path class="st1" d="M382.2,266.7c4-0.8,5.7,0.6,5.4,5s-0.1,8.7-0.1,13c0,7.3,0,7.3-7.4,7.1c-2.7-1.8-5.8-0.7-8.6-0.9
			c-2.4-0.2-3.9-0.8-4.1-3.6c-0.2-4.7-0.5-9.3-1.1-14c-0.5-4.2,0.8-6.3,5.3-5.7c1.7,0.1,3.5,0.1,5.2,0
			C378.5,266.5,380.6,267.8,382.2,266.7z"/>
		<path class="st1" d="M284.3,286.6c0.5-5.3-1.4-10.7,1.1-15.9c5.9-0.8,11.9-0.3,17.8-0.3c17.9-0.1,35.8,0,53.7,0
			c1.7,0,3.5-0.3,5.2,0.4l2.2,0.1c2.1,4.6,1.1,9.6,1.3,14.3c0.1,3-4.2,0.9-6.5,1.4c-0.4-1.4,0.3-2.3,1.2-3.3
			c3.2-6.4,1.6-9.9-4.8-9.9c-21.7,0-43.3-0.3-64.9,0.1c-4.8,3.3-4.9,4.2-0.5,10.9c0.2,0.7,0,1.5-0.5,2L284.3,286.6z"/>
		<path class="st1" d="M289.5,286.5c0-0.7,0-1.3,0-2c1-1,2.4-1.6,3.8-1.4c21.7,0.1,43.4-0.5,65.1,0.3c0.7,0.2,1.3,0.6,1.7,1.1
			l-1.1,2L289.5,286.5z"/>
		<path class="st1" d="M376.1,292.8c-1.8,0-3.8,0.6-5.4-0.8C372.5,291.9,374.4,291.4,376.1,292.8z"/>
		<path class="st1" d="M382.2,266.7c-1.5,1.6-3.5,0.7-5.3,0.9l1.1-1L382.2,266.7z"/>
		<path class="st1" d="M446.5,290.8c-17.8,1.9-35.7,3.2-53.7,3.4c-3.4,0.3-4.5-1.3-4.3-4.7c0.2-6.4,0.3-12.9,0-19.4
			c-0.2-4.9,2.2-6.9,6.5-6.6c7.5,0.5,14.9,1.2,22.2,2.4c2.7,0.4,5.5,0.6,8.3,0.6l5.2,1.1c6.8,0.2,13.6,0.3,20.2,2.2
			c-0.6,1.1-1.7,1.9-2.9,2.2c-8.6,0.3-17-1.4-25.5-2.2c-7.8-0.7-15.6-1.5-23.4-2.5c-5.3-0.6-6.8,1.1-6.8,6.6c0,4,0,8.1,0,12.1
			c0,3,1.5,4.5,4.5,4.6c11.6,0.4,23-1.1,34.6-1.5c6.6-0.2,13.1-2,19.7-2.2c1.3,0.2,2.4,1,3,2.1C451.9,290.8,448.6,288.7,446.5,290.8
			z"/>
		<path class="st1" d="M392.8,295.2c2,1.8,4.8-0.2,7.7,1.9c-5.2,0.7-9.6-0.7-14-0.9c-1.5,0.9-2.9,1.1-4.2-0.3c1.1-1.5,3.4-0.2,4.3-2
			C388.4,295.4,390.6,295.1,392.8,295.2z"/>
		<path class="st1" d="M454.1,288.8c-0.9,0.1-1.7-0.3-2.2-1.1c0.3-1.7,1.9-2.4,2.8-3.7c2.4-3.6,1.4-8.5-2.2-10.9
			c-0.4-0.3-0.8-0.5-1.2-0.7c-1-0.3-1.9-0.9-2.5-1.7c0.5-0.7,1.3-1.2,2.2-1.1c8.3,0.1,8.3,0.1,8.3,8.3c0,1.9-0.1,3.8,0,5.7
			C459.6,287.6,457.8,289.2,454.1,288.8z"/>
		<path class="st1" d="M460.9,285.7c-0.8-4.8-0.9-9.7-0.3-14.6C462.6,274.1,462.9,280.7,460.9,285.7z"/>
		<path class="st1" d="M248.4,299.2c-5.9-2.3-12-0.4-17.9-1.1c0.8-1.1,2.1-0.9,3.2-1.1l26.3-0.1c21.1-0.9,42.2-0.2,63.2-2
			c4.1-1.1,8.3,0.1,12.4-0.8c9.4,0.9,18.9,0.3,28.3,0.3c5.5,0.2,10.9,0.9,16.2,2.1c2.1,0.4,4.2-0.5,6.2,0.6c2.8,2.5,6.7-0.3,9.5,2.1
			c1.9,1.2,3.4,3.1,4.1,5.3l0.2,9.5c0.1,1.2-0.5,1.4-1.5,1.1c-1.8-1.2-1.9-3.2-2-5c-0.6-6.1-1.7-7.3-7.8-8.2
			c-2.2-0.3-4.5-0.1-6.7-0.6c-2-0.7-4.2-0.5-6.1-1.1c-18.8-2.3-37.7-2-56.5-0.6c-5.4,0.4-10.9,0.1-16.3,0.2
			c-12.6-0.7-25.3,1.5-37.9,1.1c-3.8-0.2-7.7,0-11.5-0.1C251.9,300.6,249.9,300.9,248.4,299.2z"/>
		<path class="st1" d="M286.4,294l18,0.1c-6.3,1.9-12.7,0.5-19.1,0.8L286.4,294z"/>
		<path class="st1" d="M336,295.2l-12.7-0.2c0-0.3,0-0.6,0-0.9l10.3-0.2c2-0.3,4.1-1.5,5.7,0.9C338.3,296,337.2,295.6,336,295.2z"/>
		<path class="st1" d="M311.8,294.1h5.1C315.5,295.5,313.2,295.5,311.8,294.1z"/>
		<path class="st1" d="M339,294.9c-1.6-1.6-3.6-0.6-5.4-1.1c10-1.4,20.2-1.5,30.3-0.4c5.4,0.5,11.1,0.2,16.3,2.7
			c0.4,0.2,0.5,0.4,0.4,0.6c-0.1,0.2-0.2,0.3-0.3,0.3l-16-1.8C355.8,295.6,347.4,296.1,339,294.9z"/>
		<path class="st1" d="M380.2,297c0-0.3,0-0.6-0.1-0.9l2.1-0.2l4.2,0.3c0,0.3,0,0.6,0,0.8L380.2,297z"/>
		<path class="st1" d="M362.2,270.7h-76.7c1.3-1.4,3-0.9,4.5-0.9c22.6,0,45.2,0,67.8,0C359.2,269.8,360.9,269.3,362.2,270.7z"/>
		<path class="st1" d="M347.3,391.4c-8.5-2.5-17.1-4.9-25.5-7.6c-3.4-1.1-3.4-3.9-1.7-6.4c5-7.5,10.2-15,15.4-22.4
			c2.7-3.9,6.3-4.9,11-3.6c6.7,1.8,13.6,3.2,20.3,4.9c5.3,1.3,6.3,3.9,3.4,8.3c-4.9,7.4-9.9,14.8-15,22.1
			C353.4,389.2,351.3,391.9,347.3,391.4z"/>
		<path class="st1" d="M372.8,355.1l5.5,1.4c0.2,2.1-2.5,2.7-2.5,4.8C374.7,359.2,373.8,357.2,372.8,355.1z"/>
		<path class="st1" d="M424.4,302.2c7.7,0.5,15.3,2.5,23.1,2.4c2.6,1.9,5.6,0.7,8.4,1.2c3.8,0.6,6.9,1.8,7.3,6.3
			c1.1,2-2.4,3.2-0.8,5.3c-13.7,4.1-27.4,8.3-41.1,12.2c-2.8,0.8-4.9,1.8-5.8,4.5c-0.9,2.5-3,3.7-4.9,5.3
			c-4.6,3.9-10.4,4.2-15.9,5.3c-4.7,0.3-9.4,0.9-14.1,1.7c-4.9,0.8-7.7-1-9.4-5.4c0.5-2.8,2.2-1.7,3.4-0.9c3.2,2.3,6.4,2,10,1.4
			c5.9-0.9,11.8-1.2,17.6-2.7c4.8-1.3,9.3-3.2,11.6-8.2c0.5-1,1.2-1.9,2.1-2.5c10.3-4.6,21.4-6.5,32.1-10c2.5-0.8,5-1.5,7.5-2.4
			c1.3-0.5,2.8-1.1,2.8-2.8c0-2-1.7-2.4-3.2-3c-2.7-1.1-5.6-0.6-8.3-1.1c-4.5-0.8-9-1.3-13.5-1.6c-7.3-0.7-7.5-0.3-9.3,6.6
			c-1.7,1.8-2,1.8-2.8,0.3c0-3.2,0.2-6.3,0-9.4C420.9,301.7,422.7,302.1,424.4,302.2z"/>
		<path class="st1" d="M430.9,367.6c-6.1-1.5-12.4-2.3-18.2-5c-5.8-2.7-6.3-4.5-3.4-10.4c2.3-4.7,4.9-9.1,6.7-14l0,0
			c1.3-1.6,1.7-3.7,3.4-5.1c5-4,8.8-2.2,10,4.8c-0.2,5.6-1.6,11.2,1.9,16.8c1.5,2.5,4,3.8,5.3,6.3
			C437.1,366.6,436.7,367.1,430.9,367.6z"/>
		<path class="st1" d="M407.4,350.7c-4.2,9.9-4.2,9.9-14.3,7.4c-3.7-0.9-7.3-2-10.9-3c-0.4-1.2-1.7-0.9-2.4-1.6
			c-1.1-1-2.1-2-1.8-3.5c0.4-1.6,1.8-2.7,3.4-2.8c1.2-0.2,2.9,0.2,1-1.7c4.6-1,9.3-1.1,13.9-1.9c1.9-0.1,3.8-0.3,5.7-0.6
			C406.2,343.9,407.8,346.6,407.4,350.7z"/>
		<path class="st1" d="M430.9,367.6c3.4-0.8,5.5-2.5,5.2-6.3c6.3,0.5,11.6-2.3,16.9-5.1c0.8,2.4,2.7,4.3,5,5.1l-15.7,5.6
			C438.6,367.6,434.9,370.1,430.9,367.6z"/>
		<path class="st1" d="M448.7,323.5c1.5,1.2,1.5,1.2-1.1,4.3c-5.2,3.4-11.6,4.1-16.7,7.6c-2.7-0.8-3.3-3.4-4.3-5.5L448.7,323.5z"/>
		<path class="st1" d="M382.2,346.6c0.5,0,1,0.1,1.5,0.2c0.4,0.1,1.2,0.6,0.3,0.8c-8.1,1.7-5.9,4.2-0.6,6.9c0,0-0.1,0.4-0.2,0.4
			c-0.3,0.1-0.7,0.2-1,0.3c-5.1-0.3-9.7-2.2-14.6-3.3c0.9-1.6,3.2-0.3,4.1-2c1.4-1.3-0.7-4.3,2.3-4.8
			C376.5,347.3,379.7,344.9,382.2,346.6z"/>
		<path class="st1" d="M416,338.2c-0.4,5.3-3.7,9.2-5.8,13.7c-2,4.2-2.9,7.9,2.8,9.9c0.1,0,0.1,0.3,0.1,0.5c0,0.1-0.2,0.3-0.3,0.4
			c-8.9-1-9-1.1-5-8.7C410.4,348.6,412.5,343,416,338.2z"/>
		<path class="st1" d="M407.4,350.7c-1.1-2.8-2.1-5.6-5-7.1c4.2-3.5,6.9-4.1,9.7-2.3C410.5,344.5,408.9,347.6,407.4,350.7z"/>
		<path class="st1" d="M426.6,329.9c2,1.2,3,3.2,4.1,5.2c0.8,2-0.5,2.7-2.1,3.2c-2-1.6,0.3-5.9-3.6-6.1c-3.5-0.2-5.8,2-7.4,4.9
			c-0.3,0.5-1.1,0.8-1.6,1.2C416.1,331.2,421.7,330.9,426.6,329.9z"/>
		<path class="st1" d="M412,341.3c-3.8-1.9-6.4,1.6-9.7,2.3l-5.4,0.8c-0.6-0.6-1.6-0.2-2.1-1l15.8-4.2
			C411.7,339.5,413.3,339.4,412,341.3z"/>
		<path class="st1" d="M462.5,317.3c-2.6-2.2,0.4-3.5,0.8-5.3c0.9,1.5,1.4,3.2,1.4,5c-0.1,0.5-0.1,0.9-0.2,1.4L462.5,317.3z"/>
		<path class="st1" d="M286.4,338.3h-4.2c-2-1.3-4.4,0.3-6.3-1.1h-2.1c-1.9-1.3-4.4,0.3-6.3-1.1h-1.1c-2.3-1.4-5.1,0.3-7.4-1.1l0,0
			c-0.5-0.3-0.9-0.4-1.5-0.5c-1.3-0.1-3.2,0.4-3-1.8c0.1-1.8,1.9-1.8,3.2-1.9c9.4-0.6,18.8-0.5,28.2-0.5c21.3,0,42.5,2,63.7,2.4
			c6.4,0.1,13.5,0,18.1,6.3c1.2,1.7,2.7,3.2,2.9,5.4c0.4,4.6-1.3,5.8-5.9,4.6c-16.8-4.5-34-7.1-51.3-7.8c-5.9-0.3-11.7-1.3-17.5-2
			h-4.2C290.1,338,288,339.5,286.4,338.3z"/>
		<path class="st1" d="M370.7,344.6c-5.9-9.9-15.5-10.3-25.5-10.6c-19.6-0.5-39.2-1.4-58.8-2.1c-12.1-1-24.4-0.9-36.5,0.3
			c1.3,0.9,3.8,0.2,3.8,2.8c-5.9,0.1-11.5-1.6-18.5-3.2c7.8-2.8,14.4-1.9,20.9-2.2c2.4-0.1,4.9,0.9,7.1-0.9
			c3.4-2.7,7.4-1.8,11.1-1.3c4.2,0.5,8.3,0.7,12.5,0.7c1.3,0,2.5,0.1,3.7,0.4c3.3,1.1,6.6,0.6,9.9,0.7c5,0.1,10.1-0.3,15.1,0.3
			c3.3,1.2,6.8,0.6,10.2,0.7c7.9,0,15.9-0.1,23.8,0.1c3.4,0.5,6.8,1.3,10.4,1.2c2-0.1,3.9,0.6,5.3,2c3.6,3.4,6.5,7.5,8.6,12
			c-1.6,0.9-0.3,3.3-2,4.2C371.5,348.1,372.5,346,370.7,344.6z"/>
		<path class="st1" d="M508.7,330.9c-1.9-2.1-0.8-4.3-0.1-6.5c-1.1-2.6,0.2-5,0.4-7.4c-2.2,0.1-4.4-0.2-6.6-0.8
			c-9.8-0.2-19.6,1.7-29.5,1.1c-1.4-0.2-3,0.4-4.2-0.9c12.6-0.8,25.3-1.7,38-2.2c8.5-0.1,16.9,0.9,25.1,3.1c0.4,0.2,0.5,0.4,0.4,0.7
			c-0.1,0.2-0.2,0.3-0.4,0.3c-2.9,0-5.6-1.5-8.5-0.9c-2.3,0.7-4.8,0.8-7.1,0.2c-2.2-0.4-3.3,0.5-4,2.3c-0.5,2.6-0.5,5.4-1.1,8
			C510.8,329.1,511,330.9,508.7,330.9z"/>
		<path class="st1" d="M566.7,322.4c-9.8-1.7-19.8-1.9-29.5-4.1c-0.4-0.2-0.5-0.5-0.4-0.7s0.2-0.3,0.4-0.3l8.4,0.9
			c6.6,0.8,13.2,2.2,20,2.3c0.5,0.4,1.1,0.5,1.5,1C567.2,321.7,567,322.1,566.7,322.4z"/>
		<path class="st1" d="M537.2,317.2c0,0.3,0,0.7,0,1.1h-5.3c0-0.3,0-0.7,0-1.1H537.2z"/>
		<path class="st1" d="M566.7,321.4l-1.1-1.1h9.6l-1.1,1.1C571.7,322.2,569.1,322.2,566.7,321.4z"/>
		<path class="st1" d="M421.2,314c0.7,1.2,1.4,0.1,2.1,0l0.5,0.8c0.1,2.6-1.7,3.9-3.8,4.2c-6.1,1.1-12.4,1.1-18.5,0.1
			c-1.2-0.2-2.2-1.1-2.7-2.2c-0.2-0.6-0.1-1.3,0.3-1.8l1.1-1.1c0.8,0.1,1.6-0.2,2-0.9c5.4-2.5,11.6-2.5,17,0
			C419.6,313.8,420.4,314.1,421.2,314z"/>
		<path class="st1" d="M419.2,313.1h-17V313c-0.9-2.1-0.8-4.4,0.2-6.4c2.2-0.3,2.5,2,3.9,2.9c2.4,1.6,7.5,1.4,9.2-0.4
			c2.1-2.3,1.5-7.6-1.2-10.7c-1.3-1.3-4.2-0.3-4.5-3.2c10.4-0.5,10.5-0.5,10.3,9.8C420.1,307.7,421.1,310.6,419.2,313.1z"/>
		<path class="st1" d="M403.3,306.6c-1.9,1.9-0.7,4.2-1.1,6.3c-1.6-5.6-1.7-11.5-0.1-17l0.6,0.5c0.7,1.5,1.2,3,1.6,4.6
			C404.7,303,405,305,403.3,306.6z"/>
		<path class="st1" d="M409.8,295.2c1.3,1.8,4,0,5.2,2c-2.4,2.1-5.1,1.3-7.8,1.1c-1.7-0.5-3.5-0.9-4.8-2.1l-0.1-0.2
			C404.5,294.3,407.2,295.4,409.8,295.2z"/>
		<path class="st1" d="M400.1,304.5c-2.2-1.1-2.5-4.2-5.3-4.5c0.1-0.1,0.1-0.4,0.2-0.4c0.3-0.1,0.7-0.2,1-0.3
			C400.5,298.5,400.4,301.4,400.1,304.5z"/>
		<path class="st1" d="M607.8,375.3c1.8-2.2,3.1-4.7,4-7.4C615.4,373,612,374.4,607.8,375.3z"/>
		<path class="st1" d="M566.7,321.4h7.4c0,0.3,0,0.6,0,1h-7.4C566.7,322,566.7,321.7,566.7,321.4z"/>
		<path class="st1" d="M512.9,322.5c2.5-3.6,6.3-3.6,9.9-3.1c12.9,1.6,25.8,3.6,38.8,4.9c7.3,0.7,14.8,1,22-0.4
			c4.4-0.8,7.5,1.1,9,4.6c5.4,12.1,10.5,24.4,15.4,36.7c2.4,6.2-2.9,11.9-9.5,10.8c-1.1-0.2-1.9-0.9-2.4-1.9c1.4-1.7,3.5-1,5.3-1.5
			c2.4-0.7,5.3-1.1,4.3-4.9c-0.5-0.8-0.8-1.6-1.1-2.6c-0.2-1.8-0.7-3.5-1.5-5.1c-0.2-0.4-0.4-0.8-0.5-1.2c-0.4-1.5-1.1-2.9-2.1-4.1
			c-0.6-0.7-1-1.5-1.1-2.4c-0.2-1.8-0.7-3.5-1.5-5c-0.2-0.4-0.4-0.8-0.5-1.2c-0.4-1.5-1.1-2.9-2.2-4.1c-0.6-0.7-1-1.6-1.1-2.5
			c-0.1-1.8-0.7-3.5-1.9-4.8c-0.6-0.7-1-1.5-1.2-2.4c0-1.6-0.8-3-2.2-3.9c-0.6-0.4-1.3-0.8-1.9-1.1c-4.2-0.4-8.4-0.3-12.5,0.4
			c-5.8,1.1-11.4-0.7-17.1-1.2c-13-1.2-25.8-3.8-38.8-4.2c-0.4,0.2-0.9,0.5-1.2,0.8c-1.8,1.1-1.9,3-2.2,4.9
			c-0.1,0.5-0.2,0.9-0.4,1.4c-0.4,1.7-0.6,3.4-0.8,5.1c-0.1,0.5-0.3,1.1-0.4,1.6c-0.5,3.3-1.3,6.5-1.9,9.8c-0.8,4.4,0.3,5.8,4.9,5.7
			c10.8-0.1,21.5-1.9,32.3-2.6c8-0.5,15.9-2.3,24-1.3c3.2,1,5.9,3,7.8,5.7c0.4,0.7,0.5,1.5,0.3,2.3c-0.2,0.2-0.3,0.4-0.5,0.6
			c-2.8-1.3-3.8-5-7.3-5.3c-15,1.3-30,2.6-44.9,4.2c-4.1-0.1-8.3,0.1-12.3,0.7c-0.9,0.2-1.7,0.2-2.6,0.1c-2-0.5-3.9-1.1-5.1-3
			c-1.1-2.7-0.7-5.5-0.5-8.3c0.1-0.5,0.2-1.1,0.3-1.6c0.7-1.8,0.4-3.8,0.5-5.7C509.9,332.4,509.5,326.9,512.9,322.5z"/>
		<path class="st1" d="M513,355.1h2c4.1-1.4,8.6,0.5,12.7-1.1c10.5-1.1,21-2.4,31.5-3c4.6-0.3,9.2-2.8,13.8-0.1c0,0.4,0,0.8,0,1.2
			c-9.5,1.3-19,1.1-28.5,3c-3.9,0-7.8-0.2-11.6,1.1l-7.4,0.2c-5.6,0.1-11.2,1.5-16.9,0.7c-0.3-1,0.2-2.1,1.2-2.4c0,0,0.1,0,0.1,0
			C511.1,354.7,512.1,354.4,513,355.1z"/>
		<path class="st1" d="M513,355.1h-3.2c-2.5,1.1-3.6-0.3-3.8-2.5c-0.1-1.3,0.3-2.8-0.7-3.9c0.6-5.7,1.7-11.3,3.5-16.7
			c0-0.3,0-0.7,0-1.1c2-3.6,1-8.1,3.1-11.7c0.9,0.5,0.3,1.6,1.1,2.1c0,0.4,0,0.7,0,1.1c-1.8,5.1-2.9,10.4-3.2,15.8
			c-1.3,1.6,0.2,3.7-1.1,5.3l0,0c-0.9,3.1-0.9,6.4,0,9.5L513,355.1z"/>
		<path class="st1" d="M593,370.9c-5-4.2-9.2-9.2-12.6-14.8l0.1-0.1c1.7-0.6,2.7,0.7,4,1.3c3.2,3.7,7.3,6.7,9.2,11.4
			C593.9,369.6,593.6,370.4,593,370.9z"/>
		<path class="st1" d="M593,370.9c0-0.7,0-1.4,0-2.1c0.6-0.3,1.4-0.3,1.9,0.1c6.8,3.7,7,3.6,11.7-2.2c3,5-1.4,5.9-4.4,7.1
			c-1.8,0.7-4.1,0.2-6.2,0.3C594.8,373.4,593.7,372.3,593,370.9z"/>
		<path class="st1" d="M512.9,321.3c-0.9-0.4-1-1.3-1.1-2.1c-0.1-2.5,1.1-3.9,3.4-2.8c2.7,1.2,5.4,0.5,8.1,0.9c-1.8,1.7-4,0.8-6,0.9
			C515.2,318.3,513.2,318.6,512.9,321.3z"/>
		<path class="st1" d="M508.7,332l-3,17c0.3,0.4,0.2,0.7-0.3,0.9c-0.4,0-0.7,0-1.1,0C505.5,343.8,505.1,337.4,508.7,332z"/>
		<path class="st1" d="M505.5,349.8c0.1-0.3,0.2-0.6,0.3-0.9c1.9,1.7-0.3,6.1,4,6.2l-1.1,1.9C501,357.6,505.7,352.6,505.5,349.8z"/>
		<path class="st1" d="M498.3,357.1c1.2-1.2,1.9-3.5,4.3-1.9C502.1,358.1,499.9,357,498.3,357.1z"/>
		<path class="st1" d="M493.1,319.3h4.2c8.6,0,9.7,1.4,7.9,9.9c-1.3,6.3-2.9,12.6-3.8,19c-0.7,4.9-3.5,6.9-7.7,6.8
			c-9.9-0.1-19.4,1.5-29.1,3.2c-8.1,1.4-9.7-0.4-7.5-8.3c1.2-4.5,1.1-8.1-2.4-11.5c-1.7-1.8-2.7-4.1-3-6.6c-0.6-4.2,0.4-6.9,5-8.2
			c6.6-1.8,13.1-3.7,20-3.2C482.7,320.7,488.4,318.6,493.1,319.3z"/>
		<path class="st1" d="M428.5,338.2l2.1-3.2c4.7-4.6,10.7-6.1,16.9-7.3c1,2.4,2.4,4.6,1.3,7.7c-0.8,2.2,2.5,2.9,3,4.9
			c-4,1.1-5.2-1.6-6-4.6c0.3-5.1,0.3-5.1-6.6-2.6c-7.3,2.6-11.1,10.7-8.4,18c0.7,2.1,2,3.9,3.6,5.4c4,3.9,10.4,3.7,14.3-0.3
			c1-1.1,1.8-2.3,2.3-3.7c1.3-3.9,1.7-8.1,1-12.2c3.5,0.6,4.4,2.5,3.3,5.9c-1.1,3.2-1.5,6.6-2.1,10c-4.9,5.6-10.4,7.3-16.9,5.1
			C428.9,357.9,425.1,346.9,428.5,338.2z"/>
		<path class="st1" d="M502.5,316.2c0.5,0,1.1,0,1.6-0.1c4.8-0.7,7.6,0.1,4.8,5.7c-0.2,0.8-0.3,1.7-0.2,2.6
			C507.7,320.8,507,317.2,502.5,316.2z"/>
		<path class="st1" d="M218.4,313c-39.7,0-79.4,0-119.1,0c-2.2,0-6,1.3-6.2-1.9c-0.1-3.5,3.8-2.1,5.9-2.1
			c79.9-0.1,159.8-0.1,239.7,0c2.1,0,6-1.4,5.9,2.2c-0.1,3.2-4,1.9-6.2,1.9C298.5,313,258.4,313,218.4,313z"/>
		<path class="st1" d="M248.4,299.2h16.9c-0.3,2.7-2.4,2-4,2.1c-4.4,0.2-8.7-0.1-13.1,0.2c4.5-0.3,9.1-0.3,13.6-0.1
			c1.2,0,2.5,0.3,2.5,2l0,0c-12.6-0.4-25.4,0.8-38.9-0.9c3.2-3.2,6.3-1.9,9.2-2.3c3.2-0.4,6.6,1.1,9.7-1.1L248.4,299.2z"/>
		<path class="st1" d="M197.8,322.4h-2.1c-2.9-1.1-5.9-0.3-8.8-0.5c-1.3-0.1-2.7-0.5-2.8-1.8c-0.1-1.9,1.7-1.1,2.8-1.3
			c1.5-0.2,3.2,0.4,4.6-0.6c52.7-2.1,105.4-0.6,158.1-1.1v1.1c-0.5,0.5-1.1,0.9-1.7,1.1c-2.6,0.4-5.2,0.5-7.9,0.4
			c-33,0-65.9,0-98.9,0c-12.2-0.1-24.4-0.3-35.1,0.8c2.6,0.5,6.8,0.3,11,0.7c0.6,0.1,1.1,0.3,1.6,0.7c0.5,0.3,0.7,1,0.6,1.5
			c-0.5,0.7-1.5,0.8-2.2,0.2c0,0-0.1-0.1-0.1-0.1h-10.5C203.6,322.1,200.5,323.8,197.8,322.4z"/>
		<path class="st1" d="M191.5,318.2c-1.8,2-4.4,0.4-6.8,1.6c3.3,3.5,8-0.2,11,2.6h-11.6c-1.3-2.2-5.9,0-5.3-2.7
			c0.6-3,4.5-1.2,6.9-1.5C187.7,318.1,189.6,318.1,191.5,318.2z"/>
		<path class="st1" d="M264.2,303.5c-3.9-2.2-8.2-0.6-12.3-1.1c-1.9-0.2-3.7,0-6,0c2-2.7,4.4-1.9,6.5-2.1c4.2-0.5,8.7,1.1,12.8-1.1
			c12.6,0.6,25.3-1.8,37.9-1.1c0.3,0.5,0.2,1.2-0.3,1.6c0,0,0,0,0,0c-0.5,0.3-1,0.6-1.6,0.7c-8.9,0.1-17.7,0.8-24.7,0.9
			c6.3,0,14.5-0.7,22.8-0.5c7.4,0.4,14.8-0.9,22,0.9c0.6,0.4,0.9,1,0.8,1.7L264.2,303.5z"/>
		<path class="st1" d="M350.6,303.5l-1-0.1c-0.9-0.8-2.1-0.5-3.1-0.9c-2.9-0.3-5.9,0-8.8-0.2c-1.2-0.1-2.6,0-2.8-1.6
			c-0.1-1.2,1-1.7,1.9-2.2c1.1-0.3,2.3-0.4,3.5-0.3c3.3-0.2,6.6,0.4,9.8-0.5c4.4,0.3,8.9-0.8,13.3,0.7c-1.2,3.3-4.2,2.1-6.4,2.2
			C354.3,300.6,352,300.9,350.6,303.5z"/>
		<path class="st1" d="M350.6,303.5c-0.8-3,0-4.5,3.4-4.3c3.1,0.2,6.2,0,9.3,0c1.1-1.1,2.5-1.1,3.9-0.8c1.8,1,3.7,0.9,5.7,0.9
			c1.1-0.1,2.3,0.2,3.2,0.9c0.2,0.5,0.1,1.1-0.3,1.6c-2.6,1.6-5.4,1.3-8.1,0.7c-5.5-1.1-10.9-2-15,3.2l-2-1.1
			C350.7,304.2,350.6,303.9,350.6,303.5z"/>
		<path class="st1" d="M347.5,302.4c0.8-0.1,1.7,0.3,2.1,1.1h-27.4c0-0.3,0-0.7,0-1.1l0.7-0.7c1.7-0.9,3.7-1.2,5.6-0.8
			C334.8,301.7,341.2,301.7,347.5,302.4z"/>
		<path class="st1" d="M352.7,305.6c1.7-5.3,4-6.6,11.9-5.1c3.7,0.6,7.5,0.9,11.3,0.9c1.9-1.5,4-1.1,6.1-0.6
			c2.8,1.3,5.8,0.4,8.8,1.1c4.3,1.1,6.2,3.6,6.2,7.8c0,1.7-0.3,3.5,0.7,5.1c0.7,2.9,2.8,3.9,5.4,3.9c4.9,0.1,9.8,0.1,14.7,0
			c3.8-0.1,6.1-1.8,6.6-5.9c0.7-5.3,2.7-6.8,7.8-6c5.9,0.9,11.8,1.1,17.7,2.3c2.6,0.5,6.3,0.1,6.4,3.9c0,3.4-3.4,3.5-5.8,4.2
			c-10.7,3.3-21.6,5.9-32.2,9.5c-0.5,0.3-1,0.5-1.5,0.8c-1,0.2-2,0.9-2.5,1.8c-3.2,6.1-9.1,7.8-15,9.4c-3.9,1.1-7.9,1.3-11.9,1.9
			c-6.8,1-12.6-0.5-17.1-6.3c-2.1-2.8-4.8-5.1-8-6.5c-4.2-1.3-8.5-0.3-12.8-0.6c-1.8,0-3.6-0.1-5.4-0.4c-4.1-1.2-8.4-0.4-12.6-0.6
			c-2.8,0.1-5.6,0-8.3-0.4c-2-0.6-4.1-0.8-6.2-0.8c-1.5-0.1-3.7,0.1-4.1-1.6c-0.6-2.3,1.9-2.4,3.3-3.1c10.4-0.7,20.7-0.3,31.1-0.3
			c0.9,0,1.8,0.2,2.6,0.6c1.8,2.2,4.2,2.8,7,2.6c7.3-0.6,12.9,2.2,17,8.2c2.9,4.2,6.3,5.7,11.6,4.8c7.7-1.3,15.7-1.1,22.3-6.2
			c4.2-7.2,12.1-7.8,18.8-10.3c6.4-2.4,13-4,20.1-6c-4.7-1.5-9.2-1.3-13.5-2.1c-2.5-0.4-3.9,0.9-4.7,3.2c-1.8,5.1-6,7-10.9,7.7
			c-4.5,0.6-9.1,0.6-13.6,0.2c-7.1-0.5-10.7-4.2-11.5-11.3c-0.2-2-0.2-3.9-2.6-4.6c-9.3-1.9-18.7-2.2-28.1-3.5
			c-3.2-0.4-3.9,1-3.7,3.9c0.2,3.9,1.4,8.1-2.4,11.2c-1.9,0.3-1.4-1.3-1.9-2.2v-1.1c1.4-2.8,1.6-5.6-0.1-8.4c-0.3,0-0.6,0-1-0.1
			C352.8,306.3,352.7,305.9,352.7,305.6z"/>
		<path class="st1" d="M348.6,318.2h1.1h2.1c0,3.2-2.4,2.5-4.2,2.6c-20.7-0.7-41.4,1.5-62.2,1.1c-7.8-0.4-15.6,0.4-24.3-0.7
			c2.3,0.6,4.8-0.1,3.8,2.9c-3.9,1.5-8,1.2-11.9,0.4c-3.9-0.8-7.7-0.2-11.5-0.9c-1.6-0.3-3.5-0.9-3.5-2.6c0.1-2.1,2.3-1.6,3.7-1.7
			c3.2-0.2,6.3,0.3,9.4-0.5c30.6-0.1,61.2,0,91.8-0.1C344.8,318.7,346.8,319.2,348.6,318.2z"/>
		<path class="st1" d="M348.5,320.3c1.4,0,2.7-0.8,3.2-2.1l2.2-2.1c0.7,0.5,1.1,1.3,1,2.1c0,2.9-1.2,4.3-4.2,3.2h-2.1
			c-0.3-0.2-0.5-0.5-0.3-0.7S348.4,320.3,348.5,320.3z"/>
		<path class="st1" d="M353.8,306.7c3.6,2.8,3.3,5.6,0.1,8.4c0-0.4-0.1-0.7-0.1-1.1c0.9-2,0.9-4.3,0-6.3
			C353.8,307.3,353.8,307,353.8,306.7z"/>
		<path class="st1" d="M353.8,307.7c1.6,1.8,1.6,4.5,0,6.3C353.8,311.9,353.8,309.8,353.8,307.7z"/>
		<path class="st1" d="M78.7,316c-9.8-0.8-18.1-1.4-26.4-2.1c-1.7-0.1-3.8-0.5-3.8-2.7c0-1.9,1.5-3.2,3.4-3.4
			c8.9-1.1,17.9-2.4,26.9-3.1c3.3-0.3,5.4,1.7,5.4,5.6C84.2,315.3,81,315.9,78.7,316z"/>
		<path class="st1" d="M253.7,335.1l-8.7-2.7c0.6-1.6,1.9-1.5,3.1-1.5h35.5c1.1-0.1,2.1,0.3,2.8,1.1h-31.2c0.6,2.9,3.2,1.5,3.8,3.2
			L253.7,335.1L253.7,335.1z"/>
		<path class="st1" d="M259,335.1c2.5,0.4,5.2-0.9,7.4,1.1C263.9,335.7,261.2,337.1,259,335.1z"/>
		<path class="st1" d="M267.4,336.1c2.1,0.3,4.5-0.8,6.3,1.1C271.6,336.9,269.3,338,267.4,336.1z"/>
		<path class="st1" d="M275.8,337.2c2.1,0.3,4.5-0.8,6.3,1.1C280.1,337.9,277.7,339.1,275.8,337.2z"/>
		<path class="st1" d="M286.4,338.3c1.8,0.2,3.8-0.7,5.3,1.1C289.9,339.1,287.9,340,286.4,338.3z"/>
		<path class="st1" d="M287.4,329.7c-8.1,0.7-16.1-1.7-24.2-0.8c-10.9,0.2-21.7-1.8-32.7-1.1l-5.2-0.2c-0.4-0.1-0.6-0.3-0.5-0.5
			c0.1-0.2,0.2-0.4,0.3-0.4c0-0.3,0-0.7,0-1c2.9-2.6,6.3-1.8,9.5-1.3c3.3,0.5,6.6,0.8,9.9,0.7c12.7-0.3,25.4,1.5,38.2,1.3
			c1.5,0.2,3,0.8,4.3,1.7C287.6,328.5,287.7,329.2,287.4,329.7z"/>
		<path class="st1" d="M225.2,326.7c0,0.3,0.1,0.6,0.1,0.9c-3.6-0.2-7.2,0.9-10.7-0.8L225.2,326.7z"/>
		<path class="st1" d="M284.2,327.8l-58.9-2c-6.3-0.7-12.8,0.9-19.1-1.1c3.5-0.6,7.3,1.1,10.6-1.1h2.1c2.4-2,5.4-1.7,8-1.3
			c8,1.3,16,1.2,24,1.4c0.7,0.1,1.3,0.3,1.9,0.5c4.3,0.7,8.7,0.8,13,0.2c8.9-1,17.7,1.2,26.6,1.1c0.9,0,1.7,0.4,2.3,1.1
			c-0.1,2.5-2,2.4-3.6,2.3C288.8,328.7,286.4,328.4,284.2,327.8z"/>
		<path class="st1" d="M197.8,322.4c2.8,0.4,5.8-1.1,8.4,1.1C203.5,323,200.4,324.5,197.8,322.4z"/>
		<path class="st1" d="M383.4,279.3c-0.1,3.8,0.8,8.2-5.1,8.3c-5.6,0.2-7.7-2.5-7.6-9.8c0-5.4,1.5-6.9,6.7-7
			C382.5,270.7,383.4,272.1,383.4,279.3z"/>
		<path class="st1" d="M360.1,284.5h-1.1c-0.3-0.3-0.5-0.7-0.4-1.1c0.4-0.8,0.9-1.5,1.4-2.1c0.2-0.4,0.4-0.7,0.6-1.1
			c0.5-1.3,0.2-2.7-0.7-3.7c-0.9-1-2-1.6-3.3-1.9c-21.9-0.3-43.7,0.2-65.6-0.3c-1-0.1-2-0.6-2.6-1.3c0.9-1.1,2.1-1.1,3.4-1.1
			c21.6,0,43.2,0,64.8,0c2.9,0,6.2,0.4,6.4,3.9C363.2,278.8,365.5,283.1,360.1,284.5z"/>
		<path class="st1" d="M288.5,272.9h2.1c0.3,0.4,0.4,0.9,0.3,1.4c-1.1,2.1-3.3,4.1-0.7,6.6c2.1,1.4,4.4,1.1,6.7,1.1
			c18.4,0,36.9,0,55.3,0c2.4,0,5-0.6,7,1.5c0,0.3,0,0.7,0,1.1h-69.6C284.3,280.1,284,277.5,288.5,272.9z"/>
		<path class="st1" d="M448.7,270.8c4,0.4,7.8,1.1,8.3,6.2c0.5,4.6,0.2,8.9-5.2,10.7c-17.8,3-35.7,3.9-53.6,4.2
			c-6.7,0.1-7.5-0.8-7.5-7.6c0-3.9,0-7.7,0-11.6c0-5.8,1.4-7.5,7.1-7.1c8.2,0.5,16.3,1.7,24.4,2.5C431,269,439.8,269.9,448.7,270.8z
			"/>
		<path class="st1" d="M367.5,299.3h-4.2c-4.4-2.3-9.2-0.5-13.7-1.1c-3.1,1.1-6.3,0.2-9.4,0.5c-5.9,1.1-11.9,0.6-17.7,1.6
			c-0.9,0.2-1.9,0.3-2.9,0.4c-5.4-0.6-11.1,1.5-16.3-1.4c0-0.3,0-0.7,0-1.1c19.8-0.8,39.7-1.4,59.6-1.1c4.8,0,9.6,0.7,14.2,2.1
			c-1.3,1-2.9,0.3-4.3,0.5C371,299.6,369.2,300.2,367.5,299.3z"/>
		<path class="st1" d="M397,315.1c-0.8-0.7-1.2-1.8-1.1-2.8c-0.6-8.7-1.3-9.3-10.4-9.8c-1.2-0.1-2.5,0.1-3.4-1.1
			c-0.1-0.2-0.3-0.4-0.4-0.6l0.4-0.5c1.6,0,3.2-0.1,4.7,0c8.3,0.7,11.5,2.4,11.1,10.8c-0.1,1.3,0.7,2.6,1.1,4c0,0.3,0,0.7,0,1.1
			C397.9,316.8,397.6,315.6,397,315.1z"/>
		<path class="st1" d="M339,294.9l25.2,0.2c-9.4,1.5-18.9,1.5-28.2,0L339,294.9z"/>
		<path class="st1" d="M372.8,299.3h4.2c1.8,0.3,3.8-0.6,5.3,1.1v0.1c-2,0.8-4.3,0.8-6.3,0h-3.2c-0.3-0.2-0.5-0.4-0.3-0.7
			C372.6,299.5,372.7,299.3,372.8,299.3z"/>
		<path class="st1" d="M362.3,358.3l3.1,0.1c1.5,1.7,2.7,3.4,1.6,5.8c-2.3,3.4-4.7,6.9-6.9,10.4c-2.1,3-4.6,5.7-6.3,9
			c-2.2,4.2-5.6,5-9.7,3.6c-5.2-1.7-10.5-2.8-15.7-4.4c-5.5-1.7-6-2.9-3-7.7c0.9-1.5,2-2.9,3.2-4.2c2.2-4.9,5.1-9.5,8.6-13.7
			c2.2-3.1,5.2-4,8.7-2.6c2.3,0.9,4.8,0.7,7.1,1.5l3.1,0.1C357.6,358.3,360.3,357.2,362.3,358.3z"/>
		<path class="st1" d="M328.5,370.9c0,0.4,0,0.7-0.1,1.1c-4.4,8.4-4.4,8.4,4.8,11.3c15.7,4.8,15.7,4.8,25.7-8.2
			c0.4-0.4,0.8-0.7,1.3-0.9c0.3,0.2,0.4,0.5,0.3,0.7c-0.1,0.2-0.2,0.4-0.3,0.4c-2,3.2-4.3,6.3-6,9.7c-2.2,4.3-5.6,4.6-9.7,3.5
			c-5.5-1.6-11-3.2-16.5-4.7c-6.5-1.7-7.2-3.3-3.3-8.9C325.6,373.3,326.2,371.1,328.5,370.9z"/>
		<path class="st1" d="M352.8,356.1c-2.4,0-4.8,0.2-7.1-0.7c-3.2-1.3-5.9,0.8-8.7,1.9c0-2.2,1.4-3.3,3.1-4.2c1.6,1.2,3.7-0.2,5.3,1
			C348,354.1,350.5,354.9,352.8,356.1z"/>
		<path class="st1" d="M360.1,375.1c0-0.4,0-0.7,0-1.1c1.3-3.6,3.5-6.9,6.3-9.5c0.3-0.5,0.7-0.5,1.1,0L360.1,375.1z"/>
		<path class="st1" d="M367.5,364.6h-1.1c0.4-2.2-0.6-4.2-1.1-6.2C369,359.5,369.3,361.7,367.5,364.6z"/>
		<path class="st1" d="M362.3,358.3c-2.1-0.6-5.2,1.6-6.4-2C358,356.8,360.4,356.8,362.3,358.3z"/>
		<path class="st1" d="M345.4,354c-1.8-0.2-3.8,0.7-5.3-1C341.9,353.2,343.9,352.3,345.4,354z"/>
		<path class="st1" d="M284.2,327.8c3.5-0.6,7.3,1.1,10.6-1.1c3.5-2.6,7.5-1.7,11.1-1.2c4.4,0.6,8.7,0.5,13,0.8
			c13.4,1,26.8,0.8,40.2,1.7c6.5,0.4,9.5,5.3,13.7,8.7c2.8,3.2,6.2,4,10.4,3.7c8-0.6,15.9-1.3,23.6-4.3c3.2-1.2,4.5-4.9,8.1-5.3
			c-3.4,8.4-11.3,8.9-18.5,10.5c-4.7,1.1-9.7,1.1-14.4,2.2c-4.3,1.1-6.7-2.7-10.3-3.1c-2,0.3-2.7-1.2-3.5-2.5c-2.3-4.3-7-6.7-11.8-6
			c-2.3,0.2-4.5-0.7-6.7-0.5c-8.1,0.3-16.3-0.4-24.4-0.5c-7.8,0-15.5-0.7-23.2-1.1c-4.9-0.1-9.9,0.5-14.7-1.1
			C286.3,328.7,285,328.9,284.2,327.8z"/>
		<path class="st1" d="M414.9,330.8c-10.1,10.6-23.4,10.1-36.3,10.6c-2.7,0.1-3.8-2.3-5.8-3.2c-4.9-7.6-11.9-10.3-21-10.2
			c-21.2,0.3-42.3-2.1-63.5-2c-1.7,0.1-3.5-0.3-5-1.2c-0.4-0.5-0.4-1.3,0.1-1.7c3.1-1.9,6.6-1.6,9.7-0.9c5.7,1.1,11.5,0.7,17.2,1
			c2.4,0.7,5,1.1,7.5,1c4.6,0.9,9.4,1.2,14.1,1c4.1,0.3,8.3-0.6,12.4,0.5h5.3c4.5,1.5,9.2-0.4,13.7,1.1c3.6,1.3,6.2,4.1,8.4,7
			c3.7,4.7,8.3,6.6,14.2,5.7c6.3-0.9,12.8-1.1,18.9-3.7c3.2-1.4,6-2.6,7.8-5.8c0.9-1.6,2.3-3.2,4.5-3.2c0.6,1.2-0.5,1.5-1.1,2.1
			C415.7,329.5,415.3,330.2,414.9,330.8z"/>
		<path class="st1" d="M416,328.8l1.1-2.1l0,0c11-3.9,22.4-6.5,33.5-10c2.3-0.7,6.2-0.5,6.1-3.8c-0.1-3.5-4-2.7-6.3-3.2
			c-6.2-1.2-12.5-1.2-18.7-2.5c-3.5-0.7-5.7,0.7-6.6,4.2c-0.3,1,0.5,2.7-1.6,2.6l-0.1-0.1c0.2-8.1,0.7-8.8,8.9-8.3
			c7.3,0.4,14.6,1.3,21.8,2.4c2.6,0.4,5.9,1.1,6.1,4.7c0.2,3.7-3,3.9-5.4,4.6C441.8,321.2,428.9,325,416,328.8z"/>
		<path class="st1" d="M350.6,331c9.3-1.9,15.9,2.1,21.1,9.4c2.8,6.6,8.4,4.7,13.3,3.9c3.2-0.5,6.5-0.8,9.8-0.9l2.1,1
			c-5,0.5-10,0.6-14.8,2.2c-2.8-0.2-5.8,0.9-8.4-1c-2.8-3.4-5.7-6.6-8.4-10.1c-1.5-2-4-3-6.4-2.7c-2.8,0.2-5.6-0.1-8.3-1
			c-0.3-0.2-0.5-0.4-0.3-0.6C350.4,331.1,350.5,331,350.6,331z"/>
		<path class="st1" d="M425.5,338.6c-3,7.1-0.2,14,3.3,20.9c1.4,2.8,0.1,4.3-2.6,3.8c-4.3-0.8-8.5-1.9-12.6-3.4
			c-2.1-0.6-3.3-2.8-2.7-4.9c0-0.1,0.1-0.2,0.1-0.3c2.4-6.6,5.5-12.9,9.2-18.8c0.8-1.5,2.6-2.1,4.1-1.4
			C425.5,335.3,425.5,336.7,425.5,338.6z"/>
		<path class="st1" d="M397.7,347.8c2.5,0,4.5-0.3,5.3,1.8c0.8,2.3-1.1,3.5-2.5,4.7c-0.7,0.5-1.5,0.8-2.4,0.9c-4,0.6-11.9-2.6-11-4
			C389.8,347,394.9,349.7,397.7,347.8z"/>
		<path class="st1" d="M289.3,335c6.1-1.1,12.3-1.3,18.4-0.6c2.2,0.4,4.5,0.6,6.8,0.6c13.9-0.6,27.7,1.3,41.5,1.2
			c5.3,0,8.8,3,11.1,7.5c0.4,0.9,1.3,1.8,0.6,2.9c-0.7,1.1-2.1,1.1-3.3,0.9c-4.4-1-8.9-1.9-13.3-3.1c-12.2-3.4-24.9-3.2-37.3-5.1
			C305.7,338,297.3,338.1,289.3,335z"/>
		<path class="st1" d="M350.6,331c0,0.3,0,0.6,0,0.9l-25.1-0.1c-0.4-0.1-0.6-0.5-0.7-0.9c0-0.4,0.2-0.8,0.6-1.1
			C333.8,330.3,342.2,330.7,350.6,331z"/>
		<path class="st1" d="M325.4,330c0,0.3,0,0.7,0,1c-3.1,0.7-6.3,0.7-9.4,0l-15.7-0.1c-0.4-0.1-0.6-0.5-0.5-0.9c0,0,0-0.1,0.1-0.1
			c0.6-0.7,1.7-0.3,2.4-0.9C309.8,330,317.6,329.7,325.4,330z"/>
		<path class="st1" d="M302.1,328.9l-2.1,0.9c-3.1,0.7-6.3,0.7-9.3,0.1l-3.2-0.3c0-0.3,0-0.6,0-1
			C292.3,328.8,297.2,328.9,302.1,328.9z"/>
		<path class="st1" d="M290.6,330l9.3-0.1c0.1,0.3,0.1,0.6,0.2,1C297,330.5,293.7,331.8,290.6,330z"/>
		<path class="st1" d="M315.9,331h9.4c0,0.3,0.1,0.6,0.2,0.9C322.3,331.6,319,332.9,315.9,331z"/>
		<path class="st1" d="M423.4,314c3.3-8.2,3.3-7.9,12.6-6.6c6,0.8,12.2,1.1,18.1,2.2c1.8,0.4,3.6,0.6,3.8,2.9c0.3,2.3-1.5,3-3.2,3.5
			c-12.6,3.6-25.2,7.1-37.8,10.7c6.8-4.3,14.9-4.8,22.2-7.4c4.6-1.6,9.4-2.8,14.1-4.2c1.2-0.4,2.5-0.8,2.3-2.4
			c-0.2-1.2-1.2-1.6-2.3-1.8c-7.6-1.1-15.2-2.2-22.8-3.2c-3.2-0.4-4.5,1.9-4.8,4.4c-0.8,5.5-4,7.3-9.2,7.1
			c-4.4-0.1-8.8,0.1-13.2-0.1c-2.9-0.1-5.7-0.5-6.3-4.2l2.1,1.1c7.2,3.9,14.6,2.3,22,1.1C422.5,316.7,423.5,315.5,423.4,314z"/>
		<path class="st1" d="M417.9,315.9h-15.4c0-0.2,0-0.4,0-0.5h15.4L417.9,315.9z"/>
		<path class="st1" d="M406.5,297.1h8.4c4.9,2.8,3.4,7.3,2.6,11.1c-0.7,3.6-4.1,3.6-7.2,3.6c-3.8,0-6.5-1.1-7-5.3c0-2.1,0-4.2,0-6.3
			c0-0.2,0.1-0.5,0.1-0.7c0.2-1.2,1.2-2.1,2.4-2.4L406.5,297.1z"/>
		<path class="st1" d="M402.3,296.1c1.5,0.1,3.1-0.5,4.2,1.1l0,0c-1.6,0.3-2.8,1.6-3.2,3.2l0,0C401.8,299.2,402.4,297.6,402.3,296.1
			z"/>
		<path class="st1" d="M606.7,366.7c-1.3,6.3-6.5,8.2-11.2,4c-0.8-0.7-1.6-1.3-2.4-1.9l-9.5-10.5c-1-1.4-2.1-2.8-3.2-4.2l-6.3-5.3
			c-4.8-1-9.7-1-14.4,0.1c-4.4,1.1-9,0.7-13.5,1.1c-10.1,0.8-20,2.5-30.2,2.5c-5.1,0-6.6-1.5-5.4-6.2c1.1-4,1.5-8.2,2.4-12.2l0,0
			c1.3-1.6-0.2-3.7,1.1-5.3l0,0c1.1-2,0.2-4.6,2.1-6.3c4.8-3.2,9.8-0.4,14.6,0c7,0.6,14.1,1.4,21,2.7c5.1,0.9,10.3,0.8,15.4,1.9
			c2.7,0.6,5.6,0.5,8.3-0.2c4.4-1,9-1,13.4-0.1l1.1,1.1c1.2,1.2,1.3,2.9,2.1,4.2c-0.1,0.8,0.3,1.7,1.1,2.1c1,1.6,1.2,3.6,2.1,5.3
			c-0.1,0.8,0.3,1.7,1.1,2.1c1,1.6,1.2,3.6,2.1,5.3l0,0c0.9,1.7,1.2,3.6,2.1,5.3c-0.1,0.8,0.3,1.7,1.1,2.1c1,1.6,1.2,3.6,2.1,5.3
			l0,0c0.9,1.7,1.1,3.6,2.1,5.3C605.6,365.5,606,366.3,606.7,366.7z"/>
		<path class="st1" d="M513,334c0.3,4.2-0.9,8.3-1.8,12.4c-0.9,3.7,0.3,5.9,4.5,5.6c10.4-0.9,20.8-1.8,31.2-2.6
			c8.3-0.6,16.6-2,25-1.5c0.8,0.2,1.6,0.6,2.3,1.1c-12.8-0.3-25.3,1.9-37.9,2.8c-7.1,0.5-14.2,1.7-21.4,1.5
			c-4.1-0.1-5.5-1.9-4.8-5.5C510.7,343,511,338.3,513,334z"/>
		<path class="st1" d="M588.8,326.7c-23,2.4-45.5-2.6-68.1-5c-1.5-0.2-3.1,0.5-4.6,0.7c1-2.2,2.9-2.2,4.9-2c16,2,31.9,4.2,47.9,6.1
			c5,0.6,10-1.6,15-1C585.6,325.8,587.5,325,588.8,326.7z"/>
		<path class="st1" d="M527.7,354c-4.1,2.2-8.4,0.5-12.7,1.1C519.1,353,523.5,354.5,527.7,354z"/>
		<path class="st1" d="M508.7,353c-1.7-2.9-1.7-6.6,0-9.5C508.8,346.7,508.7,349.8,508.7,353z"/>
		<path class="st1" d="M516.1,322.4c-0.7,2.1-0.5,4.5-2.1,6.3C514.1,326.5,513.2,323.8,516.1,322.4z"/>
		<path class="st1" d="M600.4,351.9c-1.5-1.3-2.3-3.3-2.1-5.3C599.8,348,600.6,350,600.4,351.9z"/>
		<path class="st1" d="M580.4,354.1c1.8,0.9,3.1,2.1,3.2,4.2l-3.2-2.1C580.4,355.4,580.4,354.8,580.4,354.1z"/>
		<path class="st1" d="M603.6,359.3c-1.5-1.3-2.3-3.3-2.1-5.3C603.2,355.4,603.6,357.3,603.6,359.3z"/>
		<path class="st1" d="M598.3,346.7c-1.5-1.3-2.3-3.3-2.1-5.3C597.9,342.8,598.4,344.6,598.3,346.7z"/>
		<path class="st1" d="M605.7,364.6c-1.5-1.3-2.3-3.3-2.1-5.3C605.1,360.6,605.9,362.6,605.7,364.6z"/>
		<path class="st1" d="M595.1,339.3c-1.5-1.3-2.3-3.3-2.1-5.3C594.6,335.3,595.4,337.3,595.1,339.3z"/>
		<path class="st1" d="M508.8,343.5c0.2-1.8-0.7-3.8,1.1-5.3C509.6,340,510.4,342,508.8,343.5z"/>
		<path class="st1" d="M514,328.8c-0.2,1.8,0.7,3.8-1.1,5.3C513.2,332.3,512.3,330.2,514,328.8z"/>
		<path class="st1" d="M592,331.9c-1.3-1.1-2-2.6-2.1-4.2C591.8,328.5,592.1,330.2,592,331.9z"/>
		<path class="st1" d="M459,351.8c3.2-6.3,0.1-11.7-3.6-17.3c-3.2-4.8-1.9-6.9,3.7-8.9c5.8-2,11.9-3,18-3.1
			c7.2-0.2,14.3-0.6,21.5-1.1c4.5-0.3,5.6,2.1,4.9,5.9c-1.3,6.9-2.8,13.7-4.1,20.5c-0.2,2.4-2.2,4.2-4.6,4.2
			c-10.9,1.3-21.9,1.9-32.7,4.2C458,357.1,459.6,354.1,459,351.8z"/>
		<path class="st1" d="M451.8,340.3c2.3,3.6,1.3,14.1-1.6,16.9c-4.4,4.2-12.3,5.1-16.5,0.7c-3.9-4-6.1-9.4-4.8-15.3
			c1.2-5.5,3.9-10.1,10.4-10.7c2.8,0.3,6.2-0.9,7.4,3.2C447,338.2,449,339.7,451.8,340.3L451.8,340.3z"/>
		<path class="st1" d="M446.6,335.1c-1.9-2.3-5.1-1.5-7.4-3.2c1.1-0.5,2.2-0.9,3.3-1.3c1.3-0.3,2.7-2.3,4.1-0.6
			C447.9,331.6,448.4,333.5,446.6,335.1z"/>
		<ellipse class="st1" cx="218.9" cy="310.9" rx="174.8" ry="0.7"/>
		<path class="st1" d="M348.6,318.2c-1.7,1.8-4,1-6,1c-30.7,0-61.3,0-92,0c-3.3,1.1-6.7,0.3-10.1,0.4c-0.5-0.1-0.8-0.7-0.6-1.2
			c0-0.1,0.1-0.2,0.2-0.3C276.2,318.2,312.4,318.2,348.6,318.2z"/>
		<path class="st1" d="M240,318.2c0,0.3,0,0.7,0,1.1c-3.4,1.8-7.1,1.7-10.8,1.5c-4.4-0.2-8.9,0.1-13.6-0.5c-0.3-0.2-0.3,0.9,0,0.2
			c0-0.1,0.2,0,0.5,0c1.1,0.2,2,0.5,1.8,1.9c-6.9,0.5-13.6-1.3-20.4-1.9C211.7,318.2,225.8,318,240,318.2z"/>
		<path class="st1" d="M251.6,324.5c-10.9,0.6-21.8-0.8-32.7-1.1c0-0.3,0-0.7,0-1.1c2.5-2.3,5.6-1.2,8.5-1.5
			c7.8-0.8,15.2,3.4,23.1,2.1C251.3,323,251.7,323.7,251.6,324.5z"/>
		<path class="st1" d="M227.4,322.4h-9.5c-1-1.8-3.4-0.3-4.9-2.4c5.3-1.5,10.4-0.5,15.4-0.8c-1.6,3.2-3.9,1.2-5.8,1.2
			C223.4,322.3,226.9,319.1,227.4,322.4z"/>
		<path class="st1" d="M299,302.4h-30.8c0-0.6,0-1.2-0.1-1.7c11.4-0.3,22.6-1.9,34.1-1.4c0.2,0.8-0.3,1.5-1.1,1.7
			c-0.1,0-0.2,0-0.4,0c-3.8-0.3-7.6-0.1-11.4-0.2c2.4,0,4.8,0,7.2,0.1C297.5,300.9,299.2,300.4,299,302.4z"/>
		<path class="st1" d="M299,302.4c-3.2-2.4-7.1-0.1-10.8-1.6c4.8-1.6,9.7,0.9,14-1.6h17.9c0.1,2-1.5,1.5-2.6,1.5
			c-3.2,0.1-6.3,0-10.5,0c5.7,0.9,10.7-2,15.2,1.6l0,0L299,302.4z"/>
		<path class="st1" d="M322.2,302.4c-4.7-2.5-9.9,0-15-1.5c4.3-1.7,8.9,0.9,12.9-1.6h2.1c4.9-0.8,9.9-0.8,14.8,0
			c-0.6,1-2.5,2.1,0.7,2.2c3.2,0.1,6.8-1.1,9.9,1L322.2,302.4z"/>
		<path class="st1" d="M337,299.3h-14.8c5.9-2.3,12-0.5,17.9-1.1c0.3,0.2,0.4,0.5,0.3,0.7c-0.1,0.2-0.2,0.3-0.3,0.3L337,299.3z"/>
		<path class="st1" d="M340.1,299.3c0-0.3,0-0.7,0-1.1h9.5C346.6,300.3,343.3,298.8,340.1,299.3z"/>
		<path class="st1" d="M375.9,300.3h6.3c0,0.4,0,0.7,0,1.1h-6.3C376,301,375.9,300.6,375.9,300.3z"/>
		<path class="st1" d="M372.8,299.3c0,0.3,0,0.7,0,1.1c-1.8-0.2-3.8,0.7-5.3-1.1H372.8z"/>
		<path class="st1" d="M350.7,321.4c2.1-0.1,3.3-1.5,4.2-3.2c3.5-4,2.2-8.5,1.4-13c-0.4-2.3-0.3-4.2,2.5-3.8
			c10.6,1.4,21.4,1.5,31.9,4.1c2.4,1.2,2.6,3.3,2.7,5.8c0.1,6.6,3.7,10.2,10.3,10.6c3.4,0.2,6.9-0.4,10.7,0.5
			c-1.7,3.3-4,5.7-5.7,8.4c-5.4,5.4-12.7,4.9-19.4,6.3c-0.2,0-0.4,0-0.5,0c-8,2.4-13.4-0.5-17.8-7.5c-3.6-5.7-10.1-5.4-16.2-5.3
			C352.8,324.5,349.5,325.7,350.7,321.4z"/>
		<path class="st1" d="M408.6,330.9c0.5-3.1,3-5,5-8.4c-3.3,0-6.1,0-8.9,0c-8.1-0.1-11.6-3.2-11.8-11.2c-0.1-2.3-1.1-3.9-2.2-5.7
			c3.3,0.3,3.1,2.7,3.2,5c0.3,7.1,3.6,10.5,10.7,10.8c4,0.1,8.1,0,12.1,0c6,0,9.4-2.2,10.7-7.9c0.8-3.3,2.5-4,5.2-3.6
			c5.8,0.8,11.6,1.6,18,2.6c-1.7,2.9-4.5,2.9-6.8,3.6c-8.3,2.6-16.6,5.4-25.1,7.2C413.8,324.3,412.1,328.5,408.6,330.9z"/>
		<path class="st1" d="M310.6,324.5c-9.2,0.8-18.2-1.6-27.4-1.1c-0.5,0.4-1.1,0.6-1.7,0.5c-2.7-0.5-5.8,0.6-8.3-2.4
			c3.8-1.8,7.6,0.2,11-1.3h64.3c0,0.3,0,0.7,0,1.1h-32.7c-4.2,1.6-8.6,0.9-12.5,1.1C305.4,323.6,309,320.3,310.6,324.5z"/>
		<path class="st1" d="M310.6,324.5c-4-2.6-8.9,0.2-13-1.6c0-0.5,0-1.1,0-1.5h18.3l-2.2,1.6c3.1,1.5,6.8-0.8,9.6,1.5
			c-1.7,0.8-3.6,0.8-5.3,0L310.6,324.5z"/>
		<path class="st1" d="M318,324.6h13.7c0.3,0.2,0.5,0.5,0.4,0.7c-0.1,0.2-0.2,0.3-0.3,0.3C327.1,325.1,322.4,326.8,318,324.6z"/>
		<path class="st1" d="M363.3,326.7c-4.6-0.6-9.3,1.2-13.7-1.1C354.1,326.2,358.9,324.4,363.3,326.7z"/>
		<path class="st1" d="M331.7,325.6c0-0.3,0-0.7,0-1.1c4.2,0.5,8.6-1.1,12.6,1.1H331.7z"/>
		<path class="st1" d="M227.4,322.4c-1.3-1.8-3.5-0.6-5.5-1.4c2.2-1.5,4.9,0.4,6.5-1.7H240h10.5c-3.6,2.3-7.8,0.1-11.7,1.9
			c8.7,1.6,17.6,2.3,26.4,2.3c2.1-1.8,4.2-1.6,6.4-0.2c0.3,0.6,0.1,1.3-0.4,1.6c0,0,0,0,0,0c-6.2-0.1-12.4,0.7-18.5-0.4h-1.1
			C243.6,323.2,235.5,322.5,227.4,322.4z"/>
		<path class="st1" d="M271.6,323.5h-6.3c-2.9-2.5-6.9,0.3-9.9-3.2h28.8c-2.8,2.4-6.4,0-9.6,1.5c2.3,1.5,5.4-0.6,7.5,1.6
			C278.8,325.1,274.9,325.1,271.6,323.5z"/>
		<path class="st1" d="M69.3,307.7c3.6-2.1,7.5-0.8,11.2-0.9c1.6,0,2.3,1.4,2.4,2.9s0,3.7-1.9,3.9c-9.8,0.8-19.6,1-29.2-2.6
			c5.1-2.5,10.7-3.6,16.4-3.3c-0.5,3.4-3.7,1.6-5.1,3c3,1.3,6.5,0.7,9.9,0.9c1,0.1,2,0.1,3,0c0.9-0.1,2.4,0,2-1.4
			c-0.3-1.1-1.7-0.8-2.6-1C73.3,308.9,71,309.5,69.3,307.7z"/>
		<path class="st1" d="M73.5,312.9c-4.8,0.3-9.7-0.2-14.4-1.7c2.2-3.6,6.6-1.3,9.1-3.6h1.1h7.4c-1.8,2.1-1.8,2.1-6.1,2.8
			C71.6,311.2,73.7,310.7,73.5,312.9z"/>
		<path class="st1" d="M252.6,324.5h19c3.8-0.8,7.8-0.8,11.6,0c5,1.2,10.1,0.9,15.1,1.1c20.2,0.7,40.5,1.4,60.7,2.1
			c6.9,0.3,10.8,4.8,13.8,10.5c-0.6-0.4-1.3-0.6-1.7-1.2c-5.1-7.4-12.6-8.2-20.8-8.4c-18.5-0.4-37-1.3-55.5-2
			c-12.9,0.1-25.8-1.8-38.8-1.1C254.8,325.6,253.5,325.7,252.6,324.5z"/>
		<path class="st1" d="M380.2,279.5c-0.2,2,0.5,5-2.9,4.7c-3-0.3-3.5-2.9-3.4-5.6c0.1-2.2,0.1-4.5,3-4.5
			C380.5,274,380.1,276.9,380.2,279.5z"/>
		<path class="st1" d="M287.4,280.3c-0.3-2.8,0.4-5,3.2-6.3c1.1-0.7,2.4-0.5,3.6-0.5h61.4c1.2,0,2.5-0.3,3.6,0.5
			c1,0.4,1.7,1.1,2.1,2.1c0.8,1.7,0.8,3.6,0,5.3l0,0c-0.3,0.4-0.9,0.4-1.3,0.1c0,0,0,0-0.1-0.1c-1.2-1.4-0.7-3.8-2.9-4.6
			c-21.4-0.5-42.8-0.3-64.1-0.1c-2.1,0.4-2.8,2.2-3.9,3.7C288.4,280.7,287.8,280.7,287.4,280.3z"/>
		<path class="st1" d="M360.1,281.3h1.1c-0.4,1-1.1,1.7-2.1,2.1c-21.5,0-43.1,0-64.6,0c-2.9,0-5.7,0-7.1-3.2h1.1
			c1.3-0.5,2.5,0,3.7,0.4c20.8,0.6,41.5,0.1,62.2,0.3C356.3,280.9,358.3,280.5,360.1,281.3z"/>
		<path class="st1" d="M359.1,274h-68.5c0-0.3,0-0.7,0-1.1c21.2,0,42.4,0,63.6,0C355.8,272.9,357.7,272.4,359.1,274z"/>
		<path class="st1" d="M361.2,281.3v-5.3c1.5,1.3,1.6,3.6,0.2,5C361.4,281.2,361.3,281.3,361.2,281.3z"/>
		<path class="st1" d="M450.7,273.8c4.3-0.7,4.9,2.7,5.1,5.3c0.2,3.4-1.1,6.6-5.3,7.4c-4.4,0.9-8.9,1.6-13.4,2.1
			c-12.5,0.9-25.1,1.7-37.7,2.1c-6.6,0.3-7.7-1.1-7.8-7.5c0-3.7-0.1-7.4,0.1-11.1c0.2-4.2,2.8-6,6.7-5.5c15.9,2.3,31.9,3.6,47.8,5.1
			c1.5,0,2.8,0.8,3.6,2.1c-1.6,2-3.8,1.5-5.8,1.3c-14.6-1.8-29.3-2.9-43.8-4.7c-3.3-0.4-5.6,0.6-5.1,4.6c0.3,2.6,0.3,5.3,0,7.9
			c-0.4,3.3,1.2,4.5,4.2,4.4c15.8-0.2,31.5-0.8,47.1-3.5C452.7,282.7,453,281.7,450.7,273.8z"/>
		<path class="st1" d="M450.7,273.8c2.4,1.8,3.9,3.9,3.1,7.1c-0.8,3.2-3.5,3.6-6.1,4c-7.2,1.3-14.4,2.7-21.8,2.7
			c-8.8-0.1-17.4,1.7-26.2,1.2c-5.9-0.3-6.7-1.1-6.1-6.7c0.3-2.5,0.2-4.9-0.2-7.4c-0.8-4.5,1.2-6.4,5.4-6
			c11.4,1.1,22.8,2.5,34.3,3.7c5.5,0.6,11.1,0.9,16.7,1.3C450.1,273.8,450.4,273.8,450.7,273.8z"/>
		<path class="st1" d="M283.2,324.6h-11.6c0-0.3,0-0.7,0-1.1h11.6V324.6z"/>
		<path class="st1" d="M423.6,341.5c-2.5,5.5,0.2,10.4,2.2,15.4c1.3,3.2,0.3,4.7-3.3,4.1c-10.8-1.8-11.8-3.7-6.8-13.7
			c1.2-2.4,2.3-4.7,3.5-7c0.7-1.2,1.5-2.8,3-2.5C424.2,338.2,422.9,340.2,423.6,341.5z"/>
		<path class="st1" d="M341.2,338.3c5.2,0,10.4-0.1,15.6,0.1c1.4,0.1,2.7,0.6,3.9,1.4c1.3,0.8,3,1.9,2.2,3.7c-0.8,2-2.6,1-4.1,0.6
			C352.9,342.3,346.8,341.5,341.2,338.3z"/>
		<path class="st1" d="M417,304c0.3,4.5-2.5,6.6-6.3,6.6c-3.5,0-6.3-1.8-6.3-6.1s2.3-6.2,6.5-6.3C415,298.1,417.2,299.7,417,304z"/>
		<path class="st1" d="M403.3,300.3c-0.2-2.3,0.8-3.4,3.2-3.2L403.3,300.3z"/>
		<path class="st1" d="M522.3,323.6c13,1.6,25.7,3.3,38.5,4.8c7.7,0.8,15.4,0.8,23,0c3.2-0.3,4.6,0.7,5.7,3.2
			c4.5,10.8,9.2,21.5,13.5,32.4c0.8,2.1,3.2,4.8-0.4,6.8c-3.5,2-5.6-0.1-7.5-2.5c-5.2-6.6-10.8-12.8-16.7-18.8
			c-2.4-2.6-5.9-4-9.4-3.8c-9.9,0.8-19.7,2.2-29.6,2.8c-7.7,0.5-15.3,1.8-23,1.5c-2.8-0.1-4-1.2-3.5-3.8c1.1-6.5,2.3-13,3.8-19.5
			C517.4,323.7,519.8,323.1,522.3,323.6z"/>
		<path class="st1" d="M493.2,323.5c8.5,0,8.5,0,7.2,6.8c-1.1,5.3-2.3,10.5-3.2,15.8c-0.6,3.4-2.3,5-5.6,4.8
			c-9.1-0.7-18,1.6-26.9,2.7c-3.6,0.4-3.8-1.2-3.2-3.4c1.8-5.9,0.8-10.7-3.7-15.3c-3.6-3.7-1.8-6.8,3.1-8.3
			C472,323.3,483.6,325.7,493.2,323.5z"/>
		<path class="st1" d="M448.7,347.6c0,4.5-2.9,8.3-6.8,8.5c-5.3,0.3-7.2-3.3-8.7-7.5c-1.3-3.9,0-7.3,2.3-10.3c1.3-1.8,3.5-2.6,5.6-2
			C443.5,337,448.7,345,448.7,347.6z"/>
		<path class="st1" d="M73.5,312.9c-1.8-2.2-4.7-0.1-6.9-1.8c2.4-3.9,7.2-1.1,10-3.4c1.8,0.4,4.2,0.5,3.9,3
			c-0.3,2.5-2.6,2.2-4.5,2.2C75.2,313,74.4,312.9,73.5,312.9z"/>
		<path class="st1" d="M290.6,281.4l-2.1-1.1c-0.1-1.8,0.2-3.4,2.1-4.2c1.3-0.8,2.7-0.5,4.1-0.5c19.7,0,39.3,0,58.9,0
			c1.6,0,3.6-0.9,4.7,1.2c-1.8,2.4-4.4,1.9-6.8,1.9c-18.1,0-36.1,0-54.2,0c17.8,0,35.6,0,53.4,0c2.6,0,5.3-0.5,7.5,1.6
			c-0.3,1.8-1.7,1.5-2.8,1.5c-21.1,0-42.2,0-63.3,0C291.5,281.7,291,281.6,290.6,281.4z"/>
		<path class="st1" d="M290.6,281.4c20.7,0,41.3,0,62-0.1c1.8,0,3.9,0.7,5.4-1.1c-0.2-1.1,0-2.2,0.5-3.2c0-0.4,0.2-0.8,0.6-1.1
			c1.8,1.5,0.8,3.5,1.1,5.3c-1.6,0.8-3.3,1.2-5.1,1.1c-20,0-40,0-60.1,0C293.5,282.4,291.8,282.8,290.6,281.4z"/>
		<path class="st1" d="M359.1,276.1c0,0.4,0,0.7,0,1.1c-0.2,0.3-0.6,0.4-0.9,0.2c-0.1,0-0.1-0.1-0.2-0.2c-1.5-1.7-3.6-1.1-5.4-1.1
			c-20.7,0-41.3,0-62,0c1.2-1.4,2.9-1.1,4.4-1.1c19.9,0,39.8,0,59.7,0C356.2,275,357.9,274.6,359.1,276.1z"/>
		<path class="st1" d="M394.9,278.5c0-7.7,0.9-8.5,8.4-7.7c14.7,1.7,29.4,3.5,44.1,5.2c2.3,0.3,4.1,0.5,4.4,3.3
			c0.3,3.2-2.2,3.5-4,3.8c-6.5,1.1-13,2.4-19.7,2.4c-8.9,0-17.8,1.4-26.7,1.2c-5.9-0.1-6.4,0-6.4-6.1
			C394.9,279.9,394.9,279.2,394.9,278.5z"/>
		<path class="st1" d="M421.5,342.3c-0.8,5.6,0.9,9.5,2.3,13.5c1.2,3.2-0.4,3.8-3,3.5c-6.6-0.7-8-3-5-8.8
			C417.1,347.9,417.8,344.9,421.5,342.3z"/>
		<path class="st1" d="M415,304.6c0.1,2.9-1.2,4.3-4.1,4.1c-2.9-0.2-4.5-1.3-4.4-4.6c-0.1-2.4,1.7-4.4,4.1-4.5c0.2,0,0.3,0,0.5,0
			C414.1,299.5,414.9,301.9,415,304.6z"/>
		<path class="st1" d="M358,277.1h1.1c0,1.2,0.2,2.4-1.1,3.2H298c-1.1,0-2.1,0-3.2,0c-1.5-0.1-3.7,0.2-3.5-2
			c0.2-1.9,2.3-1.1,3.5-1.1C315.9,277.1,337,277.1,358,277.1z"/>
		<path class="st1" d="M411,301.5c1.7,0.1,2.7,1,2.7,2.6c0,1.4-1.2,2.5-2.5,2.5c-0.1,0-0.2,0-0.2,0c-1.5,0-3-0.3-2.9-2.1
			C408.1,302.7,409.5,301.9,411,301.5z"/>
	</g>
</g>
</svg>
