<?xml version="1.0" encoding="utf-8"?>
<!-- Generator: Adobe Illustrator 23.0.4, SVG Export Plug-In . SVG Version: 6.00 Build 0)  -->
<svg version="1.1" id="Layer_1" xmlns="http://www.w3.org/2000/svg" xmlns:xlink="http://www.w3.org/1999/xlink" x="0px" y="0px"
	 viewBox="0 0 659.1 657.5" style="enable-background:new 0 0 659.1 657.5;" xml:space="preserve">
<style type="text/css">
	.st0{fill:url(#SVGID_1_);}
	.st1{fill:#F7526E;stroke:#EDFF00;stroke-miterlimit:10;}
</style>
<title>Asset 1</title>
<radialGradient id="SVGID_1_" cx="345.6073" cy="164.838" r="484.41" gradientTransform="matrix(1 0 0 1 0 -48)" gradientUnits="userSpaceOnUse">
	<stop  offset="0.66" style="stop-color:#D3A3CB"/>
	<stop  offset="1" style="stop-color:#833293"/>
</radialGradient>
<circle class="st0" cx="329.5" cy="327.3" r="329.2"/>
<g>
	<g id="Layer_1-2">
		<path class="st1" d="M552.8,362.7c0,0.9,0,1.9,0,2.9c-0.6,0.4-1.3,0.5-2,0.2c-6.4-5.7-9-13.9-13.1-21c-9.7-16.9-19.2-33.8-28.5-51
			c-3.5-6.4-9.9-8.6-15.4-12.1c-18.4-11.4-38.2-20.1-58.3-28c-1.3-0.5-2.6-1.2-3.7-2.1c-2.1-1.5-4.4-2.7-6.8-3.4
			c-0.6-0.3-1.2-0.6-1.7-1c-1.3-1-2.5-2.2-3.5-3.6c-0.4-0.6-0.6-1.2-0.9-1.8c-0.9-3.9,0-7.9-0.9-11.8c-0.2-0.6-0.4-1.2-0.5-1.9
			c-0.2-4-3-7.4-7-8.2c-0.7-0.2-1.3-0.4-1.9-0.6c-5.1-0.4-10.1-1.6-15.2-2.1c-4.9-1.3-8.7-4.7-13-7.1c-11.6-3.1-21.8-1.6-30,8.1
			c-0.7,0.4-1.5,0.7-2.3,0.9c-4.1,1.7-8.4,1.4-12.7,1.4c-49.9,0-99.9,0-149.8,0c-3.6-0.2-7.1-0.1-10.6,0.5
			c-17.3,3.6-34.7,6.6-52.3,9.3c-8.6,1.3-13.9,5.1-16.6,13.8c-2.4,7.5-3.2,15.8-9,22c-0.8,0.1-1.6-0.1-2.2-0.6
			c1.6-10.3,5.7-20,8.9-29.8c2.1-6.3,8.4-8.9,14.6-10c34.2-6,68.3-11.6,103.4-10.4c39.4,1.3,78.8,0.3,118.3,0.4
			c5,0,9.1-1.1,12.8-4.8c7.3-7.4,22.6-10,31.4-4.4c7.1,4.5,15.2,7.4,23.6,8.3c11.9,1.6,14.8,5.1,14.8,18.9c0,7.6,2.7,10.7,9.5,13.2
			c12.2,4.4,24.2,9.4,35.9,15.1c13.3,6.6,26.1,14.3,39,21.8c2.2,1.4,4.1,3.4,5.3,5.7c10.6,19,21.1,38.1,31.6,57.2
			c1.9,3.4,1.6,8.1,5.8,10.2C551.5,358.6,551.7,360.9,552.8,362.7z"/>
		<path class="st1" d="M428.7,386.9c-2.7-3.9-5.3-7.8-8.2-11.6c-3.1-4.1-6.7-5.9-11.6-2.4c-2,1.3-4.1,2.4-6.2,3.4
			c-11.4,6.2-12.1,8.6-10.2,21.5c1.6,11.4-2.8,18.4-14.6,18.8c-20.9,0.6-41.8,0.4-62.6,0c-8.7-0.2-15.2-6.1-22.1-10.7
			c-6.4-4.1-12.5-8.5-18.3-13.4c-10.4-9-23.2-9.8-35.7-11.4c-14.5-1.9-28.9-3.8-43.4-5.4c-3.5-0.4-8.7-2.3-10.3,1.4s2.9,7.1,5.9,9.6
			c3.2,2.7,7.6,3.9,10.5,7.1c0.4,0.6,0.3,1.4-0.2,1.8c-0.1,0-0.1,0.1-0.2,0.1c-9-0.5-19.8-9.2-21.9-17.6c-1.4-5.5,1.8-8.9,8.1-8.2
			c9.4,1,18.8,2.4,28.2,3.5c12.7,1.5,25.3,3.3,38,4.7c8.6,0.9,15.7,4.8,22.5,9.8c8.6,6.3,17.1,12.6,26.2,18.3
			c1.9,0.7,3.7,1.7,5.1,3.1c1.9,1.8,4.5,2.7,7.1,2.5c21.1,0,42.2,0,63.4,0c1.9,0.2,3.8-0.3,5.4-1.3c0.8-0.8,1.6-1.7,2.5-2.4
			c4.3-5,2.2-10.9,2.1-16.3c-0.2-7.4,2.1-12.8,8.6-16.4c0.6-0.5,1.2-0.9,1.8-1.2c2.5-1.3,5-2.4,7.4-3.8c8.8-5.1,10-5,17.3,2.3
			c1.2,1.5,2.3,3.1,3.2,4.9c1,1.9,2.2,3.6,3.6,5.2c0.4,0.5,0.6,1.1,0.8,1.7c0.2,0.9,0,1.9-0.6,2.7
			C429.7,387.5,429.1,387.4,428.7,386.9z"/>
		<path class="st1" d="M428.7,386.9h1.4c4.8,1.7,7.9,6.7,13.3,7.3c1.7,0.5,3.2,1.2,4.7,2c14.3,7,29.5,11.7,44.2,17.7
			c6.6,2.7,13.3,5.2,19.9,7.7c4.7,1.9,9.9,1.9,14.6,0.1c10.8-4.3,21.8-8.2,32.3-13.1c9.9-4.5,10.8-7.6,6.1-17.1
			c-3-6.2-6.9-11.9-9.9-18.1c-1-2.1-3-4-1.1-6.5c4.4,0.9,4.4,5.2,6.1,8.1c4,6.4,7.8,13,11.2,19.7c2.9,5.9,0.6,13.3-5.2,15.8
			c-13.2,5.7-26.7,10.9-40.1,16.2c-5.6,2.2-11.1,0.6-16.4-1.4c-23.1-9-46.2-18-69.3-27.1C435,396.2,430.6,392.8,428.7,386.9z"/>
		<path class="st1" d="M554.2,366.9c4.5,8.6,9.1,17.1,13.5,25.7c4.3,8.4,3,12.7-5.4,16.6c-12.4,5.8-25.2,10.9-38.2,15.2
			c-3.6,1.2-7.5,1-11-0.5c-15.9-6.2-31.8-12.3-47.6-18.5c-6.2-2.5-13.5-2.7-18.3-8.4c2.6-2.4,5.3-1.3,8-0.2
			c17.2,7.4,35,13.5,52.3,20.7c8.4,3.5,16,3.6,24,0c3.9-1.8,7.9-3.2,11.9-4.8c6.2-1.6,12.1-4,17.7-7.1c4.6-2.4,5.8-5.9,3.6-10.6
			c-3.5-7.5-8-14.5-11.8-21.8c-1.2-2.4-3.7-4.6-1.6-7.7h1.4C553.2,366,553.7,366.5,554.2,366.9z"/>
		<path class="st1" d="M161.9,442.6c-8.2-0.1-12.7-6.7-18.5-10.8c-15.7-10.9-25.2-26.3-31.7-44c-4.7-12.7-10.2-25.3-15.4-38
			c-0.8-1.1-1-2.6-0.5-3.9c0.4-0.6,1.1-0.8,1.8-0.6c5.7,5.4,6,13.6,10,20c5.1,11.7,11,23.1,15.3,35.1c4.3,11.6,13.3,18.7,22.3,25.9
			c2.5,1.8,4.7,3.9,6.6,6.4c1.5,2.6,3.9,4,6.4,5.5C159.8,439.2,162.4,439.7,161.9,442.6z"/>
		<path class="st1" d="M161.9,442.6c-3.2-3.6-9.2-3.6-11.4-8.6c1.9-1.5,3.6-0.5,5.2,0.4c7.8,4.5,16.5,7,24.6,10.9
			c11.6,5.4,22.7,1.2,33.6-2.6c4.5-1.5,4-6.3,4.7-10.3c0.8-4.7-2.7-9.7,1-14.3c4.5,2.5,3.2,7.2,3.2,10.8c-0.1,5.6,1.7,12-3.7,16.4
			l-1.4,1.4c-2.6,1.6-5.7,1.7-8.6,2.9l0,0c-10,2-20,5-30,0l0,0C173.4,447.1,167.6,445,161.9,442.6L161.9,442.6z"/>
		<path class="st1" d="M94.8,265.7h1.4c0.3,0.4,0.9,0.8,0.8,1.1c-1.8,9.6,0.3,19.5-2.9,28.9c-2.3,6.8-3.1,13.3,2,19.3
			c1.2,1.4,2.9,3.1,2.7,4.9c-1,8.6,1,17.4-2.6,25.7l0,0c-4.2-5.1-2.1-11.1-2.4-16.8c-0.2-3.4,2-6.9-0.5-10.3
			c-2.3-1.3-4.2-2.9-4.3-5.7c-0.3-3.8-3.1-7.3-1.4-11.4l0,0c1.4-2.7,0.2-6.3,2.9-8.6l0,0c2.2-6-1.6-12.6,1.4-18.5
			C91.9,271.2,92.9,268.1,94.8,265.7z"/>
		<path class="st1" d="M219,445.4c3.9-9,5.1-18.1,0-27.1l-0.8-0.4c-1.8-2.1-3.8-4-6-5.7c-2.8-2.7-4.6-6-6.8-9.1
			c-1-2.6-4.3-4.1-3.5-7.5c0-0.5,0-1,0-1.4c2.4,0,3.8,1.6,5.1,3.3c4.3,5.5,8.1,11.4,12.4,16.9c6.5,8.3,5,18.4,3.1,28.2
			C222.1,444.2,220.7,445.4,219,445.4z"/>
		<path class="st1" d="M93.4,318.4c3,1.4,2.3,3.6,2.1,6.5c-0.7,6.9-2.1,13.9,0.8,20.6v4.3c-4.7-6-3.5-13.4-3.6-20.2
			C92.5,326.1,93.3,322.3,93.4,318.4z"/>
		<path class="st1" d="M179,449.7c10,2.7,20,1.1,30,0C199,452.9,189,457.3,179,449.7z"/>
		<path class="st1" d="M92,274.2c-0.8,6.2,1.7,12.6-1.4,18.5C91.6,286.7,86.6,280.1,92,274.2z"/>
		<path class="st1" d="M161.9,442.6c6.2,1,12.1,3.4,17.1,7.1C172.8,448.7,166.9,446.3,161.9,442.6z"/>
		<path class="st1" d="M87.7,301.3c0.1,3.9,2.2,7.5,1.4,11.4C87.2,309.2,84.5,305.6,87.7,301.3z"/>
		<path class="st1" d="M209,449.7c2.4-1.9,5.5-2.9,8.6-2.9C215.3,449.7,212.2,449.9,209,449.7z"/>
		<path class="st1" d="M90.6,292.8c-1,2.9-0.7,6.1-2.9,8.6C88,298.3,86.6,294.7,90.6,292.8z"/>
		<path class="st1" d="M552.8,362.7c-1.7-1.4-2.8-3.5-2.9-5.7C552.5,358.1,552.9,360.3,552.8,362.7z"/>
		<path class="st1" d="M551.4,365.5c3.3,8.9,9,16.6,13.2,25c5.4,10.9,4.7,13.5-6.4,18.5c-4.5,2.1-8.8,4.6-14,4.9
			c-0.3-0.3-0.4-0.8-0.4-1.2c0-0.4,0.1-0.7,0.2-0.7c3.9-4.1,9.5-4.6,14.2-7c4.2-2.1,7-4.7,4.5-9.8c-18.3-33-36.8-65.8-55.1-98.8
			c-4.3-7.7-12.2-10.2-18.9-14.5c-19.1-12.3-40.3-20.1-61.1-28.6c-9.3-3.8-13.3-9.9-13.6-19.4c-0.3-9.1-2.6-11.5-12-12.1
			c-5.9-0.4-11.7-2.4-16.6-5.7c-10.5-6.6-18.9-6.1-28.5,1.6c-3.1,2.7-6.8,4.5-10.7,5.4c-54.5,0.5-108.9,0.1-163.4,0.2
			c-2.1,0.2-4.3-0.2-6.2-1.3c-0.8-0.5-1-1.6-0.4-2.4c0,0,0-0.1,0.1-0.1c2.6-0.4,5.2-0.6,7.8-0.3c51.7,0,103.4,0,155.2,0
			c3.8,0.2,7.6-0.5,11-2.2l0,0c8.4-10.4,19.6-10.6,31.4-8.6l11.4,7.1c5.5,2.1,11.4,1.7,17.1,2.9l0,0c4.6,1.3,8,5.2,8.6,10l0,0
			c1.9,4.6-0.6,9.7,1.4,14.3l0,0c1,1.8,2.5,3.3,4.3,4.3l0,0c2.2,1.3,4.9,1.7,7.1,2.9c7.6,3.3,15,6.9,22.8,9.7
			c18.2,6.5,34,17.5,50.8,26.5c5.8,3.1,7.3,9.8,10.3,15C527.8,322.5,539.4,344.1,551.4,365.5z"/>
		<path class="st1" d="M176.2,220.1v1.4c-0.1,0.7-0.4,1.3-0.9,1.8c-0.5,0.4-1.1,0.7-1.7,0.9c-4.5,0.5-8.8,1.4-13.2,2.4
			c-0.6,0.2-1.2,0.4-1.9,0.5c-2.6,0.4-5.2,0.3-7.7,1.2c-0.7,0.2-1.3,0.4-2,0.5c-9.9,1.1-19.6,3.5-29.4,5c-6.2,0.9-9.3,5.5-10.8,11
			c-2.5,8.9-5.6,17.6-8.6,26.4c-1.8,5.4-3.3,10.7-0.3,16.4c2.5,4.8-1.5,7.9-4.3,11.1c-2.3,3-1.7,6.4-1.1,9.8
			c0.3,0.6,0.5,1.2,0.8,1.7c0.7,1.5,1.8,2.8,3.2,3.7c7.1,5.3,7.1,5.3,2.4,13.1c-0.2,0.6-0.5,1.2-0.7,1.8c-1,6-0.3,12.2,2,17.9
			c2,5.3,5.5,10.1,5.7,16c-0.1,1.1-0.6,2.1-1.4,2.9c-4.9-5.9-4.7-14.3-10-20c0.4-7.5-1-15.1,1.3-22.6c0.5-2.1-0.2-4.4-1.9-5.8
			c-7.3-7.4-6.5-15.5-2-23.9c0.5-1,1.4-2.4,1.1-3.2c-3.4-8.4,1-16.2,1.6-24.4c4-7.3,5.7-15.4,8.3-23.2c2.4-7.4,6.5-12.1,14.6-13.4
			c18.1-2.9,36.1-6.1,54.1-9.2C174.1,219.2,175.4,219.2,176.2,220.1C176.1,220.1,176.2,220.1,176.2,220.1z"/>
		<path class="st1" d="M176.2,220.1h-2.9c2.4-2.4,5.4-1.4,8.1-1.4c49.5-0.1,98.9-0.1,148.4,0c6.9,0,13.8,0.3,20.5-1.4
			c-2.9,3.4-6.8,2.9-10.5,2.9H176.2z"/>
		<path class="st1" d="M381.6,208.7c-3.3,0-6.7,0.2-10,0c-6.8-0.6-12.7,0.6-17.1,6.4c-1,1.4-2.6,2.2-4.3,2.2
			C358.4,206.9,369,204,381.6,208.7z"/>
		<path class="st1" d="M410.1,218.6c-5.9,0-11.8,0.5-17.1-2.9C398.8,215.7,404.6,216.7,410.1,218.6z"/>
		<path class="st1" d="M418.7,228.6c-1.9-4-4.8-7.5-8.6-10C416.5,219,418.9,222.7,418.7,228.6z"/>
		<path class="st1" d="M420.1,242.8c-2.9-4.5-0.8-9.5-1.4-14.3C421.6,233.1,419.5,238.2,420.1,242.8z"/>
		<path class="st1" d="M431.5,250c-2.7,0.3-5.4-0.8-7.1-2.9C427.1,246.8,429.7,247.9,431.5,250z"/>
		<path class="st1" d="M424.4,247.1c-2.2,0.2-4.1-1.5-4.3-3.7c0-0.2,0-0.4,0-0.6C422,243.7,423.5,245.2,424.4,247.1z"/>
		<path class="st1" d="M544.2,412.6v1.4c-4.8,2-9.7,3.8-14.4,6c-7.7,3.6-14.8,2.5-22.5-0.6c-18.1-7.3-36.7-13.6-54.6-21.6
			c-1.6-0.7-3.7-0.5-5.5-0.8l-4.3-1.4c-4.8-3.2-10.3-5.7-12.8-11.4l0,0c-1.3-2-3-3.7-4.3-5.7c-1-1.4-1.9-2.9-2.9-4.3
			c-6.4-8.2-7.8-8.5-16.2-3.1c-2.6,1.6-5.6,2.6-8,4.6l0,0c-7.6,3.6-11.3,8.7-9.5,17.9c1,5.2,1.5,11.2-1.9,16.4l-1.4,1.4
			c-2.1,1.6-4.7,2.4-7.3,2.2c-21.4-0.1-42.8,0-64.2,0c-2.9,0-5.7-0.2-7.4-3.1c1-1.8,2.9-2.1,4.7-2.3c22.7-0.5,45.5,0.4,68.2-0.5
			c1-0.5,2-1.2,2.8-2c2.6-4.9,0.8-10.2,1.3-15.4c0.3-3.1-0.6-6.5,1.4-9c7.6-9.6,17.9-15.2,29.6-18.3c2.1-0.6,4.2,0.6,5.9,2
			c1.8,1.2,3.3,2.8,4.4,4.6c7.9,15.1,21.4,22.5,36.8,28c16.3,5.9,32.5,12.1,48.3,19.1c7.4,3.3,13.8,1.4,20.4-1.3
			C535.3,414.8,539.2,410.2,544.2,412.6z"/>
		<path class="st1" d="M311.7,409.7h-4.3c-0.5,0.7-0.9,0.7-1.4,0l-4.2-1.4c-11.4-10.4-24-19.3-37.6-26.6c-8.2-4.5-18.5-3.3-27.8-4.7
			c-13.8-2.1-27.8-2.9-41.5-5.7c-2.7-0.9-5.5-1.3-8.3-1.3c-8.3-0.5-10,2.1-6.9,10c1.1,1.6,2.2,3.3,3.1,5c2.4,4.5,6.3,7.9,11,9.7
			c2.5,1.6,5.7,2.2,7,5.4c-0.1,1.1-1,1.9-2.1,2c-6.8-1.6-13-4.9-18.1-9.6c-2.3-3.9-4.9-7.6-7.2-11.4c-1.8-2.5-2.8-5.5-3-8.6
			c0-7.3,2.6-9.7,9.9-8.9c27.5,3.3,55,6.8,82.4,10.2c2.4,0.2,4.7,1,6.6,2.4c13.5,9.7,27.4,18.7,40.6,28.8c0.8,0.8,1.5,1.7,2,2.8
			C312.3,408.4,312.2,409.2,311.7,409.7z"/>
		<path class="st1" d="M200.4,399.8l-7.1-4.3c-4.6-2.3-8.5-5.8-11.4-10l-2.9-4.3c-4.5-9-2.9-12.2,6.7-12.1c3,0,6.1-0.8,9,0.7
			c8.8,2.7,18.1,2.9,27.1,4.2c12.6,1.9,25.3,3,37.9,4.6c5.9,0.8,10.2,4.8,14.9,7.9c7.5,4.9,14.9,10.1,22.2,15.3
			c2.3,1.6,4.7,3.3,5,6.6c-7.8-5.3-16.3-9.7-23.1-16c-11.4-10.4-25.1-12.1-39.2-13.9c-17.1-2.1-34.2-4-51.2-6.4
			c-2.9-0.4-5.3-0.7-7,1.7c-1.7,2.3-0.1,4.6,1,6.6c4.2,7.6,11.3,13.1,19.7,15.2c1,2.6,4.4,3.8,4.3,7.1c-1.2,0.8-2.3,0.2-3.4-0.2
			C201.6,401.9,200.8,401,200.4,399.8z"/>
		<path class="st1" d="M306,409.9h1.4c2.4,2.9,5.7,2.9,9.1,2.9c20.1,0,40.2,0,60.3,0c3.1-0.2,6.1-0.7,9-1.5
			c-1.4,3.4-4.5,2.9-7.3,2.9c-21.3,0-42.6,0-63.9,0C311.1,414,307.2,414.6,306,409.9z"/>
		<path class="st1" d="M387.2,409.7c1.4-7,2-13.8,0.3-21c-1.4-5.8,3.2-10.6,11.1-13.3c-8.6,5.1-9.3,13.1-8.7,21.9
			C390.2,401.6,392.4,406.7,387.2,409.7z"/>
		<path class="st1" d="M398.7,375.5c3.1-4,7.7-6.1,12.1-7.8c5.8-2.3,10.4-0.1,12.2,6.4c-5.5-6.5-11.4-6.7-17.9-1.2
			C403.4,374.4,400.8,374.7,398.7,375.5z"/>
		<path class="st1" d="M430.1,384.1c4,4.1,9.5,6.5,12.8,11.4c-5.9-0.4-9.6-4.1-12.8-8.6C430.1,386,430.1,385.1,430.1,384.1z"/>
		<path class="st1" d="M425.8,378.4c2.3,1.2,4.2,2.9,4.3,5.7C427.8,382.9,425.9,381.3,425.8,378.4z"/>
		<path class="st1" d="M203.2,401.3l2.9,1.4c3.5,1.9,4.1,6.2,7.1,8.6c1.6,2.6,4.1,4.5,5.7,7.1l0,0c1.1,5.1,1.6,10.3,1.4,15.4
			c-0.5,7.8-3.9,10.6-11.2,13.2c-20.5,7.1-37.2-2.7-54.3-10.9c-1.4-0.7-2.6-2-4.4-2c-1.9-4.1-5.9-6.2-9.4-8.4
			c-14.1-9-19.6-23.6-25.8-37.9c-3.2-7.3-6-14.8-9.1-22.2c0-1,0-1.9,0-2.9c3-0.3,3.3,2.4,4,4.2c4.1,9.8,9.9,18.9,13.6,28.9
			c7.1,19.4,23.1,30.1,39.7,39.7c6.8,3.9,14.1,6.8,21.7,8.8c5.9,1.7,11.7,0.3,17.6-0.6c12.7-2,17.4-12,10.8-23.2
			c-2.7-4.5-6.2-8.4-8.9-12.8C203.5,405.6,201.4,403.9,203.2,401.3z"/>
		<path class="st1" d="M219,418.4c-2.7-1.8-5.3-3.6-5.7-7.1C215.9,413,218.6,414.7,219,418.4z"/>
		<path class="st1" d="M348.8,221.4c3.5-2.8,7.3-5.1,10.6-8.2c4.8-4.6,17.5-4.8,24.2-0.3c6.5,4.3,12.9,7.2,21,7.4
			c6.3,0.2,12,3.1,11.5,13c-0.6,11.2,2.2,14,12.8,18.4c25,10.3,49.7,21.1,72.7,35.4c7.5,4.7,10.1,13.1,14.1,20.1
			c16,27.9,31.6,56.1,47.2,84.3c0.6,1.3,1.1,2.6,1.4,4c1,1.5,0.9,2.7-1,3.3c-7.3-5.8-9.9-14.8-14.6-22.3c-3.9-6.2-7.1-12.8-11-19.1
			c-8.6-16.4-17.8-32.5-27.1-48.5c-4.3-13.7-15.3-20.3-27.2-26.1c-4.1-1.8-8.1-3.9-11.8-6.5c-13.7-7.5-28.6-12.4-42.8-18.8
			c-0.4-0.2-0.9-0.3-1.3-0.5c-16.1-7.6-16.4-3.8-16.3-23.4c0-7-1.3-8.2-10.7-8.6c-6.1-0.2-11.7-1-16.4-5.3
			c-9.2-7.7-18.3-7.1-25.9,1.9c-1.9,2.2-3.8,4.2-6.9,4.5c-48.2,0.4-96.3,0.4-144.5,0c-17.5,0-35,1.7-52.2,5c-2.3,0.5-4.7,0.8-7,0.7
			c-1.8-0.3-3.6-0.6-4.1-2.8c2.1-2.3,5.1-0.2,7.1-1.9l0,0c2.6-1.8,5.9,0.4,8.6-1.4l0,0c5.2-1.2,10.5-1.5,15.7-2.9l0,0
			c2.5-1.3,5.1-0.7,7.7-0.7c52.9,0,105.8,0,158.7-0.1C343.7,222.2,346.3,222.9,348.8,221.4z"/>
		<path class="st1" d="M348.8,221.4c-2.3,2.5-5.4,1.4-8.1,1.4c-55.3,0.1-110.6,0.1-166,0l1.4-1.4H348.8z"/>
		<path class="st1" d="M562.8,398.3c1-0.6,1.5-1.7,1.4-2.9c3.1,4.7,1.2,8-3.2,10.1c-5.5,2.6-11.1,4.7-16.7,7l-12.8,4.3
			c-0.7-0.6-1.9-0.9-1.8-2.2c1.3-3,4.3-3.4,6.9-4.4c7.9-3,15.9-6,23.5-9.6c0.5-0.4,0.9-0.8,1.3-1.3
			C561.8,398.9,562.3,398.6,562.8,398.3z"/>
		<path class="st1" d="M150.5,227.1c-1.2,1.9-3.1,1.3-4.8,1.4c-0.7,0.1-1.3,0.3-0.6,1.1c0.2,0.3,0.8,0.2,1.2,0.4
			c-1.5,4.9-6.1,3.7-9.5,4.5c-5.5,1.3-11.2,2.1-16.8,2.9c-3.4,0.1-6.3,2.5-7.1,5.7c-3.8,11.2-6.7,22.4-10.6,33.4
			c-1.4,4.1,0.1,5.8,4.2,5.8h5.7c55.6,0,111.3,0,166.9,0.1c3.3,0,8.4-2.5,9.7,3.7c-7.5,3-15.3,1.2-23,1.8
			c-39.8,0.4-79.5,0.1-119.3,0.2c-7.8,0-15.7,0.1-23.4-0.3c-6-0.4-12.1,0.6-17.9-1.3c4.8,3.7,4.6,4.5-2.6,10
			c-1.1,2.2-3.9,2.1-5.2,4.1c-2,3,1.3,8-4,9.5l0,0c-1.1-3.7-1.1-7.7,0-11.4c4.5-4.5,7.1-9,2.6-15.2c-2-2.7,0.2-6,1-8.8
			c3.1-10.4,6.4-20.8,9.8-31.1c2.4-7.1,7-11.4,15-12C131.4,230.6,140.7,227.1,150.5,227.1z"/>
		<path class="st1" d="M184.7,445.5c-14-4.2-27.2-10.7-39-19.3c-21.6-15.3-26.8-39.8-38-61.1c-0.4-0.8-1-1.6-1.4-2.3
			c-0.7-5.7-4.5-10.2-5.7-15.7c-1.4-6.6-3.4-13.1-1.4-20l0,0c3.2-0.2,3.1,2.6,4,4.4c0.7,14,8.2,25.7,12.6,38.5
			c0.7,1.2,1.4,2.5,1.9,3.8c4,11.6,10,22.3,14.7,33.6c0.9,1.7,2.2,3.1,3.8,4.1c3.1,2.4,5.6,5.5,9,7.6c3.1,2.4,5.7,5.5,9.1,7.5
			c7,6.7,16.4,8.7,24.8,12.6c2.7,1.3,5.9,1.8,7.4,4.8C186.5,445.1,186.2,446,184.7,445.5z"/>
		<path class="st1" d="M101.9,331.4l-2.7-4.3c0.5-1.2,0.8-2.9,1.7-3.7c3.8-3.5,2-5.4-1.7-7.1c-2.8-1.3-5.4-2.8-5.7-6.4
			c3.4-3.2-0.5-8.2,2.9-11.4c3.7,3.5,0,9.4,4.3,12.7c3.5,3.3,8.1,3.2,12.4,4.3c2.7,0.7,6.2,1.6,6.1,4.8c0,3.4-3.9,3.5-6.5,4.1
			c-2.6,0.6-5.1,0.4-7.2,2.2C103.7,327.8,103.7,330.3,101.9,331.4z"/>
		<path class="st1" d="M99.1,327c-0.9,6.7,1.4,13.3,1.4,20C97.5,340.6,96.2,334,99.1,327z"/>
		<path class="st1" d="M174.7,222.9c-4.9,2.2-10.3,3.2-15.7,2.9C164,223.5,169.3,222.5,174.7,222.9z"/>
		<path class="st1" d="M93.4,298.5v11.4C91.2,306.4,91.2,302,93.4,298.5z"/>
		<path class="st1" d="M159,225.7c-2.5,2.6-5.7,1-8.6,1.4C153,224.6,156.2,226.2,159,225.7z"/>
		<path class="st1" d="M529.9,415.5l1.4,1.4c-9.1,5.2-17.6,3-26.8-1c-19.8-8.6-39.9-16.1-59.9-23.9c-10-3.8-14.1-13-20-20.5
			c-6.7-8.7-8.4-9.3-18.2-4.2c-0.4,0.2-0.8,0.5-1.3,0.7c-14.3,6-22.8,15.4-19.4,32.2c0.4,2.1,0.8,4.8-1.4,6.6
			c-2.4-2.3-1.6-5.6-2.6-8.3c-0.9-5-0.3-10.3-4.1-14.7c-2-2.3,0-4.5,2.2-5.8c10.9-6.7,21.8-13.3,32.9-19.7c4.2-2.4,7.3-0.7,9.8,2.7
			c4.7,6.2,9.5,12.4,14.1,18.8c2.8,3.9,6.6,6.8,11,8.6c20.9,8.9,42.2,16.8,63.3,25.3c4.7,1.9,9.2,3.7,14.3,1
			C526.8,413.9,528.7,414.2,529.9,415.5z"/>
		<path class="st1" d="M383,398.3c2.5,2.5,1,5.7,1.4,8.6l-1.4,1.4c-7,1.5-14.1,0.7-21.1,0.6c-16.7-0.2-33.5,0.9-50.2-0.6l-1.4-1.4
			c0.3-1.2,1.3-2.2,2.5-2.5c19.6-2,39.2-1,58.7-0.6c2.8,0,5.7,1.1,8-1.3C380.8,401.3,381.4,399.4,383,398.3z"/>
		<path class="st1" d="M311.7,408.4H383c-2.1,2.3-4.9,1.4-7.4,1.4c-21.3,0-42.6,0-64,0C311.7,409.3,311.7,408.9,311.7,408.4z"/>
		<path class="st1" d="M311.7,405.6l-1.4,1.4c-13.6-9.5-27.3-18.9-40.7-28.6c-5.1-3.7-10.9-3.1-16.3-3.9
			c-25.2-3.6-50.5-6.5-75.8-9.6c-3.7-0.5-6.8,5.5-4.9,10.4c1.5,3.2,3.2,6.3,5.2,9.3c1.6,2.6,3.8,4.9,4.1,8.1l-1,0.3
			c-7.2-5.2-11.6-12.3-12-21.1c-0.2-4.8-1.9-7-6.5-7.1c-4.6-0.1-8.8-1.2-13.3-1.7c-4.4-0.6-7-3.8-9.8-6.7
			c-7.3-7.6-17.3-5.3-26.2-6.9c-1.9-0.3-2.2,1.4-1.9,3c0.4,2.1,1.1,4.1,2.1,6c8.8-7.7,19-6.6,25.9,2.5c1.9,2.5,3.6,5,5.3,7.6
			c6.5,9,13.3,17.7,19.8,26.7c1.8,2.5,4.9,4.8,3.2,8.7c-3.7,1-4.9-2.1-6.5-4.3c-8.7-11.6-17.8-22.8-25.9-34.9
			c-3.3-4.9-7.3-5.1-12.3-4.6c-5,0.6-4.6,4.7-5.6,7.9c-0.4,1.3-1.3,2.5-2.5,3.2c-5.1-13.1-13.4-25.1-12.8-39.9
			c0.3-2-0.6-4.3,1.6-5.8c6.4-2,13.1-2.2,19.7-2.2c46.5,0,93.1-0.4,139.6,0.2c11.5-0.1,23.1,0.1,34.6,0.1c1.9-0.1,3.8,0.4,5.4,1.4
			c0.7,0.6,0.8,1.6,0.2,2.3c0,0-0.1,0.1-0.1,0.1c-3.9,2.6-8.3,1.8-12.5,1.8c-60.9,0-121.7,0-182.5,0c-0.7,0.2-1.3,0.6-1.8,1.1
			c-1.2,2.2-0.7,4.3-0.1,6.5c0.5,2.9,0.9,5.7,4.6,6.2c1.9,0.4,3.8,0.5,5.7,0.5c11.1,1,22.5,1,30.3,11.1c1.9,2.5,5.3,2.9,8.5,3.2
			c33.9,4.3,67.9,8.6,101.8,12.8c6.9,0.7,13.4,3.1,19,7.1c10,7.3,20.3,14.1,30.3,21.4C308.4,401.1,311.1,402.4,311.7,405.6z"/>
		<path class="st1" d="M186.1,444.1c-7.8-3.3-15.6-6.8-23.5-10c-3.8-1.2-7.1-3.8-9.4-7.1l0.8-0.6c7.7,2.8,15.2,6,22.5,9.6
			c8.2,4.3,17.8,5.3,26.6,2.7c8.9-2.5,11.3-10,5.3-17.5c-3-3.6-7.5-5.8-9.8-10.1c0.7-4.5-2.4-6.6-5.6-8.7c-2.9-1.8-6.2-3.1-9.2-4.7
			c-1.6-1.3-3.8-2.4-2.2-5l0.1-0.1l17.1,8.6c8,9.8,18.9,17.8,17.2,32.9c-0.5,4.6-1.6,7.5-6.5,8.6c-6,1.2-12,2.3-18,3.3
			C189.5,446.3,187.5,446.4,186.1,444.1z"/>
		<path class="st1" d="M186.1,444.1c9.4,1.7,17.9-2.4,26.8-3.9c0.7-0.1,1.6-1.9,1.6-2.9c0-7.6,1.9-15.3-5.5-21.6
			c-4.3-3.7-6.7-9.6-10-14.6l1.4-1.4l2.9,1.4c2,5,5,9.6,8.8,13.4c6.5,6.7,5.5,14.6,5.4,22.5c0,2-1.2,3.8-2.9,4.6
			c-9.5,4.2-19.3,7-29.8,3.7L186.1,444.1z"/>
		<path class="st1" d="M194.7,369.9h-7.1c-10.7,0-11.4,0.9-8.6,11.4c-4.4-2.5-3.2-6.6-2.4-10.1c0.8-3.5,4.5-2.9,7.2-2.7
			C187.5,368.8,191.4,367.1,194.7,369.9z"/>
		<path class="st1" d="M181.9,385.6l11.4,10C187.7,394.3,183.7,391.2,181.9,385.6z"/>
		<path class="st1" d="M99.1,312.7c-5-4-2.1-9.5-2.9-14.3c1.3-2.3,4.5-0.6,5.7-2.9c6.2-2.7,13-3.9,19.7-3.5c3.3,0.2,6.5-0.2,9.7-1.1
			c6.9-1,13.8-0.6,20.6-0.6c30.7-0.1,61.3-0.1,92,0c4-0.2,8.1,0,12.1,0.5c10,2,20.2,1.3,30,4.2c0.8,0.1,1.7,0.4,2.5,0.6
			c7.8,1.4,15.7,0.6,23.4,0.6c17.3,0,34.7,0.5,51.9-0.3c1.9-1,3.2-2,0.6-3.7c-18-1.1-35.9-0.2-53.9-0.5c-5-0.1-10,0.2-14.9-0.2
			c-0.8-0.1-1.6-0.3-2.4-0.6c-2.3-1-3.9-3-4.5-5.4c-2.4-2.4-5.4-1.3-8.1-1.3c-58.4-0.1-116.9-0.1-175.3-0.1c-7.9,0-7.9,0-5.4-7.7
			c3.7-11.5,7.4-23,10.9-34.6c1.2-4,3-5.8,7.7-6.6c9.2-1.4,18.7-1.9,27.6-5.4c10.9-1.7,21.8-3.4,32.8-5c2.1-0.4,4.2-0.6,6.3-0.7
			c55.9,0,111.8,0,167.8,0c0.4,0.9,0,1.9-0.9,2.3c0,0,0,0,0,0c-3.4,1.5-7,1-10.5,1c-49,0-98,0-146.9,0c-3.6,0-7.1-0.4-10.6,0.8
			c-20.8,3.4-41.6,7.1-62.4,10.6c-3.3,0.6-5.7,1.6-6.9,5.1c-3.2,10.1-6.8,19.9-9.7,29.9c-1.4,4.7,0,6.8,4.8,6.7c2.1,0,4.3,0,6.4,0
			c54.4,0,108.8,0,163.3,0c5.5,0,11-0.2,15.3,4.3c1.4,1.4,3.5,1.4,5.4,1.4c7.1,0.1,14.3-0.1,21.4,0.1c4.4,0.1,7.6-2.5,11.2-4.2
			c1.1-0.3,2.3,0.1,3.1,1c0.4,2.9,2.2,3.5,4.9,3.4c3.9-0.2,7.9-0.2,11.9-0.2c21.2,0,19.7-1.4,19.6,19.4c0,5.1,1.1,10.4-1.3,15.3
			c-4.4,3.6-9.6,1.7-14.5,2.1c-9.7,0-19.4,0-29.1,0c-2.8-0.1-5.7,0.4-8.3,1.4c-0.9,0.1-1.7-0.4-2.1-1.2c-0.8-5.6,3.3-5.4,6.8-5.5
			c11.1-0.2,22.2,0,33.3-0.1c2.5,0,5.2,0.5,7.4-1.3c0.2-5.3-4.1-2.9-6-3c-14.2-0.4-28.3,0-42.5-0.2c-17.4-1-34.7,0.9-51.8,3.9
			c-21.4,1.4-42.8,0.5-64.2,0.6c-22.3,0.2-44.7,0.3-67,0C121.3,318,110,316.2,99.1,312.7z"/>
		<path class="st1" d="M353.1,225.7c0-0.4,0-0.9,0-1.3c2.6-1.2,3.4-3.9,5-5.9c6.5-8.1,19.6-8.1,26.5,0l-0.8,0.6
			c-6.3-1.6-12.4-4.9-19.1-2.2c-2.2,2.3-6,4.2-1.5,7.7c6.6,14.9,1.3,45.8-15.8,54.2c-3.8,1.7-6.5,5.9-11.3,5.3l-1.4-1.4
			c1.6-5.1,6.5-7,10.4-9.2c10.5-5.9,11.9-16.6,14.6-26.4c1.2-4.3,0.2-9,0.3-13.5c0.3-3.1-1.9-6-5-6.5
			C354,226.8,353.5,226.3,353.1,225.7z"/>
		<path class="st1" d="M384.5,218.6c6.6,5.7,15.1,4,22.8,5.5c4.1,0.8,6.5,2.3,5.6,6.3c-3.3,15.6,4.7,22.1,18.4,26.3
			c12.6,3.9,24.5,10,36.6,15.2c1.9,0.8,4.1,1.4,5,3.7l-0.9,0.7c-9.9-1-18.1-6.6-27.1-9.9c-9-3.3-17.3-7.7-26.2-10.9
			c-6.4-2.3-9.2-6.3-9.2-13.4c0.1-14-0.2-14.1-14.5-15.9c-5-0.6-10.1-0.9-10.7-7.7L384.5,218.6z"/>
		<path class="st1" d="M472.9,275.6c8.6,4.5,17,8.9,25.5,13.6c7.6,4.2,10.1,11.9,13,19.3l-0.9,0.3c-1.2-0.1-2.3-0.8-2.9-1.9
			c-4.1-10.9-13.2-16.3-22.8-21.1c-2.5-1.2-4.8-3-7.8-3.5c-1.9,1.8-0.5,4.1-0.8,6.1c0,2.3,0.1,4.5,0.1,6.8
			c-0.2,8.8,0.4,17.6-0.3,26.4c-2,4.6-5.1,7.5-10.6,6.7c-0.4-0.8-0.4-1.6-0.2-2.5c5.9-4.7,6-11.1,5.7-17.8c-0.3-8,0-16.1-0.1-24.2
			c0-2.9-0.1-5.7,1.9-8.1L472.9,275.6z"/>
		<path class="st1" d="M511.5,308.5c7.1,8,10.9,18.1,16.1,27.2c4,6.9,8.9,13.4,11,21.3c-0.6,0.4-1.3,0.5-2,0.3
			c-7-7.9-10.6-17.8-15.9-26.6c-3-4.8-5.7-9.8-8.2-14.9c-1.1-2.2-3-4.5-1.1-7.1L511.5,308.5z"/>
		<path class="st1" d="M537.2,357h1.4c7.1,8.1,10.5,18.3,16.3,27.1c2.9,4.6,5.3,9.5,8,14.3v1.4c-3.1,0.7-4.3-1.7-5.4-3.6
			c-6.8-12.1-13.9-24.2-20.3-36.5C536.7,358.8,536.7,357.8,537.2,357z"/>
		<path class="st1" d="M383,398.3c-0.1,1.5,0.3,3.2-1.3,4.3c-1.2-0.8-1.9-2.2-1.7-3.7c1.1-8.7-4.1-13.5-10.4-17.7
			c-2.9-1.9-6.2-3.7-6.8-7.7c0.2-0.7,0.8-1.2,1.4-1.4c1.4-0.2,2.9,0.2,3.9,1.3c5.3,6,10.3,3.8,16,0.1c7.8-5.2,16.1-9.7,24.2-14.6
			c1.5-1.1,3.5-1.5,4.7-3.7c-2.7-2-6.1-2.1-9.1-3.3c-7.8-2.7-15.8-1.1-23.7-1.5c-3,0.1-6.1-0.1-9.1-0.4
			c-12.4-3.2-13.5-4.3-14.6-15.1c1.1-3.2,4.3-4.4,6.5-6.5c4.5-2.9,10-1.4,14.7-3.1c11.9-0.2,23.7,0.7,34.9,5
			c3.2,0.8,5.8,3.1,9.6,3.1c1-3.9-1.1-7.5-1.1-11.2c-1-11.5-4.5-21.5-15.1-28.1c-4.6-2.9-9.6-2.2-14.3-3.5c-3.6-1-7.4-1.5-10.8-3.5
			c-3.3-1.9-6.4-4.8-5.7-9s4-7.1,8.1-8.1c14.2-3.6,29.3-0.9,41.3,7.5c2.3,1.7,4.1,4,5.4,6.5c8.6,14.6,14.8,30.1,16.7,47.1
			c1.6,5,4.6,1.1,6.9,1c0.7,0,1.3,0.3,1.9,0.7c0.5,0.5,0.7,1.1,0.8,1.8c-0.5,1.6-1.8,2.9-3.4,3.5c-3.4,1.8-3.5,4.4-3,7.8
			c1.6,11.5,8.4,19.8,16,27.9c3.3,3.5,8.4,5.7,8.6,11.5c-2.6,2.1-4.3,0-6-1.4c-1.9-1.7-3.9-3.3-5.9-4.8c-4.8-4.6-7.7-10.8-12.5-15.4
			c-5.7-9.9-6.7-21.2-8.8-32c-2.7-14.7-7.6-28.8-14.5-42c-5-9.3-13.1-12.8-22.1-14.7c-6.6-1.1-13.3-1-19.8,0.2
			c-4.9,4.3-4.8,4.7,1.3,8.2c2.7,0.9,5.5,1.5,8.3,1.8c19.2,1.8,27.9,12.9,31.7,30.3c1.5,6.9,1.8,14.1,2.3,21.2
			c-1.6,5.3-5.3,3.8-8.6,2.4c-10.7-4.6-22.1-7.2-33.7-7.9c-6.1-0.4-12.3,0.3-18.2,1.9c-2.5,0.7-5.1,2-4.8,5.3c0.3,3.3,2.7,4.3,5.3,5
			c2.8,0.7,5.6,0.9,8.4,0.5c12.6-1,24.9,0,37,4.8c8.4,3.3,15.7,8.9,21.2,16c5.1,6.5,11.3,12.1,16.4,18.7c4.7,6,11.1,9.5,18.2,11.8
			c5.9,2.4,11.9,4.6,17.7,7.1c1.4,0.6,3.4,1.9,4.5,0c1.3-2.3-1-3.3-2.5-4.3c-4.2-2.7-8.8-4.6-12.8-7.6c-1.4-1.4-3.3-2.7-2.2-5.3
			c3.5-1.6,5.8,1,8.3,2.6c7.5,4.4,15.3,8.3,23.4,11.4c4.5,1.9,6.2,0.6,7.3-4c1.3-5.4,2.3-10.1-3.6-13.5c-1.2-0.7-2.6-2.4-0.6-4
			c10,1.2,13.2,5.2,10.6,14.5c-1.4,4.8-0.8,10.6-5.8,14c-4.3,1.3-7.6-1.6-11.3-2.6c-1.3-0.3-2.9-1.4-3.7,0.3c-1,2,0.8,3,2.3,3.6
			c4.5,1.8,8.9,4.2,13.6,5.5c4.3,2,8.3,0.5,12.3-1.1c8.9-3.7,17.9-7.3,27-10.6c2.9-1.1,5.7-2.3,8.7-0.1c-8.6,4.7-17.7,7.5-26.7,11.1
			c-2.2,0.9-4.6,1.2-6.2,3.2c-15.5,7-27.5-4.3-40.6-8.5c-15-4.8-29.4-11.8-44.2-17.4c-7.1-2.7-9.9-9.2-14.3-14.3
			c-4.8-5.4-7.3-14.9-13.9-16c-6.1-0.9-12.2,6.1-18.2,9.7c-5.7,3.4-11.3,6.9-17.1,10c-3.1,1.7-4.8,3-1.2,5.9
			C384.8,388.7,382.5,393.8,383,398.3z"/>
		<path class="st1" d="M562.8,401.2c-12,1.7-22.4,7.9-33.7,11.7c-4.8,1.6-9.5,6.1-14.9,1.2c-1.2-2.7-2.6-5.4-1.4-8.5
			c5.4-5.7,5.6-13.5,6.2-20.4c0.3-3.3-6-5.9-10.5-6.9c-1.7,0.6-2.9-0.2-4.1-1.2c-4.5-5.9-1.6-12.2-0.8-18.3c0.4-0.6,1.1-0.9,1.9-0.9
			c2.7,1,3.3,3.4,3.4,5.7c0,5.1,2.7,9.8,7.1,12.3c6.7,4.3,8.4,10.5,6.6,18c-0.8,3.2-1.6,6.4-2.3,9.7c-1,4.8,1.4,6.4,5.5,5.2
			c7.7-2.3,15.2-5.3,22.4-9c4.9-2.5,3.8-6.5,1.7-10.3c-8.1-14.7-16.5-29.4-24.5-44.2c-8.2-15.1-17.7-29.6-25-45.3
			c-0.8-2.9-2.3-5.1-5.5-5.5c-3.4-0.7-6-2.9-8.8-4.5c-2.4-1.4-5.7-0.4-7.7-2.7c1.1-4.5,4.7-2,7.2-2.7c12.2,4.2,19.6,13.4,25.8,24.1
			c5,13.3,13.5,24.7,19.7,37.3c1.9,3.8,4.1,7.4,6.1,11.1c6.4,11.5,12.8,23,19.3,34.5c1.7,3,3.1,6.4,6.2,8.4
			C562.8,400.3,562.8,400.8,562.8,401.2z"/>
		<path class="st1" d="M257.4,292.9H130.5c-7.1,3-8.1-2.9-10-7.1h145.5C265.3,290.6,264.8,295.8,257.4,292.9z"/>
		<path class="st1" d="M120.5,285.7c1.3,2.2,8.2,0.6,4.4,6.6c-0.1,0.2,3.7,0.2,5.6,0.6c-9.4,2.2-19,1.8-28.5,2.9
			c-0.7-0.7-0.4-1.1,0.3-1.6c1.8-1.2,5.1-1.3,4.8-4.3c-0.3-3.5-4-1.7-7.1-3.2C107.7,285,114.1,286,120.5,285.7z"/>
		<path class="st1" d="M257.4,292.9c1.9-0.9,7,2.5,4.7-3.9c-0.7-2,3.1-1.4,3.9-3.3h22.8c1.8,1,3.3,2.5,4.2,4.4c1.3,5.9-2.3,7-7,7
			c-7.2-1.6-14.6-2.5-22-2.9C261.8,294.2,259.3,294.9,257.4,292.9z"/>
		<path class="st1" d="M136.2,412.7c-2.2-0.1-4.2-1.4-5-3.5c-4.5-11.9-11.4-22.8-14.9-35.1c0.6-0.4,1.3-0.5,1.9-0.2
			c4.1,3.1,4.6,8.1,6.6,12.3c4,8.5,7.8,17.1,11.8,25.6C136.4,412.1,136.3,412.4,136.2,412.7z"/>
		<path class="st1" d="M153.3,427c-4.1-0.9-6.2-4.1-8.6-7.1l0.8-0.6c4.7,0.4,7.4,2.9,7.9,7.6L153.3,427z"/>
		<path class="st1" d="M144.7,419.9c-4.1-0.9-6.2-4.1-8.6-7.1l0.1-0.1c5.7-1.1,7.8,2.2,8.6,7.1L144.7,419.9z"/>
		<path class="st1" d="M117.7,374.1h-1.4l-1.4-2.9c-0.1-1.2,0.5-2.3,1.5-2.9C118.2,370,119.3,371.7,117.7,374.1z"/>
		<path class="st1" d="M99.1,312.7c12.6,1.7,25.3,2.7,38.1,2.9c42.5,0,84.9,0,127.4-0.1c2-1.2,4.5-0.9,6.3,0.6
			c-2.9,2.9-10.3,2.5-7.7,9.3H103.5c3.7-4.7,10.6-1,14.9-5.4C112.8,315,104.2,318.2,99.1,312.7z"/>
		<path class="st1" d="M363,372.7c1.5,2.7,3.8,4.9,6.6,6.2c9.4,5.2,14.1,12.8,12.1,23.7c0.2,4.2-2.4,4.6-5.6,4.3
			c-20.8-2.5-41.6-1.3-62.4-0.7c-0.7-0.1-1.4-0.3-2-0.6c-13.7-9.7-27.5-19.3-41.2-29c-4.3-3.1-9.4-3.1-14.2-3.8
			c-21.4-3-42.9-5.7-64.4-8.4c-12.6-1.6-25.3-3.2-37.9-4.5c-3.5-0.4-7-0.8-8.9-3.6c-7.1-10.5-18.2-9.4-28.6-10.8
			c-2.5-0.3-5.3,0.8-7.4-1.4c-3.1-4.1-5.7-8.2-2.9-13.7c0.7-1.4-2.2-0.6-2.6-1.9c2-2.6,4.8-1.4,7.3-1.4c64.1-0.1,128.2-0.1,192.2,0
			c6.4,1.3,9.9,7.1,15.3,10c0.5,0.3,1.1,0.7,1.6,1.1c3.5,3.2,7.2,6.2,11.2,8.8c0.5,0.3,1,0.7,1.5,1.1c1.4,1.3,2.9,2.4,4.4,3.4
			c0.5,0.3,1,0.7,1.5,1.1c3.5,3.2,7.2,6.1,11.2,8.8c0.5,0.3,1.1,0.7,1.6,1.1c3.4,3.6,7.8,5.8,11.2,9.3L363,372.7z"/>
		<path class="st1" d="M117.7,374.1l-1.4-5.7c0.1-3.7-1-9,3.6-9.5c5.3-0.5,11.3-4,16.1,3.8c8.6,13.5,18.8,25.9,28.4,38.8
			c1,1,2,1.8,3.2,2.6l1.1,0.5c2.5,2.9,5.8,3.3,9.5,3.4c6.7,0.2,13.5-1.1,20.1,1l0.8,0.8c3.8,3.5,7.5,7.1,11.3,10.5
			c1.9,1.7,3.1,4.2,3,6.8c0.4,11,0.4,10.5-10,13.5c-9.1,2.7-18.8,1.7-27.1-2.9c-7.5-3.8-15.6-6.3-22.7-10.9c-2.3-3-4.4-6.3-8.6-7.1
			c-2.3-3-4.4-6.3-8.6-7.1c-7.2-9.4-10.1-21-15.5-31.4C119.5,378.9,118.7,376.5,117.7,374.1z"/>
		<path class="st1" d="M181.8,392.7c-0.2,2.2,2,2.8,3,4.2c2.3,7.4,0.4,10.2-6.9,10.4c-2.3,0-4.7-0.3-7-0.7c-1.4-0.3-2.6-1.2-3.3-2.5
			l0,0c-5.8-11.9-15.2-21.3-22.7-32c-0.5-0.8-1-1.6-1.4-2.4c0.2-3.9,2.4-6.4,5.5-8.3c4.2,0.4,8.4,1,12.6,1.3c6,0.4,10.2,0.8,9.2,9.4
			C169.8,380.5,176.6,386.6,181.8,392.7z"/>
		<path class="st1" d="M263.2,325.6c0.7-3.7-6.2-2.2-4.3-5.6c1.9-3.4,6-2.9,9.4-3c0.2,0,0.4-0.2,0.7-0.4c-1.2-1.7-2.9-0.6-4.3-1
			c13-2.5,26-5,39.4-4.3c4,0.2,8,0,12,0.1c3.6,4.1,8.2,5.1,13.5,4.9c9.7-0.2,19.5-0.1,29.2,0c3,0,6.2-0.4,8.7,2.2
			c-2.9,2.5-6.4,1.2-9.6,1.3c-11.6,0.2-23.3,0.1-34.9,0c-3.1,0-5.9,0.1-5.4,4.4c-4.2,6-9.3,3.2-14.3,1.4L263.2,325.6z"/>
		<path class="st1" d="M149,361.4l-5.5,8.3c-1.8-2.5-4.1-4.7-5.4-7.4c-3.8-8.2-10.9-6.9-17.7-6.5c-4.6,0.2-4.4,4.9-6.5,7.4
			c-3.3-4.6-6.6-10.6-4.9-14.8s8,0.4,12.4,0.2c8.9-0.5,16.7,2,22.4,9.5C144.9,359.9,146.8,361.1,149,361.4z"/>
		<path class="st1" d="M303.1,325.7c4.7-0.8,9.8,1.3,14.3-1.4c0.4,0,0.9,0,1.3,0c-0.4,4.1-0.4,4.1-7.3,4.9c1.8,2.4,4.8,3.4,6.6,5.7
			c0.8,1.1,1.5,2.2,0.8,3.6c-6.4-2.3-10.6-7.5-15.7-11.4C303.1,326.6,303.1,326.2,303.1,325.7z"/>
		<path class="st1" d="M103.6,328.6h5.8c-4.8,6.5-4.4,9.6,1.4,14.1c0.7,0.5,2.2,0.6,0.3,1.4c-0.7,0.2-1.4,0.2-2.1,0.2
			c-5.9,0.3-3.8-4.2-4.3-7.1c-1.6-2.2,0.2-5-1.3-7.1C103.5,329.5,103.5,329,103.6,328.6z"/>
		<path class="st1" d="M103.5,329.9c2.2,2.1,1,4.8,1.3,7.1C102.5,335,103.7,332.4,103.5,329.9z"/>
		<path class="st1" d="M170.4,405.6c1.5-1.4,3.1,0,4.6,0c8.8,0.4,9.5-0.2,9.7-8.7c5.4,1.8,10.8,3.7,14.4,8.4c0.8,1,4.3,3.3-0.2,4.5
			l0,0c-7.4-1.6-14.9-0.3-22.3-0.7C174.1,408.9,170.7,410,170.4,405.6z"/>
		<path class="st1" d="M413.1,332.7c-11.4-4.9-23.6-5.2-35.8-5.6c-3.3-0.8-6.3-2-7.1-5.7c0-9.2-0.1-18.3,0.1-27.5
			c0.1-4-1.4-5.5-5.3-5.3c-4.9,0.2-9.9,0-14.8,0c-5.3-1.7-7.6-4.8-4.3-10.1c9.4-5.8,12.8-15.3,16.4-25.1c3.6-9.8,1.1-19.3-0.7-28.9
			c-0.3-2.5,0.6-5,2.6-6.6c2.1-1.9-1.7-0.8-1.1-1.9c7.7-3.5,14.7-1.4,21.3,2.9c4.4,8.2,12.8,6,19.6,6.7c5.8,0.6,7.7,2.3,7.6,8.1
			c-0.1,17.3,0.1,17.1,16.7,23.7c14.9,5.9,29.7,12.3,44.6,18.4c0,11.1-0.3,22.3,0.1,33.4c0.3,7.3,0.4,14-7.1,17.9
			c-3.1,3.3-6.3,6.3-11.4,5.9l-0.1-0.3c-2.9,0-5.7,0.1-8.6,0.2c-2-4.1-2.4-8.6-2.9-13c-1.6-14.1-9.4-25.7-16.1-37.5
			c-3.8-6.7-12.2-8.8-19.4-10.8c-7.2-2-14.9-1.4-22.4-0.3c-3.9,0.4-7.2,3.1-8.3,6.8c-0.9,3.5,2.5,6.2,5.9,8c4.1,2.1,8.6,2.5,13,3.4
			c18.7,3.9,27.5,14.4,27.4,33.3C421.5,331.8,421.4,331.9,413.1,332.7z"/>
		<path class="st1" d="M354.5,225.9c5.2-0.8,6.8,1.4,7.3,6.7c1,11.7-1.9,22.4-6,33.2c-2.1,5.5-7.6,6.9-11.3,10.4
			c-2.9,2.7-6.6,4.6-10,6.8c-5.3,5.4-11.9,6.1-19,5.7c-5.2-0.3-10.4,0-15.7-0.1c-1.6,0-4,0.2-4.8-0.7c-5.8-7.2-13.8-4.9-21.1-4.9
			c-55.2-0.1-110.5-0.1-165.8,0c-7.9,0-7.8,0-5.3-7.6c3.5-10.6,7-21,10.1-31.8c0.7-3.3,3.5-5.8,6.9-6.2c19.7-3.4,39.5-6.7,59.2-10
			c1.4-0.1,2.9-0.2,4.3-0.1c2.5-1.3,5.1-0.6,7.7-0.6c51.9,0,103.9,0,155.8,0C349.3,226.5,352,227.1,354.5,225.9z"/>
		<path class="st1" d="M281.8,310c-10.4,3.3-21.3,3.9-31.9,4c-37.4,0.5-74.9,0.6-112.4,0c-11.8-0.2-23.9-0.5-35.5-4
			c0.3-0.8,1.8-0.7,1.7-1c-4.3-6.3-4-7.4,2.6-10.6c6.2-2.6,12.9-2.1,19.3-2.6c31.2-2.6,62.4-1.2,93.7-1.7c18.9-0.3,37.7,1.5,56.5,3
			c1.1,0.3,2.2,0.8,3.1,1.4C284.7,301.1,283,305.6,281.8,310z"/>
		<path class="st1" d="M328.2,299.9c11.8,0,23.7,0.1,35.5,0c3.6,0,5.2,1.1,5,4.9c-0.2,3.8-1.6,5.4-5.2,4.9
			c-19.6-2.5-39.2-0.5-58.8-1.1c-4-0.1-8.1-0.1-12.1,0.1c-2.5,0.2-5.2,1.8-5.3-2.9c0-3.9,0.6-6.2,5.4-6
			C304.5,300.1,316.4,299.9,328.2,299.9z"/>
		<path class="st1" d="M286.1,297c3.4-1,6-3.6,7-7h0.1c12.4,1.4,24.9,0.3,37.4,0.7s25.4-0.9,38,0.7c0,2,0.8,4.1-1.2,5.7
			c-6.5,1.4-13.2,0.5-19.8,0.6c-17.7,0.1-35.5,0-53.3,0c-2.3,0-4.7,0.6-7-0.6C287,297.1,286.5,297.1,286.1,297z"/>
		<path class="st1" d="M367.4,318.6c-14.3,0-28.4-0.3-42.6,0c-5.6,0.2-8.4-1.7-8.8-7.1c15.7,0,31.4,0,47-0.1
			C368.9,311.3,370.2,313.5,367.4,318.6z"/>
		<path class="st1" d="M308.6,328.5c-0.4-2.1,1.2-1.4,2.1-1.4c1.1-0.1,2.3,0,3.5,0c2.1,0,4.4,0.3,4.6-2.9c0.7-3.9,3.8-2.9,6.1-2.9
			c10.4,0,20.7,0,31.1,0c4.2,1.3,7.7,3.3,7.1,8.6c-1.1,2.5-3.7,3.1-5.7,4.3c-2.1-9.6-2.1-9.6-13.1-9.6c-4.5,0-9-0.3-13.5,0.2
			c-3.6,0.4-7.1,1.3-8.2,5.5c-1.1,4.2,1.5,6.1,4.7,7.7c3.4,1.4,6.6,3.6,9.1,6.3c1.7,1.9,3.7,3.6,5.9,5c8.3,7.3,18.5,12.4,25.3,21.4
			c-0.4,1.8-2.1,1.3-3.2,1.9l-1.5,0.1l0,0c-4.2-3.4-8.6-6.6-12.8-10l0,0c-4.2-3.4-8.6-6.6-12.8-10l0,0c-2-1.3-3.7-3-5.7-4.3l0,0
			c-4.2-3.4-8.6-6.6-12.8-10l0,0l-1.4-2.9C317.3,329.9,311.9,330.4,308.6,328.5z"/>
		<path class="st1" d="M354.5,225.9c-1.9,2-4.5,1.3-6.7,1.3c-54.8,0-109.7,0-164.5,0c2.4-2.4,5.4-1.3,8.1-1.3
			c53.9-0.1,107.8-0.1,161.7,0C353.5,225.7,354,225.8,354.5,225.9z"/>
		<path class="st1" d="M287.4,297.1h80c-1.4,1.6-3.4,1.3-5.3,1.3c-23.2,0-46.3,0-69.4,0C290.8,298.5,288.8,298.8,287.4,297.1z"/>
		<path class="st1" d="M363.1,330c-1.6-3.4-4-6.4-7.1-8.6l14.1-0.1l7.1,5.7C373,330,367.4,327,363.1,330z"/>
		<path class="st1" d="M368.6,291.4c-22.7,0-45.4,0-68,0c-2.5,0-5.2,0.9-7.4-1.3c22.9,0,45.9,0,68.8,0
			C364.2,290.1,366.8,289.1,368.6,291.4z"/>
		<path class="st1" d="M345.9,278.4c-0.4,4.1,0.2,7.9,4.3,10.1h-17c-1-2.9,2.3-2.5,2.8-4.3C339.4,282.5,342,279.4,345.9,278.4z"/>
		<path class="st1" d="M106.2,298.5c-2.4,3.1-7.6,5.7-1.6,10.1c1,0.7-0.1,1.1-0.7,1.2c-0.7,0.1-1.4,0.2-2.1,0.1
			c-5.5,0.2-4.3-3.9-4.2-6.9C98,297,102.8,298.9,106.2,298.5z"/>
		<path class="st1" d="M281.8,310c-0.9-0.2-2.4-0.6-1.7-1.4c3.1-3.9,1.3-6.9-1.1-10c2.9,0,5.6,0.4,5.6,3.9
			C284.5,305.1,286.5,308.9,281.8,310z"/>
		<path class="st1" d="M363.1,215.8c1,0.6,4.8-1.4,2.5,2.4c-1.2,2.1-2.6,4.1-4,6.1c-2.4-0.2-5.6,0.2-2.6-3.7
			C360.3,219,361.7,217.4,363.1,215.8z"/>
		<path class="st1" d="M505.7,358.4h-1.4c-9.1-3.2-10.3-4.5-10-13.4c0.1-3.7-1.4-4.9-4.4-6c-3.9-1.4-8.3-1.7-11.4-5
			c-2.6-3.3-5.1-6.7-4-11.3v-28.5c1.8-0.6,2.7,0.4,3.4,1.8c0.2,0.7,0.2,1.5,0.1,2.2c-0.3,5.7-0.9,11.5,0.5,17.2
			c-1,10.1,4.2,15.3,13.6,17.3c2.2,0.3,4.1,1.5,5.4,3.2C501.6,342.9,504.4,350.5,505.7,358.4z"/>
		<path class="st1" d="M474.4,322.8c1.7,3.2,1.8,7,4.2,10c-4.8,2.7-8.6-0.4-12.5-2.2c-0.6-0.5-0.7-1.4-0.2-2L474.4,322.8z"/>
		<path class="st1" d="M485.6,284.4c-1.7,2.5-5.3,0-7,2.7c-0.1,0.9-0.7,1.6-1.6,1.9c-1.4,0.1-1.9-1-2.6-1.9c0.1-2.5-0.7-5,0.6-7.6
			C479,280.3,482.1,282.7,485.6,284.4z"/>
		<path class="st1" d="M465.8,328.6c0,0.4,0,0.9,0.1,1.3c-0.7,1.1-1.7,2-2.9,2.5c-2.3,0.9-4.4,3-7.2,1.8l-1.4-1.2l11.4-5.9
			C465.8,327.6,465.8,328.1,465.8,328.6z"/>
		<path class="st1" d="M474.4,287.1l2.8,1.4c1.4,1.4,1.9,3.4,1.3,5.3c-0.2,0.7-0.7,1.4-1.3,1.9l-2.8-1.4
			C474.4,291.9,474.4,289.5,474.4,287.1z"/>
		<path class="st1" d="M455.8,334.1l7.1-3.1c4.3-1.6,7.8,1,11.6,2c2.3,0.6,4.5,1.4,6.7,2.2c4.3,1.4,9.3,1.9,12.6,4.5
			c3.9,3.1-0.5,8.6,1,12.8c4.2,6.1,8.3,12.3,6.9,20.4c0.8,1.7,2.2,3.1,3.8,4l2.9,1.4c0.1,0.2,0.2,0.4,0.3,0.6
			c2.1,3.2,7.8,3.4,7.9,7.4c0.2,4.8-1.6,9.7-2.6,14.5c-0.7,3.2-2.8,2.3-4.9,1.4c-10.9-3.8-21.3-8.9-31.1-15.2
			c-1.2-0.7-2.5-1.2-3.8-1.7l0,0c-5.7-7.5-13.2-13.4-19-20.9c-5.2-6.8-6.5-14.6-7.9-22.3C446.3,336.6,453.6,337.6,455.8,334.1z"/>
		<path class="st1" d="M470,397c-9.2-1.6-15.8-7.1-21.6-13.9c-5.1-5.9-10.2-11.8-15.2-17.8c-10.8-13.2-25.3-18.2-41.6-19.7
			c-8-0.7-15.9,1.4-23.9-0.1c-4.3-0.8-6.8-3.1-7.3-7.3c-0.5-4.8,3.5-6.1,6.7-6.8c14.8-3.6,29.4-2.2,43.7,2.6c4,1.3,8,2.9,11.9,4.5
			c2.1,0.9,3.6,1,4.6-1.4c0.6-0.4,1.4-0.3,1.8,0.2c0.1,0.1,0.1,0.2,0.1,0.2c0.4,1.1,0.2,2.3-0.5,3.3c-5.1,4.2-10.3,2.3-15.3,0.2
			c-9.7-4.2-20-5.7-30.4-6.2c-0.7-0.1-1.4-0.1-2.1,0c-2.9,0.4-7.8-0.3-7.8,3c0,3.7,4.7,3,7.6,2.9c11.9-0.2,23.6-0.1,34.8,4.8
			c4,1.5,7.8,3.4,11.4,5.7c1.8,1.2,3.3,2.8,4.3,4.8c1.9,5.1,6.4,7.9,9.8,11.7c2.1,2,4.1,4.2,5.9,6.4c5.5,6.1,9.9,13.8,19.5,15.7
			c0.6-5.3-6-6.6-5.1-11.3c0.4-0.5,1-0.5,1.5-0.2c0.1,0.1,0.1,0.1,0.2,0.2c5.1,0.3,6.3,6.8,11.4,7.1l0,0c1,1.4,2,2.9,2.9,4.2
			C479.5,396.9,474.6,396.9,470,397z"/>
		<path class="st1" d="M428.7,337h-1.4c-1-6.7-1.7-13.5-2.9-20.1c-3.1-17.1-11.9-28.7-30.8-29.8c-3.3-0.2-6.5-0.7-9.2-2.9
			c-2.1-3.1,0.8-6.9-1.4-10c14.5-3.7,28-1.8,40.3,7c1.8,1.3,2.6,3.9,4,5.8c11.9,17.3,14.2,37.8,18.5,57.5c1.4,6.7,2.8,13.3,5.8,19.5
			c1.1,1.7,0.7,2.9-1.3,3.4c-3-0.9-4.1-3.2-4.8-6c-2.9-10.5-5.1-21.1-7.7-31.6c-0.3-0.7-0.4-1.4-0.6-2.1c-1.3-14.8-7-27.8-15.5-39.7
			c-8.4-8.6-20.9-12.2-28.4-8.2c0.6,2,2.4,2.1,4,2.4c23.2,4.9,29.8,18.1,33,37.5c0.7,4.3,0.2,8.6,1,12.8
			C431.7,334.3,432.1,337,428.7,337z"/>
		<path class="st1" d="M327.4,339.8c-4.7-1.2-7.5-4-7-9.1c0.4-4.8,3.8-7.3,8.1-7.5c8-0.6,16.1-0.7,24.2-0.2
			c7.2,0.6,6.7,5.9,4.8,11.2c0.8,7.8,4.6,13,12.8,14.2c8,1.7,16.2,0.5,24.3,0.7c3.4,0.1,6.6,0.3,9.3,2.4c3.6,2.7,5.2,5.7,0.2,8.7
			c-3.4-0.5-2.6-6-6.7-5.7c-7.9-2.3-16-0.9-24-1.2c-5.1-0.2-10.1-0.7-14.2-3.7c-5.1-3.5-7.4-9.8-5.7-15.7c1.3-5.5-1.3-7.4-6.2-7.6
			c-4.7-0.3-9.5-0.3-14.2,0c-8,0.6-9.3,3.1-6,10.2C327.6,337.5,327.8,338.7,327.4,339.8z"/>
		<path class="st1" d="M403,359.8c3.9-2.2,3.4-4.7,0.5-7.3c-2.6-2.3-5.8-2.9-9.3-2.8c-8.3,0.1-16.5,0-24.8,0c-0.2,0-0.3-0.2-0.5-0.4
			l1.3-1c8.6,0,17.1,0,25.7,0c3.6-0.2,7.1,0.8,10,2.9c3.3,2.1,3.5,5.3,2.9,8.7c-9.9,7.1-20.8,12.7-31,19.2c-2.9,1.9-4.1,0.4-5.9-1.1
			c-2.3-1.9-4.8-3.7-7.3-5.5c0.6-0.9,1.7-1.4,2.8-1.3c9.5,3.8,17-0.4,24.4-5.8C395,362.8,398.8,360.9,403,359.8z"/>
		<path class="st1" d="M470,397c2.9-2,7.9-1.7,7.3-7.3c5,2.7,9.8,5.7,14.9,8.1c3.4,1.6,2.9,3.8,1.9,6.4c-1.3,3.3-3.4,1.5-5.2,0.7
			C482.5,402.3,476.2,399.7,470,397z"/>
		<path class="st1" d="M421.5,356.2c3.3,3.4,6.9,6.4,9.7,10.2c5.6,7.4,13.2,13.2,17.3,21.8c-14.4-5.7-18.8-20.7-28.5-30.7
			L421.5,356.2z"/>
		<path class="st1" d="M512.8,405.7c1.6,2.5,2.1,5.6,1.4,8.5c-5.8-0.4-10.3-4.3-15.7-5.9c-2.9-0.9-3.1-3.1-2-5.7
			c1.2-3,3-2.1,5.1-1.2C505.3,402.9,509.1,404.2,512.8,405.7z"/>
		<path class="st1" d="M413.1,332.7c5-1,8.8-4.8,9.8-9.8c0.2,4.4,2.8,8.6,0.9,13.1C419.7,336.3,416.8,333.3,413.1,332.7z"/>
		<path class="st1" d="M408.7,359.9c-2.6-2.4-0.7-6.2-2.9-8.7c3.8,0.2,7.1,1.8,11.1,3.4C414.8,357.1,411.9,359,408.7,359.9z"/>
		<path class="st1" d="M383,274.2l2.1,0.1c-0.2,3.3-0.4,6.6-0.6,9.9C377.3,280.9,377.1,279.4,383,274.2z"/>
		<path class="st1" d="M450.1,366.9c1-0.7,1.5-1.8,1.4-3c5.4,3.5,7.6,9.6,11.4,14.4h-1.4c-5.6-0.4-6.4-6.7-10.7-8.8
			C450.1,368.9,449.6,368.1,450.1,366.9z"/>
		<path class="st1" d="M445.7,332.9c2.8-4.3,5.7-1.1,8.6-0.2c-1.6,1-3.1,2.1-4.7,3.1C446.1,337.9,445.7,335.6,445.7,332.9z"/>
		<path class="st1" d="M477.2,295.6c0-0.5,0-0.9,0-1.4c0.8-6.3,4.4-7.7,10-5.7c2.8,1.6,5.1,4.1,8.6,4.3c2.3,1.4,4.3,3.4,5.7,5.7
			c15.5,27.7,31.2,55.3,46.4,83.1c7.4,13.5,11.9,16.7-7.8,23.9c-4.7,1.7-9.2,3.9-13.9,5.3c-6,1.7-8.9-1.4-7.5-7.4
			c0.8-3.5,1.8-6.9,2.6-10.3c1.3-6,0.6-11.5-5.1-15c-6.1-3.6-9.5-8.3-8.9-15.7c0.1-1.3-0.8-2.7-1.3-4c-3.4-5.5-5.9-11.6-7.3-18
			c-0.7-4-4.5-5.1-7.9-6.3c-13.4-4.7-13.4-4.7-13.4-18.5c-1.1-6.1-1.1-12.4,0-18.5L477.2,295.6z"/>
		<path class="st1" d="M505.6,376.9c-1.9,0.1-3.6-1.1-4.2-2.9c-0.7-1-0.9-2.2-0.6-3.4c0.7-6.7-0.6-12.5-6.5-16.6
			c-0.4-1.1-1.4-2.5-1.1-3.3c4.3-10-2.5-12.1-9.8-13.9c-6.9-1.8-13.2-5.4-20.4-5.8l3-1.2l12.7,2.9c1.9,1.9,4.6,2.2,7,2.9
			c6.4,2,13.6,3,10.2,12.8c-0.8,2.4,0.6,4.5,3.1,5.7c2.1,1,4.5,1.7,5.5,4.2C505.5,364.6,501.5,371,505.6,376.9z"/>
		<path class="st1" d="M487.1,288.5c-5-1.1-8.2,1.1-10,5.7v-5.7l1.4-1.4C481.4,287.6,484.7,286,487.1,288.5z"/>
		<path class="st1" d="M501.4,298.5c-2.4-1.4-4.3-3.3-5.7-5.7C498.8,292.9,501.3,295.4,501.4,298.5z"/>
		<path class="st1" d="M280.8,287.1c3.1,0.5,7.5-1.2,7.7,3.8c0.2,3.5-3.2,3.5-5.7,3.4c-3.6-0.2-8.2-1-8.6-4.4
			C273.8,286,278.4,287.6,280.8,287.1z"/>
		<path class="st1" d="M207.4,332.7c27.3,0,54.7,0.3,82-0.2c7.8-0.3,15.4,2.2,21.5,7.1c18.2,14.4,36.7,28.3,55,42.5
			c2.9,2.5,5.6,5.1,8.2,7.9c1.9,1.9,2.5,4.8,1.3,7.3c-1,2.5-3.6,4.1-6.3,3.8c-17.1,0-34.2,0.2-51.4-0.2c-6.9-0.2-11.8-5.7-17.3-9.3
			c-6.4-4-12.6-8.5-18.4-13.4c-11.7-10.3-26.2-11-40.4-12.8c-25-3.2-50-7.1-75.1-9.3c-10.5-0.9-19.1-4-26.9-10.7
			c-4.5-3.9-10.6-3.5-16.2-4.3c-1.9-0.2-3.9,0.1-5.7-0.4c-2.7-0.8-5.9-1.7-5.6-5.4c0.4-4.1,3.8-2.9,6.1-2.9
			C148,332.7,177.7,332.7,207.4,332.7z"/>
		<path class="st1" d="M318.8,338.4c5.2,2,9.6,5.5,12.8,10C326.5,346.4,322,342.9,318.8,338.4z"/>
		<path class="st1" d="M337.3,352.7c5.2,2,9.6,5.5,12.8,10C345,360.7,340.6,357.2,337.3,352.7z"/>
		<path class="st1" d="M350.2,362.7c5.2,2,9.6,5.5,12.8,10C357.9,370.7,353.4,367.2,350.2,362.7z"/>
		<path class="st1" d="M331.6,348.4c2.9,0.1,4.5,2,5.7,4.3C334.5,352.7,332.9,350.8,331.6,348.4z"/>
		<path class="st1" d="M192.2,438.3c-10.7-0.6-20.3-5-29.1-10.3c-11.1-6.7-22.2-14.2-28.8-25.7c-5.5-9.4-9.9-19.4-13.1-29.8
			c-1-3.4-1.3-7.1,1.9-9c3.2-1.9,6.8-1,9.6,2c9.5,10.9,18.2,22.3,26.1,34.4c6.4,9.3,13.4,14.5,25.2,13c6.2-0.7,12.4,0.7,17.7,4.1
			c4.9,3.1,8.4,7.5,7.1,13.5c-1.3,5.8-6.5,7-11.5,7.8C195.6,438.4,193.9,438.4,192.2,438.3z"/>
		<path class="st1" d="M170.4,405.6c1.5,3.3,4.6,2.5,7.3,2.9c7.1,0.6,14.4-1.8,21.3,1.4c-8,0-16,0-24,0c-4.1,0-6.8-1.4-7.4-5.7
			C168.5,404.6,169.5,405.1,170.4,405.6z"/>
		<path class="st1" d="M157.1,366.9c4-0.6,7.8,1.9,8.7,5.9c2.1,8,6.5,14.7,10.9,21.4c1.4,2.3,3.9,5.3,1.1,7.6
			c-2.3,1.9-5.3-0.4-6.8-2.3c-6.7-8.6-13.3-17.2-19.4-26.2C149,369.2,151.1,366.9,157.1,366.9z"/>
		<path class="st1" d="M268.1,320.9c12.8-6.8,24.5-9.2,36.8-8c3.6,0.3,7.8,0.8,7.9,5.4s-4.2,3.9-7.3,4.7
			C293.4,325.7,281.7,323.7,268.1,320.9z"/>
		<path class="st1" d="M308.6,328.5c11.6,0,8.7-1.4,8.7,7.1C314.3,333.4,310.8,331.9,308.6,328.5z"/>
		<path class="st1" d="M470,299.7c0,3.3,0,6.6,0,10c0.3,11.2-5.8,14.9-13.9,18.3c-5.2,2.2-9.4,0-10.3-6.1
			c-2.1-13.6-7.8-25.7-14.8-37.3c-5.6-9.3-14.1-14-24.2-15.7c-6.4-1.1-12.8-2-19.6-0.4c-7.5,1.8-11.5,4.7-12.8,12.6
			c0,1.4-0.6,2.8-1.6,3.8c-2,1.6-19.5,1.3-21.6-0.3c-2.4-1.8-2.8-3.8-0.4-5.8c9.6-8.2,12.4-19.7,15.7-31.1c2.1-7.2-1.5-14-0.8-21.1
			c0.8-8.2,5.2-11.7,12-7c7.1,5.1,15.2,8.4,23.8,9.7c5.8,0.8,7.6,6.2,6.9,10.8c-1.6,11.2,5.6,15,13.8,18.4
			c11.8,4.9,23.4,10.2,35.4,14.8c9,3.4,13.4,9.2,12.4,18.9C469.9,294.5,469.9,297.1,470,299.7z"/>
		<path class="st1" d="M420.1,321.2c0,7.8-2.7,10-10,7.4c-8.8-3.1-17.9-4-27.1-4.3c-7.6-0.3-9.8-2.3-10-9.6c-0.1-7.1,0-14.3,0-21.3
			c0-5,1.6-7.1,6.9-5.1c6.2,2.2,12.6,3.8,19.2,4.7C409.9,294.9,420,308.9,420.1,321.2z"/>
		<path class="st1" d="M294.6,282.8c-3.9-0.9-7.9-1.4-11.9-1.4c-46.5-1.9-93-1.2-139.5-1.4c-8.1,0-15.9,2-24.1,1.6
			c-11.9-0.6-15-4.6-11.3-15.7c1.1-3.4,2.8-6.7,3.3-10.1c2-12.4,10.1-16.5,21.5-18.5c36.3-6.8,73.2-9.7,110.1-8.7
			c32.8,0.9,65.6,0.6,98.3,0c20.5-0.3,19.3,5.6,17,21.7c-2.9,19.6-23.9,35.8-43.8,35.4C307.8,285.4,300.5,288.3,294.6,282.8
			c1.4-2.4,3.5-2,5.7-1.5c18.9,4.9,33.3-4.3,46-16.2c6.1-5.7,8-14.5,8.8-22.8c0.6-6.2-2.1-8.7-8.3-8.7c-54.2,0-108.4-0.5-162.5,0.3
			c-15.5,0.2-30.8,5-46.2,7.5c-20.3,3.4-17.7,2.4-24.2,21.6c-4.3,12.6-3.5,13.5,9.6,13.5H281c3.1,0,6.2-0.3,9.2,0.6
			C292.8,278,296,278.7,294.6,282.8z"/>
		<path class="st1" d="M196.4,311.3c-16.1,0-29.4,0-42.8,0c-13.7,0-27.3-1.7-41-2.9c-2.9-0.2-5.6-1.2-5.7-4.1
			c-0.1-3.3,3.3-4,5.7-4.2c4.7-0.5,9.4-1.2,14.1-1.4c37.5-2.5,75-1.7,112.5-1.4c10.1,0,20.2,1.7,30.3,2.7c3.3,0.3,7.5,0.8,7.5,4.9
			c0,3.5-3.9,3.2-6.7,3.7C244.8,312.7,219.2,311,196.4,311.3z"/>
		<path class="st1" d="M327.4,339.8c-1.2-1.4-2.5-2.9-3.5-4.5c-3-4.5-2-8.3,3.3-9.9c8.1-2.5,16.4-1.8,24.6-0.6
			c4.7,0.7,4.5,4.2,3.9,7.6c-2,12.2,3,18.2,15.4,18.7c9.2,0.4,18.5-1.3,27.6,1.4c2,1.4,4.7,3,2.9,6c-1.5,2.6-3.4,5.5-7.4,4
			c1.9-5.9-0.9-6.9-6.2-6.8c-7.3,0.1-14.7,0.9-21.9-0.9c-10.3-2.6-14.3-7.1-14.9-17.7c-0.5-8.3-0.5-8.3-9-8.3
			c-3.6,0-7.1-0.1-10.6,0.1c-1.7,0.1-3.5,0.4-4.1,2.3s0.9,2.9,2.1,4.1c3.2,3.2,8.8,4.2,9.2,10c-0.6,0.8-1.8,1-2.7,0.4
			c-0.1,0-0.1-0.1-0.2-0.2L327.4,339.8z"/>
		<path class="st1" d="M394.4,362.7c5.1-1.8,9.2-4,4.3-10c4.8,0.4,4.3,3.9,4.3,7.1c-7.6,6-15.9,11.1-24.7,15
			c-4.1,1.7-7.6-1.5-11-3.6c-8-7.8-18.1-13-25.7-21.4l0.8-0.7c1-0.3,2.1-0.3,3,0.1c8,4.6,14.7,11,22.1,16.5
			c5.7,4.3,10.8,4.6,16.8,0.9C387.4,364.9,390.1,361.5,394.4,362.7z"/>
		<path class="st1" d="M335.9,345.5h2.9l1,0.2c1.4,1,2.8,2,1.9,4l0,0C338.8,349.8,337.2,347.9,335.9,345.5z"/>
		<path class="st1" d="M477.2,297v18.5C474.8,309.6,474.8,303,477.2,297z"/>
		<path class="st1" d="M452.9,347.5c-0.2-5.7,6.2-12,12.1-11.2c6.1,0.7,12.1,2.4,17.6,5c1.3,0.6,2.9,1.4,3.3,2.6
			c3.2,8.5,10.5,15.1,11.1,24.7c0.4,6.9,4.2,11.4,9.3,15.1c3.2,2.4,6.5,4.9,3.9,9.2c-2.5,4-6.4,3.1-10.1,1.4
			c-17.3-7.9-32.5-18.4-42.8-34.9C454.9,355.4,453,350.7,452.9,347.5z"/>
		<path class="st1" d="M494.3,354.2c6.5,1.7,8.1,6.1,7.2,12.2c-0.2,2.6-0.2,5.1-0.1,7.7C500,367.1,498.8,360.1,494.3,354.2z"/>
		<path class="st1" d="M427.2,352.8c-14.6-8.1-31.2-11.6-47.8-10.1c-0.7,0.1-1.4,0.1-2.1,0c-3.6-0.3-8-0.6-8-5.1s4.8-4.4,7.7-4.6
			c13.3-1,26.6,1.3,38.6,6.8c4.1,2.1,8.9,2.1,13,0c0.5-0.5,1.2-0.5,1.7,0c0.2,0.9,0.2,2.1-0.5,2.5
			C425.5,345.1,426.3,348.9,427.2,352.8z"/>
		<path class="st1" d="M430.1,339.8h-1.4c0-0.9,0-1.9,0-2.9c1.3-9.6-0.1-19-2.7-28.2c-4.3-15-14.8-22.4-29.7-24.9
			c-2.6-0.4-7.4-0.2-6.7-4.5c0.5-3.2,4.6-4,7.7-3.7c9.7,1.1,19.4,2.4,25.7,11.3c7,13.1,14.3,26.1,15.7,41.4l0,0
			c1.1,1.6,0.6,3.5,0.6,5.2c-5.3,0.9-3.6-4.4-5.6-6.4C432.2,331.4,435.4,336.9,430.1,339.8z"/>
		<path class="st1" d="M430.1,339.8c3.1-5.5,0.2-12,2.3-18.4c5,3.5,2.7,9.6,6.3,12.7c4.4,7.3,3.6,16.1,6.9,23.7
			c0.4,1.8,0.2,3.8,1,5.5c1,2.2,3.4,4.8,0.2,6.7c-2.9,1.6-4.5-1.5-6.5-3c-3.9-2.9-7.3-6.3-10.1-10.1l-2.9-4.3
			C419.2,346.5,427.6,343.9,430.1,339.8z"/>
		<path class="st1" d="M440.1,365.6c1.1,0.8,2.2,1.7,3.3,2.5c1.1,0.9,1.9,1.7,3,0.8c1.1-0.9,0.6-2.1,0.1-3.2
			c-1.1-2.3-2.5-4.6-2.2-7.3c2.9-0.9,1.6,2.2,2.9,2.9c-0.2,2.5,2.1,3.7,2.9,5.7l1.4,1.4c3.7,5.2,7.8,10,12.3,14.5
			c1.6,1.4,4.3,3.2,1.6,5.7c-2.1,1.9-4.6,0.8-6.4-0.9c-4.6-4.4-9.4-8.6-13.2-13.7c-2.4-1.3-4.4-3.3-5.7-5.7
			C439.3,367.7,439.3,366.4,440.1,365.6C440,365.6,440,365.6,440.1,365.6z"/>
		<path class="st1" d="M445.8,374.2l12.8,12.2c1.8,1.7,4.3,3.4,6.1,1.1c1.5-1.8-1.2-3.2-2.4-4.5c-4.1-4.5-9.2-8.2-10.9-14.5
			c4.6,2.1,6.1,7.1,10,10l4.6,5.3c1.7,1.9,4.6,4.3,2.9,6.5c-1.7,2.2-5.5,1.6-7.9-0.1C455,385.9,449,381.3,445.8,374.2z"/>
		<path class="st1" d="M440.1,365.6c0,0.9,0,1.9,0,2.9c-3.9-3.3-8.5-6-10-11.4C433.4,359.9,436.7,362.7,440.1,365.6z"/>
		<path class="st1" d="M438.7,328.4c-2.3-14.9-10.7-27.5-15.7-41.4C432.2,299.4,438.2,312.9,438.7,328.4z"/>
		<path class="st1" d="M447.2,361.3l-2.9-2.9c-1.9-8.1-3.8-16.2-5.7-24.3c0-1.9,0-3.8,0-5.7C443,339,444,350.5,447.2,361.3z"/>
		<path class="st1" d="M545.6,384.1c-0.1,1.1,0.4,2.3,1.4,2.9c4.6,8.3,3.7,10.5-5,14.3c-4.8,2-9.5,4-14.4,5.7
			c-4,1.4-5.7-0.3-5.7-4.4c0-2.7,1.1-5.1,1.7-7.5c2.7-10,1.8-12.8-6.6-19.4c-1.9-0.9-3.4-2.4-4.3-4.3c-3.5-6-1.8-13.3-4.9-19.4
			c4.9-1.8,6,2.4,6,5.1c0,8.3,4.3,13.5,10.3,18.3c6,4.8,6.8,11.3,4.9,18.7c-1.7,6.1-0.5,6.9,5.4,4.9c0.9-0.3,1.8-0.7,2.6-1.1
			c7.8-3.2,8-4,4-11.3c-2.1-3.8-5.9-7.1-4.5-12.2c0.5-0.5,1.3-0.6,1.8-0.2l0,0C542.1,376.6,542.8,381.2,545.6,384.1z"/>
		<path class="st1" d="M508.5,351.3c3.2,6.3,2.4,13.4,4.3,20c-0.6-0.4-1.6-0.8-1.7-1.2c-0.3-10.7-8.1-18.8-9.7-29
			c-0.9-6-5.6-7.8-10.3-9.6c-11.1-4.1-11.1-4.1-11.1-15.7c0-5.7,0-11.4,0-17.1c0.1-7.4,1.3-8.2,8.6-5.9c0.5,0.6,0.4,1.4-0.1,2
			c-4,1.7-4.8,4.9-5.3,9c-1.6,13.8,0.7,24.7,16.7,27.7c1.5,1,2.8,2.3,3.7,3.8c2.6,4.1,1.5,9.2,4,13.3
			C508.2,349.2,508.5,350.2,508.5,351.3z"/>
		<path class="st1" d="M517.1,375.5c7.7,3.5,10.3,9.1,8.1,17.8c-0.5,1.8-1.2,3.6-1.8,5.4c-0.7,2.3-1.3,4.7,0.4,6.7
			c2.1,2.5,4.5,0.3,6.5-0.3c3.3-1.1,6.6-2.4,9.8-4c9.2-3.9,9.5-4.5,6.9-14.2c6.3,6.5,5.5,11-2.5,14.3c-5.5,2.3-10.9,4.7-16.5,6.4
			c-6.2,2-8.3-0.2-6.9-6.5c0.2-1.4,0.5-2.8,0.9-4.1C526,388.6,523.8,381.6,517.1,375.5z"/>
		<path class="st1" d="M538.5,374.1h-1.4c-1.8,0.6-2.7-0.7-3.4-1.9c-7.1-12.5-14.3-25-21.1-37.6c-0.7-1.3-1-2.7-1-4.1
			c0.1-0.7,0.3-1.4,0.7-1.9c3.5-0.9,3,3,4.7,4.1c0.1,2.2,1.2,4.3,2.9,5.7c1.7,2.2,2.5,5,4.3,7.1c-0.1,1.1,0.5,2.2,1.4,2.9
			c1.7,2.2,2.5,5,4.3,7.1c0.5,3.2,2,6.2,4.3,8.6c1.7,2.2,2.5,5,4.3,7.1C538.5,372.2,538.5,373.2,538.5,374.1z"/>
		<path class="st1" d="M517.1,332.7l-4.3-4.3c-2.6-0.8-3.4-3.4-5.1-5.1c-0.8-1-1.4-2.1-1.9-3.2c-0.4-1.5-1.1-3-0.1-4.6
			C512.6,319.3,514.5,326.3,517.1,332.7z"/>
		<path class="st1" d="M498.6,302.8c5.7,1.7,6.3,6.7,7.1,11.4c-0.8,0.5-1.9,0.4-2.6-0.2c-0.5-0.4-0.9-0.9-1.3-1.4
			c-0.8-1.3-1.4-2.7-2.1-4c-0.3-0.5-0.6-1-0.8-1.6C498.4,305.6,497.6,304.3,498.6,302.8z"/>
		<path class="st1" d="M498.6,302.8c0.5,1.4,0.9,2.9,1.4,4.3c-5.3-1.4-7.9-5-8.6-10.2c2.1-1.3,3.3,0.1,4.4,1.6
			C497.6,299.1,498.7,300.9,498.6,302.8z"/>
		<path class="st1" d="M545.6,384.1c-4.2-2.1-5.1-6.4-7.1-10C544,375.3,544.1,380.2,545.6,384.1z"/>
		<path class="st1" d="M495.8,298.5l-4.3-1.4c-1.4,0.7-2.4-0.1-3.2-1.2c-0.3-0.6-0.1-1.3,0.4-1.7c0-0.5,0-1,0-1.4
			C491.9,293.6,495.2,294.2,495.8,298.5z"/>
		<path class="st1" d="M538.5,371.2c-2.9-1.5-3.8-4.2-4.3-7.1C537.1,365.7,538,368.4,538.5,371.2z"/>
		<path class="st1" d="M502.9,312.7l2.9,1.4c0,0.5,0,0.9,0,1.4l1.4,4.3C502.5,319.5,501.4,316.9,502.9,312.7z"/>
		<path class="st1" d="M529.9,355.5c-2.9-1.5-3.8-4.2-4.3-7.1C528.5,350,529.5,352.7,529.9,355.5z"/>
		<path class="st1" d="M524.2,345.5c-2.9-1.5-3.8-4.2-4.3-7.1C522.8,340,523.8,342.7,524.2,345.5z"/>
		<path class="st1" d="M220.4,337c24,0,48,0.1,72,0c5.6,0,10,2.2,14.2,5.5c12.4,9.8,24.8,19.5,37.3,29.2
			c7.7,5.9,15.5,11.6,23.2,17.4c1.7,1.3,3.5,2.8,2.6,5.3c-0.9,2.5-3.2,2.5-5.4,2.5c-14.3,0-28.5,0.1-42.8-0.1
			c-5.1,0-9.4-2.3-13.5-5.5c-10.7-8.1-21.8-15.8-32.9-23.3c-9-6.1-20-5.2-30.1-6.7c-16.9-2.5-34-4.5-51.1-6.7
			c-12.6-1.6-25.2-3.2-37.9-4.7c-1.7-0.2-3.4,0-4.7-1.3c-3.4-3.5-10.8-5.3-9.6-10.1c0.9-3.6,8-1.3,12.4-1.4
			C176.3,337,198.4,337,220.4,337z"/>
		<path class="st1" d="M192.9,435.8c-12.8-2.1-24.2-7.4-35-14.4c-18.2-11.7-27.4-29.3-33.5-49.2c-0.7-2.1-1.6-4.2,0.6-5.7
			c2.7-1.9,4.4,0.1,6.1,1.8c10,10.5,18.1,22.5,26.1,34.3c6.6,9.7,14.1,14.8,25.8,12.9c4.3-0.7,8.6,0.3,12.6,1.6
			c6.1,1.8,11.5,8,10.2,12.1C203.9,435.4,198.4,435.6,192.9,435.8z"/>
		<path class="st1" d="M164.5,383.8c-3.3-2.1-6.2-4.9-8.3-8.3c-0.9-1.5-2.4-3.5-0.2-5c1.8-1.2,4.3-0.6,5.5,1.2
			c0,0.1,0.1,0.1,0.1,0.2C163.9,375.2,164.6,378.9,164.5,383.8z"/>
		<path class="st1" d="M295.1,321.3c-2.9,0-4.7,0.1-6.6,0c-2.1-0.2-5.4,0.9-5.6-2.3c-0.1-2.2,3-3,5-3.1c6.1-0.3,12.3-0.2,18.4-0.2
			c1.2,0,2.5,0.3,2.9,1.6c0.5,1.8-1.2,2.3-2.4,2.9C302.7,322.4,298.4,320.8,295.1,321.3z"/>
		<path class="st1" d="M467.1,299.9c0,3.6,0.2,7.1,0,10.7c-0.4,6.8-5.1,12.7-11.7,14.5c-4.4,1.2-6.2-1.5-6.7-5.1
			c-2.1-12.6-8-23.5-13.6-34.8c-8.1-16.3-29.4-21.9-44.2-20.4c-9.7,1-17,4.8-20.5,14.6c-1.3,3.5-11.9,5-14.5,2.5
			c-1.6-1.6-0.8-2.9,0.4-4.3c8-9,10.9-20.2,13.6-31.5c1.4-6-1.4-11.7-1.2-17.6c0.4-6.9,3.7-9,9.5-5.1c5.8,3.9,11.7,7.1,18.7,7.9
			c6.6,0.7,9.2,5,8.7,10.8c-0.8,9.9,4.7,14.7,12.8,17.9c13.4,5.4,26.7,10.9,39.9,16.6c5.4,2.3,8.7,6.4,8.6,12.7
			C467.1,292.8,467.1,296.3,467.1,299.9z"/>
		<path class="st1" d="M375.9,306.1c0-15.5-0.1-14.6,15.3-12.5c13.8,1.9,22.3,8.5,25.7,21.6c2.6,10.2-0.4,12.9-10,10
			c-5.7-1.7-11.6-2.6-17.5-2.5c-12.7,0.1-13.5-0.8-13.5-13L375.9,306.1z"/>
		<path class="st1" d="M294.6,282.8c-1.8-5.2-6.2-4.3-10.1-4.3c-54.2,0-108.3,0-162.5,0c-2.1,0.1-4.3,0.1-6.4-0.1
			c-5-0.8-7.8-3.6-6.1-9c2.1-6.8,4.4-13.5,6.8-20.2c1.4-4.2,5.1-7.1,9.5-7.6c25.9-3.9,51.2-10.7,77.8-10.3
			c47.3,0.7,94.5,0.2,141.8,0.2c9.5,0,13.2,5.2,11.6,14.6c-4.3,25.6-35.9,45.7-59.7,36.2C296.6,281.9,295.5,282.5,294.6,282.8
			C294.6,282.8,294.6,282.8,294.6,282.8z"/>
		<path class="st1" d="M113.6,303.9c7.7-2.7,15.7-3.9,23.9-3.8c37.7-0.3,75.5-0.2,113.2,0c5.2,0,10.3,0.9,15.5,1.4
			c2,0.2,4.3,1,4.3,3c0.1,2.3-2.5,2.5-4.2,2.6c-9.8,1-19.7,2.7-29.5,2.9c-28,0.4-56,0.6-84-0.1c-10.8-0.3-21.7-0.4-32.4-2.7
			C118.1,306.6,115.7,306.2,113.6,303.9z"/>
		<path class="st1" d="M394.4,362.7c-0.2,0.1-0.4,0.2-0.6,0.3c-21.6,13.9-19,9.7-38.3-4.3c-3.8-2.8-7.3-5.8-11-8.8
			c-2-1.3-3.7-3-5.7-4.3l0,0c-2.3-4.2-6.8-5.7-10.2-8.6c-2-1.7-4.8-3-3.6-6.1s3.8-4,6.9-3.9c1.9,0.1,3.8,0,5.7,0
			c4.5,0.3,9.5-1.5,13.3,0.8c4.5,2.9,1.5,8.3,2.3,12.6c1.5,8.7,7.4,13.2,18.7,13.6c6.1,0.2,12.3,0,18.5,0.1c2.7,0,6.2-1.2,7.6,2.1
			C399.2,359.2,395.1,360.3,394.4,362.7z"/>
		<path class="st1" d="M338.8,345.5c2.9,0.1,4.5,2,5.7,4.3h-2.9L338.8,345.5z"/>
		<path class="st1" d="M466.6,339.8c10.5,0.1,15.7,4.9,20.6,14.4c3.5,6.9,7.4,13.1,8,21.2c0.3,4.5,5.5,6.8,8.4,10.2
			c1.1,1.3,3.8,2.5,2.5,4.5s-4,1.3-5.8,0.4c-6-2.8-11.8-5.9-17.5-9.3c-10-6.4-18.3-15.2-24.1-25.5
			C453.3,346.1,456.6,339.8,466.6,339.8z"/>
		<path class="st1" d="M399.7,280.3c7.2-1.3,13.2,1.2,18.7,4.8c1.7,1.1,3.5,3.4,2.2,5.3c-1.3,1.9-3.4,0-4.8-1
			C411,285.5,405.6,282.4,399.7,280.3z"/>
		<path class="st1" d="M441.2,357.7c-0.2,2.6-2.2,2.8-4.2,1.1c-3-2.7-5.9-5.5-8.6-8.4c-1.4-1.2-1.6-3.3-0.4-4.7
			c0.1-0.1,0.2-0.3,0.4-0.4c2.1-2.1,3.7-5.6,6.8-5.7c2.1-0.1,2.7,3,3.2,5C439.5,348.7,440.2,352.8,441.2,357.7z"/>
		<path class="st1" d="M502.9,312.7c0.5,2.9,1.4,5.6,4.3,7.1l1.4,2.9c1.7,2.2,2.5,5,4.3,7.1c4.3,12.5,12.8,22.8,18.4,34.7
			c1.8,3.3,3.7,6.5,5.8,9.5c1.1,6.3,5.7,10.8,8.3,16.4c1.7,3.7,1.2,5.8-2.5,7.1c-0.9,0.3-1.8,0.6-2.7,0.9c-4.4,1.4-9.3,6.2-13.1,3.2
			c-3.8-3,0.7-8.2,1.3-12.4c1.2-7.7-3.7-12.2-8.9-15.8c-4.9-3.4-7-7.3-6.7-13.1c0.2-3.7-0.7-7.1-4.3-9.1l-1.4-1.4
			c-3.8-4.1-0.7-10.2-4.3-14.3c-1-1-1.9-1.9-2.9-2.9c-3-2.2-6.5-3.8-10.2-4.7c-4.8-1.4-7.1-4.1-7-9.1c0.1-6.3-0.2-12.7,0.1-19
			c0.2-3.4,1.1-6.3,5.6-4.3l2.9,1.4l8.6,10l0,0C501,308.9,501.2,311.2,502.9,312.7L502.9,312.7z"/>
		<path class="st1" d="M488.6,295.6c-2.9-0.1-4.5,0.9-4.3,4.1c0.1,2.3,0.1,4.7,0,7c-0.6,10.7-1.8,21.7,13.4,23.6
			c0.9,0.1,1.6,1.6,2.3,2.5c-4.2-1.4-8.5-2.8-12.6-4.5c-3.7-1.5-6.1-4.2-6-8.6c0.1-6.1,0-12.2,0-18.4c0-4.8,1.7-7.8,7.1-7.1
			C488.6,294.7,488.6,295.2,488.6,295.6z"/>
		<path class="st1" d="M502.8,335.6c5.3,3.6,1.4,10,4.3,14.3C502.3,346.1,504.8,340.2,502.8,335.6z"/>
		<path class="st1" d="M512.8,329.9c-2.9-1.5-3.8-4.2-4.3-7.1c2.6,1,3.1,3.6,4.3,5.7C512.8,329,512.8,329.4,512.8,329.9z"/>
		<path class="st1" d="M502.9,312.7c-2.6-1.1-3-3.3-2.9-5.7C501.7,308.4,502.8,310.5,502.9,312.7z"/>
		<path class="st1" d="M191.6,433c-13.7-3.8-26.5-10.2-37.9-18.7c-13.3-10-18.8-23.9-24.9-37.9c-0.6-1.4-2-3.3,0-4.4
			c2-1,2.9,1.1,3.9,2.3c8.8,11.7,17.7,23.3,26.2,35.3c4.4,6.7,12,10.6,20,10.1c4.5-0.3,9-0.2,13.5,0.1c4.9,0.5,10.4,2.9,10.3,7.8
			C202.6,432.7,196.3,431.8,191.6,433z"/>
		<path class="st1" d="M364.8,278.3c1.4-11.3,7.1-20.7,8.9-31.5c0.9-5.4-1.8-10.2-0.6-15.3c0.4-1.7-0.8-4,1.4-5.1
			c2.2-1.1,3.5,0.8,4.8,2.1c4.1,3.9,8.8,6.3,14.7,5.9c5.4-0.3,7.9,2.4,7.7,7.7c-0.2,5.3-0.2,10.5,4.3,14.4c1.1,0.7,1.4,2.2,0.7,3.2
			c-0.1,0.2-0.3,0.3-0.4,0.5c-1.4,1.4-2.9,0.7-4.6,0.5c-10.5-1.2-20.8-0.7-29,7.1C369.4,270.9,367.3,274.8,364.8,278.3z"/>
		<path class="st1" d="M454.3,278.6c7.7,3.3,9.6,9.3,8.7,17.1c-0.3,4.7-0.4,9.5-0.1,14.2c0.2,3.4-1.3,6.6-3.9,8.7
			c-3,2.2-6.6,2.1-7.1-2c-2.4-17-13.1-30.4-20.2-46.6l15.7,5.7C449.4,277.1,452.1,277.4,454.3,278.6z"/>
		<path class="st1" d="M454.3,278.6c-2.7,0.3-5.4-0.8-7.1-2.9C449.9,275.4,452.6,276.5,454.3,278.6z"/>
		<path class="st1" d="M378.7,305.6c0.1-1.2,0.1-2.4,0-3.6c-0.9-6.9,2.2-8.2,8.2-6.3c4,1.3,8.3,1.5,12.3,2.9
			c7.9,2.5,14.6,11.7,15.1,19.8c0.2,3.5-1.5,5.3-4.6,4.3c-7.5-2.6-15.3-2.7-23-3.4c-6.9-0.6-9-3.7-8.1-10
			C378.8,308.1,378.8,306.8,378.7,305.6z"/>
		<path class="st1" d="M263.4,235.7c25.9,0,51.8-0.1,77.7,0.2c3.6,0,8.3-3.7,11,1.4c2.4,4.5,0.6,9.1-0.4,13.8
			c-4.1,20-37.5,38.2-57.9,24.9c-3.2-2.1-6.8-1.7-10.4-1.7H123.1c-10.6,0-11.1-0.8-7.7-11.1c0.8-2.5,1.8-4.9,2.4-7.4
			c1.8-8,7.1-10.6,14.9-11.6c15.4-2,30.7-4.9,46-7.7c2.8-0.5,5.6-0.8,8.5-0.8H263.4z"/>
		<path class="st1" d="M257.6,304.4c-11.2,3.7-116.3,3.7-125.9,0.3C140.1,300.3,242.6,299.7,257.6,304.4z"/>
		<path class="st1" d="M353.1,351c-8.4-4.8-16.3-10.4-23.5-16.9c-2.5-2.3-1.2-4,1.6-4.1c5-0.3,10-0.2,15,0c2-0.2,3.8,1.3,4,3.3
			c0,0.3,0,0.5,0,0.8C349.7,339.9,351.6,345.2,353.1,351z"/>
		<path class="st1" d="M357.5,353.8c9.5,2.6,19.4,3.7,29.3,3.3c1.9,0,4.9-1.3,5.4,1.6c0.4,2.2-2.3,3.3-4.1,4.4
			C375,370.8,369.1,369.2,357.5,353.8z"/>
		<path class="st1" d="M498.8,386.5c-11.5-4-21.7-11-29.6-20.2c-4.2-4.9-9-9.6-10.1-16.7c-0.7-4.7,0.5-6.5,5.2-6.9
			c5.7-0.4,10.7,1.4,15.8,3.3c1.4,0.5,3.5,2.1,3.5,3.2c0.2,8.8,9.3,14,9.1,23.1C492.5,377.5,495,382.2,498.8,386.5z"/>
	</g>
</g>
</svg>
